<svg version="1.1" viewBox="0.0 0.0 741.4698162729659 266.76377952755905" fill="none" stroke="none" stroke-linecap="square" stroke-miterlimit="10" xmlns:xlink="http://www.w3.org/1999/xlink" xmlns="http://www.w3.org/2000/svg"><clipPath id="p.0"><path d="m0 0l741.4698 0l0 266.7638l-741.4698 0l0 -266.7638z" clip-rule="nonzero"/></clipPath><g clip-path="url(#p.0)"><path fill="#000000" fill-opacity="0.0" d="m0 0l741.4698 0l0 266.7638l-741.4698 0z" fill-rule="evenodd"/><path fill="#cfe2f3" d="m574.1562 151.75722l66.04724 0l0 41.88977l-66.04724 0z" fill-rule="evenodd"/><path stroke="#000000" stroke-width="1.0" stroke-linejoin="round" stroke-linecap="butt" d="m574.1562 151.75722l66.04724 0l0 41.88977l-66.04724 0z" fill-rule="evenodd"/><path fill="#ffffff" d="m578.0302 155.9462l58.299194 0l0 33.51181l-58.299194 0z" fill-rule="evenodd"/><path stroke="#000000" stroke-width="1.0" stroke-linejoin="round" stroke-linecap="butt" d="m578.0302 155.9462l58.299194 0l0 33.51181l-58.299194 0z" fill-rule="evenodd"/><path fill="#000000" fill-opacity="0.0" d="m607.1798 193.64699l0 8.913376" fill-rule="evenodd"/><path stroke="#000000" stroke-width="1.0" stroke-linejoin="round" stroke-linecap="butt" d="m607.1798 193.64699l0 8.913376" fill-rule="evenodd"/><path fill="#000000" fill-opacity="0.0" d="m596.0617 202.56036l22.236206 0" fill-rule="evenodd"/><path stroke="#000000" stroke-width="1.0" stroke-linejoin="round" stroke-linecap="butt" d="m596.0617 202.56036l22.236206 0" fill-rule="evenodd"/><path fill="#ead1dc" d="m105.896324 151.75722l66.04725 0l0 41.88977l-66.04725 0z" fill-rule="evenodd"/><path stroke="#000000" stroke-width="1.0" stroke-linejoin="round" stroke-linecap="butt" d="m105.896324 151.75722l66.04725 0l0 41.88977l-66.04725 0z" fill-rule="evenodd"/><path fill="#ffffff" d="m109.77034 155.9462l58.29921 0l0 33.51181l-58.29921 0z" fill-rule="evenodd"/><path stroke="#000000" stroke-width="1.0" stroke-linejoin="round" stroke-linecap="butt" d="m109.77034 155.9462l58.29921 0l0 33.51181l-58.29921 0z" fill-rule="evenodd"/><path fill="#000000" fill-opacity="0.0" d="m138.91995 193.64699l0 8.913376" fill-rule="evenodd"/><path stroke="#000000" stroke-width="1.0" stroke-linejoin="round" stroke-linecap="butt" d="m138.91995 193.64699l0 8.913376" fill-rule="evenodd"/><path fill="#000000" fill-opacity="0.0" d="m127.801834 202.56036l22.236221 0" fill-rule="evenodd"/><path stroke="#000000" stroke-width="1.0" stroke-linejoin="round" stroke-linecap="butt" d="m127.801834 202.56036l22.236221 0" fill-rule="evenodd"/><path fill="#cccccc" d="m418.06955 151.75853l66.04724 0l0 41.88977l-66.04724 0z" fill-rule="evenodd"/><path stroke="#000000" stroke-width="1.0" stroke-linejoin="round" stroke-linecap="butt" d="m418.06955 151.75853l66.04724 0l0 41.88977l-66.04724 0z" fill-rule="evenodd"/><path fill="#ffffff" d="m421.94357 155.94751l58.299194 0l0 33.51181l-58.299194 0z" fill-rule="evenodd"/><path stroke="#000000" stroke-width="1.0" stroke-linejoin="round" stroke-linecap="butt" d="m421.94357 155.94751l58.299194 0l0 33.51181l-58.299194 0z" fill-rule="evenodd"/><path fill="#000000" fill-opacity="0.0" d="m451.09317 193.6483l0 8.913376" fill-rule="evenodd"/><path stroke="#000000" stroke-width="1.0" stroke-linejoin="round" stroke-linecap="butt" d="m451.09317 193.6483l0 8.913376" fill-rule="evenodd"/><path fill="#000000" fill-opacity="0.0" d="m439.97507 202.56168l22.236206 0" fill-rule="evenodd"/><path stroke="#000000" stroke-width="1.0" stroke-linejoin="round" stroke-linecap="butt" d="m439.97507 202.56168l22.236206 0" fill-rule="evenodd"/><path fill="#d9ead3" d="m261.98425 151.75722l66.04724 0l0 41.88977l-66.04724 0z" fill-rule="evenodd"/><path stroke="#000000" stroke-width="1.0" stroke-linejoin="round" stroke-linecap="butt" d="m261.98425 151.75722l66.04724 0l0 41.88977l-66.04724 0z" fill-rule="evenodd"/><path fill="#ffffff" d="m265.85828 155.9462l58.299194 0l0 33.51181l-58.299194 0z" fill-rule="evenodd"/><path stroke="#000000" stroke-width="1.0" stroke-linejoin="round" stroke-linecap="butt" d="m265.85828 155.9462l58.299194 0l0 33.51181l-58.299194 0z" fill-rule="evenodd"/><path fill="#000000" fill-opacity="0.0" d="m295.00787 193.64699l0 8.913376" fill-rule="evenodd"/><path stroke="#000000" stroke-width="1.0" stroke-linejoin="round" stroke-linecap="butt" d="m295.00787 193.64699l0 8.913376" fill-rule="evenodd"/><path fill="#000000" fill-opacity="0.0" d="m283.88977 202.56036l22.236206 0" fill-rule="evenodd"/><path stroke="#000000" stroke-width="1.0" stroke-linejoin="round" stroke-linecap="butt" d="m283.88977 202.56036l22.236206 0" fill-rule="evenodd"/><path fill="#cfe2f3" d="m717.35693 71.666664l0 0c-1.5437622 0 -2.795227 5.005951 -2.795227 11.181107c0 6.175148 1.2514648 11.181099 2.795227 11.181099l-693.2441 0c-1.5437889 0 -2.7952766 -5.005951 -2.7952766 -11.181099c0 -6.1751556 1.2514877 -11.181107 2.7952766 -11.181107z" fill-rule="evenodd"/><path fill="#e2edf7" d="m717.35693 71.666664l0 0c1.5438232 0 2.795288 5.005951 2.795288 11.181107c0 6.175148 -1.2514648 11.181099 -2.795288 11.181099l0 0c-1.5437622 0 -2.795227 -5.005951 -2.795227 -11.181099c0 -6.1751556 1.2514648 -11.181107 2.795227 -11.181107z" fill-rule="evenodd"/><path fill="#000000" fill-opacity="0.0" d="m717.35693 94.02887l0 0c-1.5437622 0 -2.795227 -5.005951 -2.795227 -11.181099c0 -6.1751556 1.2514648 -11.181107 2.795227 -11.181107l0 0c1.5438232 0 2.795288 5.005951 2.795288 11.181107c0 6.175148 -1.2514648 11.181099 -2.795288 11.181099l-693.2441 0c-1.5437889 0 -2.7952766 -5.005951 -2.7952766 -11.181099c0 -6.1751556 1.2514877 -11.181107 2.7952766 -11.181107l693.2441 0" fill-rule="evenodd"/><path stroke="#000000" stroke-width="1.0" stroke-linejoin="round" stroke-linecap="butt" d="m717.35693 94.02887l0 0c-1.5437622 0 -2.795227 -5.005951 -2.795227 -11.181099c0 -6.1751556 1.2514648 -11.181107 2.795227 -11.181107l0 0c1.5438232 0 2.795288 5.005951 2.795288 11.181107c0 6.175148 -1.2514648 11.181099 -2.795288 11.181099l-693.2441 0c-1.5437889 0 -2.7952766 -5.005951 -2.7952766 -11.181099c0 -6.1751556 1.2514877 -11.181107 2.7952766 -11.181107l693.2441 0" fill-rule="evenodd"/><path fill="#000000" fill-opacity="0.0" d="m21.317585 82.84777l693.2599 0" fill-rule="evenodd"/><path stroke="#ff0000" stroke-width="2.0" stroke-linejoin="round" stroke-linecap="butt" d="m21.317585 82.84777l693.2599 0" fill-rule="evenodd"/><path fill="#000000" fill-opacity="0.0" d="m138.92126 151.75758l0 -66.26771" fill-rule="evenodd"/><path stroke="#ff0000" stroke-width="2.0" stroke-linejoin="round" stroke-linecap="butt" d="m138.92126 151.75758l0 -66.26771" fill-rule="evenodd"/><path fill="#000000" fill-opacity="0.0" d="m295.0092 151.75758l0 -66.26771" fill-rule="evenodd"/><path stroke="#ff0000" stroke-width="2.0" stroke-linejoin="round" stroke-linecap="butt" d="m295.0092 151.75758l0 -66.26771" fill-rule="evenodd"/><path fill="#000000" fill-opacity="0.0" d="m451.09448 151.75853l0 -66.267715" fill-rule="evenodd"/><path stroke="#ff0000" stroke-width="2.0" stroke-linejoin="round" stroke-linecap="butt" d="m451.09448 151.75853l0 -66.267715" fill-rule="evenodd"/><path fill="#000000" fill-opacity="0.0" d="m607.1811 151.75758l0 -66.26771" fill-rule="evenodd"/><path stroke="#ff0000" stroke-width="2.0" stroke-linejoin="round" stroke-linecap="butt" d="m607.1811 151.75758l0 -66.26771" fill-rule="evenodd"/><path fill="#000000" fill-opacity="0.0" d="m288.6719 27.981627l164.126 0l0 36.220474l-164.126 0z" fill-rule="evenodd"/><path fill="#4a86e8" d="m338.45367 55.1985q-2.96875 0 -3.125 -2.0q-0.0625 -1.265625 2.96875 -4.53125q0.59375 -0.59375 5.71875 -5.71875l-8.75 0l0 -1.40625l10.234375 0l0.375 -0.375l1.1875 0.8125q0.515625 0.234375 -0.296875 0.453125q-4.53125 4.375 -7.203125 7.265625q-2.296875 2.453125 -2.296875 3.203125q0 0.890625 1.484375 0.890625l7.859375 0q0.828125 0 1.1875 -0.53125q0.375 -0.515625 0.53125 -1.84375l1.546875 0.296875q-0.21875 1.328125 -0.515625 2.140625q-0.515625 1.34375 -2.21875 1.34375l-8.6875 0zm30.359375 0.96875q-5.71875 -3.34375 -7.65625 -9.0625q-2.0 6.75 -7.5625 9.203125l-0.96875 -1.625q5.796875 -2.453125 7.203125 -9.5l-6.53125 0l0 -1.640625l6.671875 0l0 -3.9375l1.640625 0q0.59375 0.078125 0.078125 0.453125l0 3.484375l7.640625 0l0 1.640625l-7.28125 0q1.78125 6.0 7.65625 9.125l-0.890625 1.859375zm-8.09375 -4.75q1.5625 1.109375 3.109375 2.59375l-1.25 1.40625q-1.265625 -1.328125 -2.96875 -2.59375l1.109375 -1.40625zm10.90625 2.671875q0.59375 -1.71875 0.890625 -4.09375l1.34375 0.296875q0.21875 0.234375 -0.15625 0.453125q-0.296875 2.296875 -0.8125 3.9375l-1.265625 -0.59375zm2.890625 -6.609375l2.3125 -0.15625l-0.59375 -1.25l1.109375 -0.53125q0.734375 1.1875 1.328125 2.828125l0 -8.171875l9.4375 0l0 15.0q0 1.109375 -0.96875 1.109375l-1.40625 0l-0.296875 -1.1875l1.1875 0q0.21875 0 0.21875 -0.21875l0 -5.5l-4.078125 0l0 2.078125q0 0.453125 0.4375 0.453125l2.59375 0l0 1.1875l-2.96875 0q-1.328125 0 -1.328125 -1.34375l0 -2.375l-1.5625 0l0 7.140625l-1.265625 0l0 -7.796875l-1.109375 0.515625l-0.296875 -0.75l-1.40625 0.15625l0 7.796875l-1.265625 0l0 -7.65625l-2.375 0.234375q-0.21875 0.65625 -0.375 0.21875l-0.21875 -1.703125l1.265625 0l1.265625 -1.71875q-1.265625 -1.40625 -2.453125 -2.4375l0.890625 -0.96875l0.671875 0.671875l1.78125 -3.5l1.25 0.75q0.375 0.296875 -0.296875 0.375l-1.84375 3.265625l0.734375 0.734375l1.859375 -2.96875l1.1875 0.8125q0.375 0.296875 -0.296875 0.375l-3.125 4.53125zm9.28125 -2.15625l1.046875 -3.265625l1.40625 0.375q0.515625 0.140625 -0.21875 0.375l-1.125 2.515625l1.9375 0l0 -3.9375l-6.90625 0l0 3.9375l3.859375 0zm-6.234375 4.53125q0.671875 1.5625 0.890625 3.5625l-1.265625 0.515625q-0.21875 -2.078125 -0.734375 -3.703125l1.109375 -0.375zm4.453125 -7.71875q0.671875 0.8125 1.265625 2.296875l-1.1875 0.515625q-0.515625 -1.484375 -1.1875 -2.375l1.109375 -0.4375zm-2.078125 6.078125l2.828125 0l0 -1.703125l-2.828125 0l0 1.703125zm6.90625 0l0 -1.703125l-2.828125 0l0 1.703125l2.828125 0zm17.953125 6.015625l0 -3.34375l-3.703125 0l0 3.34375l3.703125 0zm1.484375 2.015625l-1.484375 0l0 -0.828125l-3.703125 0l0 1.046875l-1.484375 0l0 -6.765625l6.671875 0l0 6.546875zm-5.265625 -13.8125q0.375 1.03125 1.859375 2.671875q1.328125 -1.78125 1.703125 -2.671875l-3.5625 0zm1.859375 4.75q-2.59375 2.375 -4.828125 3.1875l-0.671875 -1.484375q2.078125 -0.671875 4.53125 -2.8125q-0.59375 -0.59375 -1.5625 -2.15625q-0.734375 1.703125 -1.484375 2.453125l-1.109375 -1.125q1.78125 -2.375 2.75 -5.9375l1.5625 0.453125q0.296875 0.296875 -0.234375 0.375l-0.359375 0.890625l3.78125 0l0.21875 -0.375l1.1875 0.96875q0.296875 0.21875 -0.296875 0.4375q-1.03125 2.375 -2.453125 4.015625q2.53125 1.921875 4.3125 2.515625l-0.59375 1.640625q-1.78125 -0.59375 -4.75 -3.046875zm-5.421875 -6.6875l0 5.5l-1.859375 0l0 2.75l1.71875 0l0 1.40625l-1.71875 0l0 3.40625l2.609375 -0.8125l0.296875 1.34375l-6.828125 1.921875q-0.078125 0.59375 -0.375 0.296875l-0.59375 -1.625l0.890625 -0.15625l0 -6.90625l1.40625 0q0.59375 0.078125 0.078125 0.453125l0 6.078125l1.03125 -0.21875l0 -7.9375l-1.328125 0l-1.265625 0l0 -5.5l5.9375 0zm-1.484375 4.3125l0 -3.125l-2.96875 0l0 3.125l2.96875 0z" fill-rule="nonzero"/><path fill="#000000" fill-opacity="0.0" d="m89.24672 202.56168l99.33858 0l0 36.220474l-99.33858 0z" fill-rule="evenodd"/><path fill="#000000" d="m112.72547 227.40355l0 -9.203125l-5.859375 0l0 -1.640625l13.4375 0l0 1.640625l-5.859375 0l0 9.203125l7.265625 0l0 1.625l-16.171875 0l0 -1.625l7.1875 0zm28.062508 -10.015625l0 1.40625l-5.34375 0l0 2.75l4.671875 0l0 1.40625l-4.671875 0l0 2.453125l4.96875 0l0 1.40625l-4.96875 0l0 4.15625l-1.484375 0l0 -12.171875l-0.75 0q-1.1875 2.515625 -2.515625 3.859375l-1.40625 -1.046875q2.96875 -3.109375 3.703125 -7.34375l1.5625 0.453125q0.4375 0.21875 -0.078125 0.359375q-0.140625 0.75 -0.734375 2.3125l7.046875 0zm-16.625008 5.1875q3.265625 -3.78125 4.2968826 -8.15625l1.640625 0.515625q0.4375 0.296875 -0.078125 0.375q-0.515625 1.703125 -1.484375 3.703125l0.453125 0.15625q0.296875 0.296875 -0.234375 0.359375l0 11.4375l-1.4843826 0l0 -9.65625q-0.8125 1.34375 -1.921875 2.53125l-1.1875 -1.265625zm27.312508 4.671875q0.734375 1.5625 0.96875 2.75l-1.1875 0.375q-0.296875 -1.40625 -0.96875 -2.890625l1.1875 -0.234375zm-2.0 0.234375q0.359375 1.40625 0.65625 2.890625l-1.25 0.296875q-0.296875 -1.640625 -0.59375 -3.046875l1.1875 -0.140625zm-2.078125 0.21875q0.21875 1.703125 0.296875 2.96875l-1.34375 0q0 -1.109375 -0.078125 -2.96875l1.125 0zm-4.09375 3.046875q0.671875 -1.421875 1.046875 -3.203125l1.109375 0.234375q-0.375 2.15625 -0.890625 3.34375l-1.265625 -0.375zm9.28125 -5.421875l0 1.1875l-8.53125 0.515625q-0.375 0.671875 -0.515625 -0.078125l-0.296875 -1.328125l3.921875 -0.078125l0 -1.5625l-3.265625 0l0 -1.1875l3.265625 0l0 -1.25l-1.625 0l-1.640625 0l0 -6.984375l7.953125 0l0 6.984375l-3.421875 0l0 1.25l3.484375 0l0 1.1875l-3.484375 0l0 1.484375l4.15625 -0.140625zm-6.609375 -5.796875q-0.140625 -1.328125 -0.4375 -2.734375l0.8125 -0.234375q0.375 1.484375 0.453125 2.828125l-0.828125 0.140625zm4.15625 -2.375q-0.140625 1.125 -0.515625 2.3125l-0.890625 -0.078125q0.375 -1.34375 0.515625 -2.75l0.890625 0.078125q0.53125 0.140625 0 0.4375zm5.046875 5.421875l0 -8.234375l1.421875 0q0.59375 0.078125 0.0625 0.4375l0 2.609375l3.5625 0l0 1.40625l-3.5625 0l0 3.78125l3.265625 0l0 8.09375l-1.484375 0l0 -1.03125l-3.78125 0l0 1.328125l-1.484375 0l0 -8.390625l2.0 0zm-4.59375 -2.21875l0 -4.609375l-2.15625 0l0 4.609375l2.15625 0zm-3.421875 -4.609375l-2.0 0l0 4.609375l2.0 0l0 -4.609375zm11.28125 12.46875l0 -4.234375l-3.78125 0l0 4.234375l3.78125 0z" fill-rule="nonzero"/><path fill="#000000" d="m161.16298 229.48167l5.125 -13.359375l1.90625 0l5.46875 13.359375l-2.015625 0l-1.546875 -4.046875l-5.59375 0l-1.46875 4.046875l-1.875 0zm3.859375 -5.484375l4.53125 0l-1.40625 -3.703125q-0.625 -1.6875 -0.9375 -2.765625q-0.265625 1.28125 -0.71875 2.546875l-1.46875 3.921875z" fill-rule="nonzero"/><path fill="#000000" fill-opacity="0.0" d="m245.33858 202.56168l99.33858 0l0 36.220474l-99.33858 0z" fill-rule="evenodd"/><path fill="#000000" d="m268.81735 227.40355l0 -9.203125l-5.859375 0l0 -1.640625l13.4375 0l0 1.640625l-5.859375 0l0 9.203125l7.265625 0l0 1.625l-16.171875 0l0 -1.625l7.1875 0zm28.0625 -10.015625l0 1.40625l-5.34375 0l0 2.75l4.671875 0l0 1.40625l-4.671875 0l0 2.453125l4.96875 0l0 1.40625l-4.96875 0l0 4.15625l-1.484375 0l0 -12.171875l-0.75 0q-1.1875 2.515625 -2.515625 3.859375l-1.40625 -1.046875q2.96875 -3.109375 3.703125 -7.34375l1.5625 0.453125q0.4375 0.21875 -0.078125 0.359375q-0.140625 0.75 -0.734375 2.3125l7.046875 0zm-16.625 5.1875q3.265625 -3.78125 4.296875 -8.15625l1.640625 0.515625q0.4375 0.296875 -0.078125 0.375q-0.515625 1.703125 -1.484375 3.703125l0.453125 0.15625q0.296875 0.296875 -0.234375 0.359375l0 11.4375l-1.484375 0l0 -9.65625q-0.8125 1.34375 -1.921875 2.53125l-1.1875 -1.265625zm27.3125 4.671875q0.734375 1.5625 0.96875 2.75l-1.1875 0.375q-0.296875 -1.40625 -0.96875 -2.890625l1.1875 -0.234375zm-2.0 0.234375q0.359375 1.40625 0.65625 2.890625l-1.25 0.296875q-0.296875 -1.640625 -0.59375 -3.046875l1.1875 -0.140625zm-2.078125 0.21875q0.21875 1.703125 0.296875 2.96875l-1.34375 0q0 -1.109375 -0.078125 -2.96875l1.125 0zm-4.09375 3.046875q0.671875 -1.421875 1.046875 -3.203125l1.109375 0.234375q-0.375 2.15625 -0.890625 3.34375l-1.265625 -0.375zm9.28125 -5.421875l0 1.1875l-8.53125 0.515625q-0.375 0.671875 -0.515625 -0.078125l-0.296875 -1.328125l3.921875 -0.078125l0 -1.5625l-3.265625 0l0 -1.1875l3.265625 0l0 -1.25l-1.625 0l-1.640625 0l0 -6.984375l7.953125 0l0 6.984375l-3.421875 0l0 1.25l3.484375 0l0 1.1875l-3.484375 0l0 1.484375l4.15625 -0.140625zm-6.609375 -5.796875q-0.140625 -1.328125 -0.4375 -2.734375l0.8125 -0.234375q0.375 1.484375 0.453125 2.828125l-0.828125 0.140625zm4.15625 -2.375q-0.140625 1.125 -0.515625 2.3125l-0.890625 -0.078125q0.375 -1.34375 0.515625 -2.75l0.890625 0.078125q0.53125 0.140625 0 0.4375zm5.046875 5.421875l0 -8.234375l1.421875 0q0.59375 0.078125 0.0625 0.4375l0 2.609375l3.5625 0l0 1.40625l-3.5625 0l0 3.78125l3.265625 0l0 8.09375l-1.484375 0l0 -1.03125l-3.78125 0l0 1.328125l-1.484375 0l0 -8.390625l2.0 0zm-4.59375 -2.21875l0 -4.609375l-2.15625 0l0 4.609375l2.15625 0zm-3.421875 -4.609375l-2.0 0l0 4.609375l2.0 0l0 -4.609375zm11.28125 12.46875l0 -4.234375l-3.78125 0l0 4.234375l3.78125 0z" fill-rule="nonzero"/><path fill="#000000" d="m318.64548 229.48167l0 -13.359375l5.015625 0q1.53125 0 2.453125 0.40625q0.921875 0.40625 1.4375 1.25q0.53125 0.84375 0.53125 1.765625q0 0.859375 -0.46875 1.625q-0.453125 0.75 -1.390625 1.203125q1.203125 0.359375 1.859375 1.21875q0.65625 0.859375 0.65625 2.015625q0 0.9375 -0.40625 1.75q-0.390625 0.796875 -0.984375 1.234375q-0.578125 0.4375 -1.453125 0.671875q-0.875 0.21875 -2.15625 0.21875l-5.09375 0zm1.78125 -7.75l2.875 0q1.1875 0 1.6875 -0.140625q0.671875 -0.203125 1.015625 -0.671875q0.34375 -0.46875 0.34375 -1.171875q0 -0.65625 -0.328125 -1.15625q-0.3125 -0.515625 -0.90625 -0.703125q-0.59375 -0.1875 -2.03125 -0.1875l-2.65625 0l0 4.03125zm0 6.171875l3.3125 0q0.859375 0 1.203125 -0.0625q0.609375 -0.109375 1.015625 -0.359375q0.421875 -0.265625 0.6875 -0.75q0.265625 -0.484375 0.265625 -1.125q0 -0.75 -0.390625 -1.296875q-0.375 -0.546875 -1.0625 -0.765625q-0.671875 -0.234375 -1.953125 -0.234375l-3.078125 0l0 4.59375z" fill-rule="nonzero"/><path fill="#000000" fill-opacity="0.0" d="m401.43045 202.56168l99.33859 0l0 36.220474l-99.33859 0z" fill-rule="evenodd"/><path fill="#000000" d="m424.3945 227.40355l0 -9.203125l-5.859375 0l0 -1.640625l13.4375 0l0 1.640625l-5.859375 0l0 9.203125l7.265625 0l0 1.625l-16.171875 0l0 -1.625l7.1875 0zm28.0625 -10.015625l0 1.40625l-5.34375 0l0 2.75l4.671875 0l0 1.40625l-4.671875 0l0 2.453125l4.96875 0l0 1.40625l-4.96875 0l0 4.15625l-1.484375 0l0 -12.171875l-0.75 0q-1.1875 2.515625 -2.515625 3.859375l-1.40625 -1.046875q2.96875 -3.109375 3.703125 -7.34375l1.5625 0.453125q0.4375 0.21875 -0.078125 0.359375q-0.140625 0.75 -0.734375 2.3125l7.046875 0zm-16.625 5.1875q3.265625 -3.78125 4.296875 -8.15625l1.640625 0.515625q0.4375 0.296875 -0.078125 0.375q-0.515625 1.703125 -1.484375 3.703125l0.453125 0.15625q0.296875 0.296875 -0.234375 0.359375l0 11.4375l-1.484375 0l0 -9.65625q-0.8125 1.34375 -1.921875 2.53125l-1.1875 -1.265625zm27.3125 4.671875q0.734375 1.5625 0.96875 2.75l-1.1875 0.375q-0.296875 -1.40625 -0.96875 -2.890625l1.1875 -0.234375zm-2.0 0.234375q0.359375 1.40625 0.65625 2.890625l-1.25 0.296875q-0.296875 -1.640625 -0.59375 -3.046875l1.1875 -0.140625zm-2.078125 0.21875q0.21875 1.703125 0.296875 2.96875l-1.34375 0q0 -1.109375 -0.078125 -2.96875l1.125 0zm-4.09375 3.046875q0.671875 -1.421875 1.046875 -3.203125l1.109375 0.234375q-0.375 2.15625 -0.890625 3.34375l-1.265625 -0.375zm9.28125 -5.421875l0 1.1875l-8.53125 0.515625q-0.375 0.671875 -0.515625 -0.078125l-0.296875 -1.328125l3.921875 -0.078125l0 -1.5625l-3.265625 0l0 -1.1875l3.265625 0l0 -1.25l-1.625 0l-1.640625 0l0 -6.984375l7.953125 0l0 6.984375l-3.421875 0l0 1.25l3.484375 0l0 1.1875l-3.484375 0l0 1.484375l4.15625 -0.140625zm-6.609375 -5.796875q-0.140625 -1.328125 -0.4375 -2.734375l0.8125 -0.234375q0.375 1.484375 0.453125 2.828125l-0.828125 0.140625zm4.15625 -2.375q-0.140625 1.125 -0.515625 2.3125l-0.890625 -0.078125q0.375 -1.34375 0.515625 -2.75l0.890625 0.078125q0.53125 0.140625 0 0.4375zm5.046875 5.421875l0 -8.234375l1.421875 0q0.59375 0.078125 0.0625 0.4375l0 2.609375l3.5625 0l0 1.40625l-3.5625 0l0 3.78125l3.265625 0l0 8.09375l-1.484375 0l0 -1.03125l-3.78125 0l0 1.328125l-1.484375 0l0 -8.390625l2.0 0zm-4.59375 -2.21875l0 -4.609375l-2.15625 0l0 4.609375l2.15625 0zm-3.421875 -4.609375l-2.0 0l0 4.609375l2.0 0l0 -4.609375zm11.28125 12.46875l0 -4.234375l-3.78125 0l0 4.234375l3.78125 0z" fill-rule="nonzero"/><path fill="#000000" d="m483.832 224.79417l1.765625 0.453125q-0.5625 2.171875 -2.0 3.328125q-1.4375 1.140625 -3.53125 1.140625q-2.15625 0 -3.515625 -0.875q-1.34375 -0.890625 -2.0625 -2.546875q-0.703125 -1.671875 -0.703125 -3.59375q0 -2.078125 0.796875 -3.625q0.796875 -1.5625 2.265625 -2.359375q1.484375 -0.8125 3.25 -0.8125q2.0 0 3.359375 1.015625q1.375 1.015625 1.90625 2.875l-1.734375 0.40625q-0.46875 -1.453125 -1.359375 -2.109375q-0.875 -0.671875 -2.203125 -0.671875q-1.546875 0 -2.578125 0.734375q-1.03125 0.734375 -1.453125 1.984375q-0.421875 1.234375 -0.421875 2.5625q0 1.703125 0.5 2.96875q0.5 1.265625 1.546875 1.90625q1.046875 0.625 2.265625 0.625q1.484375 0 2.515625 -0.859375q1.03125 -0.859375 1.390625 -2.546875z" fill-rule="nonzero"/><path fill="#000000" fill-opacity="0.0" d="m557.52234 202.56168l99.33856 0l0 36.220474l-99.33856 0z" fill-rule="evenodd"/><path fill="#000000" d="m580.4864 227.40355l0 -9.203125l-5.859375 0l0 -1.640625l13.4375 0l0 1.640625l-5.859375 0l0 9.203125l7.265625 0l0 1.625l-16.171875 0l0 -1.625l7.1875 0zm28.0625 -10.015625l0 1.40625l-5.34375 0l0 2.75l4.671875 0l0 1.40625l-4.671875 0l0 2.453125l4.96875 0l0 1.40625l-4.96875 0l0 4.15625l-1.484375 0l0 -12.171875l-0.75 0q-1.1875 2.515625 -2.515625 3.859375l-1.40625 -1.046875q2.96875 -3.109375 3.703125 -7.34375l1.5625 0.453125q0.4375 0.21875 -0.078125 0.359375q-0.140625 0.75 -0.734375 2.3125l7.046875 0zm-16.625 5.1875q3.265625 -3.78125 4.296875 -8.15625l1.640625 0.515625q0.4375 0.296875 -0.078125 0.375q-0.515625 1.703125 -1.484375 3.703125l0.453125 0.15625q0.296875 0.296875 -0.234375 0.359375l0 11.4375l-1.484375 0l0 -9.65625q-0.8125 1.34375 -1.921875 2.53125l-1.1875 -1.265625zm27.3125 4.671875q0.734375 1.5625 0.96875 2.75l-1.1875 0.375q-0.296875 -1.40625 -0.96875 -2.890625l1.1875 -0.234375zm-2.0 0.234375q0.359375 1.40625 0.65625 2.890625l-1.25 0.296875q-0.296875 -1.640625 -0.59375 -3.046875l1.1875 -0.140625zm-2.078125 0.21875q0.21875 1.703125 0.296875 2.96875l-1.34375 0q0 -1.109375 -0.078125 -2.96875l1.125 0zm-4.09375 3.046875q0.671875 -1.421875 1.046875 -3.203125l1.109375 0.234375q-0.375 2.15625 -0.890625 3.34375l-1.265625 -0.375zm9.28125 -5.421875l0 1.1875l-8.53125 0.515625q-0.375 0.671875 -0.515625 -0.078125l-0.296875 -1.328125l3.921875 -0.078125l0 -1.5625l-3.265625 0l0 -1.1875l3.265625 0l0 -1.25l-1.625 0l-1.640625 0l0 -6.984375l7.953125 0l0 6.984375l-3.421875 0l0 1.25l3.484375 0l0 1.1875l-3.484375 0l0 1.484375l4.15625 -0.140625zm-6.609375 -5.796875q-0.140625 -1.328125 -0.4375 -2.734375l0.8125 -0.234375q0.375 1.484375 0.453125 2.828125l-0.828125 0.140625zm4.15625 -2.375q-0.140625 1.125 -0.515625 2.3125l-0.890625 -0.078125q0.375 -1.34375 0.515625 -2.75l0.890625 0.078125q0.53125 0.140625 0 0.4375zm5.046875 5.421875l0 -8.234375l1.421875 0q0.59375 0.078125 0.0625 0.4375l0 2.609375l3.5625 0l0 1.40625l-3.5625 0l0 3.78125l3.265625 0l0 8.09375l-1.484375 0l0 -1.03125l-3.78125 0l0 1.328125l-1.484375 0l0 -8.390625l2.0 0zm-4.59375 -2.21875l0 -4.609375l-2.15625 0l0 4.609375l2.15625 0zm-3.421875 -4.609375l-2.0 0l0 4.609375l2.0 0l0 -4.609375zm11.28125 12.46875l0 -4.234375l-3.78125 0l0 4.234375l3.78125 0z" fill-rule="nonzero"/><path fill="#000000" d="m630.39264 229.48167l0 -13.359375l4.609375 0q1.546875 0 2.375 0.203125q1.140625 0.25 1.953125 0.953125q1.0625 0.890625 1.578125 2.28125q0.53125 1.390625 0.53125 3.171875q0 1.515625 -0.359375 2.703125q-0.359375 1.171875 -0.921875 1.9375q-0.546875 0.765625 -1.203125 1.21875q-0.65625 0.4375 -1.59375 0.671875q-0.9375 0.21875 -2.140625 0.21875l-4.828125 0zm1.765625 -1.578125l2.859375 0q1.3125 0 2.0625 -0.234375q0.75 -0.25 1.203125 -0.703125q0.625 -0.625 0.96875 -1.6875q0.359375 -1.0625 0.359375 -2.578125q0 -2.09375 -0.6875 -3.21875q-0.6875 -1.125 -1.671875 -1.5q-0.703125 -0.28125 -2.28125 -0.28125l-2.8125 0l0 10.203125z" fill-rule="nonzero"/><path fill="#f4cccc" d="m302.0 109.06799l7.5747986 -7.574806l7.5747986 7.574806l-3.787384 0l0 36.771652l-7.5747986 0l0 -36.771652z" fill-rule="evenodd"/><path stroke="#000000" stroke-width="1.0" stroke-linejoin="round" stroke-linecap="butt" d="m302.0 109.06799l7.5747986 -7.574806l7.5747986 7.574806l-3.787384 0l0 36.771652l-7.5747986 0l0 -36.771652z" fill-rule="evenodd"/></g></svg>