<svg version="1.1" viewBox="0.0 0.0 800.0 600.0" fill="none" stroke="none" stroke-linecap="square" stroke-miterlimit="10" xmlns:xlink="http://www.w3.org/1999/xlink" xmlns="http://www.w3.org/2000/svg"><clipPath id="p.0"><path d="m0 0l800.0 0l0 600.0l-800.0 0l0 -600.0z" clip-rule="nonzero"/></clipPath><g clip-path="url(#p.0)"><path fill="#000000" fill-opacity="0.0" d="m0 0l800.0 0l0 600.0l-800.0 0z" fill-rule="evenodd"/><path fill="#f4cccc" d="m60.590878 56.571007l0 0c0 -3.9255028 3.182251 -7.1077538 7.1077538 -7.1077538l140.02072 0c1.885086 0 3.692978 0.7488518 5.02594 2.0818138c1.332962 1.332962 2.0818176 3.1408463 2.0818176 5.02594l0 28.43016c0 3.9255066 -3.182251 7.1077576 -7.1077576 7.1077576l-140.02072 0c-3.9255028 0 -7.1077538 -3.182251 -7.1077538 -7.1077576z" fill-rule="evenodd"/><path stroke="#000000" stroke-width="1.0" stroke-linejoin="round" stroke-linecap="butt" d="m60.590878 56.571007l0 0c0 -3.9255028 3.182251 -7.1077538 7.1077538 -7.1077538l140.02072 0c1.885086 0 3.692978 0.7488518 5.02594 2.0818138c1.332962 1.332962 2.0818176 3.1408463 2.0818176 5.02594l0 28.43016c0 3.9255066 -3.182251 7.1077576 -7.1077576 7.1077576l-140.02072 0c-3.9255028 0 -7.1077538 -3.182251 -7.1077538 -7.1077576z" fill-rule="evenodd"/><path fill="#000000" d="m81.75587 72.65921q4.375 -2.453125 5.640625 -6.3125l-4.984375 0l0 -1.40625l5.34375 0q0.234375 -0.890625 0.375 -2.6718712l1.9375 0.375q0.296875 0.296875 -0.234375 0.359375l-0.359375 1.9374962l8.90625 0l0 1.40625l-9.203125 0q-0.296875 1.046875 -0.671875 1.703125l7.34375 0l0 9.875q0 1.1875 -1.1875 1.1875l-1.703125 0l-0.375 -1.40625l1.484375 0q0.296875 0 0.296875 -0.296875l0 -2.0l-6.453125 0l0 3.9375l-1.484375 0l0 -8.171875q-1.78125 1.859375 -3.78125 3.046875l-0.890625 -1.5625zm6.15625 -0.296875l0 1.625l6.453125 0l0 -1.625l-6.453125 0zm6.453125 -1.40625l0 -1.484375l-6.453125 0l0 1.484375l6.453125 0zm16.78125 -4.53125q-0.828125 2.078125 -4.234375 2.890625l7.5 0l0 6.90625l-10.546875 0l0 -6.90625l2.671875 0l-0.734375 -1.265625q4.078125 -0.59375 4.21875 -3.265625l-1.25 0q-0.828125 1.265625 -1.78125 2.015625l-1.046875 -0.828125q1.703125 -1.546875 2.75 -3.8593712l1.265625 0.453125q0.296875 0.296875 -0.234375 0.375l-0.296875 0.65625l5.9375 0l0.234375 -0.21875l1.1875 0.8124962l-0.375 0.296875q-0.515625 0.890625 -1.859375 2.234375l-1.109375 -0.75q0.59375 -0.515625 1.109375 -1.1875l-3.109375 0q1.25 2.453125 6.0 3.34375l-0.59375 1.40625q-4.078125 -0.734375 -5.703125 -3.109375zm5.1875 12.84375q-3.40625 -0.515625 -5.71875 -1.9375l1.125 -1.03125q2.375 1.1875 5.046875 1.484375l-0.453125 1.484375zm-15.0625 -1.265625q3.1875 -0.453125 5.265625 -1.703125l1.109375 1.03125q0.296875 0.53125 -0.4375 0.296875q-2.375 1.1875 -5.421875 1.78125l-0.515625 -1.40625zm11.65625 -6.6875l0 -1.109375l-7.578125 0l0 1.109375l7.578125 0zm-9.953125 -8.609371q1.109375 0.53125 2.453125 1.265625l-0.96875 1.2656212q-0.96875 -0.59375 -2.453125 -1.2656212l0.96875 -1.265625zm-0.671875 6.531246q-0.140625 0.75 -0.515625 0.078125l-0.8125 -1.265625q2.21875 -0.8125 4.0 -1.921875l0.75 1.109375q-1.78125 1.1875 -3.421875 2.0zm10.625 4.09375l0 -1.125l-7.578125 0l0 1.125l7.578125 0zm0 2.0l0 -1.109375l-7.578125 0l0 1.109375l7.578125 0zm6.671875 0.21875q3.125 -2.453125 3.9375 -5.125l-3.421875 0l0 -1.40625l3.421875 0l0 -6.609371l1.40625 0q0.59375 0.078125 0.078125 0.453125l0 6.156246l3.0468674 0l0 1.40625l-3.0468674 0l0 0.96875q1.859375 1.109375 3.0468674 2.453125l-0.8906174 1.484375q-1.1875 -1.40625 -2.15625 -2.15625l0 6.171875l-1.484375 0l0 -5.71875q-0.96875 1.78125 -2.96875 3.40625l-0.96875 -1.484375zm6.015625 -7.71875q0.734375 -1.625 1.40625 -3.9999962l1.5624924 0.5156212q0.375 0.296875 -0.15625 0.296875q-0.7343674 2.21875 -1.4062424 3.78125l-1.40625 -0.59375zm-4.078125 -3.5625q1.03125 1.78125 1.40625 3.421875l-1.484375 0.59375q-0.375 -1.484375 -1.34375 -3.421875l1.421875 -0.59375zm12.828117 -1.6249962q0.59375 0.0625 0.078125 0.4375l0 9.421871l2.0 -0.515625l0.453125 1.5625l-2.453125 0.515625l0 5.28125l-1.484375 0l0 -4.90625l-4.0 0.890625l-0.375 -1.5625l4.375 -0.890625l0 -10.234371l1.40625 0zm-4.21875 2.1406212q1.40625 0.890625 2.21875 1.78125l-1.03125 1.34375q-0.671875 -0.671875 -2.15625 -1.859375l0.96875 -1.265625zm-0.234375 4.09375q1.125 0.65625 2.234375 1.78125l-1.046875 1.328125q-0.890625 -0.96875 -2.140625 -1.859375l0.953125 -1.25zm25.828125 3.328125l-7.859375 0l-0.75 1.34375l6.90625 0l0 4.53125q0 1.265625 -1.265625 1.265625l-1.03125 0l-0.296875 -1.421875l0.890625 0q0.21875 0 0.21875 -0.21875l0 -2.96875l-2.671875 0l0 4.375l-1.265625 0l0 -4.375l-2.59375 0l0 4.375l-1.265625 0l0 -4.375l-2.296875 0l0 4.671875l-1.484375 0l0 -5.859375l4.828125 0l0.515625 -1.34375l-7.5625 0l0 -1.1875l16.984375 0l0 1.1875zm-10.09375 -4.078125l-4.0 0l0 -0.890625l4.0 0l0 0.890625zm0 1.046875l0 0.890625l-4.0 0l0 -0.890625l4.0 0zm7.28125 0l0 0.890625l-4.015625 0l0 -0.890625l4.015625 0zm0 -1.046875l-4.015625 0l0 -0.890625l4.015625 0l0 0.890625zm-12.03125 -5.484371l12.765625 0l0 1.1875l-5.640625 0l0 1.2499962l7.125 0l0 3.125l-1.484375 0l0 -1.9375l-5.640625 0l0 4.015625l-1.484375 0l0 -4.015625l-5.640625 0l0 1.9375l-1.484375 0l0 -3.125l7.125 0l0 -1.2499962l-5.640625 0l0 -1.1875zm16.265625 7.562496q2.890625 -3.484375 3.484375 -7.796871l1.40625 0.234375q0.75 0.140625 0 0.65625q-0.515625 2.0781212 -1.1875 3.7968712q0.8125 0.4375 0.21875 0.65625l0 11.734375l-1.484375 0l0 -9.953125q-0.734375 1.1875 -1.40625 1.9375l-1.03125 -1.265625zm6.234375 1.34375l0 -5.71875l3.859375 0l0 -0.75l-4.90625 0l0 -1.1874962l4.90625 0l0 -1.546875l1.40625 0q0.59375 0.0625 0.078125 0.4375l0 1.109375l5.484375 0l0 1.1874962l-5.484375 0l0 0.75l4.078125 0l0 5.421875l-1.109375 0q1.1875 0.8125 2.4375 1.84375l-1.03125 0.75l-0.890625 -0.75l-1.046875 0.078125l0 1.34375l3.640625 0l0 1.1875l-3.640625 0l0 2.375q0 1.328125 -1.109375 1.328125l-1.625 0l-0.296875 -1.40625l1.328125 0q0.21875 0 0.21875 -0.21875l0 -2.078125l-4.21875 0q0.890625 0.734375 1.703125 1.84375l-1.265625 0.96875q-0.734375 -0.96875 -1.78125 -1.921875l1.046875 -0.890625l-3.34375 0l0 -1.1875l7.859375 0l0 -1.265625l-6.453125 0.296875q-0.515625 0.671875 -0.671875 -0.078125l-0.21875 -1.1875l4.90625 0l0 -1.03125l-2.609375 0l0 0.296875l-1.25 0zm5.34375 -4.53125l0 0.890625l2.8125 0l0 -0.890625l-2.8125 0zm-4.09375 0l0 0.890625l2.609375 0l0 -0.890625l-2.609375 0zm4.09375 2.078125l0 0.96875l2.8125 0l0 -0.96875l-2.8125 0zm0 2.15625l0 0.953125l2.4375 0l-0.8125 -0.59375l0.8125 -0.359375l-2.4375 0zm-1.484375 -2.15625l-2.609375 0l0 0.96875l2.609375 0l0 -0.96875zm12.6875 -2.53125q-0.96875 -1.484375 -2.234375 -2.4375l1.1875 -1.1249962q1.640625 1.1874962 2.234375 2.3749962l-1.1875 1.1875zm-3.34375 11.140625l2.53125 -1.484375l0 -4.96875l-2.375 0l0 -1.421875l3.859375 0l0 6.015625q1.703125 1.703125 4.0 1.703125l9.203125 0l-0.375 1.421875l-9.046875 0q-2.453125 0 -4.53125 -2.015625l-2.453125 2.453125l-0.8125 -1.703125zm16.25 -6.53125l-5.046875 0l-0.0625 0.671875q2.96875 1.328125 4.8125 3.03125l-1.03125 1.640625q-2.453125 -2.53125 -4.3125 -3.34375q-1.03125 1.9375 -4.21875 3.78125l-0.890625 -1.546875q3.859375 -1.9375 4.21875 -4.234375l-4.671875 0l0 -1.40625l4.75 0l0 -2.453125l-4.15625 0l0 -1.40625l2.59375 0q-0.8125 -1.421875 -1.921875 -2.4531212l1.328125 -0.890625q1.046875 0.96875 1.9375 2.4531212l-1.1875 0.890625l2.515625 0l1.78125 -3.7187462l1.640625 0.75q0.296875 0.296875 -0.21875 0.359375l-1.71875 2.6093712l3.265625 0l0 1.40625l-4.375 0l0 2.453125l4.96875 0l0 1.40625z" fill-rule="nonzero"/><path fill="#cfe2f3" d="m36.46861 167.44229l101.243256 -34.305756l101.24327 34.305756l-101.24327 34.305756z" fill-rule="evenodd"/><path stroke="#000000" stroke-width="1.0" stroke-linejoin="round" stroke-linecap="butt" d="m36.46861 167.44229l101.243256 -34.305756l101.24327 34.305756l-101.24327 34.305756z" fill-rule="evenodd"/><path fill="#000000" d="m96.83945 171.88167q0.46875 -1.359375 0.703125 -3.234375l1.0625 0.234375q0.171875 0.1875 -0.125 0.359375q-0.234375 1.8125 -0.640625 3.109375l-1.0 -0.46875zm2.28125 -5.21875l1.828125 -0.125l-0.46875 -0.984375l0.875 -0.421875q0.578125 0.9375 1.046875 2.234375l0 -6.453125l7.453125 0l0 11.84375q0 0.875 -0.765625 0.875l-1.109375 0l-0.234375 -0.9375l0.9375 0q0.171875 0 0.171875 -0.171875l0 -4.34375l-3.21875 0l0 1.640625q0 0.359375 0.34375 0.359375l2.046875 0l0 0.9375l-2.34375 0q-1.046875 0 -1.046875 -1.0625l0 -1.875l-1.234375 0l0 5.640625l-1.0 0l0 -6.15625l-0.875 0.40625l-0.234375 -0.59375l-1.109375 0.125l0 6.15625l-1.0 0l0 -6.046875l-1.875 0.1875q-0.171875 0.515625 -0.296875 0.171875l-0.171875 -1.34375l1.0 0l1.0 -1.359375q-1.0 -1.109375 -1.9375 -1.921875l0.703125 -0.765625l0.53125 0.53125l1.40625 -2.765625l0.984375 0.59375q0.296875 0.234375 -0.234375 0.296875l-1.453125 2.578125l0.578125 0.578125l1.46875 -2.34375l0.9375 0.640625q0.296875 0.234375 -0.234375 0.296875l-2.46875 3.578125zm7.328125 -1.703125l0.828125 -2.578125l1.109375 0.296875q0.40625 0.109375 -0.171875 0.296875l-0.890625 1.984375l1.53125 0l0 -3.109375l-5.453125 0l0 3.109375l3.046875 0zm-4.921875 3.578125q0.53125 1.234375 0.703125 2.8125l-1.0 0.40625q-0.171875 -1.640625 -0.578125 -2.921875l0.875 -0.296875zm3.515625 -6.09375q0.53125 0.640625 1.0 1.8125l-0.9375 0.40625q-0.40625 -1.171875 -0.9375 -1.875l0.875 -0.34375zm-1.640625 4.796875l2.234375 0l0 -1.34375l-2.234375 0l0 1.34375zm5.453125 0l0 -1.34375l-2.234375 0l0 1.34375l2.234375 0zm14.171875 4.75l0 -2.640625l-2.921875 0l0 2.640625l2.921875 0zm1.171875 1.59375l-1.171875 0l0 -0.65625l-2.921875 0l0 0.828125l-1.171875 0l0 -5.34375l5.265625 0l0 5.171875zm-4.15625 -10.90625q0.296875 0.8125 1.46875 2.109375q1.046875 -1.40625 1.34375 -2.109375l-2.8125 0zm1.46875 3.75q-2.046875 1.875 -3.8125 2.515625l-0.53125 -1.171875q1.640625 -0.53125 3.578125 -2.21875q-0.46875 -0.46875 -1.234375 -1.703125q-0.578125 1.34375 -1.171875 1.9375l-0.875 -0.890625q1.40625 -1.875 2.171875 -4.6875l1.234375 0.359375q0.234375 0.234375 -0.1875 0.296875l-0.28125 0.703125l2.984375 0l0.171875 -0.296875l0.9375 0.765625q0.234375 0.171875 -0.234375 0.34375q-0.8125 1.875 -1.9375 3.171875q2.0 1.515625 3.40625 1.984375l-0.46875 1.296875q-1.40625 -0.46875 -3.75 -2.40625zm-4.28125 -5.28125l0 4.34375l-1.46875 0l0 2.171875l1.359375 0l0 1.109375l-1.359375 0l0 2.6875l2.0625 -0.640625l0.234375 1.0625l-5.390625 1.515625q-0.0625 0.46875 -0.296875 0.234375l-0.46875 -1.28125l0.703125 -0.125l0 -5.453125l1.109375 0q0.46875 0.0625 0.0625 0.359375l0 4.796875l0.8125 -0.171875l0 -6.265625l-1.046875 0l-1.0 0l0 -4.34375l4.6875 0zm-1.171875 3.40625l0 -2.46875l-2.34375 0l0 2.46875l2.34375 0zm10.90625 3.984375q3.453125 -1.9375 4.453125 -4.984375l-3.9375 0l0 -1.109375l4.21875 0q0.1875 -0.703125 0.296875 -2.109375l1.53125 0.296875q0.234375 0.234375 -0.1875 0.28125l-0.28125 1.53125l7.03125 0l0 1.109375l-7.265625 0q-0.234375 0.828125 -0.53125 1.34375l5.796875 0l0 7.796875q0 0.9375 -0.9375 0.9375l-1.34375 0l-0.296875 -1.109375l1.171875 0q0.234375 0 0.234375 -0.234375l0 -1.578125l-5.09375 0l0 3.109375l-1.171875 0l0 -6.453125q-1.40625 1.46875 -2.984375 2.40625l-0.703125 -1.234375zm4.859375 -0.234375l0 1.28125l5.09375 0l0 -1.28125l-5.09375 0zm5.09375 -1.109375l0 -1.171875l-5.09375 0l0 1.171875l5.09375 0zm13.25 -3.578125q-0.65625 1.640625 -3.34375 2.28125l5.921875 0l0 5.453125l-8.328125 0l0 -5.453125l2.109375 0l-0.578125 -1.0q3.21875 -0.46875 3.328125 -2.578125l-0.984375 0q-0.65625 1.0 -1.40625 1.59375l-0.828125 -0.65625q1.34375 -1.21875 2.171875 -3.046875l1.0 0.359375q0.234375 0.234375 -0.1875 0.296875l-0.234375 0.515625l4.6875 0l0.1875 -0.171875l0.9375 0.640625l-0.296875 0.234375q-0.40625 0.703125 -1.46875 1.765625l-0.875 -0.59375q0.46875 -0.40625 0.875 -0.9375l-2.453125 0q0.984375 1.9375 4.734375 2.640625l-0.46875 1.109375q-3.21875 -0.578125 -4.5 -2.453125zm4.09375 10.140625q-2.6875 -0.40625 -4.515625 -1.53125l0.890625 -0.8125q1.875 0.9375 3.984375 1.171875l-0.359375 1.171875zm-11.890625 -1.0q2.515625 -0.359375 4.15625 -1.34375l0.875 0.8125q0.234375 0.421875 -0.34375 0.234375q-1.875 0.9375 -4.28125 1.40625l-0.40625 -1.109375zm9.203125 -5.28125l0 -0.875l-5.984375 0l0 0.875l5.984375 0zm-7.859375 -6.796875q0.875 0.421875 1.9375 1.0l-0.765625 1.0q-0.765625 -0.46875 -1.9375 -1.0l0.765625 -1.0zm-0.53125 5.15625q-0.109375 0.59375 -0.40625 0.0625l-0.640625 -1.0q1.75 -0.640625 3.15625 -1.515625l0.59375 0.875q-1.40625 0.9375 -2.703125 1.578125zm8.390625 3.234375l0 -0.890625l-5.984375 0l0 0.890625l5.984375 0zm0 1.578125l0 -0.875l-5.984375 0l0 0.875l5.984375 0zm5.265625 0.171875q2.46875 -1.9375 3.109375 -4.046875l-2.703125 0l0 -1.109375l2.703125 0l0 -5.21875l1.109375 0q0.46875 0.0625 0.0625 0.359375l0 4.859375l2.40625 0l0 1.109375l-2.40625 0l0 0.765625q1.46875 0.875 2.40625 1.9375l-0.703125 1.171875q-0.9375 -1.109375 -1.703125 -1.703125l0 4.875l-1.171875 0l0 -4.515625q-0.765625 1.40625 -2.34375 2.6875l-0.765625 -1.171875zm4.75 -6.09375q0.578125 -1.28125 1.109375 -3.15625l1.234375 0.40625q0.296875 0.234375 -0.125 0.234375q-0.578125 1.75 -1.109375 2.984375l-1.109375 -0.46875zm-3.21875 -2.8125q0.8125 1.40625 1.109375 2.703125l-1.171875 0.46875q-0.296875 -1.171875 -1.0625 -2.703125l1.125 -0.46875zm10.125 -1.28125q0.46875 0.046875 0.0625 0.34375l0 7.4375l1.578125 -0.40625l0.359375 1.234375l-1.9375 0.40625l0 4.171875l-1.171875 0l0 -3.875l-3.15625 0.703125l-0.296875 -1.234375l3.453125 -0.703125l0 -8.078125l1.109375 0zm-3.328125 1.6875q1.109375 0.703125 1.75 1.40625l-0.8125 1.0625q-0.53125 -0.53125 -1.703125 -1.46875l0.765625 -1.0zm-0.1875 3.234375q0.890625 0.515625 1.765625 1.40625l-0.828125 1.046875q-0.703125 -0.765625 -1.6875 -1.46875l0.75 -0.984375z" fill-rule="nonzero"/><path fill="#000000" d="m174.51132 169.94417q0 -0.265625 0 -0.390625q0 -0.765625 0.203125 -1.3125q0.171875 -0.40625 0.515625 -0.828125q0.25 -0.3125 0.921875 -0.90625q0.671875 -0.59375 0.875 -0.9375q0.203125 -0.359375 0.203125 -0.765625q0 -0.75 -0.59375 -1.3125q-0.578125 -0.578125 -1.4375 -0.578125q-0.828125 0 -1.375 0.515625q-0.546875 0.515625 -0.71875 1.609375l-1.328125 -0.15625q0.1875 -1.46875 1.0625 -2.25q0.890625 -0.78125 2.34375 -0.78125q1.53125 0 2.4375 0.84375q0.921875 0.828125 0.921875 2.015625q0 0.6875 -0.328125 1.265625q-0.3125 0.578125 -1.25 1.421875q-0.625 0.546875 -0.828125 0.8125q-0.1875 0.265625 -0.28125 0.609375q-0.09375 0.34375 -0.109375 1.125l-1.234375 0zm-0.078125 2.578125l0 -1.46875l1.46875 0l0 1.46875l-1.46875 0z" fill-rule="nonzero"/><path fill="#cfe2f3" d="m328.4198 285.58316l101.243256 -34.30574l101.243256 34.30574l-101.243256 34.305786z" fill-rule="evenodd"/><path stroke="#000000" stroke-width="1.0" stroke-linejoin="round" stroke-linecap="butt" d="m328.4198 285.58316l101.243256 -34.30574l101.243256 34.30574l-101.243256 34.305786z" fill-rule="evenodd"/><path fill="#000000" d="m388.79062 290.02255q0.46875 -1.359375 0.703125 -3.234375l1.0625 0.234375q0.171875 0.1875 -0.125 0.359375q-0.234375 1.8125 -0.640625 3.109375l-1.0 -0.46875zm2.28125 -5.21875l1.828125 -0.125l-0.46875 -0.984375l0.875 -0.421875q0.578125 0.9375 1.046875 2.234375l0 -6.453125l7.453125 0l0 11.84375q0 0.875 -0.765625 0.875l-1.109375 0l-0.234375 -0.9375l0.9375 0q0.171875 0 0.171875 -0.171875l0 -4.34375l-3.21875 0l0 1.640625q0 0.359375 0.34375 0.359375l2.046875 0l0 0.9375l-2.34375 0q-1.046875 0 -1.046875 -1.0625l0 -1.875l-1.234375 0l0 5.640625l-1.0 0l0 -6.15625l-0.875 0.40625l-0.234375 -0.59375l-1.109375 0.125l0 6.15625l-1.0 0l0 -6.046875l-1.875 0.1875q-0.171875 0.515625 -0.296875 0.171875l-0.171875 -1.34375l1.0 0l1.0 -1.359375q-1.0 -1.109375 -1.9375 -1.921875l0.703125 -0.765625l0.53125 0.53125l1.40625 -2.765625l0.984375 0.59375q0.296875 0.234375 -0.234375 0.296875l-1.453125 2.578125l0.578125 0.578125l1.46875 -2.34375l0.9375 0.640625q0.296875 0.234375 -0.234375 0.296875l-2.46875 3.578125zm7.328125 -1.703125l0.828125 -2.578125l1.109375 0.296875q0.40625 0.109375 -0.171875 0.296875l-0.890625 1.984375l1.53125 0l0 -3.109375l-5.453125 0l0 3.109375l3.046875 0zm-4.921875 3.578125q0.53125 1.234375 0.703125 2.8125l-1.0 0.40625q-0.171875 -1.640625 -0.578125 -2.921875l0.875 -0.296875zm3.515625 -6.09375q0.53125 0.640625 1.0 1.8125l-0.9375 0.40625q-0.40625 -1.171875 -0.9375 -1.875l0.875 -0.34375zm-1.640625 4.796875l2.234375 0l0 -1.34375l-2.234375 0l0 1.34375zm5.453125 0l0 -1.34375l-2.234375 0l0 1.34375l2.234375 0zm14.171875 4.75l0 -2.640625l-2.921875 0l0 2.640625l2.921875 0zm1.171875 1.59375l-1.171875 0l0 -0.65625l-2.921875 0l0 0.828125l-1.171875 0l0 -5.34375l5.265625 0l0 5.171875zm-4.15625 -10.90625q0.296875 0.8125 1.46875 2.109375q1.046875 -1.40625 1.34375 -2.109375l-2.8125 0zm1.46875 3.75q-2.046875 1.875 -3.8125 2.515625l-0.53125 -1.171875q1.640625 -0.53125 3.578125 -2.21875q-0.46875 -0.46875 -1.234375 -1.703125q-0.578125 1.34375 -1.171875 1.9375l-0.875 -0.890625q1.40625 -1.875 2.171875 -4.6875l1.234375 0.359375q0.234375 0.234375 -0.1875 0.296875l-0.28125 0.703125l2.984375 0l0.171875 -0.296875l0.9375 0.765625q0.234375 0.171875 -0.234375 0.34375q-0.8125 1.875 -1.9375 3.171875q2.0 1.515625 3.40625 1.984375l-0.46875 1.296875q-1.40625 -0.46875 -3.75 -2.40625zm-4.28125 -5.28125l0 4.34375l-1.46875 0l0 2.171875l1.359375 0l0 1.109375l-1.359375 0l0 2.6875l2.0625 -0.640625l0.234375 1.0625l-5.390625 1.515625q-0.0625 0.46875 -0.296875 0.234375l-0.46875 -1.28125l0.703125 -0.125l0 -5.453125l1.109375 0q0.46875 0.0625 0.0625 0.359375l0 4.796875l0.8125 -0.171875l0 -6.265625l-1.046875 0l-1.0 0l0 -4.34375l4.6875 0zm-1.171875 3.40625l0 -2.46875l-2.34375 0l0 2.46875l2.34375 0zm10.90625 3.984375q3.453125 -1.9375 4.453125 -4.984375l-3.9375 0l0 -1.109375l4.21875 0q0.1875 -0.703125 0.296875 -2.109375l1.53125 0.296875q0.234375 0.234375 -0.1875 0.28125l-0.28125 1.53125l7.03125 0l0 1.109375l-7.265625 0q-0.234375 0.828125 -0.53125 1.34375l5.796875 0l0 7.796875q0 0.9375 -0.9375 0.9375l-1.34375 0l-0.296875 -1.109375l1.171875 0q0.234375 0 0.234375 -0.234375l0 -1.578125l-5.09375 0l0 3.109375l-1.171875 0l0 -6.453125q-1.40625 1.46875 -2.984375 2.40625l-0.703125 -1.234375zm4.859375 -0.234375l0 1.28125l5.09375 0l0 -1.28125l-5.09375 0zm5.09375 -1.109375l0 -1.171875l-5.09375 0l0 1.171875l5.09375 0zm13.25 -3.578125q-0.65625 1.640625 -3.34375 2.28125l5.9219055 0l0 5.453125l-8.3281555 0l0 -5.453125l2.109375 0l-0.578125 -1.0q3.21875 -0.46875 3.328125 -2.578125l-0.984375 0q-0.65625 1.0 -1.40625 1.59375l-0.828125 -0.65625q1.34375 -1.21875 2.171875 -3.046875l1.0 0.359375q0.234375 0.234375 -0.1875 0.296875l-0.234375 0.515625l4.6875305 0l0.1875 -0.171875l0.9375 0.640625l-0.296875 0.234375q-0.40625 0.703125 -1.46875 1.765625l-0.875 -0.59375q0.46875 -0.40625 0.875 -0.9375l-2.4531555 0q0.9844055 1.9375 4.7344055 2.640625l-0.46875 1.109375q-3.21875 -0.578125 -4.5000305 -2.453125zm4.0937805 10.140625q-2.6875 -0.40625 -4.5156555 -1.53125l0.890625 -0.8125q1.8750305 0.9375 3.9844055 1.171875l-0.359375 1.171875zm-11.8906555 -1.0q2.515625 -0.359375 4.15625 -1.34375l0.875 0.8125q0.234375 0.421875 -0.34375 0.234375q-1.875 0.9375 -4.28125 1.40625l-0.40625 -1.109375zm9.2031555 -5.28125l0 -0.875l-5.9844055 0l0 0.875l5.9844055 0zm-7.8594055 -6.796875q0.875 0.421875 1.9375 1.0l-0.765625 1.0q-0.765625 -0.46875 -1.9375 -1.0l0.765625 -1.0zm-0.53125 5.15625q-0.109375 0.59375 -0.40625 0.0625l-0.640625 -1.0q1.75 -0.640625 3.15625 -1.515625l0.59375 0.875q-1.40625 0.9375 -2.703125 1.578125zm8.3906555 3.234375l0 -0.890625l-5.9844055 0l0 0.890625l5.9844055 0zm0 1.578125l0 -0.875l-5.9844055 0l0 0.875l5.9844055 0zm5.265625 0.171875q2.46875 -1.9375 3.109375 -4.046875l-2.703125 0l0 -1.109375l2.703125 0l0 -5.21875l1.109375 0q0.46875 0.0625 0.0625 0.359375l0 4.859375l2.40625 0l0 1.109375l-2.40625 0l0 0.765625q1.46875 0.875 2.40625 1.9375l-0.703125 1.171875q-0.9375 -1.109375 -1.703125 -1.703125l0 4.875l-1.171875 0l0 -4.515625q-0.765625 1.40625 -2.34375 2.6875l-0.765625 -1.171875zm4.75 -6.09375q0.578125 -1.28125 1.109375 -3.15625l1.234375 0.40625q0.296875 0.234375 -0.125 0.234375q-0.578125 1.75 -1.109375 2.984375l-1.109375 -0.46875zm-3.21875 -2.8125q0.8125 1.40625 1.109375 2.703125l-1.171875 0.46875q-0.296875 -1.171875 -1.0625 -2.703125l1.125 -0.46875zm10.125 -1.28125q0.46875 0.046875 0.0625 0.34375l0 7.4375l1.578125 -0.40625l0.359375 1.234375l-1.9375 0.40625l0 4.171875l-1.171875 0l0 -3.875l-3.15625 0.703125l-0.296875 -1.234375l3.453125 -0.703125l0 -8.078125l1.109375 0zm-3.328125 1.6875q1.109375 0.703125 1.75 1.40625l-0.8125 1.0625q-0.53125 -0.53125 -1.703125 -1.46875l0.765625 -1.0zm-0.1875 3.234375q0.890625 0.515625 1.765625 1.40625l-0.828125 1.046875q-0.703125 -0.765625 -1.6875 -1.46875l0.75 -0.984375z" fill-rule="nonzero"/><path fill="#000000" d="m466.46252 288.08505q0 -0.265625 0 -0.390625q0 -0.765625 0.203125 -1.3125q0.171875 -0.40625 0.515625 -0.828125q0.25 -0.3125 0.921875 -0.90625q0.671875 -0.59375 0.875 -0.9375q0.203125 -0.359375 0.203125 -0.765625q0 -0.75 -0.59375 -1.3125q-0.578125 -0.578125 -1.4375 -0.578125q-0.828125 0 -1.375 0.515625q-0.546875 0.515625 -0.71875 1.609375l-1.328125 -0.15625q0.1875 -1.46875 1.0625 -2.25q0.890625 -0.78125 2.34375 -0.78125q1.53125 0 2.4375 0.84375q0.921875 0.828125 0.921875 2.015625q0 0.6875 -0.328125 1.265625q-0.3125 0.578125 -1.25 1.421875q-0.625 0.546875 -0.828125 0.8125q-0.1875 0.265625 -0.28125 0.609375q-0.09375 0.34375 -0.109375 1.125l-1.234375 0zm-0.078125 2.578125l0 -1.46875l1.46875 0l0 1.46875l-1.46875 0z" fill-rule="nonzero"/><path fill="#cfe2f3" d="m328.42477 417.2406l101.243256 -34.305756l101.243286 34.305756l-101.243286 34.305756z" fill-rule="evenodd"/><path stroke="#000000" stroke-width="1.0" stroke-linejoin="round" stroke-linecap="butt" d="m328.42477 417.2406l101.243256 -34.305756l101.243286 34.305756l-101.243286 34.305756z" fill-rule="evenodd"/><path fill="#000000" d="m388.7956 421.68q0.46875 -1.359375 0.703125 -3.234375l1.0625 0.234375q0.171875 0.1875 -0.125 0.359375q-0.234375 1.8125 -0.640625 3.109375l-1.0 -0.46875zm2.28125 -5.21875l1.828125 -0.125l-0.46875 -0.984375l0.875 -0.421875q0.578125 0.9375 1.046875 2.234375l0 -6.453125l7.453125 0l0 11.84375q0 0.875 -0.765625 0.875l-1.109375 0l-0.234375 -0.9375l0.9375 0q0.171875 0 0.171875 -0.171875l0 -4.34375l-3.21875 0l0 1.640625q0 0.359375 0.34375 0.359375l2.046875 0l0 0.9375l-2.34375 0q-1.046875 0 -1.046875 -1.0625l0 -1.875l-1.234375 0l0 5.640625l-1.0 0l0 -6.15625l-0.875 0.40625l-0.234375 -0.59375l-1.109375 0.125l0 6.15625l-1.0 0l0 -6.046875l-1.875 0.1875q-0.171875 0.515625 -0.296875 0.171875l-0.171875 -1.34375l1.0 0l1.0 -1.359375q-1.0 -1.109375 -1.9375 -1.921875l0.703125 -0.765625l0.53125 0.53125l1.40625 -2.765625l0.984375 0.59375q0.296875 0.234375 -0.234375 0.296875l-1.453125 2.578125l0.578125 0.578125l1.46875 -2.34375l0.9375 0.640625q0.296875 0.234375 -0.234375 0.296875l-2.46875 3.578125zm7.328125 -1.703125l0.828125 -2.578125l1.109375 0.296875q0.40625 0.109375 -0.171875 0.296875l-0.890625 1.984375l1.53125 0l0 -3.109375l-5.453125 0l0 3.109375l3.046875 0zm-4.921875 3.578125q0.53125 1.234375 0.703125 2.8125l-1.0 0.40625q-0.171875 -1.640625 -0.578125 -2.921875l0.875 -0.296875zm3.515625 -6.09375q0.53125 0.640625 1.0 1.8125l-0.9375 0.40625q-0.40625 -1.171875 -0.9375 -1.875l0.875 -0.34375zm-1.640625 4.796875l2.234375 0l0 -1.34375l-2.234375 0l0 1.34375zm5.453125 0l0 -1.34375l-2.234375 0l0 1.34375l2.234375 0zm14.171875 4.75l0 -2.640625l-2.921875 0l0 2.640625l2.921875 0zm1.171875 1.59375l-1.171875 0l0 -0.65625l-2.921875 0l0 0.828125l-1.171875 0l0 -5.34375l5.265625 0l0 5.171875zm-4.15625 -10.90625q0.296875 0.8125 1.46875 2.109375q1.046875 -1.40625 1.34375 -2.109375l-2.8125 0zm1.46875 3.75q-2.046875 1.875 -3.8125 2.515625l-0.53125 -1.171875q1.640625 -0.53125 3.578125 -2.21875q-0.46875 -0.46875 -1.234375 -1.703125q-0.578125 1.34375 -1.171875 1.9375l-0.875 -0.890625q1.40625 -1.875 2.171875 -4.6875l1.234375 0.359375q0.234375 0.234375 -0.1875 0.296875l-0.28125 0.703125l2.984375 0l0.171875 -0.296875l0.9375 0.765625q0.234375 0.171875 -0.234375 0.34375q-0.8125 1.875 -1.9375 3.171875q2.0 1.515625 3.40625 1.984375l-0.46875 1.296875q-1.40625 -0.46875 -3.75 -2.40625zm-4.28125 -5.28125l0 4.34375l-1.46875 0l0 2.171875l1.359375 0l0 1.109375l-1.359375 0l0 2.6875l2.0625 -0.640625l0.234375 1.0625l-5.390625 1.515625q-0.0625 0.46875 -0.296875 0.234375l-0.46875 -1.28125l0.703125 -0.125l0 -5.453125l1.109375 0q0.46875 0.0625 0.0625 0.359375l0 4.796875l0.8125 -0.171875l0 -6.265625l-1.046875 0l-1.0 0l0 -4.34375l4.6875 0zm-1.171875 3.40625l0 -2.46875l-2.34375 0l0 2.46875l2.34375 0zm10.90625 3.984375q3.453125 -1.9375 4.453125 -4.984375l-3.9375 0l0 -1.109375l4.21875 0q0.1875 -0.703125 0.296875 -2.109375l1.53125 0.296875q0.234375 0.234375 -0.1875 0.28125l-0.28125 1.53125l7.03125 0l0 1.109375l-7.265625 0q-0.234375 0.828125 -0.53125 1.34375l5.796875 0l0 7.796875q0 0.9375 -0.9375 0.9375l-1.34375 0l-0.296875 -1.109375l1.171875 0q0.234375 0 0.234375 -0.234375l0 -1.578125l-5.09375 0l0 3.109375l-1.171875 0l0 -6.453125q-1.40625 1.46875 -2.984375 2.40625l-0.703125 -1.234375zm4.859375 -0.234375l0 1.28125l5.09375 0l0 -1.28125l-5.09375 0zm5.09375 -1.109375l0 -1.171875l-5.09375 0l0 1.171875l5.09375 0zm13.25 -3.578125q-0.65625 1.640625 -3.34375 2.28125l5.921875 0l0 5.453125l-8.328125 0l0 -5.453125l2.109375 0l-0.578125 -1.0q3.21875 -0.46875 3.328125 -2.578125l-0.984375 0q-0.65625 1.0 -1.40625 1.59375l-0.828125 -0.65625q1.34375 -1.21875 2.171875 -3.046875l1.0 0.359375q0.234375 0.234375 -0.1875 0.296875l-0.234375 0.515625l4.6875 0l0.1875 -0.171875l0.9375 0.640625l-0.296875 0.234375q-0.40625 0.703125 -1.46875 1.765625l-0.875 -0.59375q0.46875 -0.40625 0.875 -0.9375l-2.453125 0q0.984375 1.9375 4.734375 2.640625l-0.46875 1.109375q-3.21875 -0.578125 -4.5 -2.453125zm4.09375 10.140625q-2.6875 -0.40625 -4.515625 -1.53125l0.890625 -0.8125q1.875 0.9375 3.984375 1.171875l-0.359375 1.171875zm-11.890625 -1.0q2.515625 -0.359375 4.15625 -1.34375l0.875 0.8125q0.234375 0.421875 -0.34375 0.234375q-1.875 0.9375 -4.28125 1.40625l-0.40625 -1.109375zm9.203125 -5.28125l0 -0.875l-5.984375 0l0 0.875l5.984375 0zm-7.859375 -6.796875q0.875 0.421875 1.9375 1.0l-0.765625 1.0q-0.765625 -0.46875 -1.9375 -1.0l0.765625 -1.0zm-0.53125 5.15625q-0.109375 0.59375 -0.40625 0.0625l-0.640625 -1.0q1.75 -0.640625 3.15625 -1.515625l0.59375 0.875q-1.40625 0.9375 -2.703125 1.578125zm8.390625 3.234375l0 -0.890625l-5.984375 0l0 0.890625l5.984375 0zm0 1.578125l0 -0.875l-5.984375 0l0 0.875l5.984375 0zm5.265625 0.171875q2.46875 -1.9375 3.109375 -4.046875l-2.703125 0l0 -1.109375l2.703125 0l0 -5.21875l1.109375 0q0.46875 0.0625 0.0625 0.359375l0 4.859375l2.40625 0l0 1.109375l-2.40625 0l0 0.765625q1.46875 0.875 2.40625 1.9375l-0.703125 1.171875q-0.9375 -1.109375 -1.703125 -1.703125l0 4.875l-1.171875 0l0 -4.515625q-0.765625 1.40625 -2.34375 2.6875l-0.765625 -1.171875zm4.75 -6.09375q0.578125 -1.28125 1.109375 -3.15625l1.234375 0.40625q0.296875 0.234375 -0.125 0.234375q-0.578125 1.75 -1.109375 2.984375l-1.109375 -0.46875zm-3.21875 -2.8125q0.8125 1.40625 1.109375 2.703125l-1.171875 0.46875q-0.296875 -1.171875 -1.0625 -2.703125l1.125 -0.46875zm10.125 -1.28125q0.46875 0.046875 0.0625 0.34375l0 7.4375l1.578125 -0.40625l0.359375 1.234375l-1.9375 0.40625l0 4.171875l-1.171875 0l0 -3.875l-3.15625 0.703125l-0.296875 -1.234375l3.453125 -0.703125l0 -8.078125l1.109375 0zm-3.328125 1.6875q1.109375 0.703125 1.75 1.40625l-0.8125 1.0625q-0.53125 -0.53125 -1.703125 -1.46875l0.765625 -1.0zm-0.1875 3.234375q0.890625 0.515625 1.765625 1.40625l-0.828125 1.046875q-0.703125 -0.765625 -1.6875 -1.46875l0.75 -0.984375z" fill-rule="nonzero"/><path fill="#000000" d="m466.46747 419.7425q0 -0.265625 0 -0.390625q0 -0.765625 0.203125 -1.3125q0.171875 -0.40625 0.515625 -0.828125q0.25 -0.3125 0.921875 -0.90625q0.671875 -0.59375 0.875 -0.9375q0.203125 -0.359375 0.203125 -0.765625q0 -0.75 -0.59375 -1.3125q-0.578125 -0.578125 -1.4375 -0.578125q-0.828125 0 -1.375 0.515625q-0.546875 0.515625 -0.71875 1.609375l-1.328125 -0.15625q0.1875 -1.46875 1.0625 -2.25q0.890625 -0.78125 2.34375 -0.78125q1.53125 0 2.4375 0.84375q0.921875 0.828125 0.921875 2.015625q0 0.6875 -0.328125 1.265625q-0.3125 0.578125 -1.25 1.421875q-0.625 0.546875 -0.828125 0.8125q-0.1875 0.265625 -0.28125 0.609375q-0.09375 0.34375 -0.109375 1.125l-1.234375 0zm-0.078125 2.578125l0 -1.46875l1.46875 0l0 1.46875l-1.46875 0z" fill-rule="nonzero"/><path fill="#fff2cc" d="m648.70996 146.12073l139.1181 0l0 42.645676l-139.1181 0z" fill-rule="evenodd"/><path stroke="#000000" stroke-width="1.0" stroke-linejoin="round" stroke-linecap="butt" d="m648.70996 146.12073l139.1181 0l0 42.645676l-139.1181 0z" fill-rule="evenodd"/><path fill="#000000" d="m662.31586 163.16045q1.703125 -1.5625 2.671875 -4.15625l1.546875 0.4375q0.296875 0.296875 -0.21875 0.375l-0.4375 0.96875l4.75 0l0 1.1875l-2.609375 0l0.828125 1.40625l-1.640625 0.296875l-0.734375 -1.703125l-1.125 0q-0.734375 1.1875 -1.921875 2.296875l-1.109375 -1.109375zm8.078125 -0.671875q1.046875 -1.5625 1.5625 -3.5625l1.5625 0.296875q0.296875 0.296875 -0.21875 0.375l-0.453125 1.1875l6.015625 0l0 1.1875l-3.484375 0l0.953125 1.25l-1.625 0.453125l-0.96875 -1.703125l-1.328125 0q-0.296875 0.65625 -0.75 1.25l-1.265625 -0.734375zm-1.546875 11.953125q-0.671875 -0.96875 -1.9375 -2.078125l0.96875 -0.890625l-4.234375 0l0 -1.421875l9.796875 0l0 -1.25l-10.828125 0l0 -1.421875l7.421875 0l0 -1.484375l-5.28125 0l0 -1.40625l5.28125 0l0 -1.1875l1.40625 0q0.59375 0.078125 0.078125 0.453125l0 0.734375l5.484375 0l0 1.40625l-5.484375 0l0 1.484375l7.484375 0l0 1.421875l-4.078125 0l0 1.25l3.1875 0l0 1.421875l-3.1875 0l0 3.265625q0 1.1875 -1.1875 1.1875l-1.78125 0l-0.296875 -1.40625l1.484375 0q0.296875 0 0.296875 -0.3125l0 -2.734375l-5.125 0q1.125 0.734375 1.859375 1.84375l-1.328125 1.125zm12.609375 -11.140625q2.453125 -1.484375 3.78125 -4.0l1.265625 0.734375q0.59375 0.296875 -0.140625 0.453125q-1.71875 2.734375 -4.09375 4.21875l-0.8125 -1.40625zm9.0625 10.46875q-0.828125 -1.109375 -2.234375 -2.296875l1.109375 -1.125q1.71875 1.265625 2.3125 2.234375l-1.1875 1.1875zm2.140625 -14.703125q0.59375 0.078125 0.078125 0.453125l0 1.859375l3.859375 0l0 1.40625l-3.859375 0l0 2.078125l5.5625 0l0 1.40625l-3.1875 0l0 2.078125l2.671875 0l0 1.40625l-2.671875 0l0 5.0625q0 1.1875 -1.1875 1.1875l-1.703125 0l-0.21875 -1.421875l1.328125 0q0.296875 0 0.296875 -0.296875l0 -4.53125l-6.53125 0l0 -1.40625l6.53125 0l0 -2.078125l-6.75 0l0 -1.40625l4.375 0l0 -2.078125l-3.40625 0l0 -1.40625l3.40625 0l0 -2.3125l1.40625 0zm-5.5625 4.609375q0.59375 0.21875 -0.140625 0.4375q-0.671875 1.1875 -1.421875 2.375l0 9.578125l-1.484375 0l0 -7.640625q-1.03125 1.109375 -1.84375 1.625l-0.828125 -1.625q2.609375 -1.78125 4.390625 -5.5625l1.328125 0.8125zm18.109375 12.328125l-0.671875 -1.5625l2.3125 -1.484375l0 -3.125l-1.34375 0q0 0.15625 0 0.75q0 2.515625 -1.921875 2.515625l-0.671875 0l-0.296875 -1.40625l0.59375 0q0.890625 0 0.890625 -1.265625q0 -1.921875 -1.265625 -4.15625l0.890625 -5.1875l-1.78125 0l0 14.984375l-1.265625 0l0 -16.40625l3.265625 0l0.296875 -0.296875l1.046875 0.53125q0.890625 0.359375 0.140625 0.59375l-1.25 5.703125q0.734375 1.1875 1.03125 2.234375l3.125 0l0 4.453125q1.1875 1.40625 3.703125 1.40625l5.421875 0l-0.453125 1.421875l-4.8125 0q-2.90625 0 -4.609375 -1.796875l-2.375 2.09375zm2.296875 -9.515625q-1.109375 -0.953125 -2.375 -1.625l0.828125 -1.046875q1.328125 0.59375 2.375 1.484375l-0.828125 1.1875zm-0.890625 -6.53125q1.34375 0.59375 2.375 1.484375l-0.953125 1.1875q-1.046875 -0.953125 -2.3125 -1.546875l0.890625 -1.125zm4.453125 10.921875l0 2.734375l-1.25 0l0 -7.421875l6.453125 0l0 6.09375q0 1.1875 -1.046875 1.1875l-0.953125 0l-0.375 -1.1875l0.8125 0q0.296875 0 0.296875 -0.296875l0 -1.109375l-3.9375 0zm-2.734375 -5.9375q1.546875 -1.640625 2.375 -3.203125l-1.484375 0l0 -1.1875l2.0 0q0.296875 -0.65625 0.671875 -1.703125l1.25 0.21875q0.53125 0.296875 -0.140625 0.375l-0.515625 1.109375l4.375 0l0 1.1875l-4.828125 0l-0.375 0.75l4.609375 0l0 0.890625l-2.15625 0l0 1.03125l2.96875 0l0 0.890625l-6.453125 0l0 -0.890625l2.21875 0l0 -1.03125l-1.703125 0q-0.890625 1.1875 -2.0 2.453125l-0.8125 -0.890625zm6.671875 3.109375l0 -0.96875l-3.9375 0l0 0.96875l3.9375 0zm0 1.9375l0 -1.046875l-3.9375 0l0 1.046875l3.9375 0zm9.0625 -1.046875q-0.828125 -0.890625 -1.125 -1.1875l0 8.3125l-1.25 0l0 -8.09375q-0.671875 2.078125 -1.859375 3.5l-0.890625 -1.421875q1.703125 -2.4375 2.671875 -6.0l-2.078125 0l0 -1.421875l2.15625 0l0 -3.5625l1.1875 0q0.59375 0.078125 0.0625 0.453125l0 3.109375l1.71875 0l0 1.421875l-1.71875 0l0 2.078125q1.34375 0.734375 1.9375 1.484375l-0.8125 1.328125zm6.828125 -3.9375q0 1.78125 0.140625 3.34375l2.0 0q-0.140625 -0.59375 -0.515625 -1.109375l1.40625 -0.375q0.53125 0.75 0.75 1.484375l1.5625 0l0 1.1875l-5.125 0q0.21875 1.484375 0.734375 2.59375q0.96875 -0.890625 1.78125 -2.296875l1.265625 0.671875q0.453125 0.296875 -0.21875 0.4375q-0.96875 1.484375 -1.859375 2.3125q1.046875 1.03125 1.703125 1.03125q0.453125 0 0.671875 -1.5625l1.265625 0.75q-0.21875 1.78125 -1.046875 2.296875q-1.25 0.828125 -3.703125 -1.625q-1.5625 1.1875 -3.71875 1.859375l-0.65625 -1.421875q1.921875 -0.515625 3.484375 -1.625q-0.8125 -1.640625 -0.96875 -3.421875l-2.75 0l0 1.109375q1.34375 0.453125 2.53125 1.34375l-0.890625 1.328125q-0.59375 -0.515625 -1.640625 -1.25q-0.359375 2.515625 -2.375 4.0l-1.1875 -1.1875q2.15625 -1.265625 2.078125 -4.078125l0 -1.265625l-0.8125 0l0 -1.1875l4.96875 0q-0.0625 -0.734375 -0.0625 -1.265625l-1.046875 0.375l-0.140625 -0.734375l-3.046875 0.4375q-0.15625 0.515625 -0.296875 0.21875l-0.453125 -1.40625l0.75 0l0.890625 -1.5625l-1.5625 -1.109375l0.59375 -0.96875l0.21875 0.15625l1.421875 -3.046875l1.109375 0.75q0.296875 0.296875 -0.15625 0.296875l-1.546875 2.515625l0.515625 0.375l1.1875 -2.0l0.96875 0.65625q0.296875 0.296875 -0.15625 0.296875l-2.296875 3.5625l1.5625 -0.140625l-0.453125 -1.1875l0.890625 -0.375q0.59375 0.890625 0.96875 2.375l0 -7.34375l1.1875 0q0.59375 0.078125 0.078125 0.4375l0 5.34375zm4.078125 1.1875l-3.046875 0.59375q-0.140625 0.53125 -0.296875 0.234375l-0.4375 -1.34375l0.65625 -0.078125l0.890625 -1.328125l-1.78125 -1.34375l0.59375 -0.890625l0.296875 0.234375l1.484375 -2.828125l1.046875 0.671875q0.296875 0.296875 -0.15625 0.296875l-1.484375 2.296875l0.671875 0.453125l1.1875 -1.859375l0.96875 0.515625q0.296875 0.296875 -0.15625 0.296875l-2.375 3.421875l1.640625 -0.234375l-0.453125 -1.03125l0.96875 -0.21875q0.75 1.109375 1.109375 2.59375l-1.109375 0.375l-0.21875 -0.828125zm12.90625 7.28125q-0.890625 -1.5625 -1.484375 -2.234375l1.265625 -0.890625q0.59375 0.671875 1.5625 2.15625l-1.34375 0.96875zm2.90625 1.046875q0.296875 0 0.296875 -0.3125l0 -4.375l-6.234375 0l0 -1.40625l6.234375 0l0 -1.9375l-7.0625 0l0 7.0625l-1.25 0l0 -0.59375l-2.53125 0l0 1.328125l-1.265625 0l0 -13.65625l5.046875 0l0 4.453125l4.53125 0l0 -2.15625l-3.1875 0l0 -1.40625l3.1875 0l0 -2.515625l1.40625 0q0.59375 0.0625 0.078125 0.4375l0 2.078125l3.78125 0l0 1.40625l-3.78125 0l0 2.15625l5.203125 0l0 1.40625l-2.671875 0l0 1.9375l2.21875 0l0 1.40625l-2.21875 0l0 4.90625q0 1.1875 -1.1875 1.1875l-1.5625 0l-0.296875 -1.40625l1.265625 0zm-10.546875 -8.6875l2.53125 0l0 -3.796875l-2.53125 0l0 3.796875zm0 5.703125l2.53125 0l0 -4.296875l-2.53125 0l0 4.296875zm31.390625 2.90625q0.296875 0 0.296875 -0.296875l0 -8.546875l-2.671875 0l-2.671875 0l0 -5.9375l6.828125 0l0 15.0q0 1.1875 -1.1875 1.1875l-1.484375 0l-0.140625 -1.40625l1.03125 0zm-3.921875 -3.5625l-3.9375 0l0 1.484375l3.9375 0l0 -1.484375zm0 -2.828125l-3.9375 0l0 1.640625l3.9375 0l0 -1.640625zm1.484375 -1.1875l0 7.28125l-1.484375 0l0 -0.59375l-3.9375 0l0 1.1875l-1.484375 0l0 -7.875l6.90625 0zm2.734375 -4.828125l0 -1.1875l-3.859375 0l0 1.1875l3.859375 0zm0 1.1875l-3.859375 0l0 1.1875l3.859375 0l0 -1.1875zm-8.75 0l-3.78125 0l0 1.1875l3.78125 0l0 -1.1875zm0 -1.1875l0 -1.1875l-3.78125 0l0 1.1875l3.78125 0zm1.484375 3.5625l-5.265625 0l0 10.328125l-1.484375 0l0 -16.265625l6.75 0l0 5.9375z" fill-rule="nonzero"/><path fill="#fff2cc" d="m60.59186 247.01181l154.23622 0l0 77.5748l-154.23622 0z" fill-rule="evenodd"/><path stroke="#000000" stroke-width="1.0" stroke-linejoin="round" stroke-linecap="butt" d="m60.59186 247.01181l154.23622 0l0 77.5748l-154.23622 0z" fill-rule="evenodd"/><path fill="#000000" d="m81.75685 259.51608q1.703125 -1.5625 2.671875 -4.15625l1.546875 0.4375q0.296875 0.296875 -0.21875 0.375l-0.4375 0.96875l4.75 0l0 1.1875l-2.609375 0l0.828125 1.40625l-1.640625 0.296875l-0.734375 -1.703125l-1.125 0q-0.734375 1.1875 -1.921875 2.296875l-1.109375 -1.109375zm8.078125 -0.671875q1.046875 -1.5625 1.5625 -3.5625l1.5625 0.296875q0.296875 0.296875 -0.21875 0.375l-0.453125 1.1875l6.015625 0l0 1.1875l-3.484375 0l0.953125 1.25l-1.625 0.453125l-0.96875 -1.703125l-1.328125 0q-0.296875 0.65625 -0.75 1.25l-1.265625 -0.734375zm-1.546875 11.953125q-0.671875 -0.96875 -1.9375 -2.078125l0.96875 -0.890625l-4.234375 0l0 -1.421875l9.796875 0l0 -1.25l-10.828125 0l0 -1.421875l7.421875 0l0 -1.484375l-5.28125 0l0 -1.40625l5.28125 0l0 -1.1875l1.40625 0q0.59375 0.078125 0.078125 0.453125l0 0.734375l5.484375 0l0 1.40625l-5.484375 0l0 1.484375l7.484375 0l0 1.421875l-4.078125 0l0 1.25l3.1875 0l0 1.421875l-3.1875 0l0 3.265625q0 1.1875 -1.1875 1.1875l-1.78125 0l-0.296875 -1.40625l1.484375 0q0.296875 0 0.296875 -0.3125l0 -2.734375l-5.125 0q1.125 0.734375 1.859375 1.84375l-1.328125 1.125zm12.609375 -11.140625q2.453125 -1.484375 3.78125 -4.0l1.265625 0.734375q0.59375 0.296875 -0.140625 0.453125q-1.71875 2.734375 -4.09375 4.21875l-0.8125 -1.40625zm9.0625 10.46875q-0.828125 -1.109375 -2.234375 -2.296875l1.109375 -1.125q1.71875 1.265625 2.3125 2.234375l-1.1875 1.1875zm2.140625 -14.703125q0.59375 0.078125 0.078125 0.453125l0 1.859375l3.859375 0l0 1.40625l-3.859375 0l0 2.078125l5.5625 0l0 1.40625l-3.1875 0l0 2.078125l2.671875 0l0 1.40625l-2.671875 0l0 5.0625q0 1.1875 -1.1875 1.1875l-1.703125 0l-0.21875 -1.421875l1.328125 0q0.296875 0 0.296875 -0.296875l0 -4.53125l-6.53125 0l0 -1.40625l6.53125 0l0 -2.078125l-6.75 0l0 -1.40625l4.375 0l0 -2.078125l-3.40625 0l0 -1.40625l3.40625 0l0 -2.3125l1.40625 0zm-5.5625 4.609375q0.59375 0.21875 -0.140625 0.4375q-0.671875 1.1875 -1.421875 2.375l0 9.578125l-1.484375 0l0 -7.640625q-1.03125 1.109375 -1.84375 1.625l-0.828125 -1.625q2.609375 -1.78125 4.390625 -5.5625l1.328125 0.8125zm29.3125 2.515625l0 1.640625l-15.65625 0l0 -1.640625l15.65625 0zm17.671875 9.28125l0 -0.515625l-8.53125 0l0 0.8125l-1.265625 0l0 -15.875l11.0625 0l0 15.578125l-1.265625 0zm-11.28125 0.375l-1.484375 0l0 -9.125q-0.59375 1.03125 -1.40625 1.921875l-0.96875 -1.265625q2.515625 -2.96875 3.40625 -8.453125l1.5625 0.59375q0.296875 0.296875 -0.21875 0.375q-0.296875 1.703125 -1.109375 4.15625q0.890625 0.0625 0.21875 0.515625l0 11.28125zm5.421875 -7.875l0 2.375l3.328125 0l0 -2.375l-3.328125 0zm-2.671875 -6.671875l0 12.25l8.53125 0l0 -12.25l-8.53125 0zm4.96875 2.453125l2.8125 0l0 1.40625l-2.8125 0l0 1.625l2.296875 0l0 5.34375l-1.265625 0l0 -0.59375l-3.328125 0l0 0.890625l-1.265625 0l0 -5.640625l2.078125 0l0 -1.625l-2.75 0l0 -1.40625l2.75 0l0 -1.9375l1.40625 0q0.59375 0.078125 0.078125 0.453125l0 1.484375zm21.21875 -2.15625l-2.96875 0l0 4.375l2.15625 0l0 1.40625l-2.15625 0q-0.140625 5.640625 -3.328125 8.390625l-1.046875 -1.25q2.890625 -2.609375 2.890625 -7.140625l-2.296875 0l0 -1.40625l2.296875 0l0 -4.375l-1.78125 0l0 -1.40625l7.71875 0l0 8.671875q0 2.609375 0.296875 3.640625q0.671875 2.375 0.96875 -0.96875l1.34375 0.75q-0.828125 4.609375 -2.453125 3.125q-1.640625 -1.5 -1.640625 -5.65625l0 -8.15625zm-7.859375 13.953125l-1.265625 0l0 -0.671875l-2.59375 0l0 1.046875l-1.265625 0l0 -6.171875l5.125 0l0 5.796875zm-1.265625 -4.609375l-2.59375 0l0 2.75l2.59375 0l0 -2.75zm1.046875 -2.296875l-4.390625 0l0 -1.40625l4.390625 0l0 1.40625zm0 -2.671875l-4.390625 0l0 -1.40625l4.390625 0l0 1.40625zm1.109375 -2.59375l-6.53125 0l0 -1.40625l6.53125 0l0 1.40625zm-1.109375 -2.53125l-4.390625 0l0 -1.40625l4.390625 0l0 1.40625zm19.59375 3.046875l-1.78125 0l0 2.296875q0.890625 0.671875 1.921875 1.78125l-0.734375 1.640625q-0.59375 -0.96875 -1.1875 -1.640625l0 8.03125l-1.484375 0l0 -7.875q-0.59375 1.703125 -2.234375 3.859375l-0.671875 -1.5625q2.453125 -3.5625 2.90625 -6.53125l-2.53125 0l0 -1.40625l2.53125 0l0 -3.484375l1.40625 0q0.59375 0.0625 0.078125 0.4375l0 3.046875l1.78125 0l0 1.40625zm10.531235 -4.0l0 1.40625l-8.531235 0l0 12.390625l9.04686 0l0 1.421875l-9.04686 0l0 0.890625l-1.484375 0l0 -16.109375l10.01561 0zm-0.890625 2.734375l0 1.421875l-2.8125 0l0 2.4375l2.296875 0l0 1.421875l-2.296875 0l0 2.890625l3.40625 0l0 1.40625l-7.7187347 0l0 -1.40625l2.828125 0l0 -2.890625l-2.15625 0l0 -1.421875l2.15625 0l0 -2.4375l-2.53125 0l0 -1.421875l6.8281097 0z" fill-rule="nonzero"/><path fill="#000000" d="m92.87042 279.20358q0.296875 0.375 -0.515625 0.234375q-1.484375 0.296875 -2.671875 0.4375l0 3.421875l3.328125 0l0 1.40625l-3.328125 0l0 4.234375l3.78125 0l0 1.40625l-10.3125 0l0 -1.40625l1.78125 0l0 -6.6875l1.40625 0q0.59375 0.078125 0.078125 0.453125l0 6.234375l1.78125 0l0 -8.90625q-2.3125 0.21875 -4.234375 0.140625l-0.375 -1.40625q4.375 0.078125 8.3125 -1.109375l0.96875 1.546875zm-15.59375 13.515625q1.859375 -1.046875 2.609375 -1.9375q-0.96875 -1.625 -1.71875 -3.703125l1.421875 -0.453125q0.59375 1.71875 1.109375 2.828125q0.59375 -2.375 0.8125 -4.671875l-1.859375 0q-0.359375 0.515625 -0.8125 1.109375l-1.328125 -0.890625q2.21875 -3.125 3.484375 -5.5l-3.78125 0l0 -1.40625l4.296875 0l0.375 -0.375l1.328125 1.046875l-0.296875 0.21875q-1.25 2.234375 -2.515625 4.375l2.59375 0q-0.21875 4.6875 -1.265625 7.5q1.5625 1.1875 4.234375 1.1875l8.015625 0l-0.296875 1.640625l-7.640625 0q-3.1875 0 -5.203125 -1.71875q-0.953125 1.203125 -2.734375 2.15625l-0.828125 -1.40625zm19.59375 -10.765625q1.5625 0.59375 2.828125 1.484375l-0.75 1.265625q-1.40625 -0.890625 -2.734375 -1.5625l0.65625 -1.1875zm0.53125 -3.9375q1.484375 0.53125 2.671875 1.34375l-0.828125 1.40625q-1.1875 -0.8125 -2.59375 -1.484375l0.75 -1.265625zm15.65625 14.546875l-0.375 1.421875l-8.453125 0q-3.71875 0 -5.5 -1.9375l-2.0 2.015625l-0.96875 -1.5l2.234375 -1.546875l0 -3.203125l-2.015625 0l0 -1.40625l3.5 0l0 4.609375q1.703125 1.546875 4.15625 1.546875l9.421875 0zm-12.984375 -2.0q1.109375 -1.328125 1.109375 -3.265625l0 -9.640625l10.90625 0l0 3.625l-9.640625 0l0 5.578125q0 3.328125 -1.5625 4.75l-0.8125 -1.046875zm5.9375 -4.890625q0.359375 0.21875 -0.234375 0.359375l-0.296875 0.375l1.421875 0l0 -0.890625l1.1875 0q0.59375 0.078125 0.0625 0.453125l0 0.4375l3.421875 0l0 1.1875l-3.421875 0l0 1.109375l4.3125 0l0 1.1875l-4.3125 0l0 2.078125l-1.25 0l0 -2.078125l-4.09375 0l0 -1.1875l4.09375 0l0 -1.109375l-2.234375 0q-0.4375 0.59375 -0.890625 0.96875l-0.890625 -0.59375q1.34375 -1.34375 1.9375 -2.453125l1.1875 0.15625zm-2.828125 -0.75l0 -0.890625l3.1875 0l0 0.890625l-3.1875 0zm-0.734375 -6.078125l0 1.25l8.375 0l0 -1.25l-8.375 0zm0.734375 4.21875l0 -0.890625l3.1875 0l0 0.890625l-3.1875 0zm5.640625 0.96875l3.34375 0l0 0.890625l-3.34375 0l0 -0.890625zm0 -1.859375l3.34375 0l0 0.890625l-3.34375 0l0 -0.890625zm-0.671875 -0.515625q0.59375 0.078125 0.078125 0.453125l0 3.03125l-1.265625 0l0 -3.484375l1.1875 0zm16.328125 10.171875q-0.890625 -1.5625 -1.484375 -2.234375l1.265625 -0.890625q0.59375 0.671875 1.5625 2.15625l-1.34375 0.96875zm2.90625 1.046875q0.296875 0 0.296875 -0.3125l0 -4.375l-6.234375 0l0 -1.40625l6.234375 0l0 -1.9375l-7.0625 0l0 7.0625l-1.25 0l0 -0.59375l-2.53125 0l0 1.328125l-1.265625 0l0 -13.65625l5.046875 0l0 4.453125l4.53125 0l0 -2.15625l-3.1875 0l0 -1.40625l3.1875 0l0 -2.515625l1.40625 0q0.59375 0.0625 0.078125 0.4375l0 2.078125l3.78125 0l0 1.40625l-3.78125 0l0 2.15625l5.203125 0l0 1.40625l-2.671875 0l0 1.9375l2.21875 0l0 1.40625l-2.21875 0l0 4.90625q0 1.1875 -1.1875 1.1875l-1.5625 0l-0.296875 -1.40625l1.265625 0zm-10.546875 -8.6875l2.53125 0l0 -3.796875l-2.53125 0l0 3.796875zm0 5.703125l2.53125 0l0 -4.296875l-2.53125 0l0 4.296875zm31.390625 2.90625q0.296875 0 0.296875 -0.296875l0 -8.546875l-2.671875 0l-2.671875 0l0 -5.9375l6.828125 0l0 15.0q0 1.1875 -1.1875 1.1875l-1.484375 0l-0.140625 -1.40625l1.03125 0zm-3.921875 -3.5625l-3.9375 0l0 1.484375l3.9375 0l0 -1.484375zm0 -2.828125l-3.9375 0l0 1.640625l3.9375 0l0 -1.640625zm1.484375 -1.1875l0 7.28125l-1.484375 0l0 -0.59375l-3.9375 0l0 1.1875l-1.484375 0l0 -7.875l6.90625 0zm2.734375 -4.828125l0 -1.1875l-3.859375 0l0 1.1875l3.859375 0zm0 1.1875l-3.859375 0l0 1.1875l3.859375 0l0 -1.1875zm-8.75 0l-3.78125 0l0 1.1875l3.78125 0l0 -1.1875zm0 -1.1875l0 -1.1875l-3.78125 0l0 1.1875l3.78125 0zm1.484375 3.5625l-5.265625 0l0 10.328125l-1.484375 0l0 -16.265625l6.75 0l0 5.9375z" fill-rule="nonzero"/><path fill="#000000" d="m158.49123 292.7192l0 -13.359375l4.609375 0q1.546875 0 2.375 0.203125q1.140625 0.25 1.953125 0.953125q1.0625 0.890625 1.578125 2.28125q0.53125 1.390625 0.53125 3.171875q0 1.515625 -0.359375 2.703125q-0.359375 1.171875 -0.921875 1.9375q-0.546875 0.765625 -1.203125 1.21875q-0.65625 0.4375 -1.59375 0.671875q-0.9375 0.21875 -2.140625 0.21875l-4.828125 0zm1.765625 -1.578125l2.859375 0q1.3125 0 2.0625 -0.234375q0.75 -0.25 1.203125 -0.703125q0.625 -0.625 0.96875 -1.6875q0.359375 -1.0625 0.359375 -2.578125q0 -2.09375 -0.6875 -3.21875q-0.6875 -1.125 -1.671875 -1.5q-0.703125 -0.28125 -2.28125 -0.28125l-2.8125 0l0 10.203125zm12.004196 1.578125l0 -13.359375l1.765625 0l0 13.359375l-1.765625 0zm4.980179 0l0 -13.359375l9.015625 0l0 1.578125l-7.25 0l0 4.140625l6.265625 0l0 1.578125l-6.265625 0l0 6.0625l-1.765625 0zm10.708481 -4.296875l1.65625 -0.140625q0.125 1.0 0.546875 1.640625q0.4375 0.640625 1.34375 1.046875q0.921875 0.390625 2.0625 0.390625q1.0 0 1.78125 -0.296875q0.78125 -0.296875 1.15625 -0.8125q0.375 -0.53125 0.375 -1.15625q0 -0.625 -0.375 -1.09375q-0.359375 -0.46875 -1.1875 -0.796875q-0.546875 -0.203125 -2.390625 -0.640625q-1.828125 -0.453125 -2.5625 -0.84375q-0.96875 -0.5 -1.4375 -1.234375q-0.46875 -0.75 -0.46875 -1.671875q0 -1.0 0.578125 -1.875q0.578125 -0.890625 1.671875 -1.34375q1.109375 -0.453125 2.453125 -0.453125q1.484375 0 2.609375 0.484375q1.140625 0.46875 1.75 1.40625q0.609375 0.921875 0.65625 2.09375l-1.6875 0.125q-0.140625 -1.265625 -0.9375 -1.90625q-0.78125 -0.65625 -2.3125 -0.65625q-1.609375 0 -2.34375 0.59375q-0.734375 0.59375 -0.734375 1.421875q0 0.71875 0.53125 1.171875q0.5 0.46875 2.65625 0.96875q2.15625 0.484375 2.953125 0.84375q1.171875 0.53125 1.71875 1.359375q0.5625 0.828125 0.5625 1.90625q0 1.0625 -0.609375 2.015625q-0.609375 0.9375 -1.75 1.46875q-1.140625 0.515625 -2.578125 0.515625q-1.8125 0 -3.046875 -0.53125q-1.21875 -0.53125 -1.921875 -1.59375q-0.6875 -1.0625 -0.71875 -2.40625z" fill-rule="nonzero"/><path fill="#ff0000" d="m97.887924 318.64108l-1.75 0q-1.390625 -2.09375 -2.125 -4.359375q-0.734375 -2.28125 -0.734375 -4.40625q0 -2.625 0.90625 -4.96875q0.78125 -2.046875 1.984375 -3.765625l1.75 0q-1.25 2.75 -1.71875 4.6875q-0.46875 1.9375 -0.46875 4.109375q0 1.5 0.28125 3.0625q0.28125 1.5625 0.765625 2.96875q0.3125 0.9375 1.109375 2.671875z" fill-rule="nonzero"/><path fill="#ff0000" d="m99.2881 309.89108q3.34375 -1.234375 5.53125 -2.5l0.1875 -0.46875l0.546875 0q1.03125 -0.671875 1.390625 -0.96875l-7.375 0l0 -2.0l6.75 0l0 -1.1875l-4.96875 0l0 -2.0l4.96875 0l0 -2.234375l1.71875 0q1.859375 0.15625 0.359375 1.0l0 1.234375l3.703125 0l-0.03125 0.625q-0.046875 0 1.15625 -1.734375l1.53125 1.265625q0.875 1.03125 -0.453125 0.890625q-1.25 1.375 -2.078125 2.140625l4.921875 0l0 2.0l-7.234375 0q-1.125 0.90625 -1.34375 1.0625q3.546875 -0.390625 5.234375 -0.875l0.921875 1.5q1.375 1.828125 -0.734375 0.84375q-3.71875 0.296875 -7.296875 0.421875l-0.15625 0.609375l8.453125 0l-0.65625 3.6875q-0.5625 3.40625 -2.625 3.15625l-3.0 -0.40625l-0.109375 -2.265625l2.65625 0.4375q0.75 0.109375 0.921875 -1.09375l0.25 -1.5l-6.375 0q-0.046875 0.296875 -0.984375 2.453125l-2.046875 -0.734375q0.9375 -2.046875 1.3125 -3.46875q-0.84375 0.59375 -4.09375 1.96875l-0.953125 -1.859375zm10.171875 -5.9375q1.40625 -1.328125 1.453125 -1.265625l-2.515625 0.078125l0 1.1875l1.0625 0zm12.515625 0.375l0 -5.265625l11.875 0l0 5.265625l-11.875 0zm-2.515625 2.078125l0 -1.78125l16.984375 0l0 1.78125l-16.984375 0zm9.421875 5.484375l0 0.234375l5.421875 0l0 1.78125l-5.421875 0l0 0.296875l7.796875 0l0 1.78125l-17.453125 0l0 -1.78125l7.796875 0l0 -0.296875l-5.484375 0l0 -1.78125l5.484375 0l0 -0.234375l-2.21875 0l-2.828125 0l0 -5.1875l11.875 0l0 5.1875l-4.96875 0zm3.109375 -3.328125l0 -0.375l-3.109375 0l0 0.375l3.109375 0zm-3.109375 1.84375l3.109375 0l0 -0.359375l-3.109375 0l0 0.359375zm-5.046875 -9.5l8.15625 0l0 -0.359375l-8.15625 0l0 0.359375zm0 1.9375l8.15625 0l0 -0.453125l-8.15625 0l0 0.453125zm0 5.71875l3.1875 0l0 -0.375l-3.1875 0l0 0.375zm0 1.84375l3.1875 0l0 -0.359375l-3.1875 0l0 0.359375zm31.421875 -9.671875q0.765625 0.96875 -0.765625 0.703125q-1.4375 0.296875 -2.375 0.40625l0 2.859375l3.328125 0l0 2.0l-3.328125 0l0 3.640625l3.78125 0l0 2.0l-10.90625 0l0 -2.0l1.78125 0l0 -6.6875l1.71875 0q1.359375 0.171875 0.359375 0.90625l0 5.78125l1.1875 0l0 -8.28125q-2.0 0.1875 -4.171875 0.09375l-0.53125 -1.984375q4.71875 0.078125 8.828125 -1.15625l1.09375 1.71875zm-16.25 13.578125q2.078125 -1.171875 2.65625 -1.859375q-0.875 -1.46875 -1.75 -3.859375l2.0 -0.640625q0.6875 1.984375 0.84375 2.3125q0.375 -1.53125 0.5625 -3.484375l-1.375 0q-0.28125 0.390625 -0.90625 1.21875l-1.8125 -1.21875q2.390625 -3.359375 3.40625 -5.28125l-3.578125 0l0 -2.0l4.46875 0l0.484375 -0.46875l1.828125 1.453125l-0.546875 0.40625q-1.234375 2.171875 -2.234375 3.875l2.390625 0q-0.234375 5.046875 -1.21875 7.6875q1.296875 1.0 3.875 1.0l8.375 0l-0.40625 2.234375l-7.890625 0q-3.296875 0 -5.15625 -1.59375q-0.8125 1.015625 -2.890625 2.125l-1.125 -1.90625zm20.453125 -11.03125q1.84375 0.703125 3.359375 1.78125l-1.046875 1.765625q-1.640625 -1.046875 -3.234375 -1.859375l0.921875 -1.6875zm0.546875 -3.921875q1.75 0.625 3.1875 1.609375l-1.125 1.921875q-1.4375 -0.96875 -3.109375 -1.78125l1.046875 -1.75zm16.171875 14.609375l-0.53125 2.015625l-8.6875 0q-3.84375 0 -5.515625 -1.796875l-2.03125 2.046875l-1.328125 -2.046875l2.34375 -1.625l0 -2.75l-2.015625 0l0 -2.0l4.09375 0l0 4.78125q1.515625 1.375 3.859375 1.375l9.8125 0zm-13.75 -1.703125q1.1875 -1.4375 1.1875 -3.265625l0 -9.9375l11.5 0l0 4.21875l-9.640625 0l0 5.28125q0 3.453125 -1.890625 5.1875l-1.15625 -1.484375zm6.40625 -5.171875q1.03125 0.625 -0.15625 0.90625l0.015625 -0.125l0.640625 -0.0625l0 -0.890625l1.5 0q1.375 0.1875 0.34375 0.90625l0 -0.015625l3.421875 0l0 1.78125l-3.421875 0l0 0.515625l4.3125 0l0 1.78125l-4.3125 0l0 2.078125l-1.84375 0l0 -2.078125l-4.09375 0l0 -1.78125l4.09375 0l0 -0.515625l-1.78125 0q-0.375 0.5 -1.03125 1.046875l-1.375 -0.921875q1.578125 -1.5625 2.234375 -2.828125l1.453125 0.203125zm-3.21875 -0.171875l0 -1.484375l3.78125 0l0 1.484375l-3.78125 0zm-0.140625 -6.078125l0 0.65625l7.78125 0l0 -0.65625l-7.78125 0zm0.140625 4.21875l0 -1.484375l3.78125 0l0 1.484375l-3.78125 0zm5.640625 0.375l3.9375 0l0 1.484375l-3.9375 0l0 -1.484375zm0 -1.859375l3.9375 0l0 1.484375l-3.9375 0l0 -1.484375zm-0.359375 -0.515625q1.359375 0.171875 0.359375 0.90625l0 3.171875l-1.859375 0l0 -4.078125l1.5 0z" fill-rule="nonzero"/><path fill="#ff0000" d="m177.52248 318.64108q0.765625 -1.609375 1.0625 -2.484375q0.3125 -0.859375 0.578125 -1.984375q0.265625 -1.140625 0.390625 -2.15625q0.125 -1.015625 0.125 -2.078125q0 -2.171875 -0.46875 -4.109375q-0.453125 -1.9375 -1.703125 -4.6875l1.734375 0q1.375 1.953125 2.140625 4.15625q0.765625 2.1875 0.765625 4.453125q0 1.90625 -0.609375 4.078125q-0.671875 2.4375 -2.25 4.8125l-1.765625 0z" fill-rule="nonzero"/><path fill="#000000" fill-opacity="0.0" d="m137.70898 92.108925l0 41.039375" fill-rule="evenodd"/><path stroke="#000000" stroke-width="1.0" stroke-linejoin="round" stroke-linecap="butt" d="m137.70898 92.108925l0 35.039368" fill-rule="evenodd"/><path fill="#000000" stroke="#000000" stroke-width="1.0" stroke-linecap="butt" d="m136.05725 127.14829l1.6517334 4.5380936l1.6517334 -4.5380936z" fill-rule="evenodd"/><path fill="#000000" fill-opacity="0.0" d="m238.94617 167.41208l409.7638 0.03149414" fill-rule="evenodd"/><path stroke="#000000" stroke-width="1.0" stroke-linejoin="round" stroke-linecap="butt" d="m238.94617 167.41208l403.7638 0.031036377" fill-rule="evenodd"/><path fill="#000000" stroke="#000000" stroke-width="1.0" stroke-linecap="butt" d="m642.7098 169.09483l4.538269 -1.6513824l-4.537964 -1.6520691z" fill-rule="evenodd"/><path fill="#000000" fill-opacity="0.0" d="m238.94603 141.63794l28.34645 0l0 35.55905l-28.34645 0z" fill-rule="evenodd"/><path fill="#000000" d="m255.57103 155.1098q-0.15625 0.25 -0.421875 0.765625l-1.109375 2.765625q-0.65625 1.5625 -1.21875 2.71875l-0.828125 1.453125l-0.34375 0.703125q-0.203125 0.375 -0.578125 0.375q-0.25 0 -0.46875 -0.1875q-0.203125 -0.1875 -0.203125 -0.46875q0 -0.21875 0.625 -1.390625l0.796875 -1.453125q-1.171875 -1.515625 -1.515625 -2.375q-0.296875 -0.734375 -0.96875 -1.765625q-0.9375 -1.40625 -1.109375 -1.703125q-0.09375 -0.171875 -0.09375 -0.34375q0 -0.28125 0.203125 -0.46875q0.203125 -0.203125 0.46875 -0.203125q0.3125 0 0.53125 0.3125l0.515625 0.8125q0.703125 1.015625 0.921875 1.390625q0.484375 0.796875 0.75 1.484375q0.21875 0.53125 0.921875 1.46875l1.5 -3.625q0.25 -0.453125 0.703125 -1.390625q0.171875 -0.4375 0.59375 -0.4375q0.265625 0 0.46875 0.1875q0.203125 0.171875 0.203125 0.46875q0 0.296875 -0.34375 0.90625z" fill-rule="nonzero"/><path fill="#000000" fill-opacity="0.0" d="m429.65485 319.88843l28.346466 0l0 35.55905l-28.346466 0z" fill-rule="evenodd"/><path fill="#000000" d="m448.6861 340.25092q0 0.3125 -0.109375 1.03125q-0.09375 0.65625 -0.6875 0.65625q-0.359375 0 -0.859375 -0.46875q-2.640625 -2.5 -6.078125 -7.21875l-0.03125 1.46875l-0.015625 1.484375q0 0.546875 0.015625 1.625q0.03125 1.078125 0.03125 1.625q0 1.75 -0.6875 1.75q-0.359375 0 -0.5625 -0.234375q-0.1875 -0.203125 -0.1875 -0.46875q0 -0.28125 0.03125 -0.828125q0.046875 -0.5625 0.046875 -0.828125q0 -0.40625 0.03125 -1.203125q0.03125 -0.8125 0.03125 -1.21875q0 -0.421875 -0.03125 -1.296875q-0.015625 -0.875 -0.015625 -1.296875q0 -0.40625 -0.078125 -1.21875q-0.078125 -0.8125 -0.078125 -1.21875q0 -0.296875 0.25 -0.546875q0.265625 -0.25 0.59375 -0.25q0.34375 0 0.859375 0.75q1.609375 2.4375 2.90625 4.046875q1.546875 1.90625 3.390625 3.640625q0.015625 -0.28125 0 -0.828125l-0.03125 -0.828125q0 -2.84375 -0.21875 -4.546875q-0.015625 -0.171875 -0.171875 -0.671875q-0.125 -0.453125 -0.125 -0.703125q0 -0.75 0.6875 -0.75q1.125 0 1.125 4.21875q0 0.734375 -0.015625 2.171875q-0.015625 1.421875 -0.015625 2.15625z" fill-rule="nonzero"/><path fill="#f4cccc" d="m352.54382 514.999l0 0c0 -3.9255066 3.182251 -7.1077576 7.1077576 -7.1077576l140.02072 0c1.8850708 0 3.6929626 0.74887085 5.02594 2.0818176c1.3329468 1.3329773 2.081787 3.1408691 2.081787 5.02594l0 28.430176c0 3.925476 -3.182251 7.107727 -7.107727 7.107727l-140.02072 0c-3.9255066 0 -7.1077576 -3.182251 -7.1077576 -7.107727z" fill-rule="evenodd"/><path stroke="#000000" stroke-width="1.0" stroke-linejoin="round" stroke-linecap="butt" d="m352.54382 514.999l0 0c0 -3.9255066 3.182251 -7.1077576 7.1077576 -7.1077576l140.02072 0c1.8850708 0 3.6929626 0.74887085 5.02594 2.0818176c1.3329468 1.3329773 2.081787 3.1408691 2.081787 5.02594l0 28.430176c0 3.925476 -3.182251 7.107727 -7.107727 7.107727l-140.02072 0c-3.9255066 0 -7.1077576 -3.182251 -7.1077576 -7.107727z" fill-rule="evenodd"/><path fill="#000000" d="m392.11505 528.6341q2.890625 -3.484375 3.484375 -7.796875l1.40625 0.234375q0.75 0.140625 0 0.65625q-0.515625 2.078125 -1.1875 3.796875q0.8125 0.4375 0.21875 0.65625l0 11.734375l-1.484375 0l0 -9.953125q-0.734375 1.1875 -1.40625 1.9375l-1.03125 -1.265625zm6.234375 1.34375l0 -5.71875l3.859375 0l0 -0.75l-4.90625 0l0 -1.1875l4.90625 0l0 -1.546875l1.40625 0q0.59375 0.0625 0.078125 0.4375l0 1.109375l5.484375 0l0 1.1875l-5.484375 0l0 0.75l4.078125 0l0 5.421875l-1.109375 0q1.1875 0.8125 2.4375 1.84375l-1.03125 0.75l-0.890625 -0.75l-1.046875 0.078125l0 1.34375l3.640625 0l0 1.1875l-3.640625 0l0 2.375q0 1.328125 -1.109375 1.328125l-1.625 0l-0.296875 -1.40625l1.328125 0q0.21875 0 0.21875 -0.21875l0 -2.078125l-4.21875 0q0.890625 0.734375 1.703125 1.84375l-1.265625 0.96875q-0.734375 -0.96875 -1.78125 -1.921875l1.046875 -0.890625l-3.34375 0l0 -1.1875l7.859375 0l0 -1.265625l-6.453125 0.296875q-0.515625 0.671875 -0.671875 -0.078125l-0.21875 -1.1875l4.90625 0l0 -1.03125l-2.609375 0l0 0.296875l-1.25 0zm5.34375 -4.53125l0 0.890625l2.8125 0l0 -0.890625l-2.8125 0zm-4.09375 0l0 0.890625l2.609375 0l0 -0.890625l-2.609375 0zm4.09375 2.078125l0 0.96875l2.8125 0l0 -0.96875l-2.8125 0zm0 2.15625l0 0.953125l2.4375 0l-0.8125 -0.59375l0.8125 -0.359375l-2.4375 0zm-1.484375 -2.15625l-2.609375 0l0 0.96875l2.609375 0l0 -0.96875zm12.6875 -2.53125q-0.96875 -1.484375 -2.234375 -2.4375l1.1875 -1.125q1.640625 1.1875 2.234375 2.375l-1.1875 1.1875zm-3.34375 11.140625l2.53125 -1.484375l0 -4.96875l-2.375 0l0 -1.421875l3.859375 0l0 6.015625q1.703125 1.703125 4.0 1.703125l9.203125 0l-0.375 1.421875l-9.046875 0q-2.453125 0 -4.53125 -2.015625l-2.453125 2.453125l-0.8125 -1.703125zm16.25 -6.53125l-5.046875 0l-0.0625 0.671875q2.96875 1.328125 4.8125 3.03125l-1.03125 1.640625q-2.453125 -2.53125 -4.3125 -3.34375q-1.03125 1.9375 -4.21875 3.78125l-0.890625 -1.546875q3.859375 -1.9375 4.21875 -4.234375l-4.671875 0l0 -1.40625l4.75 0l0 -2.453125l-4.15625 0l0 -1.40625l2.59375 0q-0.8125 -1.421875 -1.921875 -2.453125l1.328125 -0.890625q1.046875 0.96875 1.9375 2.453125l-1.1875 0.890625l2.515625 0l1.78125 -3.71875l1.640625 0.75q0.296875 0.296875 -0.21875 0.359375l-1.71875 2.609375l3.265625 0l0 1.40625l-4.375 0l0 2.453125l4.96875 0l0 1.40625zm13.296875 -4.75q-0.828125 2.078125 -4.234375 2.890625l7.5 0l0 6.90625l-10.546875 0l0 -6.90625l2.671875 0l-0.734375 -1.265625q4.078125 -0.59375 4.21875 -3.265625l-1.25 0q-0.828125 1.265625 -1.78125 2.015625l-1.046875 -0.828125q1.703125 -1.546875 2.75 -3.859375l1.265625 0.453125q0.296875 0.296875 -0.234375 0.375l-0.296875 0.65625l5.9375 0l0.234375 -0.21875l1.1875 0.8125l-0.375 0.296875q-0.515625 0.890625 -1.859375 2.234375l-1.109375 -0.75q0.59375 -0.515625 1.109375 -1.1875l-3.109375 0q1.25 2.453125 6.0 3.34375l-0.59375 1.40625q-4.078125 -0.734375 -5.703125 -3.109375zm5.1875 12.84375q-3.40625 -0.515625 -5.71875 -1.9375l1.125 -1.03125q2.375 1.1875 5.046875 1.484375l-0.453125 1.484375zm-15.0625 -1.265625q3.1875 -0.453125 5.265625 -1.703125l1.109375 1.03125q0.296875 0.53125 -0.4375 0.296875q-2.375 1.1875 -5.421875 1.78125l-0.515625 -1.40625zm11.65625 -6.6875l0 -1.109375l-7.578125 0l0 1.109375l7.578125 0zm-9.953125 -8.609375q1.109375 0.53125 2.453125 1.265625l-0.96875 1.265625q-0.96875 -0.59375 -2.453125 -1.265625l0.96875 -1.265625zm-0.671875 6.53125q-0.140625 0.75 -0.515625 0.078125l-0.8125 -1.265625q2.21875 -0.8125 4.0 -1.921875l0.75 1.109375q-1.78125 1.1875 -3.421875 2.0zm10.625 4.09375l0 -1.125l-7.578125 0l0 1.125l7.578125 0zm0 2.0l0 -1.109375l-7.578125 0l0 1.109375l7.578125 0zm6.671875 0.21875q3.125 -2.453125 3.9375 -5.125l-3.421875 0l0 -1.40625l3.421875 0l0 -6.609375l1.40625 0q0.59375 0.078125 0.078125 0.453125l0 6.15625l3.046875 0l0 1.40625l-3.046875 0l0 0.96875q1.859375 1.109375 3.046875 2.453125l-0.890625 1.484375q-1.1875 -1.40625 -2.15625 -2.15625l0 6.171875l-1.484375 0l0 -5.71875q-0.96875 1.78125 -2.96875 3.40625l-0.96875 -1.484375zm6.015625 -7.71875q0.734375 -1.625 1.40625 -4.0l1.5625 0.515625q0.375 0.296875 -0.15625 0.296875q-0.734375 2.21875 -1.40625 3.78125l-1.40625 -0.59375zm-4.078125 -3.5625q1.03125 1.78125 1.40625 3.421875l-1.484375 0.59375q-0.375 -1.484375 -1.34375 -3.421875l1.421875 -0.59375zm12.828125 -1.625q0.59375 0.0625 0.078125 0.4375l0 9.421875l2.0 -0.515625l0.453125 1.5625l-2.453125 0.515625l0 5.28125l-1.484375 0l0 -4.90625l-4.0 0.890625l-0.375 -1.5625l4.375 -0.890625l0 -10.234375l1.40625 0zm-4.21875 2.140625q1.40625 0.890625 2.21875 1.78125l-1.03125 1.34375q-0.671875 -0.671875 -2.15625 -1.859375l0.96875 -1.265625zm-0.234375 4.09375q1.125 0.65625 2.234375 1.78125l-1.046875 1.328125q-0.890625 -0.96875 -2.140625 -1.859375l0.953125 -1.25z" fill-rule="nonzero"/><path fill="#000000" fill-opacity="0.0" d="m429.66803 451.54636l0 56.346466" fill-rule="evenodd"/><path stroke="#000000" stroke-width="1.0" stroke-linejoin="round" stroke-linecap="butt" d="m429.66803 451.5464l0 50.346466" fill-rule="evenodd"/><path fill="#000000" stroke="#000000" stroke-width="1.0" stroke-linecap="butt" d="m428.0163 501.89285l1.6517334 4.538086l1.6517334 -4.538086z" fill-rule="evenodd"/><path fill="#000000" fill-opacity="0.0" d="m429.65485 461.93927l28.346466 0l0 35.55905l-28.346466 0z" fill-rule="evenodd"/><path fill="#000000" d="m448.6861 482.30176q0 0.3125 -0.109375 1.03125q-0.09375 0.65625 -0.6875 0.65625q-0.359375 0 -0.859375 -0.46875q-2.640625 -2.5 -6.078125 -7.21875l-0.03125 1.46875l-0.015625 1.484375q0 0.546875 0.015625 1.625q0.03125 1.078125 0.03125 1.625q0 1.75 -0.6875 1.75q-0.359375 0 -0.5625 -0.234375q-0.1875 -0.203125 -0.1875 -0.46875q0 -0.28125 0.03125 -0.828125q0.046875 -0.5625 0.046875 -0.828125q0 -0.40625 0.03125 -1.203125q0.03125 -0.8125 0.03125 -1.21875q0 -0.421875 -0.03125 -1.296875q-0.015625 -0.875 -0.015625 -1.296875q0 -0.40625 -0.078125 -1.21875q-0.078125 -0.8125 -0.078125 -1.21875q0 -0.296875 0.25 -0.546875q0.265625 -0.25 0.59375 -0.25q0.34375 0 0.859375 0.75q1.609375 2.4375 2.90625 4.046875q1.546875 1.90625 3.390625 3.640625q0.015625 -0.28125 0 -0.828125l-0.03125 -0.828125q0 -2.84375 -0.21875 -4.546875q-0.015625 -0.171875 -0.171875 -0.671875q-0.125 -0.453125 -0.125 -0.703125q0 -0.75 0.6875 -0.75q1.125 0 1.125 4.21875q0 0.734375 -0.015625 2.171875q-0.015625 1.421875 -0.015625 2.15625z" fill-rule="nonzero"/><path fill="#000000" fill-opacity="0.0" d="m137.71056 201.7494l28.34645 0l0 35.55905l-28.34645 0z" fill-rule="evenodd"/><path fill="#000000" d="m156.7418 222.11191q0 0.3125 -0.109375 1.03125q-0.09375 0.65625 -0.6875 0.65625q-0.359375 0 -0.859375 -0.46875q-2.640625 -2.5 -6.078125 -7.21875l-0.03125 1.46875l-0.015625 1.484375q0 0.546875 0.015625 1.625q0.03125 1.078125 0.03125 1.625q0 1.75 -0.6875 1.75q-0.359375 0 -0.5625 -0.234375q-0.1875 -0.203125 -0.1875 -0.46875q0 -0.28125 0.03125 -0.828125q0.046875 -0.5625 0.046875 -0.828125q0 -0.40625 0.03125 -1.203125q0.03125 -0.8125 0.03125 -1.21875q0 -0.421875 -0.03125 -1.296875q-0.015625 -0.875 -0.015625 -1.296875q0 -0.40625 -0.078125 -1.21875q-0.078125 -0.8125 -0.078125 -1.21875q0 -0.296875 0.25 -0.546875q0.265625 -0.25 0.59375 -0.25q0.34375 0 0.859375 0.75q1.609375 2.4375 2.90625 4.046875q1.546875 1.90625 3.390625 3.640625q0.015625 -0.28125 0 -0.828125l-0.03125 -0.828125q0 -2.84375 -0.21875 -4.546875q-0.015625 -0.171875 -0.171875 -0.671875q-0.125 -0.453125 -0.125 -0.703125q0 -0.75 0.6875 -0.75q1.125 0 1.125 4.21875q0 0.734375 -0.015625 2.171875q-0.015625 1.421875 -0.015625 2.15625z" fill-rule="nonzero"/><path fill="#000000" fill-opacity="0.0" d="m530.9073 257.41016l28.346436 0l0 35.55905l-28.346436 0z" fill-rule="evenodd"/><path fill="#000000" d="m547.5323 270.88202q-0.15625 0.25 -0.421875 0.765625l-1.109375 2.765625q-0.65625 1.5625 -1.21875 2.71875l-0.828125 1.453125l-0.34375 0.703125q-0.203125 0.375 -0.578125 0.375q-0.25 0 -0.46875 -0.1875q-0.203125 -0.1875 -0.203125 -0.46875q0 -0.21875 0.625 -1.390625l0.796875 -1.453125q-1.171875 -1.515625 -1.515625 -2.375q-0.296875 -0.734375 -0.96875 -1.765625q-0.9375 -1.40625 -1.109375 -1.703125q-0.09375 -0.171875 -0.09375 -0.34375q0 -0.28125 0.203125 -0.46875q0.203125 -0.203125 0.46875 -0.203125q0.3125 0 0.53125 0.3125l0.515625 0.8125q0.703125 1.015625 0.921875 1.390625q0.484375 0.796875 0.75 1.484375q0.21875 0.53125 0.921875 1.46875l1.5 -3.625q0.25 -0.453125 0.703125 -1.390625q0.171875 -0.4375 0.59375 -0.4375q0.265625 0 0.46875 0.1875q0.203125 0.171875 0.203125 0.46875q0 0.296875 -0.34375 0.90625z" fill-rule="nonzero"/><path fill="#000000" fill-opacity="0.0" d="m718.269 146.12073l0 -38.488182l-578.2992 0" fill-rule="evenodd"/><path stroke="#000000" stroke-width="1.0" stroke-linejoin="round" stroke-linecap="butt" d="m718.26904 146.12073l0 -38.488182l-572.29926 0" fill-rule="evenodd"/><path fill="#000000" stroke="#000000" stroke-width="1.0" stroke-linecap="butt" d="m145.9698 105.98081l-4.538101 1.6517334l4.538101 1.6517334z" fill-rule="evenodd"/><path fill="#fff2cc" d="m68.15354 378.45407l139.1181 0l0 77.5748l-139.1181 0z" fill-rule="evenodd"/><path stroke="#000000" stroke-width="1.0" stroke-linejoin="round" stroke-linecap="butt" d="m68.15354 378.45407l139.1181 0l0 77.5748l-139.1181 0z" fill-rule="evenodd"/><path fill="#000000" d="m100.759476 390.95834q1.703125 -1.5625 2.671875 -4.15625l1.546875 0.4375q0.296875 0.296875 -0.21875 0.375l-0.4375 0.96875l4.75 0l0 1.1875l-2.609375 0l0.828125 1.40625l-1.640625 0.296875l-0.734375 -1.703125l-1.125 0q-0.734375 1.1875 -1.921875 2.296875l-1.109375 -1.109375zm8.078125 -0.671875q1.046875 -1.5625 1.5625 -3.5625l1.5625 0.296875q0.296875 0.296875 -0.21875 0.375l-0.453125 1.1875l6.015625 0l0 1.1875l-3.484375 0l0.953125 1.25l-1.625 0.453125l-0.96875 -1.703125l-1.328125 0q-0.296875 0.65625 -0.75 1.25l-1.265625 -0.734375zm-1.546875 11.953125q-0.671875 -0.96875 -1.9375 -2.078125l0.96875 -0.890625l-4.234375 0l0 -1.421875l9.796875 0l0 -1.25l-10.828125 0l0 -1.421875l7.421875 0l0 -1.484375l-5.28125 0l0 -1.40625l5.28125 0l0 -1.1875l1.40625 0q0.59375 0.078125 0.078125 0.453125l0 0.734375l5.484375 0l0 1.40625l-5.484375 0l0 1.484375l7.484375 0l0 1.421875l-4.078125 0l0 1.25l3.1875 0l0 1.421875l-3.1875 0l0 3.265625q0 1.1875 -1.1875 1.1875l-1.78125 0l-0.296875 -1.40625l1.484375 0q0.296875 0 0.296875 -0.3125l0 -2.734375l-5.125 0q1.125 0.734375 1.859375 1.84375l-1.328125 1.125zm12.609375 -11.140625q2.453125 -1.484375 3.78125 -4.0l1.265625 0.734375q0.59375 0.296875 -0.140625 0.453125q-1.71875 2.734375 -4.09375 4.21875l-0.8125 -1.40625zm9.0625 10.46875q-0.828125 -1.109375 -2.234375 -2.296875l1.109375 -1.125q1.71875 1.265625 2.3125 2.234375l-1.1875 1.1875zm2.140625 -14.703125q0.59375 0.078125 0.078125 0.453125l0 1.859375l3.859375 0l0 1.40625l-3.859375 0l0 2.078125l5.5625 0l0 1.40625l-3.1875 0l0 2.078125l2.671875 0l0 1.40625l-2.671875 0l0 5.0625q0 1.1875 -1.1875 1.1875l-1.703125 0l-0.21875 -1.421875l1.328125 0q0.296875 0 0.296875 -0.296875l0 -4.53125l-6.53125 0l0 -1.40625l6.53125 0l0 -2.078125l-6.75 0l0 -1.40625l4.375 0l0 -2.078125l-3.40625 0l0 -1.40625l3.40625 0l0 -2.3125l1.40625 0zm-5.5625 4.609375q0.59375 0.21875 -0.140625 0.4375q-0.671875 1.1875 -1.421875 2.375l0 9.578125l-1.484375 0l0 -7.640625q-1.03125 1.109375 -1.84375 1.625l-0.828125 -1.625q2.609375 -1.78125 4.390625 -5.5625l1.328125 0.8125zm18.109375 12.328125l-0.671875 -1.5625l2.3125 -1.484375l0 -3.125l-1.34375 0q0 0.15625 0 0.75q0 2.515625 -1.921875 2.515625l-0.671875 0l-0.296875 -1.40625l0.59375 0q0.890625 0 0.890625 -1.265625q0 -1.921875 -1.265625 -4.15625l0.890625 -5.1875l-1.78125 0l0 14.984375l-1.265625 0l0 -16.40625l3.265625 0l0.296875 -0.296875l1.046875 0.53125q0.890625 0.359375 0.140625 0.59375l-1.25 5.703125q0.734375 1.1875 1.03125 2.234375l3.125 0l0 4.453125q1.1875 1.40625 3.703125 1.40625l5.421875 0l-0.453125 1.421875l-4.8125 0q-2.90625 0 -4.609375 -1.796875l-2.375 2.09375zm2.296875 -9.515625q-1.109375 -0.953125 -2.375 -1.625l0.828125 -1.046875q1.328125 0.59375 2.375 1.484375l-0.828125 1.1875zm-0.890625 -6.53125q1.34375 0.59375 2.375 1.484375l-0.953125 1.1875q-1.046875 -0.953125 -2.3125 -1.546875l0.890625 -1.125zm4.453125 10.921875l0 2.734375l-1.25 0l0 -7.421875l6.453125 0l0 6.09375q0 1.1875 -1.046875 1.1875l-0.953125 0l-0.375 -1.1875l0.8125 0q0.296875 0 0.296875 -0.296875l0 -1.109375l-3.9375 0zm-2.734375 -5.9375q1.546875 -1.640625 2.375 -3.203125l-1.484375 0l0 -1.1875l2.0 0q0.296875 -0.65625 0.671875 -1.703125l1.25 0.21875q0.53125 0.296875 -0.140625 0.375l-0.515625 1.109375l4.375 0l0 1.1875l-4.828125 0l-0.375 0.75l4.609375 0l0 0.890625l-2.15625 0l0 1.03125l2.96875 0l0 0.890625l-6.453125 0l0 -0.890625l2.21875 0l0 -1.03125l-1.703125 0q-0.890625 1.1875 -2.0 2.453125l-0.8125 -0.890625zm6.671875 3.109375l0 -0.96875l-3.9375 0l0 0.96875l3.9375 0zm0 1.9375l0 -1.046875l-3.9375 0l0 1.046875l3.9375 0zm9.0625 -1.046875q-0.828125 -0.890625 -1.125 -1.1875l0 8.3125l-1.25 0l0 -8.09375q-0.671875 2.078125 -1.859375 3.5l-0.890625 -1.421875q1.703125 -2.4375 2.671875 -6.0l-2.078125 0l0 -1.421875l2.15625 0l0 -3.5625l1.1875 0q0.59375 0.078125 0.0625 0.453125l0 3.109375l1.71875 0l0 1.421875l-1.71875 0l0 2.078125q1.34375 0.734375 1.9375 1.484375l-0.8125 1.328125zm6.828125 -3.9375q0 1.78125 0.140625 3.34375l2.0 0q-0.140625 -0.59375 -0.515625 -1.109375l1.40625 -0.375q0.53125 0.75 0.75 1.484375l1.5625 0l0 1.1875l-5.125 0q0.21875 1.484375 0.734375 2.59375q0.96875 -0.890625 1.78125 -2.296875l1.265625 0.671875q0.453125 0.296875 -0.21875 0.4375q-0.96875 1.484375 -1.859375 2.3125q1.046875 1.03125 1.703125 1.03125q0.453125 0 0.671875 -1.5625l1.265625 0.75q-0.21875 1.78125 -1.046875 2.296875q-1.25 0.828125 -3.703125 -1.625q-1.5625 1.1875 -3.71875 1.859375l-0.65625 -1.421875q1.921875 -0.515625 3.484375 -1.625q-0.8125 -1.640625 -0.96875 -3.421875l-2.75 0l0 1.109375q1.34375 0.453125 2.53125 1.34375l-0.890625 1.328125q-0.59375 -0.515625 -1.640625 -1.25q-0.359375 2.515625 -2.375 4.0l-1.1875 -1.1875q2.15625 -1.265625 2.078125 -4.078125l0 -1.265625l-0.8125 0l0 -1.1875l4.96875 0q-0.0625 -0.734375 -0.0625 -1.265625l-1.046875 0.375l-0.140625 -0.734375l-3.046875 0.4375q-0.15625 0.515625 -0.296875 0.21875l-0.453125 -1.40625l0.75 0l0.890625 -1.5625l-1.5625 -1.109375l0.59375 -0.96875l0.21875 0.15625l1.421875 -3.046875l1.109375 0.75q0.296875 0.296875 -0.15625 0.296875l-1.546875 2.515625l0.515625 0.375l1.1875 -2.0l0.96875 0.65625q0.296875 0.296875 -0.15625 0.296875l-2.296875 3.5625l1.5625 -0.140625l-0.453125 -1.1875l0.890625 -0.375q0.59375 0.890625 0.96875 2.375l0 -7.34375l1.1875 0q0.59375 0.078125 0.078125 0.4375l0 5.34375zm4.078125 1.1875l-3.046875 0.59375q-0.140625 0.53125 -0.296875 0.234375l-0.4375 -1.34375l0.65625 -0.078125l0.890625 -1.328125l-1.78125 -1.34375l0.59375 -0.890625l0.296875 0.234375l1.484375 -2.828125l1.046875 0.671875q0.296875 0.296875 -0.15625 0.296875l-1.484375 2.296875l0.671875 0.453125l1.1875 -1.859375l0.96875 0.515625q0.296875 0.296875 -0.15625 0.296875l-2.375 3.421875l1.640625 -0.234375l-0.453125 -1.03125l0.96875 -0.21875q0.75 1.109375 1.109375 2.59375l-1.109375 0.375l-0.21875 -0.828125z" fill-rule="nonzero"/><path fill="#000000" d="m103.571976 422.59897l0 -4.828125l-2.671875 0l0 -1.40625l4.15625 0l0 6.015625q1.703125 1.703125 3.9375 1.703125l8.828125 0l-0.296875 1.421875l-8.390625 0q-2.890625 0 -4.8125 -2.015625l-2.234375 2.15625l-1.1875 -1.640625l2.671875 -1.40625zm0.75 -9.421875q-1.046875 -1.5625 -2.234375 -2.453125l1.1875 -1.03125q1.34375 1.03125 2.234375 2.296875l-1.1875 1.1875zm9.71875 6.828125q1.703125 1.40625 3.34375 1.78125l-0.59375 1.484375q-4.609375 -1.40625 -6.234375 -6.75l-1.640625 0l0 4.75l3.5625 -0.53125l0.15625 1.34375l-5.71875 0.890625q-0.078125 0.515625 -0.375 0.21875l-0.4375 -1.5625l1.328125 -0.140625l0 -11.953125l8.171875 0l0 6.984375l-3.796875 0q0.296875 1.109375 1.421875 2.515625l2.296875 -2.375l1.1875 1.046875q0.078125 0.359375 -0.375 0.21875l-2.296875 2.078125zm-5.125 -9.28125l0 1.703125l5.203125 0l0 -1.703125l-5.203125 0zm0 2.890625l0 1.71875l5.203125 0l0 -1.71875l-5.203125 0zm21.828125 7.953125q-0.671875 0.59375 -1.1875 0.890625l0 1.78125l2.96875 -0.375l0 1.109375q-2.671875 0.375 -5.28125 0.59375q-0.140625 0.75 -0.515625 0l-0.296875 -1.109375l1.859375 -0.078125l0 -1.328125q-1.1875 0.59375 -2.828125 1.03125l-0.4375 -1.109375q3.40625 -0.890625 4.828125 -2.078125l-4.3125 0l0 -0.890625l2.96875 0l0 -1.046875l-1.859375 0l0 -0.890625l1.859375 0l0 -0.953125l-2.375 0l0 -0.890625l2.375 0l0 -1.046875l-1.03125 0l-0.96875 0l0 -2.8125l3.859375 0l0 2.8125l-0.59375 0l0 1.046875l2.15625 0l0 -1.046875l-0.234375 0l-0.21875 0l0 -2.8125l4.015625 0l0 2.8125l-2.3125 0l0 1.046875l2.53125 0l0 0.890625l-2.53125 0l0 0.953125l2.015625 0l0 0.890625l-2.015625 0l0 1.046875l3.421875 0l0 0.890625l-4.90625 0q0.53125 1.03125 1.125 1.5625l1.625 -1.34375l1.109375 0.671875q0.53125 0.296875 -0.296875 0.296875l-1.625 1.03125q1.328125 0.96875 3.109375 1.5l-0.515625 1.1875q-3.9375 -1.265625 -5.484375 -4.234375zm0.953125 -11.0625l4.453125 0l0 1.1875l-10.453125 0l0 -1.1875l4.515625 0l0 -1.703125l1.421875 0q0.59375 0.0625 0.0625 0.4375l0 1.265625zm-11.203125 0.21875l0 -1.40625l4.078125 0l0 1.40625l-4.078125 0zm-0.890625 2.53125l0 -1.421875l5.640625 0l0 1.421875l-5.640625 0zm0.890625 2.671875l0 -1.421875l4.15625 0l0 1.421875l-4.15625 0zm0 2.671875l0 -1.421875l4.15625 0l0 1.421875l-4.15625 0zm3.046875 5.109375l0 -2.671875l-2.078125 0l0 2.671875l2.078125 0zm1.265625 -3.859375l0 5.71875l-1.265625 0l0 -0.65625l-2.078125 0l0 0.953125l-1.265625 0l0 -6.015625l4.609375 0zm4.96875 -2.734375l0 0.953125l2.15625 0l0 -0.953125l-2.15625 0zm4.671875 -3.859375l-1.921875 0l0 1.03125l1.921875 0l0 -1.03125zm-6.90625 0l0 1.03125l1.78125 0l0 -1.03125l-1.78125 0zm4.390625 5.703125l-2.15625 0l0 1.046875l2.15625 0l0 -1.046875zm16.390625 4.3125q-0.890625 -1.5625 -1.484375 -2.234375l1.265625 -0.890625q0.59375 0.671875 1.5625 2.15625l-1.34375 0.96875zm2.90625 1.046875q0.296875 0 0.296875 -0.3125l0 -4.375l-6.234375 0l0 -1.40625l6.234375 0l0 -1.9375l-7.0625 0l0 7.0625l-1.25 0l0 -0.59375l-2.53125 0l0 1.328125l-1.265625 0l0 -13.65625l5.046875 0l0 4.453125l4.53125 0l0 -2.15625l-3.1875 0l0 -1.40625l3.1875 0l0 -2.515625l1.40625 0q0.59375 0.0625 0.078125 0.4375l0 2.078125l3.78125 0l0 1.40625l-3.78125 0l0 2.15625l5.203125 0l0 1.40625l-2.671875 0l0 1.9375l2.21875 0l0 1.40625l-2.21875 0l0 4.90625q0 1.1875 -1.1875 1.1875l-1.5625 0l-0.296875 -1.40625l1.265625 0zm-10.546875 -8.6875l2.53125 0l0 -3.796875l-2.53125 0l0 3.796875zm0 5.703125l2.53125 0l0 -4.296875l-2.53125 0l0 4.296875zm31.390625 2.90625q0.296875 0 0.296875 -0.296875l0 -8.546875l-2.671875 0l-2.671875 0l0 -5.9375l6.828125 0l0 15.0q0 1.1875 -1.1875 1.1875l-1.484375 0l-0.140625 -1.40625l1.03125 0zm-3.921875 -3.5625l-3.9375 0l0 1.484375l3.9375 0l0 -1.484375zm0 -2.828125l-3.9375 0l0 1.640625l3.9375 0l0 -1.640625zm1.484375 -1.1875l0 7.28125l-1.484375 0l0 -0.59375l-3.9375 0l0 1.1875l-1.484375 0l0 -7.875l6.90625 0zm2.734375 -4.828125l0 -1.1875l-3.859375 0l0 1.1875l3.859375 0zm0 1.1875l-3.859375 0l0 1.1875l3.859375 0l0 -1.1875zm-8.75 0l-3.78125 0l0 1.1875l3.78125 0l0 -1.1875zm0 -1.1875l0 -1.1875l-3.78125 0l0 1.1875l3.78125 0zm1.484375 3.5625l-5.265625 0l0 10.328125l-1.484375 0l0 -16.265625l6.75 0l0 5.9375z" fill-rule="nonzero"/><path fill="#ff0000" d="m97.89055 450.08334l-1.75 0q-1.390625 -2.09375 -2.125 -4.359375q-0.734375 -2.28125 -0.734375 -4.40625q0 -2.625 0.90625 -4.96875q0.78125 -2.046875 1.984375 -3.765625l1.75 0q-1.25 2.75 -1.71875 4.6875q-0.46875 1.9375 -0.46875 4.109375q0 1.5 0.28125 3.0625q0.28125 1.5625 0.765625 2.96875q0.3125 0.9375 1.109375 2.671875z" fill-rule="nonzero"/><path fill="#ff0000" d="m98.884476 440.34897q2.703125 -3.0 3.09375 -6.875l-2.046875 0l0 -2.015625l6.53125 0l0 2.015625l-2.453125 0q-0.140625 2.0625 -0.796875 3.625l2.359375 0l0 9.4375l-1.921875 0l0 -1.1875l-0.8125 0l0 1.921875l-1.9375 0l0.0625 -6.109375q0.03125 0.046875 -0.75 0.9375l-1.328125 -1.75zm3.953125 3.21875l0.8125 0l0 -4.6875l-0.8125 0l0 4.6875zm6.671875 -13.0625q0.953125 1.671875 1.40625 3.46875l-2.0625 0.609375q-0.4375 -1.75 -1.328125 -3.4375l1.984375 -0.640625zm-0.515625 5.703125l-3.125 0l0 -2.0l5.9375 0l1.046875 -3.8125l1.796875 0.265625q1.375 0.6875 0.046875 0.984375l-1.03125 2.5625l3.265625 0l0 2.0l-3.40625 0l0 4.6875l0.953125 0l0 -3.796875l1.578125 0q1.703125 0.171875 0.359375 0.921875l0 5.6875l-1.9375 0l0 -0.96875l-0.953125 0l0 2.375l3.78125 0l0 2.015625l-11.796875 0l0 -2.015625l3.484375 0l0 -2.375l-0.8125 0l0 1.046875l-1.9375 0l0 -6.609375l1.578125 0q1.359375 0.171875 0.359375 0.90625l0 2.8125l0.8125 0l0 -4.6875zm2.59375 8.90625l0 -8.90625l-0.671875 0l0 8.90625l0.671875 0zm21.9375 -11.640625l-0.453125 0.890625l3.53125 0l0 1.78125l-12.46875 0l0 -0.53125l-0.8125 0l0 3.25l1.59375 -0.421875l0.21875 2.078125l-1.8125 0.515625l0 5.28125q0 1.328125 -1.265625 1.328125l-1.8125 0l-0.3125 -2.0l1.3125 0q0 0 0 0l0 -4.0625l-1.0 0.28125q-0.140625 0.90625 -0.90625 0.140625l-0.46875 -2.0l2.375 -0.609375l0 -3.78125l-2.078125 0l0 -2.0l2.078125 0l0 -3.484375l1.71875 0q1.375 0.1875 0.359375 0.890625l0 2.59375l1.40625 0l0 0.75l2.359375 0l-0.390625 -0.890625l-2.125 0l0 -1.78125l4.53125 0l0 -1.640625l1.71875 0q1.359375 0.171875 0.359375 0.90625l0 0.734375l4.375 0l0 1.78125l-2.03125 0zm-2.265625 0l-2.296875 0l0.40625 0.890625l1.53125 0l0.359375 -0.890625zm3.9375 3.109375l0 6.015625l-4.09375 0l0 0.515625l4.53125 0l0 1.78125l-4.53125 0l0 0.59375l5.5 0l0 1.78125l-13.21875 0l0 -1.78125l5.875 0l0 -0.59375l-4.609375 0l0 -1.78125l4.609375 0l0 -0.515625l-1.71875 0l-2.296875 0l0 -6.015625l9.953125 0zm-4.09375 4.53125l2.234375 0l0 -0.75l-2.234375 0l0 0.75zm0 -2.234375l2.234375 0l0 -0.8125l-2.234375 0l0 0.8125zm-4.0 2.234375l2.15625 0l0 -0.75l-2.15625 0l0 0.75zm0 -2.234375l2.15625 0l0 -0.8125l-2.15625 0l0 0.8125zm29.53125 6.765625l-0.421875 2.0l-8.921875 0q-3.3125 0 -5.109375 -1.921875q-0.78125 1.03125 -2.359375 2.0625l-1.015625 -2.28125l2.25 -1.171875l0 -4.625l-2.15625 0l0 -2.015625l4.234375 0l0 2.515625q0.59375 -0.890625 0.59375 -3.109375l0 -5.9375l5.484375 0l0 6.390625l-1.84375 0l0 -0.75l-1.796875 0l-0.125 1.484375l4.0 0l0 6.828125l-1.859375 0l0 -0.515625l-1.046875 0l0 0.890625l-1.84375 0l0.296875 -6.078125q-0.015625 2.046875 -1.484375 3.796875l-0.375 -0.453125l0 1.28125q1.734375 1.609375 4.15625 1.609375l9.34375 0zm-5.90625 -8.6875q-0.375 -1.390625 -0.859375 -2.640625l1.734375 -0.546875q0.640625 1.3125 0.84375 2.640625l-1.71875 0.546875zm-1.140625 -3.046875l0 -1.78125l2.15625 0l0 -1.859375l1.5 0q1.359375 0.171875 0.359375 0.90625l0 0.953125l2.296875 0l0 1.78125l-1.078125 0l0.21875 0.140625q0.734375 0.734375 -0.203125 0.875l-0.78125 1.734375l2.140625 0l0 1.78125l-2.59375 0l0 1.78125l2.140625 0l0 1.78125l-2.140625 0l0 3.40625l-1.859375 0l0 -3.40625l-2.15625 0l0 -1.78125l2.15625 0l0 -1.78125l-2.375 0l0 -1.78125l2.96875 0l0.921875 -2.75l-3.671875 0zm-2.0 8.90625l0 -2.75l-1.046875 0l0 2.75l1.046875 0zm-0.21875 -7.796875l0 -2.078125l-1.78125 0l0 2.078125l1.78125 0zm-6.4375 -4.25q1.65625 1.140625 2.734375 2.484375l-1.578125 1.6875q-1.09375 -1.1875 -2.640625 -2.578125l1.484375 -1.59375zm26.921875 10.5625l-1.5625 0q0.078125 5.78125 -6.96875 6.25l-0.625 -2.171875q5.4375 -0.0625 5.515625 -4.078125l-1.1875 0l0 0.59375l-2.078125 0l0 -4.265625q-0.4375 0.28125 -1.796875 1.15625l-0.8125 -2.21875q3.9375 -2.0 5.53125 -6.515625l1.890625 0.359375q0.78125 0.78125 -0.171875 0.921875l-0.078125 0.171875l4.0625 0l0.390625 -0.375l1.5625 1.03125q0.734375 0.734375 -0.25 0.890625l-1.40625 1.796875l4.21875 0l0 6.96875l-2.078125 0l0 -0.515625l-2.078125 0l0 3.78125q0 0.234375 0.140625 0.234375l3.265625 0q0.25 0 0.296875 -0.421875l0.28125 -1.65625l2.0625 0.515625l-0.34375 1.96875q-0.265625 1.59375 -1.703125 1.59375l-4.453125 0q-1.625 0 -1.625 -1.640625l0 -4.375zm-0.390625 -6.453125l0.9375 -1.34375l-3.8125 0q-0.59375 0.921875 -0.9375 1.34375l3.8125 0zm-1.09375 2.0l-3.34375 0l0 2.453125l3.34375 0l0 -2.453125zm5.640625 0l-3.5625 0l0 2.453125l3.5625 0l0 -2.453125z" fill-rule="nonzero"/><path fill="#ff0000" d="m177.5251 450.08334q0.765625 -1.609375 1.0625 -2.484375q0.3125 -0.859375 0.578125 -1.984375q0.265625 -1.140625 0.390625 -2.15625q0.125 -1.015625 0.125 -2.078125q0 -2.171875 -0.46875 -4.109375q-0.453125 -1.9375 -1.703125 -4.6875l1.734375 0q1.375 1.953125 2.140625 4.15625q0.765625 2.1875 0.765625 4.453125q0 1.90625 -0.609375 4.078125q-0.671875 2.4375 -2.25 4.8125l-1.765625 0z" fill-rule="nonzero"/><path fill="#000000" fill-opacity="0.0" d="m214.82808 285.79922l113.60631 -0.2204895" fill-rule="evenodd"/><path stroke="#000000" stroke-width="1.0" stroke-linejoin="round" stroke-linecap="butt" d="m214.82808 285.79922l107.60634 -0.20883179" fill-rule="evenodd"/><path fill="#000000" stroke="#000000" stroke-width="1.0" stroke-linecap="butt" d="m322.4376 287.24213l4.5348816 -1.660553l-4.5412903 -1.6429138z" fill-rule="evenodd"/><path fill="#000000" fill-opacity="0.0" d="m137.71187 201.74805l0 45.259842" fill-rule="evenodd"/><path stroke="#000000" stroke-width="1.0" stroke-linejoin="round" stroke-linecap="butt" d="m137.71187 201.74805l0 39.259842" fill-rule="evenodd"/><path fill="#000000" stroke="#000000" stroke-width="1.0" stroke-linecap="butt" d="m136.06013 241.00789l1.6517334 4.538101l1.6517334 -4.538101z" fill-rule="evenodd"/><path fill="#000000" fill-opacity="0.0" d="m530.9113 417.2406l187.37006 0l0 -228.47243" fill-rule="evenodd"/><path stroke="#000000" stroke-width="1.0" stroke-linejoin="round" stroke-linecap="butt" d="m530.9113 417.2406l187.37012 0l0 -222.47243" fill-rule="evenodd"/><path fill="#000000" stroke="#000000" stroke-width="1.0" stroke-linecap="butt" d="m719.93317 194.76817l-1.6517334 -4.538101l-1.6517334 4.538101z" fill-rule="evenodd"/><path fill="#000000" fill-opacity="0.0" d="m530.9063 285.58316l187.37012 0l0 -96.81888" fill-rule="evenodd"/><path stroke="#000000" stroke-width="1.0" stroke-linejoin="round" stroke-linecap="butt" d="m530.9063 285.58316l187.37012 0l0 -90.81889" fill-rule="evenodd"/><path fill="#000000" stroke="#000000" stroke-width="1.0" stroke-linecap="butt" d="m719.92816 194.76427l-1.6517334 -4.538086l-1.6517334 4.538086z" fill-rule="evenodd"/><path fill="#000000" fill-opacity="0.0" d="m530.9073 388.77237l28.346436 0l0 35.55905l-28.346436 0z" fill-rule="evenodd"/><path fill="#000000" d="m547.5323 402.24423q-0.15625 0.25 -0.421875 0.765625l-1.109375 2.765625q-0.65625 1.5625 -1.21875 2.71875l-0.828125 1.453125l-0.34375 0.703125q-0.203125 0.375 -0.578125 0.375q-0.25 0 -0.46875 -0.1875q-0.203125 -0.1875 -0.203125 -0.46875q0 -0.21875 0.625 -1.390625l0.796875 -1.453125q-1.171875 -1.515625 -1.515625 -2.375q-0.296875 -0.734375 -0.96875 -1.765625q-0.9375 -1.40625 -1.109375 -1.703125q-0.09375 -0.171875 -0.09375 -0.34375q0 -0.28125 0.203125 -0.46875q0.203125 -0.203125 0.46875 -0.203125q0.3125 0 0.53125 0.3125l0.515625 0.8125q0.703125 1.015625 0.921875 1.390625q0.484375 0.796875 0.75 1.484375q0.21875 0.53125 0.921875 1.46875l1.5 -3.625q0.25 -0.453125 0.703125 -1.390625q0.171875 -0.4375 0.59375 -0.4375q0.265625 0 0.46875 0.1875q0.203125 0.171875 0.203125 0.46875q0 0.296875 -0.34375 0.90625z" fill-rule="nonzero"/><path fill="#000000" fill-opacity="0.0" d="m429.66306 319.88895l0 29.282593l-291.937 0l0 29.268585" fill-rule="evenodd"/><path stroke="#000000" stroke-width="1.0" stroke-linejoin="round" stroke-linecap="butt" d="m429.66306 319.88892l0 29.282623l-291.937 0l0 23.268585" fill-rule="evenodd"/><path fill="#000000" stroke="#000000" stroke-width="1.0" stroke-linecap="butt" d="m136.07433 372.44012l1.6517334 4.538086l1.6517334 -4.538086z" fill-rule="evenodd"/><path fill="#000000" fill-opacity="0.0" d="m207.27165 417.24146l121.16536 0" fill-rule="evenodd"/><path stroke="#000000" stroke-width="1.0" stroke-linejoin="round" stroke-linecap="butt" d="m207.27165 417.24146l115.16536 0" fill-rule="evenodd"/><path fill="#000000" stroke="#000000" stroke-width="1.0" stroke-linecap="butt" d="m322.437 418.8932l4.538086 -1.6517334l-4.538086 -1.6517029z" fill-rule="evenodd"/><path fill="#000000" d="m716.2848 285.58267l0 0c0 -1.0958557 0.8883667 -1.9842529 1.9842529 -1.9842529l0 0c0.5262451 0 1.0309448 0.20904541 1.4030762 0.58117676c0.37213135 0.37213135 0.58117676 0.87683105 0.58117676 1.4030762l0 0c0 1.0958862 -0.8883667 1.9842529 -1.9842529 1.9842529l0 0c-1.0958862 0 -1.9842529 -0.8883667 -1.9842529 -1.9842529z" fill-rule="evenodd"/><path stroke="#000000" stroke-width="1.0" stroke-linejoin="round" stroke-linecap="butt" d="m716.2848 285.58267l0 0c0 -1.0958557 0.8883667 -1.9842529 1.9842529 -1.9842529l0 0c0.5262451 0 1.0309448 0.20904541 1.4030762 0.58117676c0.37213135 0.37213135 0.58117676 0.87683105 0.58117676 1.4030762l0 0c0 1.0958862 -0.8883667 1.9842529 -1.9842529 1.9842529l0 0c-1.0958862 0 -1.9842529 -0.8883667 -1.9842529 -1.9842529z" fill-rule="evenodd"/><path fill="#000000" fill-opacity="0.0" d="m60.59186 285.79922l-21.070866 0l0 36.6929" fill-rule="evenodd"/><path stroke="#000000" stroke-width="1.0" stroke-linejoin="round" stroke-linecap="butt" d="m60.59186 285.79922l-21.070866 0l0 30.692902" fill-rule="evenodd"/><path fill="#000000" stroke="#000000" stroke-width="1.0" stroke-linecap="butt" d="m37.869267 316.49213l1.6517296 4.538086l1.6517334 -4.538086z" fill-rule="evenodd"/><path fill="#000000" fill-opacity="0.0" d="m12.171916 324.58923l139.1181 0l0 33.921265l-139.1181 0z" fill-rule="evenodd"/><path fill="#000000" d="m32.703167 345.15613l-0.1875 0.890625l-5.484375 0q-2.015625 0 -3.234375 -1.3125q-0.609375 0.796875 -1.40625 1.3125l-0.46875 -1.078125l1.359375 -0.703125l0 -3.234375l-1.359375 0l0 -0.890625l2.296875 0l0 2.015625q0.75 -1.125 0.75 -2.578125l0 -3.5625l3.09375 0l0 3.65625l-0.796875 0l0 -0.46875l-1.5 0l-0.09375 1.3125l2.53125 0l0 3.9375l-0.796875 0l0 -0.328125l-1.03125 0l0 0.5625l-0.796875 0l0 -3.65625q-0.1875 1.21875 -0.9375 2.109375l-0.421875 -0.515625l0 1.40625q1.21875 1.125 2.8125 1.125l5.671875 0zm-3.375 -5.90625q-0.1875 -0.703125 -0.421875 -1.3125l0.75 -0.234375q0.328125 0.65625 0.421875 1.3125l-0.75 0.234375zm-0.65625 -1.875l0 -0.75l1.359375 0l0 -1.171875l0.75 0q0.375 0.046875 0.046875 0.28125l0 0.890625l1.453125 0l0 0.75l-1.125 0l0.65625 0.421875q0.1875 0.1875 -0.140625 0.234375l-0.65625 1.453125l1.453125 0l0 0.75l-1.640625 0l0 1.5l1.359375 0l0 0.75l-1.359375 0l0 2.15625l-0.796875 0l0 -2.15625l-1.359375 0l0 -0.75l1.359375 0l0 -1.5l-1.5 0l0 -0.75l1.828125 0l0.703125 -2.109375l-2.390625 0zm-1.265625 6.0l0 -2.109375l-1.03125 0l0 2.109375l1.03125 0zm-0.140625 -4.921875l0 -1.6875l-1.5 0l0 1.6875l1.5 0zm-4.21875 -2.625q0.890625 0.609375 1.453125 1.3125l-0.75 0.796875q-0.5625 -0.609375 -1.40625 -1.359375l0.703125 -0.75zm16.78125 6.234375l-1.359375 0q0.046875 3.65625 -4.078125 3.9375l-0.28125 -0.984375q3.375 -0.046875 3.421875 -2.953125l-1.125 0l0 0.375l-0.9375 0l0 -2.859375q-0.5625 0.375 -1.21875 0.796875l-0.375 -1.03125q2.390625 -1.21875 3.375 -3.984375l0.984375 0.1875q0.1875 0.1875 -0.140625 0.234375l-0.234375 0.46875l2.953125 0l0.1875 -0.1875l0.84375 0.5625q0.1875 0.1875 -0.140625 0.234375l-1.171875 1.5l2.859375 0l0 4.03125l-0.9375 0l0 -0.328125l-1.6875 0l0 2.578125q0 0.328125 0.28125 0.328125l2.0625 0q0.328125 0 0.375 -0.421875l0.140625 -0.84375l0.9375 0.234375l-0.1875 1.078125q-0.140625 0.84375 -0.890625 0.84375l-2.8125 0q-0.84375 0 -0.84375 -0.84375l0 -2.953125zm-0.328125 -3.703125l0.84375 -1.21875l-2.859375 0q-0.421875 0.65625 -0.890625 1.21875l2.90625 0zm-0.609375 0.890625l-2.484375 0l0 1.921875l2.484375 0l0 -1.921875zm3.5625 0l-2.625 0l0 1.921875l2.625 0l0 -1.921875zm5.34375 1.78125l0 -2.390625l-1.6875 0l0 -0.890625l1.6875 0l0 -2.296875l0.890625 0q0.375 0.046875 0.046875 0.28125l0 2.015625l1.5 0l0 0.890625l-1.5 0l0 2.15625l1.59375 -0.515625l0.234375 0.890625l-1.828125 0.65625l0 3.515625q0 0.75 -0.75 0.75l-1.03125 0l-0.234375 -0.890625l0.890625 0q0.1875 0 0.1875 -0.1875l0 -2.90625l-1.3125 0.421875q-0.046875 0.421875 -0.234375 0.140625l-0.375 -1.171875l1.921875 -0.46875zm8.71875 -3.234375l-2.296875 0l0 7.5q0 0.75 -0.75 0.75l-1.03125 0l-0.1875 -0.890625l0.84375 0q0.1875 0 0.1875 -0.1875l0 -7.171875l-2.578125 0l0 -1.03125l5.8125 0l0 1.03125zm10.124996 8.203125l0 -6.0l-1.21875 0l0 2.625q0 2.296875 -1.265625 3.515625l-0.6093712 -0.609375l-4.6875 0l0 0.421875l-0.796875 0l0 -10.265625l0.75 0q0.375 0.046875 0.046875 0.28125l0 3.75l5.156246 0l0 0.75l-5.156246 0l0 4.3125l5.0625 0q0.14062119 -0.234375 0.3749962 -0.609375l-0.5156212 0.1875l-0.140625 -0.421875l-1.828125 0.28125l0.09375 0.234375l-0.609375 0.140625l-0.140625 -0.46875l-1.59375 0.1875q-0.234375 0.28125 -0.28125 0l-0.140625 -0.609375l0.421875 -0.046875l0.46875 -0.75l-0.796875 -0.703125l0.9375 -1.5l0.515625 0.1875q0.328125 0.1875 -0.046875 0.234375l-0.609375 0.9375l0.328125 0.28125l0.65625 -1.03125l0.515625 0.1875q0.328125 0.1875 -0.046875 0.234375l-1.171875 1.921875l0.703125 -0.046875l-0.1875 -0.609375l0.609375 -0.140625l0.28125 0.75l0.1875 0l0.515625 -0.796875l-0.84375 -0.65625l0.796875 -1.453125l0.515625 0.140625q0.375 0.1875 0 0.234375l-0.609375 0.9375l0.375 0.328125l0.609375 -1.03125l0.515625 0.1875q0.3281212 0.1875 -0.046875 0.234375l-1.078125 1.828125l0.84375 -0.09375l-0.234375 -0.609375l0.609375 -0.1875l0.4687462 1.171875q0.140625 -0.515625 0.140625 -1.453125l0 -6.375l0.796875 0.1875q1.3125 -0.1875 2.390625 -0.5625l0.46875 0.5625q0.421875 0.375 -0.234375 0.28125q-1.03125 0.28125 -2.484375 0.46875l0 2.15625l3.1875 0l0 0.890625l-1.03125 0l0 6.0l-0.9375 0zm-3.1406212 -7.125l-1.734375 0.1875l0.046875 0.234375l-0.5625 0.140625l-0.140625 -0.46875l-1.59375 0.1875q-0.234375 0.28125 -0.28125 0l-0.140625 -0.609375l0.46875 -0.046875l0.421875 -0.703125l-0.84375 -0.65625l0.984375 -1.546875l0.515625 0.1875q0.328125 0.1875 -0.046875 0.234375l-0.65625 0.984375l0.328125 0.28125l0.703125 -1.078125l0.515625 0.1875q0.328125 0.1875 -0.046875 0.234375l-1.171875 1.875l0.75 -0.046875l-0.1875 -0.609375l0.5625 -0.140625l0.234375 0.75l0.234375 0l0.5625 -0.75l-0.84375 -0.5625l0.890625 -1.5l0.46875 0.140625q0.375 0.1875 0 0.234375l-0.65625 0.984375l0.375 0.28125l0.65625 -1.03125l0.515625 0.1875q0.3281212 0.1875 -0.046875 0.234375l-1.171875 1.78125l0.75 -0.046875l-0.234375 -0.609375l0.5625 -0.1875l0.5624962 1.453125l-0.6093712 0.234375l-0.140625 -0.421875z" fill-rule="nonzero"/><path fill="#000000" d="m69.15629 345.10925l3.296875 -8.59375l1.21875 0l3.515625 8.59375l-1.28125 0l-1.015625 -2.609375l-3.578125 0l-0.953125 2.609375l-1.203125 0zm2.484375 -3.53125l2.90625 0l-0.890625 -2.375q-0.421875 -1.078125 -0.609375 -1.78125q-0.171875 0.828125 -0.46875 1.640625l-0.9375 2.515625zm12.597656 0.515625l1.125 0.296875q-0.359375 1.390625 -1.28125 2.125q-0.921875 0.734375 -2.265625 0.734375q-1.390625 0 -2.265625 -0.5625q-0.875 -0.5625 -1.328125 -1.625q-0.453125 -1.078125 -0.453125 -2.3125q0 -1.34375 0.515625 -2.34375q0.515625 -1.0 1.453125 -1.515625q0.953125 -0.515625 2.09375 -0.515625q1.28125 0 2.15625 0.65625q0.890625 0.65625 1.234375 1.84375l-1.125 0.265625q-0.296875 -0.9375 -0.875 -1.359375q-0.5625 -0.4375 -1.421875 -0.4375q-0.984375 0 -1.65625 0.484375q-0.65625 0.46875 -0.9375 1.265625q-0.265625 0.796875 -0.265625 1.65625q0 1.09375 0.3125 1.90625q0.328125 0.8125 1.0 1.21875q0.671875 0.40625 1.46875 0.40625q0.953125 0 1.609375 -0.546875q0.671875 -0.546875 0.90625 -1.640625zm2.4785156 3.015625l0 -8.59375l1.140625 0l0 4.265625l4.265625 -4.265625l1.546875 0l-3.609375 3.484375l3.765625 5.109375l-1.5 0l-3.0625 -4.34375l-1.40625 1.359375l0 2.984375l-1.140625 0z" fill-rule="nonzero"/><path fill="#000000" d="m98.53324 341.87488l2.625 0l0 -2.484375l-2.625 0l0 2.484375zm2.625 1.359375l0 -0.46875l-2.625 0l0 0.515625l-0.9375 0l0 -4.78125l4.5 0l0 4.734375l-0.9375 0zm-5.109375 1.3125l7.546875 0l0 -7.640625l-7.546875 0l0 7.640625zm7.546875 1.3125l0 -0.421875l-7.546875 0l0 0.65625l-0.9375 0l0 -10.078125l9.421875 0l0 9.84375l-0.9375 0zm2.53125 -5.484375q1.828125 -2.203125 2.203125 -4.921875l0.890625 0.140625q0.46875 0.09375 0 0.421875q-0.328125 1.3125 -0.75 2.390625q0.515625 0.28125 0.140625 0.421875l0 7.40625l-0.9375 0l0 -6.28125q-0.46875 0.75 -0.890625 1.21875l-0.65625 -0.796875zm3.9375 0.84375l0 -3.609375l2.4375 0l0 -0.46875l-3.09375 0l0 -0.75l3.09375 0l0 -0.984375l0.890625 0q0.375 0.046875 0.046875 0.28125l0 0.703125l3.46875 0l0 0.75l-3.46875 0l0 0.46875l2.578125 0l0 3.421875l-0.703125 0q0.75 0.515625 1.546875 1.171875l-0.65625 0.46875l-0.5625 -0.46875l-0.65625 0.046875l0 0.84375l2.296875 0l0 0.75l-2.296875 0l0 1.5q0 0.84375 -0.703125 0.84375l-1.03125 0l-0.1875 -0.890625l0.84375 0q0.140625 0 0.140625 -0.140625l0 -1.3125l-2.671875 0q0.5625 0.46875 1.078125 1.171875l-0.796875 0.609375q-0.46875 -0.609375 -1.125 -1.21875l0.65625 -0.5625l-2.109375 0l0 -0.75l4.96875 0l0 -0.796875l-4.078125 0.1875q-0.328125 0.421875 -0.421875 -0.046875l-0.140625 -0.75l3.09375 0l0 -0.65625l-1.640625 0l0 0.1875l-0.796875 0zm3.375 -2.859375l0 0.5625l1.78125 0l0 -0.5625l-1.78125 0zm-2.578125 0l0 0.5625l1.640625 0l0 -0.5625l-1.640625 0zm2.578125 1.3125l0 0.609375l1.78125 0l0 -0.609375l-1.78125 0zm0 1.359375l0 0.609375l1.546875 0l-0.515625 -0.375l0.515625 -0.234375l-1.546875 0zm-0.9375 -1.359375l-1.640625 0l0 0.609375l1.640625 0l0 -0.609375z" fill-rule="nonzero"/></g></svg>