<svg version="1.1" viewBox="0.0 0.0 541.0367454068241 409.0551181102362" fill="none" stroke="none" stroke-linecap="square" stroke-miterlimit="10" xmlns:xlink="http://www.w3.org/1999/xlink" xmlns="http://www.w3.org/2000/svg"><clipPath id="p.0"><path d="m0 0l541.03674 0l0 409.0551l-541.03674 0l0 -409.0551z" clip-rule="nonzero"/></clipPath><g clip-path="url(#p.0)"><path fill="#000000" fill-opacity="0.0" d="m0 0l541.03674 0l0 409.0551l-541.03674 0z" fill-rule="evenodd"/><path fill="#f4cccc" d="m383.0433 347.17322l155.59055 0l0 58.204742l-155.59055 0z" fill-rule="evenodd"/><path fill="#000000" d="m437.68234 381.2581l8.3125 0l0 -0.890625l-8.3125 0l0 0.890625zm0 -1.78125l8.3125 0l0 -0.8125l-8.3125 0l0 0.8125zm7.28125 2.96875q1.109375 0.59375 4.96875 1.125l-0.671875 1.328125q-3.9375 -0.4375 -5.78125 -1.484375l0.890625 -0.96875l-5.34375 0l0.890625 0.96875q0.296875 0.453125 -0.53125 0.296875q-2.4375 0.828125 -5.046875 1.1875l-0.734375 -1.328125q3.265625 -0.453125 4.59375 -1.125l-2.0 0l0 -6.671875l11.28125 0l0 6.671875l-2.515625 0zm-7.28125 -4.671875l8.3125 0l0 -0.8125l-8.3125 0l0 0.8125zm0.375 -5.34375l2.96875 0l0 -0.734375l-2.96875 0l0 0.734375zm0 1.703125l2.96875 0l0 -0.8125l-2.96875 0l0 0.8125zm4.453125 0l3.046875 0l0 -0.8125l-3.046875 0l0 0.8125zm0 -1.703125l3.046875 0l0 -0.734375l-3.046875 0l0 0.734375zm5.5625 -0.8125l0 -1.640625l-12.546875 0l0 1.640625l-1.484375 0l0 -2.828125l6.828125 0l0 -1.1875l1.640625 0q0.734375 0.15625 0.078125 0.59375l0 0.59375l6.96875 0l0 2.828125l-1.484375 0zm-14.6875 1.703125l0 -0.890625l3.1875 0l0 -1.625l10.46875 0l0 1.625l3.265625 0l0 0.890625l-3.265625 0l0 1.703125l-10.46875 0l0 -0.890625l0 -0.8125l-3.1875 0zm26.71875 -0.140625l0 2.515625l-1.265625 0l0 -1.328125l-5.265625 0l0 1.40625l-1.265625 0l0 -2.59375l1.1875 0l0 -4.984375l5.421875 0l0 4.984375l1.1875 0zm-0.234375 3.78125l0 -1.1875l9.578125 0l0 1.1875l-9.578125 0zm5.203125 -6.90625l-1.109375 0l0 1.40625l1.109375 0l0 -1.40625zm-2.375 13.0625l-0.515625 -1.78125l-1.125 0l0 -3.484375l6.984375 0l0 3.484375l-1.1875 0l-0.59375 1.78125l3.1875 0l0 1.1875l-9.640625 0l0 -1.1875l2.890625 0zm1.1875 0l1.1875 0l0.515625 -1.78125l-2.15625 0l0.453125 1.78125zm-1.5625 -2.96875l4.453125 0l0 -1.109375l-4.453125 0l0 1.109375zm-7.5625 -6.96875l0.8125 0l0 -2.53125l2.078125 0l0 -1.265625l-2.890625 0l0 3.796875zm1.84375 -1.640625l0 1.640625l1.046875 0l0 -1.640625l-1.046875 0zm-1.703125 5.34375l0 1.109375l2.53125 0l0 -1.109375l-2.53125 0zm0 2.296875l0 1.1875l2.53125 0l0 -1.1875l-2.53125 0zm0 5.578125l-1.265625 0l0 -9.0625l5.046875 0l0 7.875q0 1.1875 -0.953125 1.1875l-1.046875 0l-0.296875 -1.1875l0.75 0q0.296875 0 0.296875 -0.296875l0 -1.71875l-2.53125 0l0 3.203125zm10.171875 -17.078125l0.96875 0q0.59375 0.078125 0.0625 0.515625l0 0.96875l2.375 0l0 5.5l-7.9375 0l0 -5.5l2.375 0l0 -1.484375l0.96875 0q0.59375 0.078125 0.078125 0.515625l0 0.96875l1.109375 0l0 -1.484375zm-2.15625 2.375l-1.109375 0l0 1.40625l1.109375 0l0 -1.40625zm0 2.296875l-1.109375 0l0 1.421875l1.109375 0l0 -1.421875zm2.15625 0l-1.109375 0l0 1.421875l1.109375 0l0 -1.421875zm1.03125 0l0 1.421875l1.125 0l0 -1.421875l-1.125 0zm1.125 -2.296875l-1.125 0l0 1.40625l1.125 0l0 -1.40625zm11.796875 1.859375l0.890625 1.5625l2.96875 0l0.59375 -1.640625l-9.0625 0l0 6.75q0 3.421875 -1.703125 6.25l-1.265625 -1.125q1.484375 -2.296875 1.484375 -5.5625l0 -9.875l14.109375 0l0 3.5625l-3.046875 0l0.96875 0.453125q0.296875 0.296875 -0.21875 0.359375l-0.453125 0.828125l3.125 0l0 4.8125l-11.875 0l0 -4.8125l2.8125 0l-0.671875 -0.890625l1.34375 -0.671875zm6.90625 5.484375l0 -1.109375l-3.71875 0l0 1.109375l3.71875 0zm-8.90625 0l3.703125 0l0 -1.109375l-3.703125 0l0 1.109375zm1.484375 7.5l-1.484375 0l0 -5.71875l9.125 0l0 5.5l-1.484375 0l0 -0.671875l-6.15625 0l0 0.890625zm6.15625 -1.78125l0 -1.109375l-6.15625 0l0 1.109375l6.15625 0zm-10.25 -12.46875l11.140625 0l0 -1.1875l-11.140625 0l0 1.1875zm2.609375 4.75l3.703125 0l0 -1.03125l-3.703125 0l0 1.03125zm5.1875 0l3.71875 0l0 -1.03125l-3.71875 0l0 1.03125zm-3.703125 5.71875l6.15625 0l0 -1.046875l-6.15625 0l0 1.046875z" fill-rule="nonzero"/><path fill="#fce5cd" d="m383.0433 288.9685l155.59055 0l0 58.204712l-155.59055 0z" fill-rule="evenodd"/><path fill="#000000" d="m424.7761 313.70963q-0.828125 2.078125 -4.234375 2.890625l7.5 0l0 6.90625l-10.546875 0l0 -6.90625l2.671875 0l-0.734375 -1.265625q4.078125 -0.59375 4.21875 -3.265625l-1.25 0q-0.828125 1.265625 -1.78125 2.015625l-1.046875 -0.828125q1.703125 -1.546875 2.75 -3.859375l1.265625 0.453125q0.296875 0.296875 -0.234375 0.375l-0.296875 0.65625l5.9375 0l0.234375 -0.21875l1.1875 0.8125l-0.375 0.296875q-0.515625 0.890625 -1.859375 2.234375l-1.109375 -0.75q0.59375 -0.515625 1.109375 -1.1875l-3.109375 0q1.25 2.453125 6.0 3.34375l-0.59375 1.40625q-4.078125 -0.734375 -5.703125 -3.109375zm5.1875 12.84375q-3.40625 -0.515625 -5.71875 -1.9375l1.125 -1.03125q2.375 1.1875 5.046875 1.484375l-0.453125 1.484375zm-15.0625 -1.265625q3.1875 -0.453125 5.265625 -1.703125l1.109375 1.03125q0.296875 0.53125 -0.4375 0.296875q-2.375 1.1875 -5.421875 1.78125l-0.515625 -1.40625zm11.65625 -6.6875l0 -1.109375l-7.578125 0l0 1.109375l7.578125 0zm-9.953125 -8.609375q1.109375 0.53125 2.453125 1.265625l-0.96875 1.265625q-0.96875 -0.59375 -2.453125 -1.265625l0.96875 -1.265625zm-0.671875 6.53125q-0.140625 0.75 -0.515625 0.078125l-0.8125 -1.265625q2.21875 -0.8125 4.0 -1.921875l0.75 1.109375q-1.78125 1.1875 -3.421875 2.0zm10.625 4.09375l0 -1.125l-7.578125 0l0 1.125l7.578125 0zm0 2.0l0 -1.109375l-7.578125 0l0 1.109375l7.578125 0zm6.671875 0.21875q3.125 -2.453125 3.9375 -5.125l-3.421875 0l0 -1.40625l3.421875 0l0 -6.609375l1.40625 0q0.59375 0.078125 0.078125 0.453125l0 6.15625l3.046875 0l0 1.40625l-3.046875 0l0 0.96875q1.859375 1.109375 3.046875 2.453125l-0.890625 1.484375q-1.1875 -1.40625 -2.15625 -2.15625l0 6.171875l-1.484375 0l0 -5.71875q-0.96875 1.78125 -2.96875 3.40625l-0.96875 -1.484375zm6.015625 -7.71875q0.734375 -1.625 1.40625 -4.0l1.5625 0.515625q0.375 0.296875 -0.15625 0.296875q-0.734375 2.21875 -1.40625 3.78125l-1.40625 -0.59375zm-4.078125 -3.5625q1.03125 1.78125 1.40625 3.421875l-1.484375 0.59375q-0.375 -1.484375 -1.34375 -3.421875l1.421875 -0.59375zm12.828125 -1.625q0.59375 0.0625 0.078125 0.4375l0 9.421875l2.0 -0.515625l0.453125 1.5625l-2.453125 0.515625l0 5.28125l-1.484375 0l0 -4.90625l-4.0 0.890625l-0.375 -1.5625l4.375 -0.890625l0 -10.234375l1.40625 0zm-4.21875 2.140625q1.40625 0.890625 2.21875 1.78125l-1.03125 1.34375q-0.671875 -0.671875 -2.15625 -1.859375l0.96875 -1.265625zm-0.234375 4.09375q1.125 0.65625 2.234375 1.78125l-1.046875 1.328125q-0.890625 -0.96875 -2.140625 -1.859375l0.953125 -1.25zm25.90625 8.609375l-0.296875 1.40625l-8.75 0q-2.96875 0 -4.75 -2.078125l-2.375 2.375l-1.125 -1.5625l2.75 -1.703125l0 -4.609375l-2.375 0l0 -1.40625l3.859375 0l0 5.9375q1.703125 1.640625 4.453125 1.640625l8.609375 0zm-7.203125 -7.28125l-2.59375 0l0 1.40625l2.59375 0l0 -1.40625zm1.484375 2.59375l0 1.125l5.28125 0l0 1.40625l-5.28125 0l0 1.5625l-1.484375 0l0 -1.5625l-5.046875 0l0 -1.40625l5.046875 0l0 -1.125l-1.921875 0l-1.9375 0l0 -6.296875l3.859375 0l0 -1.1875l-4.890625 0l0 -1.421875l4.890625 0l0 -1.625l1.421875 0q0.59375 0.078125 0.0625 0.4375l0 1.1875l4.90625 0l0 1.421875l-4.90625 0l0 1.1875l4.015625 0l0 6.296875l-4.015625 0zm2.75 -5.109375l-2.75 0l0 1.328125l2.75 0l0 -1.328125zm0 2.515625l-2.75 0l0 1.40625l2.75 0l0 -1.40625zm-4.234375 -2.515625l-2.59375 0l0 1.328125l2.59375 0l0 -1.328125zm-8.078125 -4.53125q1.546875 0.96875 2.59375 2.515625l-1.265625 1.265625q-1.109375 -1.484375 -2.453125 -2.515625l1.125 -1.265625zm19.4375 9.796875q0.515625 0.140625 0 0.4375q0 2.53125 -0.671875 4.46875l-1.484375 -0.671875q0.671875 -2.15625 0.59375 -4.390625l1.5625 0.15625zm4.15625 -2.078125l-1.78125 0.21875l0 8.25l-1.484375 0l0 -8.03125l-2.75 0.234375q-0.0625 0.515625 -0.359375 0.21875l-0.296875 -1.703125l1.703125 0q0.59375 -0.59375 1.109375 -1.265625q-1.265625 -1.046875 -2.59375 -1.859375l0.734375 -1.1875l0.59375 0.296875q1.421875 -2.078125 2.234375 -3.78125l1.40625 0.8125q0.296875 0.296875 -0.296875 0.375q-0.734375 1.484375 -2.21875 3.34375l1.03125 0.8125q1.1875 -1.703125 2.078125 -3.34375l1.265625 0.75q0.4375 0.296875 -0.15625 0.359375q-1.03125 1.859375 -3.484375 4.609375l2.828125 -0.15625q-0.375 -0.734375 -0.890625 -1.40625l1.25 -0.515625q1.125 1.03125 2.015625 3.34375l-1.484375 0.65625l-0.453125 -1.03125zm-0.21875 5.859375q-0.296875 -2.296875 -0.890625 -3.859375l1.328125 -0.4375q0.828125 1.40625 1.125 3.859375l-1.5625 0.4375zm8.53125 0.078125l0 -3.484375l-4.453125 0l0 3.484375l4.453125 0zm-4.453125 1.40625l0 1.046875l-1.484375 0l0 -7.359375l7.421875 0l0 7.140625l-1.484375 0l0 -0.828125l-4.453125 0zm2.828125 -9.421875l3.40625 0l0 1.40625l-8.15625 0l0 -1.40625l3.265625 0l0 -2.296875l-3.859375 0l0 -1.421875l3.859375 0l0 -2.671875l1.40625 0q0.59375 0.078125 0.078125 0.453125l0 2.21875l3.921875 0l0 1.421875l-3.921875 0l0 2.296875zm13.578125 -2.375l0.890625 1.5625l2.96875 0l0.59375 -1.640625l-9.0625 0l0 6.75q0 3.421875 -1.703125 6.25l-1.265625 -1.125q1.484375 -2.296875 1.484375 -5.5625l0 -9.875l14.109375 0l0 3.5625l-3.046875 0l0.96875 0.453125q0.296875 0.296875 -0.21875 0.359375l-0.453125 0.828125l3.125 0l0 4.8125l-11.875 0l0 -4.8125l2.8125 0l-0.671875 -0.890625l1.34375 -0.671875zm6.90625 5.484375l0 -1.109375l-3.71875 0l0 1.109375l3.71875 0zm-8.90625 0l3.703125 0l0 -1.109375l-3.703125 0l0 1.109375zm1.484375 7.5l-1.484375 0l0 -5.71875l9.125 0l0 5.5l-1.484375 0l0 -0.671875l-6.15625 0l0 0.890625zm6.15625 -1.78125l0 -1.109375l-6.15625 0l0 1.109375l6.15625 0zm-10.25 -12.46875l11.140625 0l0 -1.1875l-11.140625 0l0 1.1875zm2.609375 4.75l3.703125 0l0 -1.03125l-3.703125 0l0 1.03125zm5.1875 0l3.71875 0l0 -1.03125l-3.71875 0l0 1.03125zm-3.703125 5.71875l6.15625 0l0 -1.046875l-6.15625 0l0 1.046875z" fill-rule="nonzero"/><path fill="#fff2cc" d="m383.0433 230.76378l155.59055 0l0 58.204727l-155.59055 0z" fill-rule="evenodd"/><path fill="#000000" d="m433.22922 265.97363q0.59375 -1.71875 0.890625 -4.09375l1.34375 0.296875q0.21875 0.234375 -0.15625 0.453125q-0.296875 2.296875 -0.8125 3.9375l-1.265625 -0.59375zm2.890625 -6.609375l2.3125 -0.15625l-0.59375 -1.25l1.109375 -0.53125q0.734375 1.1875 1.328125 2.828125l0 -8.17186l9.4375 0l0 14.999985q0 1.109375 -0.96875 1.109375l-1.40625 0l-0.296875 -1.1875l1.1875 0q0.21875 0 0.21875 -0.21875l0 -5.5l-4.078125 0l0 2.078125q0 0.453125 0.4375 0.453125l2.59375 0l0 1.1875l-2.96875 0q-1.328125 0 -1.328125 -1.34375l0 -2.375l-1.5625 0l0 7.140625l-1.265625 0l0 -7.796875l-1.109375 0.515625l-0.296875 -0.75l-1.40625 0.15625l0 7.796875l-1.265625 0l0 -7.65625l-2.375 0.234375q-0.21875 0.65625 -0.375 0.21875l-0.21875 -1.703125l1.265625 0l1.265625 -1.71875q-1.265625 -1.40625 -2.453125 -2.4374847l0.890625 -0.96875l0.671875 0.671875l1.78125 -3.5l1.25 0.75q0.375 0.296875 -0.296875 0.375l-1.84375 3.265625l0.734375 0.73435974l1.859375 -2.9687347l1.1875 0.8125q0.375 0.296875 -0.296875 0.375l-3.125 4.5312347zm9.28125 -2.15625l1.046875 -3.2656097l1.40625 0.375q0.515625 0.140625 -0.21875 0.375l-1.125 2.5156097l1.9375 0l0 -3.9374847l-6.90625 0l0 3.9374847l3.859375 0zm-6.234375 4.53125q0.671875 1.5625 0.890625 3.5625l-1.265625 0.515625q-0.21875 -2.078125 -0.734375 -3.703125l1.109375 -0.375zm4.453125 -7.7187347q0.671875 0.8125 1.265625 2.2968597l-1.1875 0.515625q-0.515625 -1.4843597 -1.1875 -2.3749847l1.109375 -0.4375zm-2.078125 6.0781097l2.828125 0l0 -1.703125l-2.828125 0l0 1.703125zm6.90625 0l0 -1.703125l-2.828125 0l0 1.703125l2.828125 0zm17.953125 6.015625l0 -3.34375l-3.703125 0l0 3.34375l3.703125 0zm1.484375 2.015625l-1.484375 0l0 -0.828125l-3.703125 0l0 1.046875l-1.484375 0l0 -6.765625l6.671875 0l0 6.546875zm-5.265625 -13.812485q0.375 1.03125 1.859375 2.6718597q1.328125 -1.7812347 1.703125 -2.6718597l-3.5625 0zm1.859375 4.7499847q-2.59375 2.375 -4.828125 3.1875l-0.671875 -1.484375q2.078125 -0.671875 4.53125 -2.8125q-0.59375 -0.59375 -1.5625 -2.1562347q-0.734375 1.7031097 -1.484375 2.4531097l-1.109375 -1.125q1.78125 -2.3749847 2.75 -5.9374847l1.5625 0.453125q0.296875 0.296875 -0.234375 0.375l-0.359375 0.890625l3.78125 0l0.21875 -0.375l1.1875 0.96875q0.296875 0.21875 -0.296875 0.4375q-1.03125 2.3749847 -2.453125 4.0156097q2.53125 1.921875 4.3125 2.515625l-0.59375 1.640625q-1.78125 -0.59375 -4.75 -3.046875zm-5.421875 -6.6874847l0 5.4999847l-1.859375 0l0 2.75l1.71875 0l0 1.40625l-1.71875 0l0 3.40625l2.609375 -0.8125l0.296875 1.34375l-6.828125 1.921875q-0.078125 0.59375 -0.375 0.296875l-0.59375 -1.625l0.890625 -0.15625l0 -6.90625l1.40625 0q0.59375 0.078125 0.078125 0.453125l0 6.078125l1.03125 -0.21875l0 -7.9375l-1.328125 0l-1.265625 0l0 -5.4999847l5.9375 0zm-1.484375 4.3124847l0 -3.1249847l-2.96875 0l0 3.1249847l2.96875 0zm21.453125 -1.1874847l0.890625 1.5624847l2.96875 0l0.59375 -1.6406097l-9.0625 0l0 6.7499847q0 3.421875 -1.703125 6.25l-1.265625 -1.125q1.484375 -2.296875 1.484375 -5.5625l0 -9.874985l14.109375 0l0 3.5625l-3.046875 0l0.96875 0.453125q0.296875 0.29685974 -0.21875 0.35935974l-0.453125 0.828125l3.125 0l0 4.8125l-11.875 0l0 -4.8125l2.8125 0l-0.671875 -0.890625l1.34375 -0.67185974zm6.90625 5.4843597l0 -1.109375l-3.71875 0l0 1.109375l3.71875 0zm-8.90625 0l3.703125 0l0 -1.109375l-3.703125 0l0 1.109375zm1.484375 7.5l-1.484375 0l0 -5.71875l9.125 0l0 5.5l-1.484375 0l0 -0.671875l-6.15625 0l0 0.890625zm6.15625 -1.78125l0 -1.109375l-6.15625 0l0 1.109375l6.15625 0zm-10.25 -12.468735l11.140625 0l0 -1.1875l-11.140625 0l0 1.1875zm2.609375 4.7499847l3.703125 0l0 -1.03125l-3.703125 0l0 1.03125zm5.1875 0l3.71875 0l0 -1.03125l-3.71875 0l0 1.03125zm-3.703125 5.71875l6.15625 0l0 -1.046875l-6.15625 0l0 1.046875z" fill-rule="nonzero"/><path fill="#d9ead3" d="m383.0433 172.55905l155.59055 0l0 58.204727l-155.59055 0z" fill-rule="evenodd"/><path fill="#000000" d="m432.79172 201.08142q2.890625 -3.484375 3.484375 -7.796875l1.40625 0.234375q0.75 0.140625 0 0.65625q-0.515625 2.078125 -1.1875 3.796875q0.8125 0.4375 0.21875 0.65625l0 11.734375l-1.484375 0l0 -9.953125q-0.734375 1.1875 -1.40625 1.9375l-1.03125 -1.265625zm6.234375 1.34375l0 -5.71875l3.859375 0l0 -0.75l-4.90625 0l0 -1.1875l4.90625 0l0 -1.546875l1.40625 0q0.59375 0.0625 0.078125 0.4375l0 1.109375l5.484375 0l0 1.1875l-5.484375 0l0 0.75l4.078125 0l0 5.421875l-1.109375 0q1.1875 0.8125 2.4375 1.84375l-1.03125 0.75l-0.890625 -0.75l-1.046875 0.078125l0 1.34375l3.640625 0l0 1.1875l-3.640625 0l0 2.375q0 1.328125 -1.109375 1.328125l-1.625 0l-0.296875 -1.40625l1.328125 0q0.21875 0 0.21875 -0.21875l0 -2.078125l-4.21875 0q0.890625 0.734375 1.703125 1.84375l-1.265625 0.96875q-0.734375 -0.96875 -1.78125 -1.921875l1.046875 -0.890625l-3.34375 0l0 -1.1875l7.859375 0l0 -1.265625l-6.453125 0.296875q-0.515625 0.671875 -0.671875 -0.078125l-0.21875 -1.1875l4.90625 0l0 -1.03125l-2.609375 0l0 0.296875l-1.25 0zm5.34375 -4.53125l0 0.890625l2.8125 0l0 -0.890625l-2.8125 0zm-4.09375 0l0 0.890625l2.609375 0l0 -0.890625l-2.609375 0zm4.09375 2.078125l0 0.96875l2.8125 0l0 -0.96875l-2.8125 0zm0 2.15625l0 0.953125l2.4375 0l-0.8125 -0.59375l0.8125 -0.359375l-2.4375 0zm-1.484375 -2.15625l-2.609375 0l0 0.96875l2.609375 0l0 -0.96875zm16.25 -1.859375q3.109375 -2.296875 4.296875 -5.1875l1.5625 0.296875q0.296875 0.296875 -0.21875 0.359375l0 0.15625q1.859375 2.21875 4.890625 4.078125l-0.953125 1.265625q-1.125 -0.59375 -2.078125 -1.484375l0 1.265625l-4.90625 0l0 -1.125q-0.8125 0.890625 -1.703125 1.484375l-0.890625 -1.109375zm-2.75 2.375l1.1875 0l0 -1.484375l-1.1875 0l0 1.484375zm2.890625 5.421875l0 1.1875l-2.890625 0l0 3.34375l-1.265625 0l0 -3.34375l-2.8125 0l0 -1.1875l2.8125 0l0 -1.5625l-1.25 0l-1.1875 0l0 -6.53125l2.4375 0l0 -1.40625l-2.8125 0l0 -1.1875l2.8125 0l0 -1.9375l1.1875 0q0.59375 0.078125 0.078125 0.453125l0 1.484375l2.59375 0l0 1.1875l-2.59375 0l0 1.40625l2.453125 0l0 6.53125l-2.453125 0l0 1.5625l2.890625 0zm-1.703125 -4.234375l-1.1875 0l0 1.484375l1.1875 0l0 -1.484375zm-2.453125 0l-1.1875 0l0 1.484375l1.1875 0l0 -1.484375zm-1.1875 -2.671875l0 1.484375l1.1875 0l0 -1.484375l-1.1875 0zm12.546875 -1.5625q-1.328125 -1.03125 -2.453125 -2.59375q-0.953125 1.640625 -2.0 2.59375l4.453125 0zm-1.5625 10.171875l0 -7.203125l1.1875 0q0.59375 0.078125 0.078125 0.453125l0 6.75l-1.265625 0zm3.640625 -8.09375q0.59375 0.078125 0.078125 0.453125l0 8.984375q0 1.109375 -0.8125 1.109375l-1.5625 0l-0.21875 -1.1875l1.03125 0q0.296875 0 0.296875 -0.296875l0 -9.0625l1.1875 0zm-7.421875 6.90625l0 3.859375l-1.265625 0l0 -10.390625l4.3125 0l0 9.203125q0 1.125 -0.8125 1.125l-1.265625 0l-0.21875 -1.1875l0.734375 0q0.296875 0 0.296875 -0.296875l0 -2.3125l-1.78125 0zm0 -3.78125l1.78125 0l0 -1.5625l-1.78125 0l0 1.5625zm0 2.59375l1.78125 0l0 -1.40625l-1.78125 0l0 1.40625zm17.890625 -7.9375l0.890625 1.5625l2.96875 0l0.59375 -1.640625l-9.0625 0l0 6.75q0 3.421875 -1.703125 6.25l-1.265625 -1.125q1.484375 -2.296875 1.484375 -5.5625l0 -9.875l14.109375 0l0 3.5625l-3.046875 0l0.96875 0.453125q0.296875 0.296875 -0.21875 0.359375l-0.453125 0.828125l3.125 0l0 4.8125l-11.875 0l0 -4.8125l2.8125 0l-0.671875 -0.890625l1.34375 -0.671875zm6.90625 5.484375l0 -1.109375l-3.71875 0l0 1.109375l3.71875 0zm-8.90625 0l3.703125 0l0 -1.109375l-3.703125 0l0 1.109375zm1.484375 7.5l-1.484375 0l0 -5.71875l9.125 0l0 5.5l-1.484375 0l0 -0.671875l-6.15625 0l0 0.890625zm6.15625 -1.78125l0 -1.109375l-6.15625 0l0 1.109375l6.15625 0zm-10.25 -12.46875l11.140625 0l0 -1.1875l-11.140625 0l0 1.1875zm2.609375 4.75l3.703125 0l0 -1.03125l-3.703125 0l0 1.03125zm5.1875 0l3.71875 0l0 -1.03125l-3.71875 0l0 1.03125zm-3.703125 5.71875l6.15625 0l0 -1.046875l-6.15625 0l0 1.046875z" fill-rule="nonzero"/><path fill="#cfe2f3" d="m383.0433 117.15748l155.59055 0l0 58.20472l-155.59055 0z" fill-rule="evenodd"/><path fill="#000000" d="m445.18234 142.33609l-6.609375 0l0 -1.109375q-2.078125 1.34375 -4.828125 2.234375l-0.65625 -1.1875q5.265625 -1.9375 8.078125 -4.6875l1.34375 0.234375q0.671875 0.140625 0 0.4375q3.265625 2.234375 7.9375 3.421875l-0.4375 1.40625q-2.078125 -0.453125 -4.828125 -1.78125l0 1.03125zm-9.953125 0.75l13.359375 0l0 4.53125l-13.359375 0l0 -4.53125zm6.53125 -4.15625q-1.625 1.328125 -2.96875 2.21875l6.09375 0q-1.5625 -0.734375 -3.125 -2.21875zm2.078125 6.96875q0.53125 -0.8125 0.96875 -1.625l-2.21875 0l0 2.15625l2.078125 0l-0.828125 -0.53125zm-5.109375 -1.625q0.8125 0.671875 1.328125 1.5625l-0.8125 0.59375l1.859375 0l0 -2.15625l-2.375 0zm7.34375 6.453125l0 -1.1875l-8.390625 0l0 1.1875l8.390625 0zm1.484375 4.15625l-1.484375 0l0 -0.515625l-8.390625 0l0 0.59375l-1.484375 0l0 -6.609375l11.359375 0l0 6.53125zm-1.484375 -1.703125l0 -1.265625l-8.390625 0l0 1.265625l8.390625 0zm-7.28125 -6.75q-0.4375 -0.671875 -1.109375 -1.421875l0.890625 -0.734375l-1.859375 0l0 2.15625l2.078125 0zm8.3125 0l0 -2.15625l-2.078125 0l0.828125 0.375q0.515625 0.296875 -0.078125 0.4375q-0.453125 0.671875 -0.890625 1.34375l2.21875 0zm9.140625 8.09375l0 -0.453125l-2.3125 0l0 0.75l-1.25 0l0 -6.015625l4.8125 0l0 5.71875l-1.25 0zm11.125 -1.640625q0.8125 0.890625 1.046875 -0.890625l1.1875 0.4375q-0.53125 2.984375 -2.234375 2.09375q-0.8125 -0.453125 -1.484375 -1.421875q-1.109375 0.96875 -2.8125 1.5625l-0.671875 -1.265625q1.625 -0.59375 2.8125 -1.484375q-0.4375 -1.109375 -0.59375 -2.75l-2.515625 0l0 1.125l1.921875 -0.296875l0 1.1875l-1.921875 0.359375l0 2.015625q0 1.109375 -0.8125 1.109375l-1.484375 0l-0.234375 -1.1875l0.96875 0q0.296875 0 0.296875 -0.296875l0 -1.40625l-2.078125 0.296875q-0.078125 0.515625 -0.375 0.21875l-0.21875 -1.5625l2.671875 -0.296875l0 -1.265625l-2.671875 0l0 -1.1875l2.671875 0l0 -0.8125l-2.21875 0.078125l-0.234375 -1.046875q2.15625 0 4.90625 -0.59375l0.671875 1.046875q0.0625 0.4375 -0.453125 0.078125q-0.59375 0.140625 -1.40625 0.21875l0 1.03125l2.375 0l-0.15625 -2.21875l1.265625 0.140625q0.59375 0.078125 0.078125 0.453125l0.078125 1.625l3.484375 0l0 1.1875l-3.34375 0q0.15625 1.125 0.375 1.859375q0.59375 -0.671875 1.265625 -1.703125l0.890625 0.734375q0.359375 0.296875 -0.15625 0.375q-0.515625 0.8125 -1.40625 1.78125q0.21875 0.453125 0.515625 0.671875zm0.15625 -5.125q-0.234375 -0.296875 -1.34375 -1.1875l0.96875 -0.96875q0.8125 0.59375 1.328125 1.1875l-0.953125 0.96875zm1.84375 -3.703125l0 1.1875l-11.203125 0l0 -1.1875l4.90625 0l0 -0.96875l-3.5625 0l0 -1.1875l3.5625 0l0 -0.890625l-4.3125 0l0 -1.1875l2.59375 0q-0.4375 -0.59375 -0.953125 -1.109375l1.25 -0.828125q0.828125 0.828125 1.265625 1.421875l-0.734375 0.515625l2.515625 0l0.8125 -2.078125l1.640625 0.4375q0.296875 0.296875 -0.21875 0.375l-0.75 1.265625l2.671875 0l0 1.1875l-4.53125 0l0 0.890625l3.5625 0l0 1.1875l-3.5625 0l0 0.96875l5.046875 0zm-16.25 -4.390625l0 -1.40625l4.234375 0l0 1.40625l-4.234375 0zm4.96875 2.609375l-5.703125 0l0 -1.421875l5.703125 0l0 1.421875zm-0.734375 2.59375l-4.234375 0l0 -1.40625l4.234375 0l0 1.40625zm0 2.671875l-4.234375 0l0 -1.40625l4.234375 0l0 1.40625zm-3.421875 2.453125l0 2.890625l2.3125 0l0 -2.890625l-2.3125 0zm25.09375 -8.09375l0.890625 1.5625l2.96875 0l0.59375 -1.640625l-9.0625 0l0 6.75q0 3.421875 -1.703125 6.25l-1.265625 -1.125q1.484375 -2.296875 1.484375 -5.5625l0 -9.875l14.109375 0l0 3.5625l-3.046875 0l0.96875 0.453125q0.296875 0.296875 -0.21875 0.359375l-0.453125 0.828125l3.125 0l0 4.8125l-11.875 0l0 -4.8125l2.8125 0l-0.671875 -0.890625l1.34375 -0.671875zm6.90625 5.484375l0 -1.109375l-3.71875 0l0 1.109375l3.71875 0zm-8.90625 0l3.703125 0l0 -1.109375l-3.703125 0l0 1.109375zm1.484375 7.5l-1.484375 0l0 -5.71875l9.125 0l0 5.5l-1.484375 0l0 -0.671875l-6.15625 0l0 0.890625zm6.15625 -1.78125l0 -1.109375l-6.15625 0l0 1.109375l6.15625 0zm-10.25 -12.46875l11.140625 0l0 -1.1875l-11.140625 0l0 1.1875zm2.609375 4.75l3.703125 0l0 -1.03125l-3.703125 0l0 1.03125zm5.1875 0l3.71875 0l0 -1.03125l-3.71875 0l0 1.03125zm-3.703125 5.71875l6.15625 0l0 -1.046875l-6.15625 0l0 1.046875z" fill-rule="nonzero"/><path fill="#d9d2e9" d="m383.0433 58.952755l155.59055 0l0 58.204723l-155.59055 0z" fill-rule="evenodd"/><path fill="#000000" d="m437.4636 86.209496l0 0.59375l-1.484375 0l0 -6.234375l11.71875 0l0 6.171875l-1.484375 0l0 -0.53125l-8.75 0zm8.75 -1.40625l0 -2.8125l-8.75 0l0 2.8125l8.75 0zm-3.5625 4.53125l0 1.703125l5.34375 0l0 1.40625l-5.34375 0l0 1.859375l7.71875 0l0 1.421875l-17.0625 0l0 -1.421875l7.859375 0l0 -1.859375l-5.484375 0l0 -1.40625l5.484375 0l0 -1.703125l-6.453125 0l0 -1.40625l14.171875 0l0 1.40625l-6.234375 0zm9.578125 2.96875q1.703125 -0.296875 2.828125 -0.515625l0 -4.015625l-2.3125 0l0 -1.40625l2.3125 0l0 -3.9375l-2.671875 0l0 -1.40625l6.59375 0l0 1.40625l-2.4375 0l0 3.9375l2.078125 0l0 1.40625l-2.078125 0l0 3.71875l2.375 -0.671875l0.359375 1.265625q-3.1875 1.03125 -6.078125 1.78125q-0.21875 0.515625 -0.453125 0.21875l-0.515625 -1.78125zm14.546875 -8.984375l0 -1.78125l-5.640625 0l0 1.78125l5.640625 0zm0 2.96875l0 -1.78125l-5.640625 0l0 1.78125l5.640625 0zm0 2.96875l0 -1.78125l-5.640625 0l0 1.78125l5.640625 0zm-2.15625 1.1875l-1.40625 0l0 0.75q0 4.53125 -6.96875 5.34375l-0.53125 -1.640625q6.015625 -0.515625 6.015625 -3.78125l0 -0.671875l-1.03125 0l-1.046875 0l0 -10.09375l8.609375 0l0 10.09375l-2.15625 0l0 3.9375q0 0.59375 0.53125 0.59375l0.515625 0q0.4375 0 0.59375 -0.453125q0.140625 -0.4375 0.296875 -1.78125l1.5625 0.453125q-0.15625 1.03125 -0.296875 1.625q-0.375 1.5625 -1.484375 1.5625l-1.9375 0q-1.265625 0 -1.265625 -1.25l0 -4.6875zm14.40625 -6.75l0.890625 1.5625l2.96875 0l0.59375 -1.640625l-9.0625 0l0 6.75q0 3.421875 -1.703125 6.25l-1.265625 -1.125q1.484375 -2.296875 1.484375 -5.5625l0 -9.875l14.109375 0l0 3.5625l-3.046875 0l0.96875 0.453125q0.296875 0.296875 -0.21875 0.359375l-0.453125 0.828125l3.125 0l0 4.8125l-11.875 0l0 -4.8125l2.8125 0l-0.671875 -0.890625l1.34375 -0.671875zm6.90625 5.484375l0 -1.109375l-3.71875 0l0 1.109375l3.71875 0zm-8.90625 0l3.703125 0l0 -1.109375l-3.703125 0l0 1.109375zm1.484375 7.5l-1.484375 0l0 -5.71875l9.125 0l0 5.5l-1.484375 0l0 -0.671875l-6.15625 0l0 0.890625zm6.15625 -1.78125l0 -1.109375l-6.15625 0l0 1.109375l6.15625 0zm-10.25 -12.46875l11.140625 0l0 -1.1875l-11.140625 0l0 1.1875zm2.609375 4.75l3.703125 0l0 -1.03125l-3.703125 0l0 1.03125zm5.1875 0l3.71875 0l0 -1.03125l-3.71875 0l0 1.03125zm-3.703125 5.71875l6.15625 0l0 -1.046875l-6.15625 0l0 1.046875z" fill-rule="nonzero"/><path fill="#e6b8af" d="m383.0433 3.551181l155.59055 0l0 58.204723l-155.59055 0z" fill-rule="evenodd"/><path fill="#000000" d="m440.80734 41.05792q-1.421875 0 -1.421875 -1.40625l0 -2.75l1.421875 0q0.59375 0.078125 0.0625 0.4375l0 1.78125q0 0.53125 0.671875 0.53125l3.421875 0q0.4375 0 0.515625 -0.375l0.140625 -0.59375l1.421875 0.21875l-0.234375 0.96875q-0.296875 1.1875 -1.40625 1.1875l-4.59375 0zm-4.828125 -5.5625q0 3.109375 -2.078125 5.9375l-1.046875 -1.265625q1.640625 -2.453125 1.640625 -4.96875l0 -9.5l6.53125 0l0 -1.421875l1.40625 0q0.59375 0.078125 0.078125 0.453125l0 0.96875l7.421875 0l0 1.40625l-13.953125 0l0 4.53125q1.859375 -1.859375 3.1875 -4.390625l1.109375 0.53125q0.59375 0.296875 -0.0625 0.359375q-0.59375 1.046875 -1.125 1.78125q0.59375 0.234375 -0.0625 0.453125l0 6.078125l-1.265625 0l0 -4.8125q-0.59375 0.734375 -1.1875 1.25l-0.59375 -0.953125l0 3.5625zm7.640625 -8.015625q0.59375 0.296875 0 0.4375l-0.59375 0.96875l1.703125 0l0.828125 -1.703125l1.03125 0.359375q0.59375 0.296875 0 0.453125l-0.59375 0.890625l3.71875 0l0 1.1875l-3.640625 0l0 0.96875l2.8125 0l0 0.890625l-2.8125 0l0 0.953125l2.8125 0l0 0.890625l-2.8125 0l0 1.046875l4.078125 0l0 1.1875l-7.5 0l0 0.375l-1.25 0l0 -5.28125q-0.53125 0.671875 -1.1875 1.1875l-0.96875 -0.953125q2.15625 -1.71875 3.265625 -4.09375l1.109375 0.234375zm1.1875 7.34375l0 -1.046875l-2.15625 0l0 1.046875l2.15625 0zm0 -3.78125l0 -0.96875l-2.15625 0l0 0.96875l2.15625 0zm0 1.84375l0 -0.953125l-2.15625 0l0 0.953125l2.15625 0zm-1.625 3.71875q0.734375 0.734375 1.484375 1.78125l-1.265625 0.671875q-0.671875 -0.96875 -1.40625 -1.859375l1.1875 -0.59375zm6.0 4.15625q-1.03125 -1.484375 -2.671875 -3.125l1.046875 -0.890625q1.703125 1.484375 2.8125 3.046875l-1.1875 0.96875zm-10.6875 -2.96875q-0.4375 1.625 -1.328125 3.1875l-1.484375 -0.59375q1.109375 -1.625 1.484375 -3.34375l1.40625 0.296875q0.59375 0.234375 -0.078125 0.453125zm28.203125 -2.828125l-4.8125 0l0 5.65625l-1.484375 0l0 -5.65625l-4.453125 0q-0.15625 3.859375 -2.3125 6.171875l-1.1875 -1.1875q2.015625 -2.234375 2.015625 -5.203125l0 -9.5l13.71875 0l0 14.171875q0 1.203125 -1.1875 1.203125l-2.078125 0l-0.359375 -1.640625l1.84375 0q0.296875 0 0.296875 -0.296875l0 -3.71875zm-10.75 -4.15625l0 2.75l4.453125 0l0 -2.75l-4.453125 0zm0 -4.15625l0 2.75l4.453125 0l0 -2.75l-4.453125 0zm5.9375 4.15625l0 2.75l4.8125 0l0 -2.75l-4.8125 0zm0 -4.15625l0 2.75l4.8125 0l0 -2.75l-4.8125 0zm17.140625 1.640625l0.890625 1.5625l2.96875 0l0.59375 -1.640625l-9.0625 0l0 6.75q0 3.421875 -1.703125 6.25l-1.265625 -1.125q1.484375 -2.296875 1.484375 -5.5625l0 -9.875l14.109375 0l0 3.5625l-3.046875 0l0.96875 0.453125q0.296875 0.296875 -0.21875 0.359375l-0.453125 0.828125l3.125 0l0 4.8125l-11.875 0l0 -4.8125l2.8125 0l-0.671875 -0.890625l1.34375 -0.671875zm6.90625 5.484375l0 -1.109375l-3.71875 0l0 1.109375l3.71875 0zm-8.90625 0l3.703125 0l0 -1.109375l-3.703125 0l0 1.109375zm1.484375 7.5l-1.484375 0l0 -5.71875l9.125 0l0 5.5l-1.484375 0l0 -0.671875l-6.15625 0l0 0.890625zm6.15625 -1.78125l0 -1.109375l-6.15625 0l0 1.109375l6.15625 0zm-10.25 -12.46875l11.140625 0l0 -1.1875l-11.140625 0l0 1.1875zm2.609375 4.75l3.703125 0l0 -1.03125l-3.703125 0l0 1.03125zm5.1875 0l3.71875 0l0 -1.03125l-3.71875 0l0 1.03125zm-3.703125 5.71875l6.15625 0l0 -1.046875l-6.15625 0l0 1.046875z" fill-rule="nonzero"/><path fill="#ea9999" d="m227.45276 347.17322l155.59055 0l0 58.204742l-155.59055 0z" fill-rule="evenodd"/><path fill="#000000" d="m267.70114 375.6956q2.890625 -3.484375 3.484375 -7.796875l1.40625 0.234375q0.75 0.140625 0 0.65625q-0.515625 2.078125 -1.1875 3.796875q0.8125 0.4375 0.21875 0.65625l0 11.734375l-1.484375 0l0 -9.953125q-0.734375 1.1875 -1.40625 1.9375l-1.03125 -1.265625zm6.234375 1.34375l0 -5.71875l3.859375 0l0 -0.75l-4.90625 0l0 -1.1875l4.90625 0l0 -1.546875l1.40625 0q0.59375 0.0625 0.078125 0.4375l0 1.109375l5.484375 0l0 1.1875l-5.484375 0l0 0.75l4.078125 0l0 5.421875l-1.109375 0q1.1875 0.8125 2.4375 1.84375l-1.03125 0.75l-0.890625 -0.75l-1.046875 0.078125l0 1.34375l3.640625 0l0 1.1875l-3.640625 0l0 2.375q0 1.328125 -1.109375 1.328125l-1.625 0l-0.296875 -1.40625l1.328125 0q0.21875 0 0.21875 -0.21875l0 -2.078125l-4.21875 0q0.890625 0.734375 1.703125 1.84375l-1.265625 0.96875q-0.734375 -0.96875 -1.78125 -1.921875l1.046875 -0.890625l-3.34375 0l0 -1.1875l7.859375 0l0 -1.265625l-6.453125 0.296875q-0.515625 0.671875 -0.671875 -0.078125l-0.21875 -1.1875l4.90625 0l0 -1.03125l-2.609375 0l0 0.296875l-1.25 0zm5.34375 -4.53125l0 0.890625l2.8125 0l0 -0.890625l-2.8125 0zm-4.09375 0l0 0.890625l2.609375 0l0 -0.890625l-2.609375 0zm4.09375 2.078125l0 0.96875l2.8125 0l0 -0.96875l-2.8125 0zm0 2.15625l0 0.953125l2.4375 0l-0.8125 -0.59375l0.8125 -0.359375l-2.4375 0zm-1.484375 -2.15625l-2.609375 0l0 0.96875l2.609375 0l0 -0.96875zm16.25 -1.859375q3.109375 -2.296875 4.296875 -5.1875l1.5625 0.296875q0.296875 0.296875 -0.21875 0.359375l0 0.15625q1.859375 2.21875 4.890625 4.078125l-0.953125 1.265625q-1.125 -0.59375 -2.078125 -1.484375l0 1.265625l-4.90625 0l0 -1.125q-0.8125 0.890625 -1.703125 1.484375l-0.890625 -1.109375zm-2.75 2.375l1.1875 0l0 -1.484375l-1.1875 0l0 1.484375zm2.890625 5.421875l0 1.1875l-2.890625 0l0 3.34375l-1.265625 0l0 -3.34375l-2.8125 0l0 -1.1875l2.8125 0l0 -1.5625l-1.25 0l-1.1875 0l0 -6.53125l2.4375 0l0 -1.40625l-2.8125 0l0 -1.1875l2.8125 0l0 -1.9375l1.1875 0q0.59375 0.078125 0.078125 0.453125l0 1.484375l2.59375 0l0 1.1875l-2.59375 0l0 1.40625l2.453125 0l0 6.53125l-2.453125 0l0 1.5625l2.890625 0zm-1.703125 -4.234375l-1.1875 0l0 1.484375l1.1875 0l0 -1.484375zm-2.453125 0l-1.1875 0l0 1.484375l1.1875 0l0 -1.484375zm-1.1875 -2.671875l0 1.484375l1.1875 0l0 -1.484375l-1.1875 0zm12.546875 -1.5625q-1.328125 -1.03125 -2.453125 -2.59375q-0.953125 1.640625 -2.0 2.59375l4.453125 0zm-1.5625 10.171875l0 -7.203125l1.1875 0q0.59375 0.078125 0.078125 0.453125l0 6.75l-1.265625 0zm3.640625 -8.09375q0.59375 0.078125 0.078125 0.453125l0 8.984375q0 1.109375 -0.8125 1.109375l-1.5625 0l-0.21875 -1.1875l1.03125 0q0.296875 0 0.296875 -0.296875l0 -9.0625l1.1875 0zm-7.421875 6.90625l0 3.859375l-1.265625 0l0 -10.390625l4.3125 0l0 9.203125q0 1.125 -0.8125 1.125l-1.265625 0l-0.21875 -1.1875l0.734375 0q0.296875 0 0.296875 -0.296875l0 -2.3125l-1.78125 0zm0 -3.78125l1.78125 0l0 -1.5625l-1.78125 0l0 1.5625zm0 2.59375l1.78125 0l0 -1.40625l-1.78125 0l0 1.40625zm13.28125 -6.828125q-0.21875 2.078125 -0.734375 4.609375q0.96875 0.4375 1.703125 0.953125q0.59375 -1.625 0.59375 -4.75l0 -0.8125l-1.5625 0zm11.140625 -4.96875q0.59375 0.078125 0.078125 0.4375l0 1.640625l2.140625 0l0 1.1875l-2.140625 0l0 5.265625l-2.375 0l0 1.5625l5.046875 0l0 1.1875l-4.609375 0q1.265625 1.921875 4.828125 3.265625l-0.671875 1.5625q-3.1875 -1.5625 -4.59375 -3.5l0 4.171875l-1.265625 0l0 -3.9375q-1.859375 2.59375 -4.828125 3.703125l-0.59375 -1.40625q3.125 -1.109375 5.125 -3.859375l-4.078125 0l0 -1.1875l4.375 0l0 -1.5625l-1.1875 0l-1.1875 0l0 -2.671875l0 -2.59375l-1.640625 0l0 -1.1875l1.640625 0l0 -2.078125l1.1875 0q0.59375 0.078125 0.078125 0.4375l0 1.640625l3.484375 0l0 -2.078125l1.1875 0zm-8.53125 13.875l-1.125 -1.109375q-1.109375 2.296875 -3.625 3.71875l-0.75 -1.34375q2.296875 -1.1875 3.34375 -3.34375q-0.59375 -0.59375 -1.40625 -0.96875l-0.375 1.1875l-1.265625 -0.59375q0.890625 -3.5625 1.265625 -6.453125l-1.40625 0l0 -1.40625l1.625 0l0.375 -3.5625l1.484375 0.21875q0.296875 0.296875 -0.21875 0.375l-0.375 2.96875l1.625 0l0.15625 -0.296875l0.96875 0.734375q0.359375 0.15625 -0.078125 0.296875l0 1.5625q0 3.484375 -0.75 5.421875q0.75 0.671875 1.484375 1.328125l-0.953125 1.265625zm3.859375 -8.015625l0 1.484375l3.484375 0l0 -1.484375l-3.484375 0zm3.484375 -2.59375l-3.484375 0l0 1.40625l3.484375 0l0 -1.40625zm13.734375 1.859375l0 2.515625l-1.265625 0l0 -1.328125l-5.265625 0l0 1.40625l-1.265625 0l0 -2.59375l1.1875 0l0 -4.984375l5.421875 0l0 4.984375l1.1875 0zm-0.234375 3.78125l0 -1.1875l9.578125 0l0 1.1875l-9.578125 0zm5.203125 -6.90625l-1.109375 0l0 1.40625l1.109375 0l0 -1.40625zm-2.375 13.0625l-0.515625 -1.78125l-1.125 0l0 -3.484375l6.984375 0l0 3.484375l-1.1875 0l-0.59375 1.78125l3.1875 0l0 1.1875l-9.640625 0l0 -1.1875l2.890625 0zm1.1875 0l1.1875 0l0.515625 -1.78125l-2.15625 0l0.453125 1.78125zm-1.5625 -2.96875l4.453125 0l0 -1.109375l-4.453125 0l0 1.109375zm-7.5625 -6.96875l0.8125 0l0 -2.53125l2.078125 0l0 -1.265625l-2.890625 0l0 3.796875zm1.84375 -1.640625l0 1.640625l1.046875 0l0 -1.640625l-1.046875 0zm-1.703125 5.34375l0 1.109375l2.53125 0l0 -1.109375l-2.53125 0zm0 2.296875l0 1.1875l2.53125 0l0 -1.1875l-2.53125 0zm0 5.578125l-1.265625 0l0 -9.0625l5.046875 0l0 7.875q0 1.1875 -0.953125 1.1875l-1.046875 0l-0.296875 -1.1875l0.75 0q0.296875 0 0.296875 -0.296875l0 -1.71875l-2.53125 0l0 3.203125zm10.171875 -17.078125l0.96875 0q0.59375 0.078125 0.0625 0.515625l0 0.96875l2.375 0l0 5.5l-7.9375 0l0 -5.5l2.375 0l0 -1.484375l0.96875 0q0.59375 0.078125 0.078125 0.515625l0 0.96875l1.109375 0l0 -1.484375zm-2.15625 2.375l-1.109375 0l0 1.40625l1.109375 0l0 -1.40625zm0 2.296875l-1.109375 0l0 1.421875l1.109375 0l0 -1.421875zm2.15625 0l-1.109375 0l0 1.421875l1.109375 0l0 -1.421875zm1.03125 0l0 1.421875l1.125 0l0 -1.421875l-1.125 0zm1.125 -2.296875l-1.125 0l0 1.40625l1.125 0l0 -1.40625z" fill-rule="nonzero"/><path fill="#f9cb9c" d="m227.45276 318.07086l155.59055 0l0 29.102356l-155.59055 0z" fill-rule="evenodd"/><path fill="#000000" d="m285.91 339.54205l0 -13.359375l2.65625 0l3.15625 9.453125q0.4375 1.328125 0.640625 1.984375q0.234375 -0.734375 0.703125 -2.140625l3.203125 -9.296875l2.375 0l0 13.359375l-1.703125 0l0 -11.171875l-3.875 11.171875l-1.59375 0l-3.859375 -11.375l0 11.375l-1.703125 0zm14.118927 0l5.125 -13.359375l1.90625 0l5.46875 13.359375l-2.015625 0l-1.546875 -4.046875l-5.59375 0l-1.46875 4.046875l-1.875 0zm3.859375 -5.484375l4.53125 0l-1.40625 -3.703125q-0.625 -1.6875 -0.9375 -2.765625q-0.265625 1.28125 -0.71875 2.546875l-1.46875 3.921875zm19.584198 0.796875l1.765625 0.453125q-0.5625 2.171875 -2.0 3.328125q-1.4375 1.140625 -3.53125 1.140625q-2.15625 0 -3.515625 -0.875q-1.34375 -0.890625 -2.0625 -2.546875q-0.703125 -1.671875 -0.703125 -3.59375q0 -2.078125 0.796875 -3.625q0.796875 -1.5625 2.265625 -2.359375q1.484375 -0.8125 3.25 -0.8125q2.0 0 3.359375 1.015625q1.375 1.015625 1.90625 2.875l-1.734375 0.40625q-0.46875 -1.453125 -1.359375 -2.109375q-0.875 -0.671875 -2.203125 -0.671875q-1.546875 0 -2.578125 0.734375q-1.03125 0.734375 -1.453125 1.984375q-0.421875 1.234375 -0.421875 2.5625q0 1.703125 0.5 2.96875q0.5 1.265625 1.546875 1.90625q1.046875 0.625 2.265625 0.625q1.484375 0 2.515625 -0.859375q1.03125 -0.859375 1.390625 -2.546875z" fill-rule="nonzero"/><path fill="#f6b26b" d="m227.45276 288.9685l155.59055 0l0 29.102356l-155.59055 0z" fill-rule="evenodd"/><path fill="#000000" d="m289.4952 310.4397l0 -13.359375l1.78125 0l0 11.78125l6.5625 0l0 1.578125l-8.34375 0zm10.375732 0l0 -13.359375l1.78125 0l0 11.78125l6.5625 0l0 1.578125l-8.34375 0zm19.985077 -4.6875l1.765625 0.453125q-0.5625 2.171875 -2.0 3.328125q-1.4375 1.140625 -3.53125 1.140625q-2.15625 0 -3.515625 -0.875q-1.34375 -0.890625 -2.0625 -2.546875q-0.703125 -1.671875 -0.703125 -3.59375q0 -2.078125 0.796875 -3.625q0.796875 -1.5625 2.265625 -2.359375q1.484375 -0.8125 3.25 -0.8125q2.0 0 3.359375 1.015625q1.375 1.015625 1.90625 2.875l-1.734375 0.40625q-0.46875 -1.453125 -1.359375 -2.109375q-0.875 -0.671875 -2.203125 -0.671875q-1.546875 0 -2.578125 0.734375q-1.03125 0.734375 -1.453125 1.984375q-0.421875 1.234375 -0.421875 2.5625q0 1.703125 0.5 2.96875q0.5 1.265625 1.546875 1.90625q1.046875 0.625 2.265625 0.625q1.484375 0 2.515625 -0.859375q1.03125 -0.859375 1.390625 -2.546875z" fill-rule="nonzero"/><path fill="#eab599" d="m227.45276 318.21783l0 87.275604l-51.874023 0l0 -87.275604z" fill-rule="evenodd"/><path fill="#000000" d="m209.88762 343.83234q0.265625 -0.734375 0.765625 -1.09375q0.5 -0.34375 1.1875 -0.34375q1.03125 0 1.734375 0.75q0.71875 0.75 0.71875 1.984375q0 1.25 -0.734375 2.015625q-0.71875 0.765625 -1.75 0.765625q-0.671875 0 -1.171875 -0.359375q-0.484375 -0.34375 -0.75 -1.046875q-0.28125 0.875 -0.921875 1.328125q-0.640625 0.46875 -1.515625 0.46875q-1.234375 0 -2.0625 -0.875q-0.828125 -0.859375 -0.828125 -2.265625q0 -1.421875 0.828125 -2.28125q0.84375 -0.859375 2.09375 -0.859375q0.921875 0 1.546875 0.46875q0.640625 0.46875 0.859375 1.34375zm1.984375 -0.234375q-0.671875 0 -1.109375 0.4375q-0.421875 0.4375 -0.421875 1.125q0 0.671875 0.421875 1.109375q0.421875 0.4375 1.046875 0.4375q0.640625 0 1.078125 -0.453125q0.4375 -0.4375 0.4375 -1.109375q0 -0.671875 -0.4375 -1.109375q-0.421875 -0.4375 -1.015625 -0.4375zm-4.40625 -0.375q-0.5 0 -0.96875 0.234375q-0.46875 0.234375 -0.734375 0.703125q-0.25 0.46875 -0.25 1.015625q0 0.828125 0.53125 1.375q0.546875 0.546875 1.390625 0.546875q0.84375 0 1.390625 -0.5625q0.5625 -0.5625 0.5625 -1.40625q0 -0.828125 -0.546875 -1.375q-0.546875 -0.53125 -1.375 -0.53125zm1.953125 6.2093506q1.6875 0 2.71875 0.34375q1.03125 0.359375 1.59375 1.046875q0.5625 0.6875 0.5625 1.71875q0 0.78125 -0.3125 1.359375q-0.296875 0.578125 -0.890625 0.953125q-0.578125 0.375 -1.421875 0.59375q-0.828125 0.21875 -2.25 0.21875q-1.671875 0 -2.703125 -0.359375q-1.03125 -0.34375 -1.59375 -1.03125q-0.5625 -0.671875 -0.5625 -1.734375q0 -1.375 0.984375 -2.15625q1.1875 -0.953125 3.875 -0.953125zm0 1.203125q-2.34375 0 -3.125 0.546875q-0.78125 0.5625 -0.78125 1.359375q0 0.8125 0.78125 1.359375q0.78125 0.5625 3.125 0.5625q2.359375 0 3.125 -0.5625q0.78125 -0.546875 0.78125 -1.359375q0 -0.8125 -0.6875 -1.296875q-0.875 -0.609375 -3.21875 -0.609375zm-3.578125 12.365601l-1.125 0l0 -6.296875q0.421875 -0.015625 0.8125 0.140625q0.640625 0.234375 1.265625 0.765625q0.625 0.53125 1.453125 1.53125q1.265625 1.5625 2.015625 2.109375q0.75 0.546875 1.40625 0.546875q0.703125 0 1.171875 -0.5q0.484375 -0.5 0.484375 -1.296875q0 -0.859375 -0.515625 -1.375q-0.5 -0.5 -1.390625 -0.5l0.109375 -1.203125q1.359375 0.125 2.0625 0.921875q0.703125 0.8125 0.703125 2.171875q0 1.375 -0.765625 2.171875q-0.75 0.8125 -1.875 0.8125q-0.578125 0 -1.140625 -0.234375q-0.546875 -0.234375 -1.15625 -0.78125q-0.609375 -0.546875 -1.671875 -1.8125q-0.890625 -1.046875 -1.21875 -1.359375q-0.3125 -0.296875 -0.625 -0.484375l0 4.671875zm-1.125 1.9124756l1.328125 0l0 1.34375l-1.328125 0l0 -1.34375zm0 7.4685974l0 -1.171875l7.46875 0q-0.40625 -0.421875 -0.8125 -1.109375q-0.40625 -0.6875 -0.609375 -1.234375l1.140625 0q0.453125 0.984375 1.109375 1.71875q0.671875 0.734375 1.28125 1.03125l0 0.765625l-9.578125 0zm2.5 2.9906006l0.109375 1.234375q-0.90625 0.140625 -1.359375 0.640625q-0.453125 0.5 -0.453125 1.203125q0 0.84375 0.640625 1.421875q0.640625 0.59375 1.6875 0.59375q1.0 0 1.578125 -0.5625q0.59375 -0.5625 0.59375 -1.484375q0 -0.5625 -0.265625 -1.015625q-0.25 -0.453125 -0.671875 -0.71875l0.15625 -1.09375l4.890625 0.921875l0 4.75l-1.109375 0l0 -3.8125l-2.5625 -0.515625q0.59375 0.859375 0.59375 1.796875q0 1.25 -0.875 2.109375q-0.859375 0.859375 -2.21875 0.859375q-1.296875 0 -2.234375 -0.75q-1.15625 -0.921875 -1.15625 -2.5q0 -1.3125 0.71875 -2.140625q0.734375 -0.8125 1.9375 -0.9375z" fill-rule="nonzero"/><path fill="#000000" d="m185.90324 332.38266q1.234375 -0.984375 2.875 -1.65625q1.640625 -0.65625 3.390625 -0.65625q1.546875 0 2.96875 0.5q1.640625 0.578125 3.28125 1.8125l0 0.828125q-1.359375 -0.78125 -1.9375 -1.03125q-0.890625 -0.40625 -1.875 -0.625q-1.21875 -0.28125 -2.4375 -0.28125q-3.140625 0 -6.265625 1.9375l0 -0.828125zm2.8125 2.282135l9.546875 0l0 3.59375q0 1.09375 -0.296875 1.75q-0.28125 0.65625 -0.890625 1.03125q-0.609375 0.375 -1.265625 0.375q-0.609375 0 -1.15625 -0.34375q-0.53125 -0.328125 -0.859375 -0.984375q-0.25 0.859375 -0.875 1.328125q-0.609375 0.46875 -1.4375 0.46875q-0.671875 0 -1.25 -0.296875q-0.578125 -0.28125 -0.890625 -0.703125q-0.3125 -0.40625 -0.46875 -1.03125q-0.15625 -0.625 -0.15625 -1.546875l0 -3.640625zm5.53125 1.265625l0 2.0625q0 0.84375 0.109375 1.203125q0.140625 0.484375 0.46875 0.71875q0.34375 0.25 0.84375 0.25q0.46875 0 0.828125 -0.234375q0.359375 -0.21875 0.5 -0.640625q0.140625 -0.421875 0.140625 -1.453125l0 -1.90625l-2.890625 0zm-4.40625 0l0 2.375q0 0.609375 0.046875 0.859375q0.078125 0.4375 0.25 0.734375q0.1875 0.296875 0.53125 0.484375q0.359375 0.1875 0.8125 0.1875q0.53125 0 0.921875 -0.28125q0.40625 -0.265625 0.5625 -0.75q0.15625 -0.484375 0.15625 -1.40625l0 -2.203125l-3.28125 0zm-1.125 7.51474l9.546875 0l0 1.171875l-9.546875 0l0 -1.171875zm0 7.507965l1.015625 0q-1.171875 -0.8125 -1.171875 -2.1875q0 -0.609375 0.234375 -1.140625q0.234375 -0.53125 0.578125 -0.796875q0.359375 -0.25 0.875 -0.359375q0.34375 -0.0625 1.09375 -0.0625l4.28125 0l0 1.171875l-3.828125 0q-0.921875 0 -1.234375 0.0625q-0.46875 0.109375 -0.734375 0.46875q-0.25 0.359375 -0.25 0.890625q0 0.515625 0.265625 0.984375q0.265625 0.46875 0.734375 0.65625q0.46875 0.1875 1.34375 0.1875l3.703125 0l0 1.171875l-6.90625 0l0 -1.046875zm2.21875 7.6156006l-0.140625 1.203125q-1.0625 -0.28125 -1.65625 -1.0625q-0.578125 -0.765625 -0.578125 -1.96875q0 -1.515625 0.9375 -2.40625q0.9375 -0.890625 2.609375 -0.890625q1.75 0 2.703125 0.890625q0.96875 0.90625 0.96875 2.34375q0 1.390625 -0.9375 2.265625q-0.9375 0.875 -2.65625 0.875q-0.109375 0 -0.3125 0l0 -5.15625q-1.140625 0.0625 -1.75 0.640625q-0.59375 0.578125 -0.59375 1.4375q0 0.65625 0.328125 1.109375q0.34375 0.453125 1.078125 0.71875zm1.90625 -3.84375l0 3.859375q0.859375 -0.078125 1.296875 -0.4375q0.6875 -0.5625 0.6875 -1.453125q0 -0.8125 -0.546875 -1.359375q-0.53125 -0.546875 -1.4375 -0.609375zm-3.078125 9.084351l-1.03125 0.171875q-0.109375 -0.5 -0.109375 -0.890625q0 -0.640625 0.203125 -1.0q0.203125 -0.34375 0.53125 -0.484375q0.328125 -0.140625 1.390625 -0.140625l3.96875 0l0 -0.859375l0.90625 0l0 0.859375l1.71875 0l0.703125 1.171875l-2.421875 0l0 1.171875l-0.90625 0l0 -1.171875l-4.046875 0q-0.5 0 -0.640625 0.046875q-0.140625 0.0625 -0.234375 0.203125q-0.078125 0.140625 -0.078125 0.40625q0 0.203125 0.046875 0.515625zm2.40625 0.7030029q1.921875 0 2.84375 1.078125q0.765625 0.890625 0.765625 2.171875q0 1.421875 -0.9375 2.328125q-0.921875 0.90625 -2.578125 0.90625q-1.328125 0 -2.09375 -0.40625q-0.765625 -0.390625 -1.1875 -1.15625q-0.421875 -0.765625 -0.421875 -1.671875q0 -1.453125 0.921875 -2.359375q0.9375 -0.890625 2.6875 -0.890625zm0 1.203125q-1.328125 0 -1.984375 0.578125q-0.65625 0.59375 -0.65625 1.46875q0 0.875 0.65625 1.453125q0.671875 0.578125 2.03125 0.578125q1.28125 0 1.9375 -0.59375q0.65625 -0.578125 0.65625 -1.4375q0 -0.875 -0.65625 -1.46875q-0.65625 -0.578125 -1.984375 -0.578125zm0 6.2093506q1.921875 0 2.84375 1.078125q0.765625 0.890625 0.765625 2.171875q0 1.421875 -0.9375 2.328125q-0.921875 0.90625 -2.578125 0.90625q-1.328125 0 -2.09375 -0.40625q-0.765625 -0.390625 -1.1875 -1.15625q-0.421875 -0.765625 -0.421875 -1.671875q0 -1.453125 0.921875 -2.359375q0.9375 -0.890625 2.6875 -0.890625zm0 1.203125q-1.328125 0 -1.984375 0.578125q-0.65625 0.59375 -0.65625 1.46875q0 0.875 0.65625 1.453125q0.671875 0.578125 2.03125 0.578125q1.28125 0 1.9375 -0.59375q0.65625 -0.578125 0.65625 -1.4375q0 -0.875 -0.65625 -1.46875q-0.65625 -0.578125 -1.984375 -0.578125zm-2.40625 9.209351l-1.03125 0.171875q-0.109375 -0.5 -0.109375 -0.890625q0 -0.640625 0.203125 -1.0q0.203125 -0.34375 0.53125 -0.484375q0.328125 -0.140625 1.390625 -0.140625l3.96875 0l0 -0.859375l0.90625 0l0 0.859375l1.71875 0l0.703125 1.171875l-2.421875 0l0 1.171875l-0.90625 0l0 -1.171875l-4.046875 0q-0.5 0 -0.640625 0.046875q-0.140625 0.0625 -0.234375 0.203125q-0.078125 0.140625 -0.078125 0.40625q0 0.203125 0.046875 0.515625zm-1.046875 1.1404724l9.546875 0l0 1.171875l-3.421875 0q0.9375 0.828125 0.9375 2.078125q0 0.765625 -0.296875 1.328125q-0.296875 0.5625 -0.84375 0.8125q-0.53125 0.25 -1.546875 0.25l-4.375 0l0 -1.171875l4.375 0q0.890625 0 1.28125 -0.390625q0.40625 -0.375 0.40625 -1.078125q0 -0.515625 -0.28125 -0.984375q-0.265625 -0.453125 -0.734375 -0.65625q-0.453125 -0.1875 -1.265625 -0.1875l-3.78125 0l0 -1.171875zm-2.8125 8.178101l0 -0.828125q3.125 1.9375 6.265625 1.9375q1.21875 0 2.421875 -0.28125q0.984375 -0.21875 1.875 -0.609375q0.59375 -0.265625 1.953125 -1.046875l0 0.828125q-1.640625 1.234375 -3.28125 1.8125q-1.421875 0.5 -2.96875 0.5q-1.75 0 -3.390625 -0.671875q-1.640625 -0.671875 -2.875 -1.640625z" fill-rule="nonzero"/><path fill="#eac499" d="m175.58923 318.21783l0 87.275604l-51.87401 0l0 -87.275604z" fill-rule="evenodd"/><path fill="#000000" d="m158.02411 344.32712q0.265625 -0.734375 0.765625 -1.09375q0.5 -0.34375 1.1875 -0.34375q1.03125 0 1.734375 0.75q0.71875 0.75 0.71875 1.984375q0 1.25 -0.734375 2.015625q-0.71875 0.765625 -1.75 0.765625q-0.671875 0 -1.171875 -0.359375q-0.484375 -0.34375 -0.75 -1.046875q-0.28125 0.875 -0.921875 1.328125q-0.640625 0.46875 -1.515625 0.46875q-1.234375 0 -2.0625 -0.875q-0.828125 -0.859375 -0.828125 -2.265625q0 -1.421875 0.828125 -2.28125q0.84375 -0.859375 2.09375 -0.859375q0.921875 0 1.546875 0.46875q0.640625 0.46875 0.859375 1.34375zm1.984375 -0.234375q-0.671875 0 -1.109375 0.4375q-0.421875 0.4375 -0.421875 1.125q0 0.671875 0.421875 1.109375q0.421875 0.4375 1.046875 0.4375q0.640625 0 1.078125 -0.453125q0.4375 -0.4375 0.4375 -1.109375q0 -0.671875 -0.4375 -1.109375q-0.421875 -0.4375 -1.015625 -0.4375zm-4.40625 -0.375q-0.5 0 -0.96875 0.234375q-0.46875 0.234375 -0.734375 0.703125q-0.25 0.46875 -0.25 1.015625q0 0.828125 0.53125 1.375q0.546875 0.546875 1.390625 0.546875q0.84375 0 1.390625 -0.5625q0.5625 -0.5625 0.5625 -1.40625q0 -0.828125 -0.546875 -1.375q-0.546875 -0.53125 -1.375 -0.53125zm1.953125 6.2093506q1.6875 0 2.71875 0.34375q1.03125 0.359375 1.59375 1.046875q0.5625 0.6875 0.5625 1.71875q0 0.78125 -0.3125 1.359375q-0.296875 0.578125 -0.890625 0.953125q-0.578125 0.375 -1.421875 0.59375q-0.828125 0.21875 -2.25 0.21875q-1.671875 0 -2.703125 -0.359375q-1.03125 -0.34375 -1.59375 -1.03125q-0.5625 -0.671875 -0.5625 -1.734375q0 -1.375 0.984375 -2.15625q1.1875 -0.953125 3.875 -0.953125zm0 1.203125q-2.34375 0 -3.125 0.546875q-0.78125 0.5625 -0.78125 1.359375q0 0.8125 0.78125 1.359375q0.78125 0.5625 3.125 0.5625q2.359375 0 3.125 -0.5625q0.78125 -0.546875 0.78125 -1.359375q0 -0.8125 -0.6875 -1.296875q-0.875 -0.609375 -3.21875 -0.609375zm-3.578125 12.365601l-1.125 0l0 -6.296875q0.421875 -0.015625 0.8125 0.140625q0.640625 0.234375 1.265625 0.765625q0.625 0.53125 1.453125 1.53125q1.265625 1.5625 2.015625 2.109375q0.75 0.546875 1.40625 0.546875q0.703125 0 1.171875 -0.5q0.484375 -0.5 0.484375 -1.296875q0 -0.859375 -0.515625 -1.375q-0.5 -0.5 -1.390625 -0.5l0.109375 -1.203125q1.359375 0.125 2.0625 0.921875q0.703125 0.8125 0.703125 2.171875q0 1.375 -0.765625 2.171875q-0.75 0.8125 -1.875 0.8125q-0.578125 0 -1.140625 -0.234375q-0.546875 -0.234375 -1.15625 -0.78125q-0.609375 -0.546875 -1.671875 -1.8125q-0.890625 -1.046875 -1.21875 -1.359375q-0.3125 -0.296875 -0.625 -0.484375l0 4.671875zm-1.125 1.9124756l1.328125 0l0 1.34375l-1.328125 0l0 -1.34375zm0 7.468628l0 -1.171875l7.46875 0q-0.40625 -0.421875 -0.8125 -1.109375q-0.40625 -0.6875 -0.609375 -1.234375l1.140625 0q0.453125 0.984375 1.109375 1.71875q0.671875 0.734375 1.28125 1.03125l0 0.765625l-9.578125 0zm0 6.422882l0 -1.171875l7.46875 0q-0.40625 -0.421875 -0.8125 -1.109375q-0.40625 -0.6875 -0.609375 -1.234375l1.140625 0q0.453125 0.984375 1.109375 1.71875q0.671875 0.734375 1.28125 1.03125l0 0.765625l-9.578125 0z" fill-rule="nonzero"/><path fill="#000000" d="m134.03973 345.00146q1.234375 -0.984375 2.875 -1.65625q1.640625 -0.65625 3.390625 -0.65625q1.546875 0 2.96875 0.5q1.640625 0.578125 3.28125 1.8125l0 0.828125q-1.359375 -0.78125 -1.9375 -1.03125q-0.890625 -0.40625 -1.875 -0.625q-1.21875 -0.28125 -2.4375 -0.28125q-3.140625 0 -6.265625 1.9375l0 -0.828125zm2.8125 4.0008545l9.546875 -2.53125l0 1.296875l-6.265625 1.453125q-0.984375 0.234375 -1.953125 0.40625q1.53125 0.359375 1.765625 0.421875l6.453125 1.828125l0 1.515625l-4.828125 1.375q-1.796875 0.515625 -3.390625 0.734375q0.90625 0.1875 2.078125 0.484375l6.140625 1.484375l0 1.28125l-9.546875 -2.625l0 -1.21875l7.265625 -2.0q0.921875 -0.265625 1.125 -0.3125q-0.65625 -0.140625 -1.125 -0.28125l-7.265625 -2.015625l0 -1.296875zm8.1875 10.782867l1.359375 0l0 1.171875l-1.359375 0l0 -1.171875zm-8.1875 0l6.90625 0l0 1.171875l-6.90625 0l0 -1.171875zm2.859375 2.49234l1.1875 0l0 3.59375l-1.1875 0l0 -3.59375zm-2.859375 5.1102295l9.546875 0l0 6.4375l-1.125 0l0 -5.171875l-2.96875 0l0 4.46875l-1.125 0l0 -4.46875l-4.328125 0l0 -1.265625zm8.1875 7.9382324l1.359375 0l0 1.171875l-1.359375 0l0 -1.171875zm-8.1875 0l6.90625 0l0 1.171875l-6.90625 0l0 -1.171875zm-2.8125 3.71109l0 -0.828125q3.125 1.9375 6.265625 1.9375q1.21875 0 2.421875 -0.28125q0.984375 -0.21875 1.875 -0.609375q0.59375 -0.265625 1.953125 -1.046875l0 0.828125q-1.640625 1.234375 -3.28125 1.8125q-1.421875 0.5 -2.96875 0.5q-1.75 0 -3.390625 -0.671875q-1.640625 -0.671875 -2.875 -1.640625z" fill-rule="nonzero"/><path fill="#eae299" d="m123.72572 318.21783l0 87.275604l-51.874016 0l0 -87.275604z" fill-rule="evenodd"/><path fill="#000000" d="m106.16059 347.53857q0.265625 -0.734375 0.765625 -1.09375q0.5 -0.34375 1.1875 -0.34375q1.03125 0 1.734375 0.75q0.71875 0.75 0.71875 1.984375q0 1.25 -0.734375 2.015625q-0.71875 0.765625 -1.75 0.765625q-0.671875 0 -1.171875 -0.359375q-0.484375 -0.34375 -0.75 -1.046875q-0.28125 0.875 -0.921875 1.328125q-0.640625 0.46875 -1.515625 0.46875q-1.234375 0 -2.0625 -0.875q-0.828125 -0.859375 -0.828125 -2.265625q0 -1.421875 0.828125 -2.28125q0.84375 -0.859375 2.09375 -0.859375q0.921875 0 1.546875 0.46875q0.640625 0.46875 0.859375 1.34375zm1.984375 -0.234375q-0.671875 0 -1.109375 0.4375q-0.421875 0.4375 -0.421875 1.125q0 0.671875 0.421875 1.109375q0.421875 0.4375 1.046875 0.4375q0.640625 0 1.078125 -0.453125q0.4375 -0.4375 0.4375 -1.109375q0 -0.671875 -0.4375 -1.109375q-0.421875 -0.4375 -1.015625 -0.4375zm-4.40625 -0.375q-0.5 0 -0.96875 0.234375q-0.46875 0.234375 -0.734375 0.703125q-0.25 0.46875 -0.25 1.015625q0 0.828125 0.53125 1.375q0.546875 0.546875 1.390625 0.546875q0.84375 0 1.390625 -0.5625q0.5625 -0.5625 0.5625 -1.40625q0 -0.828125 -0.546875 -1.375q-0.546875 -0.53125 -1.375 -0.53125zm1.953125 6.2093506q1.6875 0 2.71875 0.34375q1.03125 0.359375 1.59375 1.046875q0.5625 0.6875 0.5625 1.71875q0 0.78125 -0.3125 1.359375q-0.296875 0.578125 -0.890625 0.953125q-0.578125 0.375 -1.421875 0.59375q-0.828125 0.21875 -2.25 0.21875q-1.671875 0 -2.703125 -0.359375q-1.03125 -0.34375 -1.59375 -1.03125q-0.5625 -0.671875 -0.5625 -1.734375q0 -1.375 0.984375 -2.15625q1.1875 -0.953125 3.875 -0.953125zm0 1.203125q-2.34375 0 -3.125 0.546875q-0.78125 0.5625 -0.78125 1.359375q0 0.8125 0.78125 1.359375q0.78125 0.5625 3.125 0.5625q2.359375 0 3.125 -0.5625q0.78125 -0.546875 0.78125 -1.359375q0 -0.8125 -0.6875 -1.296875q-0.875 -0.609375 -3.21875 -0.609375zm-3.578125 12.365601l-1.125 0l0 -6.296875q0.421875 -0.015625 0.8125 0.140625q0.640625 0.234375 1.265625 0.765625q0.625 0.53125 1.453125 1.53125q1.265625 1.5625 2.015625 2.109375q0.75 0.546875 1.40625 0.546875q0.703125 0 1.171875 -0.5q0.484375 -0.5 0.484375 -1.296875q0 -0.859375 -0.515625 -1.375q-0.5 -0.5 -1.390625 -0.5l0.109375 -1.203125q1.359375 0.125 2.0625 0.921875q0.703125 0.8125 0.703125 2.171875q0 1.375 -0.765625 2.171875q-0.75 0.8125 -1.875 0.8125q-0.578125 0 -1.140625 -0.234375q-0.546875 -0.234375 -1.15625 -0.78125q-0.609375 -0.546875 -1.671875 -1.8125q-0.890625 -1.046875 -1.21875 -1.359375q-0.3125 -0.296875 -0.625 -0.484375l0 4.671875zm-1.125 1.9124756l1.328125 0l0 1.34375l-1.328125 0l0 -1.34375zm2.515625 3.0623474l0.15625 1.171875q-1.0 0.203125 -1.4375 0.6875q-0.4375 0.484375 -0.4375 1.171875q0 0.828125 0.578125 1.390625q0.578125 0.578125 1.421875 0.578125q0.796875 0 1.3125 -0.53125q0.53125 -0.515625 0.53125 -1.328125q0 -0.34375 -0.125 -0.828125l1.03125 0.125q-0.015625 0.125 -0.015625 0.1875q0 0.75 0.390625 1.34375q0.390625 0.609375 1.203125 0.609375q0.640625 0 1.0625 -0.4375q0.421875 -0.4375 0.421875 -1.125q0 -0.6875 -0.4375 -1.140625q-0.421875 -0.453125 -1.28125 -0.59375l0.21875 -1.171875q1.171875 0.21875 1.8125 0.984375q0.65625 0.765625 0.65625 1.890625q0 0.78125 -0.34375 1.4375q-0.328125 0.65625 -0.90625 1.0q-0.578125 0.359375 -1.234375 0.359375q-0.609375 0 -1.125 -0.34375q-0.5 -0.328125 -0.796875 -0.96875q-0.203125 0.84375 -0.828125 1.3125q-0.609375 0.46875 -1.53125 0.46875q-1.25 0 -2.125 -0.921875q-0.859375 -0.90625 -0.859375 -2.296875q0 -1.25 0.75 -2.09375q0.75 -0.828125 1.9375 -0.9375z" fill-rule="nonzero"/><path fill="#000000" d="m82.176216 335.35028q1.234375 -0.984375 2.875 -1.65625q1.640625 -0.65625 3.390625 -0.65625q1.546875 0 2.96875 0.5q1.640625 0.578125 3.28125 1.8125l0 0.828125q-1.359375 -0.78125 -1.9375 -1.03125q-0.890625 -0.40625 -1.875 -0.625q-1.21875 -0.28125 -2.4375 -0.28125q-3.140625 0 -6.265625 1.9375l0 -0.828125zm2.8125 2.3602295l9.546875 0l0 6.90625l-1.125 0l0 -5.640625l-2.921875 0l0 5.28125l-1.125 0l0 -5.28125l-3.25 0l0 5.859375l-1.125 0l0 -7.125zm1.046875 11.2803955l-1.03125 0.171875q-0.109375 -0.5 -0.109375 -0.890625q0 -0.640625 0.203125 -1.0q0.203125 -0.34375 0.53125 -0.484375q0.328125 -0.140625 1.390625 -0.140625l3.96875 0l0 -0.859375l0.90625 0l0 0.859375l1.71875 0l0.703125 1.171875l-2.421875 0l0 1.171875l-0.90625 0l0 -1.171875l-4.046875 0q-0.5 0 -0.640625 0.046875q-0.140625 0.0625 -0.234375 0.203125q-0.078125 0.140625 -0.078125 0.40625q0 0.203125 0.046875 0.515625zm-1.046875 1.1404724l9.546875 0l0 1.171875l-3.421875 0q0.9375 0.828125 0.9375 2.078125q0 0.765625 -0.296875 1.328125q-0.296875 0.5625 -0.84375 0.8125q-0.53125 0.25 -1.546875 0.25l-4.375 0l0 -1.171875l4.375 0q0.890625 0 1.28125 -0.390625q0.40625 -0.375 0.40625 -1.078125q0 -0.515625 -0.28125 -0.984375q-0.265625 -0.453125 -0.734375 -0.65625q-0.453125 -0.1875 -1.265625 -0.1875l-3.78125 0l0 -1.171875zm2.21875 12.146851l-0.140625 1.203125q-1.0625 -0.28125 -1.65625 -1.0625q-0.578125 -0.765625 -0.578125 -1.96875q0 -1.515625 0.9375 -2.40625q0.9375 -0.890625 2.609375 -0.890625q1.75 0 2.703125 0.890625q0.96875 0.90625 0.96875 2.34375q0 1.390625 -0.9375 2.265625q-0.9375 0.875 -2.65625 0.875q-0.109375 0 -0.3125 0l0 -5.15625q-1.140625 0.0625 -1.75 0.640625q-0.59375 0.578125 -0.59375 1.4375q0 0.65625 0.328125 1.109375q0.34375 0.453125 1.078125 0.71875zm1.90625 -3.84375l0 3.859375q0.859375 -0.078125 1.296875 -0.4375q0.6875 -0.5625 0.6875 -1.453125q0 -0.8125 -0.546875 -1.359375q-0.53125 -0.546875 -1.4375 -0.609375zm-4.125 6.5062256l6.90625 0l0 1.0625l-1.046875 0q0.734375 0.40625 0.96875 0.734375q0.234375 0.34375 0.234375 0.765625q0 0.59375 -0.375 1.203125l-1.078125 -0.40625q0.25 -0.4375 0.25 -0.859375q0 -0.390625 -0.234375 -0.703125q-0.234375 -0.296875 -0.640625 -0.421875q-0.625 -0.203125 -1.359375 -0.203125l-3.625 0l0 -1.171875zm0 4.45401l6.90625 0l0 1.0625l-0.984375 0q1.140625 0.75 1.140625 2.1875q0 0.625 -0.21875 1.15625q-0.21875 0.53125 -0.59375 0.78125q-0.359375 0.265625 -0.859375 0.375q-0.328125 0.0625 -1.140625 0.0625l-4.25 0l0 -1.171875l4.203125 0q0.71875 0 1.0625 -0.140625q0.359375 -0.140625 0.5625 -0.484375q0.21875 -0.34375 0.21875 -0.8125q0 -0.75 -0.46875 -1.296875q-0.46875 -0.546875 -1.796875 -0.546875l-3.78125 0l0 -1.171875zm2.21875 12.146851l-0.140625 1.203125q-1.0625 -0.28125 -1.65625 -1.0625q-0.578125 -0.765625 -0.578125 -1.96875q0 -1.515625 0.9375 -2.40625q0.9375 -0.890625 2.609375 -0.890625q1.75 0 2.703125 0.890625q0.96875 0.90625 0.96875 2.34375q0 1.390625 -0.9375 2.265625q-0.9375 0.875 -2.65625 0.875q-0.109375 0 -0.3125 0l0 -5.15625q-1.140625 0.0625 -1.75 0.640625q-0.59375 0.578125 -0.59375 1.4375q0 0.65625 0.328125 1.109375q0.34375 0.453125 1.078125 0.71875zm1.90625 -3.84375l0 3.859375q0.859375 -0.078125 1.296875 -0.4375q0.6875 -0.5625 0.6875 -1.453125q0 -0.8125 -0.546875 -1.359375q-0.53125 -0.546875 -1.4375 -0.609375zm-3.078125 9.084351l-1.03125 0.171875q-0.109375 -0.5 -0.109375 -0.890625q0 -0.640625 0.203125 -1.0q0.203125 -0.34375 0.53125 -0.484375q0.328125 -0.140625 1.390625 -0.140625l3.96875 0l0 -0.859375l0.90625 0l0 0.859375l1.71875 0l0.703125 1.171875l-2.421875 0l0 1.171875l-0.90625 0l0 -1.171875l-4.046875 0q-0.5 0 -0.640625 0.046875q-0.140625 0.0625 -0.234375 0.203125q-0.078125 0.140625 -0.078125 0.40625q0 0.203125 0.046875 0.515625zm-3.859375 1.9060974l0 -0.828125q3.125 1.9375 6.265625 1.9375q1.21875 0 2.421875 -0.28125q0.984375 -0.21875 1.875 -0.609375q0.59375 -0.265625 1.953125 -1.046875l0 0.828125q-1.640625 1.234375 -3.28125 1.8125q-1.421875 0.5 -2.96875 0.5q-1.75 0 -3.390625 -0.671875q-1.640625 -0.671875 -2.875 -1.640625z" fill-rule="nonzero"/><path fill="#f6cf6b" d="m71.862206 288.9685l155.59055 0l0 29.102356l-155.59055 0z" fill-rule="evenodd"/><path fill="#000000" d="m129.61127 303.20532q-1.015625 -0.375 -1.515625 -1.0625q-0.484375 -0.703125 -0.484375 -1.671875q0 -1.453125 1.046875 -2.4375q1.046875 -1.0 2.78125 -1.0q1.75 0 2.8125 1.015625q1.078125 1.015625 1.078125 2.46875q0 0.9375 -0.5 1.625q-0.484375 0.6875 -1.46875 1.0625q1.21875 0.390625 1.859375 1.28125q0.65625 0.890625 0.65625 2.140625q0 1.703125 -1.21875 2.875q-1.21875 1.171875 -3.1875 1.171875q-1.984375 0 -3.203125 -1.171875q-1.203125 -1.171875 -1.203125 -2.921875q0 -1.3125 0.65625 -2.1875q0.671875 -0.875 1.890625 -1.1875zm-0.328125 -2.78125q0 0.9375 0.609375 1.546875q0.609375 0.59375 1.59375 0.59375q0.9375 0 1.546875 -0.59375q0.609375 -0.59375 0.609375 -1.453125q0 -0.90625 -0.625 -1.515625q-0.625 -0.625 -1.5625 -0.625q-0.9375 0 -1.5625 0.609375q-0.609375 0.59375 -0.609375 1.4375zm-0.53125 6.15625q0 0.703125 0.328125 1.359375q0.34375 0.65625 1.0 1.015625q0.65625 0.359375 1.40625 0.359375q1.171875 0 1.9375 -0.75q0.765625 -0.75 0.765625 -1.921875q0 -1.1875 -0.796875 -1.953125q-0.78125 -0.78125 -1.953125 -0.78125q-1.15625 0 -1.921875 0.765625q-0.765625 0.765625 -0.765625 1.90625zm8.719467 -2.734375q0 -2.359375 0.484375 -3.796875q0.484375 -1.453125 1.4375 -2.234375q0.96875 -0.78125 2.421875 -0.78125q1.078125 0 1.890625 0.4375q0.8125 0.421875 1.328125 1.25q0.53125 0.8125 0.828125 1.984375q0.3125 1.15625 0.3125 3.140625q0 2.359375 -0.484375 3.8125q-0.484375 1.4375 -1.453125 2.234375q-0.953125 0.78125 -2.421875 0.78125q-1.921875 0 -3.03125 -1.390625q-1.3125 -1.671875 -1.3125 -5.4375zm1.671875 0q0 3.296875 0.765625 4.390625q0.78125 1.078125 1.90625 1.078125q1.140625 0 1.90625 -1.09375q0.765625 -1.09375 0.765625 -4.375q0 -3.296875 -0.765625 -4.375q-0.765625 -1.078125 -1.921875 -1.078125q-1.125 0 -1.796875 0.953125q-0.859375 1.21875 -0.859375 4.5zm17.313217 5.015625l0 1.578125l-8.828125 0q-0.015625 -0.59375 0.1875 -1.140625q0.34375 -0.90625 1.078125 -1.78125q0.75 -0.875 2.15625 -2.015625q2.171875 -1.78125 2.9375 -2.828125q0.765625 -1.046875 0.765625 -1.96875q0 -0.984375 -0.703125 -1.640625q-0.6875 -0.671875 -1.8125 -0.671875q-1.1875 0 -1.90625 0.71875q-0.703125 0.703125 -0.703125 1.953125l-1.6875 -0.171875q0.171875 -1.890625 1.296875 -2.875q1.140625 -0.984375 3.03125 -0.984375q1.921875 0 3.046875 1.0625q1.125 1.0625 1.125 2.640625q0 0.796875 -0.328125 1.578125q-0.328125 0.78125 -1.09375 1.640625q-0.75 0.84375 -2.53125 2.34375q-1.46875 1.234375 -1.890625 1.6875q-0.421875 0.4375 -0.6875 0.875l6.546875 0zm2.6725922 1.578125l0 -1.875l1.875 0l0 1.875l-1.875 0zm12.886429 -1.578125l0 1.578125l-8.828125 0q-0.015625 -0.59375 0.1875 -1.140625q0.34375 -0.90625 1.078125 -1.78125q0.75 -0.875 2.15625 -2.015625q2.171875 -1.78125 2.9375 -2.828125q0.765625 -1.046875 0.765625 -1.96875q0 -0.984375 -0.703125 -1.640625q-0.6875 -0.671875 -1.8125 -0.671875q-1.1875 0 -1.90625 0.71875q-0.703125 0.703125 -0.703125 1.953125l-1.6875 -0.171875q0.171875 -1.890625 1.296875 -2.875q1.140625 -0.984375 3.03125 -0.984375q1.921875 0 3.046875 1.0625q1.125 1.0625 1.125 2.640625q0 0.796875 -0.328125 1.578125q-0.328125 0.78125 -1.09375 1.640625q-0.75 0.84375 -2.53125 2.34375q-1.46875 1.234375 -1.890625 1.6875q-0.421875 0.4375 -0.6875 0.875l6.546875 0z" fill-rule="nonzero"/><path fill="#d0ea99" d="m71.85171 288.65353l0 116.8504l-69.44882 0l0 -116.8504z" fill-rule="evenodd"/><path fill="#000000" d="m31.267298 304.75842l11.453127 0l0 8.28125l-1.34375 0l0 -6.765625l-3.515625 0l0 6.34375l-1.34375 0l0 -6.34375l-3.890625 0l0 7.03125l-1.3593769 0l0 -8.546875zm1.2656269 13.53125l-1.2500019 0.203125q-0.125 -0.59375 -0.125 -1.0625q0 -0.765625 0.234375 -1.1875q0.25 -0.421875 0.6406269 -0.59375q0.40625 -0.171875 1.671875 -0.171875l4.765625 0l0 -1.03125l1.09375 0l0 1.03125l2.0625 0l0.84375 1.40625l-2.90625 0l0 1.40625l-1.09375 0l0 -1.40625l-4.84375 0q-0.609375 0 -0.78125 0.0625q-0.171875 0.078125 -0.28125 0.25q-0.09375 0.171875 -0.09375 0.484375q0 0.234375 0.0625 0.609375zm-1.2656269 1.3828125l11.453127 0l0 1.40625l-4.109375 0q1.140625 0.984375 1.140625 2.484375q0 0.921875 -0.359375 1.59375q-0.359375 0.6875 -1.0 0.96875q-0.640625 0.296875 -1.859375 0.296875l-5.265627 0l0 -1.40625l5.265627 0q1.046875 0 1.53125 -0.453125q0.484375 -0.453125 0.484375 -1.296875q0 -0.625 -0.328125 -1.171875q-0.328125 -0.546875 -0.890625 -0.78125q-0.546875 -0.234375 -1.515625 -0.234375l-4.546877 0l0 -1.40625zm2.671877 14.5703125l-0.171875 1.453125q-1.28125 -0.34375 -1.9843769 -1.28125q-0.703125 -0.921875 -0.703125 -2.359375q0 -1.828125 1.1250019 -2.890625q1.125 -1.0625 3.140625 -1.0625q2.09375 0 3.25 1.078125q1.15625 1.078125 1.15625 2.796875q0 1.65625 -1.140625 2.703125q-1.125 1.0625 -3.171875 1.0625q-0.125 0 -0.375 0l0 -6.1875q-1.375 0.078125 -2.109375 0.765625q-0.71875 0.703125 -0.71875 1.734375q0 0.78125 0.40625 1.328125q0.40625 0.546875 1.296875 0.859375zm2.28125 -4.609375l0 4.625q1.046875 -0.09375 1.5625 -0.53125q0.8125 -0.671875 0.8125 -1.734375q0 -0.96875 -0.65625 -1.640625q-0.640625 -0.65625 -1.71875 -0.71875zm-4.953127 7.8203125l8.296877 0l0 1.265625l-1.25 0q0.875 0.484375 1.15625 0.890625q0.28125 0.40625 0.28125 0.90625q0 0.703125 -0.453125 1.4375l-1.296875 -0.484375q0.296875 -0.515625 0.296875 -1.03125q0 -0.453125 -0.28125 -0.828125q-0.265625 -0.359375 -0.765625 -0.515625q-0.75 -0.234375 -1.640625 -0.234375l-4.343752 0l0 -1.40625zm0 5.34375l8.296877 0l0 1.265625l-1.171875 0q1.359375 0.90625 1.359375 2.640625q0 0.75 -0.265625 1.375q-0.265625 0.625 -0.703125 0.9375q-0.4375 0.3125 -1.046875 0.4375q-0.390625 0.078125 -1.359375 0.078125l-5.109377 0l0 -1.40625l5.046877 0q0.859375 0 1.28125 -0.171875q0.4375 -0.15625 0.6875 -0.578125q0.25 -0.40625 0.25 -0.96875q0 -0.90625 -0.578125 -1.5625q-0.5625 -0.640625 -2.15625 -0.640625l-4.531252 0l0 -1.40625zm2.671877 14.5703125l-0.171875 1.453125q-1.28125 -0.34375 -1.9843769 -1.28125q-0.703125 -0.921875 -0.703125 -2.359375q0 -1.828125 1.1250019 -2.890625q1.125 -1.0625 3.140625 -1.0625q2.09375 0 3.25 1.078125q1.15625 1.078125 1.15625 2.796875q0 1.65625 -1.140625 2.703125q-1.125 1.0625 -3.171875 1.0625q-0.125 0 -0.375 0l0 -6.1875q-1.375 0.078125 -2.109375 0.765625q-0.71875 0.703125 -0.71875 1.734375q0 0.78125 0.40625 1.328125q0.40625 0.546875 1.296875 0.859375zm2.28125 -4.609375l0 4.625q1.046875 -0.09375 1.5625 -0.53125q0.8125 -0.671875 0.8125 -1.734375q0 -0.96875 -0.65625 -1.640625q-0.640625 -0.65625 -1.71875 -0.71875zm-3.6875 10.8984375l-1.2500019 0.203125q-0.125 -0.59375 -0.125 -1.0625q0 -0.765625 0.234375 -1.1875q0.25 -0.421875 0.6406269 -0.59375q0.40625 -0.171875 1.671875 -0.171875l4.765625 0l0 -1.03125l1.09375 0l0 1.03125l2.0625 0l0.84375 1.40625l-2.90625 0l0 1.40625l-1.09375 0l0 -1.40625l-4.84375 0q-0.609375 0 -0.78125 0.0625q-0.171875 0.078125 -0.28125 0.25q-0.09375 0.171875 -0.09375 0.484375q0 0.234375 0.0625 0.609375zm0.09375 12.828125l-1.3593769 0l0 -7.578125q0.515625 -0.015625 0.9843769 0.171875q0.765625 0.28125 1.515625 0.921875q0.75 0.640625 1.734375 1.84375q1.53125 1.859375 2.421875 2.515625q0.90625 0.65625 1.703125 0.65625q0.828125 0 1.40625 -0.59375q0.578125 -0.59375 0.578125 -1.5625q0 -1.015625 -0.609375 -1.625q-0.609375 -0.609375 -1.6875 -0.609375l0.140625 -1.453125q1.625 0.15625 2.46875 1.125q0.84375 0.96875 0.84375 2.59375q0 1.65625 -0.921875 2.609375q-0.90625 0.96875 -2.25 0.96875q-0.6875 0 -1.359375 -0.28125q-0.65625 -0.28125 -1.390625 -0.9375q-0.734375 -0.65625 -2.015625 -2.171875q-1.0625 -1.265625 -1.453125 -1.625q-0.375 -0.359375 -0.75 -0.59375l0 5.625zm-1.3593769 2.2890625l1.6093769 0l0 1.609375l-1.6093769 0l0 -1.609375zm5.656252 3.6640625q2.03125 0 3.265625 0.40625q1.234375 0.421875 1.90625 1.25q0.671875 0.828125 0.671875 2.078125q0 0.921875 -0.375 1.609375q-0.359375 0.703125 -1.0625 1.15625q-0.703125 0.453125 -1.703125 0.703125q-1.0 0.265625 -2.703125 0.265625q-2.015625 0 -3.265625 -0.421875q-1.234375 -0.40625 -1.9218769 -1.234375q-0.671875 -0.828125 -0.671875 -2.078125q0 -1.65625 1.2031269 -2.609375q1.421875 -1.125 4.65625 -1.125zm0 1.4375q-2.828125 0 -3.765625 0.65625q-0.921875 0.671875 -0.921875 1.640625q0 0.96875 0.9375 1.625q0.9375 0.65625 3.75 0.65625q2.828125 0 3.75 -0.65625q0.9375 -0.65625 0.9375 -1.640625q0 -0.96875 -0.828125 -1.546875q-1.046875 -0.734375 -3.859375 -0.734375z" fill-rule="nonzero"/><path fill="#000000" fill-opacity="0.0" d="m71.862206 259.71915l155.59055 0l0 29.102386l-155.59055 0z" fill-rule="evenodd"/><path fill="#000000" d="m129.61127 273.95596q-1.015625 -0.375 -1.515625 -1.0625q-0.484375 -0.703125 -0.484375 -1.671875q0 -1.453125 1.046875 -2.4375q1.046875 -1.0 2.78125 -1.0q1.75 0 2.8125 1.015625q1.078125 1.015625 1.078125 2.46875q0 0.9375 -0.5 1.625q-0.484375 0.6875 -1.46875 1.0625q1.21875 0.390625 1.859375 1.28125q0.65625 0.890625 0.65625 2.140625q0 1.703125 -1.21875 2.875q-1.21875 1.171875 -3.1875 1.171875q-1.984375 0 -3.203125 -1.171875q-1.203125 -1.171875 -1.203125 -2.921875q0 -1.3125 0.65625 -2.1875q0.671875 -0.875 1.890625 -1.1875zm-0.328125 -2.78125q0 0.9375 0.609375 1.546875q0.609375 0.59375 1.59375 0.59375q0.9375 0 1.546875 -0.59375q0.609375 -0.59375 0.609375 -1.453125q0 -0.90625 -0.625 -1.515625q-0.625 -0.625 -1.5625 -0.625q-0.9375 0 -1.5625 0.609375q-0.609375 0.59375 -0.609375 1.4375zm-0.53125 6.15625q0 0.703125 0.328125 1.359375q0.34375 0.65625 1.0 1.015625q0.65625 0.359375 1.40625 0.359375q1.171875 0 1.9375 -0.75q0.765625 -0.75 0.765625 -1.921875q0 -1.1875 -0.796875 -1.953125q-0.78125 -0.78125 -1.953125 -0.78125q-1.15625 0 -1.921875 0.765625q-0.765625 0.765625 -0.765625 1.90625zm8.719467 -2.734375q0 -2.359375 0.484375 -3.796875q0.484375 -1.453125 1.4375 -2.234375q0.96875 -0.78125 2.421875 -0.78125q1.078125 0 1.890625 0.4375q0.8125 0.421875 1.328125 1.25q0.53125 0.8125 0.828125 1.984375q0.3125 1.15625 0.3125 3.140625q0 2.359375 -0.484375 3.8125q-0.484375 1.4375 -1.453125 2.234375q-0.953125 0.78125 -2.421875 0.78125q-1.921875 0 -3.03125 -1.390625q-1.3125 -1.671875 -1.3125 -5.4375zm1.671875 0q0 3.296875 0.765625 4.390625q0.78125 1.078125 1.90625 1.078125q1.140625 0 1.90625 -1.09375q0.765625 -1.09375 0.765625 -4.375q0 -3.296875 -0.765625 -4.375q-0.765625 -1.078125 -1.921875 -1.078125q-1.125 0 -1.796875 0.953125q-0.859375 1.21875 -0.859375 4.5zm17.313217 5.015625l0 1.578125l-8.828125 0q-0.015625 -0.59375 0.1875 -1.140625q0.34375 -0.90625 1.078125 -1.78125q0.75 -0.875 2.15625 -2.015625q2.171875 -1.78125 2.9375 -2.828125q0.765625 -1.046875 0.765625 -1.96875q0 -0.984375 -0.703125 -1.640625q-0.6875 -0.671875 -1.8125 -0.671875q-1.1875 0 -1.90625 0.71875q-0.703125 0.703125 -0.703125 1.953125l-1.6875 -0.171875q0.171875 -1.890625 1.296875 -2.875q1.140625 -0.984375 3.03125 -0.984375q1.921875 0 3.046875 1.0625q1.125 1.0625 1.125 2.640625q0 0.796875 -0.328125 1.578125q-0.328125 0.78125 -1.09375 1.640625q-0.75 0.84375 -2.53125 2.34375q-1.46875 1.234375 -1.890625 1.6875q-0.421875 0.4375 -0.6875 0.875l6.546875 0zm2.6725922 1.578125l0 -1.875l1.875 0l0 1.875l-1.875 0zm10.448929 0l-1.640625 0l0 -10.453125q-0.59375 0.5625 -1.5625 1.140625q-0.953125 0.5625 -1.71875 0.84375l0 -1.59375q1.375 -0.640625 2.40625 -1.5625q1.03125 -0.921875 1.453125 -1.78125l1.0625 0l0 13.40625z" fill-rule="nonzero"/><path fill="#000000" fill-opacity="0.0" d="m227.45276 259.71915l155.59055 0l0 29.102386l-155.59055 0z" fill-rule="evenodd"/><path fill="#000000" d="m254.0996 265.6747q0.734375 0.15625 0.078125 0.59375l0 1.1875l7.4218597 0l0 1.40625l-16.562485 0l0 -1.40625l7.421875 0l0 -1.78125l1.640625 0zm2.8124847 5.34375l-7.1249847 0l0 1.5625l7.1249847 0l0 -1.5625zm-8.374985 2.75l0 -3.9375l9.64061 0l0 3.9375l-9.64061 0zm12.17186 7.71875q0 1.1875 -1.1875 1.1875l-1.421875 0l-0.296875 -1.40625l1.125 0q0.296875 0 0.296875 -0.296875l0 -4.75l-11.73436 0l0 6.671875l-1.484375 0l0 -8.09375l14.70311 0l0 6.6875zm-9.874985 -0.59375l0 0.8125l-1.265625 0l0 -4.59375l7.5781097 0l0 3.78125l-6.3124847 0zm0 -1.1875l5.046875 0l0 -1.40625l-5.046875 0l0 1.40625zm20.781235 -9.796875l0.890625 1.5625l2.96875 0l0.59375 -1.640625l-9.0625 0l0 6.75q0 3.421875 -1.703125 6.25l-1.265625 -1.125q1.484375 -2.296875 1.484375 -5.5625l0 -9.875l14.109375 0l0 3.5625l-3.046875 0l0.96875 0.453125q0.296875 0.296875 -0.21875 0.359375l-0.453125 0.828125l3.125 0l0 4.8125l-11.875 0l0 -4.8125l2.8125 0l-0.671875 -0.890625l1.34375 -0.671875zm6.90625 5.484375l0 -1.109375l-3.71875 0l0 1.109375l3.71875 0zm-8.90625 0l3.703125 0l0 -1.109375l-3.703125 0l0 1.109375zm1.484375 7.5l-1.484375 0l0 -5.71875l9.125 0l0 5.5l-1.484375 0l0 -0.671875l-6.15625 0l0 0.890625zm6.15625 -1.78125l0 -1.109375l-6.15625 0l0 1.109375l6.15625 0zm-10.25 -12.46875l11.140625 0l0 -1.1875l-11.140625 0l0 1.1875zm2.609375 4.75l3.703125 0l0 -1.03125l-3.703125 0l0 1.03125zm5.1875 0l3.71875 0l0 -1.03125l-3.71875 0l0 1.03125zm-3.703125 5.71875l6.15625 0l0 -1.046875l-6.15625 0l0 1.046875zm28.125 -4.90625q-5.265625 -1.703125 -7.875 -6.234375q-2.8125 4.453125 -7.640625 6.609375l-0.8125 -1.78125q5.484375 -2.078125 7.859375 -6.90625l1.71875 0.375q0.21875 0.078125 -0.15625 0.453125q2.078125 3.921875 7.5 5.640625l-0.59375 1.84375zm-11.359375 -1.625l1.640625 0q0.734375 0.140625 0.0625 0.59375l0 3.046875q0 3.03125 -1.03125 4.375q-1.046875 1.34375 -3.484375 2.296875l-0.96875 -1.625q1.921875 -0.59375 2.890625 -1.640625q0.890625 -0.96875 0.890625 -3.484375l0 -3.5625zm5.421875 -0.15625l1.625 0q0.75 0.15625 0.078125 0.59375l0 9.734375l-1.703125 0l0 -10.328125zm24.265625 9.875l-1.484375 0l0 -0.734375l-11.359375 0l0 1.03125l-1.484375 0l0 -11.71875l6.09375 0l0.59375 -2.453125l-7.578125 0l0 -1.40625l16.109375 0l0 1.40625l-6.828125 0l-0.8125 2.453125l6.75 0l0 11.421875zm-10.234375 -2.15625l0 -7.859375l-2.609375 0l0 7.859375l2.609375 0zm4.671875 0l0 -1.84375l-3.1875 0l0 1.84375l3.1875 0zm0 -3.03125l0 -1.71875l-3.1875 0l0 1.71875l3.1875 0zm0 -4.828125l-3.1875 0l0 1.921875l3.1875 0l0 -1.921875zm4.078125 0l-2.59375 0l0 7.859375l2.59375 0l0 -7.859375z" fill-rule="nonzero"/><path fill="#000000" d="m329.4704 285.1122q-1.359375 -1.703125 -2.296875 -4.0q-0.9375 -2.296875 -0.9375 -4.765625q0 -2.15625 0.703125 -4.140625q0.828125 -2.3125 2.53125 -4.59375l1.171875 0q-1.09375 1.890625 -1.453125 2.703125q-0.546875 1.25 -0.875 2.625q-0.390625 1.703125 -0.390625 3.421875q0 4.375 2.71875 8.75l-1.171875 0zm3.353302 -3.921875l0 -13.359375l1.765625 0l0 5.484375l6.9375 0l0 -5.484375l1.765625 0l0 13.359375l-1.765625 0l0 -6.296875l-6.9375 0l0 6.296875l-1.765625 0zm13.332306 0l0 -13.359375l1.78125 0l0 11.78125l6.5625 0l0 1.578125l-8.34375 0zm10.750732 0l0 -13.359375l1.765625 0l0 13.359375l-1.765625 0zm5.7614136 3.921875l-1.1875 0q2.734375 -4.375 2.734375 -8.75q0 -1.71875 -0.390625 -3.390625q-0.3125 -1.375 -0.875 -2.625q-0.359375 -0.828125 -1.46875 -2.734375l1.1875 0q1.703125 2.28125 2.53125 4.59375q0.6875 1.984375 0.6875 4.140625q0 2.46875 -0.9375 4.765625q-0.9375 2.296875 -2.28125 4.0z" fill-rule="nonzero"/><path fill="#000000" fill-opacity="0.0" d="m71.85171 260.53806l0 28.283478" fill-rule="evenodd"/><path stroke="#ff0000" stroke-width="1.0" stroke-linejoin="round" stroke-linecap="butt" stroke-dasharray="4.0,3.0" d="m71.85171 260.53806l0 28.283478" fill-rule="evenodd"/><path fill="#000000" fill-opacity="0.0" d="m227.45276 260.53806l0 28.283478" fill-rule="evenodd"/><path stroke="#ff0000" stroke-width="1.0" stroke-linejoin="round" stroke-linecap="butt" stroke-dasharray="4.0,3.0" d="m227.45276 260.53806l0 28.283478" fill-rule="evenodd"/></g></svg>