<svg version="1.1" viewBox="0.0 0.0 705.4540682414698 127.79265091863518" fill="none" stroke="none" stroke-linecap="square" stroke-miterlimit="10" xmlns:xlink="http://www.w3.org/1999/xlink" xmlns="http://www.w3.org/2000/svg"><clipPath id="p.0"><path d="m0 0l705.45404 0l0 127.79265l-705.45404 0l0 -127.79265z" clip-rule="nonzero"/></clipPath><g clip-path="url(#p.0)"><path fill="#000000" fill-opacity="0.0" d="m0 0l705.45404 0l0 127.79265l-705.45404 0z" fill-rule="evenodd"/><path fill="#ff9900" d="m49.76378 48.396324l605.2913 0l0 15.0866165l-605.2913 0z" fill-rule="evenodd"/><path fill="#9900ff" d="m53.97638 33.322834l171.33858 0l0 15.0866165l-171.33858 0z" fill-rule="evenodd"/><path fill="#cfe2f3" d="m9.038057 48.396324l0 0c0 -14.124573 11.45023 -25.574802 25.574804 -25.574802l0 0c6.78286 0 13.28791 2.694481 18.084118 7.4906864c4.7962036 4.7962055 7.4906845 11.301256 7.4906845 18.084116l0 0c0 14.124577 -11.45023 25.574806 -25.574802 25.574806l0 0c-14.124575 0 -25.574804 -11.45023 -25.574804 -25.574806z" fill-rule="evenodd"/><path stroke="#000000" stroke-width="1.0" stroke-linejoin="round" stroke-linecap="butt" d="m9.038057 48.396324l0 0c0 -14.124573 11.45023 -25.574802 25.574804 -25.574802l0 0c6.78286 0 13.28791 2.694481 18.084118 7.4906864c4.7962036 4.7962055 7.4906845 11.301256 7.4906845 18.084116l0 0c0 14.124577 -11.45023 25.574806 -25.574802 25.574806l0 0c-14.124575 0 -25.574804 -11.45023 -25.574804 -25.574806z" fill-rule="evenodd"/><path fill="#000000" d="m29.234825 51.01945l1.65625 -0.140625q0.125 1.0 0.546875 1.640625q0.4375 0.640625 1.34375 1.046875q0.921875 0.390625 2.0625 0.390625q1.0 0 1.78125 -0.296875q0.78125 -0.296875 1.15625 -0.8125q0.375 -0.53125 0.375 -1.15625q0 -0.625 -0.375 -1.09375q-0.359375 -0.46875 -1.1875 -0.796875q-0.546875 -0.203125 -2.390625 -0.640625q-1.828125 -0.453125 -2.5625 -0.84375q-0.96875 -0.5 -1.4375 -1.234375q-0.46875 -0.75 -0.46875 -1.671875q0 -1.0 0.578125 -1.875q0.578125 -0.890625 1.671875 -1.34375q1.109375 -0.453125 2.453125 -0.453125q1.484375 0 2.609375 0.484375q1.140625 0.46875 1.75 1.40625q0.609375 0.921875 0.65625 2.09375l-1.6875 0.125q-0.140625 -1.265625 -0.9375 -1.90625q-0.78125 -0.65625 -2.3125 -0.65625q-1.609375 0 -2.34375 0.59375q-0.734375 0.59375 -0.734375 1.421875q0 0.71875 0.53125 1.171875q0.5 0.46875 2.65625 0.96875q2.15625 0.484375 2.953125 0.84375q1.171875 0.53125 1.71875 1.359375q0.5625 0.828125 0.5625 1.90625q0 1.0625 -0.609375 2.015625q-0.609375 0.9375 -1.75 1.46875q-1.140625 0.515625 -2.578125 0.515625q-1.8125 0 -3.046875 -0.53125q-1.21875 -0.53125 -1.921875 -1.59375q-0.6875 -1.0625 -0.71875 -2.40625z" fill-rule="nonzero"/><path fill="#fff2cc" d="m221.11417 48.396324l0 0c0 -14.124573 11.450241 -25.574802 25.574814 -25.574802l0 0c6.782852 0 13.287918 2.694481 18.084122 7.4906864c4.7962036 4.7962055 7.490692 11.301256 7.490692 18.084116l0 0c0 14.124577 -11.450256 25.574806 -25.574814 25.574806l0 0c-14.124573 0 -25.574814 -11.45023 -25.574814 -25.574806z" fill-rule="evenodd"/><path stroke="#000000" stroke-width="1.0" stroke-linejoin="round" stroke-linecap="butt" d="m221.11417 48.396324l0 0c0 -14.124573 11.450241 -25.574802 25.574814 -25.574802l0 0c6.782852 0 13.287918 2.694481 18.084122 7.4906864c4.7962036 4.7962055 7.490692 11.301256 7.490692 18.084116l0 0c0 14.124577 -11.450256 25.574806 -25.574814 25.574806l0 0c-14.124573 0 -25.574814 -11.45023 -25.574814 -25.574806z" fill-rule="evenodd"/><path fill="#fff2cc" d="m433.19028 48.396324l0 0c0 -14.124573 11.450226 -25.574802 25.57483 -25.574802l0 0c6.782837 0 13.287903 2.694481 18.084106 7.4906864c4.7962036 4.7962055 7.490692 11.301256 7.490692 18.084116l0 0c0 14.124577 -11.450226 25.574806 -25.574799 25.574806l0 0c-14.124603 0 -25.57483 -11.45023 -25.57483 -25.574806z" fill-rule="evenodd"/><path stroke="#000000" stroke-width="1.0" stroke-linejoin="round" stroke-linecap="butt" d="m433.19028 48.396324l0 0c0 -14.124573 11.450226 -25.574802 25.57483 -25.574802l0 0c6.782837 0 13.287903 2.694481 18.084106 7.4906864c4.7962036 4.7962055 7.490692 11.301256 7.490692 18.084116l0 0c0 14.124577 -11.450226 25.574806 -25.574799 25.574806l0 0c-14.124603 0 -25.57483 -11.45023 -25.57483 -25.574806z" fill-rule="evenodd"/><path fill="#d9ead3" d="m645.2664 48.396324l0 0c0 -14.124573 11.450195 -25.574802 25.574768 -25.574802l0 0c6.782898 0 13.287903 2.694481 18.084167 7.4906864c4.7962036 4.7962055 7.4906616 11.301256 7.4906616 18.084116l0 0c0 14.124577 -11.450256 25.574806 -25.57483 25.574806l0 0c-14.124573 0 -25.574768 -11.45023 -25.574768 -25.574806z" fill-rule="evenodd"/><path stroke="#000000" stroke-width="1.0" stroke-linejoin="round" stroke-linecap="butt" d="m645.2664 48.396324l0 0c0 -14.124573 11.450195 -25.574802 25.574768 -25.574802l0 0c6.782898 0 13.287903 2.694481 18.084167 7.4906864c4.7962036 4.7962055 7.4906616 11.301256 7.4906616 18.084116l0 0c0 14.124577 -11.450256 25.574806 -25.57483 25.574806l0 0c-14.124573 0 -25.574768 -11.45023 -25.574768 -25.574806z" fill-rule="evenodd"/><path fill="#000000" d="m665.54224 55.316326l0 -13.359375l4.609375 0q1.546875 0 2.375 0.203125q1.140625 0.25 1.953125 0.953125q1.0625 0.890625 1.578125 2.28125q0.53125 1.390625 0.53125 3.171875q0 1.515625 -0.359375 2.703125q-0.359375 1.171875 -0.921875 1.9375q-0.546875 0.765625 -1.203125 1.21875q-0.65625 0.4375 -1.59375 0.671875q-0.9375 0.21875 -2.140625 0.21875l-4.828125 0zm1.765625 -1.578125l2.859375 0q1.3125 0 2.0625 -0.234375q0.75 -0.25 1.203125 -0.703125q0.625 -0.625 0.96875 -1.6875q0.359375 -1.0625 0.359375 -2.578125q0 -2.09375 -0.6875 -3.21875q-0.6875 -1.125 -1.671875 -1.5q-0.703125 -0.28125 -2.28125 -0.28125l-2.8125 0l0 10.203125z" fill-rule="nonzero"/><path fill="#000000" fill-opacity="0.0" d="m60.187664 48.396324l160.91338 0" fill-rule="evenodd"/><path stroke="#000000" stroke-width="1.0" stroke-linejoin="round" stroke-linecap="butt" d="m60.187664 48.396324l160.91338 0" fill-rule="evenodd"/><path fill="#000000" fill-opacity="0.0" d="m272.2638 48.396324l160.91336 0" fill-rule="evenodd"/><path stroke="#000000" stroke-width="1.0" stroke-linejoin="round" stroke-linecap="butt" d="m272.2638 48.396324l160.91336 0" fill-rule="evenodd"/><path fill="#000000" fill-opacity="0.0" d="m484.3399 48.396324l160.91339 0" fill-rule="evenodd"/><path stroke="#000000" stroke-width="1.0" stroke-linejoin="round" stroke-linecap="butt" d="m484.3399 48.396324l160.91339 0" fill-rule="evenodd"/><path fill="#000000" fill-opacity="0.0" d="m55.981598 0l169.32283 0l0 33.322834l-169.32283 0z" fill-rule="evenodd"/><path fill="#9900ff" d="m69.88385 22.076248q0 -2.6875 1.484375 -3.96875q1.25 -1.078125 3.046875 -1.078125q2.0 0 3.265625 1.3125q1.265625 1.296875 1.265625 3.609375q0 1.859375 -0.5625 2.9375q-0.5625 1.0625 -1.640625 1.65625q-1.0625 0.59375 -2.328125 0.59375q-2.03125 0 -3.28125 -1.296875q-1.25 -1.3125 -1.25 -3.765625zm1.6875 0q0 1.859375 0.796875 2.796875q0.8125 0.921875 2.046875 0.921875q1.21875 0 2.03125 -0.921875q0.8125 -0.9375 0.8125 -2.84375q0 -1.796875 -0.8125 -2.71875q-0.8125 -0.921875 -2.03125 -0.921875q-1.234375 0 -2.046875 0.921875q-0.796875 0.90625 -0.796875 2.765625zm9.297592 4.84375l0 -9.671875l1.46875 0l0 1.375q1.0625 -1.59375 3.078125 -1.59375q0.875 0 1.609375 0.3125q0.734375 0.3125 1.09375 0.828125q0.375 0.5 0.515625 1.203125q0.09375 0.453125 0.09375 1.59375l0 5.953125l-1.640625 0l0 -5.890625q0 -1.0 -0.203125 -1.484375q-0.1875 -0.5 -0.671875 -0.796875q-0.484375 -0.296875 -1.140625 -0.296875q-1.046875 0 -1.8125 0.671875q-0.75 0.65625 -0.75 2.515625l0 5.28125l-1.640625 0zm17.000717 -3.109375l1.6875 0.203125q-0.40625 1.484375 -1.484375 2.3125q-1.078125 0.8125 -2.765625 0.8125q-2.125 0 -3.375 -1.296875q-1.234375 -1.3125 -1.234375 -3.671875q0 -2.453125 1.25 -3.796875q1.265625 -1.34375 3.265625 -1.34375q1.9375 0 3.15625 1.328125q1.234375 1.3125 1.234375 3.703125q0 0.15625 0 0.4375l-7.21875 0q0.09375 1.59375 0.90625 2.453125q0.8125 0.84375 2.015625 0.84375q0.90625 0 1.546875 -0.46875q0.640625 -0.484375 1.015625 -1.515625zm-5.390625 -2.65625l5.40625 0q-0.109375 -1.21875 -0.625 -1.828125q-0.78125 -0.953125 -2.03125 -0.953125q-1.125 0 -1.90625 0.765625q-0.765625 0.75 -0.84375 2.015625zm14.324646 5.765625l0 -13.359375l1.640625 0l0 4.796875q1.140625 -1.328125 2.890625 -1.328125q1.078125 0 1.859375 0.421875q0.796875 0.421875 1.140625 1.171875q0.34375 0.75 0.34375 2.171875l0 6.125l-1.640625 0l0 -6.125q0 -1.234375 -0.53125 -1.796875q-0.53125 -0.5625 -1.515625 -0.5625q-0.71875 0 -1.359375 0.390625q-0.640625 0.375 -0.921875 1.015625q-0.265625 0.640625 -0.265625 1.78125l0 5.296875l-1.640625 0zm9.766342 -4.84375q0 -2.6875 1.484375 -3.96875q1.25 -1.078125 3.046875 -1.078125q2.0 0 3.265625 1.3125q1.265625 1.296875 1.265625 3.609375q0 1.859375 -0.5625 2.9375q-0.5625 1.0625 -1.640625 1.65625q-1.0625 0.59375 -2.328125 0.59375q-2.03125 0 -3.28125 -1.296875q-1.25 -1.3125 -1.25 -3.765625zm1.6875 0q0 1.859375 0.796875 2.796875q0.8125 0.921875 2.046875 0.921875q1.21875 0 2.03125 -0.921875q0.8125 -0.9375 0.8125 -2.84375q0 -1.796875 -0.8125 -2.71875q-0.8125 -0.921875 -2.03125 -0.921875q-1.234375 0 -2.046875 0.921875q-0.796875 0.90625 -0.796875 2.765625zm9.297592 8.546875l0 -13.375l1.484375 0l0 1.25q0.53125 -0.734375 1.1875 -1.09375q0.671875 -0.375 1.625 -0.375q1.234375 0 2.171875 0.640625q0.953125 0.625 1.4375 1.796875q0.484375 1.15625 0.484375 2.546875q0 1.484375 -0.53125 2.671875q-0.53125 1.1875 -1.546875 1.828125q-1.015625 0.625 -2.140625 0.625q-0.8125 0 -1.46875 -0.34375q-0.65625 -0.34375 -1.0625 -0.875l0 4.703125l-1.640625 0zm1.484375 -8.484375q0 1.859375 0.75 2.765625q0.765625 0.890625 1.828125 0.890625q1.09375 0 1.875 -0.921875q0.78125 -0.9375 0.78125 -2.875q0 -1.84375 -0.765625 -2.765625q-0.75 -0.921875 -1.8125 -0.921875q-1.046875 0 -1.859375 0.984375q-0.796875 0.96875 -0.796875 2.84375zm13.434021 0.765625l0 -1.640625l5.03125 0l0 1.640625l-5.03125 0zm12.161606 4.015625l0 -13.359375l1.78125 0l0 11.78125l6.5625 0l0 1.578125l-8.34375 0zm18.406967 -1.578125l0 1.578125l-8.828125 0q-0.015625 -0.59375 0.1875 -1.140625q0.34375 -0.90625 1.078125 -1.78125q0.75 -0.875 2.15625 -2.015625q2.171875 -1.78125 2.9375 -2.828125q0.765625 -1.046875 0.765625 -1.96875q0 -0.984375 -0.703125 -1.640625q-0.6875 -0.671875 -1.8125 -0.671875q-1.1875 0 -1.90625 0.71875q-0.703125 0.703125 -0.703125 1.953125l-1.6875 -0.171875q0.171875 -1.890625 1.296875 -2.875q1.140625 -0.984375 3.03125 -0.984375q1.921875 0 3.046875 1.0625q1.125 1.0625 1.125 2.640625q0 0.796875 -0.328125 1.578125q-0.328125 0.78125 -1.09375 1.640625q-0.75 0.84375 -2.53125 2.34375q-1.46875 1.234375 -1.890625 1.6875q-0.421875 0.4375 -0.6875 0.875l6.546875 0z" fill-rule="nonzero"/><path fill="#9900ff" d="m185.6053 13.185623l5.9375 0l0 1.1875l-3.34375 0l0.671875 1.40625l-1.703125 0.296875l-0.59375 -1.703125l-1.484375 0q-0.671875 1.265625 -1.484375 2.078125l-1.109375 -0.96875q0.4375 -0.4375 0.953125 -1.109375l-2.515625 0l0.515625 1.109375l-1.703125 0.453125l-0.453125 -1.5625l-1.484375 0q-0.8125 1.1875 -1.78125 2.078125l-1.109375 -0.96875q2.0 -1.78125 2.75 -4.078125l1.5625 0.375q0.296875 0.296875 -0.234375 0.375l-0.515625 1.03125l4.96875 0l0 1.109375q0.828125 -1.25 1.265625 -2.890625l1.5625 0.375q0.296875 0.296875 -0.21875 0.375l-0.453125 1.03125zm-5.34375 5.421875l0 0.890625l2.890625 0l0 4.671875l-2.890625 0l0 0.890625l3.78125 0l0 1.1875l-3.78125 0l0 2.3125l-1.265625 0l0 -2.3125l-3.859375 0l0 -1.1875l3.859375 0l0 -0.890625l-1.484375 0l-1.40625 0l0 -4.671875l2.890625 0l0 -0.890625l-3.484375 0l0 -1.1875l3.484375 0l0 -1.265625l1.1875 0q0.59375 0.078125 0.078125 0.453125l0 0.8125l3.640625 0l0 1.1875l-3.640625 0zm-1.265625 2.75l0 -0.96875l-1.625 0l0 0.96875l1.625 0zm0 1.921875l0 -1.03125l-1.625 0l0 1.03125l1.625 0zm2.90625 0l0 -1.03125l-1.640625 0l0 1.03125l1.640625 0zm0 -1.921875l0 -0.96875l-1.640625 0l0 0.96875l1.640625 0zm7.265625 1.109375q0.296875 0 0.296875 -0.296875l0 -3.71875l-3.34375 0l0 7.65625q0 0.59375 0.453125 0.59375l3.046875 0q0.59375 0 0.734375 -0.53125l0.296875 -1.328125l1.5625 0.375l-0.453125 1.859375q-0.21875 1.03125 -1.546875 1.03125l-4.453125 0q-1.125 0 -1.125 -1.265625l0 -9.796875l6.3125 0l0 5.796875q0 1.03125 -0.96875 1.03125l-1.484375 0l-0.296875 -1.40625l0.96875 0zm7.640625 1.328125l2.3125 0l0 -0.953125l-1.1875 0l0 -1.1875l5.1875 0l0 -0.828125l-2.453125 0l-2.375 0l0 -2.8125l8.46875 0l0 2.8125l-2.375 0l0 0.828125l3.046875 0l0 1.1875l-3.046875 0l0 0.953125l3.9375 0l0 1.1875l-3.9375 0l0 1.125l-1.265625 0l0 -1.125l-6.3125 0l0 -1.1875zm8.015625 -7.421875l0 -1.03125l-2.671875 0l-0.296875 1.03125l2.96875 0zm-6.53125 -1.921875l2.75 0l0.21875 -1.046875l1.265625 0.078125q0.453125 0.15625 0 0.375l-0.140625 0.59375l3.703125 0l0 1.921875l2.15625 0l0 0.890625l-11.4375 0l0 -0.890625l3.71875 0l0.296875 -1.03125l-2.53125 0l0 -0.890625zm-2.21875 13.4375l0 0.59375l-1.484375 0l0 -16.5625l15.8125 0l0 16.484375l-1.484375 0l0 -0.515625l-12.84375 0zm12.84375 -14.78125l-12.84375 0l0 13.59375l12.84375 0l0 -13.59375zm-9.359375 6.828125l5.9375 0l0 -1.03125l-5.9375 0l0 1.03125zm0.8125 3.859375l2.75 0l0 -0.953125l-2.75 0l0 0.953125z" fill-rule="nonzero"/><path fill="#000000" fill-opacity="0.0" d="m197.60892 67.561676l310.23624 0l0 62.33072l-310.23624 0z" fill-rule="evenodd"/><path fill="#ff9900" d="m290.06067 91.3723l1.6875 0.203125q-0.40625 1.484375 -1.484375 2.3125q-1.078125 0.8125 -2.765625 0.8125q-2.125 0 -3.375 -1.296875q-1.234375 -1.3125 -1.234375 -3.671875q0 -2.453125 1.25 -3.796875q1.265625 -1.34375 3.265625 -1.34375q1.9375 0 3.15625 1.328125q1.234375 1.3125 1.234375 3.703125q0 0.15625 0 0.4375l-7.21875 0q0.09375 1.59375 0.90625 2.453125q0.8125 0.84375 2.015625 0.84375q0.90625 0 1.546875 -0.46875q0.640625 -0.484375 1.015625 -1.515625zm-5.390625 -2.65625l5.40625 0q-0.109375 -1.21875 -0.625 -1.828125q-0.78125 -0.953125 -2.03125 -0.953125q-1.125 0 -1.90625 0.765625q-0.765625 0.75 -0.84375 2.015625zm17.297607 4.1875l0 1.578125l-8.828125 0q-0.015625 -0.59375 0.1875 -1.140625q0.34375 -0.90625 1.078125 -1.78125q0.75 -0.875 2.15625 -2.015625q2.171875 -1.78125 2.9375 -2.828125q0.765625 -1.046875 0.765625 -1.96875q0 -0.984375 -0.703125 -1.640625q-0.6875 -0.671875 -1.8125 -0.671875q-1.1875 0 -1.90625 0.71875q-0.703125 0.703125 -0.703125 1.953125l-1.6875 -0.171875q0.171875 -1.890625 1.296875 -2.875q1.140625 -0.984375 3.03125 -0.984375q1.921875 0 3.046875 1.0625q1.125 1.0625 1.125 2.640625q0 0.796875 -0.328125 1.578125q-0.328125 0.78125 -1.09375 1.640625q-0.75 0.84375 -2.53125 2.34375q-1.46875 1.234375 -1.890625 1.6875q-0.421875 0.4375 -0.6875 0.875l6.546875 0zm8.844452 -1.53125l1.6875 0.203125q-0.40625 1.484375 -1.484375 2.3125q-1.078125 0.8125 -2.765625 0.8125q-2.125 0 -3.375 -1.296875q-1.234375 -1.3125 -1.234375 -3.671875q0 -2.453125 1.25 -3.796875q1.265625 -1.34375 3.265625 -1.34375q1.9375 0 3.15625 1.328125q1.234375 1.3125 1.234375 3.703125q0 0.15625 0 0.4375l-7.21875 0q0.09375 1.59375 0.90625 2.453125q0.8125 0.84375 2.015625 0.84375q0.90625 0 1.546875 -0.46875q0.640625 -0.484375 1.015625 -1.515625zm-5.390625 -2.65625l5.40625 0q-0.109375 -1.21875 -0.625 -1.828125q-0.78125 -0.953125 -2.03125 -0.953125q-1.125 0 -1.90625 0.765625q-0.765625 0.75 -0.84375 2.015625zm17.449646 9.6875q-1.359375 -1.703125 -2.296875 -4.0q-0.9375 -2.296875 -0.9375 -4.765625q0 -2.15625 0.703125 -4.140625q0.828125 -2.3125 2.53125 -4.59375l1.171875 0q-1.09375 1.890625 -1.453125 2.703125q-0.546875 1.25 -0.875 2.625q-0.390625 1.703125 -0.390625 3.421875q0 4.375 2.71875 8.75l-1.171875 0zm3.322052 -3.921875l0 -13.359375l9.65625 0l0 1.578125l-7.875 0l0 4.09375l7.375 0l0 1.5625l-7.375 0l0 4.546875l8.1875 0l0 1.578125l-9.96875 0zm12.209198 0l0 -9.671875l1.46875 0l0 1.375q1.0625 -1.59375 3.078125 -1.59375q0.875 0 1.609375 0.3125q0.734375 0.3125 1.09375 0.828125q0.375 0.5 0.515625 1.203125q0.09375 0.453125 0.09375 1.59375l0 5.953125l-1.640625 0l0 -5.890625q0 -1.0 -0.203125 -1.484375q-0.1875 -0.5 -0.671875 -0.796875q-0.484375 -0.296875 -1.140625 -0.296875q-1.046875 0 -1.8125 0.671875q-0.75 0.65625 -0.75 2.515625l0 5.28125l-1.640625 0zm16.641357 0l0 -1.21875q-0.90625 1.4375 -2.703125 1.4375q-1.15625 0 -2.125 -0.640625q-0.96875 -0.640625 -1.5 -1.78125q-0.53125 -1.140625 -0.53125 -2.625q0 -1.453125 0.484375 -2.625q0.484375 -1.1875 1.4375 -1.8125q0.96875 -0.625 2.171875 -0.625q0.875 0 1.546875 0.375q0.6875 0.359375 1.109375 0.953125l0 -4.796875l1.640625 0l0 13.359375l-1.53125 0zm-5.171875 -4.828125q0 1.859375 0.78125 2.78125q0.78125 0.921875 1.84375 0.921875q1.078125 0 1.828125 -0.875q0.75 -0.890625 0.75 -2.6875q0 -1.984375 -0.765625 -2.90625q-0.765625 -0.9375 -1.890625 -0.9375q-1.078125 0 -1.8125 0.890625q-0.734375 0.890625 -0.734375 2.8125zm18.043396 3.359375l0.234375 1.453125q-0.6875 0.140625 -1.234375 0.140625q-0.890625 0 -1.390625 -0.28125q-0.484375 -0.28125 -0.6875 -0.734375q-0.203125 -0.46875 -0.203125 -1.9375l0 -5.578125l-1.203125 0l0 -1.265625l1.203125 0l0 -2.390625l1.625 -0.984375l0 3.375l1.65625 0l0 1.265625l-1.65625 0l0 5.671875q0 0.6875 0.078125 0.890625q0.09375 0.203125 0.28125 0.328125q0.203125 0.109375 0.578125 0.109375q0.265625 0 0.71875 -0.0625zm0.9957886 -3.375q0 -2.6875 1.484375 -3.96875q1.25 -1.078125 3.046875 -1.078125q2.0 0 3.265625 1.3125q1.265625 1.296875 1.265625 3.609375q0 1.859375 -0.5625 2.9375q-0.5625 1.0625 -1.640625 1.65625q-1.0625 0.59375 -2.328125 0.59375q-2.03125 0 -3.28125 -1.296875q-1.25 -1.3125 -1.25 -3.765625zm1.6875 0q0 1.859375 0.796875 2.796875q0.8125 0.921875 2.046875 0.921875q1.21875 0 2.03125 -0.921875q0.8125 -0.9375 0.8125 -2.84375q0 -1.796875 -0.8125 -2.71875q-0.8125 -0.921875 -2.03125 -0.921875q-1.234375 0 -2.046875 0.921875q-0.796875 0.90625 -0.796875 2.765625zm14.715271 4.84375l0 -13.359375l9.65625 0l0 1.578125l-7.875 0l0 4.09375l7.375 0l0 1.5625l-7.375 0l0 4.546875l8.1875 0l0 1.578125l-9.96875 0zm12.209198 0l0 -9.671875l1.46875 0l0 1.375q1.0625 -1.59375 3.078125 -1.59375q0.875 0 1.609375 0.3125q0.734375 0.3125 1.09375 0.828125q0.375 0.5 0.515625 1.203125q0.09375 0.453125 0.09375 1.59375l0 5.953125l-1.640625 0l0 -5.890625q0 -1.0 -0.203125 -1.484375q-0.1875 -0.5 -0.671875 -0.796875q-0.484375 -0.296875 -1.140625 -0.296875q-1.046875 0 -1.8125 0.671875q-0.75 0.65625 -0.75 2.515625l0 5.28125l-1.640625 0zm16.641357 0l0 -1.21875q-0.90625 1.4375 -2.703125 1.4375q-1.15625 0 -2.125 -0.640625q-0.96875 -0.640625 -1.5 -1.78125q-0.53125 -1.140625 -0.53125 -2.625q0 -1.453125 0.484375 -2.625q0.484375 -1.1875 1.4375 -1.8125q0.96875 -0.625 2.171875 -0.625q0.875 0 1.546875 0.375q0.6875 0.359375 1.109375 0.953125l0 -4.796875l1.640625 0l0 13.359375l-1.53125 0zm-5.171875 -4.828125q0 1.859375 0.78125 2.78125q0.78125 0.921875 1.84375 0.921875q1.078125 0 1.828125 -0.875q0.75 -0.890625 0.75 -2.6875q0 -1.984375 -0.765625 -2.90625q-0.765625 -0.9375 -1.890625 -0.9375q-1.078125 0 -1.8125 0.890625q-0.734375 0.890625 -0.734375 2.8125zm10.360077 8.75l-1.1875 0q2.734375 -4.375 2.734375 -8.75q0 -1.71875 -0.390625 -3.390625q-0.3125 -1.375 -0.875 -2.625q-0.359375 -0.828125 -1.46875 -2.734375l1.1875 0q1.703125 2.28125 2.53125 4.59375q0.6875 1.984375 0.6875 4.140625q0 2.46875 -0.9375 4.765625q-0.9375 2.296875 -2.28125 4.0z" fill-rule="nonzero"/><path fill="#ff9900" d="m223.48071 116.881676l0 -13.359375l1.78125 0l0 11.78125l6.5625 0l0 1.578125l-8.34375 0zm9.797592 -3.53125l1.640625 -0.21875q0.28125 1.40625 0.953125 2.015625q0.6875 0.609375 1.65625 0.609375q1.15625 0 1.953125 -0.796875q0.796875 -0.796875 0.796875 -1.984375q0 -1.125 -0.734375 -1.859375q-0.734375 -0.734375 -1.875 -0.734375q-0.46875 0 -1.15625 0.171875l0.1875 -1.4375q0.15625 0.015625 0.265625 0.015625q1.046875 0 1.875 -0.546875q0.84375 -0.546875 0.84375 -1.671875q0 -0.90625 -0.609375 -1.5q-0.609375 -0.59375 -1.578125 -0.59375q-0.953125 0 -1.59375 0.609375q-0.640625 0.59375 -0.8125 1.796875l-1.640625 -0.296875q0.296875 -1.640625 1.359375 -2.546875q1.0625 -0.90625 2.65625 -0.90625q1.09375 0 2.0 0.46875q0.921875 0.46875 1.40625 1.28125q0.5 0.8125 0.5 1.71875q0 0.859375 -0.46875 1.578125q-0.46875 0.703125 -1.375 1.125q1.1875 0.28125 1.84375 1.140625q0.65625 0.859375 0.65625 2.15625q0 1.734375 -1.28125 2.953125q-1.265625 1.21875 -3.21875 1.21875q-1.765625 0 -2.921875 -1.046875q-1.15625 -1.046875 -1.328125 -2.71875zm15.371521 -0.484375l0 -1.640625l5.03125 0l0 1.640625l-5.03125 0z" fill-rule="nonzero"/><path fill="#ff9900" d="m275.34268 116.131676q0.359375 0 0.359375 -0.359375l0.078125 -1.71875l1.484375 0.75l-0.078125 1.5625q-0.0625 1.703125 -1.40625 1.703125q-1.921875 0 -3.9375 -3.125q-1.78125 1.71875 -4.671875 3.34375l-0.890625 -1.625q2.890625 -1.34375 4.828125 -3.265625q-0.8125 -2.375 -0.96875 -5.640625l-2.890625 0.0625l0 -1.03125l-2.375 0l0 3.640625l2.515625 -0.59375l0 1.328125l-2.515625 0.75l0 5.265625q0 1.1875 -0.96875 1.1875l-1.625 0l-0.234375 -1.40625l1.046875 0q0.296875 0 0.296875 -0.296875l0 -4.453125l-2.15625 0.59375q-0.296875 0.734375 -0.59375 0l-0.296875 -1.5625l3.046875 -0.59375l0 -3.859375l-2.828125 0l0 -1.40625l2.828125 0l0 -3.796875l1.40625 0q0.59375 0.078125 0.078125 0.453125l0 3.34375l2.453125 0l0 1.03125l2.671875 -0.078125q-0.078125 -2.296875 -0.078125 -4.515625l1.625 0q0.75 0 0.078125 0.59375q0 1.84375 0.078125 3.78125l5.640625 -0.21875l0 1.40625l-5.5625 0.21875q0.140625 2.453125 0.59375 4.3125q1.109375 -1.34375 1.921875 -3.125l1.34375 0.96875q0.59375 0.375 -0.234375 0.4375q-1.109375 1.78125 -2.375 3.421875q1.34375 2.515625 2.3125 2.515625zm-0.75 -10.828125q-0.8125 -1.1875 -1.78125 -2.078125l1.265625 -0.890625q1.03125 0.890625 1.78125 2.0l-1.265625 0.96875zm4.3125 4.078125q2.890625 -3.484375 3.484375 -7.796875l1.40625 0.234375q0.75 0.140625 0 0.65625q-0.515625 2.078125 -1.1875 3.796875q0.8125 0.4375 0.21875 0.65625l0 11.734375l-1.484375 0l0 -9.953125q-0.734375 1.1875 -1.40625 1.9375l-1.03125 -1.265625zm6.234375 1.34375l0 -5.71875l3.859375 0l0 -0.75l-4.90625 0l0 -1.1875l4.90625 0l0 -1.546875l1.40625 0q0.59375 0.0625 0.078125 0.4375l0 1.109375l5.484375 0l0 1.1875l-5.484375 0l0 0.75l4.078125 0l0 5.421875l-1.109375 0q1.1875 0.8125 2.4375 1.84375l-1.03125 0.75l-0.890625 -0.75l-1.046875 0.078125l0 1.34375l3.640625 0l0 1.1875l-3.640625 0l0 2.375q0 1.328125 -1.109375 1.328125l-1.625 0l-0.296875 -1.40625l1.328125 0q0.21875 0 0.21875 -0.21875l0 -2.078125l-4.21875 0q0.890625 0.734375 1.703125 1.84375l-1.265625 0.96875q-0.734375 -0.96875 -1.78125 -1.921875l1.046875 -0.890625l-3.34375 0l0 -1.1875l7.859375 0l0 -1.265625l-6.453125 0.296875q-0.515625 0.671875 -0.671875 -0.078125l-0.21875 -1.1875l4.90625 0l0 -1.03125l-2.609375 0l0 0.296875l-1.25 0zm5.34375 -4.53125l0 0.890625l2.8125 0l0 -0.890625l-2.8125 0zm-4.09375 0l0 0.890625l2.609375 0l0 -0.890625l-2.609375 0zm4.09375 2.078125l0 0.96875l2.8125 0l0 -0.96875l-2.8125 0zm0 2.15625l0 0.953125l2.4375 0l-0.8125 -0.59375l0.8125 -0.359375l-2.4375 0zm-1.484375 -2.15625l-2.609375 0l0 0.96875l2.609375 0l0 -0.96875zm12.6875 -2.53125q-0.96875 -1.484375 -2.234375 -2.4375l1.1875 -1.125q1.640625 1.1875 2.234375 2.375l-1.1875 1.1875zm-3.34375 11.140625l2.53125 -1.484375l0 -4.96875l-2.375 0l0 -1.421875l3.859375 0l0 6.015625q1.703125 1.703125 4.0 1.703125l9.203125 0l-0.375 1.421875l-9.046875 0q-2.453125 0 -4.53125 -2.015625l-2.453125 2.453125l-0.8125 -1.703125zm16.25 -6.53125l-5.046875 0l-0.0625 0.671875q2.96875 1.328125 4.8125 3.03125l-1.03125 1.640625q-2.453125 -2.53125 -4.3125 -3.34375q-1.03125 1.9375 -4.21875 3.78125l-0.890625 -1.546875q3.859375 -1.9375 4.21875 -4.234375l-4.671875 0l0 -1.40625l4.75 0l0 -2.453125l-4.15625 0l0 -1.40625l2.59375 0q-0.8125 -1.421875 -1.921875 -2.453125l1.328125 -0.890625q1.046875 0.96875 1.9375 2.453125l-1.1875 0.890625l2.515625 0l1.78125 -3.71875l1.640625 0.75q0.296875 0.296875 -0.21875 0.359375l-1.71875 2.609375l3.265625 0l0 1.40625l-4.375 0l0 2.453125l4.96875 0l0 1.40625zm16.921875 5.859375l0 -3.34375l-3.703125 0l0 3.34375l3.703125 0zm1.484375 2.015625l-1.484375 0l0 -0.828125l-3.703125 0l0 1.046875l-1.484375 0l0 -6.765625l6.671875 0l0 6.546875zm-5.265625 -13.8125q0.375 1.03125 1.859375 2.671875q1.328125 -1.78125 1.703125 -2.671875l-3.5625 0zm1.859375 4.75q-2.59375 2.375 -4.828125 3.1875l-0.671875 -1.484375q2.078125 -0.671875 4.53125 -2.8125q-0.59375 -0.59375 -1.5625 -2.15625q-0.734375 1.703125 -1.484375 2.453125l-1.109375 -1.125q1.78125 -2.375 2.75 -5.9375l1.5625 0.453125q0.296875 0.296875 -0.234375 0.375l-0.359375 0.890625l3.78125 0l0.21875 -0.375l1.1875 0.96875q0.296875 0.21875 -0.296875 0.4375q-1.03125 2.375 -2.453125 4.015625q2.53125 1.921875 4.3125 2.515625l-0.59375 1.640625q-1.78125 -0.59375 -4.75 -3.046875zm-5.421875 -6.6875l0 5.5l-1.859375 0l0 2.75l1.71875 0l0 1.40625l-1.71875 0l0 3.40625l2.609375 -0.8125l0.296875 1.34375l-6.828125 1.921875q-0.078125 0.59375 -0.375 0.296875l-0.59375 -1.625l0.890625 -0.15625l0 -6.90625l1.40625 0q0.59375 0.078125 0.078125 0.453125l0 6.078125l1.03125 -0.21875l0 -7.9375l-1.328125 0l-1.265625 0l0 -5.5l5.9375 0zm-1.484375 4.3125l0 -3.125l-2.96875 0l0 3.125l2.96875 0zm18.703125 -4.671875q0.671875 0.359375 -0.078125 0.4375q-1.546875 2.53125 -3.78125 4.375l-0.96875 -1.328125q2.3125 -1.78125 3.640625 -4.15625l1.1875 0.671875zm0.515625 3.703125q0.75 0.375 -0.140625 0.453125q-0.75 1.328125 -1.484375 2.4375l0 9.734375l-1.484375 0l0 -7.953125q-0.8125 0.890625 -1.640625 1.5625l-0.8125 -1.5625q2.671875 -2.140625 4.15625 -5.34375l1.40625 0.671875zm6.171875 7.046875l0 3.5625l5.40625 0l0 1.421875l-12.3125 0l0 -1.421875l5.421875 0l0 -3.5625l-4.453125 0l0 -1.40625l10.390625 0l0 1.40625l-4.453125 0zm4.96875 -9.203125l-11.0625 0l0 -1.40625l11.0625 0l0 1.40625zm-8.015625 0.828125q0.8125 0.359375 -0.078125 0.4375l-1.484375 2.453125q1.046875 1.5625 1.859375 3.1875l-1.859375 0.453125q-0.515625 -2.078125 -1.5625 -3.5l1.5625 -3.40625l1.5625 0.375zm3.5625 -0.078125q0.671875 0.296875 -0.15625 0.4375l-1.546875 2.453125q1.484375 1.78125 2.296875 3.1875l-1.859375 0.453125q-0.671875 -1.5625 -2.078125 -3.484375l1.78125 -3.34375l1.5625 0.296875zm3.703125 0q0.828125 0.21875 -0.0625 0.4375l-1.640625 2.53125q1.34375 1.40625 2.296875 2.890625l-1.625 0.59375q-0.890625 -1.625 -2.375 -3.34375l1.625 -3.328125l1.78125 0.21875z" fill-rule="nonzero"/><path fill="#ff9900" d="m359.63538 117.11605l3.875 -13.8125l1.3125 0l-3.859375 13.8125l-1.328125 0zm11.725983 -0.234375l0 -13.359375l1.78125 0l0 11.78125l6.5625 0l0 1.578125l-8.34375 0zm15.047577 0l0 -3.203125l-5.796875 0l0 -1.5l6.09375 -8.65625l1.34375 0l0 8.65625l1.796875 0l0 1.5l-1.796875 0l0 3.203125l-1.640625 0zm0 -4.703125l0 -6.015625l-4.1875 6.015625l4.1875 0zm10.121521 0.6875l0 -1.640625l5.03125 0l0 1.640625l-5.03125 0z" fill-rule="nonzero"/><path fill="#ff9900" d="m410.5202 112.350426q0.453125 0.15625 -0.0625 0.453125q0 1.703125 -0.75 4.15625l-1.328125 -0.671875q0.65625 -2.296875 0.734375 -4.15625l1.40625 0.21875zm2.671875 -9.640625q-0.953125 1.328125 -2.375 3.1875q0.375 0.21875 1.046875 0.734375q1.40625 -1.78125 2.15625 -2.890625l1.1875 0.75q0.4375 0.21875 -0.15625 0.4375q-2.96875 3.5625 -3.78125 4.53125q1.265625 -0.078125 2.453125 -0.21875q-0.234375 -0.53125 -0.59375 -1.125l1.1875 -0.359375q0.65625 0.953125 1.703125 2.890625l-1.40625 0.515625q-0.234375 -0.515625 -0.296875 -0.8125q-0.828125 0.140625 -1.5625 0.21875l0 7.953125l-1.484375 0l0 -7.734375q-1.1875 0.15625 -2.453125 0.234375q-0.296875 0.515625 -0.515625 -0.078125l-0.296875 -1.34375q0.734375 0 1.5625 -0.0625q0.734375 -0.828125 1.40625 -1.71875q-1.40625 -1.109375 -2.75 -1.921875l0.8125 -1.109375l0.671875 0.4375q1.34375 -1.859375 2.296875 -3.640625l1.1875 0.671875q0.53125 0.21875 0 0.453125zm9.203125 -0.296875q-0.359375 0.8125 -1.109375 2.4375l3.34375 0l0 1.421875l-2.828125 0l0 2.375l2.15625 0l0 1.40625l-2.15625 0l0 2.375l2.15625 0l0 1.40625l-2.15625 0l0 2.671875l3.421875 0l0 1.421875l-6.984375 0l0 0.59375l-1.484375 0l0 -10.921875q-0.515625 0.671875 -0.953125 1.265625l-0.75 -1.265625q2.453125 -2.890625 2.828125 -6.078125l1.328125 0.296875q0.515625 0.21875 -0.078125 0.4375q-0.359375 1.34375 -0.890625 2.59375l1.5625 0q0.8125 -1.625 1.40625 -3.265625l1.265625 0.375q0.515625 0.21875 -0.078125 0.453125zm-4.15625 6.234375l2.078125 0l0 -2.375l-2.078125 0l0 2.375zm-3.328125 3.484375q0.515625 1.1875 0.890625 3.1875l-1.484375 0.375q-0.296875 -2.15625 -0.671875 -3.265625l1.265625 -0.296875zm5.40625 0.296875l0 -2.375l-2.078125 0l0 2.375l2.078125 0zm0 4.078125l0 -2.671875l-2.078125 0l0 2.671875l2.078125 0zm18.046875 0.53125l1.1875 0q0.296875 0 0.296875 -0.3125l0 -4.21875l-6.09375 0l0 -1.421875l6.09375 0l0 -2.0l-6.46875 0l0 -1.40625l4.3125 0l0 -2.15625l-3.421875 0l0 -1.40625l3.421875 0l0 -2.53125l1.40625 0q0.59375 0.078125 0.078125 0.453125l0 2.078125l3.703125 0l0 1.40625l-3.703125 0l0 2.15625l5.125 0l0 1.40625l-2.96875 0l0 2.0l2.59375 0l0 1.421875l-2.59375 0l0 4.75q0 1.1875 -1.1875 1.1875l-1.484375 0l-0.296875 -1.40625zm-9.796875 0l1.03125 0q0.296875 0 0.296875 -0.3125l0 -4.59375l-1.5625 0.515625q-0.296875 0.75 -0.515625 0.078125l-0.515625 -1.40625l2.59375 -0.671875l0 -4.375l-2.296875 0l0 -1.421875l2.296875 0l0 -3.328125l1.40625 0q0.59375 0.0625 0.078125 0.4375l0 2.890625l2.15625 0l0 1.421875l-2.15625 0l0 3.921875l1.859375 -0.65625l0.375 1.25l-2.234375 0.890625l0 5.578125q0 1.1875 -1.1875 1.1875l-1.328125 0l-0.296875 -1.40625zm7.265625 -3.71875q0.890625 0.59375 1.859375 1.859375l-1.1875 1.109375q-0.75 -0.96875 -1.78125 -1.9375l1.109375 -1.03125zm22.12497 -4.609375l-6.5312195 0l0 0.53125l-1.484375 0l0 -6.90625l9.4999695 0l0 6.75l-1.484375 0l0 -0.375zm-6.5312195 -1.40625l6.5312195 0l0 -3.5625l-6.5312195 0l0 3.5625zm9.4218445 9.796875l-3.5625 0l0 1.34375l-1.484375 0l0 -7.875l6.53125 0l0 7.65625l-1.484375 0l0 -1.125zm-3.5625 -5.125l0 3.71875l3.5625 0l0 -3.71875l-3.5625 0zm-8.4687195 0l0 3.71875l3.5625 0l0 -3.71875l-3.5625 0zm3.5625 5.125l-3.5625 0l0 1.34375l-1.484375 0l0 -7.875l6.5312195 0l0 7.65625l-1.4843445 0l0 -1.125zm28.203094 -14.25q0.453125 0.515625 -0.359375 0.21875q-2.234375 0.375 -4.609375 0.53125l0 0.8125l6.453125 0l0 1.1875l-2.59375 0l0 1.703125l-1.484375 0l0 -1.703125l-2.515625 0q-0.375 1.265625 -1.5625 2.375l5.421875 0l0 7.71875l-2.75 0q1.921875 1.03125 4.96875 1.40625l-0.59375 1.5625q-3.046875 -0.4375 -5.484375 -1.78125l0.890625 -1.1875l-4.984375 0l0.75 1.109375q0.21875 0.53125 -0.515625 0.234375q-2.375 0.953125 -5.203125 1.546875l-0.515625 -1.484375q3.109375 -0.4375 5.046875 -1.40625l-2.828125 0l0 -7.71875l5.578125 0l-0.828125 -0.96875q1.484375 -1.1875 1.484375 -3.265625l0 -1.5625l1.421875 0.375q2.296875 -0.296875 4.0 -0.734375l0.8125 1.03125zm-7.421875 0.21875q0.078125 0.453125 -0.59375 0.15625q-2.21875 0.21875 -4.21875 0.4375l0 0.75l5.1875 0l0 1.1875l-1.78125 0l0 1.703125l-1.484375 0l0 -1.703125l-2.0 0q-0.15625 1.78125 -1.640625 3.109375l-0.953125 -1.03125q1.40625 -1.109375 1.40625 -3.640625l0 -1.78125l1.1875 0.375q2.453125 -0.296875 4.0 -0.8125l0.890625 1.25zm4.6875 11.4375l0 -1.1875l-8.25 0l0 1.1875l8.25 0zm0 -2.078125l0 -1.1875l-8.25 0l0 1.1875l8.25 0zm0 -2.078125l0 -1.1875l-8.25 0l0 1.1875l8.25 0z" fill-rule="nonzero"/></g></svg>