<svg version="1.1" viewBox="0.0 0.0 280.73228346456693 273.65879265091866" fill="none" stroke="none" stroke-linecap="square" stroke-miterlimit="10" xmlns:xlink="http://www.w3.org/1999/xlink" xmlns="http://www.w3.org/2000/svg"><clipPath id="p.0"><path d="m0 0l280.73227 0l0 273.65878l-280.73227 0l0 -273.65878z" clip-rule="nonzero"/></clipPath><g clip-path="url(#p.0)"><path fill="#000000" fill-opacity="0.0" d="m0 0l280.73227 0l0 273.65878l-280.73227 0z" fill-rule="evenodd"/><path fill="#000000" fill-opacity="0.0" d="m108.66265 5.647041l45.826775 0l0 44.15748l-45.826775 0z" fill-rule="evenodd"/><path fill="#000000" d="m131.43736 24.297039q4.15625 0 6.5 2.96875q2.796875 3.515625 2.796875 11.65625q0 8.125 -2.8125 11.6875q-2.328125 2.921875 -6.484375 2.921875q-4.1874924 0 -6.7499924 -3.203125q-2.546875 -3.21875 -2.546875 -11.46875q0 -8.078125 2.8125 -11.640625q2.3125 -2.921875 6.4843674 -2.921875zm0 4.546875q-1.0 0 -1.78125 0.640625q-0.78125 0.625 -1.21875 2.265625q-0.5624924 2.140625 -0.5624924 7.171875q0 5.046875 0.49999237 6.9375q0.515625 1.875 1.28125 2.5q0.78125 0.625 1.78125 0.625q0.984375 0 1.765625 -0.625q0.78125 -0.640625 1.21875 -2.28125q0.5625 -2.109375 0.5625 -7.15625q0 -5.03125 -0.515625 -6.921875q-0.5 -1.890625 -1.28125 -2.515625q-0.765625 -0.640625 -1.75 -0.640625z" fill-rule="nonzero"/><path fill="#dd7e6b" d="m108.6643 26.071243l-44.740158 0c-23.683014 0 -42.88189 19.198875 -42.88189 42.88189l0 30.629921l-12.251968 0l24.503937 24.503937l24.503937 -24.503937l-12.251968 0l0 -30.629921l0 0c0 -10.14986 8.228088 -18.377953 18.377953 -18.377953l44.740158 0z" fill-rule="evenodd"/><path stroke="#dd7e6b" stroke-width="1.0" stroke-linejoin="round" stroke-linecap="butt" d="m108.6643 26.071243l-44.740158 0c-23.683014 0 -42.88189 19.198875 -42.88189 42.88189l0 30.629921l-12.251968 0l24.503937 24.503937l24.503937 -24.503937l-12.251968 0l0 -30.629921l0 0c0 -10.14986 8.228088 -18.377953 18.377953 -18.377953l44.740158 0z" fill-rule="evenodd"/><path fill="#000000" fill-opacity="0.0" d="m-6.2151566 116.07874l67.779526 0l0 44.188972l-67.779526 0z" fill-rule="evenodd"/><path fill="#000000" d="m9.924606 155.83812l0 -5.484375l10.78125 0l0 5.484375l-10.78125 0zm21.289062 7.640625l-10.234375 -28.640625l6.265625 0l7.25 21.203125l7.015625 -21.203125l6.125 0l-10.25 28.640625l-6.171875 0z" fill-rule="nonzero"/><path fill="#dd7e6b" d="m254.37048 111.66279l0 -42.88189c0 -23.683014 -19.198883 -42.88189 -42.881897 -42.88189l-32.48819 0l0 -12.251969l-24.503937 24.503937l24.503937 24.503937l0 -12.251968l32.48819 0l0 0c10.149872 0 18.37796 8.228088 18.37796 18.377953l0 42.88189z" fill-rule="evenodd"/><path stroke="#dd7e6b" stroke-width="1.0" stroke-linejoin="round" stroke-linecap="butt" d="m254.37048 111.66279l0 -42.88189c0 -23.683014 -19.198883 -42.88189 -42.881897 -42.88189l-32.48819 0l0 -12.251969l-24.503937 24.503937l24.503937 24.503937l0 -12.251968l32.48819 0l0 0c10.149872 0 18.37796 8.228088 18.37796 18.377953l0 42.88189z" fill-rule="evenodd"/><path fill="#dd7e6b" d="m23.907127 168.93588l0 46.81299c0 21.696747 17.588688 39.28543 39.28543 39.28543l28.061028 0l0 11.224396l22.448814 -22.448807l-22.448814 -22.448822l0 11.224411l-28.061028 0l0 0c-9.298603 0 -16.836613 -7.5380096 -16.836613 -16.836609l0 -46.81299z" fill-rule="evenodd"/><path stroke="#dd7e6b" stroke-width="1.0" stroke-linejoin="round" stroke-linecap="butt" d="m23.907127 168.93588l0 46.81299c0 21.696747 17.588688 39.28543 39.28543 39.28543l28.061028 0l0 11.224396l22.448814 -22.448807l-22.448814 -22.448822l0 11.224411l-28.061028 0l0 0c-9.298603 0 -16.836613 -7.5380096 -16.836613 -16.836609l0 -46.81299z" fill-rule="evenodd"/><path fill="#000000" fill-opacity="0.0" d="m108.661415 212.51463l45.826775 0l0 55.49608l-45.826775 0z" fill-rule="evenodd"/><path fill="#000000" d="m131.43613 231.16464q4.15625 0 6.5 2.96875q2.796875 3.515625 2.796875 11.65625q0 8.125 -2.8125 11.6875q-2.328125 2.921875 -6.484375 2.921875q-4.1874924 0 -6.7499924 -3.203125q-2.546875 -3.21875 -2.546875 -11.46875q0 -8.078125 2.8125 -11.640625q2.3125 -2.921875 6.4843674 -2.921875zm0 4.546875q-1.0 0 -1.78125 0.640625q-0.78125 0.625 -1.21875 2.265625q-0.5624924 2.140625 -0.5624924 7.171875q0 5.046875 0.49999237 6.9375q0.515625 1.875 1.28125 2.5q0.78125 0.625 1.78125 0.625q0.984375 0 1.765625 -0.625q0.78125 -0.640625 1.21875 -2.28125q0.5625 -2.109375 0.5625 -7.15625q0 -5.03125 -0.515625 -6.921875q-0.5 -1.890625 -1.28125 -2.515625q-0.765625 -0.640625 -1.75 -0.640625z" fill-rule="nonzero"/><path fill="#dd7e6b" d="m160.11021 255.8897l52.344482 0c22.838287 0 41.352356 -18.514084 41.352356 -41.35237l0 -29.5374l11.814957 0l-23.629913 -23.629913l-23.629913 23.629913l11.814957 0l0 29.5374l0 0c0 9.787842 -7.934601 17.722443 -17.722443 17.722443l-52.344482 0z" fill-rule="evenodd"/><path stroke="#dd7e6b" stroke-width="1.0" stroke-linejoin="round" stroke-linecap="butt" d="m160.11021 255.8897l52.344482 0c22.838287 0 41.352356 -18.514084 41.352356 -41.35237l0 -29.5374l11.814957 0l-23.629913 -23.629913l-23.629913 23.629913l11.814957 0l0 29.5374l0 0c0 9.787842 -7.934601 17.722443 -17.722443 17.722443l-52.344482 0z" fill-rule="evenodd"/><path fill="#000000" fill-opacity="0.0" d="m199.63991 116.07874l87.30708 0l0 44.188972l-87.30708 0z" fill-rule="evenodd"/><path fill="#000000" d="m227.43018 159.35374l0 -7.4375l-7.5 0l0 -5.140625l7.5 0l0 -7.4375l5.0 0l0 7.4375l7.53125 0l0 5.140625l-7.53125 0l0 7.4375l-5.0 0zm24.421875 4.125l-10.234375 -28.640625l6.265625 0l7.25 21.203125l7.015625 -21.203125l6.125 0l-10.25 28.640625l-6.171875 0z" fill-rule="nonzero"/></g></svg>