<svg version="1.1" viewBox="0.0 0.0 616.0971128608924 339.0236220472441" fill="none" stroke="none" stroke-linecap="square" stroke-miterlimit="10" xmlns:xlink="http://www.w3.org/1999/xlink" xmlns="http://www.w3.org/2000/svg"><clipPath id="p.0"><path d="m0 0l616.0971 0l0 339.02362l-616.0971 0l0 -339.02362z" clip-rule="nonzero"/></clipPath><g clip-path="url(#p.0)"><path fill="#000000" fill-opacity="0.0" d="m0 0l616.0971 0l0 339.02362l-616.0971 0z" fill-rule="evenodd"/><path fill="#cfe2f3" d="m8.043307 111.44882l50.07874 0l0 50.078735l-50.07874 0z" fill-rule="evenodd"/><path stroke="#000000" stroke-width="1.0" stroke-linejoin="round" stroke-linecap="butt" d="m8.043307 111.44882l50.07874 0l0 50.078735l-50.07874 0z" fill-rule="evenodd"/><path fill="#000000" d="m26.82964 143.40819l5.125 -13.359375l1.90625 0l5.46875 13.359375l-2.015625 0l-1.546875 -4.046875l-5.59375 0l-1.46875 4.046875l-1.875 0zm3.859375 -5.484375l4.53125 0l-1.40625 -3.703125q-0.625 -1.6875 -0.9375 -2.765625q-0.265625 1.28125 -0.71875 2.546875l-1.46875 3.921875z" fill-rule="nonzero"/><path fill="#d9ead3" d="m162.57874 12.833333l50.07875 0l0 50.078743l-50.07875 0z" fill-rule="evenodd"/><path stroke="#000000" stroke-width="1.0" stroke-linejoin="round" stroke-linecap="butt" d="m162.57874 12.833333l50.07875 0l0 50.078743l-50.07875 0z" fill-rule="evenodd"/><path fill="#000000" d="m182.75569 44.7927l0 -13.359373l5.015625 0q1.53125 0 2.453125 0.40625q0.921875 0.4062481 1.4375 1.2499981q0.53125 0.84375 0.53125 1.765625q0 0.859375 -0.46875 1.625q-0.453125 0.75 -1.390625 1.203125q1.203125 0.359375 1.859375 1.21875q0.65625 0.859375 0.65625 2.015625q0 0.9375 -0.40625 1.75q-0.390625 0.796875 -0.984375 1.234375q-0.578125 0.4375 -1.453125 0.671875q-0.875 0.21875 -2.15625 0.21875l-5.09375 0zm1.78125 -7.75l2.875 0q1.1875 0 1.6875 -0.140625q0.671875 -0.203125 1.015625 -0.671875q0.34375 -0.46875 0.34375 -1.171875q0 -0.65625 -0.328125 -1.15625q-0.3125 -0.515625 -0.90625 -0.703125q-0.59375 -0.1875 -2.03125 -0.1875l-2.65625 0l0 4.03125zm0 6.171875l3.3125 0q0.859375 0 1.203125 -0.0625q0.609375 -0.109375 1.015625 -0.359375q0.421875 -0.265625 0.6875 -0.75q0.265625 -0.484375 0.265625 -1.125q0 -0.75 -0.390625 -1.296875q-0.375 -0.546875 -1.0625 -0.765625q-0.671875 -0.234375 -1.953125 -0.234375l-3.078125 0l0 4.59375z" fill-rule="nonzero"/><path fill="#f4cccc" d="m162.57874 213.2664l50.07875 0l0 50.07875l-50.07875 0z" fill-rule="evenodd"/><path stroke="#000000" stroke-width="1.0" stroke-linejoin="round" stroke-linecap="butt" d="m162.57874 213.2664l50.07875 0l0 50.07875l-50.07875 0z" fill-rule="evenodd"/><path fill="#000000" d="m191.85039 240.53827l1.765625 0.453125q-0.5625 2.171875 -2.0 3.328125q-1.4375 1.140625 -3.53125 1.140625q-2.15625 0 -3.515625 -0.875q-1.34375 -0.890625 -2.0625 -2.546875q-0.703125 -1.671875 -0.703125 -3.59375q0 -2.078125 0.796875 -3.625q0.796875 -1.5625 2.265625 -2.359375q1.484375 -0.8125 3.25 -0.8125q2.0 0 3.359375 1.015625q1.375 1.015625 1.90625 2.875l-1.734375 0.40625q-0.46875 -1.453125 -1.359375 -2.109375q-0.875 -0.671875 -2.203125 -0.671875q-1.546875 0 -2.578125 0.734375q-1.03125 0.734375 -1.453125 1.984375q-0.421875 1.234375 -0.421875 2.5625q0 1.703125 0.5 2.96875q0.5 1.265625 1.546875 1.90625q1.046875 0.625 2.265625 0.625q1.484375 0 2.515625 -0.859375q1.03125 -0.859375 1.390625 -2.546875z" fill-rule="nonzero"/><path fill="#fff2cc" d="m318.18765 111.44882l50.078766 0l0 50.078735l-50.078766 0z" fill-rule="evenodd"/><path stroke="#000000" stroke-width="1.0" stroke-linejoin="round" stroke-linecap="butt" d="m318.18765 111.44882l50.078766 0l0 50.078735l-50.078766 0z" fill-rule="evenodd"/><path fill="#000000" d="m337.92807 143.40819l0 -13.359375l4.609375 0q1.546875 0 2.375 0.203125q1.140625 0.25 1.953125 0.953125q1.0625 0.890625 1.578125 2.28125q0.53125 1.390625 0.53125 3.171875q0 1.515625 -0.359375 2.703125q-0.359375 1.171875 -0.921875 1.9375q-0.546875 0.765625 -1.203125 1.21875q-0.65625 0.4375 -1.59375 0.671875q-0.9375 0.21875 -2.140625 0.21875l-4.828125 0zm1.765625 -1.578125l2.859375 0q1.3125 0 2.0625 -0.234375q0.75 -0.25 1.203125 -0.703125q0.625 -0.625 0.96875 -1.6875q0.359375 -1.0625 0.359375 -2.578125q0 -2.09375 -0.6875 -3.21875q-0.6875 -1.125 -1.671875 -1.5q-0.703125 -0.28125 -2.28125 -0.28125l-2.8125 0l0 10.203125z" fill-rule="nonzero"/><path fill="#ead1dc" d="m557.97504 12.833333l50.078796 0l0 50.078743l-50.078796 0z" fill-rule="evenodd"/><path stroke="#000000" stroke-width="1.0" stroke-linejoin="round" stroke-linecap="butt" d="m557.97504 12.833333l50.078796 0l0 50.078743l-50.078796 0z" fill-rule="evenodd"/><path fill="#000000" d="m578.8477 44.7927l0 -13.359373l9.015625 0l0 1.5781231l-7.25 0l0 4.140625l6.265625 0l0 1.578125l-6.265625 0l0 6.0625l-1.765625 0z" fill-rule="nonzero"/><path fill="#d9d2e9" d="m557.97504 202.54462l50.078796 0l0 50.078735l-50.078796 0z" fill-rule="evenodd"/><path stroke="#000000" stroke-width="1.0" stroke-linejoin="round" stroke-linecap="butt" d="m557.97504 202.54462l50.078796 0l0 50.078735l-50.078796 0z" fill-rule="evenodd"/><path fill="#000000" d="m583.4462 229.2696l0 -1.578125l5.65625 0l0 4.953125q-1.296875 1.046875 -2.6875 1.578125q-1.375 0.515625 -2.84375 0.515625q-1.96875 0 -3.578125 -0.84375q-1.609375 -0.84375 -2.421875 -2.4375q-0.8125 -1.59375 -0.8125 -3.5625q0 -1.953125 0.8125 -3.640625q0.8125 -1.6875 2.34375 -2.5q1.53125 -0.828125 3.515625 -0.828125q1.453125 0 2.625 0.46875q1.171875 0.46875 1.828125 1.3125q0.671875 0.828125 1.015625 2.171875l-1.59375 0.4375q-0.296875 -1.015625 -0.75 -1.59375q-0.4375 -0.59375 -1.265625 -0.9375q-0.828125 -0.34375 -1.84375 -0.34375q-1.203125 0 -2.09375 0.375q-0.890625 0.359375 -1.4375 0.96875q-0.53125 0.59375 -0.828125 1.3125q-0.515625 1.234375 -0.515625 2.6875q0 1.78125 0.609375 2.984375q0.625 1.203125 1.796875 1.796875q1.171875 0.578125 2.5 0.578125q1.140625 0 2.234375 -0.4375q1.09375 -0.453125 1.65625 -0.953125l0 -2.484375l-3.921875 0z" fill-rule="nonzero"/><path fill="#fce5cd" d="m334.83072 276.11154l50.078735 0l0 50.078735l-50.078735 0z" fill-rule="evenodd"/><path stroke="#000000" stroke-width="1.0" stroke-linejoin="round" stroke-linecap="butt" d="m334.83072 276.11154l50.078735 0l0 50.078735l-50.078735 0z" fill-rule="evenodd"/><path fill="#000000" d="m355.11703 308.07092l0 -13.359375l9.65625 0l0 1.578125l-7.875 0l0 4.09375l7.375 0l0 1.5625l-7.375 0l0 4.546875l8.1875 0l0 1.578125l-9.96875 0z" fill-rule="nonzero"/><path fill="#000000" fill-opacity="0.0" d="m33.082676 111.44882l129.51181 -73.57481" fill-rule="evenodd"/><path stroke="#980000" stroke-width="3.0" stroke-linejoin="round" stroke-linecap="butt" d="m33.082676 111.44882l129.51181 -73.57481" fill-rule="evenodd"/><path fill="#000000" fill-opacity="0.0" d="m212.65749 37.872704l345.3228 0" fill-rule="evenodd"/><path stroke="#980000" stroke-width="3.0" stroke-linejoin="round" stroke-linecap="butt" d="m212.65749 37.872704l345.3228 0" fill-rule="evenodd"/><path fill="#000000" fill-opacity="0.0" d="m33.082676 161.52756l129.51181 76.7874" fill-rule="evenodd"/><path stroke="#980000" stroke-width="3.0" stroke-linejoin="round" stroke-linecap="butt" d="m33.082676 161.52756l129.51181 76.7874" fill-rule="evenodd"/><path fill="#000000" fill-opacity="0.0" d="m212.65749 238.30577l105.54329 -101.82677" fill-rule="evenodd"/><path stroke="#980000" stroke-width="3.0" stroke-linejoin="round" stroke-linecap="butt" d="m212.65749 238.30577l105.54329 -101.82677" fill-rule="evenodd"/><path fill="#000000" fill-opacity="0.0" d="m318.18765 136.48819l-105.54329 -98.614174" fill-rule="evenodd"/><path stroke="#980000" stroke-width="3.0" stroke-linejoin="round" stroke-linecap="butt" d="m318.18765 136.48819l-105.54329 -98.614174" fill-rule="evenodd"/><path fill="#000000" fill-opacity="0.0" d="m368.26642 136.48819l189.70074 -98.614174" fill-rule="evenodd"/><path stroke="#980000" stroke-width="3.0" stroke-linejoin="round" stroke-linecap="butt" d="m368.26642 136.48819l189.70074 -98.614174" fill-rule="evenodd"/><path fill="#000000" fill-opacity="0.0" d="m368.26642 136.48819l189.70074 91.08661" fill-rule="evenodd"/><path stroke="#980000" stroke-width="3.0" stroke-linejoin="round" stroke-linecap="butt" d="m368.26642 136.48819l189.70074 91.08661" fill-rule="evenodd"/><path fill="#000000" fill-opacity="0.0" d="m583.01447 62.912075l0 139.62204" fill-rule="evenodd"/><path stroke="#980000" stroke-width="3.0" stroke-linejoin="round" stroke-linecap="butt" d="m583.01447 62.912075l0 139.62204" fill-rule="evenodd"/><path fill="#000000" fill-opacity="0.0" d="m212.65749 238.30577l122.17323 62.83464" fill-rule="evenodd"/><path stroke="#980000" stroke-width="3.0" stroke-linejoin="round" stroke-linecap="butt" d="m212.65749 238.30577l122.17323 62.83464" fill-rule="evenodd"/><path fill="#000000" fill-opacity="0.0" d="m384.90945 301.1509l173.07083 -73.5748" fill-rule="evenodd"/><path stroke="#980000" stroke-width="3.0" stroke-linejoin="round" stroke-linecap="butt" d="m384.90945 301.1509l173.07083 -73.5748" fill-rule="evenodd"/><path fill="#000000" fill-opacity="0.0" d="m343.22702 161.52756l16.629944 114.58267" fill-rule="evenodd"/><path stroke="#980000" stroke-width="3.0" stroke-linejoin="round" stroke-linecap="butt" d="m343.22702 161.52756l16.629944 114.58267" fill-rule="evenodd"/></g></svg>