<svg version="1.1" viewBox="0.0 0.0 455.12073490813646 167.56167979002623" fill="none" stroke="none" stroke-linecap="square" stroke-miterlimit="10" xmlns:xlink="http://www.w3.org/1999/xlink" xmlns="http://www.w3.org/2000/svg"><clipPath id="p.0"><path d="m0 0l455.12073 0l0 167.56168l-455.12073 0l0 -167.56168z" clip-rule="nonzero"/></clipPath><g clip-path="url(#p.0)"><path fill="#000000" fill-opacity="0.0" d="m0 0l455.12073 0l0 167.56168l-455.12073 0z" fill-rule="evenodd"/><path fill="#000000" fill-opacity="0.0" d="m0 3.199475l32.800526 0l0 34.401577l30.398949 0l0 48.0l36.800526 0l0 73.59843l30.398956 0l0 -44.0l30.401566 0l0 -38.398956l34.398956 0l0 44.0l32.80052 0l0 -120.80052l32.800537 0l0 61.60105l32.797882 0l0 -39.202103l32.0 0l0 30.401575l33.601044 0l0 -9.601051l35.199493 0l0 45.601048l29.601044 0l0 -39.999996l31.199463 0" fill-rule="evenodd"/><path stroke="#000000" stroke-width="3.0" stroke-linejoin="round" stroke-linecap="butt" d="m0 3.199475l32.800526 0l0 34.401577l30.398949 0l0 48.0l36.800526 0l0 73.59843l30.398956 0l0 -44.0l30.401566 0l0 -38.398956l34.398956 0l0 44.0l32.80052 0l0 -120.80052l32.800537 0l0 61.60105l32.797882 0l0 -39.202103l32.0 0l0 30.401575l33.601044 0l0 -9.601051l35.199493 0l0 45.601048l29.601044 0l0 -39.999996l31.199463 0" fill-rule="evenodd"/></g></svg>