<svg version="1.1" viewBox="0.0 0.0 690.488188976378 427.31758530183725" fill="none" stroke="none" stroke-linecap="square" stroke-miterlimit="10" xmlns:xlink="http://www.w3.org/1999/xlink" xmlns="http://www.w3.org/2000/svg"><clipPath id="p.0"><path d="m0 0l690.48816 0l0 427.3176l-690.48816 0l0 -427.3176z" clip-rule="nonzero"/></clipPath><g clip-path="url(#p.0)"><path fill="#000000" fill-opacity="0.0" d="m0 0l690.48816 0l0 427.3176l-690.48816 0z" fill-rule="evenodd"/><path fill="#000000" fill-opacity="0.0" d="m168.46295 39.807896l0 381.32285" fill-rule="evenodd"/><path stroke="#a4c2f4" stroke-width="2.0" stroke-linejoin="round" stroke-linecap="butt" stroke-dasharray="8.0,6.0" d="m168.46295 39.807896l0 381.32285" fill-rule="evenodd"/><path fill="#000000" fill-opacity="0.0" d="m215.52412 39.807896l0 381.32285" fill-rule="evenodd"/><path stroke="#a4c2f4" stroke-width="2.0" stroke-linejoin="round" stroke-linecap="butt" stroke-dasharray="8.0,6.0" d="m215.52412 39.807896l0 381.32285" fill-rule="evenodd"/><path fill="#000000" fill-opacity="0.0" d="m262.5853 39.807896l0 381.32285" fill-rule="evenodd"/><path stroke="#a4c2f4" stroke-width="2.0" stroke-linejoin="round" stroke-linecap="butt" stroke-dasharray="8.0,6.0" d="m262.5853 39.807896l0 381.32285" fill-rule="evenodd"/><path fill="#000000" fill-opacity="0.0" d="m309.64645 39.807896l0 381.32285" fill-rule="evenodd"/><path stroke="#a4c2f4" stroke-width="2.0" stroke-linejoin="round" stroke-linecap="butt" stroke-dasharray="8.0,6.0" d="m309.64645 39.807896l0 381.32285" fill-rule="evenodd"/><path fill="#000000" fill-opacity="0.0" d="m356.70764 39.807896l0 381.32285" fill-rule="evenodd"/><path stroke="#a4c2f4" stroke-width="2.0" stroke-linejoin="round" stroke-linecap="butt" stroke-dasharray="8.0,6.0" d="m356.70764 39.807896l0 381.32285" fill-rule="evenodd"/><path fill="#000000" fill-opacity="0.0" d="m403.7688 39.807896l0 381.32285" fill-rule="evenodd"/><path stroke="#a4c2f4" stroke-width="2.0" stroke-linejoin="round" stroke-linecap="butt" stroke-dasharray="8.0,6.0" d="m403.7688 39.807896l0 381.32285" fill-rule="evenodd"/><path fill="#000000" fill-opacity="0.0" d="m450.83 39.807896l0 381.32285" fill-rule="evenodd"/><path stroke="#a4c2f4" stroke-width="2.0" stroke-linejoin="round" stroke-linecap="butt" stroke-dasharray="8.0,6.0" d="m450.83 39.807896l0 381.32285" fill-rule="evenodd"/><path fill="#000000" fill-opacity="0.0" d="m497.89114 39.807896l0 381.32285" fill-rule="evenodd"/><path stroke="#a4c2f4" stroke-width="2.0" stroke-linejoin="round" stroke-linecap="butt" stroke-dasharray="8.0,6.0" d="m497.89114 39.807896l0 381.32285" fill-rule="evenodd"/><path fill="#000000" fill-opacity="0.0" d="m544.95233 39.807896l0 381.32285" fill-rule="evenodd"/><path stroke="#a4c2f4" stroke-width="2.0" stroke-linejoin="round" stroke-linecap="butt" stroke-dasharray="8.0,6.0" d="m544.95233 39.807896l0 381.32285" fill-rule="evenodd"/><path fill="#000000" fill-opacity="0.0" d="m592.0135 39.807896l0 381.32285" fill-rule="evenodd"/><path stroke="#a4c2f4" stroke-width="2.0" stroke-linejoin="round" stroke-linecap="butt" stroke-dasharray="8.0,6.0" d="m592.0135 39.807896l0 381.32285" fill-rule="evenodd"/><path fill="#000000" fill-opacity="0.0" d="m639.07465 39.807896l0 381.32285" fill-rule="evenodd"/><path stroke="#a4c2f4" stroke-width="2.0" stroke-linejoin="round" stroke-linecap="butt" stroke-dasharray="8.0,6.0" d="m639.07465 39.807896l0 381.32285" fill-rule="evenodd"/><path fill="#000000" fill-opacity="0.0" d="m686.13586 39.807896l0 381.32285" fill-rule="evenodd"/><path stroke="#a4c2f4" stroke-width="2.0" stroke-linejoin="round" stroke-linecap="butt" stroke-dasharray="8.0,6.0" d="m686.13586 39.807896l0 381.32285" fill-rule="evenodd"/><path fill="#000000" fill-opacity="0.0" d="m168.46295 6.1865616l47.055115 0l0 26.771652l-47.055115 0z" fill-rule="evenodd"/><path fill="#000000" d="m191.91904 20.338436q2.21875 0 3.46875 1.578125q1.484375 1.875 1.484375 6.21875q0 4.328125 -1.5 6.234375q-1.234375 1.5625 -3.453125 1.5625q-2.234375 0 -3.609375 -1.71875q-1.359375 -1.71875 -1.359375 -6.109375q0 -4.3125 1.5 -6.203125q1.25 -1.5625 3.46875 -1.5625zm0 2.421875q-0.53125 0 -0.953125 0.34375q-0.421875 0.34375 -0.640625 1.21875q-0.3125 1.125 -0.3125 3.8125q0 2.6875 0.265625 3.703125q0.28125 1.0 0.6875 1.328125q0.421875 0.328125 0.953125 0.328125q0.53125 0 0.9375 -0.328125q0.421875 -0.34375 0.65625 -1.21875q0.296875 -1.125 0.296875 -3.8125q0 -2.6875 -0.28125 -3.6875q-0.265625 -1.0 -0.671875 -1.34375q-0.40625 -0.34375 -0.9375 -0.34375z" fill-rule="nonzero"/><path fill="#000000" fill-opacity="0.0" d="m215.52412 6.1865616l47.0551 0l0 26.771652l-47.0551 0z" fill-rule="evenodd"/><path fill="#000000" d="m241.51146 35.66656l-2.921875 0l0 -11.03125q-1.609375 1.5 -3.78125 2.21875l0 -2.65625q1.140625 -0.375 2.484375 -1.421875q1.34375 -1.046875 1.84375 -2.4375l2.375 0l0 15.328125z" fill-rule="nonzero"/><path fill="#000000" fill-opacity="0.0" d="m262.58853 6.1865616l47.055145 0l0 26.771652l-47.055145 0z" fill-rule="evenodd"/><path fill="#000000" d="m286.04465 20.338436q2.21875 0 3.46875 1.578125q1.484375 1.875 1.484375 6.21875q0 4.328125 -1.5 6.234375q-1.234375 1.5625 -3.453125 1.5625q-2.234375 0 -3.609375 -1.71875q-1.359375 -1.71875 -1.359375 -6.109375q0 -4.3125 1.5 -6.203125q1.25 -1.5625 3.46875 -1.5625zm0 2.421875q-0.53125 0 -0.953125 0.34375q-0.421875 0.34375 -0.640625 1.21875q-0.3125 1.125 -0.3125 3.8125q0 2.6875 0.265625 3.703125q0.28125 1.0 0.6875 1.328125q0.421875 0.328125 0.953125 0.328125q0.53125 0 0.9375 -0.328125q0.421875 -0.34375 0.65625 -1.21875q0.296875 -1.125 0.296875 -3.8125q0 -2.6875 -0.28125 -3.6875q-0.265625 -1.0 -0.671875 -1.34375q-0.40625 -0.34375 -0.9375 -0.34375z" fill-rule="nonzero"/><path fill="#000000" fill-opacity="0.0" d="m309.64972 6.1865616l47.055115 0l0 26.771652l-47.055115 0z" fill-rule="evenodd"/><path fill="#000000" d="m333.1058 20.338436q2.21875 0 3.46875 1.578125q1.484375 1.875 1.484375 6.21875q0 4.328125 -1.5 6.234375q-1.234375 1.5625 -3.453125 1.5625q-2.234375 0 -3.609375 -1.71875q-1.359375 -1.71875 -1.359375 -6.109375q0 -4.3125 1.5 -6.203125q1.25 -1.5625 3.46875 -1.5625zm0 2.421875q-0.53125 0 -0.953125 0.34375q-0.421875 0.34375 -0.640625 1.21875q-0.3125 1.125 -0.3125 3.8125q0 2.6875 0.265625 3.703125q0.28125 1.0 0.6875 1.328125q0.421875 0.328125 0.953125 0.328125q0.53125 0 0.9375 -0.328125q0.421875 -0.34375 0.65625 -1.21875q0.296875 -1.125 0.296875 -3.8125q0 -2.6875 -0.28125 -3.6875q-0.265625 -1.0 -0.671875 -1.34375q-0.40625 -0.34375 -0.9375 -0.34375z" fill-rule="nonzero"/><path fill="#000000" fill-opacity="0.0" d="m356.71414 6.1865616l47.055115 0l0 26.771652l-47.055115 0z" fill-rule="evenodd"/><path fill="#000000" d="m382.70148 35.66656l-2.921875 0l0 -11.03125q-1.609375 1.5 -3.78125 2.21875l0 -2.65625q1.140625 -0.375 2.484375 -1.421875q1.34375 -1.046875 1.84375 -2.4375l2.375 0l0 15.328125z" fill-rule="nonzero"/><path fill="#000000" fill-opacity="0.0" d="m403.77533 6.1865616l47.055115 0l0 26.771652l-47.055115 0z" fill-rule="evenodd"/><path fill="#000000" d="m429.76266 35.66656l-2.921875 0l0 -11.03125q-1.609375 1.5 -3.78125 2.21875l0 -2.65625q1.140625 -0.375 2.484375 -1.421875q1.34375 -1.046875 1.84375 -2.4375l2.375 0l0 15.328125z" fill-rule="nonzero"/><path fill="#000000" fill-opacity="0.0" d="m450.8365 6.1865616l47.055115 0l0 26.771652l-47.055115 0z" fill-rule="evenodd"/><path fill="#000000" d="m474.29257 20.338436q2.21875 0 3.46875 1.578125q1.484375 1.875 1.484375 6.21875q0 4.328125 -1.5 6.234375q-1.234375 1.5625 -3.453125 1.5625q-2.234375 0 -3.609375 -1.71875q-1.359375 -1.71875 -1.359375 -6.109375q0 -4.3125 1.5 -6.203125q1.25 -1.5625 3.46875 -1.5625zm0 2.421875q-0.53125 0 -0.953125 0.34375q-0.421875 0.34375 -0.640625 1.21875q-0.3125 1.125 -0.3125 3.8125q0 2.6875 0.265625 3.703125q0.28125 1.0 0.6875 1.328125q0.421875 0.328125 0.953125 0.328125q0.53125 0 0.9375 -0.328125q0.421875 -0.34375 0.65625 -1.21875q0.296875 -1.125 0.296875 -3.8125q0 -2.6875 -0.28125 -3.6875q-0.265625 -1.0 -0.671875 -1.34375q-0.40625 -0.34375 -0.9375 -0.34375z" fill-rule="nonzero"/><path fill="#000000" fill-opacity="0.0" d="m497.89767 6.1865616l47.055084 0l0 26.771652l-47.055084 0z" fill-rule="evenodd"/><path fill="#000000" d="m521.35376 20.338436q2.21875 0 3.46875 1.578125q1.484375 1.875 1.484375 6.21875q0 4.328125 -1.5 6.234375q-1.234375 1.5625 -3.453125 1.5625q-2.234375 0 -3.609375 -1.71875q-1.359375 -1.71875 -1.359375 -6.109375q0 -4.3125 1.5 -6.203125q1.25 -1.5625 3.46875 -1.5625zm0 2.421875q-0.53125 0 -0.953125 0.34375q-0.421875 0.34375 -0.640625 1.21875q-0.3125 1.125 -0.3125 3.8125q0 2.6875 0.265625 3.703125q0.28125 1.0 0.6875 1.328125q0.421875 0.328125 0.953125 0.328125q0.53125 0 0.9375 -0.328125q0.421875 -0.34375 0.65625 -1.21875q0.296875 -1.125 0.296875 -3.8125q0 -2.6875 -0.28125 -3.6875q-0.265625 -1.0 -0.671875 -1.34375q-0.40625 -0.34375 -0.9375 -0.34375z" fill-rule="nonzero"/><path fill="#000000" fill-opacity="0.0" d="m544.95886 6.1865616l47.055115 0l0 26.771652l-47.055115 0z" fill-rule="evenodd"/><path fill="#000000" d="m568.4149 20.338436q2.21875 0 3.46875 1.578125q1.484375 1.875 1.484375 6.21875q0 4.328125 -1.5 6.234375q-1.234375 1.5625 -3.453125 1.5625q-2.234375 0 -3.609375 -1.71875q-1.359375 -1.71875 -1.359375 -6.109375q0 -4.3125 1.5 -6.203125q1.25 -1.5625 3.46875 -1.5625zm0 2.421875q-0.53125 0 -0.953125 0.34375q-0.421875 0.34375 -0.640625 1.21875q-0.3125 1.125 -0.3125 3.8125q0 2.6875 0.265625 3.703125q0.28125 1.0 0.6875 1.328125q0.421875 0.328125 0.953125 0.328125q0.53125 0 0.9375 -0.328125q0.421875 -0.34375 0.65625 -1.21875q0.296875 -1.125 0.296875 -3.8125q0 -2.6875 -0.28125 -3.6875q-0.265625 -1.0 -0.671875 -1.34375q-0.40625 -0.34375 -0.9375 -0.34375z" fill-rule="nonzero"/><path fill="#000000" fill-opacity="0.0" d="m592.02 6.1865616l47.055115 0l0 26.771652l-47.055115 0z" fill-rule="evenodd"/><path fill="#000000" d="m618.0073 35.66656l-2.921875 0l0 -11.03125q-1.609375 1.5 -3.78125 2.21875l0 -2.65625q1.140625 -0.375 2.484375 -1.421875q1.34375 -1.046875 1.84375 -2.4375l2.375 0l0 15.328125z" fill-rule="nonzero"/><path fill="#000000" fill-opacity="0.0" d="m639.0812 6.1865616l47.055115 0l0 26.771652l-47.055115 0z" fill-rule="evenodd"/><path fill="#000000" d="m665.06854 35.66656l-2.921875 0l0 -11.03125q-1.609375 1.5 -3.78125 2.21875l0 -2.65625q1.140625 -0.375 2.484375 -1.421875q1.34375 -1.046875 1.84375 -2.4375l2.375 0l0 15.328125z" fill-rule="nonzero"/><path fill="#000000" fill-opacity="0.0" d="m168.46295 76.30821l47.55905 0" fill-rule="evenodd"/><path stroke="#d5a6bd" stroke-width="4.0" stroke-linejoin="round" stroke-linecap="butt" d="m168.46295 76.30821l47.55905 0" fill-rule="evenodd"/><path fill="#000000" fill-opacity="0.0" d="m163.57973 49.5312l9.763779 0" fill-rule="evenodd"/><path stroke="#d5a6bd" stroke-width="4.0" stroke-linejoin="round" stroke-linecap="butt" d="m163.57973 49.5312l9.763779 0" fill-rule="evenodd"/><path fill="#000000" fill-opacity="0.0" d="m130.77046 36.144356l32.787415 0l0 26.771656l-32.787415 0z" fill-rule="evenodd"/><path fill="#d5a6bd" d="m143.17068 54.149982l0 -2.09375l-2.078125 0l0 -0.875l2.078125 0l0 -2.078125l0.875 0l0 2.078125l2.078125 0l0 0.875l-2.078125 0l0 2.09375l-0.875 0zm6.5512085 1.234375l-2.953125 -7.625l1.09375 0l1.984375 5.53125q0.234375 0.671875 0.390625 1.25q0.1875 -0.625 0.421875 -1.25l2.0625 -5.53125l1.03125 0l-3.0 7.625l-1.03125 0z" fill-rule="nonzero"/><path fill="#000000" fill-opacity="0.0" d="m130.77046 62.922596l32.787415 0l0 26.771656l-32.787415 0z" fill-rule="evenodd"/><path fill="#d5a6bd" d="m142.1798 79.86572l0 -0.9375l2.875 0l0 0.9375l-2.875 0zm6.2048645 2.296875l-2.953125 -7.625l1.09375 0l1.984375 5.53125q0.234375 0.671875 0.390625 1.25q0.1875 -0.625 0.421875 -1.25l2.0625 -5.53125l1.03125 0l-3.0 7.625l-1.03125 0z" fill-rule="nonzero"/><path fill="#000000" fill-opacity="0.0" d="m163.57973 76.30821l9.763779 0" fill-rule="evenodd"/><path stroke="#d5a6bd" stroke-width="4.0" stroke-linejoin="round" stroke-linecap="butt" d="m163.57973 76.30821l9.763779 0" fill-rule="evenodd"/><path fill="#000000" fill-opacity="0.0" d="m215.27345 49.5312l47.559036 0" fill-rule="evenodd"/><path stroke="#d5a6bd" stroke-width="4.0" stroke-linejoin="round" stroke-linecap="butt" d="m215.27345 49.5312l47.559036 0" fill-rule="evenodd"/><path fill="#000000" fill-opacity="0.0" d="m262.5853 76.30821l47.55905 0" fill-rule="evenodd"/><path stroke="#d5a6bd" stroke-width="4.0" stroke-linejoin="round" stroke-linecap="butt" d="m262.5853 76.30821l47.55905 0" fill-rule="evenodd"/><path fill="#000000" fill-opacity="0.0" d="m309.39578 76.30821l47.55905 0" fill-rule="evenodd"/><path stroke="#d5a6bd" stroke-width="4.0" stroke-linejoin="round" stroke-linecap="butt" d="m309.39578 76.30821l47.55905 0" fill-rule="evenodd"/><path fill="#000000" fill-opacity="0.0" d="m356.45697 49.5312l47.55905 0" fill-rule="evenodd"/><path stroke="#d5a6bd" stroke-width="4.0" stroke-linejoin="round" stroke-linecap="butt" d="m356.45697 49.5312l47.55905 0" fill-rule="evenodd"/><path fill="#000000" fill-opacity="0.0" d="m403.51813 49.5312l47.55905 0" fill-rule="evenodd"/><path stroke="#d5a6bd" stroke-width="4.0" stroke-linejoin="round" stroke-linecap="butt" d="m403.51813 49.5312l47.55905 0" fill-rule="evenodd"/><path fill="#000000" fill-opacity="0.0" d="m450.5793 76.30821l47.55905 0" fill-rule="evenodd"/><path stroke="#d5a6bd" stroke-width="4.0" stroke-linejoin="round" stroke-linecap="butt" d="m450.5793 76.30821l47.55905 0" fill-rule="evenodd"/><path fill="#000000" fill-opacity="0.0" d="m497.64047 76.30821l47.55905 0" fill-rule="evenodd"/><path stroke="#d5a6bd" stroke-width="4.0" stroke-linejoin="round" stroke-linecap="butt" d="m497.64047 76.30821l47.55905 0" fill-rule="evenodd"/><path fill="#000000" fill-opacity="0.0" d="m544.70166 76.30821l47.55902 0" fill-rule="evenodd"/><path stroke="#d5a6bd" stroke-width="4.0" stroke-linejoin="round" stroke-linecap="butt" d="m544.70166 76.30821l47.55902 0" fill-rule="evenodd"/><path fill="#000000" fill-opacity="0.0" d="m591.7628 49.5312l47.559082 0" fill-rule="evenodd"/><path stroke="#d5a6bd" stroke-width="4.0" stroke-linejoin="round" stroke-linecap="butt" d="m591.7628 49.5312l47.559082 0" fill-rule="evenodd"/><path fill="#000000" fill-opacity="0.0" d="m639.07465 49.5312l47.559082 0" fill-rule="evenodd"/><path stroke="#d5a6bd" stroke-width="4.0" stroke-linejoin="round" stroke-linecap="butt" d="m639.07465 49.5312l47.559082 0" fill-rule="evenodd"/><path fill="#000000" fill-opacity="0.0" d="m216.02708 49.932465l0 26.771652" fill-rule="evenodd"/><path stroke="#d5a6bd" stroke-width="4.0" stroke-linejoin="round" stroke-linecap="butt" d="m216.02708 49.932465l0 26.771652" fill-rule="evenodd"/><path fill="#000000" fill-opacity="0.0" d="m261.78607 49.932465l0 26.771652" fill-rule="evenodd"/><path stroke="#d5a6bd" stroke-width="4.0" stroke-linejoin="round" stroke-linecap="butt" d="m261.78607 49.932465l0 26.771652" fill-rule="evenodd"/><path fill="#000000" fill-opacity="0.0" d="m356.28442 49.932465l0 26.771652" fill-rule="evenodd"/><path stroke="#d5a6bd" stroke-width="4.0" stroke-linejoin="round" stroke-linecap="butt" d="m356.28442 49.932465l0 26.771652" fill-rule="evenodd"/><path fill="#000000" fill-opacity="0.0" d="m451.0367 49.932465l0 26.771652" fill-rule="evenodd"/><path stroke="#d5a6bd" stroke-width="4.0" stroke-linejoin="round" stroke-linecap="butt" d="m451.0367 49.932465l0 26.771652" fill-rule="evenodd"/><path fill="#000000" fill-opacity="0.0" d="m592.26416 49.5312l0 26.771656" fill-rule="evenodd"/><path stroke="#d5a6bd" stroke-width="4.0" stroke-linejoin="round" stroke-linecap="butt" d="m592.26416 49.5312l0 26.771656" fill-rule="evenodd"/><path fill="#000000" fill-opacity="0.0" d="m163.57973 110.99958l9.763779 0" fill-rule="evenodd"/><path stroke="#ff9900" stroke-width="4.0" stroke-linejoin="round" stroke-linecap="butt" d="m163.57973 110.99958l9.763779 0" fill-rule="evenodd"/><path fill="#000000" fill-opacity="0.0" d="m130.77046 97.615555l32.787415 0l0 26.771652l-32.787415 0z" fill-rule="evenodd"/><path fill="#ff9900" d="m143.17068 115.62118l0 -2.09375l-2.078125 0l0 -0.875l2.078125 0l0 -2.078125l0.875 0l0 2.078125l2.078125 0l0 0.875l-2.078125 0l0 2.09375l-0.875 0zm6.5512085 1.234375l-2.953125 -7.625l1.09375 0l1.984375 5.53125q0.234375 0.671875 0.390625 1.25q0.1875 -0.625 0.421875 -1.25l2.0625 -5.53125l1.03125 0l-3.0 7.625l-1.03125 0z" fill-rule="nonzero"/><path fill="#000000" fill-opacity="0.0" d="m130.77046 124.39379l32.787415 0l0 26.77166l-32.787415 0z" fill-rule="evenodd"/><path fill="#ff9900" d="m142.1798 141.33691l0 -0.9375l2.875 0l0 0.9375l-2.875 0zm6.2048645 2.296875l-2.953125 -7.625l1.09375 0l1.984375 5.53125q0.234375 0.671875 0.390625 1.25q0.1875 -0.625 0.421875 -1.25l2.0625 -5.53125l1.03125 0l-3.0 7.625l-1.03125 0z" fill-rule="nonzero"/><path fill="#000000" fill-opacity="0.0" d="m163.57973 137.7766l9.763779 0" fill-rule="evenodd"/><path stroke="#ff9900" stroke-width="4.0" stroke-linejoin="round" stroke-linecap="butt" d="m163.57973 137.7766l9.763779 0" fill-rule="evenodd"/><path fill="#000000" fill-opacity="0.0" d="m168.46295 137.7766l47.55905 0" fill-rule="evenodd"/><path stroke="#ff9900" stroke-width="4.0" stroke-linejoin="round" stroke-linecap="butt" d="m168.46295 137.7766l47.55905 0" fill-rule="evenodd"/><path fill="#000000" fill-opacity="0.0" d="m215.27345 110.99958l47.559036 0" fill-rule="evenodd"/><path stroke="#ff9900" stroke-width="4.0" stroke-linejoin="round" stroke-linecap="butt" d="m215.27345 110.99958l47.559036 0" fill-rule="evenodd"/><path fill="#000000" fill-opacity="0.0" d="m262.5853 110.99958l47.55905 0" fill-rule="evenodd"/><path stroke="#ff9900" stroke-width="4.0" stroke-linejoin="round" stroke-linecap="butt" d="m262.5853 110.99958l47.55905 0" fill-rule="evenodd"/><path fill="#000000" fill-opacity="0.0" d="m309.39578 110.99958l47.55905 0" fill-rule="evenodd"/><path stroke="#ff9900" stroke-width="4.0" stroke-linejoin="round" stroke-linecap="butt" d="m309.39578 110.99958l47.55905 0" fill-rule="evenodd"/><path fill="#000000" fill-opacity="0.0" d="m356.45697 137.7766l47.55905 0" fill-rule="evenodd"/><path stroke="#ff9900" stroke-width="4.0" stroke-linejoin="round" stroke-linecap="butt" d="m356.45697 137.7766l47.55905 0" fill-rule="evenodd"/><path fill="#000000" fill-opacity="0.0" d="m403.51813 110.99958l47.55905 0" fill-rule="evenodd"/><path stroke="#ff9900" stroke-width="4.0" stroke-linejoin="round" stroke-linecap="butt" d="m403.51813 110.99958l47.55905 0" fill-rule="evenodd"/><path fill="#000000" fill-opacity="0.0" d="m450.5793 110.99958l47.55905 0" fill-rule="evenodd"/><path stroke="#ff9900" stroke-width="4.0" stroke-linejoin="round" stroke-linecap="butt" d="m450.5793 110.99958l47.55905 0" fill-rule="evenodd"/><path fill="#000000" fill-opacity="0.0" d="m497.64047 110.99958l47.55905 0" fill-rule="evenodd"/><path stroke="#ff9900" stroke-width="4.0" stroke-linejoin="round" stroke-linecap="butt" d="m497.64047 110.99958l47.55905 0" fill-rule="evenodd"/><path fill="#000000" fill-opacity="0.0" d="m544.70166 110.99958l47.55902 0" fill-rule="evenodd"/><path stroke="#ff9900" stroke-width="4.0" stroke-linejoin="round" stroke-linecap="butt" d="m544.70166 110.99958l47.55902 0" fill-rule="evenodd"/><path fill="#000000" fill-opacity="0.0" d="m591.7628 137.7766l47.559082 0" fill-rule="evenodd"/><path stroke="#ff9900" stroke-width="4.0" stroke-linejoin="round" stroke-linecap="butt" d="m591.7628 137.7766l47.559082 0" fill-rule="evenodd"/><path fill="#000000" fill-opacity="0.0" d="m639.07465 110.99958l47.559082 0" fill-rule="evenodd"/><path stroke="#ff9900" stroke-width="4.0" stroke-linejoin="round" stroke-linecap="butt" d="m639.07465 110.99958l47.559082 0" fill-rule="evenodd"/><path fill="#000000" fill-opacity="0.0" d="m215.4004 110.99958l0 26.77166" fill-rule="evenodd"/><path stroke="#ff9900" stroke-width="4.0" stroke-linejoin="round" stroke-linecap="butt" d="m215.4004 110.99958l0 26.77166" fill-rule="evenodd"/><path fill="#000000" fill-opacity="0.0" d="m356.28604 110.99958l0 26.77166" fill-rule="evenodd"/><path stroke="#ff9900" stroke-width="4.0" stroke-linejoin="round" stroke-linecap="butt" d="m356.28604 110.99958l0 26.77166" fill-rule="evenodd"/><path fill="#000000" fill-opacity="0.0" d="m404.5257 110.99958l0 26.77166" fill-rule="evenodd"/><path stroke="#ff9900" stroke-width="4.0" stroke-linejoin="round" stroke-linecap="butt" d="m404.5257 110.99958l0 26.77166" fill-rule="evenodd"/><path fill="#000000" fill-opacity="0.0" d="m592.0135 110.99958l0 26.77166" fill-rule="evenodd"/><path stroke="#ff9900" stroke-width="4.0" stroke-linejoin="round" stroke-linecap="butt" d="m592.0135 110.99958l0 26.77166" fill-rule="evenodd"/><path fill="#000000" fill-opacity="0.0" d="m639.07465 110.99958l0 26.77166" fill-rule="evenodd"/><path stroke="#ff9900" stroke-width="4.0" stroke-linejoin="round" stroke-linecap="butt" d="m639.07465 110.99958l0 26.77166" fill-rule="evenodd"/><path fill="#000000" fill-opacity="0.0" d="m215.52412 172.46797l-23.12439 0l0 43.08661l-23.300812 0" fill-rule="evenodd"/><path stroke="#93c47d" stroke-width="4.0" stroke-linejoin="round" stroke-linecap="butt" d="m215.52412 172.46797l-23.12439 0l0 43.08661l-23.300812 0" fill-rule="evenodd"/><path fill="#000000" fill-opacity="0.0" d="m215.84967 172.46797l22.68103 0l0 43.08661l23.744171 0" fill-rule="evenodd"/><path stroke="#93c47d" stroke-width="4.0" stroke-linejoin="round" stroke-linecap="butt" d="m215.84967 172.46797l22.68103 0l0 43.08661l23.744171 0" fill-rule="evenodd"/><path fill="#000000" fill-opacity="0.0" d="m309.32092 172.46797l-23.773895 0l0 43.08661l-22.651306 0" fill-rule="evenodd"/><path stroke="#93c47d" stroke-width="4.0" stroke-linejoin="round" stroke-linecap="butt" d="m309.32092 172.46797l-23.773895 0l0 43.08661l-22.651306 0" fill-rule="evenodd"/><path fill="#000000" fill-opacity="0.0" d="m356.21933 172.46797l-19.531555 0l0 43.08661l-26.893646 0" fill-rule="evenodd"/><path stroke="#93c47d" stroke-width="4.0" stroke-linejoin="round" stroke-linecap="butt" d="m356.21933 172.46797l-19.531555 0l0 43.08661l-26.893646 0" fill-rule="evenodd"/><path fill="#000000" fill-opacity="0.0" d="m497.32144 172.46797l-22.195404 0l0 43.08661l-24.229797 0" fill-rule="evenodd"/><path stroke="#93c47d" stroke-width="4.0" stroke-linejoin="round" stroke-linecap="butt" d="m497.32144 172.46797l-22.195404 0l0 43.08661l-24.229797 0" fill-rule="evenodd"/><path fill="#000000" fill-opacity="0.0" d="m356.87042 172.46797l21.836548 0l0 43.08661l24.588623 0" fill-rule="evenodd"/><path stroke="#93c47d" stroke-width="4.0" stroke-linejoin="round" stroke-linecap="butt" d="m356.87042 172.46797l21.836548 0l0 43.08661l24.588623 0" fill-rule="evenodd"/><path fill="#000000" fill-opacity="0.0" d="m403.8502 172.46797l24.718628 0l0 43.08661l21.706573 0" fill-rule="evenodd"/><path stroke="#93c47d" stroke-width="4.0" stroke-linejoin="round" stroke-linecap="butt" d="m403.8502 172.46797l24.718628 0l0 43.08661l21.706573 0" fill-rule="evenodd"/><path fill="#000000" fill-opacity="0.0" d="m544.3419 172.46797l-24.13507 0l0 43.08661l-22.29013 0" fill-rule="evenodd"/><path stroke="#93c47d" stroke-width="4.0" stroke-linejoin="round" stroke-linecap="butt" d="m544.3419 172.46797l-24.13507 0l0 43.08661l-22.29013 0" fill-rule="evenodd"/><path fill="#000000" fill-opacity="0.0" d="m590.752 172.46797l-21.764587 0l0 43.08661l-24.660645 0" fill-rule="evenodd"/><path stroke="#93c47d" stroke-width="4.0" stroke-linejoin="round" stroke-linecap="butt" d="m590.752 172.46797l-21.764587 0l0 43.08661l-24.660645 0" fill-rule="evenodd"/><path fill="#000000" fill-opacity="0.0" d="m592.0339 172.46797l23.306824 0l0 43.08661l23.118347 0" fill-rule="evenodd"/><path stroke="#93c47d" stroke-width="4.0" stroke-linejoin="round" stroke-linecap="butt" d="m592.0339 172.46797l23.306824 0l0 43.08661l23.118347 0" fill-rule="evenodd"/><path fill="#000000" fill-opacity="0.0" d="m639.7046 172.46797l24.828674 0l0 43.08661l21.596558 0" fill-rule="evenodd"/><path stroke="#93c47d" stroke-width="4.0" stroke-linejoin="round" stroke-linecap="butt" d="m639.7046 172.46797l24.828674 0l0 43.08661l21.596558 0" fill-rule="evenodd"/><path fill="#000000" fill-opacity="0.0" d="m309.85156 172.68327l0 43.74803" fill-rule="evenodd"/><path stroke="#93c47d" stroke-width="4.0" stroke-linejoin="round" stroke-linecap="butt" d="m309.85156 172.68327l0 43.74803" fill-rule="evenodd"/><path fill="#000000" fill-opacity="0.0" d="m403.78345 172.46797l0 43.74803" fill-rule="evenodd"/><path stroke="#93c47d" stroke-width="4.0" stroke-linejoin="round" stroke-linecap="butt" d="m403.78345 172.46797l0 43.74803" fill-rule="evenodd"/><path fill="#000000" fill-opacity="0.0" d="m498.14594 172.46797l0 43.74803" fill-rule="evenodd"/><path stroke="#93c47d" stroke-width="4.0" stroke-linejoin="round" stroke-linecap="butt" d="m498.14594 172.46797l0 43.74803" fill-rule="evenodd"/><path fill="#000000" fill-opacity="0.0" d="m545.5017 172.68327l0 43.74803" fill-rule="evenodd"/><path stroke="#93c47d" stroke-width="4.0" stroke-linejoin="round" stroke-linecap="butt" d="m545.5017 172.68327l0 43.74803" fill-rule="evenodd"/><path fill="#000000" fill-opacity="0.0" d="m639.07465 172.46797l0 43.74803" fill-rule="evenodd"/><path stroke="#93c47d" stroke-width="4.0" stroke-linejoin="round" stroke-linecap="butt" d="m639.07465 172.46797l0 43.74803" fill-rule="evenodd"/><path fill="#000000" fill-opacity="0.0" d="m169.11404 250.26094l24.051956 0l0 43.086594l22.373245 0" fill-rule="evenodd"/><path stroke="#8e7cc3" stroke-width="4.0" stroke-linejoin="round" stroke-linecap="butt" d="m169.11404 250.26094l24.051956 0l0 43.086594l22.373245 0" fill-rule="evenodd"/><path fill="#000000" fill-opacity="0.0" d="m262.25974 250.26094l-24.476746 0l0 43.086594l-21.94844 0" fill-rule="evenodd"/><path stroke="#8e7cc3" stroke-width="4.0" stroke-linejoin="round" stroke-linecap="butt" d="m262.25974 250.26094l-24.476746 0l0 43.086594l-21.94844 0" fill-rule="evenodd"/><path fill="#000000" fill-opacity="0.0" d="m309.32092 250.26094l-22.760437 0l0 43.086594l-23.664764 0" fill-rule="evenodd"/><path stroke="#8e7cc3" stroke-width="4.0" stroke-linejoin="round" stroke-linecap="butt" d="m309.32092 250.26094l-22.760437 0l0 43.086594l-23.664764 0" fill-rule="evenodd"/><path fill="#000000" fill-opacity="0.0" d="m356.21933 250.26094l-23.317535 0l0 43.086594l-23.107666 0" fill-rule="evenodd"/><path stroke="#8e7cc3" stroke-width="4.0" stroke-linejoin="round" stroke-linecap="butt" d="m356.21933 250.26094l-23.317535 0l0 43.086594l-23.107666 0" fill-rule="evenodd"/><path fill="#000000" fill-opacity="0.0" d="m357.03317 250.26094l24.661072 0l0 43.086594l21.76413 0" fill-rule="evenodd"/><path stroke="#8e7cc3" stroke-width="4.0" stroke-linejoin="round" stroke-linecap="butt" d="m357.03317 250.26094l24.661072 0l0 43.086594l21.76413 0" fill-rule="evenodd"/><path fill="#000000" fill-opacity="0.0" d="m450.50443 250.26094l-22.607208 0l0 43.086594l-23.817993 0" fill-rule="evenodd"/><path stroke="#8e7cc3" stroke-width="4.0" stroke-linejoin="round" stroke-linecap="butt" d="m450.50443 250.26094l-22.607208 0l0 43.086594l-23.817993 0" fill-rule="evenodd"/><path fill="#000000" fill-opacity="0.0" d="m497.5656 250.26094l-24.550568 0l0 43.086594l-21.874634 0" fill-rule="evenodd"/><path stroke="#8e7cc3" stroke-width="4.0" stroke-linejoin="round" stroke-linecap="butt" d="m497.5656 250.26094l-24.550568 0l0 43.086594l-21.874634 0" fill-rule="evenodd"/><path fill="#000000" fill-opacity="0.0" d="m544.6268 250.26094l-22.590027 0l0 43.086594l-23.835175 0" fill-rule="evenodd"/><path stroke="#8e7cc3" stroke-width="4.0" stroke-linejoin="round" stroke-linecap="butt" d="m544.6268 250.26094l-22.590027 0l0 43.086594l-23.835175 0" fill-rule="evenodd"/><path fill="#000000" fill-opacity="0.0" d="m591.52515 250.26094l-21.928894 0l0 43.086594l-24.496277 0" fill-rule="evenodd"/><path stroke="#8e7cc3" stroke-width="4.0" stroke-linejoin="round" stroke-linecap="butt" d="m591.52515 250.26094l-21.928894 0l0 43.086594l-24.496277 0" fill-rule="evenodd"/><path fill="#000000" fill-opacity="0.0" d="m592.1763 250.26094l25.25946 0l0 43.086594l21.16571 0" fill-rule="evenodd"/><path stroke="#8e7cc3" stroke-width="4.0" stroke-linejoin="round" stroke-linecap="butt" d="m592.1763 250.26094l25.25946 0l0 43.086594l21.16571 0" fill-rule="evenodd"/><path fill="#000000" fill-opacity="0.0" d="m685.48474 250.90688l-20.241821 0l0 43.086594l-26.18335 0" fill-rule="evenodd"/><path stroke="#8e7cc3" stroke-width="4.0" stroke-linejoin="round" stroke-linecap="butt" d="m685.48474 250.90688l-20.241821 0l0 43.086594l-26.18335 0" fill-rule="evenodd"/><path fill="#000000" fill-opacity="0.0" d="m262.43716 249.93796l0 43.748047" fill-rule="evenodd"/><path stroke="#8e7cc3" stroke-width="4.0" stroke-linejoin="round" stroke-linecap="butt" d="m262.43716 249.93796l0 43.748047" fill-rule="evenodd"/><path fill="#000000" fill-opacity="0.0" d="m308.84726 250.58391l0 43.74803" fill-rule="evenodd"/><path stroke="#8e7cc3" stroke-width="4.0" stroke-linejoin="round" stroke-linecap="butt" d="m308.84726 250.58391l0 43.74803" fill-rule="evenodd"/><path fill="#000000" fill-opacity="0.0" d="m451.03506 249.93796l0 43.748047" fill-rule="evenodd"/><path stroke="#8e7cc3" stroke-width="4.0" stroke-linejoin="round" stroke-linecap="butt" d="m451.03506 249.93796l0 43.748047" fill-rule="evenodd"/><path fill="#000000" fill-opacity="0.0" d="m498.09787 250.58391l0 43.74803" fill-rule="evenodd"/><path stroke="#8e7cc3" stroke-width="4.0" stroke-linejoin="round" stroke-linecap="butt" d="m498.09787 250.58391l0 43.74803" fill-rule="evenodd"/><path fill="#000000" fill-opacity="0.0" d="m545.15906 250.58391l0 43.74803" fill-rule="evenodd"/><path stroke="#8e7cc3" stroke-width="4.0" stroke-linejoin="round" stroke-linecap="butt" d="m545.15906 250.58391l0 43.74803" fill-rule="evenodd"/><path fill="#000000" fill-opacity="0.0" d="m15.541995 38.824146l117.41733 0l0 61.763783l-117.41733 0z" fill-rule="evenodd"/><path fill="#c27ba0" d="m48.207397 65.74415l0 -13.359379l1.8125 0l7.015625 10.484375l0 -10.484375l1.6875 0l0 13.359379l-1.8125 0l-7.015625 -10.500004l0 10.500004l-1.6875 0zm13.519821 0l0 -13.359379l5.921875 0q1.78125 0 2.703125 0.359375q0.9375 0.359375 1.484375 1.28125q0.5625 0.90625 0.5625 2.015625q0 1.40625 -0.921875 2.390625q-0.921875 0.96875 -2.84375 1.234375q0.703125 0.34375 1.078125 0.671875q0.765625 0.703125 1.453125 1.765625l2.328125 3.6406288l-2.21875 0l-1.765625 -2.7812538q-0.78125 -1.203125 -1.28125 -1.828125q-0.5 -0.640625 -0.90625 -0.890625q-0.390625 -0.265625 -0.796875 -0.359375q-0.296875 -0.078125 -0.984375 -0.078125l-2.046875 0l0 5.937504l-1.765625 0zm1.765625 -7.453129l3.796875 0q1.21875 0 1.890625 -0.25q0.6875 -0.265625 1.046875 -0.8125q0.359375 -0.546875 0.359375 -1.1875q0 -0.953125 -0.6875 -1.5625q-0.6875 -0.609375 -2.1875 -0.609375l-4.21875 0l0 4.421875zm10.613571 7.453129l0 -1.640625l6.84375 -8.546879q0.71875 -0.921875 1.375 -1.59375l-7.453125 0l0 -1.578125l9.578125 0l0 1.578125l-7.5 9.265625l-0.8125 0.9375038l8.53125 0l0 1.578125l-10.5625 0zm11.614731 -4.015629l0 -1.640625l5.03125 0l0 1.640625l-5.03125 0zm6.978302 4.015629l0 -13.359379l1.78125 0l0 11.781254l6.5625 0l0 1.578125l-8.34375 0z" fill-rule="nonzero"/><path fill="#c27ba0" d="m43.156906 84.25977q-2.453125 -2.75 -5.203125 -4.390625l1.046875 -1.328125q2.890625 1.484375 5.484375 4.296875l-1.328125 1.421875zm-14.625002 -10.390625l15.593752 0l0 1.625l-6.46875 0q-0.21875 0.75 -0.65625 1.5625l0 12.03125l-1.71875 0l0 -9.515625q-2.515625 3.203125 -6.375002 4.90625l-1.046875 -1.703125q5.500002 -2.3125 7.953127 -7.28125l-7.281252 0l0 -1.625zm23.828127 1.328125l-3.34375 0l0 1.1875l3.34375 0l0 -1.1875zm0.140625 4.53125l-3.484375 0l0 1.265625l3.484375 0l0 -1.265625zm-4.96875 8.90625q-0.375 0.8125 -0.671875 -0.140625l-0.296875 -1.203125l1.421875 -0.0625l0 -4.09375l1.1875 0q0.59375 0.078125 0.0625 0.453125l0 3.484375l1.125 -0.140625l0 -4.75l-1.34375 0l-1.265625 0l0 -8.171875l1.859375 0l0.515625 -1.5625l1.125 0.15625q0.890625 0.140625 0.140625 0.4375l-0.4375 0.96875l2.671875 0l0 3.5625l-4.609375 0l0 0.96875l4.75 0l0 3.640625l-2.15625 0l0 1.78125l2.15625 0l0 1.1875l-2.15625 0l0 1.703125l2.671875 -0.375l0 1.34375l-6.75 0.8125zm10.90625 -4.453125l-1.703125 0l0 4.015625l-1.265625 0l0 -5.203125l-0.8125 0l0 -3.34375l8.90625 0l0 3.34375l-0.59375 0l0 3.859375q0 1.1875 -1.03125 1.1875l-1.265625 0l-0.296875 -1.1875l1.03125 0q0.296875 0 0.296875 -0.296875l0 -2.375l-2.0 0l0 5.265625l-1.265625 0l0 -5.265625zm3.859375 -10.984375l0 2.078125l1.484375 0l0 1.1875l-1.484375 0l0 2.21875l-6.890625 0l0 -1.1875l5.640625 0l0 -1.03125l-6.765625 0l0 -1.1875l6.765625 0l0 -0.890625l-5.640625 0l0 -1.1875l6.890625 0zm0 7.640625l-6.375 0l0 2.15625l2.515625 0l0 -1.78125l1.1875 0q0.59375 0.078125 0.078125 0.4375l0 1.34375l2.59375 0l0 -2.15625zm3.5625 1.78125q4.09375 -0.734375 6.90625 -2.8125l-4.375 0l0 -0.890625l4.453125 0l0 0.8125l0.671875 -0.671875l0 -2.890625l-5.875 0l0 1.921875l-1.484375 0l0 -3.109375l7.359375 0l0 -0.96875l-5.875 0l0 -1.1875l13.21875 0l0 1.1875l-5.859375 0l0 0.96875l7.265625 0l0 3.046875l-1.484375 0l0 -1.859375l-5.78125 0l0 2.890625l0.734375 0.671875l0 -0.8125l4.375 0l0 0.890625l-4.296875 0q3.265625 1.84375 6.828125 2.515625l-0.453125 1.484375q-2.734375 -0.515625 -4.671875 -1.703125l0 1.03125l-6.53125 0l0 -0.8125q-1.859375 1.109375 -4.671875 1.703125l-0.453125 -1.40625zm11.28125 -0.671875q-1.78125 -0.890625 -2.890625 -2.0q-1.328125 1.265625 -2.671875 2.0l5.5625 0zm1.34375 5.5q0.296875 0 0.296875 -0.296875l0 -1.78125l-4.90625 0l0 4.15625l-1.484375 0l0 -4.15625l-4.59375 0l0 -1.1875l12.46875 0l0 3.640625q0 1.03125 -0.96875 1.03125l-1.78125 0l-0.296875 -1.40625l1.265625 0zm-10.09375 -10.390625l4.453125 0l0 0.890625l-4.453125 0l0 -0.890625zm7.34375 0l4.375 0l0 0.890625l-4.375 0l0 -0.890625zm9.28125 10.171875q0.671875 -1.78125 0.671875 -4.453125l1.484375 0.140625q0.296875 0.15625 -0.15625 0.515625q-0.078125 2.671875 -0.734375 4.390625l-1.265625 -0.59375zm0.375 -11.578125l0.65625 0.359375q1.265625 -1.84375 2.15625 -3.703125l1.34375 0.96875q0.296875 0.21875 -0.296875 0.296875l-2.15625 3.109375l1.109375 0.8125l1.9375 -2.96875l1.25 1.125q0.296875 0.296875 -0.359375 0.21875l-3.265625 4.453125l2.515625 -0.15625q-0.140625 -0.734375 -0.671875 -1.484375l1.265625 -0.4375q0.96875 1.328125 1.34375 3.34375l-1.34375 0.4375l-0.21875 -0.8125l-1.484375 0.140625l0 8.03125l-1.484375 0l0 -7.875l-2.453125 0.21875q-0.078125 0.515625 -0.375 0.21875l-0.4375 -1.625l1.703125 0l1.34375 -1.703125q-1.265625 -1.046875 -2.828125 -1.78125l0.75 -1.1875zm8.078125 7.9375q-0.515625 2.671875 -2.375 4.609375l-1.03125 -0.90625q2.453125 -2.671875 2.453125 -6.234375l0 -5.40625l8.3125 0l0 3.921875l-7.0625 0l0 1.34375l7.71875 0l0 7.28125q0 1.1875 -0.890625 1.1875l-0.890625 0l-0.21875 -1.1875l0.515625 0q0.234375 0 0.234375 -0.234375l0 -2.515625l-1.125 0l0 3.40625l-1.25 0l0 -3.40625l-0.890625 0l0 3.40625l-1.265625 0l0 -3.40625l-0.96875 0l0 3.859375l-1.265625 0l0 -5.71875zm-2.734375 -1.046875q0.734375 1.125 0.734375 2.453125l-1.1875 0.453125q-0.078125 -1.421875 -0.734375 -2.453125l1.1875 -0.453125zm8.375 -0.4375l0 2.15625l1.125 0l0 -2.15625l-1.125 0zm-2.140625 0l0 2.15625l0.890625 0l0 -2.15625l-0.890625 0zm-2.234375 0l0 2.15625l0.96875 0l0 -2.15625l-0.96875 0zm-0.96875 -5.265625l0 1.546875l5.796875 0l0 -1.546875l-5.796875 0zm7.65625 -2.453125l-9.65625 0l0 -1.40625l9.65625 0l0 1.40625zm8.53125 12.46875l-3.34375 0l0 1.5625l-1.265625 0l0 -6.828125q-0.515625 0.953125 -1.03125 1.546875l-0.890625 -1.546875q2.515625 -2.90625 2.8125 -6.828125l-2.0 0l0 -1.421875l6.234375 0l0 1.421875l-2.890625 0q-0.21875 2.375 -0.75 4.0l3.125 0l0 8.09375zm-3.34375 -1.40625l2.078125 0l0 -5.28125l-2.078125 0l0 5.28125zm3.421875 2.59375q0.65625 -1.859375 0.953125 -3.78125l1.1875 0.21875q-0.0625 1.625 -0.8125 4.078125l-1.328125 -0.515625zm4.15625 -3.78125q0.359375 1.484375 0.296875 3.265625l-1.484375 0.296875q0.140625 -1.78125 -0.078125 -3.5l1.265625 -0.0625zm1.84375 -0.234375q0.53125 1.484375 0.671875 3.046875l-1.40625 0.296875q-0.078125 -1.703125 -0.453125 -3.1875l1.1875 -0.15625zm1.421875 2.90625q-0.15625 -1.5625 -0.59375 -3.046875l1.25 -0.15625q0.53125 1.34375 0.75 2.75l-1.40625 0.453125zm-2.078125 -12.546875l-2.53125 0l0 1.5625l2.53125 0l0 -1.5625zm-2.53125 5.5625l0 1.78125l2.53125 0l0 -1.78125l-2.53125 0zm2.53125 -2.8125l-2.53125 0l0 1.625l2.53125 0l0 -1.625zm5.265625 9.71875q-0.078125 2.375 -1.640625 2.375l-1.78125 0l-0.0625 -1.40625l1.109375 0q1.03125 0 1.03125 -1.125l0.078125 -3.5625l-6.53125 0l0 0.296875l-1.484375 0l0 -10.453125l9.0625 0l0 1.40625l-3.796875 0l0 1.5625l2.75 0l0 1.1875l-2.75 0l0 1.625l2.828125 0l0 1.1875l-2.828125 0l0 1.78125l4.15625 0l-0.140625 5.125z" fill-rule="nonzero"/><path fill="#000000" fill-opacity="0.0" d="m15.541995 104.318l117.41733 0l0 56.0315l-117.41733 0z" fill-rule="evenodd"/><path fill="#ff9900" d="m50.803604 131.23799l0 -13.359367l1.8125 0l7.015625 10.484367l0 -10.484367l1.6875 0l0 13.359367l-1.8125 0l-7.015625 -10.499992l0 10.499992l-1.6875 0zm13.519821 0l0 -13.359367l5.921875 0q1.78125 0 2.703125 0.359375q0.9375 0.359375 1.484375 1.28125q0.5625 0.90625 0.5625 2.015625q0 1.40625 -0.921875 2.390625q-0.921875 0.96875 -2.84375 1.234375q0.703125 0.34375 1.078125 0.671875q0.765625 0.703125 1.453125 1.765625l2.328125 3.6406174l-2.21875 0l-1.765625 -2.78125q-0.78125 -1.2031174 -1.28125 -1.8281174q-0.5 -0.640625 -0.90625 -0.890625q-0.390625 -0.265625 -0.796875 -0.359375q-0.296875 -0.078125 -0.984375 -0.078125l-2.046875 0l0 5.9374924l-1.765625 0zm1.765625 -7.4531174l3.796875 0q1.21875 0 1.890625 -0.25q0.6875 -0.265625 1.046875 -0.8125q0.359375 -0.546875 0.359375 -1.1875q0 -0.953125 -0.6875 -1.5625q-0.6875 -0.609375 -2.1875 -0.609375l-4.21875 0l0 4.421875zm10.613571 7.4531174l0 -1.640625l6.84375 -8.546867q0.71875 -0.921875 1.375 -1.59375l-7.453125 0l0 -1.578125l9.578125 0l0 1.578125l-7.5 9.265617l-0.8125 0.9375l8.53125 0l0 1.578125l-10.5625 0zm11.614731 -4.0156174l0 -1.640625l5.03125 0l0 1.640625l-5.03125 0zm7.353302 4.0156174l0 -13.359367l1.765625 0l0 13.359367l-1.765625 0z" fill-rule="nonzero"/><path fill="#ff9900" d="m30.688154 143.8655l0 0.875q0 4.625 -2.375 6.8125l-1.0 -1.0q2.125 -2.375 2.125 -5.75l0 -5.9375l10.812502 0l0 1.1875l-9.562502 0l0 2.625l7.125002 0l0.375 -0.3125l1.0625 0.8125q0.4375 0.1875 -0.125 0.4375q-1.0 3.3125 -2.5 4.8125q1.3125 1.0625 4.625 1.9375l-0.6875 1.5q-3.0625 -0.9375 -4.9375 -2.4375q-2.1875 1.8125 -4.937502 2.5625l-0.5625 -1.4375q2.812502 -0.6875 4.437502 -2.0625q-1.875 -2.0 -2.625002 -4.625l-1.25 0zm4.875002 3.75q1.3125 -1.375 2.0625 -3.75l-4.375 0q0.6875 2.0625 2.3125 3.75zm20.5 0.125q-2.0625 -2.3125 -4.375 -3.6875l0.875 -1.125q2.4375 1.25 4.625 3.625l-1.125 1.1875zm-12.3125 -8.75l13.125 0l0 1.375l-5.4375 0q-0.1875 0.625 -0.5625 1.3125l0 10.125l-1.4375 0l0 -8.0q-2.125 2.6875 -5.375 4.125l-0.875 -1.4375q4.625 -1.9375 6.6875 -6.125l-6.125 0l0 -1.375zm20.0625 1.125l-2.8125 0l0 1.0l2.8125 0l0 -1.0zm0.125 3.8125l-2.9375 0l0 1.0625l2.9375 0l0 -1.0625zm-4.1875 7.5q-0.3125 0.6875 -0.5625 -0.125l-0.25 -1.0l1.1875 -0.0625l0 -3.4375l1.0 0q0.5 0.0625 0.0625 0.375l0 2.9375l0.9375 -0.125l0 -4.0l-1.125 0l-1.0625 0l0 -6.875l1.5625 0l0.4375 -1.3125l0.9375 0.125q0.75 0.125 0.125 0.375l-0.375 0.8125l2.25 0l0 3.0l-3.875 0l0 0.8125l4.0 0l0 3.0625l-1.8125 0l0 1.5l1.8125 0l0 1.0l-1.8125 0l0 1.4375l2.25 -0.3125l0 1.125l-5.6875 0.6875zm9.1875 -3.75l-1.4375 0l0 3.375l-1.0625 0l0 -4.375l-0.6875 0l0 -2.8125l7.5 0l0 2.8125l-0.5 0l0 3.25q0 1.0 -0.875 1.0l-1.0625 0l-0.25 -1.0l0.875 0q0.25 0 0.25 -0.25l0 -2.0l-1.6875 0l0 4.4375l-1.0625 0l0 -4.4375zm3.25 -9.25l0 1.75l1.25 0l0 1.0l-1.25 0l0 1.875l-5.8125 0l0 -1.0l4.75 0l0 -0.875l-5.6875 0l0 -1.0l5.6875 0l0 -0.75l-4.75 0l0 -1.0l5.8125 0zm0 6.4375l-5.375 0l0 1.8125l2.125 0l0 -1.5l1.0 0q0.5 0.0625 0.0625 0.375l0 1.125l2.1875 0l0 -1.8125zm3.0 1.5q3.4375 -0.625 5.8125 -2.375l-3.6875 0l0 -0.75l3.75 0l0 0.6875l0.5625 -0.5625l0 -2.4375l-4.9375 0l0 1.625l-1.25 0l0 -2.625l6.1875 0l0 -0.8125l-4.9375 0l0 -1.0l11.125 0l0 1.0l-4.9375 0l0 0.8125l6.125 0l0 2.5625l-1.25 0l0 -1.5625l-4.875 0l0 2.4375l0.625 0.5625l0 -0.6875l3.6875 0l0 0.75l-3.625 0q2.75 1.5625 5.75 2.125l-0.375 1.25q-2.3125 -0.4375 -3.9375 -1.4375l0 0.875l-5.5 0l0 -0.6875q-1.5625 0.9375 -3.9375 1.4375l-0.375 -1.1875zm9.5 -0.5625q-1.5 -0.75 -2.4375 -1.6875q-1.125 1.0625 -2.25 1.6875l4.6875 0zm1.125 4.625q0.25 0 0.25 -0.25l0 -1.5l-4.125 0l0 3.5l-1.25 0l0 -3.5l-3.875 0l0 -1.0l10.5 0l0 3.0625q0 0.875 -0.8125 0.875l-1.5 0l-0.25 -1.1875l1.0625 0zm-8.5 -8.75l3.75 0l0 0.75l-3.75 0l0 -0.75zm6.1875 0l3.6875 0l0 0.75l-3.6875 0l0 -0.75zm7.8125 8.5625q0.5625 -1.5 0.5625 -3.75l1.25 0.125q0.25 0.125 -0.125 0.4375q-0.0625 2.25 -0.625 3.6875l-1.0625 -0.5zm0.3125 -9.75l0.5625 0.3125q1.0625 -1.5625 1.8125 -3.125l1.125 0.8125q0.25 0.1875 -0.25 0.25l-1.8125 2.625l0.9375 0.6875l1.625 -2.5l1.0625 0.9375q0.25 0.25 -0.3125 0.1875l-2.75 3.75l2.125 -0.125q-0.125 -0.625 -0.5625 -1.25l1.0625 -0.375q0.8125 1.125 1.125 2.8125l-1.125 0.375l-0.1875 -0.6875l-1.25 0.125l0 6.75l-1.25 0l0 -6.625l-2.0625 0.1875q-0.0625 0.4375 -0.3125 0.1875l-0.375 -1.375l1.4375 0l1.125 -1.4375q-1.0625 -0.875 -2.375 -1.5l0.625 -1.0zm6.8125 6.6875q-0.4375 2.25 -2.0 3.875l-0.875 -0.75q2.0625 -2.25 2.0625 -5.25l0 -4.5625l7.0 0l0 3.3125l-5.9375 0l0 1.125l6.5 0l0 6.125q0 1.0 -0.75 1.0l-0.75 0l-0.1875 -1.0l0.4375 0q0.1875 0 0.1875 -0.1875l0 -2.125l-0.9375 0l0 2.875l-1.0625 0l0 -2.875l-0.75 0l0 2.875l-1.0625 0l0 -2.875l-0.8125 0l0 3.25l-1.0625 0l0 -4.8125zm-2.3125 -0.875q0.625 0.9375 0.625 2.0625l-1.0 0.375q-0.0625 -1.1875 -0.625 -2.0625l1.0 -0.375zm7.0625 -0.375l0 1.8125l0.9375 0l0 -1.8125l-0.9375 0zm-1.8125 0l0 1.8125l0.75 0l0 -1.8125l-0.75 0zm-1.875 0l0 1.8125l0.8125 0l0 -1.8125l-0.8125 0zm-0.8125 -4.4375l0 1.3125l4.875 0l0 -1.3125l-4.875 0zm6.4375 -2.0625l-8.125 0l0 -1.1875l8.125 0l0 1.1875zm7.1875 10.5l-2.8125 0l0 1.3125l-1.0625 0l0 -5.75q-0.4375 0.8125 -0.875 1.3125l-0.75 -1.3125q2.125 -2.4375 2.375 -5.75l-1.6875 0l0 -1.1875l5.25 0l0 1.1875l-2.4375 0q-0.1875 2.0 -0.625 3.375l2.625 0l0 6.8125zm-2.8125 -1.1875l1.75 0l0 -4.4375l-1.75 0l0 4.4375zm2.875 2.1875q0.5625 -1.5625 0.8125 -3.1875l1.0 0.1875q-0.0625 1.375 -0.6875 3.4375l-1.125 -0.4375zm3.5 -3.1875q0.3125 1.25 0.25 2.75l-1.25 0.25q0.125 -1.5 -0.0625 -2.9375l1.0625 -0.0625zm1.5625 -0.1875q0.4375 1.25 0.5625 2.5625l-1.1875 0.25q-0.0625 -1.4375 -0.375 -2.6875l1.0 -0.125zm1.1875 2.4375q-0.125 -1.3125 -0.5 -2.5625l1.0625 -0.125q0.4375 1.125 0.625 2.3125l-1.1875 0.375zm-1.75 -10.5625l-2.125 0l0 1.3125l2.125 0l0 -1.3125zm-2.125 4.6875l0 1.5l2.125 0l0 -1.5l-2.125 0zm2.125 -2.375l-2.125 0l0 1.375l2.125 0l0 -1.375zm4.4375 8.1875q-0.0625 2.0 -1.375 2.0l-1.5 0l-0.0625 -1.1875l0.9375 0q0.875 0 0.875 -0.9375l0.0625 -3.0l-5.5 0l0 0.25l-1.25 0l0 -8.8125l7.625 0l0 1.1875l-3.1875 0l0 1.3125l2.3125 0l0 1.0l-2.3125 0l0 1.375l2.375 0l0 1.0l-2.375 0l0 1.5l3.5 0l-0.125 4.3125z" fill-rule="nonzero"/><path fill="#000000" fill-opacity="0.0" d="m3.3530183 168.66208l141.79529 0l0 61.76378l-141.79529 0z" fill-rule="evenodd"/><path fill="#6aa84f" d="m20.113195 198.14207l0 -15.265625l3.046875 0l3.609375 10.8125q0.5 1.5 0.734375 2.25q0.265625 -0.828125 0.8125 -2.4375l3.65625 -10.625l2.718752 0l0 15.265625l-1.953125 0l0 -12.78125l-4.437502 12.78125l-1.8125 0l-4.421875 -13.0l0 13.0l-1.953125 0zm24.813372 -1.359375q-1.046875 0.875 -2.015625 1.25q-0.953125 0.359375 -2.0625 0.359375q-1.8125 0 -2.796875 -0.890625q-0.984375 -0.890625 -0.984375 -2.28125q0 -0.8125 0.375 -1.484375q0.375 -0.671875 0.96875 -1.078125q0.59375 -0.40625 1.34375 -0.609375q0.5625 -0.140625 1.671875 -0.28125q2.265625 -0.265625 3.34375 -0.640625q0.015625 -0.390625 0.015625 -0.5q0 -1.140625 -0.53125 -1.609375q-0.71875 -0.640625 -2.140625 -0.640625q-1.328125 0 -1.953125 0.46875q-0.625 0.46875 -0.9375 1.640625l-1.828125 -0.25q0.25 -1.171875 0.8125 -1.890625q0.578125 -0.734375 1.65625 -1.125q1.09375 -0.390625 2.515625 -0.390625q1.421875 0 2.296875 0.34375q0.890625 0.328125 1.3125 0.828125q0.421875 0.5 0.578125 1.28125q0.09375 0.46875 0.09375 1.71875l0 2.5q0 2.625 0.125 3.3125q0.125 0.6875 0.46875 1.328125l-1.953125 0q-0.296875 -0.578125 -0.375 -1.359375zm-0.15625 -4.1875q-1.015625 0.40625 -3.0625 0.703125q-1.15625 0.171875 -1.640625 0.375q-0.46875 0.203125 -0.734375 0.609375q-0.265625 0.40625 -0.265625 0.890625q0 0.75 0.5625 1.25q0.578125 0.5 1.671875 0.5q1.078125 0 1.921875 -0.46875q0.84375 -0.484375 1.25 -1.296875q0.296875 -0.640625 0.296875 -1.875l0 -0.6875zm4.7991943 5.546875l0 -11.0625l1.6875 0l0 1.578125q1.21875 -1.828125 3.515625 -1.828125q1.0 0 1.84375 0.359375q0.84375 0.359375 1.25 0.953125q0.421875 0.578125 0.59375 1.375q0.09375 0.515625 0.09375 1.828125l0 6.796875l-1.875 0l0 -6.734375q0 -1.140625 -0.21875 -1.703125q-0.21875 -0.578125 -0.78125 -0.90625q-0.546875 -0.34375 -1.296875 -0.34375q-1.203125 0 -2.078125 0.765625q-0.859375 0.75 -0.859375 2.875l0 6.046875l-1.875 0zm19.080444 -4.046875l1.84375 0.234375q-0.296875 1.90625 -1.546875 2.984375q-1.25 1.078125 -3.0625 1.078125q-2.265625 0 -3.65625 -1.484375q-1.375 -1.484375 -1.375 -4.25q0 -1.796875 0.59375 -3.140625q0.59375 -1.34375 1.8125 -2.015625q1.21875 -0.671875 2.640625 -0.671875q1.796875 0 2.9375 0.921875q1.15625 0.90625 1.484375 2.578125l-1.828125 0.28125q-0.265625 -1.109375 -0.921875 -1.671875q-0.65625 -0.5625 -1.59375 -0.5625q-1.421875 0 -2.3125 1.015625q-0.875 1.015625 -0.875 3.203125q0 2.234375 0.84375 3.25q0.859375 1.0 2.234375 1.0q1.109375 0 1.84375 -0.671875q0.734375 -0.671875 0.9375 -2.078125zm3.4453125 4.046875l0 -15.265625l1.875 0l0 5.46875q1.3125 -1.515625 3.3125 -1.515625q1.234375 0 2.140625 0.484375q0.90625 0.484375 1.296875 1.34375q0.390625 0.84375 0.390625 2.46875l0 7.015625l-1.875 0l0 -7.015625q0 -1.40625 -0.609375 -2.046875q-0.609375 -0.640625 -1.734375 -0.640625q-0.828125 0 -1.5625 0.4375q-0.734375 0.4375 -1.046875 1.171875q-0.3125 0.734375 -0.3125 2.046875l0 6.046875l-1.875 0zm19.43982 -3.5625l1.921875 0.234375q-0.453125 1.703125 -1.6875 2.640625q-1.234375 0.9375 -3.171875 0.9375q-2.421875 0 -3.84375 -1.484375q-1.421875 -1.5 -1.421875 -4.203125q0 -2.796875 1.4375 -4.328125q1.4375 -1.546875 3.734375 -1.546875q2.21875 0 3.609375 1.515625q1.40625 1.5 1.40625 4.25q0 0.15625 0 0.5l-8.25 0q0.109375 1.8125 1.03125 2.78125q0.921875 0.96875 2.3125 0.96875q1.03125 0 1.75 -0.53125q0.734375 -0.546875 1.171875 -1.734375zm-6.15625 -3.03125l6.171875 0q-0.125 -1.390625 -0.703125 -2.09375q-0.90625 -1.078125 -2.328125 -1.078125q-1.296875 0 -2.171875 0.859375q-0.875 0.859375 -0.96875 2.3125zm9.689819 3.296875l1.859375 -0.296875q0.15625 1.109375 0.859375 1.703125q0.71875 0.59375 2.0 0.59375q1.296875 0 1.921875 -0.515625q0.625 -0.53125 0.625 -1.234375q0 -0.640625 -0.5625 -1.0q-0.375 -0.25 -1.90625 -0.640625q-2.0625 -0.515625 -2.859375 -0.890625q-0.796875 -0.390625 -1.21875 -1.0625q-0.40625 -0.671875 -0.40625 -1.484375q0 -0.734375 0.328125 -1.359375q0.34375 -0.640625 0.9375 -1.0625q0.4375 -0.3125 1.1875 -0.53125q0.75 -0.234375 1.625 -0.234375q1.296875 0 2.28125 0.375q0.984375 0.375 1.453125 1.015625q0.46875 0.640625 0.640625 1.71875l-1.828125 0.25q-0.125 -0.859375 -0.734375 -1.328125q-0.59375 -0.484375 -1.6875 -0.484375q-1.28125 0 -1.84375 0.421875q-0.546875 0.421875 -0.546875 1.0q0 0.359375 0.234375 0.65625q0.21875 0.296875 0.71875 0.5q0.28125 0.109375 1.65625 0.484375q1.984375 0.53125 2.765625 0.875q0.796875 0.328125 1.234375 0.984375q0.453125 0.640625 0.453125 1.59375q0 0.9375 -0.546875 1.765625q-0.546875 0.828125 -1.578125 1.28125q-1.03125 0.453125 -2.328125 0.453125q-2.15625 0 -3.296875 -0.890625q-1.125 -0.90625 -1.4375 -2.65625zm15.5078125 1.625l0.265625 1.65625q-0.78125 0.15625 -1.40625 0.15625q-1.03125 0 -1.59375 -0.3125q-0.5625 -0.328125 -0.796875 -0.84375q-0.21875 -0.53125 -0.21875 -2.21875l0 -6.375l-1.375 0l0 -1.453125l1.375 0l0 -2.734375l1.859375 -1.125l0 3.859375l1.890625 0l0 1.453125l-1.890625 0l0 6.46875q0 0.8125 0.09375 1.046875q0.109375 0.21875 0.328125 0.359375q0.234375 0.125 0.640625 0.125q0.3125 0 0.828125 -0.0625zm9.410019 -1.890625l1.921875 0.234375q-0.453125 1.703125 -1.6875 2.640625q-1.234375 0.9375 -3.171875 0.9375q-2.421875 0 -3.84375 -1.484375q-1.421875 -1.5 -1.421875 -4.203125q0 -2.796875 1.4375 -4.328125q1.4375 -1.546875 3.734375 -1.546875q2.21875 0 3.609375 1.515625q1.40625 1.5 1.40625 4.25q0 0.15625 0 0.5l-8.25 0q0.109375 1.8125 1.03125 2.78125q0.921875 0.96875 2.3125 0.96875q1.03125 0 1.75 -0.53125q0.734375 -0.546875 1.171875 -1.734375zm-6.15625 -3.03125l6.171875 0q-0.125 -1.390625 -0.703125 -2.09375q-0.90625 -1.078125 -2.328125 -1.078125q-1.296875 0 -2.171875 0.859375q-0.875 0.859375 -0.96875 2.3125zm10.424194 6.59375l0 -11.0625l1.6875 0l0 1.671875q0.640625 -1.171875 1.1875 -1.546875q0.546875 -0.375 1.2031174 -0.375q0.953125 0 1.921875 0.609375l-0.640625 1.734375q-0.6875 -0.40625 -1.375 -0.40625q-0.6093674 0 -1.1093674 0.375q-0.484375 0.359375 -0.6875 1.015625q-0.3125 1.0 -0.3125 2.1875l0 5.796875l-1.875 0z" fill-rule="nonzero"/><path fill="#6aa84f" d="m32.01628 218.1602q-2.140627 1.71875 -3.703127 2.375q1.703125 0.53125 6.906252 0.96875l-0.296875 1.5625q-5.343752 -0.515625 -8.250002 -1.703125q-4.078125 1.328125 -8.015625 1.859375l-0.59375 -1.5625q4.609375 -0.453125 7.125 -1.1875q-1.03125 -0.671875 -2.21875 -1.9375l-3.125 0l0 -1.1875l11.0625 0l0.296875 -0.296875l0.9687519 0.75q0.671875 0.4375 -0.15625 0.359375zm-7.343752 0.375q0.890625 0.75 2.078125 1.40625q1.5625 -0.65625 2.75 -1.40625l-4.828125 0zm-3.9375 -3.1875l3.046875 0l0 -1.484375l-3.046875 0l0 1.484375zm7.28125 -1.484375l-2.75 0l0 1.484375l2.75 0l0 -1.484375zm4.531252 1.484375l0 -1.484375l-3.046877 0l0 1.484375l3.046877 0zm-13.296877 1.1875l0 -3.859375l14.781252 0l0 3.859375l-14.781252 0zm13.218752 -10.09375l0 5.484375l-11.656252 0l0 -5.484375l11.656252 0zm-1.4843769 2.15625l0 -0.96875l-8.6875 0l0 0.96875l8.6875 0zm-8.6875 1.1875l0 0.953125l8.6875 0l0 -0.953125l-8.6875 0zm29.468752 8.828125q1.328125 1.859375 2.75 2.75l-0.828125 1.78125q-1.546875 -1.1875 -2.734375 -2.96875q-1.046875 1.859375 -2.609375 3.046875l-0.734375 -1.484375l0 0.296875q0 1.109375 -0.8125 1.109375l-1.484375 0l-0.15625 -1.1875l0.890625 0q0.296875 0 0.296875 -0.296875l0 -1.640625l-2.59375 0l0 3.203125l-1.265625 0l0 -8.765625l5.046875 0l-0.4375 -0.453125q0.515625 -0.65625 0.734375 -1.25l-0.671875 0.515625l-0.21875 -0.375l-4.53125 0.8125q-0.0625 0.53125 -0.359375 0.234375l-0.453125 -1.5625l1.265625 -0.078125l0.734375 -2.75l-1.78125 0l0 -1.1875l2.375 0l0 -2.375l1.421875 0q0.59375 0.078125 0.0625 0.453125l0 1.921875l2.609375 0l0 1.1875l-3.203125 0l-0.953125 2.671875l2.140625 -0.296875q-0.359375 -0.515625 -0.890625 -1.1875l1.046875 -0.65625q1.03125 1.03125 1.703125 2.140625q0.96875 -2.375 1.484375 -5.9375l1.40625 0.375q0.75 0.15625 0 0.59375l-0.65625 2.671875l4.078125 0l0 1.40625l-1.1875 0q-0.21875 4.453125 -1.484375 7.28125zm-0.890625 -1.640625q0.734375 -1.84375 0.96875 -5.640625l-1.859375 0q0.21875 3.046875 0.890625 5.640625zm-0.8125 1.640625q-0.828125 -2.296875 -1.125 -4.90625q-0.359375 0.828125 -0.8125 1.421875l-0.515625 -0.59375l0 7.046875q1.5625 -1.109375 2.453125 -2.96875zm-13.0625 -3.125q2.515625 -2.140625 3.703125 -5.703125l1.34375 0.8125q0.296875 0.296875 -0.234375 0.375q-0.4375 1.109375 -1.03125 2.140625l0 10.109375l-1.484375 0l0 -7.875q-0.75 1.03125 -1.5625 1.78125l-0.734375 -1.640625zm4.453125 -8.15625q-0.96875 2.75 -3.34375 4.75l-0.96875 -1.484375q2.296875 -1.78125 3.125 -4.453125l1.40625 0.8125q0.296875 0.296875 -0.21875 0.375zm2.296875 11.5l2.59375 0l0 -1.03125l-2.59375 0l0 1.03125zm2.59375 -3.1875l-2.59375 0l0 0.96875l2.59375 0l0 -0.96875zm21.0 -3.484375l5.875 0l0 1.40625l-2.015625 0l0 9.578125l-1.484375 0l0 -9.578125l-2.375 0l0 3.484375q0 4.3125 -3.5625 6.390625l-0.953125 -1.34375q3.03125 -1.5625 3.03125 -5.265625l0 -9.578125l1.421875 0.453125q1.703125 -0.078125 4.453125 -0.96875l0.734375 1.265625q0.296875 0.59375 -0.515625 0.296875q-2.75 0.4375 -4.609375 0.59375l0 3.265625zm-4.8125 -5.578125l1.1875 0q0.59375 0.078125 0.0625 0.453125l0 2.078125l1.421875 0l0 1.1875l-1.421875 0l0 7.046875l1.5625 0l0 1.1875l-9.125 0l0 -1.1875l2.0 0l0 -7.046875l-1.5625 0l0 -1.1875l1.5625 0l0 -2.53125l1.1875 0q0.59375 0.078125 0.078125 0.453125l0 2.078125l3.046875 0l0 -2.53125zm0.21875 12.25q1.03125 0.890625 1.484375 1.484375l-1.1875 0.96875q-0.375 -0.59375 -1.34375 -1.5625l1.046875 -0.890625zm-0.21875 -8.53125l-3.046875 0l0 1.484375l3.046875 0l0 -1.484375zm0 2.671875l-3.046875 0l0 1.484375l3.046875 0l0 -1.484375zm-3.046875 2.671875l0 1.703125l3.046875 0l0 -1.703125l-3.046875 0zm-3.265625 6.453125q1.703125 -1.328125 2.671875 -3.109375l1.265625 0.734375q0.4375 0.453125 -0.234375 0.453125q-1.03125 1.625 -2.671875 3.109375l-1.03125 -1.1875zm21.078125 -10.609375q-0.375 1.921875 -0.75 2.890625l-1.328125 -0.59375q0.890625 -2.375 1.109375 -5.9375l1.40625 0.15625q0.53125 0.140625 0 0.359375l-0.140625 1.484375l1.03125 0l0 -3.625l1.421875 0q0.59375 0.0625 0.0625 0.4375l0 3.1875l1.859375 0l0 1.640625l-1.859375 0l0 3.40625l1.5625 -0.515625l0.296875 1.40625l-1.859375 0.75l0 6.6875l-1.484375 0l0 -6.015625l-2.140625 0.8125q-0.078125 0.515625 -0.375 0.21875l-0.515625 -1.703125l3.03125 -0.96875l0 -4.078125l-1.328125 0zm7.9375 9.421875q-0.734375 -1.1875 -2.0 -2.21875l1.1875 -0.96875q1.5625 1.03125 2.078125 2.078125l-1.265625 1.109375zm2.296875 -14.6875q0.59375 0.0625 0.078125 0.4375l0 2.15625l3.5625 0l0 1.40625l-3.5625 0l0 2.234375l4.671875 0l0 1.40625l-2.59375 0l0 1.921875l2.234375 0l0 1.421875l-2.234375 0l0 4.828125q0 1.03125 -0.96875 1.03125l-1.703125 0l-0.21875 -1.40625l1.109375 0q0.296875 0 0.296875 -0.296875l0 -4.15625l-5.640625 0l0 -1.421875l5.640625 0l0 -1.921875l-6.234375 0l0 -1.40625l4.15625 0l0 -2.234375l-3.34375 0l0 -1.40625l3.34375 0l0 -2.59375l1.40625 0zm6.984375 14.84375q0.671875 -1.78125 0.671875 -4.453125l1.484375 0.140625q0.296875 0.15625 -0.15625 0.515625q-0.078125 2.671875 -0.734375 4.390625l-1.265625 -0.59375zm0.375 -11.578125l0.65625 0.359375q1.265625 -1.84375 2.15625 -3.703125l1.34375 0.96875q0.296875 0.21875 -0.296875 0.296875l-2.15625 3.109375l1.109375 0.8125l1.9375 -2.96875l1.25 1.125q0.296875 0.296875 -0.359375 0.21875l-3.265625 4.453125l2.515625 -0.15625q-0.140625 -0.734375 -0.671875 -1.484375l1.265625 -0.4375q0.96875 1.328125 1.34375 3.34375l-1.34375 0.4375l-0.21875 -0.8125l-1.484375 0.140625l0 8.03125l-1.484375 0l0 -7.875l-2.453125 0.21875q-0.078125 0.515625 -0.375 0.21875l-0.4375 -1.625l1.703125 0l1.34375 -1.703125q-1.265625 -1.046875 -2.828125 -1.78125l0.75 -1.1875zm8.078125 7.9375q-0.515625 2.671875 -2.375 4.609375l-1.03125 -0.90625q2.453125 -2.671875 2.453125 -6.234375l0 -5.40625l8.3125 0l0 3.921875l-7.0625 0l0 1.34375l7.71875 0l0 7.28125q0 1.1875 -0.890625 1.1875l-0.890625 0l-0.21875 -1.1875l0.515625 0q0.234375 0 0.234375 -0.234375l0 -2.515625l-1.125 0l0 3.40625l-1.25 0l0 -3.40625l-0.890625 0l0 3.40625l-1.265625 0l0 -3.40625l-0.96875 0l0 3.859375l-1.265625 0l0 -5.71875zm-2.734375 -1.046875q0.734375 1.125 0.734375 2.453125l-1.1875 0.453125q-0.078125 -1.421875 -0.734375 -2.453125l1.1875 -0.453125zm8.375 -0.4375l0 2.15625l1.125 0l0 -2.15625l-1.125 0zm-2.140625 0l0 2.15625l0.890625 0l0 -2.15625l-0.890625 0zm-2.234375 0l0 2.15625l0.96875 0l0 -2.15625l-0.96875 0zm-0.96875 -5.265625l0 1.546875l5.796875 0l0 -1.546875l-5.796875 0zm7.65625 -2.453125l-9.65625 0l0 -1.40625l9.65625 0l0 1.40625zm8.53125 12.46875l-3.34375 0l0 1.5625l-1.265625 0l0 -6.828125q-0.515625 0.953125 -1.03125 1.546875l-0.890625 -1.546875q2.515625 -2.90625 2.8125 -6.828125l-2.0 0l0 -1.421875l6.234375 0l0 1.421875l-2.890625 0q-0.21875 2.375 -0.75 4.0l3.125 0l0 8.09375zm-3.34375 -1.40625l2.078125 0l0 -5.28125l-2.078125 0l0 5.28125zm3.421875 2.59375q0.65625 -1.859375 0.953125 -3.78125l1.1875 0.21875q-0.0625 1.625 -0.8125 4.078125l-1.328125 -0.515625zm4.15625 -3.78125q0.359375 1.484375 0.296875 3.265625l-1.484375 0.296875q0.140625 -1.78125 -0.078125 -3.5l1.265625 -0.0625zm1.84375 -0.234375q0.53125 1.484375 0.671875 3.046875l-1.40625 0.296875q-0.078125 -1.703125 -0.453125 -3.1875l1.1875 -0.15625zm1.421875 2.90625q-0.15625 -1.5625 -0.59375 -3.046875l1.25 -0.15625q0.53125 1.34375 0.75 2.75l-1.40625 0.453125zm-2.078125 -12.546875l-2.53125 0l0 1.5625l2.53125 0l0 -1.5625zm-2.53125 5.5625l0 1.78125l2.53125 0l0 -1.78125l-2.53125 0zm2.53125 -2.8125l-2.53125 0l0 1.625l2.53125 0l0 -1.625zm5.265625 9.71875q-0.078125 2.375 -1.640625 2.375l-1.78125 0l-0.0625 -1.40625l1.109375 0q1.03125 0 1.03125 -1.125l0.078125 -3.5625l-6.53125 0l0 0.296875l-1.484375 0l0 -10.453125l9.0625 0l0 1.40625l-3.796875 0l0 1.5625l2.75 0l0 1.1875l-2.75 0l0 1.625l2.828125 0l0 1.1875l-2.828125 0l0 1.78125l4.15625 0l-0.140625 5.125z" fill-rule="nonzero"/><path fill="#000000" fill-opacity="0.0" d="m3.3530183 236.09422l141.79529 0l0 78.01576l-141.79529 0z" fill-rule="evenodd"/><path fill="#674ea7" d="m34.338585 261.73422l0 -12.40625l4.265625 0q1.453125 0 2.203125 0.1875q1.078125 0.234375 1.828125 0.875q0.984375 0.828125 1.46875 2.125q0.484375 1.296875 0.484375 2.953125q0 1.40625 -0.328125 2.5q-0.328125 1.09375 -0.84375 1.8125q-0.515625 0.703125 -1.140625 1.125q-0.609375 0.40625 -1.484375 0.625q-0.859375 0.203125 -1.984375 0.203125l-4.46875 0zm1.640625 -1.46875l2.640625 0q1.234375 0 1.921875 -0.21875q0.703125 -0.234375 1.125 -0.640625q0.578125 -0.59375 0.90625 -1.578125q0.328125 -0.984375 0.328125 -2.390625q0 -1.9375 -0.640625 -2.984375q-0.640625 -1.046875 -1.5625 -1.40625q-0.65625 -0.25 -2.125 -0.25l-2.59375 0l0 9.46875zm10.685699 -9.1875l0 -1.75l1.515625 0l0 1.75l-1.515625 0zm0 10.65625l0 -8.984375l1.515625 0l0 8.984375l-1.515625 0zm4.193512 0l0 -7.796875l-1.34375 0l0 -1.1875l1.34375 0l0 -0.953125q0 -0.90625 0.171875 -1.34375q0.21875 -0.59375 0.765625 -0.953125q0.5625 -0.375 1.5625 -0.375q0.640625 0 1.421875 0.140625l-0.234375 1.328125q-0.46875 -0.078125 -0.890625 -0.078125q-0.703125 0 -1.0 0.296875q-0.28125 0.296875 -0.28125 1.109375l0 0.828125l1.75 0l0 1.1875l-1.75 0l0 7.796875l-1.515625 0zm4.5011597 0l0 -7.796875l-1.34375 0l0 -1.1875l1.34375 0l0 -0.953125q0 -0.90625 0.171875 -1.34375q0.21875 -0.59375 0.765625 -0.953125q0.5625 -0.375 1.5625 -0.375q0.640625 0 1.421875 0.140625l-0.234375 1.328125q-0.46875 -0.078125 -0.890625 -0.078125q-0.703125 0 -1.0 0.296875q-0.28125 0.296875 -0.28125 1.109375l0 0.828125l1.75 0l0 1.1875l-1.75 0l0 7.796875l-1.515625 0zm10.611191 -2.890625l1.5625 0.1875q-0.359375 1.390625 -1.375 2.15625q-1.0 0.75 -2.5625 0.75q-1.984375 0 -3.140625 -1.203125q-1.140625 -1.21875 -1.140625 -3.421875q0 -2.265625 1.15625 -3.515625q1.171875 -1.25 3.03125 -1.25q1.8125 0 2.953125 1.234375q1.140625 1.21875 1.140625 3.4375q0 0.140625 -0.015625 0.40625l-6.703125 0q0.09375 1.484375 0.84375 2.28125q0.75 0.78125 1.875 0.78125q0.84375 0 1.4375 -0.4375q0.59375 -0.4375 0.9375 -1.40625zm-5.0 -2.46875l5.015625 0q-0.109375 -1.125 -0.578125 -1.703125q-0.734375 -0.875 -1.890625 -0.875q-1.046875 0 -1.765625 0.703125q-0.703125 0.703125 -0.78125 1.875zm8.46521 5.359375l0 -8.984375l1.375 0l0 1.359375q0.515625 -0.953125 0.953125 -1.25q0.453125 -0.3125 0.984375 -0.3125q0.78125 0 1.5625 0.484375l-0.515625 1.421875q-0.5625 -0.328125 -1.125 -0.328125q-0.5 0 -0.890625 0.296875q-0.390625 0.296875 -0.5625 0.828125q-0.265625 0.8125 -0.265625 1.78125l0 4.703125l-1.515625 0zm11.942276 -2.890625l1.5625 0.1875q-0.359375 1.390625 -1.375 2.15625q-1.0 0.75 -2.5625 0.75q-1.984375 0 -3.140625 -1.203125q-1.140625 -1.21875 -1.140625 -3.421875q0 -2.265625 1.15625 -3.515625q1.171875 -1.25 3.03125 -1.25q1.8125 0 2.953125 1.234375q1.140625 1.21875 1.140625 3.4375q0 0.140625 -0.015625 0.40625l-6.703125 0q0.09375 1.484375 0.84375 2.28125q0.75 0.78125 1.875 0.78125q0.84375 0 1.4375 -0.4375q0.59375 -0.4375 0.9375 -1.40625zm-5.0 -2.46875l5.015625 0q-0.109375 -1.125 -0.578125 -1.703125q-0.734375 -0.875 -1.890625 -0.875q-1.046875 0 -1.765625 0.703125q-0.703125 0.703125 -0.78125 1.875zm8.480835 5.359375l0 -8.984375l1.375 0l0 1.28125q0.984375 -1.484375 2.859375 -1.484375q0.8125 0 1.484375 0.296875q0.6875 0.28125 1.015625 0.765625q0.34375 0.46875 0.484375 1.125q0.078125 0.421875 0.078125 1.46875l0 5.53125l-1.515625 0l0 -5.46875q0 -0.921875 -0.1875 -1.375q-0.171875 -0.46875 -0.625 -0.75q-0.453125 -0.28125 -1.0625 -0.28125q-0.96875 0 -1.671875 0.625q-0.703125 0.609375 -0.703125 2.34375l0 4.90625l-1.53125 0zm12.96521 -1.359375l0.21875 1.34375q-0.640625 0.140625 -1.15625 0.140625q-0.828125 0 -1.28125 -0.265625q-0.453125 -0.265625 -0.640625 -0.6875q-0.1875 -0.4375 -0.1875 -1.796875l0 -5.171875l-1.125 0l0 -1.1875l1.125 0l0 -2.21875l1.515625 -0.921875l0 3.140625l1.53125 0l0 1.1875l-1.53125 0l0 5.25q0 0.65625 0.078125 0.84375q0.078125 0.1875 0.25 0.296875q0.1875 0.109375 0.53125 0.109375q0.25 0 0.671875 -0.0625zm1.5018158 -9.296875l0 -1.75l1.515625 0l0 1.75l-1.515625 0zm0 10.65625l0 -8.984375l1.515625 0l0 8.984375l-1.515625 0zm9.693512 -1.109375q-0.84375 0.71875 -1.625 1.015625q-0.78125 0.296875 -1.671875 0.296875q-1.484375 0 -2.28125 -0.71875q-0.796875 -0.734375 -0.796875 -1.859375q0 -0.65625 0.296875 -1.203125q0.3125 -0.546875 0.796875 -0.875q0.484375 -0.328125 1.09375 -0.5q0.4375 -0.109375 1.34375 -0.21875q1.84375 -0.21875 2.71875 -0.53125q0.015625 -0.3125 0.015625 -0.390625q0 -0.9375 -0.4375 -1.3125q-0.578125 -0.515625 -1.734375 -0.515625q-1.078125 0 -1.59375 0.375q-0.5 0.375 -0.75 1.328125l-1.484375 -0.203125q0.203125 -0.953125 0.65625 -1.53125q0.46875 -0.59375 1.34375 -0.90625q0.890625 -0.328125 2.046875 -0.328125q1.15625 0 1.875 0.28125q0.71875 0.265625 1.046875 0.671875q0.34375 0.40625 0.484375 1.03125q0.078125 0.390625 0.078125 1.40625l0 2.03125q0 2.125 0.09375 2.6875q0.09375 0.5625 0.390625 1.078125l-1.59375 0q-0.234375 -0.46875 -0.3125 -1.109375zm-0.125 -3.40625q-0.828125 0.34375 -2.484375 0.578125q-0.9375 0.140625 -1.328125 0.3125q-0.390625 0.171875 -0.609375 0.5q-0.203125 0.3125 -0.203125 0.71875q0 0.609375 0.453125 1.015625q0.46875 0.40625 1.359375 0.40625q0.875 0 1.5625 -0.390625q0.6875 -0.390625 1.015625 -1.046875q0.234375 -0.515625 0.234375 -1.53125l0 -0.5625zm3.87146 4.515625l0 -12.40625l1.515625 0l0 12.40625l-1.515625 0z" fill-rule="nonzero"/><path fill="#674ea7" d="m30.26554 282.73422l0 -12.40625l2.468752 0l2.9375 8.78125q0.40625 1.234375 0.59375 1.84375q0.21875 -0.6875 0.65625 -2.0l2.984375 -8.625l2.203125 0l0 12.40625l-1.578125 0l0 -10.375l-3.609375 10.375l-1.484375 0l-3.578127 -10.5625l0 10.5625l-1.59375 0zm20.153215 -1.109375q-0.84375 0.71875 -1.625 1.015625q-0.78125 0.296875 -1.671875 0.296875q-1.484375 0 -2.28125 -0.71875q-0.796875 -0.734375 -0.796875 -1.859375q0 -0.65625 0.296875 -1.203125q0.3125 -0.546875 0.796875 -0.875q0.484375 -0.328125 1.09375 -0.5q0.4375 -0.109375 1.34375 -0.21875q1.84375 -0.21875 2.71875 -0.53125q0.015625 -0.3125 0.015625 -0.390625q0 -0.9375 -0.4375 -1.3125q-0.578125 -0.515625 -1.734375 -0.515625q-1.078125 0 -1.59375 0.375q-0.5 0.375 -0.75 1.328125l-1.484375 -0.203125q0.203125 -0.953125 0.65625 -1.53125q0.46875 -0.59375 1.34375 -0.90625q0.890625 -0.328125 2.046875 -0.328125q1.15625 0 1.875 0.28125q0.71875 0.265625 1.046875 0.671875q0.34375 0.40625 0.484375 1.03125q0.078125 0.390625 0.078125 1.40625l0 2.03125q0 2.125 0.09375 2.6875q0.09375 0.5625 0.390625 1.078125l-1.59375 0q-0.234375 -0.46875 -0.3125 -1.109375zm-0.125 -3.40625q-0.828125 0.34375 -2.484375 0.578125q-0.9375 0.140625 -1.328125 0.3125q-0.390625 0.171875 -0.609375 0.5q-0.203125 0.3125 -0.203125 0.71875q0 0.609375 0.453125 1.015625q0.46875 0.40625 1.359375 0.40625q0.875 0 1.5625 -0.390625q0.6875 -0.390625 1.015625 -1.046875q0.234375 -0.515625 0.234375 -1.53125l0 -0.5625zm3.90271 4.515625l0 -8.984375l1.375 0l0 1.28125q0.984375 -1.484375 2.859375 -1.484375q0.8125 0 1.484375 0.296875q0.6875 0.28125 1.015625 0.765625q0.34375 0.46875 0.484375 1.125q0.078125 0.421875 0.078125 1.46875l0 5.53125l-1.515625 0l0 -5.46875q0 -0.921875 -0.1875 -1.375q-0.171875 -0.46875 -0.625 -0.75q-0.453125 -0.28125 -1.0625 -0.28125q-0.96875 0 -1.671875 0.625q-0.703125 0.609375 -0.703125 2.34375l0 4.90625l-1.53125 0zm15.49646 -3.296875l1.5 0.203125q-0.234375 1.546875 -1.25 2.421875q-1.015625 0.875 -2.484375 0.875q-1.84375 0 -2.96875 -1.203125q-1.125 -1.203125 -1.125 -3.453125q0 -1.46875 0.484375 -2.546875q0.484375 -1.09375 1.46875 -1.640625q0.984375 -0.546875 2.140625 -0.546875q1.46875 0 2.390625 0.75q0.9375 0.734375 1.203125 2.09375l-1.484375 0.21875q-0.203125 -0.890625 -0.75 -1.34375q-0.53125 -0.46875 -1.296875 -0.46875q-1.140625 0 -1.875 0.828125q-0.71875 0.828125 -0.71875 2.609375q0 1.8125 0.6875 2.640625q0.703125 0.8125 1.828125 0.8125q0.890625 0 1.484375 -0.546875q0.609375 -0.5625 0.765625 -1.703125zm2.8046875 3.296875l0 -12.40625l1.53125 0l0 4.453125q1.0625 -1.234375 2.6875 -1.234375q1.0 0 1.734375 0.390625q0.734375 0.390625 1.046875 1.09375q0.328125 0.6875 0.328125 2.015625l0 5.6875l-1.53125 0l0 -5.6875q0 -1.15625 -0.5 -1.671875q-0.484375 -0.515625 -1.390625 -0.515625q-0.6875 0 -1.28125 0.359375q-0.59375 0.34375 -0.84375 0.953125q-0.25 0.59375 -0.25 1.640625l0 4.921875l-1.53125 0zm15.793335 -2.890625l1.5625 0.1875q-0.359375 1.390625 -1.375 2.15625q-1.0 0.75 -2.5625 0.75q-1.984375 0 -3.140625 -1.203125q-1.140625 -1.21875 -1.140625 -3.421875q0 -2.265625 1.15625 -3.515625q1.171875 -1.25 3.03125 -1.25q1.8125 0 2.953125 1.234375q1.140625 1.21875 1.140625 3.4375q0 0.140625 -0.015625 0.40625l-6.703125 0q0.09375 1.484375 0.84375 2.28125q0.75 0.78125 1.875 0.78125q0.84375 0 1.4375 -0.4375q0.59375 -0.4375 0.9375 -1.40625zm-5.0 -2.46875l5.015625 0q-0.109375 -1.125 -0.578125 -1.703125q-0.734375 -0.875 -1.890625 -0.875q-1.046875 0 -1.765625 0.703125q-0.703125 0.703125 -0.78125 1.875zm7.87146 2.671875l1.515625 -0.234375q0.125 0.90625 0.703125 1.390625q0.578125 0.484375 1.609375 0.484375q1.0625 0 1.5625 -0.421875q0.515625 -0.4375 0.515625 -1.015625q0 -0.515625 -0.453125 -0.8125q-0.3125 -0.203125 -1.5625 -0.515625q-1.671875 -0.421875 -2.328125 -0.71875q-0.640625 -0.3125 -0.984375 -0.859375q-0.328125 -0.546875 -0.328125 -1.203125q0 -0.609375 0.28125 -1.109375q0.28125 -0.515625 0.75 -0.859375q0.359375 -0.265625 0.96875 -0.4375q0.609375 -0.1875 1.3125 -0.1875q1.0625 0 1.859375 0.3125q0.796875 0.296875 1.171875 0.828125q0.390625 0.515625 0.53125 1.375l-1.484375 0.203125q-0.109375 -0.6875 -0.59375 -1.078125q-0.484375 -0.390625 -1.375 -0.390625q-1.046875 0 -1.5 0.34375q-0.4375 0.34375 -0.4375 0.8125q0 0.296875 0.171875 0.53125q0.1875 0.25 0.59375 0.40625q0.21875 0.09375 1.34375 0.390625q1.609375 0.4375 2.25 0.71875q0.640625 0.265625 1.0 0.796875q0.375 0.515625 0.375 1.296875q0 0.765625 -0.453125 1.4375q-0.4375 0.671875 -1.28125 1.046875q-0.828125 0.359375 -1.890625 0.359375q-1.75 0 -2.671875 -0.71875q-0.921875 -0.734375 -1.171875 -2.171875zm12.6015625 1.328125l0.21875 1.34375q-0.640625 0.140625 -1.15625 0.140625q-0.828125 0 -1.28125 -0.265625q-0.453125 -0.265625 -0.640625 -0.6875q-0.1875 -0.4375 -0.1875 -1.796875l0 -5.171875l-1.125 0l0 -1.1875l1.125 0l0 -2.21875l1.515625 -0.921875l0 3.140625l1.53125 0l0 1.1875l-1.53125 0l0 5.25q0 0.65625 0.078125 0.84375q0.078125 0.1875 0.25 0.296875q0.1875 0.109375 0.53125 0.109375q0.25 0 0.671875 -0.0625zm7.642441 -1.53125l1.5625 0.1875q-0.359375 1.390625 -1.375 2.15625q-1.0 0.75 -2.5625 0.75q-1.984375 0 -3.140625 -1.203125q-1.140625 -1.21875 -1.140625 -3.421875q0 -2.265625 1.15625 -3.515625q1.171875 -1.25 3.03125 -1.25q1.8125 0 2.953125 1.234375q1.140625 1.21875 1.140625 3.4375q0 0.140625 -0.015625 0.40625l-6.703125 0q0.09375 1.484375 0.84375 2.28125q0.75 0.78125 1.875 0.78125q0.84375 0 1.4375 -0.4375q0.59375 -0.4375 0.9375 -1.40625zm-5.0 -2.46875l5.015625 0q-0.109375 -1.125 -0.578125 -1.703125q-0.734375 -0.875 -1.890625 -0.875q-1.046875 0 -1.765625 0.703125q-0.703125 0.703125 -0.78125 1.875zm8.46521 5.359375l0 -8.984375l1.375 0l0 1.359375q0.515625 -0.953125 0.953125 -1.25q0.453125 -0.3125 0.984375 -0.3125q0.78125 0 1.5625 0.484375l-0.515625 1.421875q-0.5625 -0.328125 -1.125 -0.328125q-0.5 0 -0.890625 0.296875q-0.390625 0.296875 -0.5625 0.828125q-0.265625 0.8125 -0.265625 1.78125l0 4.703125l-1.515625 0z" fill-rule="nonzero"/><path fill="#674ea7" d="m28.01628 302.17422q-1.28125 -0.875 -2.28125 -2.34375q-1.515625 1.8125 -3.390625 2.6875l-0.46875 -1.109375q2.515625 -1.46875 3.28125 -2.578125q-0.59375 -1.34375 -0.890625 -4.21875q-0.234375 0.53125 -0.640625 0.9375l-0.703125 -0.828125q1.640625 -1.75 2.0 -5.390625l1.171875 0.234375q0.234375 0.234375 -0.1875 0.296875q-0.28125 1.640625 -0.515625 2.28125l2.984375 0l0 1.125l-0.828125 0q0 3.390625 -1.046875 5.625q0.53125 0.9375 2.171875 2.15625l-0.65625 1.125zm-13.062499 -9.671875q1.468749 -1.171875 2.468749 -3.21875l0.9375 0.515625q0.28125 0.125 -0.125 0.296875q-1.046875 2.171875 -2.578124 3.34375l-0.703125 -0.9375zm6.093749 7.328125l0.40625 -0.234375l0 -3.171875l-0.9375 0l0 1.640625q0 2.703125 -1.640625 3.984375l-0.640625 -0.9375q1.296875 -1.234375 1.296875 -2.984375l0 -1.703125l-1.0 0l0 -1.109375l4.75 0l0 1.109375l-0.828125 0l0 2.640625l1.40625 -0.875l0.359375 0.8125q-0.9375 0.703125 -2.40625 1.53125q-0.125 0.34375 -0.296875 0.109375l-0.46875 -0.8125zm-6.328124 -3.515625q1.999999 -1.640625 2.937499 -4.28125l0.984375 0.53125q0.1875 0.171875 -0.109375 0.28125q-0.40625 0.890625 -0.765625 1.53125l0 8.140625l-1.0 0l0 -6.625q-0.640625 0.9375 -1.515624 1.53125l-0.53125 -1.109375zm6.968749 -3.28125l0.765625 0l0 -2.703125l0.9375 0q0.46875 0.0625 0.0625 0.359375l0 3.28125l-3.578125 0l0 0.640625l-1.0 0l0 -4.28125l0.9375 0q0.46875 0.0625 0.0625 0.359375l0 2.34375l0.828125 0l0 -3.75l0.9375 0q0.46875 0.046875 0.046875 0.34375l0 3.40625zm4.171875 4.796875q0.703125 -1.640625 0.703125 -4.5625l-1.359375 0q0.0625 2.578125 0.65625 4.5625zm14.875002 -2.875l-0.234375 4.75q-0.109375 2.46875 -1.703125 2.46875l-1.75 0l-0.171875 -1.296875l1.453125 0q0.765625 0 0.828125 -1.0l0.234375 -3.796875l-3.21875 0l-0.0625 0.46875q-0.40625 3.21875 -4.625002 5.921875l-0.890625 -1.125q3.812502 -2.171875 4.218752 -4.5625l0.125 -0.703125l-2.234375 0l0 -1.125l8.03125 0zm-5.265625 -4.625q-1.40625 3.046875 -4.515627 5.5625l-0.9375 -1.109375q3.046877 -2.109375 4.453127 -5.453125l1.109375 0.703125q0.359375 0.234375 -0.109375 0.296875zm7.265625 5.5625q-3.234375 -1.875 -4.75 -6.140625l1.109375 -0.46875q1.40625 3.75 4.515625 5.390625l-0.875 1.21875zm13.171875 2.578125q-1.6875 1.359375 -2.921875 1.875q1.34375 0.421875 5.453125 0.765625l-0.234375 1.234375q-4.21875 -0.40625 -6.515625 -1.34375q-3.21875 1.046875 -6.328125 1.46875l-0.46875 -1.234375q3.640625 -0.359375 5.625 -0.9375q-0.8125 -0.53125 -1.75 -1.53125l-2.46875 0l0 -0.9375l8.734375 0l0.234375 -0.234375l0.765625 0.59375q0.53125 0.34375 -0.125 0.28125zm-5.796875 0.296875q0.703125 0.59375 1.640625 1.109375q1.234375 -0.515625 2.171875 -1.109375l-3.8125 0zm-3.109375 -2.515625l2.40625 0l0 -1.171875l-2.40625 0l0 1.171875zm5.75 -1.171875l-2.171875 0l0 1.171875l2.171875 0l0 -1.171875zm3.578125 1.171875l0 -1.171875l-2.40625 0l0 1.171875l2.40625 0zm-10.5 0.9375l0 -3.046875l11.671875 0l0 3.046875l-11.671875 0zm10.4375 -7.96875l0 4.328125l-9.203125 0l0 -4.328125l9.203125 0zm-1.171875 1.703125l0 -0.765625l-6.859375 0l0 0.765625l6.859375 0zm-6.859375 0.9375l0 0.75l6.859375 0l0 -0.75l-6.859375 0zm23.265625 6.96875q1.046875 1.46875 2.171875 2.171875l-0.65625 1.40625q-1.21875 -0.9375 -2.15625 -2.34375q-0.828125 1.46875 -2.0625 2.40625l-0.578125 -1.171875l0 0.234375q0 0.875 -0.640625 0.875l-1.171875 0l-0.125 -0.9375l0.703125 0q0.234375 0 0.234375 -0.234375l0 -1.296875l-2.046875 0l0 2.53125l-1.0 0l0 -6.921875l3.984375 0l-0.34375 -0.359375q0.40625 -0.515625 0.578125 -0.984375l-0.53125 0.40625l-0.171875 -0.296875l-3.578125 0.640625q-0.046875 0.421875 -0.28125 0.1875l-0.359375 -1.234375l1.0 -0.0625l0.578125 -2.171875l-1.40625 0l0 -0.9375l1.875 0l0 -1.875l1.125 0q0.46875 0.0625 0.046875 0.359375l0 1.515625l2.0625 0l0 0.9375l-2.53125 0l-0.75 2.109375l1.6875 -0.234375q-0.28125 -0.40625 -0.703125 -0.9375l0.828125 -0.515625q0.8125 0.8125 1.34375 1.6875q0.765625 -1.875 1.171875 -4.6875l1.109375 0.296875q0.59375 0.125 0 0.46875l-0.515625 2.109375l3.21875 0l0 1.109375l-0.9375 0q-0.171875 3.515625 -1.171875 5.75zm-0.703125 -1.296875q0.578125 -1.453125 0.765625 -4.453125l-1.46875 0q0.171875 2.40625 0.703125 4.453125zm-0.640625 1.296875q-0.65625 -1.8125 -0.890625 -3.875q-0.28125 0.65625 -0.640625 1.125l-0.40625 -0.46875l0 5.5625q1.234375 -0.875 1.9375 -2.34375zm-10.3125 -2.46875q1.984375 -1.6875 2.921875 -4.5l1.0625 0.640625q0.234375 0.234375 -0.1875 0.296875q-0.34375 0.875 -0.8125 1.6875l0 7.984375l-1.171875 0l0 -6.21875q-0.59375 0.8125 -1.234375 1.40625l-0.578125 -1.296875zm3.515625 -6.4375q-0.765625 2.171875 -2.640625 3.75l-0.765625 -1.171875q1.8125 -1.40625 2.46875 -3.515625l1.109375 0.640625q0.234375 0.234375 -0.171875 0.296875zm1.8125 9.078125l2.046875 0l0 -0.8125l-2.046875 0l0 0.8125zm2.046875 -2.515625l-2.046875 0l0 0.765625l2.046875 0l0 -0.765625zm16.578125 -2.75l4.640625 0l0 1.109375l-1.59375 0l0 7.5625l-1.171875 0l0 -7.5625l-1.875 0l0 2.75q0 3.40625 -2.8125 5.046875l-0.75 -1.0625q2.390625 -1.234375 2.390625 -4.15625l0 -7.5625l1.125 0.359375q1.34375 -0.0625 3.515625 -0.765625l0.578125 1.0q0.234375 0.46875 -0.40625 0.234375q-2.171875 0.34375 -3.640625 0.46875l0 2.578125zm-3.796875 -4.40625l0.9375 0q0.46875 0.0625 0.046875 0.359375l0 1.640625l1.125 0l0 0.9375l-1.125 0l0 5.5625l1.234375 0l0 0.9375l-7.203125 0l0 -0.9375l1.578125 0l0 -5.5625l-1.234375 0l0 -0.9375l1.234375 0l0 -2.0l0.9375 0q0.46875 0.0625 0.0625 0.359375l0 1.640625l2.40625 0l0 -2.0zm0.171875 9.671875q0.8125 0.703125 1.171875 1.171875l-0.9375 0.765625q-0.296875 -0.46875 -1.0625 -1.234375l0.828125 -0.703125zm-0.171875 -6.734375l-2.40625 0l0 1.171875l2.40625 0l0 -1.171875zm0 2.109375l-2.40625 0l0 1.171875l2.40625 0l0 -1.171875zm-2.40625 2.109375l0 1.34375l2.40625 0l0 -1.34375l-2.40625 0zm-2.578125 5.09375q1.34375 -1.046875 2.109375 -2.453125l1.0 0.578125q0.34375 0.359375 -0.1875 0.359375q-0.8125 1.28125 -2.109375 2.453125l-0.8125 -0.9375zm16.640625 -8.375q-0.296875 1.515625 -0.59375 2.28125l-1.046875 -0.46875q0.703125 -1.875 0.875 -4.6875l1.109375 0.125q0.421875 0.109375 0 0.28125l-0.109375 1.171875l0.8125 0l0 -2.859375l1.125 0q0.46875 0.046875 0.046875 0.34375l0 2.515625l1.46875 0l0 1.296875l-1.46875 0l0 2.6875l1.234375 -0.40625l0.234375 1.109375l-1.46875 0.59375l0 5.28125l-1.171875 0l0 -4.75l-1.6875 0.640625q-0.0625 0.40625 -0.296875 0.171875l-0.40625 -1.34375l2.390625 -0.765625l0 -3.21875l-1.046875 0zm6.265625 7.4375q-0.578125 -0.9375 -1.578125 -1.75l0.9375 -0.765625q1.234375 0.8125 1.640625 1.640625l-1.0 0.875zm1.8125 -11.59375q0.46875 0.046875 0.0625 0.34375l0 1.703125l2.8125 0l0 1.109375l-2.8125 0l0 1.765625l3.6875 0l0 1.109375l-2.046875 0l0 1.515625l1.765625 0l0 1.125l-1.765625 0l0 3.8125q0 0.8125 -0.765625 0.8125l-1.34375 0l-0.171875 -1.109375l0.875 0q0.234375 0 0.234375 -0.234375l0 -3.28125l-4.453125 0l0 -1.125l4.453125 0l0 -1.515625l-4.921875 0l0 -1.109375l3.28125 0l0 -1.765625l-2.640625 0l0 -1.109375l2.640625 0l0 -2.046875l1.109375 0zm5.515625 11.71875q0.53125 -1.40625 0.53125 -3.515625l1.171875 0.109375q0.234375 0.125 -0.125 0.40625q-0.0625 2.109375 -0.578125 3.46875l-1.0 -0.46875zm0.296875 -9.140625l0.515625 0.28125q1.0 -1.453125 1.703125 -2.921875l1.0625 0.765625q0.234375 0.171875 -0.234375 0.234375l-1.703125 2.453125l0.875 0.640625l1.53125 -2.34375l0.984375 0.890625q0.234375 0.234375 -0.28125 0.171875l-2.578125 3.515625l1.984375 -0.125q-0.109375 -0.578125 -0.53125 -1.171875l1.0 -0.34375q0.765625 1.046875 1.0625 2.640625l-1.0625 0.34375l-0.171875 -0.640625l-1.171875 0.109375l0 6.34375l-1.171875 0l0 -6.21875l-1.9375 0.171875q-0.0625 0.40625 -0.296875 0.171875l-0.34375 -1.28125l1.34375 0l1.0625 -1.34375q-1.0 -0.828125 -2.234375 -1.40625l0.59375 -0.9375zm6.375 6.265625q-0.40625 2.109375 -1.875 3.640625l-0.8125 -0.71875q1.9375 -2.109375 1.9375 -4.921875l0 -4.265625l6.5625 0l0 3.09375l-5.578125 0l0 1.0625l6.09375 0l0 5.75q0 0.9375 -0.703125 0.9375l-0.703125 0l-0.171875 -0.9375l0.40625 0q0.1875 0 0.1875 -0.1875l0 -1.984375l-0.890625 0l0 2.6875l-0.984375 0l0 -2.6875l-0.703125 0l0 2.6875l-1.0 0l0 -2.6875l-0.765625 0l0 3.046875l-1.0 0l0 -4.515625zm-2.15625 -0.828125q0.578125 0.890625 0.578125 1.9375l-0.9375 0.359375q-0.0625 -1.125 -0.578125 -1.9375l0.9375 -0.359375zm6.609375 -0.34375l0 1.703125l0.890625 0l0 -1.703125l-0.890625 0zm-1.6875 0l0 1.703125l0.703125 0l0 -1.703125l-0.703125 0zm-1.765625 0l0 1.703125l0.765625 0l0 -1.703125l-0.765625 0zm-0.765625 -4.15625l0 1.21875l4.578125 0l0 -1.21875l-4.578125 0zm6.046875 -1.9375l-7.625 0l0 -1.109375l7.625 0l0 1.109375zm6.734375 9.84375l-2.640625 0l0 1.234375l-1.0 0l0 -5.390625q-0.40625 0.75 -0.8125 1.21875l-0.703125 -1.21875q1.984375 -2.296875 2.21875 -5.390625l-1.578125 0l0 -1.125l4.921875 0l0 1.125l-2.28125 0q-0.171875 1.875 -0.59375 3.15625l2.46875 0l0 6.390625zm-2.640625 -1.109375l1.640625 0l0 -4.171875l-1.640625 0l0 4.171875zm2.703125 2.046875q0.515625 -1.46875 0.75 -2.984375l0.9375 0.171875q-0.046875 1.28125 -0.640625 3.21875l-1.046875 -0.40625zm3.28125 -2.984375q0.28125 1.171875 0.234375 2.578125l-1.171875 0.234375q0.109375 -1.40625 -0.0625 -2.765625l1.0 -0.046875zm1.453125 -0.1875q0.421875 1.171875 0.53125 2.40625l-1.109375 0.234375q-0.0625 -1.34375 -0.359375 -2.515625l0.9375 -0.125zm1.125 2.296875q-0.125 -1.234375 -0.46875 -2.40625l0.984375 -0.125q0.421875 1.0625 0.59375 2.171875l-1.109375 0.359375zm-1.640625 -9.90625l-2.0 0l0 1.234375l2.0 0l0 -1.234375zm-2.0 4.390625l0 1.40625l2.0 0l0 -1.40625l-2.0 0zm2.0 -2.21875l-2.0 0l0 1.28125l2.0 0l0 -1.28125zm4.15625 7.671875q-0.0625 1.875 -1.296875 1.875l-1.40625 0l-0.046875 -1.109375l0.875 0q0.8125 0 0.8125 -0.890625l0.0625 -2.8125l-5.15625 0l0 0.234375l-1.171875 0l0 -8.25l7.15625 0l0 1.109375l-3.0 0l0 1.234375l2.171875 0l0 0.9375l-2.171875 0l0 1.28125l2.234375 0l0 0.9375l-2.234375 0l0 1.40625l3.28125 0l-0.109375 4.046875z" fill-rule="nonzero"/><path fill="#000000" fill-opacity="0.0" d="m130.79655 319.77954l32.787415 0l0 26.771637l-32.787415 0z" fill-rule="evenodd"/><path fill="#dd7e6b" d="m143.19678 337.78516l0 -2.09375l-2.078125 0l0 -0.875l2.078125 0l0 -2.078125l0.875 0l0 2.078125l2.078125 0l0 0.875l-2.078125 0l0 2.09375l-0.875 0zm6.5512085 1.234375l-2.953125 -7.625l1.09375 0l1.984375 5.53125q0.234375 0.671875 0.390625 1.25q0.1875 -0.625 0.421875 -1.25l2.0625 -5.53125l1.03125 0l-3.0 7.625l-1.03125 0z" fill-rule="nonzero"/><path fill="#000000" fill-opacity="0.0" d="m130.79655 346.5573l32.787415 0l0 26.771637l-32.787415 0z" fill-rule="evenodd"/><path fill="#dd7e6b" d="m144.6645 362.03168q0 -1.34375 0.28125 -2.171875q0.28125 -0.828125 0.828125 -1.265625q0.546875 -0.453125 1.375 -0.453125q0.625 0 1.078125 0.25q0.46875 0.234375 0.765625 0.703125q0.3125 0.46875 0.484375 1.140625q0.171875 0.671875 0.171875 1.796875q0 1.34375 -0.28125 2.171875q-0.28125 0.828125 -0.828125 1.28125q-0.546875 0.4375 -1.390625 0.4375q-1.09375 0 -1.71875 -0.78125q-0.765625 -0.953125 -0.765625 -3.109375zm0.96875 0q0 1.875 0.4375 2.5q0.4375 0.625 1.078125 0.625q0.65625 0 1.09375 -0.625q0.4375 -0.625 0.4375 -2.5q0 -1.875 -0.4375 -2.5q-0.4375 -0.625 -1.09375 -0.625q-0.640625 0 -1.03125 0.546875q-0.484375 0.703125 -0.484375 2.578125z" fill-rule="nonzero"/><path fill="#000000" fill-opacity="0.0" d="m130.79655 373.33508l32.787415 0l0 26.771667l-32.787415 0z" fill-rule="evenodd"/><path fill="#dd7e6b" d="m142.20589 390.2782l0 -0.9375l2.875 0l0 0.9375l-2.875 0zm6.2048645 2.296875l-2.953125 -7.625l1.09375 0l1.984375 5.53125q0.234375 0.671875 0.390625 1.25q0.1875 -0.625 0.421875 -1.25l2.0625 -5.53125l1.03125 0l-3.0 7.625l-1.03125 0z" fill-rule="nonzero"/><path fill="#000000" fill-opacity="0.0" d="m168.46295 359.92825l47.55905 0" fill-rule="evenodd"/><path stroke="#dd7e6b" stroke-width="4.0" stroke-linejoin="round" stroke-linecap="butt" d="m168.46295 359.92825l47.55905 0" fill-rule="evenodd"/><path fill="#000000" fill-opacity="0.0" d="m163.57973 333.15125l9.763779 0" fill-rule="evenodd"/><path stroke="#dd7e6b" stroke-width="4.0" stroke-linejoin="round" stroke-linecap="butt" d="m163.57973 333.15125l9.763779 0" fill-rule="evenodd"/><path fill="#000000" fill-opacity="0.0" d="m163.57973 359.92825l9.763779 0" fill-rule="evenodd"/><path stroke="#dd7e6b" stroke-width="4.0" stroke-linejoin="round" stroke-linecap="butt" d="m163.57973 359.92825l9.763779 0" fill-rule="evenodd"/><path fill="#000000" fill-opacity="0.0" d="m163.57973 386.7053l9.763779 0" fill-rule="evenodd"/><path stroke="#dd7e6b" stroke-width="4.0" stroke-linejoin="round" stroke-linecap="butt" d="m163.57973 386.7053l9.763779 0" fill-rule="evenodd"/><path fill="#000000" fill-opacity="0.0" d="m215.27345 386.7053l47.559036 0" fill-rule="evenodd"/><path stroke="#dd7e6b" stroke-width="4.0" stroke-linejoin="round" stroke-linecap="butt" d="m215.27345 386.7053l47.559036 0" fill-rule="evenodd"/><path fill="#000000" fill-opacity="0.0" d="m262.33463 386.7053l47.55905 0" fill-rule="evenodd"/><path stroke="#dd7e6b" stroke-width="4.0" stroke-linejoin="round" stroke-linecap="butt" d="m262.33463 386.7053l47.55905 0" fill-rule="evenodd"/><path fill="#000000" fill-opacity="0.0" d="m356.5644 359.92825l47.55905 0" fill-rule="evenodd"/><path stroke="#dd7e6b" stroke-width="4.0" stroke-linejoin="round" stroke-linecap="butt" d="m356.5644 359.92825l47.55905 0" fill-rule="evenodd"/><path fill="#000000" fill-opacity="0.0" d="m403.66138 333.1529l47.55905 0" fill-rule="evenodd"/><path stroke="#dd7e6b" stroke-width="4.0" stroke-linejoin="round" stroke-linecap="butt" d="m403.66138 333.1529l47.55905 0" fill-rule="evenodd"/><path fill="#000000" fill-opacity="0.0" d="m309.52112 386.7053l47.55905 0" fill-rule="evenodd"/><path stroke="#dd7e6b" stroke-width="4.0" stroke-linejoin="round" stroke-linecap="butt" d="m309.52112 386.7053l47.55905 0" fill-rule="evenodd"/><path fill="#000000" fill-opacity="0.0" d="m451.0636 333.1529l47.55905 0" fill-rule="evenodd"/><path stroke="#dd7e6b" stroke-width="4.0" stroke-linejoin="round" stroke-linecap="butt" d="m451.0636 333.1529l47.55905 0" fill-rule="evenodd"/><path fill="#000000" fill-opacity="0.0" d="m498.12476 333.1529l47.559082 0" fill-rule="evenodd"/><path stroke="#dd7e6b" stroke-width="4.0" stroke-linejoin="round" stroke-linecap="butt" d="m498.12476 333.1529l47.559082 0" fill-rule="evenodd"/><path fill="#000000" fill-opacity="0.0" d="m543.67377 333.1529l47.559082 0" fill-rule="evenodd"/><path stroke="#dd7e6b" stroke-width="4.0" stroke-linejoin="round" stroke-linecap="butt" d="m543.67377 333.1529l47.559082 0" fill-rule="evenodd"/><path fill="#000000" fill-opacity="0.0" d="m591.2615 359.92825l47.559082 0" fill-rule="evenodd"/><path stroke="#dd7e6b" stroke-width="4.0" stroke-linejoin="round" stroke-linecap="butt" d="m591.2615 359.92825l47.559082 0" fill-rule="evenodd"/><path fill="#000000" fill-opacity="0.0" d="m639.576 386.7053l47.559082 0" fill-rule="evenodd"/><path stroke="#dd7e6b" stroke-width="4.0" stroke-linejoin="round" stroke-linecap="butt" d="m639.576 386.7053l47.559082 0" fill-rule="evenodd"/><path fill="#000000" fill-opacity="0.0" d="m214.59793 359.92825l0 26.771667" fill-rule="evenodd"/><path stroke="#dd7e6b" stroke-width="4.0" stroke-linejoin="round" stroke-linecap="butt" d="m214.59793 359.92825l0 26.771667" fill-rule="evenodd"/><path fill="#000000" fill-opacity="0.0" d="m357.04294 359.92825l0 26.771667" fill-rule="evenodd"/><path stroke="#dd7e6b" stroke-width="4.0" stroke-linejoin="round" stroke-linecap="butt" d="m357.04294 359.92825l0 26.771667" fill-rule="evenodd"/><path fill="#000000" fill-opacity="0.0" d="m403.22516 333.15125l0 26.771667" fill-rule="evenodd"/><path stroke="#dd7e6b" stroke-width="4.0" stroke-linejoin="round" stroke-linecap="butt" d="m403.22516 333.15125l0 26.771667" fill-rule="evenodd"/><path fill="#000000" fill-opacity="0.0" d="m591.23706 333.15125l0 26.771667" fill-rule="evenodd"/><path stroke="#dd7e6b" stroke-width="4.0" stroke-linejoin="round" stroke-linecap="butt" d="m591.23706 333.15125l0 26.771667" fill-rule="evenodd"/><path fill="#000000" fill-opacity="0.0" d="m639.3253 359.67706l0 26.771667" fill-rule="evenodd"/><path stroke="#dd7e6b" stroke-width="4.0" stroke-linejoin="round" stroke-linecap="butt" d="m639.3253 359.67706l0 26.771667" fill-rule="evenodd"/><path fill="#000000" fill-opacity="0.0" d="m15.541995 345.06818l117.41733 0l0 56.031494l-117.41733 0z" fill-rule="evenodd"/><path fill="#dd7e6b" d="m32.469406 384.78818l0 -22.90625l4.5625 0l5.421875 16.21875q0.75 2.265625 1.09375 3.390625q0.390625 -1.25 1.21875 -3.671875l5.484375 -15.9375l4.078125 0l0 22.90625l-2.921875 0l0 -19.171875l-6.65625 19.171875l-2.734375 0l-6.625 -19.5l0 19.5l-2.921875 0zm26.625 0l0 -22.90625l3.03125 0l0 20.203125l11.28125 0l0 2.703125l-14.3125 0zm21.375 0l0 -20.203125l-7.546875 0l0 -2.703125l18.15625 0l0 2.703125l-7.578125 0l0 20.203125l-3.03125 0zm10.5 -6.875l0 -2.828125l8.640625 0l0 2.828125l-8.640625 0zm10.984375 0.828125l2.8125 -0.375q0.484375 2.390625 1.640625 3.453125q1.171875 1.046875 2.84375 1.046875q1.984375 0 3.34375 -1.375q1.375 -1.375 1.375 -3.40625q0 -1.9375 -1.265625 -3.1875q-1.265625 -1.265625 -3.21875 -1.265625q-0.796875 0 -1.984375 0.3125l0.3125 -2.46875q0.28125 0.03125 0.453125 0.03125q1.796875 0 3.234375 -0.9375q1.4375 -0.9375 1.4375 -2.890625q0 -1.546875 -1.046875 -2.5625q-1.046875 -1.015625 -2.703125 -1.015625q-1.640625 0 -2.734375 1.03125q-1.09375 1.03125 -1.40625 3.09375l-2.8125 -0.5q0.515625 -2.828125 2.34375 -4.375q1.828125 -1.5625 4.546875 -1.5625q1.875 0 3.453125 0.8125q1.578125 0.796875 2.40625 2.1875q0.84375 1.390625 0.84375 2.953125q0 1.484375 -0.796875 2.703125q-0.796875 1.21875 -2.359375 1.9375q2.03125 0.46875 3.15625 1.953125q1.125 1.46875 1.125 3.6875q0 3.0 -2.1875 5.09375q-2.1875 2.078125 -5.53125 2.078125q-3.015625 0 -5.015625 -1.796875q-1.984375 -1.796875 -2.265625 -4.65625z" fill-rule="nonzero"/></g></svg>