<svg version="1.1" viewBox="0.0 0.0 797.8057742782153 194.87926509186352" fill="none" stroke="none" stroke-linecap="square" stroke-miterlimit="10" xmlns:xlink="http://www.w3.org/1999/xlink" xmlns="http://www.w3.org/2000/svg"><clipPath id="p.0"><path d="m0 0l797.8058 0l0 194.87927l-797.8058 0l0 -194.87927z" clip-rule="nonzero"/></clipPath><g clip-path="url(#p.0)"><path fill="#000000" fill-opacity="0.0" d="m0 0l797.8058 0l0 194.87927l-797.8058 0z" fill-rule="evenodd"/><path fill="#000000" fill-opacity="0.0" d="m17.593176 102.10769c1.1329632 -11.766945 3.209753 -69.9442 6.797783 -70.60167c3.588028 -0.6574707 11.268091 59.688744 14.730391 66.65685c3.4622993 6.968109 3.5253944 -28.529434 6.0434036 -24.848183c2.5180054 3.6812515 6.4209023 45.095047 9.06464 46.935677c2.6437378 1.840622 4.5317 -33.065346 6.797783 -35.89193c2.2660828 -2.8265915 4.343643 20.510109 6.7987137 18.932411c2.4550629 -1.5777054 5.1618958 -27.54396 7.931671 -28.39862c2.769783 -0.85466003 5.0360184 30.896225 8.686989 23.270645c3.6509705 -7.62558 8.812561 -66.19755 13.218842 -69.02414c4.4062805 -2.8265858 9.253006 51.801533 13.218842 52.064617c3.9658356 0.2630844 7.239929 -48.64532 10.576187 -50.486107c3.336258 -1.840786 6.482918 35.497223 9.44136 39.44139c2.9584503 3.9441757 5.287796 -17.88007 8.309341 -15.77636c3.0215454 2.1037064 6.924286 28.398613 9.819946 28.398613c2.8956604 0 5.0360107 -26.360798 7.554016 -28.398613c2.5180054 -2.037819 6.2950287 13.476433 7.5540314 16.171715" fill-rule="evenodd"/><path stroke="#4a86e8" stroke-width="3.0" stroke-linejoin="round" stroke-linecap="butt" d="m17.593176 102.10769c1.1329632 -11.766945 3.209753 -69.9442 6.797783 -70.60167c3.588028 -0.6574707 11.268091 59.688744 14.730391 66.65685c3.4622993 6.968109 3.5253944 -28.529434 6.0434036 -24.848183c2.5180054 3.6812515 6.4209023 45.095047 9.06464 46.935677c2.6437378 1.840622 4.5317 -33.065346 6.797783 -35.89193c2.2660828 -2.8265915 4.343643 20.510109 6.7987137 18.932411c2.4550629 -1.5777054 5.1618958 -27.54396 7.931671 -28.39862c2.769783 -0.85466003 5.0360184 30.896225 8.686989 23.270645c3.6509705 -7.62558 8.812561 -66.19755 13.218842 -69.02414c4.4062805 -2.8265858 9.253006 51.801533 13.218842 52.064617c3.9658356 0.2630844 7.239929 -48.64532 10.576187 -50.486107c3.336258 -1.840786 6.482918 35.497223 9.44136 39.44139c2.9584503 3.9441757 5.287796 -17.88007 8.309341 -15.77636c3.0215454 2.1037064 6.924286 28.398613 9.819946 28.398613c2.8956604 0 5.0360107 -26.360798 7.554016 -28.398613c2.5180054 -2.037819 6.2950287 13.476433 7.5540314 16.171715" fill-rule="evenodd"/><path fill="#000000" fill-opacity="0.0" d="m43.44882 148.53018l94.83464 0l0 42.015747l-94.83464 0z" fill-rule="evenodd"/><path fill="#000000" d="m60.803642 175.74706q-1.109375 -1.1875 -2.375 -2.0q-0.65625 2.15625 -3.328125 3.484375l-0.890625 -1.328125q2.890625 -1.125 3.1875 -4.09375l-3.125 0l0 -1.1875l3.203125 0l0 -1.703125l1.1875 0q0.59375 0.078125 0.0625 0.4375l0 1.265625l3.421875 0l0 1.1875l-3.421875 0l-0.0625 0.671875q1.625 0.515625 3.109375 2.0l-0.96875 1.265625zm0.53125 -7.046875q-1.125 -1.421875 -2.375 -2.15625l0 1.703125l-1.265625 0l0 -1.484375q-1.109375 1.640625 -3.046875 2.671875l-0.734375 -1.265625q1.921875 -0.953125 3.265625 -2.671875l-2.828125 0l0 -1.1875l3.34375 0l0 -4.15625l1.1875 0q0.59375 0.078125 0.078125 0.453125l0 3.703125l3.265625 0l0 1.1875l-2.828125 0q1.640625 0.59375 2.890625 2.015625l-0.953125 1.1875zm9.046875 8.53125q-1.921875 -0.59375 -3.484375 -1.9375l0.96875 -1.03125q1.484375 0.96875 3.1875 1.5625l-0.671875 1.40625zm-4.375 -1.9375q0.140625 0.3125 -0.375 0.3125q-1.859375 1.25 -3.703125 1.78125l-0.75 -1.484375q2.15625 -0.609375 3.78125 -1.71875l1.046875 1.109375zm-0.75 -11.125l0.453125 -1.9375l-3.265625 0l0 -1.40625l8.3125 0l0 1.40625l-3.421875 0l-0.734375 1.9375l3.40625 0l0 9.875l-6.828125 0l0 -9.875l2.078125 0zm3.5 2.8125l0 -1.625l-4.3125 0l0 1.625l4.3125 0zm-4.3125 2.90625l4.3125 0l0 -1.71875l-4.3125 0l0 1.71875zm0 2.96875l4.3125 0l0 -1.78125l-4.3125 0l0 1.78125zm-8.828125 -11.875q0.890625 0.734375 1.328125 1.921875l-1.328125 0.8125q-0.515625 -0.953125 -1.265625 -1.921875l1.265625 -0.8125zm3.78125 2.078125q0.75 -0.96875 1.34375 -2.15625l1.25 0.59375q0.53125 0.296875 -0.140625 0.375q-0.515625 1.03125 -1.1875 2.0l-1.265625 -0.8125zm21.671875 4.375l-4.375 0l0 6.453125l4.53125 -0.96875l0.296875 1.265625l-7.421875 2.015625q-0.078125 0.515625 -0.375 0.21875l-0.671875 -1.9375l2.15625 -0.375l0 -13.125l1.40625 0q0.59375 0.0625 0.078125 0.4375l0 4.609375l4.375 0l0 1.40625zm7.875 -2.078125q0.0625 0.375 -0.375 0.21875l-4.96875 2.828125l0 5.640625q0 0.59375 0.515625 0.59375l3.046875 0q0.734375 0 0.890625 -0.890625l0.21875 -1.640625l1.484375 0.375l-0.15625 1.40625q-0.21875 2.15625 -1.921875 2.15625l-4.375 0q-1.1875 0 -1.1875 -1.265625l0 -13.953125l1.40625 0q0.59375 0.078125 0.078125 0.453125l0 5.5625l4.21875 -2.75l1.125 1.265625zm16.390625 -2.671875l-2.96875 0l0 4.375l2.15625 0l0 1.40625l-2.15625 0q-0.140625 5.640625 -3.328125 8.390625l-1.046875 -1.25q2.890625 -2.609375 2.890625 -7.140625l-2.296875 0l0 -1.40625l2.296875 0l0 -4.375l-1.78125 0l0 -1.40625l7.71875 0l0 8.671875q0 2.609375 0.296875 3.640625q0.6718826 2.375 0.9687576 -0.96875l1.34375 0.75q-0.828125 4.609375 -2.4531326 3.125q-1.640625 -1.5 -1.640625 -5.65625l0 -8.15625zm-7.859375 13.953125l-1.265625 0l0 -0.671875l-2.59375 0l0 1.046875l-1.265625 0l0 -6.171875l5.125 0l0 5.796875zm-1.265625 -4.609375l-2.59375 0l0 2.75l2.59375 0l0 -2.75zm1.046875 -2.296875l-4.390625 0l0 -1.40625l4.390625 0l0 1.40625zm0 -2.671875l-4.390625 0l0 -1.40625l4.390625 0l0 1.40625zm1.109375 -2.59375l-6.53125 0l0 -1.40625l6.53125 0l0 1.40625zm-1.109375 -2.53125l-4.390625 0l0 -1.40625l4.390625 0l0 1.40625zm24.109383 2.90625l-1.84375 0l0 1.328125l1.84375 -0.078125l0 -1.25zm-3.109375 -1.1875l2.96875 0l0 -3.5l1.40625 0q0.59375 0.078125 0.078125 0.453125l0 0.8125l3.40625 0l0 1.1875l-3.40625 0l0 1.046875l3.78125 0l0.15625 -0.296875l1.109375 0.515625q0.4375 0.140625 0 0.375q-0.21875 1.109375 -0.671875 2.21875l-1.328125 -0.296875l0.4375 -1.328125l-3.5625 0l0 1.1875l2.671875 -0.234375l0 1.1875l-2.671875 0.234375l0 0.515625q0 0.515625 0.671875 0.515625l2.078125 0q0.375 0 0.4375 -0.296875l0.15625 -0.734375l1.328125 0.359375l-0.21875 0.890625q-0.21875 0.96875 -1.1875 0.96875l-3.1875 0q-1.34375 0 -1.34375 -1.328125l0 -0.828125l-1.84375 0.078125l0 4.3125q0 3.1875 -2.15625 5.5625l-0.75 -1.40625q1.640625 -1.859375 1.640625 -4.3125l0 -7.859375zm-4.234375 4.8125l-0.296875 1.640625l3.125 0l-0.53125 4.296875q-0.296875 2.390625 -2.140625 2.390625l-0.828125 0l-0.296875 -1.421875l0.96875 0q0.96875 0 1.046875 -0.890625l0.296875 -2.96875l-2.015625 0l-0.4375 1.40625l-1.34375 -0.140625q0.59375 -1.640625 1.125 -4.3125l-1.9375 0l0 -1.40625l6.90625 0l0 1.40625l-3.640625 0zm-2.15625 -7.421875l4.828125 0l0 4.984375l-1.265625 0l0 -0.53125l-2.296875 0l0 0.59375l-1.265625 0l0 -5.046875zm1.265625 3.265625l2.296875 0l0 -2.078125l-2.296875 0l0 2.078125zm10.609375 6.171875l1.1875 0q0.59375 0.0625 0.078125 0.4375l0 4.375q0 0.3125 0.296875 0.3125l0.671875 0q0.296875 0 0.375 -0.53125l0.140625 -1.1875l1.265625 0.296875l-0.078125 1.1875q-0.078125 1.421875 -1.1875 1.421875l-1.484375 0q-1.265625 0 -1.265625 -1.265625l0 -5.046875zm-2.671875 -0.078125l1.1875 0q0.59375 0.078125 0.078125 0.4375l0 2.53125q0 2.59375 -2.59375 3.9375l-0.59375 -1.265625q1.921875 -0.96875 1.921875 -3.125l0 -2.515625z" fill-rule="nonzero"/><path fill="#000000" fill-opacity="0.0" d="m263.2454 87.603676l0 52.220467" fill-rule="evenodd"/><path stroke="#4a86e8" stroke-width="3.0" stroke-linejoin="round" stroke-linecap="butt" d="m263.2454 97.88493l0 41.93921" fill-rule="evenodd"/><path fill="#4a86e8" stroke="#4a86e8" stroke-width="3.0" stroke-linecap="butt" d="m263.2454 97.88493l3.3737793 3.3737488l-3.3737793 -9.269302l-3.3737488 9.269302z" fill-rule="evenodd"/><path fill="#000000" fill-opacity="0.0" d="m280.31104 28.963255l0 110.866135" fill-rule="evenodd"/><path stroke="#4a86e8" stroke-width="3.0" stroke-linejoin="round" stroke-linecap="butt" d="m280.31104 39.244514l0 100.58488" fill-rule="evenodd"/><path fill="#4a86e8" stroke="#4a86e8" stroke-width="3.0" stroke-linecap="butt" d="m280.31104 39.244514l3.3737488 3.3737488l-3.3737488 -9.269302l-3.3737488 9.269302z" fill-rule="evenodd"/><path fill="#000000" fill-opacity="0.0" d="m297.37665 49.212597l0 90.61417" fill-rule="evenodd"/><path stroke="#4a86e8" stroke-width="3.0" stroke-linejoin="round" stroke-linecap="butt" d="m297.37665 59.49386l0 80.33291" fill-rule="evenodd"/><path fill="#4a86e8" stroke="#4a86e8" stroke-width="3.0" stroke-linecap="butt" d="m297.37665 59.49386l3.3737488 3.3737488l-3.3737488 -9.269302l-3.3737488 9.269302z" fill-rule="evenodd"/><path fill="#000000" fill-opacity="0.0" d="m314.4265 69.461945l0 70.3622" fill-rule="evenodd"/><path stroke="#4a86e8" stroke-width="3.0" stroke-linejoin="round" stroke-linecap="butt" d="m314.4265 79.7432l0 60.08094" fill-rule="evenodd"/><path fill="#4a86e8" stroke="#4a86e8" stroke-width="3.0" stroke-linecap="butt" d="m314.4265 79.7432l3.3737488 3.3737488l-3.3737488 -9.269302l-3.3737488 9.269302z" fill-rule="evenodd"/><path fill="#000000" fill-opacity="0.0" d="m330.38452 87.603676l0 52.220467" fill-rule="evenodd"/><path stroke="#4a86e8" stroke-width="3.0" stroke-linejoin="round" stroke-linecap="butt" d="m330.38452 97.88493l0 41.93921" fill-rule="evenodd"/><path fill="#4a86e8" stroke="#4a86e8" stroke-width="3.0" stroke-linecap="butt" d="m330.38452 97.88493l3.3737488 3.3737488l-3.3737488 -9.269302l-3.3737488 9.269302z" fill-rule="evenodd"/><path fill="#d9ead3" d="m178.77821 101.76247l45.842514 0l0 -7.9921265l15.984253 15.984253l-15.984253 15.984253l0 -7.9921265l-45.842514 0z" fill-rule="evenodd"/><path fill="#000000" fill-opacity="0.0" d="m249.39633 148.53018l94.834625 0l0 42.015747l-94.834625 0z" fill-rule="evenodd"/><path fill="#000000" d="m280.70428 162.4658l-1.484375 0l0 -1.421875l9.578125 0l0 1.421875l-2.21875 0l0 14.390625l-1.484375 0l0 -3.78125q-3.125 1.109375 -5.28125 1.625q-0.359375 0.53125 -0.4375 0.234375l-0.453125 -1.859375q0.890625 -0.15625 1.78125 -0.296875l0 -10.3125zm6.390625 12.90625q2.296875 -1.5625 3.5625 -3.265625q-1.859375 -2.75 -2.375 -7.34375l-0.890625 0l0 -1.40625l6.375 0l0.296875 -0.375l1.265625 1.1875l-0.375 0.21875q-0.515625 4.53125 -2.375 7.796875q1.1875 1.5625 3.125 2.75l-0.890625 1.5625q-1.9375 -1.5 -3.1875 -3.046875q-1.484375 1.703125 -3.5 3.34375l-1.03125 -1.421875zm4.453125 -4.53125q1.1875 -1.78125 1.78125 -6.078125l-3.640625 0q0.375 3.484375 1.859375 6.078125zm-9.359375 -8.375l0 2.515625l2.90625 0l0 -2.515625l-2.90625 0zm0 3.703125l0 2.453125l2.90625 0l0 -2.453125l-2.90625 0zm0 3.640625l0 2.671875q1.421875 -0.296875 2.90625 -0.8125l0 -1.859375l-2.90625 0zm31.765625 0.4375q0.671875 0.375 -0.140625 0.453125q-1.265625 1.109375 -2.671875 2.0q1.484375 1.40625 3.78125 2.453125l-0.734375 1.484375q-2.75 -1.484375 -4.234375 -3.71875l0 2.984375q0 1.1875 -1.046875 1.1875l-1.1875 0l-0.296875 -1.1875l0.96875 0q0.296875 0 0.296875 -0.296875l0 -4.53125l-3.703125 0l0 -1.1875l4.96875 0l0 1.03125l0.59375 0.890625q1.265625 -0.890625 2.296875 -2.0l1.109375 0.4375zm-6.453125 1.5625l0.75 0.453125q0.359375 0.296875 -0.15625 0.359375q-1.40625 2.75 -4.234375 4.234375l-0.8125 -1.1875q2.078125 -0.890625 3.265625 -2.671875l-2.453125 0l0 -1.1875l3.640625 0zm4.375 -11.65625q0.828125 0.234375 -0.0625 0.53125l-0.828125 1.1875l3.265625 0l0 1.1875l-4.59375 0l0 0.953125l3.640625 0l0 1.1875l-3.640625 0l0 0.890625l5.046875 0l0 1.1875l-10.90625 0l0 -1.1875l4.59375 0l0 -0.890625l-3.640625 0l0 -1.1875l3.640625 0l0 -0.953125l-4.375 0l0 -1.1875l2.453125 0l-0.890625 -1.265625l1.40625 -0.453125l0.96875 1.71875l1.625 0l0.96875 -1.859375l1.328125 0.140625zm-10.15625 -0.140625q0.59375 0.078125 0.0625 0.4375l0 3.203125l2.15625 0l0 1.40625l-2.15625 0l0 1.859375q1.640625 1.03125 2.609375 2.21875l-0.890625 1.34375q-0.75 -0.96875 -1.71875 -1.78125l0 8.390625l-1.25 0l0 -7.953125q-0.671875 2.078125 -2.15625 3.78125l-0.890625 -1.546875q2.375 -2.75 2.96875 -6.3125l-2.296875 0l0 -1.40625l2.375 0l0 -3.640625l1.1875 0zm6.234375 7.5625q1.921875 0.59375 3.484375 1.5625l-0.8125 1.046875q-0.96875 -0.75 -3.421875 -1.5625l0.75 -1.046875z" fill-rule="nonzero"/><path fill="#d9ead3" d="m353.02493 101.76247l45.84253 0l0 -7.9921265l15.984253 15.984253l-15.984253 15.984253l0 -7.9921265l-45.84253 0z" fill-rule="evenodd"/><path fill="#000000" fill-opacity="0.0" d="m437.49213 87.60499l0 52.220467" fill-rule="evenodd"/><path stroke="#4a86e8" stroke-width="3.0" stroke-linejoin="round" stroke-linecap="butt" d="m437.49213 87.60499l0 52.220467" fill-rule="evenodd"/><path fill="#000000" fill-opacity="0.0" d="m454.55774 28.964567l0 110.866135" fill-rule="evenodd"/><path stroke="#4a86e8" stroke-width="3.0" stroke-linejoin="round" stroke-linecap="butt" d="m454.55774 28.964567l0 110.866135" fill-rule="evenodd"/><path fill="#000000" fill-opacity="0.0" d="m471.62335 49.21391l0 90.61417" fill-rule="evenodd"/><path stroke="#4a86e8" stroke-width="3.0" stroke-linejoin="round" stroke-linecap="butt" d="m471.62335 49.21391l0 90.61417" fill-rule="evenodd"/><path fill="#000000" fill-opacity="0.0" d="m488.67322 69.46326l0 70.3622" fill-rule="evenodd"/><path stroke="#4a86e8" stroke-width="3.0" stroke-linejoin="round" stroke-linecap="butt" d="m488.67322 69.46326l0 70.3622" fill-rule="evenodd"/><path fill="#000000" fill-opacity="0.0" d="m504.63123 87.60499l0 52.220467" fill-rule="evenodd"/><path stroke="#4a86e8" stroke-width="3.0" stroke-linejoin="round" stroke-linecap="butt" d="m504.63123 87.60499l0 52.220467" fill-rule="evenodd"/><path fill="#000000" fill-opacity="0.0" d="m423.64304 148.5315l94.834625 0l0 42.015747l-94.834625 0z" fill-rule="evenodd"/><path fill="#000000" d="m455.91974 165.06087l0 -4.671875l11.28125 0l0 4.671875l-11.28125 0zm-2.515625 2.078125l0 -1.1875l16.390625 0l0 1.1875l-16.390625 0zm8.828125 5.484375l0 0.828125l5.421875 0l0 1.1875l-5.421875 0l0 0.890625l7.796875 0l0 1.1875l-16.859375 0l0 -1.1875l7.796875 0l0 -0.890625l-5.484375 0l0 -1.1875l5.484375 0l0 -0.828125l-2.515625 0l-2.53125 0l0 -4.59375l11.28125 0l0 4.59375l-4.96875 0zm3.703125 -2.734375l0 -0.96875l-3.703125 0l0 0.96875l3.703125 0zm-3.703125 1.84375l3.703125 0l0 -0.953125l-3.703125 0l0 0.953125zm-5.046875 -9.5l8.75 0l0 -0.953125l-8.75 0l0 0.953125zm0 1.9375l8.75 0l0 -1.046875l-8.75 0l0 1.046875zm0 5.71875l3.78125 0l0 -0.96875l-3.78125 0l0 0.96875zm0 1.84375l3.78125 0l0 -0.953125l-3.78125 0l0 0.953125zm15.0625 -3.109375q3.1875 -2.890625 4.015625 -7.9375l1.625 0.4375q0.515625 0.15625 -0.21875 0.59375q-0.15625 1.109375 -1.046875 3.265625l0.453125 0.15625q0.296875 0.21875 -0.21875 0.515625l0 10.984375l-1.484375 0l0 -9.28125q-0.890625 1.40625 -2.15625 2.59375l-0.96875 -1.328125zm16.484375 3.640625l-0.234375 1.703125q-0.296875 2.15625 -2.140625 2.15625l-4.984375 0q-1.328125 0 -1.328125 -1.265625l0 -13.953125l1.40625 0q0.75 0.078125 0.078125 0.4375l0 5.5q2.8125 -1.109375 5.1875 -2.890625l1.125 1.328125q0.515625 0.453125 -0.375 0.453125q-3.1875 1.625 -5.9375 2.734375l0 5.421875q0 0.59375 0.515625 0.59375l3.9375 0q0.8125 0 0.890625 -0.734375l0.140625 -1.78125l1.71875 0.296875z" fill-rule="nonzero"/><path fill="#d9ead3" d="m527.27167 101.76247l45.84253 0l0 -7.9921265l15.984253 15.984253l-15.984253 15.984253l0 -7.9921265l-45.84253 0z" fill-rule="evenodd"/><path fill="#000000" fill-opacity="0.0" d="m611.73926 129.66183l34.48822 0l0 -39.81102l34.48816 0" fill-rule="evenodd"/><path stroke="#4a86e8" stroke-width="3.0" stroke-linejoin="round" stroke-linecap="butt" d="m611.73926 129.66183l34.48822 0l0 -39.81102l34.48816 0" fill-rule="evenodd"/><path fill="#000000" fill-opacity="0.0" d="m680.70886 129.66183l34.48822 0l0 -39.81102l34.48816 0" fill-rule="evenodd"/><path stroke="#4a86e8" stroke-width="3.0" stroke-linejoin="round" stroke-linecap="butt" d="m680.70886 129.66183l34.48822 0l0 -39.81102l34.48816 0" fill-rule="evenodd"/><path fill="#000000" fill-opacity="0.0" d="m680.70886 89.31884l0 40.88189" fill-rule="evenodd"/><path stroke="#4a86e8" stroke-width="3.0" stroke-linejoin="round" stroke-linecap="butt" d="m680.70886 89.31884l0 40.88189" fill-rule="evenodd"/><path fill="#000000" fill-opacity="0.0" d="m749.67847 89.31884l0 40.88189" fill-rule="evenodd"/><path stroke="#4a86e8" stroke-width="3.0" stroke-linejoin="round" stroke-linecap="butt" d="m749.67847 89.31884l0 40.88189" fill-rule="evenodd"/><path fill="#000000" fill-opacity="0.0" d="m749.67847 130.1933l45.165344 0" fill-rule="evenodd"/><path stroke="#4a86e8" stroke-width="3.0" stroke-linejoin="round" stroke-linecap="butt" d="m749.67847 130.1933l45.165344 0" fill-rule="evenodd"/><path fill="#000000" fill-opacity="0.0" d="m655.8648 148.52887l94.834656 0l0 42.015747l-94.834656 0z" fill-rule="evenodd"/><path fill="#000000" d="m689.84467 176.79262l0 -0.53125l-2.59375 0l0 0.828125l-1.265625 0l0 -6.09375l5.125 0l0 5.796875l-1.265625 0zm3.203125 -16.109375l8.53125 0l0 15.28125q0 1.046875 -0.890625 1.046875l-1.78125 0l-0.296875 -1.40625l1.40625 0q0.296875 0 0.296875 -0.3125l0 -13.203125l-6.015625 0l0 8.453125q0 3.859375 -1.921875 6.46875l-1.109375 -1.1875q1.78125 -2.453125 1.78125 -5.9375l0 -9.203125zm4.96875 6.375l1.5625 0l0 1.1875l-4.453125 0l0 -1.1875l1.625 0l0 -1.78125l-1.625 0l0 -1.1875l1.625 0l0 -1.484375l1.1875 0q0.59375 0.078125 0.078125 0.453125l0 1.03125l1.625 0l0 1.1875l-1.625 0l0 1.78125zm-10.765625 8.015625l2.59375 0l0 -2.890625l-2.59375 0l0 2.890625zm-1.03125 -6.671875l4.890625 0l0 1.40625l-4.890625 0l0 -1.40625zm0 -7.796875l4.890625 0l0 1.40625l-4.890625 0l0 -1.40625zm5.859375 2.59375l0 1.40625l-6.75 0l0 -1.40625l6.75 0zm-5.859375 4.015625l0 -1.421875l4.890625 0l0 1.421875l-4.890625 0zm10.3125 8.015625l-1.265625 0l0 -5.640625l3.9375 0l0 4.59375l-2.671875 0l0 1.046875zm0 -4.453125l0 2.21875l1.40625 0l0 -2.21875l-1.40625 0zm17.890625 3.484375q2.671875 0.890625 6.453125 1.109375l-0.75 1.484375q-4.21875 -0.359375 -7.046875 -1.703125q-3.640625 1.703125 -7.5 2.0l-0.890625 -1.25q4.015625 -0.375 6.90625 -1.5625q-1.5625 -1.125 -2.453125 -2.234375q-0.953125 0.671875 -3.109375 1.40625l-0.59375 -1.1875q3.046875 -0.953125 4.828125 -3.03125l1.40625 0.21875q0.59375 0.140625 -0.15625 0.375l-0.515625 0.515625l9.28125 0l0 1.1875l-2.828125 0q-1.25 1.5625 -3.03125 2.671875zm-5.875 -9.796875q-0.140625 -0.375 -0.359375 -0.75l0.8125 -0.4375q0.671875 1.03125 1.109375 2.15625l-0.96875 0.4375l-0.140625 -0.4375l-1.109375 0.140625l0 3.78125l-1.265625 0l0 -3.703125l-1.78125 0.140625q-0.375 0.59375 -0.453125 0l-0.140625 -1.109375l1.484375 -0.078125l0.59375 -0.65625l-1.9375 -1.265625l0.59375 -0.890625l0.53125 0.296875l1.328125 -2.234375l0.8125 0.53125q0.234375 0.296875 -0.140625 0.296875l-1.265625 1.921875l0.671875 0.453125l1.40625 -1.78125l0.890625 0.515625q0.296875 0.296875 -0.21875 0.296875l-2.15625 2.515625l1.703125 -0.140625zm-2.515625 2.078125q0.515625 0.140625 0 0.375q-0.078125 1.03125 -0.59375 2.140625l-0.96875 -0.21875q0.59375 -1.1875 0.59375 -2.453125l0.96875 0.15625zm3.109375 -0.296875q0.671875 0.890625 0.890625 2.0l-0.890625 0.375q-0.296875 -1.265625 -0.890625 -2.0l0.890625 -0.375zm6.6875 -3.640625l1.78125 -2.8125l0.8125 0.515625q0.21875 0.296875 -0.140625 0.296875l-1.1875 1.78125l0.734375 0.59375l1.40625 -2.15625l0.890625 0.515625q0.296875 0.296875 -0.21875 0.296875l-2.078125 2.96875l1.859375 -0.0625q-0.15625 -0.453125 -0.453125 -0.890625l0.828125 -0.453125q0.65625 0.96875 1.25 2.234375l-0.953125 0.515625l-0.234375 -0.515625l-1.25 0.0625l0 3.859375l-1.265625 0l0 -3.703125l-1.40625 0.078125q-0.375 0.59375 -0.453125 0l-0.140625 -1.125l1.109375 0l0.59375 -0.8125l-1.484375 -1.1875zm4.296875 3.640625q0.671875 0.96875 0.890625 2.0l-0.890625 0.375q-0.296875 -1.109375 -0.890625 -2.0l0.890625 -0.375zm-4.671875 2.453125q0.515625 -1.265625 0.59375 -2.375l0.96875 0.140625q0.515625 0.15625 0 0.453125q-0.15625 0.953125 -0.59375 2.0l-0.96875 -0.21875zm-2.515625 4.890625q1.40625 -0.8125 2.515625 -2.0l-4.96875 0q1.03125 1.1875 2.453125 2.0zm-1.484375 -6.375l0 0.890625l2.59375 0l0 -0.890625l-2.59375 0zm3.625 1.78125l-4.671875 0l0 -2.671875l4.671875 0l0 2.671875zm-0.0625 -8.765625l0 0.890625l-4.609375 0l0 -0.890625l4.609375 0zm-5.046875 2.375l0 -0.890625l5.484375 0l0 0.890625l-5.484375 0zm5.109375 0.671875l0 0.890625l-4.671875 0l0 -0.890625l4.671875 0zm0 1.484375l0 0.890625l-4.671875 0l0 -0.890625l4.671875 0z" fill-rule="nonzero"/></g></svg>