<svg version="1.1" viewBox="0.0 0.0 424.63517060367457 256.5853018372703" fill="none" stroke="none" stroke-linecap="square" stroke-miterlimit="10" xmlns:xlink="http://www.w3.org/1999/xlink" xmlns="http://www.w3.org/2000/svg"><clipPath id="p.0"><path d="m0 0l424.63516 0l0 256.5853l-424.63516 0l0 -256.5853z" clip-rule="nonzero"/></clipPath><g clip-path="url(#p.0)"><path fill="#000000" fill-opacity="0.0" d="m0 0l424.63516 0l0 256.5853l-424.63516 0z" fill-rule="evenodd"/><path fill="#000000" fill-opacity="0.0" d="m5.5682416 202.44655c3.1968503 -31.79396 9.056868 -188.98732 19.181103 -190.76378c10.124233 -1.7764654 31.794838 161.27734 41.56431 180.10498c9.769463 18.827652 9.947502 -77.08573 17.05249 -67.1391c7.104988 9.946625 18.117676 121.84558 25.57743 126.81889c7.459755 4.9733124 12.786964 -89.341644 19.181091 -96.979004c6.39415 -7.6373596 12.256348 55.41777 19.183731 51.15486c6.9273834 -4.262909 14.565186 -74.423004 22.380585 -76.732285c7.815399 -2.3092728 14.209976 83.48076 24.51181 62.876633c10.301834 -20.60411 24.866135 -178.86395 37.29921 -186.50131c12.433075 -7.6373577 26.108917 139.96632 37.299225 140.67717c11.190277 0.71084595 20.42868 -131.43832 29.842499 -136.41208c9.413818 -4.9737535 18.292664 95.91251 26.640442 106.56956c8.347748 10.657036 14.92038 -48.311462 23.446167 -42.627296c8.525818 5.6841583 19.538086 76.73228 27.70868 76.73228c8.170593 0 14.209961 -71.22616 21.314972 -76.73228c7.1049805 -5.5061264 17.762451 36.41294 21.314941 43.695534" fill-rule="evenodd"/><path stroke="#000000" stroke-width="3.0" stroke-linejoin="round" stroke-linecap="butt" d="m5.5682416 202.44655c3.1968503 -31.79396 9.056868 -188.98732 19.181103 -190.76378c10.124233 -1.7764654 31.794838 161.27734 41.56431 180.10498c9.769463 18.827652 9.947502 -77.08573 17.05249 -67.1391c7.104988 9.946625 18.117676 121.84558 25.57743 126.81889c7.459755 4.9733124 12.786964 -89.341644 19.181091 -96.979004c6.39415 -7.6373596 12.256348 55.41777 19.183731 51.15486c6.9273834 -4.262909 14.565186 -74.423004 22.380585 -76.732285c7.815399 -2.3092728 14.209976 83.48076 24.51181 62.876633c10.301834 -20.60411 24.866135 -178.86395 37.29921 -186.50131c12.433075 -7.6373577 26.108917 139.96632 37.299225 140.67717c11.190277 0.71084595 20.42868 -131.43832 29.842499 -136.41208c9.413818 -4.9737535 18.292664 95.91251 26.640442 106.56956c8.347748 10.657036 14.92038 -48.311462 23.446167 -42.627296c8.525818 5.6841583 19.538086 76.73228 27.70868 76.73228c8.170593 0 14.209961 -71.22616 21.314972 -76.73228c7.1049805 -5.5061264 17.762451 36.41294 21.314941 43.695534" fill-rule="evenodd"/><path fill="#000000" fill-opacity="0.0" d="m129.76247 105.90026l0 141.41733" fill-rule="evenodd"/><path stroke="#ff0000" stroke-width="1.0" stroke-linejoin="round" stroke-linecap="butt" d="m129.76247 105.90026l0 141.41733" fill-rule="evenodd"/><path fill="#000000" fill-opacity="0.0" d="m135.4029 105.90026l0 141.41733" fill-rule="evenodd"/><path stroke="#ff0000" stroke-width="1.0" stroke-linejoin="round" stroke-linecap="butt" d="m135.4029 105.90026l0 141.41733" fill-rule="evenodd"/><path fill="#000000" fill-opacity="0.0" d="m140.62862 105.90026l0 141.41733" fill-rule="evenodd"/><path stroke="#ff0000" stroke-width="1.0" stroke-linejoin="round" stroke-linecap="butt" d="m140.62862 105.90026l0 141.41733" fill-rule="evenodd"/><path fill="#000000" fill-opacity="0.0" d="m145.85432 105.90026l0 141.41733" fill-rule="evenodd"/><path stroke="#ff0000" stroke-width="1.0" stroke-linejoin="round" stroke-linecap="butt" d="m145.85432 105.90026l0 141.41733" fill-rule="evenodd"/><path fill="#000000" fill-opacity="0.0" d="m151.49475 105.90026l0 141.41733" fill-rule="evenodd"/><path stroke="#ff0000" stroke-width="1.0" stroke-linejoin="round" stroke-linecap="butt" d="m151.49475 105.90026l0 141.41733" fill-rule="evenodd"/><path fill="#000000" fill-opacity="0.0" d="m156.72047 105.90026l0 141.41733" fill-rule="evenodd"/><path stroke="#ff0000" stroke-width="1.0" stroke-linejoin="round" stroke-linecap="butt" d="m156.72047 105.90026l0 141.41733" fill-rule="evenodd"/><path fill="#000000" fill-opacity="0.0" d="m161.9462 213.00525l193.95276 0l0 38.771652l-193.95276 0z" fill-rule="evenodd"/><path fill="#ff0000" d="m172.0087 225.61525l13.75 0l0 1.375l-1.9375 0l0 10.25q0 1.1875 -1.125 1.1875l-2.125 0l-0.25 -1.375l1.8125 0q0.25 0 0.25 -0.25l0 -9.8125l-10.375 0l0 -1.375zm8.25 9.625l-1.4375 0l0 -0.5625l-3.4375 0l0 1.1875l-1.4375 0l0 -6.6875l6.3125 0l0 6.0625zm-1.4375 -4.875l-3.4375 0l0 3.125l3.4375 0l0 -3.125zm21.75 7.875q-0.9375 -1.375 -2.3125 -2.875l1.0 -0.6875q1.1875 0.9375 2.4375 2.6875l-1.125 0.875zm-9.125 -12.0l9.5625 0l0 1.1875l-1.3125 0l0 2.1875l2.1875 0l0 1.1875l-2.1875 0l0 2.1875l2.0 0l0 1.1875l-13.4375 0l0 -1.1875l2.4375 0l0 -2.1875l-2.625 0l0 -1.1875l2.625 0l0 -2.125q-0.875 1.25 -1.6875 1.75l-0.75 -1.0625q1.8125 -1.4375 2.6875 -3.75l1.25 0.375q0.25 0.25 -0.1875 0.3125l-0.5625 1.125zm5.0 12.0q-0.5 -2.0 -0.9375 -3.1875l1.25 -0.375q0.5 1.1875 1.0625 3.125l-1.375 0.4375zm-4.875 -3.0q0.25 0.25 -0.1875 0.3125q-1.0625 1.9375 -2.0625 2.9375l-1.0 -0.875q1.3125 -1.5 2.0625 -3.0l1.1875 0.625zm5.5625 -7.8125l0 2.1875l1.3125 0l0 -2.1875l-1.3125 0zm-2.625 0l0 2.1875l1.375 0l0 -2.1875l-1.375 0zm-2.5625 2.1875l1.3125 0l0 -2.1875l-1.3125 0l0 2.1875zm5.1875 3.375l1.3125 0l0 -2.1875l-1.3125 0l0 2.1875zm-2.625 -2.1875l0 2.1875l1.375 0l0 -2.1875l-1.375 0zm-2.5625 0l0 2.1875l1.3125 0l0 -2.1875l-1.3125 0zm2.0 4.0q0.375 1.8125 0.3125 3.5625l-1.375 0.125q0 -1.9375 -0.25 -3.625l1.3125 -0.0625zm14.0 -1.25q-0.0625 -1.875 -1.4375 -3.5625l1.25 -3.8125l-2.125 0l0 12.5l-1.25 0l0 -13.6875l3.75 0l0.0625 -0.25l1.25 0.8125l-0.1875 0.1875l-1.5 4.0625q1.625 2.1875 1.5 3.9375q-0.125 2.25 -1.5625 2.25l-1.375 0l-0.3125 -1.3125l1.1875 0q0.8125 0 0.75 -1.125zm6.0 3.875l-5.0 1.0625q-0.1875 0.4375 -0.375 0.1875l-0.4375 -1.5l1.75 -0.25l0 -12.0625l6.8125 0l0 7.0625l-3.1875 0q0.1875 0.875 0.75 2.125q1.5 -0.875 2.4375 -1.875l1.125 0.875q0.25 0.375 -0.375 0.25q-1.0625 0.9375 -2.5 1.75q0.875 1.3125 3.25 2.4375l-0.75 1.3125q-4.1875 -1.9375 -5.0625 -6.875l-1.25 0l0 4.8125l2.625 -0.5l0.1875 1.1875zm1.5 -11.375l-4.3125 0l0 1.8125l4.3125 0l0 -1.8125zm0 3.0l-4.3125 0l0 1.6875l4.3125 0l0 -1.6875zm7.4375 1.0625l0 3.5625q0 0.5 0.4375 0.5l1.0625 0q1.0 0 1.1875 -1.9375l1.25 0.5q-0.375 2.625 -2.0 2.625l-2.125 0q-1.0625 0 -1.0625 -1.0625l0 -3.9375l-1.625 0.375l-0.25 -1.375l1.875 -0.375l0 -4.125l1.1875 0q0.625 0.125 0.0625 0.5l0 3.375l3.25 -0.8125l0.3125 1.3125l-3.5625 0.875zm8.8125 5.625q0.3125 -5.0625 0.3125 -8.5625l-2.375 0q0 5.8125 -0.875 7.5q-1.375 2.6875 -4.875 3.875l-0.625 -1.375q3.4375 -1.125 4.375 -3.375q0.6875 -1.625 0.6875 -6.625l-2.4375 0l0 -1.375l7.5 0q0 4.625 -0.375 10.5q-0.125 2.0625 -1.875 2.0625l-1.6875 0l-0.125 -1.375l1.5 0q0.8125 0 0.875 -1.25zm8.25 -3.6875l0 -1.0l-2.8125 0l0 -1.0l2.8125 0l0 -0.9375l-2.1875 0l0 -1.0l2.1875 0l0 -0.875l1.0 0q0.5 0.0625 0.0625 0.375l0 0.5l2.25 0l0 1.0l-2.25 0l0 0.9375l2.8125 0l0 1.0l-2.8125 0l0 1.0l4.0625 0l0 1.0l-9.25 0l0 -1.0l4.125 0zm-1.5 6.5625l-1.25 0l0 -4.6875l6.5625 0l0 4.375l-1.25 0l0 -0.4375l-4.0625 0l0 0.75zm0 -1.75l4.0625 0l0 -1.9375l-4.0625 0l0 1.9375zm2.5625 -12.5625q0.5 0.0625 0.0625 0.375l0 1.125l3.8125 0l0 2.75l-1.0625 0l0 -1.75l-6.6875 0l0 1.75l-1.0625 0l0 -2.75l3.75 0l0 -1.5l1.1875 0zm5.9375 1.8125q0.5 0.0625 0.0625 0.375l0 9.0l-1.25 0l0 -9.375l1.1875 0zm1.125 11.125q0.25 0 0.25 -0.25l0 -12.0625l1.1875 0q0.5 0.0625 0.0625 0.375l0 12.25q0 1.0625 -1.0625 1.0625l-1.25 0l-0.25 -1.375l1.0625 0z" fill-rule="nonzero"/></g></svg>