<svg version="1.1" viewBox="0.0 0.0 800.0 600.0" fill="none" stroke="none" stroke-linecap="square" stroke-miterlimit="10" xmlns:xlink="http://www.w3.org/1999/xlink" xmlns="http://www.w3.org/2000/svg"><clipPath id="p.0"><path d="m0 0l800.0 0l0 600.0l-800.0 0l0 -600.0z" clip-rule="nonzero"/></clipPath><g clip-path="url(#p.0)"><path fill="#000000" fill-opacity="0.0" d="m0 0l800.0 0l0 600.0l-800.0 0z" fill-rule="evenodd"/><path fill="#e6b8af" d="m144.14587 235.56331l114.53253 0l0 72.64104l-114.53253 0z" fill-rule="evenodd"/><path stroke="#000000" stroke-width="1.0" stroke-linejoin="round" stroke-linecap="butt" d="m144.14587 235.56331l114.53253 0l0 72.64104l-114.53253 0z" fill-rule="evenodd"/><path fill="#ffffff" d="m150.86382 242.82742l101.096664 0l0 58.112823l-101.096664 0z" fill-rule="evenodd"/><path stroke="#000000" stroke-width="1.0" stroke-linejoin="round" stroke-linecap="butt" d="m150.86382 242.82742l101.096664 0l0 58.112823l-101.096664 0z" fill-rule="evenodd"/><path fill="#000000" fill-opacity="0.0" d="m201.41214 308.20435l0 15.456696" fill-rule="evenodd"/><path stroke="#000000" stroke-width="1.0" stroke-linejoin="round" stroke-linecap="butt" d="m201.41214 308.20435l0 15.456696" fill-rule="evenodd"/><path fill="#000000" fill-opacity="0.0" d="m182.13223 323.66104l38.55983 0" fill-rule="evenodd"/><path stroke="#000000" stroke-width="1.0" stroke-linejoin="round" stroke-linecap="butt" d="m182.13223 323.66104l38.55983 0" fill-rule="evenodd"/><path fill="#000000" fill-opacity="0.0" d="m503.5 323.6614l99.1181 0l0 64.629944l-99.1181 0z" fill-rule="evenodd"/><path fill="#000000" d="m529.09033 340.03455q0.890625 0.078125 0.296875 0.453125l0 11.578125l-1.484375 0l0 -9.71875q-0.375 0.953125 -1.703125 2.296875l-0.96875 -1.40625q2.671875 -2.671875 3.484375 -7.875l1.640625 0.453125q0.65625 0.21875 -0.15625 0.515625q-0.4375 1.921875 -1.109375 3.703125zm10.90625 -2.375l-8.828125 0l0 -1.40625l10.3125 0l0 14.546875q0 1.1875 -1.1875 1.1875l-1.859375 0l-0.21875 -1.40625l1.484375 0q0.296875 0 0.296875 -0.296875l0 -12.625zm-0.96875 1.859375l0 1.40625l-7.9375 0l0 -1.40625l7.9375 0zm-2.890625 4.234375l-2.671875 0l0 2.8125l2.671875 0l0 -2.8125zm-4.15625 -1.40625l5.640625 0l0 6.53125l-1.484375 0l0 -0.890625l-2.671875 0l0 1.484375l-1.484375 0l0 -7.125zm28.65625 0.359375q-0.890625 3.859375 -1.9375 5.578125q1.484375 1.40625 3.265625 2.078125l-0.890625 1.625q-1.625 -0.734375 -3.265625 -2.21875q-1.109375 1.484375 -2.75 2.453125l-0.953125 -1.5625q1.703125 -0.96875 2.59375 -2.234375q-1.40625 -2.15625 -1.703125 -5.265625l-0.96875 0l0 8.984375l-1.484375 0l0 -16.40625l7.640625 0l0 3.703125q0 1.1875 -1.1875 1.1875l-2.078125 0l-0.140625 -1.40625l1.625 0q0.296875 0 0.296875 -0.296875l0 -1.78125l-4.671875 0l0 4.609375l5.34375 0l0.21875 -0.234375l1.265625 0.828125q0.296875 0.296875 -0.21875 0.359375zm-2.96875 4.3125q0.59375 -1.40625 1.25 -3.859375l-2.4375 0q0.140625 1.78125 1.1875 3.859375zm-11.953125 -11.203125l5.34375 0l0 14.921875q0 1.1875 -1.1875 1.1875l-1.484375 0l-0.078125 -1.421875l0.96875 0q0.296875 0 0.296875 -0.296875l0 -4.53125l-2.375 0l0 0.453125q0 3.703125 -1.5625 6.09375l-1.265625 -1.34375q1.34375 -2.375 1.34375 -4.96875l0 -10.09375zm3.859375 5.640625l-2.375 0l0 2.8125l2.375 0l0 -2.8125zm0 -1.421875l0 -2.8125l-2.375 0l0 2.8125l2.375 0zm23.0 0.234375q0.59375 0.140625 0 0.4375q-0.140625 0.671875 -0.359375 1.265625l7.859375 0l0 1.40625l-5.640625 0q2.59375 1.78125 6.390625 2.453125l-0.375 1.5625q-1.484375 -0.296875 -2.078125 -0.59375l0 5.046875l-1.484375 0l0 -0.8125l-2.59375 0l0 1.03125l-1.484375 0l0 -5.9375l3.859375 0q-2.15625 -0.890625 -3.9375 -2.75l-1.1875 0q-1.1875 1.703125 -3.1875 2.75l2.96875 0l0 5.796875l-1.484375 0l0 -0.890625l-2.53125 0l0 1.109375l-1.484375 0l0 -4.90625q-0.671875 0.375 -2.0 0.671875l-0.515625 -1.5625q4.0 -0.59375 6.53125 -2.96875l-5.796875 0l0 -1.40625l6.6875 0q0.4375 -0.8125 0.59375 -1.78125l1.25 0.078125zm-1.484375 0.359375l-1.484375 0l0 -0.359375l-2.890625 0l0 0.65625l-1.484375 0l0 -5.1875l5.859375 0l0 4.890625zm1.859375 -4.890625l5.9375 0l0 4.890625l-1.484375 0l0 -0.359375l-2.96875 0l0 0.65625l-1.484375 0l0 -5.1875zm3.9375 14.09375l0 -2.515625l-2.59375 0l0 2.515625l2.59375 0zm-7.28125 -10.75l0 -2.15625l-2.890625 0l0 2.15625l2.890625 0zm7.796875 -2.15625l-2.96875 0l0 2.15625l2.96875 0l0 -2.15625zm-7.5625 12.90625l0 -2.515625l-2.53125 0l0 2.515625l2.53125 0z" fill-rule="nonzero"/><path fill="#000000" d="m526.4286 368.68454l1.65625 -0.140625q0.125 1.0 0.546875 1.640625q0.4375 0.640625 1.34375 1.046875q0.921875 0.390625 2.0625 0.390625q1.0 0 1.78125 -0.296875q0.78125 -0.296875 1.15625 -0.8125q0.375 -0.53125 0.375 -1.15625q0 -0.625 -0.375 -1.09375q-0.359375 -0.46875 -1.1875 -0.796875q-0.546875 -0.203125 -2.390625 -0.640625q-1.828125 -0.453125 -2.5625 -0.84375q-0.96875 -0.5 -1.4375 -1.234375q-0.46875 -0.75 -0.46875 -1.671875q0 -1.0 0.578125 -1.875q0.578125 -0.890625 1.671875 -1.34375q1.109375 -0.453125 2.453125 -0.453125q1.484375 0 2.609375 0.484375q1.140625 0.46875 1.75 1.40625q0.609375 0.921875 0.65625 2.09375l-1.6875 0.125q-0.140625 -1.265625 -0.9375 -1.90625q-0.78125 -0.65625 -2.3125 -0.65625q-1.609375 0 -2.34375 0.59375q-0.734375 0.59375 -0.734375 1.421875q0 0.71875 0.53125 1.171875q0.5 0.46875 2.65625 0.96875q2.15625 0.484375 2.953125 0.84375q1.171875 0.53125 1.71875 1.359375q0.5625 0.828125 0.5625 1.90625q0 1.0625 -0.609375 2.015625q-0.609375 0.9375 -1.75 1.46875q-1.140625 0.515625 -2.578125 0.515625q-1.8125 0 -3.046875 -0.53125q-1.21875 -0.53125 -1.921875 -1.59375q-0.6875 -1.0625 -0.71875 -2.40625zm19.459167 1.1875l1.6875 0.203125q-0.40625 1.484375 -1.484375 2.3125q-1.078125 0.8125 -2.765625 0.8125q-2.125 0 -3.375 -1.296875q-1.234375 -1.3125 -1.234375 -3.671875q0 -2.453125 1.25 -3.796875q1.265625 -1.34375 3.265625 -1.34375q1.9375 0 3.15625 1.328125q1.234375 1.3125 1.234375 3.703125q0 0.15625 0 0.4375l-7.21875 0q0.09375 1.59375 0.90625 2.453125q0.8125 0.84375 2.015625 0.84375q0.90625 0 1.546875 -0.46875q0.640625 -0.484375 1.015625 -1.515625zm-5.390625 -2.65625l5.40625 0q-0.109375 -1.21875 -0.625 -1.828125q-0.78125 -0.953125 -2.03125 -0.953125q-1.125 0 -1.90625 0.765625q-0.765625 0.75 -0.84375 2.015625zm9.125732 5.765625l0 -9.671875l1.46875 0l0 1.46875q0.5625 -1.03125 1.03125 -1.359375q0.484375 -0.328125 1.0625 -0.328125q0.828125 0 1.6875 0.53125l-0.5625 1.515625q-0.609375 -0.359375 -1.203125 -0.359375q-0.546875 0 -0.96875 0.328125q-0.421875 0.328125 -0.609375 0.890625q-0.28125 0.875 -0.28125 1.921875l0 5.0625l-1.625 0zm8.9157715 0l-3.6875 -9.671875l1.734375 0l2.078125 5.796875q0.328125 0.9375 0.625 1.9375q0.203125 -0.765625 0.609375 -1.828125l2.140625 -5.90625l1.6875 0l-3.65625 9.671875l-1.53125 0zm13.265625 -3.109375l1.6875 0.203125q-0.40625 1.484375 -1.484375 2.3125q-1.078125 0.8125 -2.765625 0.8125q-2.125 0 -3.375 -1.296875q-1.234375 -1.3125 -1.234375 -3.671875q0 -2.453125 1.25 -3.796875q1.265625 -1.34375 3.265625 -1.34375q1.9375 0 3.15625 1.328125q1.234375 1.3125 1.234375 3.703125q0 0.15625 0 0.4375l-7.21875 0q0.09375 1.59375 0.90625 2.453125q0.8125 0.84375 2.015625 0.84375q0.90625 0 1.546875 -0.46875q0.640625 -0.484375 1.015625 -1.515625zm-5.390625 -2.65625l5.40625 0q-0.109375 -1.21875 -0.625 -1.828125q-0.78125 -0.953125 -2.03125 -0.953125q-1.125 0 -1.90625 0.765625q-0.765625 0.75 -0.84375 2.015625zm9.125732 5.765625l0 -9.671875l1.46875 0l0 1.46875q0.5625 -1.03125 1.03125 -1.359375q0.484375 -0.328125 1.0625 -0.328125q0.828125 0 1.6875 0.53125l-0.5625 1.515625q-0.609375 -0.359375 -1.203125 -0.359375q-0.546875 0 -0.96875 0.328125q-0.421875 0.328125 -0.609375 0.890625q-0.28125 0.875 -0.28125 1.921875l0 5.0625l-1.625 0z" fill-rule="nonzero"/><defs><radialGradient id="p.1" gradientUnits="userSpaceOnUse" gradientTransform="matrix(7.981988289711193 0.0 0.0 7.981988289711193 0.0 0.0)" spreadMethod="pad" cx="60.251712225291165" cy="33.53619825242426" fx="60.251712225291165" fy="33.53619825242426" r="7.981988430023193"><stop offset="0.0" stop-color="#8c8c8c"/><stop offset="1.0" stop-color="#404040"/></radialGradient></defs><path fill="url(#p.1)" d="m450.50043 226.92302l45.64206 0l0 96.73906l-45.64206 0z" fill-rule="evenodd"/><defs><radialGradient id="p.2" gradientUnits="userSpaceOnUse" gradientTransform="matrix(7.981988289711193 0.0 0.0 7.981988289711193 0.0 0.0)" spreadMethod="pad" cx="60.251712225291165" cy="33.53619825242426" fx="60.251712225291165" fy="33.53619825242426" r="7.981988430023193"><stop offset="0.0" stop-color="#8c8c8c"/><stop offset="1.0" stop-color="#404040"/></radialGradient></defs><path fill="url(#p.2)" d="m496.1425 226.92302l15.213989 -15.2140045l0 96.739044l-15.213989 15.21402z" fill-rule="evenodd"/><defs><radialGradient id="p.3" gradientUnits="userSpaceOnUse" gradientTransform="matrix(7.981988289711193 0.0 0.0 7.981988289711193 0.0 0.0)" spreadMethod="pad" cx="60.251712225291165" cy="33.53619825242426" fx="60.251712225291165" fy="33.53619825242426" r="7.981988430023193"><stop offset="0.0" stop-color="#8c8c8c"/><stop offset="1.0" stop-color="#404040"/></radialGradient></defs><path fill="url(#p.3)" d="m450.50043 226.92302l15.21402 -15.2140045l45.64203 0l-15.213989 15.2140045z" fill-rule="evenodd"/><path fill="#000000" fill-opacity="0.0" d="m450.50043 226.92302l15.21402 -15.2140045l45.64203 0l0 96.739044l-15.213989 15.21402l-45.64206 0zm0 0l45.64206 0l15.213989 -15.2140045m-15.213989 15.2140045l0 96.73906" fill-rule="evenodd"/><path fill="#000000" fill-opacity="0.2" d="m496.1425 226.92302l15.213989 -15.2140045l0 96.739044l-15.213989 15.21402z" fill-rule="evenodd"/><path fill="#ffffff" fill-opacity="0.2" d="m450.50043 226.92302l15.21402 -15.2140045l45.64203 0l-15.213989 15.2140045z" fill-rule="evenodd"/><path stroke="#000000" stroke-width="1.0" stroke-linejoin="round" stroke-linecap="butt" d="m450.50043 226.92302l15.21402 -15.2140045l45.64203 0l0 96.739044l-15.213989 15.21402l-45.64206 0zm0 0l45.64206 0l15.213989 -15.2140045m-15.213989 15.2140045l0 96.73906" fill-rule="evenodd"/><path fill="#000000" fill-opacity="0.0" d="m450.26465 301.07483l45.582092 0" fill-rule="evenodd"/><path stroke="#000000" stroke-width="1.0" stroke-linejoin="round" stroke-linecap="butt" d="m450.26465 301.07483l45.582092 0" fill-rule="evenodd"/><path fill="#000000" fill-opacity="0.0" d="m473.32144 226.92302l0 73.80415" fill-rule="evenodd"/><path stroke="#000000" stroke-width="1.0" stroke-linejoin="round" stroke-linecap="butt" d="m473.32144 226.92302l0 73.80415" fill-rule="evenodd"/><path fill="#000000" fill-opacity="0.0" d="m461.91995 311.48328l22.803009 0" fill-rule="evenodd"/><path stroke="#000000" stroke-width="1.0" stroke-linejoin="round" stroke-linecap="butt" d="m461.91995 311.48328l22.803009 0" fill-rule="evenodd"/><defs><radialGradient id="p.4" gradientUnits="userSpaceOnUse" gradientTransform="matrix(2.5282454635689073 0.0 0.0 2.5282454635689073 0.0 0.0)" spreadMethod="pad" cx="187.10829588306467" cy="97.4292985794642" fx="187.10829588306467" fy="97.4292985794642" r="2.528245449066162"><stop offset="0.0" stop-color="#ffffff"/><stop offset="1.0" stop-color="#b3b3b3"/></radialGradient></defs><path fill="url(#p.4)" d="m468.53586 246.32518l0 0c0 -2.4962463 2.02359 -4.5198364 4.5198364 -4.5198364l0 0c1.1987305 0 2.3483887 0.4761963 3.1960144 1.323822c0.84762573 0.847641 1.323822 1.9972839 1.323822 3.1960144l0 0c0 2.4962463 -2.02359 4.5198517 -4.5198364 4.5198517l0 0c-2.4962463 0 -4.5198364 -2.0236053 -4.5198364 -4.5198517z" fill-rule="evenodd"/><path stroke="#000000" stroke-width="1.0" stroke-linejoin="round" stroke-linecap="butt" d="m468.53586 246.32518l0 0c0 -2.4962463 2.02359 -4.5198364 4.5198364 -4.5198364l0 0c1.1987305 0 2.3483887 0.4761963 3.1960144 1.323822c0.84762573 0.847641 1.323822 1.9972839 1.323822 3.1960144l0 0c0 2.4962463 -2.02359 4.5198517 -4.5198364 4.5198517l0 0c-2.4962463 0 -4.5198364 -2.0236053 -4.5198364 -4.5198517z" fill-rule="evenodd"/><defs><radialGradient id="p.5" gradientUnits="userSpaceOnUse" gradientTransform="matrix(7.981988289711193 0.0 0.0 7.981988289711193 0.0 0.0)" spreadMethod="pad" cx="65.88907646273132" cy="33.53619825242426" fx="65.88907646273132" fy="33.53619825242426" r="7.981988430023193"><stop offset="0.0" stop-color="#8c8c8c"/><stop offset="1.0" stop-color="#404040"/></radialGradient></defs><path fill="url(#p.5)" d="m495.4978 226.92302l45.64203 0l0 96.73906l-45.64203 0z" fill-rule="evenodd"/><defs><radialGradient id="p.6" gradientUnits="userSpaceOnUse" gradientTransform="matrix(7.981988289711193 0.0 0.0 7.981988289711193 0.0 0.0)" spreadMethod="pad" cx="65.88907646273132" cy="33.53619825242426" fx="65.88907646273132" fy="33.53619825242426" r="7.981988430023193"><stop offset="0.0" stop-color="#8c8c8c"/><stop offset="1.0" stop-color="#404040"/></radialGradient></defs><path fill="url(#p.6)" d="m541.13983 226.92302l15.21405 -15.2140045l0 96.739044l-15.21405 15.21402z" fill-rule="evenodd"/><defs><radialGradient id="p.7" gradientUnits="userSpaceOnUse" gradientTransform="matrix(7.981988289711193 0.0 0.0 7.981988289711193 0.0 0.0)" spreadMethod="pad" cx="65.88907646273132" cy="33.53619825242426" fx="65.88907646273132" fy="33.53619825242426" r="7.981988430023193"><stop offset="0.0" stop-color="#8c8c8c"/><stop offset="1.0" stop-color="#404040"/></radialGradient></defs><path fill="url(#p.7)" d="m495.4978 226.92302l15.21402 -15.2140045l45.64206 0l-15.21405 15.2140045z" fill-rule="evenodd"/><path fill="#000000" fill-opacity="0.0" d="m495.4978 226.92302l15.21402 -15.2140045l45.64206 0l0 96.739044l-15.21405 15.21402l-45.64203 0zm0 0l45.64203 0l15.21405 -15.2140045m-15.21405 15.2140045l0 96.73906" fill-rule="evenodd"/><path fill="#000000" fill-opacity="0.2" d="m541.13983 226.92302l15.21405 -15.2140045l0 96.739044l-15.21405 15.21402z" fill-rule="evenodd"/><path fill="#ffffff" fill-opacity="0.2" d="m495.4978 226.92302l15.21402 -15.2140045l45.64206 0l-15.21405 15.2140045z" fill-rule="evenodd"/><path stroke="#000000" stroke-width="1.0" stroke-linejoin="round" stroke-linecap="butt" d="m495.4978 226.92302l15.21402 -15.2140045l45.64206 0l0 96.739044l-15.21405 15.21402l-45.64203 0zm0 0l45.64203 0l15.21405 -15.2140045m-15.21405 15.2140045l0 96.73906" fill-rule="evenodd"/><path fill="#000000" fill-opacity="0.0" d="m495.26202 301.07483l45.582092 0" fill-rule="evenodd"/><path stroke="#000000" stroke-width="1.0" stroke-linejoin="round" stroke-linecap="butt" d="m495.26202 301.07483l45.582092 0" fill-rule="evenodd"/><path fill="#000000" fill-opacity="0.0" d="m518.31885 226.92302l0 73.80415" fill-rule="evenodd"/><path stroke="#000000" stroke-width="1.0" stroke-linejoin="round" stroke-linecap="butt" d="m518.31885 226.92302l0 73.80415" fill-rule="evenodd"/><path fill="#000000" fill-opacity="0.0" d="m506.91733 311.48328l22.803009 0" fill-rule="evenodd"/><path stroke="#000000" stroke-width="1.0" stroke-linejoin="round" stroke-linecap="butt" d="m506.91733 311.48328l22.803009 0" fill-rule="evenodd"/><defs><radialGradient id="p.8" gradientUnits="userSpaceOnUse" gradientTransform="matrix(2.5282454635689073 0.0 0.0 2.5282454635689073 0.0 0.0)" spreadMethod="pad" cx="204.90616241797187" cy="97.4292985794642" fx="204.90616241797187" fy="97.4292985794642" r="2.528245449066162"><stop offset="0.0" stop-color="#ffffff"/><stop offset="1.0" stop-color="#b3b3b3"/></radialGradient></defs><path fill="url(#p.8)" d="m513.5332 246.32518l0 0c0 -2.4962463 2.0236206 -4.5198364 4.5198975 -4.5198364l0 0c1.1987305 0 2.3483276 0.4761963 3.195984 1.323822c0.84765625 0.847641 1.3238525 1.9972839 1.3238525 3.1960144l0 0c0 2.4962463 -2.0236206 4.5198517 -4.5198364 4.5198517l0 0c-2.4962769 0 -4.5198975 -2.0236053 -4.5198975 -4.5198517z" fill-rule="evenodd"/><path stroke="#000000" stroke-width="1.0" stroke-linejoin="round" stroke-linecap="butt" d="m513.5332 246.32518l0 0c0 -2.4962463 2.0236206 -4.5198364 4.5198975 -4.5198364l0 0c1.1987305 0 2.3483276 0.4761963 3.195984 1.323822c0.84765625 0.847641 1.3238525 1.9972839 1.3238525 3.1960144l0 0c0 2.4962463 -2.0236206 4.5198517 -4.5198364 4.5198517l0 0c-2.4962769 0 -4.5198975 -2.0236053 -4.5198975 -4.5198517z" fill-rule="evenodd"/><defs><radialGradient id="p.9" gradientUnits="userSpaceOnUse" gradientTransform="matrix(7.981988289711193 0.0 0.0 7.981988289711193 0.0 0.0)" spreadMethod="pad" cx="71.57707964630806" cy="33.53619825242426" fx="71.57707964630806" fy="33.53619825242426" r="7.981988430023193"><stop offset="0.0" stop-color="#8c8c8c"/><stop offset="1.0" stop-color="#404040"/></radialGradient></defs><path fill="url(#p.9)" d="m540.8994 226.92302l45.64203 0l0 96.73906l-45.64203 0z" fill-rule="evenodd"/><defs><radialGradient id="p.10" gradientUnits="userSpaceOnUse" gradientTransform="matrix(7.981988289711193 0.0 0.0 7.981988289711193 0.0 0.0)" spreadMethod="pad" cx="71.57707964630806" cy="33.53619825242426" fx="71.57707964630806" fy="33.53619825242426" r="7.981988430023193"><stop offset="0.0" stop-color="#8c8c8c"/><stop offset="1.0" stop-color="#404040"/></radialGradient></defs><path fill="url(#p.10)" d="m586.54144 226.92302l15.213989 -15.2140045l0 96.739044l-15.213989 15.21402z" fill-rule="evenodd"/><defs><radialGradient id="p.11" gradientUnits="userSpaceOnUse" gradientTransform="matrix(7.981988289711193 0.0 0.0 7.981988289711193 0.0 0.0)" spreadMethod="pad" cx="71.57707964630806" cy="33.53619825242426" fx="71.57707964630806" fy="33.53619825242426" r="7.981988430023193"><stop offset="0.0" stop-color="#8c8c8c"/><stop offset="1.0" stop-color="#404040"/></radialGradient></defs><path fill="url(#p.11)" d="m540.8994 226.92302l15.213989 -15.2140045l45.64203 0l-15.213989 15.2140045z" fill-rule="evenodd"/><path fill="#000000" fill-opacity="0.0" d="m540.8994 226.92302l15.213989 -15.2140045l45.64203 0l0 96.739044l-15.213989 15.21402l-45.64203 0zm0 0l45.64203 0l15.213989 -15.2140045m-15.213989 15.2140045l0 96.73906" fill-rule="evenodd"/><path fill="#000000" fill-opacity="0.2" d="m586.54144 226.92302l15.213989 -15.2140045l0 96.739044l-15.213989 15.21402z" fill-rule="evenodd"/><path fill="#ffffff" fill-opacity="0.2" d="m540.8994 226.92302l15.213989 -15.2140045l45.64203 0l-15.213989 15.2140045z" fill-rule="evenodd"/><path stroke="#000000" stroke-width="1.0" stroke-linejoin="round" stroke-linecap="butt" d="m540.8994 226.92302l15.213989 -15.2140045l45.64203 0l0 96.739044l-15.213989 15.21402l-45.64203 0zm0 0l45.64203 0l15.213989 -15.2140045m-15.213989 15.2140045l0 96.73906" fill-rule="evenodd"/><path fill="#000000" fill-opacity="0.0" d="m540.66364 301.07483l45.58203 0" fill-rule="evenodd"/><path stroke="#000000" stroke-width="1.0" stroke-linejoin="round" stroke-linecap="butt" d="m540.66364 301.07483l45.58203 0" fill-rule="evenodd"/><path fill="#000000" fill-opacity="0.0" d="m563.7204 226.92302l0 73.80415" fill-rule="evenodd"/><path stroke="#000000" stroke-width="1.0" stroke-linejoin="round" stroke-linecap="butt" d="m563.7204 226.92302l0 73.80415" fill-rule="evenodd"/><path fill="#000000" fill-opacity="0.0" d="m552.3189 311.48328l22.80304 0" fill-rule="evenodd"/><path stroke="#000000" stroke-width="1.0" stroke-linejoin="round" stroke-linecap="butt" d="m552.3189 311.48328l22.80304 0" fill-rule="evenodd"/><defs><radialGradient id="p.12" gradientUnits="userSpaceOnUse" gradientTransform="matrix(2.5282454635689073 0.0 0.0 2.5282454635689073 0.0 0.0)" spreadMethod="pad" cx="222.86390246235035" cy="97.4292985794642" fx="222.86390246235035" fy="97.4292985794642" r="2.528245449066162"><stop offset="0.0" stop-color="#ffffff"/><stop offset="1.0" stop-color="#b3b3b3"/></radialGradient></defs><path fill="url(#p.12)" d="m558.9348 246.32518l0 0c0 -2.4962463 2.0236206 -4.5198364 4.5198364 -4.5198364l0 0c1.1987305 0 2.3483887 0.4761963 3.195984 1.323822c0.84765625 0.847641 1.3238525 1.9972839 1.3238525 3.1960144l0 0c0 2.4962463 -2.0236206 4.5198517 -4.5198364 4.5198517l0 0c-2.4962158 0 -4.5198364 -2.0236053 -4.5198364 -4.5198517z" fill-rule="evenodd"/><path stroke="#000000" stroke-width="1.0" stroke-linejoin="round" stroke-linecap="butt" d="m558.9348 246.32518l0 0c0 -2.4962463 2.0236206 -4.5198364 4.5198364 -4.5198364l0 0c1.1987305 0 2.3483887 0.4761963 3.195984 1.323822c0.84765625 0.847641 1.3238525 1.9972839 1.3238525 3.1960144l0 0c0 2.4962463 -2.0236206 4.5198517 -4.5198364 4.5198517l0 0c-2.4962158 0 -4.5198364 -2.0236053 -4.5198364 -4.5198517z" fill-rule="evenodd"/><defs><radialGradient id="p.13" gradientUnits="userSpaceOnUse" gradientTransform="matrix(6.421322132727079 0.0 0.0 6.421322132727079 0.0 0.0)" spreadMethod="pad" cx="94.45503075391932" cy="44.76231922140597" fx="94.45503075391932" fy="44.76231922140597" r="6.421322345733643"><stop offset="0.0" stop-color="#8c8c8c"/><stop offset="1.0" stop-color="#404040"/></radialGradient></defs><path fill="url(#p.13)" d="m586.8337 261.0525l29.538757 0l0 62.60782l-29.538757 0z" fill-rule="evenodd"/><defs><radialGradient id="p.14" gradientUnits="userSpaceOnUse" gradientTransform="matrix(6.421322132727079 0.0 0.0 6.421322132727079 0.0 0.0)" spreadMethod="pad" cx="94.45503075391932" cy="44.76231922140597" fx="94.45503075391932" fy="44.76231922140597" r="6.421322345733643"><stop offset="0.0" stop-color="#8c8c8c"/><stop offset="1.0" stop-color="#404040"/></radialGradient></defs><path fill="url(#p.14)" d="m616.37244 261.0525l9.846252 -9.846252l0 62.60782l-9.846252 9.846252z" fill-rule="evenodd"/><defs><radialGradient id="p.15" gradientUnits="userSpaceOnUse" gradientTransform="matrix(6.421322132727079 0.0 0.0 6.421322132727079 0.0 0.0)" spreadMethod="pad" cx="94.45503075391932" cy="44.76231922140597" fx="94.45503075391932" fy="44.76231922140597" r="6.421322345733643"><stop offset="0.0" stop-color="#8c8c8c"/><stop offset="1.0" stop-color="#404040"/></radialGradient></defs><path fill="url(#p.15)" d="m586.8337 261.0525l9.846252 -9.846252l29.538757 0l-9.846252 9.846252z" fill-rule="evenodd"/><path fill="#000000" fill-opacity="0.0" d="m586.8337 261.0525l9.846252 -9.846252l29.538757 0l0 62.60782l-9.846252 9.846252l-29.538757 0zm0 0l29.538757 0l9.846252 -9.846252m-9.846252 9.846252l0 62.60782" fill-rule="evenodd"/><path fill="#000000" fill-opacity="0.2" d="m616.37244 261.0525l9.846252 -9.846252l0 62.60782l-9.846252 9.846252z" fill-rule="evenodd"/><path fill="#ffffff" fill-opacity="0.2" d="m586.8337 261.0525l9.846252 -9.846252l29.538757 0l-9.846252 9.846252z" fill-rule="evenodd"/><path stroke="#000000" stroke-width="1.0" stroke-linejoin="round" stroke-linecap="butt" d="m586.8337 261.0525l9.846252 -9.846252l29.538757 0l0 62.60782l-9.846252 9.846252l-29.538757 0zm0 0l29.538757 0l9.846252 -9.846252m-9.846252 9.846252l0 62.60782" fill-rule="evenodd"/><path fill="#000000" fill-opacity="0.0" d="m586.6811 309.04224l29.499939 0" fill-rule="evenodd"/><path stroke="#000000" stroke-width="1.0" stroke-linejoin="round" stroke-linecap="butt" d="m586.6811 309.04224l29.499939 0" fill-rule="evenodd"/><path fill="#000000" fill-opacity="0.0" d="m601.6031 261.0525l0 47.76474" fill-rule="evenodd"/><path stroke="#000000" stroke-width="1.0" stroke-linejoin="round" stroke-linecap="butt" d="m601.6031 261.0525l0 47.76474" fill-rule="evenodd"/><path fill="#000000" fill-opacity="0.0" d="m594.2242 315.77838l14.757751 0" fill-rule="evenodd"/><path stroke="#000000" stroke-width="1.0" stroke-linejoin="round" stroke-linecap="butt" d="m594.2242 315.77838l14.757751 0" fill-rule="evenodd"/><defs><radialGradient id="p.16" gradientUnits="userSpaceOnUse" gradientTransform="matrix(2.0339140143339964 0.0 0.0 2.0339140143339964 0.0 0.0)" spreadMethod="pad" cx="295.70132386525927" cy="134.5234947650605" fx="295.70132386525927" fy="134.5234947650605" r="2.033914089202881"><stop offset="0.0" stop-color="#ffffff"/><stop offset="1.0" stop-color="#b3b3b3"/></radialGradient></defs><path fill="url(#p.16)" d="m598.5059 273.60922l0 0c0 -1.6155396 1.3096313 -2.925171 2.925171 -2.925171l0 0c0.77575684 0 1.5197754 0.30819702 2.0683594 0.856781c0.548584 0.54855347 0.8567505 1.292572 0.8567505 2.06839l0 0c0 1.615509 -1.3096313 2.925171 -2.9251099 2.925171l0 0c-1.6155396 0 -2.925171 -1.3096619 -2.925171 -2.925171z" fill-rule="evenodd"/><path stroke="#000000" stroke-width="1.0" stroke-linejoin="round" stroke-linecap="butt" d="m598.5059 273.60922l0 0c0 -1.6155396 1.3096313 -2.925171 2.925171 -2.925171l0 0c0.77575684 0 1.5197754 0.30819702 2.0683594 0.856781c0.548584 0.54855347 0.8567505 1.292572 0.8567505 2.06839l0 0c0 1.615509 -1.3096313 2.925171 -2.9251099 2.925171l0 0c-1.6155396 0 -2.925171 -1.3096619 -2.925171 -2.925171z" fill-rule="evenodd"/><defs><radialGradient id="p.17" gradientUnits="userSpaceOnUse" gradientTransform="matrix(6.421322132727079 0.0 0.0 6.421322132727079 0.0 0.0)" spreadMethod="pad" cx="99.07015050513614" cy="44.76231922140597" fx="99.07015050513614" fy="44.76231922140597" r="6.421322345733643"><stop offset="0.0" stop-color="#8c8c8c"/><stop offset="1.0" stop-color="#404040"/></radialGradient></defs><path fill="url(#p.17)" d="m616.4689 261.0525l29.538696 0l0 62.60782l-29.538696 0z" fill-rule="evenodd"/><defs><radialGradient id="p.18" gradientUnits="userSpaceOnUse" gradientTransform="matrix(6.421322132727079 0.0 0.0 6.421322132727079 0.0 0.0)" spreadMethod="pad" cx="99.07015050513614" cy="44.76231922140597" fx="99.07015050513614" fy="44.76231922140597" r="6.421322345733643"><stop offset="0.0" stop-color="#8c8c8c"/><stop offset="1.0" stop-color="#404040"/></radialGradient></defs><path fill="url(#p.18)" d="m646.00757 261.0525l9.846252 -9.846252l0 62.60782l-9.846252 9.846252z" fill-rule="evenodd"/><defs><radialGradient id="p.19" gradientUnits="userSpaceOnUse" gradientTransform="matrix(6.421322132727079 0.0 0.0 6.421322132727079 0.0 0.0)" spreadMethod="pad" cx="99.07015050513614" cy="44.76231922140597" fx="99.07015050513614" fy="44.76231922140597" r="6.421322345733643"><stop offset="0.0" stop-color="#8c8c8c"/><stop offset="1.0" stop-color="#404040"/></radialGradient></defs><path fill="url(#p.19)" d="m616.4689 261.0525l9.846252 -9.846252l29.538696 0l-9.846252 9.846252z" fill-rule="evenodd"/><path fill="#000000" fill-opacity="0.0" d="m616.4689 261.0525l9.846252 -9.846252l29.538696 0l0 62.60782l-9.846252 9.846252l-29.538696 0zm0 0l29.538696 0l9.846252 -9.846252m-9.846252 9.846252l0 62.60782" fill-rule="evenodd"/><path fill="#000000" fill-opacity="0.2" d="m646.00757 261.0525l9.846252 -9.846252l0 62.60782l-9.846252 9.846252z" fill-rule="evenodd"/><path fill="#ffffff" fill-opacity="0.2" d="m616.4689 261.0525l9.846252 -9.846252l29.538696 0l-9.846252 9.846252z" fill-rule="evenodd"/><path stroke="#000000" stroke-width="1.0" stroke-linejoin="round" stroke-linecap="butt" d="m616.4689 261.0525l9.846252 -9.846252l29.538696 0l0 62.60782l-9.846252 9.846252l-29.538696 0zm0 0l29.538696 0l9.846252 -9.846252m-9.846252 9.846252l0 62.60782" fill-rule="evenodd"/><path fill="#000000" fill-opacity="0.0" d="m616.3163 309.04224l29.499939 0" fill-rule="evenodd"/><path stroke="#000000" stroke-width="1.0" stroke-linejoin="round" stroke-linecap="butt" d="m616.3163 309.04224l29.499939 0" fill-rule="evenodd"/><path fill="#000000" fill-opacity="0.0" d="m631.2382 261.0525l0 36.358917" fill-rule="evenodd"/><path stroke="#000000" stroke-width="1.0" stroke-linejoin="round" stroke-linecap="butt" d="m631.2382 261.0525l0 36.358917" fill-rule="evenodd"/><path fill="#000000" fill-opacity="0.0" d="m623.8594 315.77838l14.75769 0" fill-rule="evenodd"/><path stroke="#000000" stroke-width="1.0" stroke-linejoin="round" stroke-linecap="butt" d="m623.8594 315.77838l14.75769 0" fill-rule="evenodd"/><defs><radialGradient id="p.20" gradientUnits="userSpaceOnUse" gradientTransform="matrix(2.0339140143339964 0.0 0.0 2.0339140143339964 0.0 0.0)" spreadMethod="pad" cx="310.27183687358746" cy="134.5234947650605" fx="310.27183687358746" fy="134.5234947650605" r="2.033914089202881"><stop offset="0.0" stop-color="#ffffff"/><stop offset="1.0" stop-color="#b3b3b3"/></radialGradient></defs><path fill="url(#p.20)" d="m628.14105 273.60922l0 0c0 -1.6155396 1.3096313 -2.925171 2.925171 -2.925171l0 0c0.7758179 0 1.5198364 0.30819702 2.0684204 0.856781c0.548584 0.54855347 0.8567505 1.292572 0.8567505 2.06839l0 0c0 1.615509 -1.3096313 2.925171 -2.925171 2.925171l0 0c-1.6155396 0 -2.925171 -1.3096619 -2.925171 -2.925171z" fill-rule="evenodd"/><path stroke="#000000" stroke-width="1.0" stroke-linejoin="round" stroke-linecap="butt" d="m628.14105 273.60922l0 0c0 -1.6155396 1.3096313 -2.925171 2.925171 -2.925171l0 0c0.7758179 0 1.5198364 0.30819702 2.0684204 0.856781c0.548584 0.54855347 0.8567505 1.292572 0.8567505 2.06839l0 0c0 1.615509 -1.3096313 2.925171 -2.925171 2.925171l0 0c-1.6155396 0 -2.925171 -1.3096619 -2.925171 -2.925171z" fill-rule="evenodd"/><path fill="#000000" fill-opacity="0.0" d="m151.85301 323.6614l99.11812 0l0 64.629944l-99.11812 0z" fill-rule="evenodd"/><path fill="#000000" d="m183.33395 335.22205q0.734375 0.140625 0.0625 0.59375l0 1.109375l6.984375 0l0 3.703125l-1.484375 0l0 -2.515625l-12.6875 0l0 2.515625l-1.484375 0l0 -3.703125l6.96875 0l0 -1.703125l1.640625 0zm-0.453125 9.125q-2.0 1.328125 -4.296875 2.078125l9.046875 0l0 5.71875l-1.484375 0l0 -0.453125l-6.828125 0l0 0.453125l-1.484375 0l0 -5.34375q-1.703125 0.65625 -2.96875 0.953125l-0.59375 -1.546875q4.078125 -0.890625 7.421875 -2.671875q-0.96875 -0.75 -2.078125 -2.015625q-1.1875 1.421875 -3.5625 2.828125l-0.8125 -1.265625q3.265625 -1.859375 4.75 -4.59375l1.40625 0.4375q0.296875 0.296875 -0.21875 0.375l-0.375 0.515625l4.96875 0l0.296875 -0.296875l1.265625 0.96875l-0.375 0.296875q-1.25 1.484375 -2.96875 2.75q2.609375 1.1875 7.203125 1.921875l-0.515625 1.5625q-5.421875 -1.109375 -7.796875 -2.671875zm3.265625 5.9375l0 -2.453125l-6.828125 0l0 2.453125l6.828125 0zm-3.40625 -7.5q0.953125 -0.671875 2.0 -1.78125l-4.078125 0q0.890625 1.046875 2.078125 1.78125z" fill-rule="nonzero"/><path fill="#000000" d="m208.69333 337.09705q-1.015625 0 -4.375 0.484375q-3.34375 0.46875 -6.921875 0.46875l0 1.234375l11.734375 0q-0.0625 1.390625 -0.0625 2.84375q0 1.390625 0.0625 2.984375l-11.796875 0q-0.21875 2.546875 -0.65625 3.53125q-0.4375 0.984375 -0.984375 1.9375q-0.546875 0.953125 -1.421875 1.96875q-0.953125 -0.65625 -1.53125 -1.09375q1.3125 -0.875 2.0 -2.109375q0.703125 -1.25 0.921875 -2.65625q0.21875 -1.421875 0.21875 -3.984375q0 -2.625 -0.21875 -5.828125q3.703125 -0.078125 6.21875 -0.25q2.515625 -0.1875 5.875 -1.28125q0.140625 0.515625 0.9375 1.75zm-1.09375 6.78125l0 -3.421875l-10.203125 0l0 3.421875l10.203125 0z" fill-rule="nonzero"/><path fill="#000000" d="m218.31831 348.5033q-2.9062347 0.890625 -5.7968597 1.5625q-0.078125 0.515625 -0.375 0.21875l-0.296875 -1.78125l3.265625 -0.59375l0.96873474 -7.28125l1.5625 0.15625q0.375 0.21875 -0.15625 0.4375l-0.953125 6.390625l1.78125 -0.453125l0 1.34375zm-5.2031097 -1.78125q-0.296875 -2.828125 -0.96875 -5.046875l1.265625 -0.375q0.8125 2.15625 1.046875 4.96875l-1.34375 0.453125zm13.218735 5.5l-0.375 -1.421875l0.59375 0q0.296875 0 0.296875 -0.296875l0 -5.1875l-1.40625 0l0 6.375l-1.265625 0l0 -6.375l-1.265625 0l0 6.375l-1.265625 0l0 -6.375l-1.25 0l0 6.828125l-1.265625 0l0 -8.015625l3.046875 0l0.59375 -1.640625l-4.3125 0l0 -1.1875l10.3125 0l0 1.1875l-4.515625 0l-0.59375 1.640625l4.453125 0l0 7.046875q0 1.046875 -1.046875 1.046875l-0.734375 0zm-8.3125 -12.03125l-6.0156097 0l0 -1.40625l2.375 0l0 -3.125l1.40625 0q0.59373474 0.078125 0.07810974 0.453125l0 2.671875l2.15625 0l0 1.40625zm6.078125 -4.96875q0.59375 0.0625 0.078125 0.4375l0 3.125l2.296875 0l0 -2.75l1.1875 0q0.59375 0.078125 0.078125 0.4375l0 3.5l-8.3125 0l0 -3.9375l1.1875 0q0.59375 0.078125 0.078125 0.4375l0 2.3125l2.21875 0l0 -3.5625l1.1875 0z" fill-rule="nonzero"/><path fill="#000000" d="m188.53217 368.2939l1.765625 0.453125q-0.5625 2.171875 -2.0 3.328125q-1.4375 1.140625 -3.53125 1.140625q-2.15625 0 -3.515625 -0.875q-1.34375 -0.890625 -2.0625 -2.546875q-0.703125 -1.671875 -0.703125 -3.59375q0 -2.078125 0.796875 -3.625q0.796875 -1.5625 2.265625 -2.359375q1.484375 -0.8125 3.25 -0.8125q2.0 0 3.359375 1.015625q1.375 1.015625 1.90625 2.875l-1.734375 0.40625q-0.46875 -1.453125 -1.359375 -2.109375q-0.875 -0.671875 -2.203125 -0.671875q-1.546875 0 -2.578125 0.734375q-1.03125 0.734375 -1.453125 1.984375q-0.421875 1.234375 -0.421875 2.5625q0 1.703125 0.5 2.96875q0.5 1.265625 1.546875 1.90625q1.046875 0.625 2.265625 0.625q1.484375 0 2.515625 -0.859375q1.03125 -0.859375 1.390625 -2.546875zm3.6916962 4.6875l0 -13.359375l1.640625 0l0 13.359375l-1.640625 0zm4.191696 -11.46875l0 -1.890625l1.640625 0l0 1.890625l-1.640625 0zm0 11.46875l0 -9.671875l1.640625 0l0 9.671875l-1.640625 0zm10.769821 -3.109375l1.6875 0.203125q-0.40625 1.484375 -1.484375 2.3125q-1.078125 0.8125 -2.765625 0.8125q-2.125 0 -3.375 -1.296875q-1.234375 -1.3125 -1.234375 -3.671875q0 -2.453125 1.25 -3.796875q1.265625 -1.34375 3.265625 -1.34375q1.9375 0 3.15625 1.328125q1.234375 1.3125 1.234375 3.703125q0 0.15625 0 0.4375l-7.21875 0q0.09375 1.59375 0.90625 2.453125q0.8125 0.84375 2.015625 0.84375q0.90625 0 1.546875 -0.46875q0.640625 -0.484375 1.015625 -1.515625zm-5.390625 -2.65625l5.40625 0q-0.109375 -1.21875 -0.625 -1.828125q-0.78125 -0.953125 -2.03125 -0.953125q-1.125 0 -1.90625 0.765625q-0.765625 0.75 -0.84375 2.015625zm9.141342 5.765625l0 -9.671875l1.46875 0l0 1.375q1.0625 -1.59375 3.078125 -1.59375q0.87498474 0 1.6093597 0.3125q0.734375 0.3125 1.09375 0.828125q0.375 0.5 0.515625 1.203125q0.09375 0.453125 0.09375 1.59375l0 5.953125l-1.640625 0l0 -5.890625q0 -1.0 -0.203125 -1.484375q-0.1875 -0.5 -0.671875 -0.796875q-0.48435974 -0.296875 -1.1406097 -0.296875q-1.046875 0 -1.8125 0.671875q-0.75 0.65625 -0.75 2.515625l0 5.28125l-1.640625 0zm13.953827 -1.46875l0.234375 1.453125q-0.6875 0.140625 -1.234375 0.140625q-0.890625 0 -1.390625 -0.28125q-0.484375 -0.28125 -0.6875 -0.734375q-0.203125 -0.46875 -0.203125 -1.9375l0 -5.578125l-1.203125 0l0 -1.265625l1.203125 0l0 -2.390625l1.625 -0.984375l0 3.375l1.65625 0l0 1.265625l-1.65625 0l0 5.671875q0 0.6875 0.078125 0.890625q0.09375 0.203125 0.28125 0.328125q0.203125 0.109375 0.578125 0.109375q0.265625 0 0.71875 -0.0625z" fill-rule="nonzero"/><path fill="#000000" fill-opacity="0.0" d="m258.67847 256.44357l191.59058 0" fill-rule="evenodd"/><path stroke="#4a86e8" stroke-width="3.0" stroke-linejoin="round" stroke-linecap="butt" d="m258.67847 256.44357l181.30933 0" fill-rule="evenodd"/><path fill="#4a86e8" stroke="#4a86e8" stroke-width="3.0" stroke-linecap="butt" d="m439.98776 256.44357l-3.3737488 3.3737488l9.269318 -3.3737488l-9.269318 -3.3737488z" fill-rule="evenodd"/><path fill="#000000" fill-opacity="0.0" d="m277.66797 217.67192l153.60632 0l0 38.771652l-153.60632 0z" fill-rule="evenodd"/><path fill="#4a86e8" d="m304.5141 243.21942q-2.0 -0.5 -3.75 -1.375q-1.625 1.125 -3.375 1.5l-0.5625 -1.0q1.9375 -0.5 3.0625 -1.25q-0.9375 -0.9375 -1.375 -2.0625l-0.8125 0l0 -1.0l5.0625 0l0.25 -0.25l0.75 0.75q0.375 0.4375 -0.1875 0.375q-0.8125 1.25 -1.75 2.125q1.5 0.6875 3.4375 1.0l-0.75 1.1875zm-7.5625 -5.0l-0.1875 3.0q-0.125 2.0625 -2.25 2.0625l-1.1875 0l-0.3125 -1.1875l1.5 0q1.0 0 1.0625 -1.0l0.125 -1.875l-2.125 0l-0.125 0.6875l-1.3125 0q0.5625 -2.375 0.75 -3.9375l3.0 0l0 -1.3125l-2.4375 0l0 -0.1875q-0.5 0.3125 -1.5 0.6875l-0.625 -1.0q1.8125 -0.6875 3.0 -1.5l-1.75 -1.4375l0.875 -0.8125l2.0 1.5q1.0625 -0.75 1.6875 -1.5625l-2.75 0l0 -1.0l3.5625 0l0.1875 -0.3125l0.9375 0.5625q0.4375 0.3125 -0.0625 0.375l-0.125 0.125q0.6875 0.5625 1.125 0.875l1.5 -1.5l0.9375 0.5q0.375 0.25 -0.1875 0.25l-1.3125 1.3125q0.3125 0.25 0.9375 0.5l1.5 -1.5625l0.875 0.5q0.3125 0.25 -0.125 0.25l-1.3125 1.375q1.25 0.625 2.75 1.125l-0.5625 1.25q-1.25 -0.5 -2.625 -1.25l0 2.0q0 0.5625 0.5 0.5625l0.3125 0q0.3125 0 0.375 -0.4375l0.125 -0.6875l1.1875 0.3125l-0.25 0.9375q-0.25 0.875 -1.0625 0.875l-1.1875 0q-1.0625 0 -1.0625 -1.1875l0 -1.5l-1.6875 0l0 0.8125q0 1.5 -1.75 2.375l-0.625 -0.8125q1.3125 -0.5625 1.3125 -1.75l0 -1.625l3.5625 0q-2.375 -1.375 -3.875 -2.75q-1.375 1.6875 -3.4375 2.8125l2.125 0l0 3.3125l-3.0625 0l-0.1875 1.25l3.25 0zm2.8125 0.8125q0.4375 0.875 1.0625 1.375q0.8125 -0.6875 1.1875 -1.375l-2.25 0zm10.25 -6.375q-0.8125 -1.25 -1.875 -2.0625l1.0 -0.9375q1.375 1.0 1.875 2.0l-1.0 1.0zm-2.8125 9.375l2.125 -1.25l0 -4.1875l-2.0 0l0 -1.1875l3.25 0l0 5.0625q1.4375 1.4375 3.375 1.4375l7.75 0l-0.3125 1.1875l-7.625 0q-2.0625 0 -3.8125 -1.6875l-2.0625 2.0625l-0.6875 -1.4375zm13.6875 -5.5l-4.25 0l-0.0625 0.5625q2.5 1.125 4.0625 2.5625l-0.875 1.375q-2.0625 -2.125 -3.625 -2.8125q-0.875 1.625 -3.5625 3.1875l-0.75 -1.3125q3.25 -1.625 3.5625 -3.5625l-3.9375 0l0 -1.1875l4.0 0l0 -2.0625l-3.5 0l0 -1.1875l2.1875 0q-0.6875 -1.1875 -1.625 -2.0625l1.125 -0.75q0.875 0.8125 1.625 2.0625l-1.0 0.75l2.125 0l1.5 -3.125l1.375 0.625q0.25 0.25 -0.1875 0.3125l-1.4375 2.1875l2.75 0l0 1.1875l-3.6875 0l0 2.0625l4.1875 0l0 1.1875zm15.5 5.9375q0 0.8125 -0.8125 0.8125l-1.1875 0l-0.25 -1.0l0.9375 0q0.25 0 0.25 -0.25l0 -1.25l-4.375 0l0 2.5l-1.0625 0l0 -7.25l6.5 0l0 6.4375zm-8.5 -13.0l0 1.1875l-3.8125 0l0 -1.1875l3.8125 0zm-4.5625 3.3125l0 -1.1875l5.3125 0l0 1.1875l-5.3125 0zm4.5625 1.0625l0 1.1875l-3.8125 0l0 -1.1875l3.8125 0zm0 2.25l0 1.1875l-3.8125 0l0 -1.1875l3.8125 0zm0.3125 2.25l0 4.8125l-1.0625 0l0 -0.5l-2.25 0l0 0.75l-1.0625 0l0 -5.0625l4.375 0zm-1.0625 1.0l-2.25 0l0 2.3125l2.25 0l0 -2.3125zm8.1875 -0.4375l-4.375 0l0 0.875l4.375 0l0 -0.875zm1.0 -6.625l0 1.0l-2.8125 0l0 1.0l4.0625 0l0 1.0l-8.875 0l0 -1.0l3.75 0l0 -1.0l-2.75 0l0 -1.0l2.75 0l0 -1.0l-3.3125 0l0 -1.0l3.3125 0l0 -1.3125l1.0 0q0.5 0.0625 0.0625 0.375l0 0.9375l3.5625 0l0 1.0l-3.5625 0l0 1.0l2.8125 0zm-1.0 4.75l-4.375 0l0 0.875l4.375 0l0 -0.875zm4.125 3.375q3.8125 -2.0625 6.1875 -4.125l0 -3.0625l-6.125 0l0 -1.1875l6.125 0l0 -2.8125l1.1875 0q0.5 0.0625 0.0625 0.375l0 2.4375l3.25 0q-0.75 -0.75 -2.0 -1.3125l1.0 -1.0625q1.125 0.4375 2.1875 1.4375l-1.0 0.9375l2.625 0l0 1.1875l-6.0625 0l0 0.5q0.25 1.0625 1.3125 2.6875q1.375 -1.0 2.5625 -2.4375l1.1875 1.0625q0.0625 0.3125 -0.3125 0.1875q-0.875 0.875 -2.625 2.125q1.375 1.8125 4.4375 3.1875l-0.8125 1.5625q-3.8125 -1.875 -5.75 -5.75l0 5.9375q0 1.0 -1.0 1.0l-1.5625 0l-0.25 -1.375l1.3125 0q0.25 0 0.25 -0.25l0 -3.6875q-1.625 1.5 -4.9375 3.625q0.125 0.375 -0.1875 0.3125l-1.0625 -1.5zm3.4375 -3.0q-1.0 -1.25 -2.0625 -2.0625l1.0625 -1.0625q1.125 0.625 2.1875 1.875l-1.1875 1.25z" fill-rule="nonzero"/><path fill="#4a86e8" d="m360.16254 242.03192l0 -11.453125l5.078125 0q1.53125 0 2.328125 0.3125q0.796875 0.296875 1.265625 1.078125q0.484375 0.78125 0.484375 1.734375q0 1.21875 -0.796875 2.0625q-0.78125 0.828125 -2.4375 1.046875q0.609375 0.296875 0.921875 0.578125q0.65625 0.609375 1.25 1.515625l2.0 3.125l-1.90625 0l-1.515625 -2.390625q-0.671875 -1.03125 -1.109375 -1.578125q-0.421875 -0.546875 -0.765625 -0.765625q-0.328125 -0.21875 -0.6875 -0.296875q-0.25 -0.0625 -0.84375 -0.0625l-1.75 0l0 5.09375l-1.515625 0zm1.515625 -6.40625l3.25 0q1.046875 0 1.625 -0.203125q0.59375 -0.21875 0.890625 -0.6875q0.3125 -0.484375 0.3125 -1.03125q0 -0.8125 -0.59375 -1.328125q-0.59375 -0.53125 -1.859375 -0.53125l-3.625 0l0 3.78125zm15.5078125 3.734375l1.453125 0.171875q-0.34375 1.28125 -1.28125 1.984375q-0.921875 0.703125 -2.359375 0.703125q-1.828125 0 -2.890625 -1.125q-1.0625 -1.125 -1.0625 -3.140625q0 -2.09375 1.078125 -3.25q1.078125 -1.15625 2.796875 -1.15625q1.65625 0 2.703125 1.140625q1.0625 1.125 1.0625 3.171875q0 0.125 0 0.375l-6.1875 0q0.078125 1.375 0.765625 2.109375q0.703125 0.71875 1.734375 0.71875q0.78125 0 1.328125 -0.40625q0.546875 -0.40625 0.859375 -1.296875zm-4.609375 -2.28125l4.625 0q-0.09375 -1.046875 -0.53125 -1.5625q-0.671875 -0.8125 -1.734375 -0.8125q-0.96875 0 -1.640625 0.65625q-0.65625 0.640625 -0.71875 1.71875zm13.1171875 8.140625l0 -4.078125q-0.328125 0.46875 -0.921875 0.78125q-0.578125 0.296875 -1.25 0.296875q-1.46875 0 -2.546875 -1.171875q-1.0625 -1.1875 -1.0625 -3.25q0 -1.25 0.4375 -2.234375q0.4375 -1.0 1.25 -1.5q0.828125 -0.515625 1.8125 -0.515625q1.546875 0 2.421875 1.296875l0 -1.109375l1.265625 0l0 11.484375l-1.40625 0zm-4.328125 -7.359375q0 1.59375 0.671875 2.40625q0.671875 0.796875 1.609375 0.796875q0.890625 0 1.53125 -0.765625q0.65625 -0.765625 0.65625 -2.3125q0 -1.65625 -0.6875 -2.484375q-0.671875 -0.84375 -1.59375 -0.84375q-0.921875 0 -1.5625 0.78125q-0.625 0.765625 -0.625 2.421875zm13.3828125 4.171875l0 -1.21875q-0.96875 1.40625 -2.640625 1.40625q-0.734375 0 -1.375 -0.28125q-0.625 -0.28125 -0.9375 -0.703125q-0.3125 -0.4375 -0.4375 -1.046875q-0.078125 -0.421875 -0.078125 -1.3125l0 -5.140625l1.40625 0l0 4.59375q0 1.109375 0.078125 1.484375q0.140625 0.5625 0.5625 0.875q0.4375 0.3125 1.0625 0.3125q0.640625 0 1.1875 -0.3125q0.5625 -0.328125 0.78125 -0.890625q0.234375 -0.5625 0.234375 -1.625l0 -4.4375l1.40625 0l0 8.296875l-1.25 0zm9.1328125 -2.671875l1.453125 0.171875q-0.34375 1.28125 -1.28125 1.984375q-0.921875 0.703125 -2.359375 0.703125q-1.828125 0 -2.890625 -1.125q-1.0625 -1.125 -1.0625 -3.140625q0 -2.09375 1.078125 -3.25q1.078125 -1.15625 2.796875 -1.15625q1.65625 0 2.703125 1.140625q1.0625 1.125 1.0625 3.171875q0 0.125 0 0.375l-6.1875 0q0.078125 1.375 0.765625 2.109375q0.703125 0.71875 1.734375 0.71875q0.78125 0 1.328125 -0.40625q0.546875 -0.40625 0.859375 -1.296875zm-4.609375 -2.28125l4.625 0q-0.09375 -1.046875 -0.53125 -1.5625q-0.671875 -0.8125 -1.734375 -0.8125q-0.96875 0 -1.640625 0.65625q-0.65625 0.640625 -0.71875 1.71875zm7.2734375 2.46875l1.390625 -0.21875q0.109375 0.84375 0.640625 1.296875q0.546875 0.4375 1.5 0.4375q0.96875 0 1.4375 -0.390625q0.46875 -0.40625 0.46875 -0.9375q0 -0.46875 -0.40625 -0.75q-0.296875 -0.1875 -1.4375 -0.46875q-1.546875 -0.390625 -2.15625 -0.671875q-0.59375 -0.296875 -0.90625 -0.796875q-0.296875 -0.5 -0.296875 -1.109375q0 -0.5625 0.25 -1.03125q0.25 -0.46875 0.6875 -0.78125q0.328125 -0.25 0.890625 -0.40625q0.578125 -0.171875 1.21875 -0.171875q0.984375 0 1.71875 0.28125q0.734375 0.28125 1.078125 0.765625q0.359375 0.46875 0.5 1.28125l-1.375 0.1875q-0.09375 -0.640625 -0.546875 -1.0q-0.453125 -0.359375 -1.265625 -0.359375q-0.96875 0 -1.390625 0.328125q-0.40625 0.3125 -0.40625 0.734375q0 0.28125 0.171875 0.5q0.171875 0.21875 0.53125 0.375q0.21875 0.078125 1.25 0.359375q1.484375 0.390625 2.078125 0.65625q0.59375 0.25 0.921875 0.734375q0.34375 0.484375 0.34375 1.203125q0 0.703125 -0.421875 1.328125q-0.40625 0.609375 -1.1875 0.953125q-0.765625 0.34375 -1.734375 0.34375q-1.625 0 -2.46875 -0.671875q-0.84375 -0.671875 -1.078125 -2.0zm11.625 1.21875l0.203125 1.25q-0.59375 0.125 -1.0625 0.125q-0.765625 0 -1.1875 -0.234375q-0.421875 -0.25 -0.59375 -0.640625q-0.171875 -0.40625 -0.171875 -1.671875l0 -4.765625l-1.03125 0l0 -1.09375l1.03125 0l0 -2.0625l1.40625 -0.84375l0 2.90625l1.40625 0l0 1.09375l-1.40625 0l0 4.84375q0 0.609375 0.0625 0.78125q0.078125 0.171875 0.25 0.28125q0.171875 0.09375 0.484375 0.09375q0.234375 0 0.609375 -0.0625z" fill-rule="nonzero"/><path fill="#000000" fill-opacity="0.0" d="m258.67847 283.64304l191.59058 0" fill-rule="evenodd"/><path stroke="#0000ff" stroke-width="3.0" stroke-linejoin="round" stroke-linecap="butt" d="m268.95972 283.64304l181.30933 0" fill-rule="evenodd"/><path fill="#0000ff" stroke="#0000ff" stroke-width="3.0" stroke-linecap="butt" d="m268.95975 283.64304l3.3737488 -3.3737488l-9.269318 3.3737488l9.269318 3.3737488z" fill-rule="evenodd"/><path fill="#000000" fill-opacity="0.0" d="m273.08005 281.6719l177.16534 0l0 35.55905l-177.16534 0z" fill-rule="evenodd"/><path fill="#0000ff" d="m293.7995 301.73755q0.359375 0.609375 1.421875 1.21875l0 -3.453125l-3.203125 0l0 -0.953125l7.359375 0l0 0.953125l-3.140625 0l0 1.125l2.390625 0l0 0.96875l-2.390625 0l0 1.71875q0.453125 0.109375 1.171875 0.109375l2.078125 0l-0.15625 0.96875l-2.03125 0q-2.484375 0 -3.859375 -1.6875q-0.90625 1.421875 -1.78125 1.890625l-0.65625 -0.8125q1.875 -1.4375 2.140625 -3.71875l1.0625 0.25q0.359375 0.203125 -0.109375 0.3125l-0.296875 1.109375zm-3.359375 -2.9375l1.015625 -0.359375l0.203125 0.859375l-1.21875 0.515625l0 3.859375q0 0.8125 -0.8125 0.8125l-1.015625 0l-0.140625 -0.96875l0.75 0q0.203125 0 0.203125 -0.203125l0 -3.140625l-1.15625 0.453125q-0.109375 0.359375 -0.203125 0.15625l-0.3125 -1.171875l1.671875 -0.515625l0 -2.984375l-1.421875 0l0 -0.96875l1.421875 0l0 -2.1875l0.96875 0q0.40625 0.046875 0.046875 0.3125l0 1.875l1.484375 0l0 0.96875l-1.484375 0l0 2.6875zm2.34375 -5.390625l5.640625 0l0 4.265625l-5.640625 0l0 -4.265625zm0.859375 0.8125l0 0.921875l3.90625 0l0 -0.921875l-3.90625 0zm0 1.734375l0 0.90625l3.90625 0l0 -0.90625l-3.90625 0zm8.734375 2.328125q-0.5 0.8125 -0.96875 1.171875l-0.609375 -0.96875q1.78125 -2.125 2.296875 -5.53125l1.109375 0.25q0.453125 0.15625 -0.046875 0.265625q-0.359375 1.46875 -0.8125 2.890625q0.703125 0.203125 0.046875 0.5l0 7.734375l-1.015625 0l0 -6.3125zm7.265625 2.703125q1.015625 1.625 2.640625 2.484375l-0.765625 0.96875q-1.578125 -0.765625 -2.84375 -2.84375l0.96875 -0.609375zm-5.84375 2.53125q1.9375 -1.171875 2.640625 -2.53125l0.859375 0.546875q0.359375 0.3125 -0.09375 0.3125q-1.265625 1.671875 -2.75 2.640625l-0.65625 -0.96875zm6.046875 -10.40625q0.5 0.09375 0.046875 0.40625l0 2.28125l1.875 0l0 0.96875l-1.875 0l0 2.84375l2.390625 0l0 0.96875l-8.328125 0l0 -0.96875l2.03125 0l0 -2.84375l-1.578125 0l0 -0.96875l1.578125 0l0 -2.640625l0.96875 0q0.5 0.109375 0.046875 0.40625l0 2.234375l1.875 0l0 -2.6875l0.96875 0zm-0.96875 3.65625l-1.875 0l0 2.84375l1.875 0l0 -2.84375zm15.953125 1.3125q-0.609375 2.640625 -1.328125 3.8125q1.015625 0.96875 2.234375 1.421875l-0.609375 1.125q-1.109375 -0.515625 -2.234375 -1.53125q-0.765625 1.015625 -1.875 1.6875l-0.65625 -1.078125q1.15625 -0.65625 1.765625 -1.515625q-0.953125 -1.484375 -1.15625 -3.609375l-0.671875 0l0 6.140625l-1.015625 0l0 -11.21875l5.234375 0l0 2.53125q0 0.8125 -0.8125 0.8125l-1.421875 0l-0.09375 -0.953125l1.109375 0q0.203125 0 0.203125 -0.203125l0 -1.21875l-3.203125 0l0 3.140625l3.65625 0l0.15625 -0.15625l0.859375 0.5625q0.203125 0.203125 -0.140625 0.25zm-2.03125 2.953125q0.40625 -0.96875 0.859375 -2.640625l-1.671875 0q0.09375 1.21875 0.8125 2.640625zm-8.1875 -7.671875l3.65625 0l0 10.21875q0 0.8125 -0.8125 0.8125l-1.015625 0l-0.046875 -0.96875l0.65625 0q0.203125 0 0.203125 -0.203125l0 -3.109375l-1.625 0l0 0.3125q0 2.53125 -1.0625 4.171875l-0.859375 -0.921875q0.90625 -1.625 0.90625 -3.40625l0 -6.90625zm2.640625 3.859375l-1.625 0l0 1.9375l1.625 0l0 -1.9375zm0 -0.96875l0 -1.921875l-1.625 0l0 1.921875l1.625 0zm14.125 7.265625q2.59375 -0.40625 2.890625 -2.640625l-1.875 0l0 -0.8125l1.921875 0l0 -1.3125l0.96875 0q0.40625 0.046875 0.046875 0.296875l0 1.015625l2.5 0l-0.15625 3.0q-0.046875 1.265625 -1.21875 1.265625l-1.015625 0l-0.203125 -0.8125l0.859375 0q0.609375 0 0.65625 -0.5625l0.109375 -2.078125l-1.578125 0q-0.203125 2.90625 -3.546875 3.71875l-0.359375 -1.078125zm4.5625 -6.390625q1.015625 0.75 2.59375 1.15625l-0.296875 1.125q-1.828125 -0.65625 -2.953125 -1.578125q-1.171875 1.0625 -2.6875 1.734375l-0.453125 -0.96875q1.265625 -0.453125 2.375 -1.375q-0.75 -0.765625 -1.265625 -1.421875q-0.40625 0.5625 -0.90625 1.0625l-0.609375 -0.75q1.265625 -1.328125 1.921875 -3.3125l0.96875 0.359375q0.203125 0.203125 -0.15625 0.25l-0.359375 0.765625l4.171875 0l0 0.8125l-1.0625 0q-0.40625 1.125 -1.28125 2.140625zm-2.125 -2.140625q0.609375 1.0625 1.421875 1.625q0.65625 -0.8125 1.015625 -1.625l-2.4375 0zm-4.421875 5.078125q-0.765625 1.46875 -1.828125 2.6875l-0.765625 -0.8125q1.9375 -1.921875 2.5 -3.859375l-2.296875 0l0 -0.8125l4.46875 0l0.15625 -0.296875l0.859375 0.5625q0.203125 0.203125 -0.140625 0.25l-1.171875 2.53125l-0.71875 -0.8125l0.71875 -1.421875l-0.921875 0l0 5.703125q0 0.859375 -0.75 0.859375l-0.96875 0l-0.203125 -0.96875l0.90625 0q0.15625 0 0.15625 -0.15625l0 -3.453125zm0.859375 -4.109375l0.5625 0.40625l-0.65625 0.8125q-0.921875 -0.765625 -2.1875 -1.578125l0.5625 -0.609375q0.5625 0.203125 1.0625 0.5625l1.171875 -1.21875l-3.359375 0l0 -0.8125l3.765625 0l0.25 -0.25l0.8125 0.609375q0.203125 0.203125 -0.15625 0.25l-1.828125 1.828125z" fill-rule="nonzero"/><path fill="#0000ff" d="m343.87747 303.47192l0 -9.546875l3.59375 0q0.953125 0 1.453125 0.09375q0.703125 0.125 1.171875 0.453125q0.484375 0.328125 0.765625 0.921875q0.296875 0.59375 0.296875 1.296875q0 1.21875 -0.78125 2.0625q-0.765625 0.84375 -2.796875 0.84375l-2.4375 0l0 3.875l-1.265625 0zm1.265625 -5.0l2.453125 0q1.234375 0 1.75 -0.453125q0.515625 -0.46875 0.515625 -1.28125q0 -0.609375 -0.3125 -1.03125q-0.296875 -0.421875 -0.796875 -0.5625q-0.3125 -0.09375 -1.171875 -0.09375l-2.4375 0l0 3.421875zm7.4522705 5.0l0 -6.90625l1.0625 0l0 1.046875q0.40625 -0.734375 0.734375 -0.96875q0.34375 -0.234375 0.765625 -0.234375q0.59375 0 1.203125 0.375l-0.40625 1.078125q-0.4375 -0.25 -0.859375 -0.25q-0.390625 0 -0.703125 0.234375q-0.296875 0.234375 -0.421875 0.640625q-0.203125 0.625 -0.203125 1.359375l0 3.625l-1.171875 0zm4.0164795 -3.453125q0 -1.921875 1.078125 -2.84375q0.890625 -0.765625 2.171875 -0.765625q1.421875 0 2.328125 0.9375q0.90625 0.921875 0.90625 2.578125q0 1.328125 -0.40625 2.09375q-0.390625 0.765625 -1.15625 1.1875q-0.765625 0.421875 -1.671875 0.421875q-1.453125 0 -2.359375 -0.921875q-0.890625 -0.9375 -0.890625 -2.6875zm1.203125 0q0 1.328125 0.578125 1.984375q0.59375 0.65625 1.46875 0.65625q0.875 0 1.453125 -0.65625q0.578125 -0.671875 0.578125 -2.03125q0 -1.28125 -0.59375 -1.9375q-0.578125 -0.65625 -1.4375 -0.65625q-0.875 0 -1.46875 0.65625q-0.578125 0.65625 -0.578125 1.984375zm8.568726 3.453125l-2.625 -6.90625l1.234375 0l1.484375 4.140625q0.234375 0.65625 0.4375 1.390625q0.15625 -0.546875 0.4375 -1.3125l1.53125 -4.21875l1.21875 0l-2.625 6.90625l-1.09375 0zm4.7578125 -8.1875l0 -1.359375l1.171875 0l0 1.359375l-1.171875 0zm0 8.1875l0 -6.90625l1.171875 0l0 6.90625l-1.171875 0zm7.42984 0l0 -0.875q-0.65625 1.03125 -1.9375 1.03125q-0.8125 0 -1.515625 -0.453125q-0.6875 -0.453125 -1.078125 -1.265625q-0.375 -0.828125 -0.375 -1.890625q0 -1.03125 0.34375 -1.875q0.34375 -0.84375 1.03125 -1.28125q0.703125 -0.453125 1.546875 -0.453125q0.625 0 1.109375 0.265625q0.5 0.25 0.796875 0.671875l0 -3.421875l1.171875 0l0 9.546875l-1.09375 0zm-3.703125 -3.453125q0 1.328125 0.5625 1.984375q0.5625 0.65625 1.328125 0.65625q0.765625 0 1.296875 -0.625q0.53125 -0.625 0.53125 -1.90625q0 -1.421875 -0.546875 -2.078125q-0.546875 -0.671875 -1.34375 -0.671875q-0.78125 0 -1.3125 0.640625q-0.515625 0.625 -0.515625 2.0zm11.365601 1.234375l1.203125 0.140625q-0.28125 1.0625 -1.0625 1.65625q-0.765625 0.578125 -1.96875 0.578125q-1.515625 0 -2.40625 -0.9375q-0.890625 -0.9375 -0.890625 -2.609375q0 -1.75 0.890625 -2.703125q0.90625 -0.96875 2.34375 -0.96875q1.390625 0 2.265625 0.9375q0.875 0.9375 0.875 2.65625q0 0.109375 0 0.3125l-5.15625 0q0.0625 1.140625 0.640625 1.75q0.578125 0.59375 1.4375 0.59375q0.65625 0 1.109375 -0.328125q0.453125 -0.34375 0.71875 -1.078125zm-3.84375 -1.90625l3.859375 0q-0.078125 -0.859375 -0.4375 -1.296875q-0.5625 -0.6875 -1.453125 -0.6875q-0.8125 0 -1.359375 0.546875q-0.546875 0.53125 -0.609375 1.4375zm9.9436035 1.0625l1.203125 -0.109375q0.078125 0.71875 0.390625 1.1875q0.3125 0.453125 0.953125 0.734375q0.65625 0.28125 1.46875 0.28125q0.71875 0 1.265625 -0.21875q0.5625 -0.21875 0.828125 -0.578125q0.265625 -0.375 0.265625 -0.828125q0 -0.453125 -0.265625 -0.78125q-0.25 -0.328125 -0.84375 -0.5625q-0.390625 -0.15625 -1.703125 -0.46875q-1.3125 -0.3125 -1.84375 -0.59375q-0.671875 -0.359375 -1.015625 -0.890625q-0.328125 -0.53125 -0.328125 -1.1875q0 -0.71875 0.40625 -1.34375q0.40625 -0.625 1.1875 -0.953125q0.796875 -0.328125 1.765625 -0.328125q1.046875 0 1.859375 0.34375q0.8125 0.34375 1.25 1.015625q0.4375 0.65625 0.46875 1.484375l-1.203125 0.09375q-0.109375 -0.90625 -0.671875 -1.359375q-0.5625 -0.46875 -1.65625 -0.46875q-1.140625 0 -1.671875 0.421875q-0.515625 0.421875 -0.515625 1.015625q0 0.515625 0.359375 0.84375q0.375 0.328125 1.90625 0.6875q1.546875 0.34375 2.109375 0.59375q0.84375 0.390625 1.234375 0.984375q0.390625 0.578125 0.390625 1.359375q0 0.75 -0.4375 1.4375q-0.421875 0.671875 -1.25 1.046875q-0.8125 0.359375 -1.828125 0.359375q-1.296875 0 -2.171875 -0.375q-0.875 -0.375 -1.375 -1.125q-0.5 -0.765625 -0.53125 -1.71875zm13.905365 0.84375l1.203125 0.140625q-0.28125 1.0625 -1.0625 1.65625q-0.765625 0.578125 -1.96875 0.578125q-1.515625 0 -2.40625 -0.9375q-0.890625 -0.9375 -0.890625 -2.609375q0 -1.75 0.890625 -2.703125q0.90625 -0.96875 2.34375 -0.96875q1.390625 0 2.265625 0.9375q0.875 0.9375 0.875 2.65625q0 0.109375 0 0.3125l-5.15625 0q0.0625 1.140625 0.640625 1.75q0.578125 0.59375 1.4375 0.59375q0.65625 0 1.109375 -0.328125q0.453125 -0.34375 0.71875 -1.078125zm-3.84375 -1.90625l3.859375 0q-0.078125 -0.859375 -0.4375 -1.296875q-0.5625 -0.6875 -1.453125 -0.6875q-0.8125 0 -1.359375 0.546875q-0.546875 0.53125 -0.609375 1.4375zm6.5062256 4.125l0 -6.90625l1.0625 0l0 1.046875q0.40625 -0.734375 0.734375 -0.96875q0.34375 -0.234375 0.765625 -0.234375q0.59375 0 1.203125 0.375l-0.40625 1.078125q-0.4375 -0.25 -0.859375 -0.25q-0.390625 0 -0.703125 0.234375q-0.296875 0.234375 -0.421875 0.640625q-0.203125 0.625 -0.203125 1.359375l0 3.625l-1.171875 0zm6.375885 0l-2.625 -6.90625l1.234375 0l1.484375 4.140625q0.234375 0.65625 0.4375 1.390625q0.15625 -0.546875 0.4375 -1.3125l1.53125 -4.21875l1.21875 0l-2.625 6.90625l-1.09375 0zm4.7578125 -8.1875l0 -1.359375l1.171875 0l0 1.359375l-1.171875 0zm0 8.1875l0 -6.90625l1.171875 0l0 6.90625l-1.171875 0zm7.46109 -2.53125l1.15625 0.15625q-0.1875 1.1875 -0.96875 1.859375q-0.78125 0.671875 -1.921875 0.671875q-1.40625 0 -2.28125 -0.921875q-0.859375 -0.9375 -0.859375 -2.65625q0 -1.125 0.375 -1.96875q0.375 -0.84375 1.125 -1.25q0.765625 -0.421875 1.65625 -0.421875q1.125 0 1.84375 0.578125q0.71875 0.5625 0.921875 1.609375l-1.140625 0.171875q-0.171875 -0.703125 -0.59375 -1.046875q-0.40625 -0.359375 -0.984375 -0.359375q-0.890625 0 -1.453125 0.640625q-0.546875 0.640625 -0.546875 2.0q0 1.40625 0.53125 2.03125q0.546875 0.625 1.40625 0.625q0.6875 0 1.140625 -0.421875q0.46875 -0.421875 0.59375 -1.296875zm6.8828125 0.3125l1.203125 0.140625q-0.28125 1.0625 -1.0625 1.65625q-0.765625 0.578125 -1.96875 0.578125q-1.515625 0 -2.40625 -0.9375q-0.890625 -0.9375 -0.890625 -2.609375q0 -1.75 0.890625 -2.703125q0.90625 -0.96875 2.34375 -0.96875q1.390625 0 2.265625 0.9375q0.875 0.9375 0.875 2.65625q0 0.109375 0 0.3125l-5.15625 0q0.0625 1.140625 0.640625 1.75q0.578125 0.59375 1.4375 0.59375q0.65625 0 1.109375 -0.328125q0.453125 -0.34375 0.71875 -1.078125zm-3.84375 -1.90625l3.859375 0q-0.078125 -0.859375 -0.4375 -1.296875q-0.5625 -0.6875 -1.453125 -0.6875q-0.8125 0 -1.359375 0.546875q-0.546875 0.53125 -0.609375 1.4375z" fill-rule="nonzero"/></g></svg>