<svg version="1.1" viewBox="0.0 0.0 800.0 600.0" fill="none" stroke="none" stroke-linecap="square" stroke-miterlimit="10" xmlns:xlink="http://www.w3.org/1999/xlink" xmlns="http://www.w3.org/2000/svg"><clipPath id="p.0"><path d="m0 0l800.0 0l0 600.0l-800.0 0l0 -600.0z" clip-rule="nonzero"/></clipPath><g clip-path="url(#p.0)"><path fill="#000000" fill-opacity="0.0" d="m0 0l800.0 0l0 600.0l-800.0 0z" fill-rule="evenodd"/><path fill="#000000" fill-opacity="0.0" d="m220.95932 496.08005l358.07877 0l0 42.015778l-358.07877 0z" fill-rule="evenodd"/><path fill="#000000" d="m343.4402 523.00006l6.46875 -12.921875l6.46875 12.921875l-12.9375 0z" fill-rule="nonzero"/><path fill="#000000" d="m378.8697 515.12506l-0.296875 6.015625q-0.140625 3.125 -2.15625 3.125l-2.21875 0l-0.21875 -1.640625l1.84375 0q0.96875 0 1.046875 -1.265625l0.296875 -4.8125l-4.078125 0l-0.078125 0.59375q-0.515625 4.078125 -5.859375 7.5l-1.125 -1.421875q4.828125 -2.75 5.34375 -5.78125l0.15625 -0.890625l-2.828125 0l0 -1.421875l10.171875 0zm-6.671875 -5.859375q-1.78125 3.859375 -5.71875 7.046875l-1.1875 -1.40625q3.859375 -2.671875 5.640625 -6.90625l1.40625 0.890625q0.453125 0.296875 -0.140625 0.375zm9.203125 7.046875q-4.09375 -2.375 -6.015625 -7.78125l1.40625 -0.59375q1.78125 4.75 5.71875 6.828125l-1.109375 1.546875zm19.140625 8.09375q-2.15625 -1.328125 -3.40625 -3.1875q-1.484375 2.296875 -3.5625 3.484375l-0.890625 -1.484375q2.140625 -1.265625 3.5625 -3.265625q-1.1875 -2.453125 -1.421875 -4.828125q-0.515625 1.125 -1.328125 2.078125l-0.890625 -1.40625q2.15625 -2.453125 2.75 -8.3125l1.40625 0.375q0.8125 0.375 0 0.515625q-0.21875 1.109375 -0.671875 3.046875l5.125 0l0 1.40625l-1.40625 0q-0.15625 3.9375 -1.78125 7.046875q1.109375 1.421875 3.484375 2.828125l-0.96875 1.703125zm-7.125 -10.171875l-9.125 0l0 -1.1875l2.453125 0l0 -2.0l-2.015625 0l0 -1.1875l2.015625 0l0 -2.296875l1.1875 0q0.59375 0.078125 0.0625 0.4375l0 1.859375l1.9375 0l0 -2.296875l1.1875 0q0.59375 0.078125 0.078125 0.4375l0 1.859375l1.921875 0l0 1.1875l-1.921875 0l0 2.0l2.21875 0l0 1.1875zm-2.890625 9.21875q0.296875 0 0.296875 -0.296875l0 -1.859375l-3.859375 0l0 3.34375l-1.265625 0l0 -9.28125l6.390625 0l0 8.15625q0 1.125 -0.828125 1.125l-1.328125 0l-0.21875 -1.1875l0.8125 0zm-2.53125 -12.40625l0 2.0l1.9375 0l0 -2.0l-1.9375 0zm-1.03125 5.5l0 1.1875l3.859375 0l0 -1.1875l-3.859375 0zm0 3.5625l3.859375 0l0 -1.1875l-3.859375 0l0 1.1875zm10.171875 -1.71875q1.03125 -2.140625 1.25 -5.5625l-2.515625 0q0.078125 3.1875 1.265625 5.5625zm19.0 1.859375q0.953125 1.78125 1.703125 1.78125q0.296875 0 0.375 -0.4375l0.140625 -1.265625l1.640625 0.734375l-0.296875 1.78125q-0.234375 1.265625 -1.34375 1.265625q-2.21875 0 -3.78125 -3.046875q-1.484375 -2.890625 -1.5625 -8.15625l-9.125 0l0 -1.640625l9.046875 0l0 -3.40625l1.640625 0q0.734375 0.140625 0.078125 0.59375l0 2.8125l5.1875 0l0 1.640625l-5.1875 0q0.296875 5.1875 1.484375 7.34375zm-2.90625 1.34375q-4.15625 0.890625 -8.375 1.625q-0.15625 0.671875 -0.53125 0.15625l-0.359375 -1.859375q1.84375 -0.15625 3.625 -0.453125l0 -4.21875l-2.96875 0l0 -1.421875l7.359375 0l0 1.421875l-2.90625 0l0 4.0q1.71875 -0.21875 3.9375 -0.671875l0.21875 1.421875zm3.421875 -13.359375q1.03125 0.515625 2.0 1.40625l-1.328125 1.109375q-0.75 -0.734375 -1.9375 -1.40625l1.265625 -1.109375zm11.578125 5.859375q0.671875 0 0.734375 -0.671875l0.15625 -2.453125l-1.859375 0q-0.078125 3.203125 -3.9375 5.125l-0.59375 -1.484375q2.90625 -1.109375 3.046875 -3.640625l-2.453125 0l0 -1.40625l2.53125 0l0 -1.859375l1.40625 0q0.59375 0.078125 0.078125 0.453125l0 1.40625l3.265625 0l-0.296875 4.234375q-0.15625 1.703125 -1.5625 1.703125l-1.265625 0l-0.21875 -1.40625l0.96875 0zm8.3125 1.265625l0 -0.375l-3.421875 0l0 0.515625l-1.484375 0l0 -6.671875l6.390625 0l0 6.53125l-1.484375 0zm-3.421875 -1.78125l3.421875 0l0 -3.34375l-3.421875 0l0 3.34375zm-1.78125 2.375q0.59375 0.0625 0.078125 0.4375l0 0.8125l6.828125 0l0 1.421875l-6.53125 0q1.9375 2.0 7.125 3.328125l-0.515625 1.71875q-4.234375 -1.265625 -6.90625 -3.71875l0 4.6875l-1.484375 0l0 -4.53125q-2.0 2.375 -6.609375 3.703125l-0.515625 -1.703125q4.609375 -1.046875 6.75 -3.484375l-6.453125 0l0 -1.421875l6.828125 0l0 -1.25l1.40625 0zm9.65625 2.734375q2.078125 -3.03125 2.75 -6.078125l-2.234375 0l0 -1.40625l2.296875 0l0 -3.5625l1.421875 0q0.59375 0.0625 0.0625 0.4375l0 3.125l2.078125 0l0 1.40625l-2.078125 0l0 2.375q1.34375 0.8125 2.453125 1.78125l-0.8125 1.484375q-1.046875 -1.046875 -1.640625 -1.5625l0 8.171875l-1.484375 0l0 -8.3125q-0.4375 1.546875 -1.78125 3.40625l-1.03125 -1.265625zm8.75 6.09375l-1.25 0l0 -3.265625l-1.5625 0l0 -1.1875l1.5625 0l0 -4.453125l3.484375 0l0 -0.890625l-5.125 0l0 -1.1875l3.1875 0l0 -1.109375l-1.921875 0l0 -1.1875l1.921875 0l0 -0.96875l-2.671875 0l0 -1.1875l2.671875 0l0 -1.78125l1.1875 0q0.59375 0.078125 0.078125 0.4375l0 1.34375l2.453125 0l0 -1.78125l1.1875 0q0.59375 0.078125 0.078125 0.4375l0 1.34375l2.8125 0l0 1.1875l-2.8125 0l0 0.96875l2.0 0l0 1.1875l-2.0 0l0 1.109375l3.265625 0l0 1.1875l-5.046875 0l0 0.890625l3.5625 0l0 4.453125l1.546875 0l0 1.1875l-1.546875 0l0 2.078125q0 0.96875 -0.890625 0.96875l-1.421875 0l-0.140625 -1.40625l0.96875 0q0.21875 0 0.21875 -0.3125l0 -1.328125l-5.796875 0l0 3.265625zm1.5625 -13.28125l2.453125 0l0 -0.96875l-2.453125 0l0 0.96875zm0 2.296875l2.453125 0l0 -1.109375l-2.453125 0l0 1.109375zm1.9375 4.296875l2.296875 0l0 -1.03125l-2.296875 0l0 1.03125zm-3.5 0l2.234375 0l0 -1.03125l-2.234375 0l0 1.03125zm0 2.234375l2.234375 0l0 -1.046875l-2.234375 0l0 1.046875zm3.5 0l2.296875 0l0 -1.046875l-2.296875 0l0 1.046875z" fill-rule="nonzero"/><path fill="#000000" fill-opacity="0.0" d="m346.98425 170.44357l315.49603 0l0 253.07086l-315.49603 0z" fill-rule="evenodd"/><path stroke="#ff0000" stroke-width="1.0" stroke-linejoin="round" stroke-linecap="butt" d="m346.98425 170.44357l315.49603 0l0 253.07086l-315.49603 0z" fill-rule="evenodd"/><path fill="#000000" fill-opacity="0.0" d="m346.98425 423.51706l0 -253.51181l275.84253 253.51181z" fill-rule="evenodd"/><path stroke="#ff0000" stroke-width="1.0" stroke-linejoin="round" stroke-linecap="butt" d="m346.98425 423.51706l0 -253.51181l275.84253 253.51181z" fill-rule="evenodd"/><path fill="#000000" fill-opacity="0.0" d="m347.54068 423.95538l-218.86613 -126.53543l218.86613 -126.53543z" fill-rule="evenodd"/><path stroke="#ff0000" stroke-width="1.0" stroke-linejoin="round" stroke-linecap="butt" d="m347.54068 423.95538l-218.86613 -126.53543l218.86613 -126.53543z" fill-rule="evenodd"/><path fill="#fff2cc" d="m312.95013 402.0223l66.04724 0l0 41.88977l-66.04724 0z" fill-rule="evenodd"/><path stroke="#000000" stroke-width="1.0" stroke-linejoin="round" stroke-linecap="butt" d="m312.95013 402.0223l66.04724 0l0 41.88977l-66.04724 0z" fill-rule="evenodd"/><path fill="#ffffff" d="m316.82416 406.21127l58.299194 0l0 33.51181l-58.299194 0z" fill-rule="evenodd"/><path stroke="#000000" stroke-width="1.0" stroke-linejoin="round" stroke-linecap="butt" d="m316.82416 406.21127l58.299194 0l0 33.51181l-58.299194 0z" fill-rule="evenodd"/><path fill="#000000" fill-opacity="0.0" d="m345.97375 443.91208l0 8.913391" fill-rule="evenodd"/><path stroke="#000000" stroke-width="1.0" stroke-linejoin="round" stroke-linecap="butt" d="m345.97375 443.91208l0 8.913391" fill-rule="evenodd"/><path fill="#000000" fill-opacity="0.0" d="m334.85565 452.82547l22.236206 0" fill-rule="evenodd"/><path stroke="#000000" stroke-width="1.0" stroke-linejoin="round" stroke-linecap="butt" d="m334.85565 452.82547l22.236206 0" fill-rule="evenodd"/><path fill="#cfe2f3" d="m97.45538 272.01837l66.04724 0l0 41.88977l-66.04724 0z" fill-rule="evenodd"/><path stroke="#000000" stroke-width="1.0" stroke-linejoin="round" stroke-linecap="butt" d="m97.45538 272.01837l66.04724 0l0 41.88977l-66.04724 0z" fill-rule="evenodd"/><path fill="#ffffff" d="m101.3294 276.20734l58.299217 0l0 33.51181l-58.299217 0z" fill-rule="evenodd"/><path stroke="#000000" stroke-width="1.0" stroke-linejoin="round" stroke-linecap="butt" d="m101.3294 276.20734l58.299217 0l0 33.51181l-58.299217 0z" fill-rule="evenodd"/><path fill="#000000" fill-opacity="0.0" d="m130.479 313.90814l0 8.913391" fill-rule="evenodd"/><path stroke="#000000" stroke-width="1.0" stroke-linejoin="round" stroke-linecap="butt" d="m130.479 313.90814l0 8.913391" fill-rule="evenodd"/><path fill="#000000" fill-opacity="0.0" d="m119.36089 322.82153l22.236214 0" fill-rule="evenodd"/><path stroke="#000000" stroke-width="1.0" stroke-linejoin="round" stroke-linecap="butt" d="m119.36089 322.82153l22.236214 0" fill-rule="evenodd"/><path fill="#d9ead3" d="m629.3963 147.17192l66.04724 0l0 41.889755l-66.04724 0z" fill-rule="evenodd"/><path stroke="#000000" stroke-width="1.0" stroke-linejoin="round" stroke-linecap="butt" d="m629.3963 147.17192l66.04724 0l0 41.889755l-66.04724 0z" fill-rule="evenodd"/><path fill="#ffffff" d="m633.2703 151.36089l58.299255 0l0 33.51181l-58.299255 0z" fill-rule="evenodd"/><path stroke="#000000" stroke-width="1.0" stroke-linejoin="round" stroke-linecap="butt" d="m633.2703 151.36089l58.299255 0l0 33.51181l-58.299255 0z" fill-rule="evenodd"/><path fill="#000000" fill-opacity="0.0" d="m662.4199 189.06168l0 8.913391" fill-rule="evenodd"/><path stroke="#000000" stroke-width="1.0" stroke-linejoin="round" stroke-linecap="butt" d="m662.4199 189.06168l0 8.913391" fill-rule="evenodd"/><path fill="#000000" fill-opacity="0.0" d="m651.3018 197.97507l22.236267 0" fill-rule="evenodd"/><path stroke="#000000" stroke-width="1.0" stroke-linejoin="round" stroke-linecap="butt" d="m651.3018 197.97507l22.236267 0" fill-rule="evenodd"/><defs><radialGradient id="p.1" gradientUnits="userSpaceOnUse" gradientTransform="matrix(9.148147751510388 0.0 0.0 9.148147751510388 0.0 0.0)" spreadMethod="pad" cx="72.42720834282689" cy="41.46142868406649" fx="72.42720834282689" fy="41.46142868406649" r="9.148147583007812"><stop offset="0.0" stop-color="#8c8c8c"/><stop offset="1.0" stop-color="#404040"/></radialGradient></defs><path fill="url(#p.1)" d="m622.6063 325.75198l59.95276 0l0 127.07086l-59.95276 0z" fill-rule="evenodd"/><defs><radialGradient id="p.2" gradientUnits="userSpaceOnUse" gradientTransform="matrix(9.148147751510388 0.0 0.0 9.148147751510388 0.0 0.0)" spreadMethod="pad" cx="72.42720834282689" cy="41.46142868406649" fx="72.42720834282689" fy="41.46142868406649" r="9.148147583007812"><stop offset="0.0" stop-color="#8c8c8c"/><stop offset="1.0" stop-color="#404040"/></radialGradient></defs><path fill="url(#p.2)" d="m682.5591 325.75198l19.984253 -19.984253l0 127.07086l-19.984253 19.984253z" fill-rule="evenodd"/><defs><radialGradient id="p.3" gradientUnits="userSpaceOnUse" gradientTransform="matrix(9.148147751510388 0.0 0.0 9.148147751510388 0.0 0.0)" spreadMethod="pad" cx="72.42720834282689" cy="41.46142868406649" fx="72.42720834282689" fy="41.46142868406649" r="9.148147583007812"><stop offset="0.0" stop-color="#8c8c8c"/><stop offset="1.0" stop-color="#404040"/></radialGradient></defs><path fill="url(#p.3)" d="m622.6063 325.75198l19.984253 -19.984253l59.95276 0l-19.984253 19.984253z" fill-rule="evenodd"/><path fill="#000000" fill-opacity="0.0" d="m622.6063 325.75198l19.984253 -19.984253l59.95276 0l0 127.07086l-19.984253 19.984253l-59.95276 0zm0 0l59.95276 0l19.984253 -19.984253m-19.984253 19.984253l0 127.07086" fill-rule="evenodd"/><path fill="#000000" fill-opacity="0.2" d="m682.5591 325.75198l19.984253 -19.984253l0 127.07086l-19.984253 19.984253z" fill-rule="evenodd"/><path fill="#ffffff" fill-opacity="0.2" d="m622.6063 325.75198l19.984253 -19.984253l59.95276 0l-19.984253 19.984253z" fill-rule="evenodd"/><path stroke="#000000" stroke-width="1.0" stroke-linejoin="round" stroke-linecap="butt" d="m622.6063 325.75198l19.984253 -19.984253l59.95276 0l0 127.07086l-19.984253 19.984253l-59.95276 0zm0 0l59.95276 0l19.984253 -19.984253m-19.984253 19.984253l0 127.07086" fill-rule="evenodd"/><path fill="#000000" fill-opacity="0.0" d="m622.2966 423.15353l59.874023 0" fill-rule="evenodd"/><path stroke="#000000" stroke-width="1.0" stroke-linejoin="round" stroke-linecap="butt" d="m622.2966 423.15353l59.874023 0" fill-rule="evenodd"/><path fill="#000000" fill-opacity="0.0" d="m652.5827 325.75198l0 96.944855" fill-rule="evenodd"/><path stroke="#000000" stroke-width="1.0" stroke-linejoin="round" stroke-linecap="butt" d="m652.5827 325.75198l0 96.944855" fill-rule="evenodd"/><path fill="#000000" fill-opacity="0.0" d="m637.6063 436.82547l29.952759 0" fill-rule="evenodd"/><path stroke="#000000" stroke-width="1.0" stroke-linejoin="round" stroke-linecap="butt" d="m637.6063 436.82547l29.952759 0" fill-rule="evenodd"/><defs><radialGradient id="p.4" gradientUnits="userSpaceOnUse" gradientTransform="matrix(2.8976192471594997 0.0 0.0 2.8976192471594997 0.0 0.0)" spreadMethod="pad" cx="225.09292635321268" cy="121.21590272866689" fx="225.09292635321268" fy="121.21590272866689" r="2.8976192474365234"><stop offset="0.0" stop-color="#ffffff"/><stop offset="1.0" stop-color="#b3b3b3"/></radialGradient></defs><path fill="url(#p.4)" d="m646.2966 351.23752l0 0c0 -3.2789001 2.658081 -5.936981 5.9370117 -5.936981l0 0c1.574585 0 3.0847168 0.6254883 4.19812 1.7388916c1.1134033 1.1134033 1.7388916 2.6235046 1.7388916 4.1980896l0 0c0 3.2789307 -2.658081 5.9370117 -5.9370117 5.9370117l0 0c-3.2789307 0 -5.9370117 -2.658081 -5.9370117 -5.9370117z" fill-rule="evenodd"/><path stroke="#000000" stroke-width="1.0" stroke-linejoin="round" stroke-linecap="butt" d="m646.2966 351.23752l0 0c0 -3.2789001 2.658081 -5.936981 5.9370117 -5.936981l0 0c1.574585 0 3.0847168 0.6254883 4.19812 1.7388916c1.1134033 1.1134033 1.7388916 2.6235046 1.7388916 4.1980896l0 0c0 3.2789307 -2.658081 5.9370117 -5.9370117 5.9370117l0 0c-3.2789307 0 -5.9370117 -2.658081 -5.9370117 -5.9370117z" fill-rule="evenodd"/><path fill="#e6b8af" d="m312.94882 147.17323l66.04724 0l0 41.889755l-66.04724 0z" fill-rule="evenodd"/><path stroke="#000000" stroke-width="1.0" stroke-linejoin="round" stroke-linecap="butt" d="m312.94882 147.17323l66.04724 0l0 41.889755l-66.04724 0z" fill-rule="evenodd"/><path fill="#ffffff" d="m316.82285 151.3622l58.299194 0l0 33.51181l-58.299194 0z" fill-rule="evenodd"/><path stroke="#000000" stroke-width="1.0" stroke-linejoin="round" stroke-linecap="butt" d="m316.82285 151.3622l58.299194 0l0 33.51181l-58.299194 0z" fill-rule="evenodd"/><path fill="#000000" fill-opacity="0.0" d="m345.97244 189.06299l0 8.913391" fill-rule="evenodd"/><path stroke="#000000" stroke-width="1.0" stroke-linejoin="round" stroke-linecap="butt" d="m345.97244 189.06299l0 8.913391" fill-rule="evenodd"/><path fill="#000000" fill-opacity="0.0" d="m334.85434 197.97638l22.236206 0" fill-rule="evenodd"/><path stroke="#000000" stroke-width="1.0" stroke-linejoin="round" stroke-linecap="butt" d="m334.85434 197.97638l22.236206 0" fill-rule="evenodd"/><path fill="#d9d9d9" d="m451.8937 280.4895l66.04721 0l0 41.88977l-66.04721 0z" fill-rule="evenodd"/><path stroke="#000000" stroke-width="1.0" stroke-linejoin="round" stroke-linecap="butt" d="m451.8937 280.4895l66.04721 0l0 41.88977l-66.04721 0z" fill-rule="evenodd"/><path fill="#ffffff" d="m455.76773 284.67847l58.299225 0l0 33.51181l-58.299225 0z" fill-rule="evenodd"/><path stroke="#000000" stroke-width="1.0" stroke-linejoin="round" stroke-linecap="butt" d="m455.76773 284.67847l58.299225 0l0 33.51181l-58.299225 0z" fill-rule="evenodd"/><path fill="#000000" fill-opacity="0.0" d="m484.91733 322.37927l0 8.913391" fill-rule="evenodd"/><path stroke="#000000" stroke-width="1.0" stroke-linejoin="round" stroke-linecap="butt" d="m484.91733 322.37927l0 8.913391" fill-rule="evenodd"/><path fill="#000000" fill-opacity="0.0" d="m473.79922 331.29266l22.236206 0" fill-rule="evenodd"/><path stroke="#000000" stroke-width="1.0" stroke-linejoin="round" stroke-linecap="butt" d="m473.79922 331.29266l22.236206 0" fill-rule="evenodd"/></g></svg>