<svg version="1.1" viewBox="0.0 0.0 608.7795275590552 310.244094488189" fill="none" stroke="none" stroke-linecap="square" stroke-miterlimit="10" xmlns:xlink="http://www.w3.org/1999/xlink" xmlns="http://www.w3.org/2000/svg"><clipPath id="p.0"><path d="m0 0l608.77954 0l0 310.24408l-608.77954 0l0 -310.24408z" clip-rule="nonzero"/></clipPath><g clip-path="url(#p.0)"><path fill="#000000" fill-opacity="0.0" d="m0 0l608.77954 0l0 310.24408l-608.77954 0z" fill-rule="evenodd"/><path fill="#000000" fill-opacity="0.0" d="m249.52756 23.270342l315.49606 0l0 253.07088l-315.49606 0z" fill-rule="evenodd"/><path stroke="#ff0000" stroke-width="1.0" stroke-linejoin="round" stroke-linecap="butt" d="m249.52756 23.270342l315.49606 0l0 253.07088l-315.49606 0z" fill-rule="evenodd"/><path fill="#000000" fill-opacity="0.0" d="m249.52756 276.34384l0 -253.51183l275.8425 253.51183z" fill-rule="evenodd"/><path stroke="#ff0000" stroke-width="1.0" stroke-linejoin="round" stroke-linecap="butt" d="m249.52756 276.34384l0 -253.51183l275.8425 253.51183z" fill-rule="evenodd"/><path fill="#000000" fill-opacity="0.0" d="m250.08398 276.78217l-218.86613 -126.535446l218.86613 -126.53543z" fill-rule="evenodd"/><path stroke="#ff0000" stroke-width="1.0" stroke-linejoin="round" stroke-linecap="butt" d="m250.08398 276.78217l-218.86613 -126.535446l218.86613 -126.53543z" fill-rule="evenodd"/><path fill="#fff2cc" d="m215.49344 254.84908l66.04724 0l0 41.889755l-66.04724 0z" fill-rule="evenodd"/><path stroke="#000000" stroke-width="1.0" stroke-linejoin="round" stroke-linecap="butt" d="m215.49344 254.84908l66.04724 0l0 41.889755l-66.04724 0z" fill-rule="evenodd"/><path fill="#ffffff" d="m219.36745 259.03806l58.29921 0l0 33.51181l-58.29921 0z" fill-rule="evenodd"/><path stroke="#000000" stroke-width="1.0" stroke-linejoin="round" stroke-linecap="butt" d="m219.36745 259.03806l58.29921 0l0 33.51181l-58.29921 0z" fill-rule="evenodd"/><path fill="#000000" fill-opacity="0.0" d="m248.51706 296.73883l0 8.913391" fill-rule="evenodd"/><path stroke="#000000" stroke-width="1.0" stroke-linejoin="round" stroke-linecap="butt" d="m248.51706 296.73883l0 8.913391" fill-rule="evenodd"/><path fill="#000000" fill-opacity="0.0" d="m237.39896 305.65222l22.236206 0" fill-rule="evenodd"/><path stroke="#000000" stroke-width="1.0" stroke-linejoin="round" stroke-linecap="butt" d="m237.39896 305.65222l22.236206 0" fill-rule="evenodd"/><path fill="#cfe2f3" d="m-0.001312336 124.845146l66.04724 0l0 41.889763l-66.04724 0z" fill-rule="evenodd"/><path stroke="#000000" stroke-width="1.0" stroke-linejoin="round" stroke-linecap="butt" d="m-0.001312336 124.845146l66.04724 0l0 41.889763l-66.04724 0z" fill-rule="evenodd"/><path fill="#ffffff" d="m3.8727033 129.03412l58.299213 0l0 33.51181l-58.299213 0z" fill-rule="evenodd"/><path stroke="#000000" stroke-width="1.0" stroke-linejoin="round" stroke-linecap="butt" d="m3.8727033 129.03412l58.299213 0l0 33.51181l-58.299213 0z" fill-rule="evenodd"/><path fill="#000000" fill-opacity="0.0" d="m33.02231 166.73491l0 8.913391" fill-rule="evenodd"/><path stroke="#000000" stroke-width="1.0" stroke-linejoin="round" stroke-linecap="butt" d="m33.02231 166.73491l0 8.913391" fill-rule="evenodd"/><path fill="#000000" fill-opacity="0.0" d="m21.9042 175.6483l22.23622 0" fill-rule="evenodd"/><path stroke="#000000" stroke-width="1.0" stroke-linejoin="round" stroke-linecap="butt" d="m21.9042 175.6483l22.23622 0" fill-rule="evenodd"/><path fill="#d9ead3" d="m531.93964 -0.001312336l66.04724 0l0 41.889763l-66.04724 0z" fill-rule="evenodd"/><path stroke="#000000" stroke-width="1.0" stroke-linejoin="round" stroke-linecap="butt" d="m531.93964 -0.001312336l66.04724 0l0 41.889763l-66.04724 0z" fill-rule="evenodd"/><path fill="#ffffff" d="m535.81366 4.187664l58.299194 0l0 33.51181l-58.299194 0z" fill-rule="evenodd"/><path stroke="#000000" stroke-width="1.0" stroke-linejoin="round" stroke-linecap="butt" d="m535.81366 4.187664l58.299194 0l0 33.51181l-58.299194 0z" fill-rule="evenodd"/><path fill="#000000" fill-opacity="0.0" d="m564.96326 41.88845l0 8.913387" fill-rule="evenodd"/><path stroke="#000000" stroke-width="1.0" stroke-linejoin="round" stroke-linecap="butt" d="m564.96326 41.88845l0 8.913387" fill-rule="evenodd"/><path fill="#000000" fill-opacity="0.0" d="m553.84515 50.801838l22.236206 0" fill-rule="evenodd"/><path stroke="#000000" stroke-width="1.0" stroke-linejoin="round" stroke-linecap="butt" d="m553.84515 50.801838l22.236206 0" fill-rule="evenodd"/><defs><radialGradient id="p.1" gradientUnits="userSpaceOnUse" gradientTransform="matrix(9.148147751510388 0.0 0.0 9.148147751510388 0.0 0.0)" spreadMethod="pad" cx="61.77404711712463" cy="25.373666183492762" fx="61.77404711712463" fy="25.373666183492762" r="9.148147583007812"><stop offset="0.0" stop-color="#8c8c8c"/><stop offset="1.0" stop-color="#404040"/></radialGradient></defs><path fill="url(#p.1)" d="m525.1496 178.57874l59.95276 0l0 127.07086l-59.95276 0z" fill-rule="evenodd"/><defs><radialGradient id="p.2" gradientUnits="userSpaceOnUse" gradientTransform="matrix(9.148147751510388 0.0 0.0 9.148147751510388 0.0 0.0)" spreadMethod="pad" cx="61.77404711712463" cy="25.373666183492762" fx="61.77404711712463" fy="25.373666183492762" r="9.148147583007812"><stop offset="0.0" stop-color="#8c8c8c"/><stop offset="1.0" stop-color="#404040"/></radialGradient></defs><path fill="url(#p.2)" d="m585.10236 178.57874l19.984253 -19.984253l0 127.07086l-19.984253 19.984253z" fill-rule="evenodd"/><defs><radialGradient id="p.3" gradientUnits="userSpaceOnUse" gradientTransform="matrix(9.148147751510388 0.0 0.0 9.148147751510388 0.0 0.0)" spreadMethod="pad" cx="61.77404711712463" cy="25.373666183492762" fx="61.77404711712463" fy="25.373666183492762" r="9.148147583007812"><stop offset="0.0" stop-color="#8c8c8c"/><stop offset="1.0" stop-color="#404040"/></radialGradient></defs><path fill="url(#p.3)" d="m525.1496 178.57874l19.984253 -19.984253l59.95276 0l-19.984253 19.984253z" fill-rule="evenodd"/><path fill="#000000" fill-opacity="0.0" d="m525.1496 178.57874l19.984253 -19.984253l59.95276 0l0 127.07086l-19.984253 19.984253l-59.95276 0zm0 0l59.95276 0l19.984253 -19.984253m-19.984253 19.984253l0 127.07086" fill-rule="evenodd"/><path fill="#000000" fill-opacity="0.2" d="m585.10236 178.57874l19.984253 -19.984253l0 127.07086l-19.984253 19.984253z" fill-rule="evenodd"/><path fill="#ffffff" fill-opacity="0.2" d="m525.1496 178.57874l19.984253 -19.984253l59.95276 0l-19.984253 19.984253z" fill-rule="evenodd"/><path stroke="#000000" stroke-width="1.0" stroke-linejoin="round" stroke-linecap="butt" d="m525.1496 178.57874l19.984253 -19.984253l59.95276 0l0 127.07086l-19.984253 19.984253l-59.95276 0zm0 0l59.95276 0l19.984253 -19.984253m-19.984253 19.984253l0 127.07086" fill-rule="evenodd"/><path fill="#000000" fill-opacity="0.0" d="m524.8399 275.98032l59.874023 0" fill-rule="evenodd"/><path stroke="#000000" stroke-width="1.0" stroke-linejoin="round" stroke-linecap="butt" d="m524.8399 275.98032l59.874023 0" fill-rule="evenodd"/><path fill="#000000" fill-opacity="0.0" d="m555.126 178.57874l0 96.944885" fill-rule="evenodd"/><path stroke="#000000" stroke-width="1.0" stroke-linejoin="round" stroke-linecap="butt" d="m555.126 178.57874l0 96.944885" fill-rule="evenodd"/><path fill="#000000" fill-opacity="0.0" d="m540.1496 289.65222l29.952759 0" fill-rule="evenodd"/><path stroke="#000000" stroke-width="1.0" stroke-linejoin="round" stroke-linecap="butt" d="m540.1496 289.65222l29.952759 0" fill-rule="evenodd"/><defs><radialGradient id="p.4" gradientUnits="userSpaceOnUse" gradientTransform="matrix(2.8976192471594997 0.0 0.0 2.8976192471594997 0.0 0.0)" spreadMethod="pad" cx="191.45955888820797" cy="70.42481673946084" fx="191.45955888820797" fy="70.42481673946084" r="2.8976192474365234"><stop offset="0.0" stop-color="#ffffff"/><stop offset="1.0" stop-color="#b3b3b3"/></radialGradient></defs><path fill="url(#p.4)" d="m548.8399 204.0643l0 0c0 -3.2789154 2.658081 -5.9369965 5.9370117 -5.9369965l0 0c1.574585 0 3.0846558 0.62550354 4.198059 1.7389069c1.1134033 1.1134033 1.7389526 2.6235046 1.7389526 4.1980896l0 0c0 3.2789154 -2.658081 5.9370117 -5.9370117 5.9370117l0 0c-3.2789307 0 -5.9370117 -2.6580963 -5.9370117 -5.9370117z" fill-rule="evenodd"/><path stroke="#000000" stroke-width="1.0" stroke-linejoin="round" stroke-linecap="butt" d="m548.8399 204.0643l0 0c0 -3.2789154 2.658081 -5.9369965 5.9370117 -5.9369965l0 0c1.574585 0 3.0846558 0.62550354 4.198059 1.7389069c1.1134033 1.1134033 1.7389526 2.6235046 1.7389526 4.1980896l0 0c0 3.2789154 -2.658081 5.9370117 -5.9370117 5.9370117l0 0c-3.2789307 0 -5.9370117 -2.6580963 -5.9370117 -5.9370117z" fill-rule="evenodd"/><path fill="#e6b8af" d="m215.49213 0l66.04724 0l0 41.889763l-66.04724 0z" fill-rule="evenodd"/><path stroke="#000000" stroke-width="1.0" stroke-linejoin="round" stroke-linecap="butt" d="m215.49213 0l66.04724 0l0 41.889763l-66.04724 0z" fill-rule="evenodd"/><path fill="#ffffff" d="m219.36613 4.1889763l58.29921 0l0 33.51181l-58.29921 0z" fill-rule="evenodd"/><path stroke="#000000" stroke-width="1.0" stroke-linejoin="round" stroke-linecap="butt" d="m219.36613 4.1889763l58.29921 0l0 33.51181l-58.29921 0z" fill-rule="evenodd"/><path fill="#000000" fill-opacity="0.0" d="m248.51575 41.889763l0 8.913387" fill-rule="evenodd"/><path stroke="#000000" stroke-width="1.0" stroke-linejoin="round" stroke-linecap="butt" d="m248.51575 41.889763l0 8.913387" fill-rule="evenodd"/><path fill="#000000" fill-opacity="0.0" d="m237.39764 50.80315l22.236206 0" fill-rule="evenodd"/><path stroke="#000000" stroke-width="1.0" stroke-linejoin="round" stroke-linecap="butt" d="m237.39764 50.80315l22.236206 0" fill-rule="evenodd"/><path fill="#d9d9d9" d="m354.437 133.31627l66.04724 0l0 41.88977l-66.04724 0z" fill-rule="evenodd"/><path stroke="#000000" stroke-width="1.0" stroke-linejoin="round" stroke-linecap="butt" d="m354.437 133.31627l66.04724 0l0 41.88977l-66.04724 0z" fill-rule="evenodd"/><path fill="#ffffff" d="m358.31104 137.50525l58.299194 0l0 33.51181l-58.299194 0z" fill-rule="evenodd"/><path stroke="#000000" stroke-width="1.0" stroke-linejoin="round" stroke-linecap="butt" d="m358.31104 137.50525l58.299194 0l0 33.51181l-58.299194 0z" fill-rule="evenodd"/><path fill="#000000" fill-opacity="0.0" d="m387.46063 175.20604l0 8.913376" fill-rule="evenodd"/><path stroke="#000000" stroke-width="1.0" stroke-linejoin="round" stroke-linecap="butt" d="m387.46063 175.20604l0 8.913376" fill-rule="evenodd"/><path fill="#000000" fill-opacity="0.0" d="m376.34253 184.11942l22.236206 0" fill-rule="evenodd"/><path stroke="#000000" stroke-width="1.0" stroke-linejoin="round" stroke-linecap="butt" d="m376.34253 184.11942l22.236206 0" fill-rule="evenodd"/></g></svg>