<svg version="1.1" viewBox="0.0 0.0 1122.5196850393702 793.7007874015748" fill="none" stroke="none" stroke-linecap="square" stroke-miterlimit="10" xmlns:xlink="http://www.w3.org/1999/xlink" xmlns="http://www.w3.org/2000/svg"><clipPath id="p_1.0"><path d="m0 0l1122.5197 0l0 793.7008l-1122.5197 0l0 -793.7008z" clip-rule="nonzero"/></clipPath><g clip-path="url(#p_1.0)"><path fill="#000000" fill-opacity="0.0" d="m0 0l1122.5197 0l0 793.7008l-1122.5197 0z" fill-rule="evenodd"/><path fill="#000000" fill-opacity="0.0" d="m261.47638 284.56412l603.2384 0l0 193.20328l-603.2384 0z" fill-rule="evenodd"/><path fill="#000000" fill-opacity="0.0" d="m279.6318 395.1734l566.9276 0" fill-rule="evenodd"/><path stroke="#ff0000" stroke-width="3.0" stroke-linejoin="round" stroke-linecap="butt" d="m279.6318 395.1734l566.9276 0" fill-rule="evenodd"/><path fill="#000000" fill-opacity="0.0" d="m618.11536 322.4371l0 13.692871" fill-rule="evenodd"/><path stroke="#000000" stroke-width="2.0" stroke-linejoin="round" stroke-linecap="butt" d="m618.11536 322.4371l0 13.692871" fill-rule="evenodd"/><path fill="#e6b8af" d="m591.50226 284.86102l53.23236 0l0 40.444305l-53.23236 0zm5.055542 5.055542l0 30.333221l43.121277 0l0 -30.333221z" fill-rule="evenodd"/><path stroke="#000000" stroke-width="1.0" stroke-linejoin="round" stroke-linecap="butt" d="m591.50226 284.86102l53.23236 0l0 40.444305l-53.23236 0zm5.055542 5.055542l0 30.333221l43.121277 0l0 -30.333221z" fill-rule="evenodd"/><path fill="#000000" d="m622.3507 307.31567l1.765625 0.453125q-0.5625 2.171875 -2.0 3.328125q-1.4375 1.140625 -3.53125 1.140625q-2.15625 0 -3.515625 -0.875q-1.34375 -0.890625 -2.0625 -2.546875q-0.703125 -1.671875 -0.703125 -3.59375q0 -2.078125 0.796875 -3.625q0.796875 -1.5625 2.265625 -2.359375q1.484375 -0.8125 3.25 -0.8125q2.0 0 3.359375 1.015625q1.375 1.015625 1.90625 2.875l-1.734375 0.40625q-0.46875 -1.453125 -1.359375 -2.109375q-0.875 -0.671875 -2.203125 -0.671875q-1.546875 0 -2.578125 0.734375q-1.03125 0.734375 -1.453125 1.984375q-0.421875 1.234375 -0.421875 2.5625q0 1.703125 0.5 2.96875q0.5 1.265625 1.546875 1.90625q1.046875 0.625 2.265625 0.625q1.484375 0 2.515625 -0.859375q1.03125 -0.859375 1.390625 -2.546875z" fill-rule="nonzero"/><path fill="#000000" fill-opacity="0.0" d="m605.74274 336.12997l24.751465 0" fill-rule="evenodd"/><path stroke="#000000" stroke-width="2.0" stroke-linejoin="round" stroke-linecap="butt" d="m605.74274 336.12997l24.751465 0" fill-rule="evenodd"/><path fill="#000000" fill-opacity="0.0" d="m736.44714 322.4371l0 13.692871" fill-rule="evenodd"/><path stroke="#000000" stroke-width="2.0" stroke-linejoin="round" stroke-linecap="butt" d="m736.44714 322.4371l0 13.692871" fill-rule="evenodd"/><path fill="#ead1dc" d="m709.83405 284.86102l53.23236 0l0 40.444305l-53.23236 0zm5.055542 5.055542l0 30.333221l43.121277 0l0 -30.333221z" fill-rule="evenodd"/><path stroke="#000000" stroke-width="1.0" stroke-linejoin="round" stroke-linecap="butt" d="m709.83405 284.86102l53.23236 0l0 40.444305l-53.23236 0zm5.055542 5.055542l0 30.333221l43.121277 0l0 -30.333221z" fill-rule="evenodd"/><path fill="#000000" d="m731.15125 312.00317l0 -13.359375l4.609375 0q1.546875 0 2.375 0.203125q1.140625 0.25 1.953125 0.953125q1.0625 0.890625 1.578125 2.28125q0.53125 1.390625 0.53125 3.171875q0 1.515625 -0.359375 2.703125q-0.359375 1.171875 -0.921875 1.9375q-0.546875 0.765625 -1.203125 1.21875q-0.65625 0.4375 -1.59375 0.671875q-0.9375 0.21875 -2.140625 0.21875l-4.828125 0zm1.765625 -1.578125l2.859375 0q1.3125 0 2.0625 -0.234375q0.75 -0.25 1.203125 -0.703125q0.625 -0.625 0.96875 -1.6875q0.359375 -1.0625 0.359375 -2.578125q0 -2.09375 -0.6875 -3.21875q-0.6875 -1.125 -1.671875 -1.5q-0.703125 -0.28125 -2.28125 -0.28125l-2.8125 0l0 10.203125z" fill-rule="nonzero"/><path fill="#000000" fill-opacity="0.0" d="m724.0745 336.12997l24.751465 0" fill-rule="evenodd"/><path stroke="#000000" stroke-width="2.0" stroke-linejoin="round" stroke-linecap="butt" d="m724.0745 336.12997l24.751465 0" fill-rule="evenodd"/><path fill="#000000" fill-opacity="0.0" d="m381.45178 322.4371l0 13.692871" fill-rule="evenodd"/><path stroke="#000000" stroke-width="2.0" stroke-linejoin="round" stroke-linecap="butt" d="m381.45178 322.4371l0 13.692871" fill-rule="evenodd"/><path fill="#d9ead3" d="m354.83868 284.86102l53.23236 0l0 40.444305l-53.23236 0zm5.055542 5.055542l0 30.333221l43.121277 0l0 -30.333221z" fill-rule="evenodd"/><path stroke="#000000" stroke-width="1.0" stroke-linejoin="round" stroke-linecap="butt" d="m354.83868 284.86102l53.23236 0l0 40.444305l-53.23236 0zm5.055542 5.055542l0 30.333221l43.121277 0l0 -30.333221z" fill-rule="evenodd"/><path fill="#000000" d="m375.20184 312.00317l5.125 -13.359375l1.90625 0l5.46875 13.359375l-2.015625 0l-1.546875 -4.046875l-5.59375 0l-1.46875 4.046875l-1.875 0zm3.859375 -5.484375l4.53125 0l-1.40625 -3.703125q-0.625 -1.6875 -0.9375 -2.765625q-0.265625 1.28125 -0.71875 2.546875l-1.46875 3.921875z" fill-rule="nonzero"/><path fill="#000000" fill-opacity="0.0" d="m369.07913 336.12997l24.751465 0" fill-rule="evenodd"/><path stroke="#000000" stroke-width="2.0" stroke-linejoin="round" stroke-linecap="butt" d="m369.07913 336.12997l24.751465 0" fill-rule="evenodd"/><path fill="#000000" fill-opacity="0.0" d="m499.7828 322.4371l0 13.692871" fill-rule="evenodd"/><path stroke="#000000" stroke-width="2.0" stroke-linejoin="round" stroke-linecap="butt" d="m499.7828 322.4371l0 13.692871" fill-rule="evenodd"/><path fill="#c9daf8" d="m473.16974 284.86102l53.23236 0l0 40.444305l-53.23236 0zm5.0555115 5.055542l0 30.333221l43.121307 0l0 -30.333221z" fill-rule="evenodd"/><path stroke="#000000" stroke-width="1.0" stroke-linejoin="round" stroke-linecap="butt" d="m473.16974 284.86102l53.23236 0l0 40.444305l-53.23236 0zm5.0555115 5.055542l0 30.333221l43.121307 0l0 -30.333221z" fill-rule="evenodd"/><path fill="#000000" d="m494.9235 312.00317l0 -13.359375l5.015625 0q1.53125 0 2.453125 0.40625q0.921875 0.40625 1.4375 1.25q0.53125 0.84375 0.53125 1.765625q0 0.859375 -0.46875 1.625q-0.453125 0.75 -1.390625 1.203125q1.203125 0.359375 1.859375 1.21875q0.65625 0.859375 0.65625 2.015625q0 0.9375 -0.40625 1.75q-0.390625 0.796875 -0.984375 1.234375q-0.578125 0.4375 -1.453125 0.671875q-0.875 0.21875 -2.15625 0.21875l-5.09375 0zm1.78125 -7.75l2.875 0q1.1875 0 1.6875 -0.140625q0.671875 -0.203125 1.015625 -0.671875q0.34375 -0.46875 0.34375 -1.171875q0 -0.65625 -0.328125 -1.15625q-0.3125 -0.515625 -0.90625 -0.703125q-0.59375 -0.1875 -2.03125 -0.1875l-2.65625 0l0 4.03125zm0 6.171875l3.3125 0q0.859375 0 1.203125 -0.0625q0.609375 -0.109375 1.015625 -0.359375q0.421875 -0.265625 0.6875 -0.75q0.265625 -0.484375 0.265625 -1.125q0 -0.75 -0.390625 -1.296875q-0.375 -0.546875 -1.0625 -0.765625q-0.671875 -0.234375 -1.953125 -0.234375l-3.078125 0l0 4.59375z" fill-rule="nonzero"/><path fill="#000000" fill-opacity="0.0" d="m487.4102 336.12997l24.751495 0" fill-rule="evenodd"/><path stroke="#000000" stroke-width="2.0" stroke-linejoin="round" stroke-linecap="butt" d="m487.4102 336.12997l24.751495 0" fill-rule="evenodd"/><path fill="#000000" fill-opacity="0.0" d="m381.45486 336.51083l0 59.118073" fill-rule="evenodd"/><path stroke="#ff0000" stroke-width="2.0" stroke-linejoin="round" stroke-linecap="butt" d="m381.45486 336.51083l0 59.118073" fill-rule="evenodd"/><path fill="#000000" fill-opacity="0.0" d="m499.78665 336.51083l0 59.118073" fill-rule="evenodd"/><path stroke="#ff0000" stroke-width="2.0" stroke-linejoin="round" stroke-linecap="butt" d="m499.78665 336.51083l0 59.118073" fill-rule="evenodd"/><path fill="#000000" fill-opacity="0.0" d="m618.11847 336.51083l0 59.118073" fill-rule="evenodd"/><path stroke="#ff0000" stroke-width="2.0" stroke-linejoin="round" stroke-linecap="butt" d="m618.11847 336.51083l0 59.118073" fill-rule="evenodd"/><path fill="#000000" fill-opacity="0.0" d="m736.45026 336.51083l0 59.118073" fill-rule="evenodd"/><path stroke="#ff0000" stroke-width="2.0" stroke-linejoin="round" stroke-linecap="butt" d="m736.45026 336.51083l0 59.118073" fill-rule="evenodd"/><path fill="#000000" fill-opacity="0.0" d="m279.6318 383.971l0 22.404785" fill-rule="evenodd"/><path stroke="#000000" stroke-width="4.0" stroke-linejoin="round" stroke-linecap="butt" d="m279.6318 383.971l0 22.404785" fill-rule="evenodd"/><path fill="#000000" fill-opacity="0.0" d="m846.5594 383.971l0 22.404785" fill-rule="evenodd"/><path stroke="#000000" stroke-width="4.0" stroke-linejoin="round" stroke-linecap="butt" d="m846.5594 383.971l0 22.404785" fill-rule="evenodd"/><path fill="#000000" fill-opacity="0.0" d="m217.79921 403.662l123.66463 0l0 56.002655l-123.66463 0z" fill-rule="evenodd"/><path fill="#000000" d="m257.06903 416.25385q-1.03125 1.78125 -2.2187653 3.1875q0.59375 0.453125 1.109375 1.125q1.1875153 -1.5625 2.0000153 -3.046875l1.109375 0.734375q0.375 0.375 -0.140625 0.375q-1.265625 2.078125 -3.2656403 4.3125l2.2968903 -0.234375l-0.515625 -0.8125l0.8125 -0.734375q1.265625 1.25 1.859375 2.671875l-1.109375 0.8125l-0.453125 -0.8125l-1.5625 0.21875l0 8.234375l-1.4843903 0l0 -8.09375l-2.515625 0.375q-0.078125 0.515625 -0.375 0.21875l-0.515625 -1.625l1.859375 -0.15625q0.65625 -0.65625 1.03125 -1.25q-1.265625 -1.265625 -2.515625 -2.15625l0.734375 -1.265625l0.515625 0.296875q1.5625 -1.859375 2.3750153 -3.5625l1.125 0.8125q0.359375 0.375 -0.15625 0.375zm6.3125 5.796875q-0.890625 -1.125 -1.640625 -2.453125q-0.65625 1.265625 -1.703125 2.375l-0.8125 -1.046875q2.21875 -2.59375 2.8125 -5.78125l1.421875 0.296875q0.296875 0.296875 -0.234375 0.375l-0.359375 1.1875l3.625 0l0.234375 -0.296875l1.03125 0.8125q0.515625 0.515625 -0.140625 0.4375q-0.75 2.3125 -2.375 4.15625q1.40625 1.421875 4.0 2.375l-0.734375 1.484375q-2.96875 -1.40625 -4.234375 -2.890625q-1.5625 1.703125 -4.15625 3.265625l-0.8125 -1.40625q2.375 -1.1875 4.078125 -2.890625zm-1.859375 6.375q3.125 0.515625 6.3125 2.078125l-0.671875 1.5625q-2.59375 -1.328125 -6.15625 -2.15625l0.515625 -1.484375zm1.40625 -3.1875q2.15625 0.4375 4.09375 1.484375l-0.671875 1.484375q-1.5625 -1.046875 -4.015625 -1.703125l0.59375 -1.265625zm-8.312515 0.890625q0.453125 0.21875 -0.0625 0.375q-0.234375 2.4375 -0.75 4.15625l-1.265625 -0.59375q0.59375 -2.234375 0.671875 -4.234375l1.40625 0.296875zm4.0937653 -0.59375q0.890625 1.5625 1.1875 3.640625l-1.34375 0.4375q-0.296875 -1.859375 -1.03125 -3.5625l1.1875 -0.515625zm5.5625 -4.453125q1.328125 -1.484375 1.703125 -2.890625l-3.40625 0q0.515625 1.625 1.703125 2.890625zm13.4375 7.421875q-2.90625 0.890625 -5.796875 1.5625q-0.078125 0.515625 -0.375 0.21875l-0.296875 -1.78125l3.265625 -0.59375l0.96875 -7.28125l1.5625 0.15625q0.375 0.21875 -0.15625 0.4375l-0.953125 6.390625l1.78125 -0.453125l0 1.34375zm-5.203125 -1.78125q-0.296875 -2.828125 -0.96875 -5.046875l1.265625 -0.375q0.8125 2.15625 1.046875 4.96875l-1.34375 0.453125zm13.21875 5.5l-0.375 -1.421875l0.59375 0q0.296875 0 0.296875 -0.296875l0 -5.1875l-1.40625 0l0 6.375l-1.265625 0l0 -6.375l-1.265625 0l0 6.375l-1.265625 0l0 -6.375l-1.25 0l0 6.828125l-1.265625 0l0 -8.015625l3.046875 0l0.59375 -1.640625l-4.3125 0l0 -1.1875l10.3125 0l0 1.1875l-4.515625 0l-0.59375 1.640625l4.453125 0l0 7.046875q0 1.046875 -1.046875 1.046875l-0.734375 0zm-8.3125 -12.03125l-6.015625 0l0 -1.40625l2.375 0l0 -3.125l1.40625 0q0.59375 0.078125 0.078125 0.453125l0 2.671875l2.15625 0l0 1.40625zm6.078125 -4.96875q0.59375 0.0625 0.078125 0.4375l0 3.125l2.296875 0l0 -2.75l1.1875 0q0.59375 0.078125 0.078125 0.4375l0 3.5l-8.3125 0l0 -3.9375l1.1875 0q0.59375 0.078125 0.078125 0.4375l0 2.3125l2.21875 0l0 -3.5625l1.1875 0zm15.65625 5.046875q0.59375 0.140625 0 0.4375q-0.140625 0.671875 -0.359375 1.265625l7.859375 0l0 1.40625l-5.640625 0q2.59375 1.78125 6.390625 2.453125l-0.375 1.5625q-1.484375 -0.296875 -2.078125 -0.59375l0 5.046875l-1.484375 0l0 -0.8125l-2.59375 0l0 1.03125l-1.484375 0l0 -5.9375l3.859375 0q-2.15625 -0.890625 -3.9375 -2.75l-1.1875 0q-1.1875 1.703125 -3.1875 2.75l2.96875 0l0 5.796875l-1.484375 0l0 -0.890625l-2.53125 0l0 1.109375l-1.484375 0l0 -4.90625q-0.671875 0.375 -2.0 0.671875l-0.515625 -1.5625q4.0 -0.59375 6.53125 -2.96875l-5.796875 0l0 -1.40625l6.6875 0q0.4375 -0.8125 0.59375 -1.78125l1.25 0.078125zm-1.484375 0.359375l-1.484375 0l0 -0.359375l-2.890625 0l0 0.65625l-1.484375 0l0 -5.1875l5.859375 0l0 4.890625zm1.859375 -4.890625l5.9375 0l0 4.890625l-1.484375 0l0 -0.359375l-2.96875 0l0 0.65625l-1.484375 0l0 -5.1875zm3.9375 14.09375l0 -2.515625l-2.59375 0l0 2.515625l2.59375 0zm-7.28125 -10.75l0 -2.15625l-2.890625 0l0 2.15625l2.890625 0zm7.796875 -2.15625l-2.96875 0l0 2.15625l2.96875 0l0 -2.15625zm-7.5625 12.90625l0 -2.515625l-2.53125 0l0 2.515625l2.53125 0z" fill-rule="nonzero"/><path fill="#000000" d="m235.788 456.50385q-1.359375 -1.703125 -2.296875 -4.0q-0.9375 -2.296875 -0.9375 -4.765625q0 -2.15625 0.703125 -4.140625q0.828125 -2.3125 2.53125 -4.59375l1.171875 0q-1.09375 1.890625 -1.453125 2.703125q-0.546875 1.25 -0.875 2.625q-0.390625 1.703125 -0.390625 3.421875q0 4.375 2.71875 8.75l-1.171875 0zm6.665802 -5.390625l0.234375 1.453125q-0.6875 0.140625 -1.234375 0.140625q-0.890625 0 -1.390625 -0.28125q-0.484375 -0.28125 -0.6875 -0.734375q-0.203125 -0.46875 -0.203125 -1.9375l0 -5.578125l-1.203125 0l0 -1.265625l1.203125 0l0 -2.390625l1.625 -0.984375l0 3.375l1.65625 0l0 1.265625l-1.65625 0l0 5.671875q0 0.6875 0.078125 0.890625q0.09375 0.203125 0.28125 0.328125q0.203125 0.109375 0.578125 0.109375q0.265625 0 0.71875 -0.0625zm8.230179 -1.640625l1.6875 0.203125q-0.40625 1.484375 -1.484375 2.3125q-1.078125 0.8125 -2.765625 0.8125q-2.125 0 -3.375 -1.296875q-1.234375 -1.3125 -1.234375 -3.671875q0 -2.453125 1.25 -3.796875q1.265625 -1.34375 3.265625 -1.34375q1.9375 0 3.15625 1.328125q1.234375 1.3125 1.234375 3.703125q0 0.15625 0 0.4375l-7.21875 0q0.09375 1.59375 0.90625 2.453125q0.8125 0.84375 2.015625 0.84375q0.90625 0 1.546875 -0.46875q0.640625 -0.484375 1.015625 -1.515625zm-5.390625 -2.65625l5.40625 0q-0.109375 -1.21875 -0.625 -1.828125q-0.78125 -0.953125 -2.03125 -0.953125q-1.125 0 -1.90625 0.765625q-0.765625 0.75 -0.84375 2.015625zm9.125717 5.765625l0 -9.671875l1.46875 0l0 1.46875q0.5625 -1.03125 1.03125 -1.359375q0.484375 -0.328125 1.0625 -0.328125q0.828125 0 1.6875 0.53125l-0.5625 1.515625q-0.609375 -0.359375 -1.203125 -0.359375q-0.546875 0 -0.96875 0.328125q-0.421875 0.328125 -0.609375 0.890625q-0.28125 0.875 -0.28125 1.921875l0 5.0625l-1.625 0zm6.228302 0l0 -9.671875l1.46875 0l0 1.359375q0.453125 -0.71875 1.203125 -1.140625q0.765625 -0.4375 1.71875 -0.4375q1.078125 0 1.765625 0.453125q0.6875 0.4375 0.96875 1.234375q1.15625 -1.6875 2.984375 -1.6875q1.453125 0 2.21875 0.796875q0.78125 0.796875 0.78125 2.453125l0 6.640625l-1.640625 0l0 -6.09375q0 -0.984375 -0.15625 -1.40625q-0.15625 -0.4375 -0.578125 -0.703125q-0.421875 -0.265625 -0.984375 -0.265625q-1.015625 0 -1.6875 0.6875q-0.671875 0.671875 -0.671875 2.15625l0 5.625l-1.640625 0l0 -6.28125q0 -1.09375 -0.40625 -1.640625q-0.40625 -0.546875 -1.3125 -0.546875q-0.6875 0 -1.28125 0.359375q-0.59375 0.359375 -0.859375 1.0625q-0.25 0.703125 -0.25 2.03125l0 5.015625l-1.640625 0zm15.540802 -11.46875l0 -1.890625l1.640625 0l0 1.890625l-1.640625 0zm0 11.46875l0 -9.671875l1.640625 0l0 9.671875l-1.640625 0zm4.144806 0l0 -9.671875l1.46875 0l0 1.375q1.0625 -1.59375 3.078125 -1.59375q0.875 0 1.609375 0.3125q0.734375 0.3125 1.09375 0.828125q0.375 0.5 0.515625 1.203125q0.09375 0.453125 0.09375 1.59375l0 5.953125l-1.640625 0l0 -5.890625q0 -1.0 -0.203125 -1.484375q-0.1875 -0.5 -0.671875 -0.796875q-0.484375 -0.296875 -1.140625 -0.296875q-1.046875 0 -1.8125 0.671875q-0.75 0.65625 -0.75 2.515625l0 5.28125l-1.640625 0zm16.688232 -1.1875q-0.921875 0.765625 -1.765625 1.09375q-0.828125 0.3125 -1.796875 0.3125q-1.59375 0 -2.453125 -0.78125q-0.859375 -0.78125 -0.859375 -1.984375q0 -0.71875 0.328125 -1.296875q0.328125 -0.59375 0.84375 -0.9375q0.53125 -0.359375 1.1875 -0.546875q0.46875 -0.125 1.453125 -0.25q1.984375 -0.234375 2.921875 -0.5625q0.015625 -0.34375 0.015625 -0.421875q0 -1.0 -0.46875 -1.421875q-0.625 -0.546875 -1.875 -0.546875q-1.15625 0 -1.703125 0.40625q-0.546875 0.40625 -0.8125 1.421875l-1.609375 -0.21875q0.21875 -1.015625 0.71875 -1.640625q0.5 -0.640625 1.453125 -0.984375q0.953125 -0.34375 2.1875 -0.34375q1.25 0 2.015625 0.296875q0.78125 0.28125 1.140625 0.734375q0.375 0.4375 0.515625 1.109375q0.078125 0.421875 0.078125 1.515625l0 2.1875q0 2.28125 0.109375 2.890625q0.109375 0.59375 0.40625 1.15625l-1.703125 0q-0.265625 -0.515625 -0.328125 -1.1875zm-0.140625 -3.671875q-0.890625 0.375 -2.671875 0.625q-1.015625 0.140625 -1.4375 0.328125q-0.421875 0.1875 -0.65625 0.53125q-0.21875 0.34375 -0.21875 0.78125q0 0.65625 0.5 1.09375q0.5 0.4375 1.453125 0.4375q0.9375 0 1.671875 -0.40625q0.75 -0.421875 1.09375 -1.140625q0.265625 -0.5625 0.265625 -1.640625l0 -0.609375zm7.781952 3.390625l0.234375 1.453125q-0.6875 0.140625 -1.234375 0.140625q-0.890625 0 -1.390625 -0.28125q-0.484375 -0.28125 -0.6875 -0.734375q-0.203125 -0.46875 -0.203125 -1.9375l0 -5.578125l-1.203125 0l0 -1.265625l1.203125 0l0 -2.390625l1.625 -0.984375l0 3.375l1.65625 0l0 1.265625l-1.65625 0l0 5.671875q0 0.6875 0.078125 0.890625q0.09375 0.203125 0.28125 0.328125q0.203125 0.109375 0.578125 0.109375q0.265625 0 0.71875 -0.0625zm0.9958191 -3.375q0 -2.6875 1.484375 -3.96875q1.25 -1.078125 3.046875 -1.078125q2.0 0 3.265625 1.3125q1.265625 1.296875 1.265625 3.609375q0 1.859375 -0.5625 2.9375q-0.5625 1.0625 -1.640625 1.65625q-1.0625 0.59375 -2.328125 0.59375q-2.03125 0 -3.28125 -1.296875q-1.25 -1.3125 -1.25 -3.765625zm1.6875 0q0 1.859375 0.796875 2.796875q0.8125 0.921875 2.046875 0.921875q1.21875 0 2.03125 -0.921875q0.8125 -0.9375 0.8125 -2.84375q0 -1.796875 -0.8125 -2.71875q-0.8125 -0.921875 -2.03125 -0.921875q-1.234375 0 -2.046875 0.921875q-0.796875 0.90625 -0.796875 2.765625zm9.281952 4.84375l0 -9.671875l1.46875 0l0 1.46875q0.5625 -1.03125 1.03125 -1.359375q0.484375 -0.328125 1.0625 -0.328125q0.828125 0 1.6875 0.53125l-0.5625 1.515625q-0.609375 -0.359375 -1.203125 -0.359375q-0.546875 0 -0.96875 0.328125q-0.421875 0.328125 -0.609375 0.890625q-0.28125 0.875 -0.28125 1.921875l0 5.0625l-1.625 0zm7.306427 3.921875l-1.1875 0q2.734375 -4.375 2.734375 -8.75q0 -1.71875 -0.390625 -3.390625q-0.3125 -1.375 -0.875 -2.625q-0.359375 -0.828125 -1.46875 -2.734375l1.1875 0q1.703125 2.28125 2.53125 4.59375q0.6875 1.984375 0.6875 4.140625q0 2.46875 -0.9375 4.765625q-0.9375 2.296875 -2.28125 4.0z" fill-rule="nonzero"/><path fill="#000000" fill-opacity="0.0" d="m788.4029 407.06955l116.31708 0l0 56.002655l-116.31708 0z" fill-rule="evenodd"/><path fill="#000000" d="m823.99896 419.66144q-1.03125 1.78125 -2.21875 3.1875q0.59375 0.453125 1.109375 1.125q1.1875 -1.5625 2.0 -3.046875l1.109375 0.734375q0.375 0.375 -0.140625 0.375q-1.265625 2.078125 -3.265625 4.3125l2.296875 -0.234375l-0.515625 -0.8125l0.8125 -0.734375q1.265625 1.25 1.859375 2.671875l-1.109375 0.8125l-0.453125 -0.8125l-1.5625 0.21875l0 8.234375l-1.484375 0l0 -8.09375l-2.515625 0.375q-0.078125 0.515625 -0.375 0.21875l-0.515625 -1.625l1.859375 -0.15625q0.65625 -0.65625 1.03125 -1.25q-1.265625 -1.265625 -2.515625 -2.15625l0.734375 -1.265625l0.515625 0.296875q1.5625 -1.859375 2.375 -3.5625l1.125 0.8125q0.359375 0.375 -0.15625 0.375zm6.3125 5.796875q-0.890625 -1.125 -1.640625 -2.453125q-0.65625 1.265625 -1.703125 2.375l-0.8125 -1.046875q2.21875 -2.59375 2.8125 -5.78125l1.421875 0.296875q0.296875 0.296875 -0.234375 0.375l-0.359375 1.1875l3.625 0l0.234375 -0.296875l1.03125 0.8125q0.515625 0.515625 -0.140625 0.4375q-0.75 2.3125 -2.375 4.15625q1.40625 1.421875 4.0 2.375l-0.734375 1.484375q-2.96875 -1.40625 -4.234375 -2.890625q-1.5625 1.703125 -4.15625 3.265625l-0.8125 -1.40625q2.375 -1.1875 4.078125 -2.890625zm-1.859375 6.375q3.125 0.515625 6.3125 2.078125l-0.671875 1.5625q-2.59375 -1.328125 -6.15625 -2.15625l0.515625 -1.484375zm1.40625 -3.1875q2.15625 0.4375 4.09375 1.484375l-0.671875 1.484375q-1.5625 -1.046875 -4.015625 -1.703125l0.59375 -1.265625zm-8.3125 0.890625q0.453125 0.21875 -0.0625 0.375q-0.234375 2.4375 -0.75 4.15625l-1.265625 -0.59375q0.59375 -2.234375 0.671875 -4.234375l1.40625 0.296875zm4.09375 -0.59375q0.890625 1.5625 1.1875 3.640625l-1.34375 0.4375q-0.296875 -1.859375 -1.03125 -3.5625l1.1875 -0.515625zm5.5625 -4.453125q1.328125 -1.484375 1.703125 -2.890625l-3.40625 0q0.515625 1.625 1.703125 2.890625zm13.4375 7.421875q-2.90625 0.890625 -5.796875 1.5625q-0.078125 0.515625 -0.375 0.21875l-0.296875 -1.78125l3.265625 -0.59375l0.96875 -7.28125l1.5625 0.15625q0.375 0.21875 -0.15625 0.4375l-0.953125 6.390625l1.78125 -0.453125l0 1.34375zm-5.203125 -1.78125q-0.296875 -2.828125 -0.96875 -5.046875l1.265625 -0.375q0.8125 2.15625 1.046875 4.96875l-1.34375 0.453125zm13.21875 5.5l-0.375 -1.421875l0.59375 0q0.296875 0 0.296875 -0.296875l0 -5.1875l-1.40625 0l0 6.375l-1.265625 0l0 -6.375l-1.265625 0l0 6.375l-1.265625 0l0 -6.375l-1.25 0l0 6.828125l-1.265625 0l0 -8.015625l3.046875 0l0.59375 -1.640625l-4.3125 0l0 -1.1875l10.3125 0l0 1.1875l-4.515625 0l-0.59375 1.640625l4.453125 0l0 7.046875q0 1.046875 -1.046875 1.046875l-0.734375 0zm-8.3125 -12.03125l-6.015625 0l0 -1.40625l2.375 0l0 -3.125l1.40625 0q0.59375 0.078125 0.078125 0.453125l0 2.671875l2.15625 0l0 1.40625zm6.078125 -4.96875q0.59375 0.0625 0.078125 0.4375l0 3.125l2.296875 0l0 -2.75l1.1875 0q0.59375 0.078125 0.078125 0.4375l0 3.5l-8.3125 0l0 -3.9375l1.1875 0q0.59375 0.078125 0.078125 0.4375l0 2.3125l2.21875 0l0 -3.5625l1.1875 0zm15.65625 5.046875q0.59375 0.140625 0 0.4375q-0.140625 0.671875 -0.359375 1.265625l7.859375 0l0 1.40625l-5.640625 0q2.59375 1.78125 6.390625 2.453125l-0.375 1.5625q-1.484375 -0.296875 -2.078125 -0.59375l0 5.046875l-1.484375 0l0 -0.8125l-2.59375 0l0 1.03125l-1.484375 0l0 -5.9375l3.859375 0q-2.15625 -0.890625 -3.9375 -2.75l-1.1875 0q-1.1875 1.703125 -3.1875 2.75l2.96875 0l0 5.796875l-1.484375 0l0 -0.890625l-2.53125 0l0 1.109375l-1.484375 0l0 -4.90625q-0.671875 0.375 -2.0 0.671875l-0.515625 -1.5625q4.0 -0.59375 6.53125 -2.96875l-5.796875 0l0 -1.40625l6.6875 0q0.4375 -0.8125 0.59375 -1.78125l1.25 0.078125zm-1.484375 0.359375l-1.484375 0l0 -0.359375l-2.890625 0l0 0.65625l-1.484375 0l0 -5.1875l5.859375 0l0 4.890625zm1.859375 -4.890625l5.9375 0l0 4.890625l-1.484375 0l0 -0.359375l-2.96875 0l0 0.65625l-1.484375 0l0 -5.1875zm3.9375 14.09375l0 -2.515625l-2.59375 0l0 2.515625l2.59375 0zm-7.28125 -10.75l0 -2.15625l-2.890625 0l0 2.15625l2.890625 0zm7.796875 -2.15625l-2.96875 0l0 2.15625l2.96875 0l0 -2.15625zm-7.5625 12.90625l0 -2.515625l-2.53125 0l0 2.515625l2.53125 0z" fill-rule="nonzero"/><path fill="#000000" d="m802.7179 459.91144q-1.359375 -1.703125 -2.296875 -4.0q-0.9375 -2.296875 -0.9375 -4.765625q0 -2.15625 0.703125 -4.140625q0.828125 -2.3125 2.53125 -4.59375l1.171875 0q-1.09375 1.890625 -1.453125 2.703125q-0.546875 1.25 -0.875 2.625q-0.390625 1.703125 -0.390625 3.421875q0 4.375 2.71875 8.75l-1.171875 0zm6.6658325 -5.390625l0.234375 1.453125q-0.6875 0.140625 -1.234375 0.140625q-0.890625 0 -1.390625 -0.28125q-0.484375 -0.28125 -0.6875 -0.734375q-0.203125 -0.46875 -0.203125 -1.9375l0 -5.578125l-1.203125 0l0 -1.265625l1.203125 0l0 -2.390625l1.625 -0.984375l0 3.375l1.65625 0l0 1.265625l-1.65625 0l0 5.671875q0 0.6875 0.078125 0.890625q0.09375 0.203125 0.28125 0.328125q0.203125 0.109375 0.578125 0.109375q0.265625 0 0.71875 -0.0625zm8.230164 -1.640625l1.6875 0.203125q-0.40625 1.484375 -1.484375 2.3125q-1.078125 0.8125 -2.765625 0.8125q-2.125 0 -3.375 -1.296875q-1.234375 -1.3125 -1.234375 -3.671875q0 -2.453125 1.25 -3.796875q1.265625 -1.34375 3.265625 -1.34375q1.9375 0 3.15625 1.328125q1.234375 1.3125 1.234375 3.703125q0 0.15625 0 0.4375l-7.21875 0q0.09375 1.59375 0.90625 2.453125q0.8125 0.84375 2.015625 0.84375q0.90625 0 1.546875 -0.46875q0.640625 -0.484375 1.015625 -1.515625zm-5.390625 -2.65625l5.40625 0q-0.109375 -1.21875 -0.625 -1.828125q-0.78125 -0.953125 -2.03125 -0.953125q-1.125 0 -1.90625 0.765625q-0.765625 0.75 -0.84375 2.015625zm9.125732 5.765625l0 -9.671875l1.46875 0l0 1.46875q0.5625 -1.03125 1.03125 -1.359375q0.484375 -0.328125 1.0625 -0.328125q0.828125 0 1.6875 0.53125l-0.5625 1.515625q-0.609375 -0.359375 -1.203125 -0.359375q-0.546875 0 -0.96875 0.328125q-0.421875 0.328125 -0.609375 0.890625q-0.28125 0.875 -0.28125 1.921875l0 5.0625l-1.625 0zm6.2282715 0l0 -9.671875l1.46875 0l0 1.359375q0.453125 -0.71875 1.203125 -1.140625q0.765625 -0.4375 1.71875 -0.4375q1.078125 0 1.765625 0.453125q0.6875 0.4375 0.96875 1.234375q1.15625 -1.6875 2.984375 -1.6875q1.453125 0 2.21875 0.796875q0.78125 0.796875 0.78125 2.453125l0 6.640625l-1.640625 0l0 -6.09375q0 -0.984375 -0.15625 -1.40625q-0.15625 -0.4375 -0.578125 -0.703125q-0.421875 -0.265625 -0.984375 -0.265625q-1.015625 0 -1.6875 0.6875q-0.671875 0.671875 -0.671875 2.15625l0 5.625l-1.640625 0l0 -6.28125q0 -1.09375 -0.40625 -1.640625q-0.40625 -0.546875 -1.3125 -0.546875q-0.6875 0 -1.28125 0.359375q-0.59375 0.359375 -0.859375 1.0625q-0.25 0.703125 -0.25 2.03125l0 5.015625l-1.640625 0zm15.5408325 -11.46875l0 -1.890625l1.640625 0l0 1.890625l-1.640625 0zm0 11.46875l0 -9.671875l1.640625 0l0 9.671875l-1.640625 0zm4.1447754 0l0 -9.671875l1.46875 0l0 1.375q1.0625 -1.59375 3.078125 -1.59375q0.875 0 1.609375 0.3125q0.734375 0.3125 1.09375 0.828125q0.375 0.5 0.515625 1.203125q0.09375 0.453125 0.09375 1.59375l0 5.953125l-1.640625 0l0 -5.890625q0 -1.0 -0.203125 -1.484375q-0.1875 -0.5 -0.671875 -0.796875q-0.484375 -0.296875 -1.140625 -0.296875q-1.046875 0 -1.8125 0.671875q-0.75 0.65625 -0.75 2.515625l0 5.28125l-1.640625 0zm16.688232 -1.1875q-0.921875 0.765625 -1.765625 1.09375q-0.828125 0.3125 -1.796875 0.3125q-1.59375 0 -2.453125 -0.78125q-0.859375 -0.78125 -0.859375 -1.984375q0 -0.71875 0.328125 -1.296875q0.328125 -0.59375 0.84375 -0.9375q0.53125 -0.359375 1.1875 -0.546875q0.46875 -0.125 1.453125 -0.25q1.984375 -0.234375 2.921875 -0.5625q0.015625 -0.34375 0.015625 -0.421875q0 -1.0 -0.46875 -1.421875q-0.625 -0.546875 -1.875 -0.546875q-1.15625 0 -1.703125 0.40625q-0.546875 0.40625 -0.8125 1.421875l-1.609375 -0.21875q0.21875 -1.015625 0.71875 -1.640625q0.5 -0.640625 1.453125 -0.984375q0.953125 -0.34375 2.1875 -0.34375q1.25 0 2.015625 0.296875q0.78125 0.28125 1.140625 0.734375q0.375 0.4375 0.515625 1.109375q0.078125 0.421875 0.078125 1.515625l0 2.1875q0 2.28125 0.109375 2.890625q0.109375 0.59375 0.40625 1.15625l-1.703125 0q-0.265625 -0.515625 -0.328125 -1.1875zm-0.140625 -3.671875q-0.890625 0.375 -2.671875 0.625q-1.015625 0.140625 -1.4375 0.328125q-0.421875 0.1875 -0.65625 0.53125q-0.21875 0.34375 -0.21875 0.78125q0 0.65625 0.5 1.09375q0.5 0.4375 1.453125 0.4375q0.9375 0 1.671875 -0.40625q0.75 -0.421875 1.09375 -1.140625q0.265625 -0.5625 0.265625 -1.640625l0 -0.609375zm7.7819824 3.390625l0.234375 1.453125q-0.6875 0.140625 -1.234375 0.140625q-0.890625 0 -1.390625 -0.28125q-0.484375 -0.28125 -0.6875 -0.734375q-0.203125 -0.46875 -0.203125 -1.9375l0 -5.578125l-1.203125 0l0 -1.265625l1.203125 0l0 -2.390625l1.625 -0.984375l0 3.375l1.65625 0l0 1.265625l-1.65625 0l0 5.671875q0 0.6875 0.078125 0.890625q0.09375 0.203125 0.28125 0.328125q0.203125 0.109375 0.578125 0.109375q0.265625 0 0.71875 -0.0625zm0.9957886 -3.375q0 -2.6875 1.484375 -3.96875q1.25 -1.078125 3.046875 -1.078125q2.0 0 3.265625 1.3125q1.265625 1.296875 1.265625 3.609375q0 1.859375 -0.5625 2.9375q-0.5625 1.0625 -1.640625 1.65625q-1.0625 0.59375 -2.328125 0.59375q-2.03125 0 -3.28125 -1.296875q-1.25 -1.3125 -1.25 -3.765625zm1.6875 0q0 1.859375 0.796875 2.796875q0.8125 0.921875 2.046875 0.921875q1.21875 0 2.03125 -0.921875q0.8125 -0.9375 0.8125 -2.84375q0 -1.796875 -0.8125 -2.71875q-0.8125 -0.921875 -2.03125 -0.921875q-1.234375 0 -2.046875 0.921875q-0.796875 0.90625 -0.796875 2.765625zm9.281982 4.84375l0 -9.671875l1.46875 0l0 1.46875q0.5625 -1.03125 1.03125 -1.359375q0.484375 -0.328125 1.0625 -0.328125q0.828125 0 1.6875 0.53125l-0.5625 1.515625q-0.609375 -0.359375 -1.203125 -0.359375q-0.546875 0 -0.96875 0.328125q-0.421875 0.328125 -0.609375 0.890625q-0.28125 0.875 -0.28125 1.921875l0 5.0625l-1.625 0zm7.3063965 3.921875l-1.1875 0q2.734375 -4.375 2.734375 -8.75q0 -1.71875 -0.390625 -3.390625q-0.3125 -1.375 -0.875 -2.625q-0.359375 -0.828125 -1.46875 -2.734375l1.1875 0q1.703125 2.28125 2.53125 4.59375q0.6875 1.984375 0.6875 4.140625q0 2.46875 -0.9375 4.765625q-0.9375 2.296875 -2.28125 4.0z" fill-rule="nonzero"/><path fill="#cfe2f3" d="m473.17047 386.59982l18.686218 0l0 -8.086975l-2.0217285 0l4.0434875 -4.043518l4.0434875 4.043518l-2.0217285 0l0 12.130463l-22.729736 0z" fill-rule="evenodd"/><path stroke="#000000" stroke-width="1.0" stroke-linejoin="round" stroke-linecap="butt" d="m473.17047 386.59982l18.686218 0l0 -8.086975l-2.0217285 0l4.0434875 -4.043518l4.0434875 4.043518l-2.0217285 0l0 12.130463l-22.729736 0z" fill-rule="evenodd"/><path fill="#cfe2f3" d="m591.50226 386.59982l18.686218 0l0 -8.086975l-2.0217285 0l4.043518 -4.043518l4.043457 4.043518l-2.0217285 0l0 12.130463l-22.729736 0z" fill-rule="evenodd"/><path stroke="#000000" stroke-width="1.0" stroke-linejoin="round" stroke-linecap="butt" d="m591.50226 386.59982l18.686218 0l0 -8.086975l-2.0217285 0l4.043518 -4.043518l4.043457 4.043518l-2.0217285 0l0 12.130463l-22.729736 0z" fill-rule="evenodd"/><path fill="#cfe2f3" d="m707.96936 386.59982l18.686218 0l0 -8.086975l-2.0217285 0l4.043457 -4.043518l4.043518 4.043518l-2.0217285 0l0 12.130463l-22.729736 0z" fill-rule="evenodd"/><path stroke="#000000" stroke-width="1.0" stroke-linejoin="round" stroke-linecap="butt" d="m707.96936 386.59982l18.686218 0l0 -8.086975l-2.0217285 0l4.043457 -4.043518l4.043518 4.043518l-2.0217285 0l0 12.130463l-22.729736 0z" fill-rule="evenodd"/><path fill="#cfe2f3" d="m396.0061 374.46933l0 10.757141l8.043304 0l0 -2.0108337l4.021637 4.0216675l-4.021637 4.021637l0 -2.0108337l-12.064972 0l0 -14.778778z" fill-rule="evenodd"/><path stroke="#000000" stroke-width="1.0" stroke-linejoin="round" stroke-linecap="butt" d="m396.0061 374.46933l0 10.757141l8.043304 0l0 -2.0108337l4.021637 4.0216675l-4.021637 4.021637l0 -2.0108337l-12.064972 0l0 -14.778778z" fill-rule="evenodd"/><path fill="#cfe2f3" d="m509.54004 374.46933l0 10.757141l8.043335 0l0 -2.0108337l4.0216064 4.0216675l-4.0216064 4.021637l0 -2.0108337l-12.064972 0l0 -14.778778z" fill-rule="evenodd"/><path stroke="#000000" stroke-width="1.0" stroke-linejoin="round" stroke-linecap="butt" d="m509.54004 374.46933l0 10.757141l8.043335 0l0 -2.0108337l4.0216064 4.0216675l-4.0216064 4.021637l0 -2.0108337l-12.064972 0l0 -14.778778z" fill-rule="evenodd"/><path fill="#cfe2f3" d="m627.895 374.46933l0 10.757141l8.043335 0l0 -2.0108337l4.0216064 4.0216675l-4.0216064 4.021637l0 -2.0108337l-12.065002 0l0 -14.778778z" fill-rule="evenodd"/><path stroke="#000000" stroke-width="1.0" stroke-linejoin="round" stroke-linecap="butt" d="m627.895 374.46933l0 10.757141l8.043335 0l0 -2.0108337l4.0216064 4.0216675l-4.0216064 4.021637l0 -2.0108337l-12.065002 0l0 -14.778778z" fill-rule="evenodd"/><path fill="#cfe2f3" d="m387.16342 350.2006l16.086609 0l0 16.17398l-16.086609 0z" fill-rule="evenodd"/><path stroke="#000000" stroke-width="1.0" stroke-linejoin="round" stroke-linecap="butt" d="m387.16342 350.2006l16.086609 0l0 16.17398l-16.086609 0z" fill-rule="evenodd"/><path fill="#cfe2f3" d="m387.16342 337.16702l4.021637 0l0 -8.746277l8.043304 0l0 8.746277l4.0216675 0l-8.043304 8.043304z" fill-rule="evenodd"/><path stroke="#000000" stroke-width="1.0" stroke-linejoin="round" stroke-linecap="butt" d="m387.16342 337.16702l4.021637 0l0 -8.746277l8.043304 0l0 8.746277l4.0216675 0l-8.043304 8.043304z" fill-rule="evenodd"/><path fill="#000000" fill-opacity="0.0" d="m448.90295 499.00165l228.38525 0l0 26.135803l-228.38525 0z" fill-rule="evenodd"/><path fill="#000000" d="m515.32996 523.36163l5.546875 -11.09375l5.546875 11.09375l-11.09375 0z" fill-rule="nonzero"/><path fill="#000000" d="m543.4862 514.29913q0.5 -1.0 0.8125 -1.875l1.0 0.1875q0.5625 0.125 0 0.3125q-0.25 0.5 -0.6875 1.375l2.875 0l0 1.0l-2.75 0l0 1.0l2.0 0l0 1.0l-2.0 0l0 1.0l2.0 0l0 1.0l-2.0 0l0 1.3125l3.25 0l0 1.0l-6.3125 0l0 0.75l-1.25 0l0 -6.25q-0.375 0.375 -0.8125 0.75l-0.6875 -0.8125q1.6875 -1.4375 2.5 -3.6875l1.0 0.125q0.625 0.125 0 0.3125q-0.375 0.875 -0.75 1.5l1.8125 0zm4.875 8.6875l0 1.1875l-12.5625 0l0 0.5625l-1.25 0l0 -13.8749695l13.3125 0l0 1.1874695l-12.0625 0l0 10.9375l12.5625 0zm-9.625 -8.1875q-0.8125 -0.625 -1.5625 -1.125l0.5625 -0.75q0.8125 0.375 1.5625 1.0625l-0.5625 0.8125zm2.9375 1.5l1.8125 0l0 -1.0l-1.8125 0l0 1.0zm1.8125 2.0l0 -1.0l-1.8125 0l0 1.0l1.8125 0zm0 2.3125l0 -1.3125l-1.8125 0l0 1.3125l1.8125 0zm-6.375 -5.0q1.0625 0.5 1.6875 1.0625l-0.5625 0.8125q-0.75 -0.5625 -1.6875 -1.0625l0.5625 -0.8125zm2.5 3.375q-1.25 1.9375 -2.0 2.875q0.125 0.6875 -0.4375 0.125l-0.6875 -0.75q1.1875 -1.3125 2.25 -2.9375l0.875 0.6875zm12.9375 -5.0q-0.875 -0.9375 -1.9375 -1.6875l0.9375 -1.1249695q1.125 0.6875 1.9375 1.6249695l-0.9375 1.1875zm6.8125 -1.875l4.625 0l0 1.1875l-5.25 0l-1.4375 2.375l3.6875 -0.1875l-1.375 -1.0625l1.0 -0.625q2.0625 1.1875 3.5 2.8125l-1.0625 0.875l-1.0 -1.0l-7.4375 0.5625q-0.0625 0.4375 -0.3125 0.1875l-0.4375 -1.4375l2.125 -0.0625l1.125 -2.4375l-3.25 0l0 -1.1875l4.0625 0l0 -1.6874695l1.375 0q0.625 0.125 0.0625 0.5l0 1.1874695zm-9.3125 11.4375q1.3125 -2.125 2.3125 -4.6875l1.125 0.75q-1.0 2.875 -2.0625 4.625q0.125 0.375 -0.1875 0.3125l-1.1875 -1.0zm2.375 -5.9375q-0.9375 -0.75 -2.0625 -1.5625l0.8125 -1.1875q1.3125 0.8125 2.125 1.5l-0.875 1.25zm6.75 6.1875l-1.25 0l0 -5.9375l1.1875 0q0.5 0.0625 0.0625 0.375l0 5.5625zm1.5 -6.0625l1.1875 0q0.5 0.0625 0.0625 0.375l0 4.6875q0 0.5 0.4375 0.5l0.375 0q0.3125 0 0.375 -0.4375l0.125 -1.0l1.25 0.3125q-0.0625 0.8125 -0.25 1.5625q-0.1875 0.75 -0.9375 0.75l-1.625 0q-1.0 0 -1.0 -1.0625l0 -5.6875zm-4.3125 3.0q0 2.625 -2.8125 4.0625l-0.875 -1.0625q2.4375 -1.25 2.4375 -3.25l0 -2.6875l1.1875 0q0.5 0.0625 0.0625 0.375l0 2.5625zm14.1875 3.0q3.125 -1.25 3.125 -3.5625l-2.5 0.875q-0.0625 0.4375 -0.3125 0.1875l-0.3125 -1.3125l3.1875 -0.8125l0 -1.5625l-2.1875 0l0 -1.1875l2.1875 0l0 -2.0l-2.4375 0l0 -1.1875l2.4375 0l0 -2.4999695l1.1875 0q0.5 0.0625 0.0625 0.375l0 8.9374695q0 3.3125 -3.8125 5.0l-0.625 -1.25zm6.625 -13.0624695q0.5 0.0625 0.0625 0.375l0 2.1249695l2.6875 0l0 1.1875l-2.6875 0l0 2.0l2.3125 0l0 1.1875l-2.3125 0l0 2.0l3.0625 0l0 1.1875l-3.0625 0l0 3.6875l-1.25 0l0 -13.7499695l1.1875 0zm-6.25 6.7499695l0.25 1.0l-1.75 0.5l0 4.625q0 1.0625 -1.0 1.0625l-1.125 0l-0.1875 -1.1875l0.875 0q0.1875 0 0.1875 -0.1875l0 -4.0l-1.4375 0.3125q-0.0625 0.5 -0.3125 0.25l-0.3125 -1.5l2.0625 -0.375l0 -3.0625l-1.6875 0l0 -1.1875l1.6875 0l0 -3.1874695l1.1875 0q0.5 0.0625 0.0625 0.375l0 2.8124695l1.25 0l0 1.1875l-1.25 0l0 2.875l1.5 -0.3125zm11.0625 5.25q0.5 -1.4375 0.75 -3.4375l1.125 0.25q0.1875 0.1875 -0.125 0.375q-0.25 1.9375 -0.6875 3.3125l-1.0625 -0.5zm2.4375 -5.5625l1.9375 -0.125l-0.5 -1.0625l0.9375 -0.4375q0.625 1.0 1.125 2.375l0 -6.8749695l7.9375 0l0 12.6249695q0 0.9375 -0.8125 0.9375l-1.1875 0l-0.25 -1.0l1.0 0q0.1875 0 0.1875 -0.1875l0 -4.625l-3.4375 0l0 1.75q0 0.375 0.375 0.375l2.1875 0l0 1.0l-2.5 0q-1.125 0 -1.125 -1.125l0 -2.0l-1.3125 0l0 6.0l-1.0625 0l0 -6.5625l-0.9375 0.4375l-0.25 -0.625l-1.1875 0.125l0 6.5625l-1.0625 0l0 -6.4375l-2.0 0.1875q-0.1875 0.5625 -0.3125 0.1875l-0.1875 -1.4375l1.0625 0l1.0625 -1.4375q-1.0625 -1.1875 -2.0625 -2.0625l0.75 -0.8125l0.5625 0.5625l1.5 -2.9374695l1.0625 0.625q0.3125 0.25 -0.25 0.3125l-1.5625 2.7499695l0.625 0.625l1.5625 -2.5l1.0 0.6875q0.3125 0.25 -0.25 0.3125l-2.625 3.8125zm7.8125 -1.8125l0.875 -2.75l1.1875 0.3125q0.4375 0.125 -0.1875 0.3125l-0.9375 2.125l1.625 0l0 -3.3124695l-5.8125 0l0 3.3124695l3.25 0zm-5.25 3.8125q0.5625 1.3125 0.75 3.0l-1.0625 0.4375q-0.1875 -1.75 -0.625 -3.125l0.9375 -0.3125zm3.75 -6.5q0.5625 0.6875 1.0625 1.9375l-1.0 0.4375q-0.4375 -1.25 -1.0 -2.0l0.9375 -0.375zm-1.75 5.125l2.375 0l0 -1.4375l-2.375 0l0 1.4375zm5.8125 0l0 -1.4375l-2.375 0l0 1.4375l2.375 0zm15.125 5.0625l0 -2.8125l-3.125 0l0 2.8125l3.125 0zm1.25 1.6875l-1.25 0l0 -0.6875l-3.125 0l0 0.875l-1.25 0l0 -5.6875l5.625 0l0 5.5zm-4.4375 -11.625q0.3125 0.875 1.5625 2.25q1.125 -1.5 1.4375 -2.25l-3.0 0zm1.5625 4.0q-2.1875 2.0 -4.0625 2.6875l-0.5625 -1.25q1.75 -0.5625 3.8125 -2.375q-0.5 -0.5 -1.3125 -1.8125q-0.625 1.4375 -1.25 2.0625l-0.9375 -0.9375q1.5 -2.0 2.3125 -4.9999695l1.3125 0.375q0.25 0.25 -0.1875 0.3125l-0.3125 0.75l3.1875 0l0.1875 -0.3125l1.0 0.8124695q0.25 0.1875 -0.25 0.375q-0.875 2.0 -2.0625 3.375q2.125 1.625 3.625 2.125l-0.5 1.375q-1.5 -0.5 -4.0 -2.5625zm-4.5625 -5.6249695l0 4.6249695l-1.5625 0l0 2.3125l1.4375 0l0 1.1875l-1.4375 0l0 2.875l2.1875 -0.6875l0.25 1.125l-5.75 1.625q-0.0625 0.5 -0.3125 0.25l-0.5 -1.375l0.75 -0.125l0 -5.8125l1.1875 0q0.5 0.0625 0.0625 0.375l0 5.125l0.875 -0.1875l0 -6.6875l-1.125 0l-1.0625 0l0 -4.6249695l5.0 0zm-1.25 3.6249695l0 -2.625l-2.5 0l0 2.625l2.5 0z" fill-rule="nonzero"/><path fill="#000000" fill-opacity="0.0" d="m773.0066 351.69174l69.6344 0l0 40.444275l-69.6344 0z" fill-rule="evenodd"/><path fill="#ff0000" d="m786.8106 386.29172l0 -19.078125l7.15625 0q2.1875 0 3.5 0.578125q1.328125 0.578125 2.078125 1.78125q0.75 1.203125 0.75 2.515625q0 1.21875 -0.671875 2.3125q-0.65625 1.078125 -2.0 1.734375q1.734375 0.515625 2.65625 1.734375q0.9375 1.21875 0.9375 2.890625q0 1.34375 -0.5625 2.5q-0.5625 1.140625 -1.40625 1.765625q-0.828125 0.625 -2.09375 0.953125q-1.25 0.3125 -3.0625 0.3125l-7.28125 0zm2.53125 -11.0625l4.125 0q1.671875 0 2.40625 -0.21875q0.953125 -0.296875 1.4375 -0.953125q0.5 -0.671875 0.5 -1.671875q0 -0.9375 -0.453125 -1.65625q-0.453125 -0.734375 -1.3125 -1.0q-0.84375 -0.265625 -2.890625 -0.265625l-3.8125 0l0 5.765625zm0 8.8125l4.75 0q1.21875 0 1.71875 -0.09375q0.859375 -0.15625 1.4375 -0.515625q0.59375 -0.375 0.96875 -1.0625q0.390625 -0.703125 0.390625 -1.609375q0 -1.0625 -0.546875 -1.84375q-0.546875 -0.796875 -1.515625 -1.109375q-0.96875 -0.328125 -2.796875 -0.328125l-4.40625 0l0 6.5625zm24.107605 2.25l0 -2.03125q-1.609375 2.34375 -4.375 2.34375q-1.234375 0 -2.296875 -0.46875q-1.0625 -0.46875 -1.578125 -1.171875q-0.5 -0.71875 -0.71875 -1.75q-0.140625 -0.6875 -0.140625 -2.1875l0 -8.5625l2.34375 0l0 7.671875q0 1.828125 0.140625 2.46875q0.21875 0.921875 0.9375 1.453125q0.71875 0.53125 1.765625 0.53125q1.0625 0 1.984375 -0.53125q0.921875 -0.546875 1.296875 -1.46875q0.390625 -0.9375 0.390625 -2.71875l0 -7.40625l2.34375 0l0 13.828125l-2.09375 0zm4.824951 -4.125l2.328125 -0.359375q0.1875 1.390625 1.078125 2.140625q0.890625 0.734375 2.5 0.734375q1.609375 0 2.390625 -0.65625q0.78125 -0.65625 0.78125 -1.546875q0 -0.796875 -0.6875 -1.25q-0.484375 -0.3125 -2.390625 -0.796875q-2.578125 -0.65625 -3.578125 -1.125q-1.0 -0.46875 -1.515625 -1.3125q-0.515625 -0.84375 -0.515625 -1.859375q0 -0.921875 0.421875 -1.703125q0.4375 -0.796875 1.15625 -1.3125q0.546875 -0.40625 1.484375 -0.6875q0.953125 -0.28125 2.03125 -0.28125q1.625 0 2.859375 0.46875q1.234375 0.46875 1.8125 1.28125q0.59375 0.796875 0.8125 2.140625l-2.296875 0.3125q-0.15625 -1.078125 -0.90625 -1.671875q-0.75 -0.59375 -2.109375 -0.59375q-1.609375 0 -2.3125 0.53125q-0.6875 0.53125 -0.6875 1.25q0 0.453125 0.296875 0.8125q0.28125 0.375 0.890625 0.625q0.359375 0.140625 2.078125 0.609375q2.484375 0.65625 3.46875 1.078125q0.984375 0.421875 1.53125 1.234375q0.5625 0.796875 0.5625 2.0q0 1.171875 -0.6875 2.21875q-0.671875 1.03125 -1.96875 1.59375q-1.28125 0.5625 -2.90625 0.5625q-2.703125 0 -4.125 -1.109375q-1.40625 -1.125 -1.796875 -3.328125z" fill-rule="nonzero"/><path fill="#ff00ff" d="m429.68246 389.1928l5.379608 -5.1780396l5.558716 5.7750854l5.558716 -5.7750854l5.379608 5.1780396l-5.7565002 5.980591l5.7565002 5.980591l-5.379608 5.17807l-5.558716 -5.775116l-5.558716 5.775116l-5.379608 -5.17807l5.7565002 -5.980591z" fill-rule="evenodd"/><path stroke="#000000" stroke-width="1.0" stroke-linejoin="round" stroke-linecap="butt" d="m429.68246 389.1928l5.379608 -5.1780396l5.558716 5.7750854l5.558716 -5.7750854l5.379608 5.1780396l-5.7565002 5.980591l5.7565002 5.980591l-5.379608 5.17807l-5.558716 -5.775116l-5.558716 5.775116l-5.379608 -5.17807l5.7565002 -5.980591z" fill-rule="evenodd"/><path fill="#000000" fill-opacity="0.0" d="m440.9628 402.4707l0 75.29584l-29.090088 0" fill-rule="evenodd"/><path stroke="#ff00ff" stroke-width="2.0" stroke-linejoin="round" stroke-linecap="butt" stroke-dasharray="8.0,6.0" d="m440.9628 402.47073l0 75.29581l-22.235931 0" fill-rule="evenodd"/><path fill="#ff00ff" stroke="#ff00ff" stroke-width="2.0" stroke-linecap="butt" d="m418.72687 477.76654l2.249176 -2.249176l-6.179535 2.249176l6.179535 2.2491455z" fill-rule="evenodd"/><path fill="#000000" fill-opacity="0.0" d="m293.04068 453.1342l123.66461 0l0 56.002655l-123.66461 0z" fill-rule="evenodd"/><path fill="#ff00ff" d="m309.6188 471.28857l0.65625 -2.078125l1.71875 0.296875q0.296875 0.375 -0.296875 0.453125l-0.53125 1.328125l8.46875 0l0 1.421875l-8.984375 0q-0.671875 1.1875 -1.265625 2.0l7.953125 0l0 6.75l-1.484375 0l0 -0.734375l-6.828125 0l0 0.96875l-1.484375 0l0 -4.828125q-1.71875 1.484375 -3.71875 2.4375l-0.59375 -1.546875q4.015625 -1.78125 5.71875 -5.046875l-5.5 0l0 -1.421875l6.171875 0zm5.34375 -6.453125q0.59375 0.078125 0.0625 0.453125l0 1.484375l4.390625 0l0 1.40625l-4.390625 0l0 1.859375l-1.484375 0l0 -1.859375l-4.21875 0l0 1.859375l-1.484375 0l0 -1.859375l-4.453125 0l0 -1.40625l4.453125 0l0 -1.9375l1.40625 0q0.59375 0.078125 0.078125 0.453125l0 1.484375l4.21875 0l0 -1.9375l1.421875 0zm-5.9375 11.28125l0 3.1875l6.828125 0l0 -3.1875l-6.828125 0zm20.703125 -1.484375l0 -4.828125l-4.828125 0l0 4.828125l4.828125 0zm0 -9.640625l1.40625 0q0.59375 0.0625 0.078125 0.4375l0 2.96875l6.453125 0l0 8.171875l-1.484375 0l0 -0.53125l-4.96875 0l0 5.578125l-1.484375 0l0 -5.578125l-4.828125 0l0 0.96875l-1.484375 0l0 -8.609375l6.3125 0l0 -3.40625zm6.453125 9.640625l0 -4.828125l-4.96875 0l0 4.828125l4.96875 0zm19.21875 5.5q0.296875 0 0.296875 -0.296875l0 -8.546875l-2.671875 0l-2.671875 0l0 -5.9375l6.828125 0l0 15.0q0 1.1875 -1.1875 1.1875l-1.484375 0l-0.140625 -1.40625l1.03125 0zm-3.921875 -3.5625l-3.9375 0l0 1.484375l3.9375 0l0 -1.484375zm0 -2.828125l-3.9375 0l0 1.640625l3.9375 0l0 -1.640625zm1.484375 -1.1875l0 7.28125l-1.484375 0l0 -0.59375l-3.9375 0l0 1.1875l-1.484375 0l0 -7.875l6.90625 0zm2.734375 -4.828125l0 -1.1875l-3.859375 0l0 1.1875l3.859375 0zm0 1.1875l-3.859375 0l0 1.1875l3.859375 0l0 -1.1875zm-8.75 0l-3.78125 0l0 1.1875l3.78125 0l0 -1.1875zm0 -1.1875l0 -1.1875l-3.78125 0l0 1.1875l3.78125 0zm1.484375 3.5625l-5.265625 0l0 10.328125l-1.484375 0l0 -16.265625l6.75 0l0 5.9375zm25.609375 10.171875l0 -9.5l-1.9375 0l0 4.15625q0 3.640625 -2.0 5.578125l-0.96875 -0.96875l-7.421875 0l0 0.671875l-1.265625 0l0 -16.265625l1.1875 0q0.59375 0.078125 0.078125 0.453125l0 5.9375l8.171875 0l0 1.1875l-8.171875 0l0 6.828125l8.015625 0q0.21875 -0.375 0.59375 -0.96875l-0.8125 0.296875l-0.21875 -0.671875l-2.90625 0.453125l0.15625 0.359375l-0.96875 0.234375l-0.21875 -0.75l-2.53125 0.296875q-0.359375 0.453125 -0.4375 0l-0.21875 -0.96875l0.65625 -0.0625l0.75 -1.1875l-1.265625 -1.125l1.484375 -2.375l0.8125 0.296875q0.53125 0.296875 -0.0625 0.375l-0.96875 1.484375l0.515625 0.453125l1.046875 -1.640625l0.8125 0.296875q0.515625 0.296875 -0.078125 0.375l-1.859375 3.046875l1.125 -0.078125l-0.296875 -0.96875l0.953125 -0.21875l0.453125 1.1875l0.296875 0l0.8125 -1.265625l-1.328125 -1.03125l1.25 -2.3125l0.828125 0.234375q0.59375 0.296875 0 0.359375l-0.96875 1.484375l0.59375 0.53125l0.96875 -1.640625l0.8125 0.296875q0.515625 0.296875 -0.078125 0.375l-1.703125 2.890625l1.328125 -0.140625l-0.359375 -0.96875l0.953125 -0.296875l0.75 1.859375q0.21875 -0.828125 0.21875 -2.3125l0 -10.09375l1.265625 0.296875q2.078125 -0.296875 3.78125 -0.890625l0.75 0.890625q0.65625 0.59375 -0.375 0.453125q-1.640625 0.4375 -3.9375 0.734375l0 3.421875l5.046875 0l0 1.40625l-1.625 0l0 9.5l-1.484375 0zm-4.984375 -11.28125l-2.734375 0.296875l0.0625 0.375l-0.890625 0.21875l-0.21875 -0.734375l-2.515625 0.296875q-0.375 0.4375 -0.453125 0l-0.21875 -0.96875l0.734375 -0.078125l0.671875 -1.109375l-1.328125 -1.046875l1.546875 -2.4375l0.828125 0.296875q0.515625 0.296875 -0.078125 0.359375l-1.046875 1.5625l0.53125 0.453125l1.109375 -1.71875l0.8125 0.296875q0.515625 0.296875 -0.078125 0.375l-1.84375 2.96875l1.1875 -0.078125l-0.296875 -0.953125l0.890625 -0.234375l0.359375 1.1875l0.375 0l0.890625 -1.1875l-1.328125 -0.890625l1.40625 -2.375l0.734375 0.234375q0.59375 0.296875 0 0.359375l-1.03125 1.5625l0.59375 0.453125l1.03125 -1.640625l0.828125 0.296875q0.515625 0.296875 -0.078125 0.375l-1.859375 2.8125l1.1875 -0.0625l-0.375 -0.96875l0.890625 -0.296875l0.890625 2.296875l-0.953125 0.375l-0.234375 -0.671875zm22.203125 -3.640625l3.5625 0l0 6.53125l-3.265625 0l0 0.890625q0 0.53125 0.8125 1.859375l2.296875 -2.296875l1.046875 1.1875q0.0625 0.375 -0.375 0.21875l-2.296875 1.78125q1.1875 1.5625 3.1875 2.828125l-0.8125 1.484375q-2.3125 -1.484375 -3.859375 -4.234375l0 3.71875q0 1.109375 -0.890625 1.109375l-1.421875 0l-0.296875 -1.1875l1.046875 0q0.296875 0 0.296875 -0.296875l0 -7.0625l-1.640625 0l-1.546875 0l0 -6.53125l2.8125 0l0.453125 -2.0l1.546875 0.296875q0.59375 0.21875 -0.0625 0.453125l-0.59375 1.25zm-1.484375 8.390625l-0.15625 0.375q-0.078125 4.15625 -3.265625 5.9375l-0.96875 -1.109375q2.671875 -1.640625 2.828125 -4.3125l-1.9375 0l0 -1.1875l2.15625 0l0.21875 -0.21875l1.125 0.515625zm-6.234375 -9.046875q-1.5625 2.515625 -2.078125 3.265625l0.953125 0.8125l2.015625 -3.125l1.1875 0.828125q0.296875 0.296875 -0.234375 0.359375q-2.0 2.96875 -3.265625 4.453125l2.453125 -0.21875l-0.515625 -1.03125l1.109375 -0.59375q1.109375 1.40625 1.640625 3.03125l-1.34375 0.59375l-0.375 -0.8125l-1.546875 0.21875l0 8.171875l-1.484375 0l0 -8.015625l-2.453125 0.140625q-0.375 0.453125 -0.453125 -0.296875l-0.140625 -1.109375l1.484375 0l1.03125 -1.40625l-2.296875 -1.859375l0.75 -1.109375l0.359375 0.21875q1.484375 -2.296875 2.078125 -3.5625l1.34375 0.671875q0.296875 0.296875 -0.21875 0.375zm-4.15625 13.796875q0.59375 -2.8125 0.59375 -4.453125l1.328125 0.15625q0.59375 0.140625 0.078125 0.359375q0 2.453125 -0.59375 4.6875l-1.40625 -0.75zm8.96875 -10.46875l5.203125 0l0 -1.484375l-5.203125 0l0 1.484375zm5.203125 2.671875l0 -1.484375l-5.203125 0l0 1.484375l5.203125 0zm-8.171875 3.265625q0.53125 1.125 0.75 3.125l-1.40625 0.296875q-0.078125 -1.265625 -0.59375 -3.125l1.25 -0.296875z" fill-rule="nonzero"/><path fill="#ff00ff" d="m309.54068 499.60107q2.0 1.046875 3.40625 2.53125l-1.03125 1.1875q-1.5625 -1.5625 -3.265625 -2.671875l0.890625 -1.046875zm-6.453125 2.828125q1.921875 -1.125 3.625 -2.90625l1.125 1.125q0.359375 0.359375 -0.375 0.359375q-1.640625 1.5 -3.5625 2.6875l-0.8125 -1.265625zm8.75 -2.90625l-1.484375 0l0 -0.4375l-4.296875 0l0 0.59375l-1.484375 0l0 -12.03125l7.265625 0l0 11.875zm-1.484375 -8.53125l0 -1.921875l-4.296875 0l0 1.921875l4.296875 0zm0 3.34375l0 -1.9375l-4.296875 0l0 1.9375l4.296875 0zm0 3.34375l0 -1.9375l-4.296875 0l0 1.9375l4.296875 0zm4.828125 -9.140625q0.59375 0.078125 0.078125 0.453125l0 10.390625l-1.484375 0l0 -10.84375l1.40625 0zm3.78125 -1.546875q0.59375 0.0625 0.078125 0.4375l0 14.84375q0 1.1875 -1.1875 1.1875l-1.859375 0l-0.21875 -1.40625l1.484375 0q0.296875 0 0.296875 -0.296875l0 -14.765625l1.40625 0zm14.25 3.109375q0.515625 1.5625 1.5625 2.75q0.734375 -0.890625 1.1875 -2.75l-2.75 0zm0.453125 -1.1875l4.890625 0l0 1.1875l-1.265625 0q-0.359375 2.296875 -1.40625 3.640625q1.046875 0.890625 3.265625 1.328125l-0.4375 1.484375q-2.375 -0.65625 -3.796875 -1.84375q-1.78125 1.328125 -4.21875 1.921875l-0.59375 -1.328125q2.375 -0.59375 3.703125 -1.5625q-1.03125 -1.484375 -1.484375 -2.75q-0.375 0.890625 -1.109375 1.703125l-0.75 -1.03125q1.78125 -2.0 2.375 -5.046875l1.484375 0.4375q0.296875 0.296875 -0.21875 0.375l-0.4375 1.484375zm-3.9375 6.609375q-1.5625 -1.046875 -2.078125 -1.265625l0 2.296875l-1.265625 0l0 -2.296875q-1.265625 1.34375 -3.5625 2.375l-0.671875 -1.40625q2.234375 -0.8125 3.9375 -2.15625l-2.59375 0l0 -3.1875l2.890625 0l0 -0.890625l-3.859375 0l0 -1.1875l3.859375 0l0 -1.1875l1.1875 0q0.59375 0.078125 0.078125 0.4375l0 0.75l3.703125 0l0 1.1875l-3.703125 0l0 0.890625l2.75 0l0 3.1875l-2.75 0q1.328125 0.375 2.8125 1.265625l-0.734375 1.1875zm-3.34375 -3.34375l0 -1.40625l-1.859375 0l0 1.40625l1.859375 0zm2.96875 0l0 -1.40625l-1.703125 0l0 1.40625l1.703125 0zm2.078125 7.34375l4.671875 0l0 1.1875l-4.671875 0l0 1.421875l7.046875 0l0 1.1875l-16.03125 0l0 -1.1875l3.34375 0l0 -2.96875l1.1875 0q0.59375 0.0625 0.078125 0.4375l0 2.53125l3.109375 0l0 -3.796875l-6.671875 0l0 -1.1875l14.03125 0l0 1.1875l-6.09375 0l0 1.1875zm16.03125 -5.40625q3.046875 -0.828125 4.015625 -1.640625q-0.96875 -0.96875 -1.71875 -2.15625q-0.734375 0.96875 -1.484375 1.71875l-0.890625 -0.96875q2.234375 -2.375 2.96875 -4.53125l1.1875 0.15625q0.53125 0.0625 0 0.4375l-0.65625 1.34375l6.671875 0l0 1.1875l-1.859375 0q-1.03125 1.78125 -2.21875 2.734375q0.96875 0.671875 4.15625 1.265625l-0.453125 1.40625q-3.265625 -0.8125 -4.75 -1.84375q-1.484375 1.1875 -4.15625 2.0l-0.8125 -1.109375zm-0.375 7.421875q2.96875 -1.78125 4.453125 -4.015625l-3.625 0l0 -1.40625l3.859375 0l0 -1.703125l1.40625 0q0.59375 0.0625 0.078125 0.4375l0 1.265625l4.375 0l0 1.40625l-4.234375 0q1.9375 2.296875 4.828125 3.484375l-0.890625 1.421875q-2.453125 -1.421875 -4.078125 -3.34375l0 4.453125l-1.484375 0l0 -4.3125q-1.421875 2.078125 -3.796875 3.5l-0.890625 -1.1875zm0 -0.75l-1.484375 0l0 -11.203125l1.421875 0q0.59375 0.078125 0.0625 0.4375l0 10.765625zm-4.15625 -6.609375q-0.515625 0.890625 -1.25 1.859375l-0.96875 -1.1875q2.671875 -3.703125 3.5625 -8.15625l1.265625 0.296875q0.59375 0.140625 0.0625 0.4375q-0.59375 2.234375 -1.40625 4.078125q0.8125 0.078125 0.21875 0.59375l0 11.515625l-1.484375 0l0 -9.4375zm9.5 -2.4375q0.96875 -0.828125 1.640625 -2.078125l-3.34375 0q0.453125 1.03125 1.703125 2.078125zm23.015625 6.828125q-2.453125 -2.75 -5.203125 -4.390625l1.046875 -1.328125q2.890625 1.484375 5.484375 4.296875l-1.328125 1.421875zm-14.625 -10.390625l15.59375 0l0 1.625l-6.46875 0q-0.21875 0.75 -0.65625 1.5625l0 12.03125l-1.71875 0l0 -9.515625q-2.515625 3.203125 -6.375 4.90625l-1.046875 -1.703125q5.5 -2.3125 7.953125 -7.28125l-7.28125 0l0 -1.625zm25.75 15.21875q-2.296875 0 -4.21875 -1.796875q-0.890625 1.046875 -2.75 2.09375l-0.59375 -1.859375q0.8125 -0.234375 2.515625 -1.34375l0 -4.828125l-2.296875 0l0 -1.40625l3.78125 0l0 6.15625q1.484375 1.34375 3.859375 1.34375l9.203125 0l-0.296875 1.640625l-9.203125 0zm1.046875 -14.40625q1.859375 0.4375 2.375 0.671875l1.40625 -1.046875l-6.828125 0l0 -1.40625l8.46875 0l0.359375 -0.21875l1.125 0.8125q0.4375 0.375 -0.375 0.4375l-2.890625 1.9375l0.953125 0.4375l-0.890625 0.890625l3.34375 0l0 8.46875q0 1.03125 -1.03125 1.03125l-1.640625 0l-0.078125 -1.40625l0.96875 0q0.296875 0 0.296875 -0.296875l0 -1.40625l-2.8125 0l0 2.890625l-1.484375 0l0 -2.890625l-2.671875 0l0 3.1875l-1.484375 0l0 -9.578125l5.484375 0q-3.109375 -1.25 -3.703125 -1.40625l1.109375 -1.109375zm2.75 3.703125l0 1.421875l2.8125 0l0 -1.421875l-2.8125 0zm-4.15625 0l0 1.421875l2.671875 0l0 -1.421875l-2.671875 0zm2.671875 2.609375l-2.671875 0l0 1.40625l2.671875 0l0 -1.40625zm4.296875 0l-2.8125 0l0 1.40625l2.8125 0l0 -1.40625zm-12.09375 -8.25q2.0 1.265625 2.75 2.453125l-1.265625 1.34375q-1.1875 -1.484375 -2.53125 -2.53125l1.046875 -1.265625z" fill-rule="nonzero"/><path fill="#000000" fill-opacity="0.0" d="m581.5907 440.04987l195.61835 0l0 56.002655l-195.61835 0z" fill-rule="evenodd"/><path fill="#000000" d="m591.12195 459.43863q2.671875 -3.140625 3.140625 -8.40625l2.03125 0.359375q0.78125 0.78125 -0.09375 0.921875q-0.34375 2.1875 -0.84375 3.65625q1.5 0.234375 0.203125 0.921875l0 11.78125l-2.078125 0l0 -8.671875q-0.125 0.25 -1.25 1.28125l-1.109375 -1.84375zm13.46875 6.59375q1.203125 0.421875 4.71875 0.578125l-0.609375 2.078125q-3.640625 -0.3125 -6.15625 -1.53125q-2.59375 1.21875 -6.359375 1.53125l-0.65625 -2.0q3.96875 -0.15625 5.21875 -0.734375q-0.71875 -0.46875 -1.015625 -0.9375q-1.125 0.875 -3.03125 1.5625l-0.984375 -1.609375q3.28125 -1.359375 4.15625 -2.765625q-0.375 -0.15625 -0.375 -1.25l0 -1.703125l-1.921875 0l0 1.703125l-1.859375 0l0 -3.1875l1.921875 0l0 -4.375l3.0625 0l0.046875 -0.453125l-4.59375 0l0 -1.484375l12.40625 0l0 1.484375l-5.65625 0l-0.15625 0.453125l3.734375 0l0 4.375l2.515625 0l0 3.109375l-1.859375 0l0 -1.625l-3.875 0q0.03125 0.03125 0.65625 1.140625l-1.65625 0.984375q-0.484375 -1.0 -1.25 -1.96875l0.265625 -0.171875l0.078125 0.015625l0 1.5625q0 0.296875 0.296875 0.296875l1.625 0q0.265625 0 0.296875 -0.203125l0.234375 -1.0625l1.875 0.515625q-0.28125 2.234375 -1.4375 2.234375l-2.3125 0l-0.171875 0.21875l3.265625 0l0.484375 -0.375l1.359375 1.015625q1.34375 0.859375 -0.328125 0.96875q-1.15625 1.234375 -1.953125 1.609375zm1.375 -7.15625q1.421875 1.234375 1.984375 2.796875l-1.609375 0.984375q-0.5625 -1.390625 -1.78125 -2.78125l1.40625 -1.0zm-9.59375 3.21875q1.25 -1.234375 1.859375 -2.828125l1.34375 0.703125q1.15625 0.75 -0.078125 0.890625q-0.421875 1.0625 -1.578125 2.34375l-1.546875 -1.109375zm8.25 -7.296875l0 -0.296875l-5.125 0l0 0.296875l5.125 0zm0 1.109375l-5.125 0l0 0.375l5.125 0l0 -0.375zm0 1.484375l-5.125 0l0 0.375l5.125 0l0 -0.375zm-3.25 6.90625q0.109375 0.140625 1.1875 0.78125q0.921875 -0.4375 1.296875 -0.78125l-2.484375 0z" fill-rule="nonzero"/><path fill="#000000" d="m611.87195 459.15738l0 -1.859375l1.859375 0l0 1.859375l-1.859375 0zm0 7.8125l0 -1.875l1.859375 0l0 1.875l-1.859375 0z" fill-rule="nonzero"/><path fill="#000000" d="m631.024 465.8605l-9.859375 0l0 -4.90625l4.296875 0l0 -0.671875l-6.234375 0l0 1.9375q0 3.859375 -2.0 6.390625l-1.046875 -1.421875q1.5625 -1.5625 1.5625 -5.484375l0 -8.546875l6.6875 0l0 -1.625l1.40625 0q0.59375 0.078125 0.078125 0.4375l0 1.1875l7.046875 0l0 1.1875l-13.734375 0l0 4.75l14.03125 0l0 1.1875l-6.53125 0l0 0.671875l4.296875 0l0 4.90625zm-2.515625 0.0625q1.703125 0.828125 4.671875 1.203125l-0.734375 1.328125q-2.90625 -0.375 -4.984375 -1.5625l1.046875 -0.96875zm-9.28125 1.34375q3.34375 -0.59375 4.609375 -1.265625l0.890625 0.75q0.59375 0.515625 -0.234375 0.4375q-1.78125 0.890625 -4.59375 1.421875l-0.671875 -1.34375zm4.90625 -10.390625l0 0.734375l3.703125 0l0 -0.734375l-3.703125 0zm3.703125 -1.1875l0 -0.890625l1.1875 0q0.59375 0.078125 0.078125 0.4375l0 0.453125l3.265625 0l0 1.1875l-3.265625 0l0 1.625l-6.234375 0l0 -0.953125l0 -0.671875l-3.265625 0l0 -1.1875l3.265625 0l0 -0.8125l1.1875 0q0.59375 0.0625 0.078125 0.4375l0 0.375l3.703125 0zm-5.421875 8.15625l0 0.828125l3.046875 0l0 -0.828125l-3.046875 0zm0 -1.703125l0 0.8125l3.046875 0l0 -0.8125l-3.046875 0zm4.3125 0l0 0.8125l3.046875 0l0 -0.8125l-3.046875 0zm0 1.703125l0 0.828125l3.046875 0l0 -0.828125l-3.046875 0zm13.65625 -2.890625q2.96875 -1.265625 4.59375 -3.40625l-3.78125 0l0 -1.1875l1.78125 0l-1.109375 -1.484375l1.40625 -0.671875l1.265625 2.15625l1.109375 0l0 -2.75q-2.296875 0.140625 -4.375 0.140625l-0.375 -1.109375q6.390625 -0.078125 9.796875 -0.890625l0.671875 1.34375q0.21875 0.359375 -0.453125 0.140625q-2.0 0.15625 -4.0 0.296875l0 2.828125l1.1875 0l1.03125 -2.609375l1.484375 0.453125q0.375 0.21875 -0.21875 0.375l-1.03125 1.78125l2.515625 0l0 1.1875l-4.296875 0q1.625 1.703125 5.109375 3.03125l-0.734375 1.34375l-1.109375 -0.515625l0 7.046875l-1.265625 0l0 -0.4375l-6.15625 0l0 0.65625l-1.265625 0l0 -7.046875q-0.75 0.4375 -1.1875 0.59375l-0.59375 -1.265625zm10.3125 0.375q-2.453125 -1.34375 -3.78125 -2.890625l0 2.296875l-1.265625 0l0 -2.15625q-1.03125 1.5625 -2.96875 2.75l8.015625 0zm-11.71875 -4.453125l0 2.671875l1.78125 -0.671875l0.296875 1.265625l-2.078125 0.96875l0 6.3125q0 1.1875 -1.1875 1.1875l-1.046875 0l-0.375 -1.421875l0.828125 0q0.296875 0 0.296875 -0.296875l0 -5.1875l-1.34375 0.515625q-0.078125 0.515625 -0.375 0.21875l-0.359375 -1.78125l2.078125 -0.59375l0 -3.1875l-1.78125 0l0 -1.40625l1.78125 0l0 -3.796875l1.40625 0q0.59375 0.078125 0.078125 0.453125l0 3.34375l2.0 0l0 1.40625l-2.0 0zm6.828125 7.203125l0 -1.5625l-2.375 0l0 1.5625l2.375 0zm3.78125 0l0 -1.5625l-2.53125 0l0 1.5625l2.53125 0zm-3.78125 2.734375l0 -1.546875l-2.375 0l0 1.546875l2.375 0zm3.78125 0l0 -1.546875l-2.53125 0l0 1.546875l2.53125 0zm17.8125 -4.296875q-2.75 -1.40625 -4.75 -3.78125q-1.484375 2.140625 -3.859375 3.78125l8.609375 0zm-4.015625 -4.90625q3.640625 3.71875 8.171875 4.75l-0.453125 1.71875q-2.296875 -0.671875 -3.328125 -1.34375l0 5.640625l-1.484375 0l0 -0.4375l-6.90625 0l0 0.734375l-1.484375 0l0 -5.5625q-1.484375 1.03125 -2.828125 1.40625l-0.65625 -1.5625q5.78125 -2.21875 7.78125 -6.453125l1.5625 0.515625q0.296875 0.296875 -0.21875 0.375l-0.15625 0.21875zm-7.9375 1.046875q2.15625 -0.75 4.234375 -3.046875l1.109375 1.046875q0.453125 0.359375 -0.296875 0.359375q-2.375 2.3125 -4.234375 3.046875l-0.8125 -1.40625zm10.84375 7.859375l0 -2.59375l-6.90625 0l0 2.59375l6.90625 0zm-0.296875 -10.53125q1.703125 1.328125 4.515625 2.453125l-0.65625 1.484375q-2.609375 -0.96875 -4.75 -2.828125l0.890625 -1.109375zm3.109375 -1.109375l-12.609375 0l0 2.140625l-1.484375 0l0 -3.5625l6.890625 0l0 -1.84375l1.640625 0q0.59375 0.0625 0.078125 0.4375l0 1.40625l6.96875 0l0 3.421875l-1.484375 0l0 -2.0zm9.421875 7.1875q-1.1875 1.34375 -3.859375 2.671875l-0.734375 -1.328125q3.703125 -1.640625 5.046875 -4.234375l-2.59375 0l0 -6.75l11.125 0l0 6.75l-6.96875 0q-0.453125 1.046875 -1.046875 1.703125l9.875 0l-0.375 5.9375q-0.078125 1.71875 -1.921875 1.71875l-2.15625 0l-0.296875 -1.40625l2.078125 0q0.8125 0 0.890625 -1.203125l0.21875 -3.859375l-2.0 0q-0.75 3.640625 -5.5 6.546875l-0.8125 -1.265625q4.234375 -2.453125 4.828125 -5.28125l-2.234375 0q-0.953125 3.421875 -6.671875 5.953125l-0.8125 -1.34375q4.890625 -1.859375 6.0 -4.609375l-2.078125 0zm-0.65625 -6.828125l8.15625 0l0 -1.625l-8.15625 0l0 1.625zm0 1.1875l0 1.5625l8.15625 0l0 -1.5625l-8.15625 0zm19.0625 12.328125q-1.78125 -2.0 -3.703125 -3.265625l1.109375 -1.484375q2.375 1.40625 3.9375 3.1875l-1.34375 1.5625zm19.679688 -6.53125q1.25 -1.9375 2.21875 -4.75l1.40625 0.8125q0.53125 0.296875 -0.140625 0.453125q-1.109375 2.734375 -2.671875 5.109375q1.625 2.3125 2.453125 2.3125q0.65625 0 0.890625 -1.78125l1.40625 0.734375q-0.59375 2.96875 -1.640625 2.96875q-2.078125 0 -4.15625 -3.1875q-2.078125 2.296875 -4.8125 3.640625l-0.890625 -1.40625q3.484375 -1.71875 4.890625 -3.640625q-1.03125 -2.53125 -1.03125 -6.6875l0 -0.671875l-6.3125 0l0 2.609375l4.75 0l-0.15625 5.046875q-0.0625 1.40625 -1.109375 1.40625l-1.921875 0l-0.234375 -1.40625l1.265625 0q0.59375 0 0.59375 -0.59375l0.15625 -3.046875l-3.34375 0l0 2.15625q0 3.703125 -1.859375 6.078125l-1.265625 -1.03125q1.640625 -2.015625 1.640625 -4.828125l0 -7.796875l7.796875 0l0 -3.1875l1.40625 0q0.59375 0.078125 0.078125 0.4375l0 2.75l5.640625 0l0 1.40625l-5.640625 0l0 0.671875q0 3.484375 0.59375 5.421875zm1.1875 -10.46875q1.1875 0.59375 2.078125 1.484375l-1.125 1.109375q-0.734375 -0.8125 -2.0 -1.546875l1.046875 -1.046875zm22.40625 13.953125q-4.53125 -2.8125 -7.046875 -7.203125l0 4.6875l3.046875 0l0 1.40625l-3.046875 0l0 4.015625l-1.484375 0l0 -4.015625l-2.890625 0l0 -1.40625l2.890625 0l0 -4.6875q-2.15625 4.75 -6.984375 7.578125l-0.8125 -1.5625q5.046875 -2.75 7.203125 -8.015625l-6.453125 0l0 -1.40625l7.046875 0l0 -3.34375l1.40625 0q0.59375 0.078125 0.078125 0.453125l0 2.890625l7.125 0l0 1.40625l-6.609375 0q2.53125 4.53125 7.34375 7.5l-0.8125 1.703125zm7.5 -13.0625q-0.59375 2.53125 -0.96875 3.71875l0.296875 0.0625q0.21875 0.234375 -0.140625 0.453125l0 11.65625l-1.484375 0l0 -9.4375q-0.453125 0.828125 -1.484375 2.015625l-1.046875 -1.1875q2.671875 -2.75 3.34375 -8.015625l1.703125 0.359375q0.296875 0.296875 -0.21875 0.375zm7.640625 1.703125l0 3.5l3.78125 -0.296875l0 1.40625l-3.703125 0.296875q0.296875 3.046875 1.265625 4.59375q0.890625 1.484375 1.40625 1.484375q0.4375 0 0.59375 -1.703125l1.40625 1.046875q-0.375 2.890625 -1.78125 2.890625q-1.265625 0 -2.8125 -2.53125q-1.125 -1.78125 -1.640625 -5.703125l-3.1875 0.21875l0 4.15625l3.109375 -0.890625l0 1.40625l-5.265625 1.5625q-0.078125 0.515625 -0.375 0.21875l-0.359375 -1.78125l1.40625 -0.21875l0 -10.765625l1.328125 0.515625q5.34375 -0.890625 6.984375 -1.78125l1.03125 1.5625q0.078125 0.515625 -0.4375 0.21875l-2.75 0.59375zm-5.640625 12.171875l6.75 0l0 1.421875l-6.75 0l0 -1.421875zm4.15625 -8.609375l0 -3.328125l-3.1875 0.4375l0 3.125l3.1875 -0.234375z" fill-rule="nonzero"/><path fill="#000000" d="m602.4657 481.173l0 -2.890625l-2.21875 0l0 -2.0l2.21875 0l0 -2.828125l1.5 0q1.359375 0.171875 0.359375 0.90625l0 1.921875l3.265625 0l0 4.890625l1.5625 0l0 2.0l-4.34375 0q0.875 2.640625 4.6875 5.203125l-1.40625 1.890625q-3.1875 -2.296875 -4.25 -4.734375q-0.59375 3.1875 -4.390625 5.171875l-1.03125 -1.859375q3.390625 -1.765625 3.921875 -5.671875l-2.46875 0l0 -2.0l2.59375 0zm-5.421875 0.375l0 5.125l0.671875 0l0 -4.53125l1.5 0q1.375 0.1875 0.359375 0.890625l0 5.640625l-5.265625 0l0 1.265625l-1.859375 0l0 -7.65625l1.5 0q1.359375 0.171875 0.359375 0.90625l0 3.484375l0.890625 0l0 -5.125l-3.71875 0l0 -2.0l3.71875 0l0 -2.234375l-0.640625 0q-0.53125 1.046875 -1.640625 2.421875l-1.484375 -1.28125q2.015625 -2.390625 2.71875 -5.4375l1.421875 0.375q1.25 0.328125 0.171875 1.0q-0.203125 0.8125 -0.375 1.140625l4.203125 0l0 1.78125l-2.53125 0l0 2.234375l3.5625 0l0 2.0l-3.5625 0zm8.6875 -3.265625l-1.40625 0l0 2.890625l1.40625 0l0 -2.890625z" fill-rule="nonzero"/><path fill="#000000" d="m611.87195 481.15738l0 -1.859375l1.859375 0l0 1.859375l-1.859375 0zm0 7.8125l0 -1.875l1.859375 0l0 1.875l-1.859375 0z" fill-rule="nonzero"/><path fill="#000000" d="m625.1646 478.12613q0.453125 0.234375 -0.078125 0.375q-0.296875 0.75 -0.953125 2.078125l8.90625 0l0 1.40625l-3.640625 0q-0.515625 2.375 -2.078125 4.3125q2.453125 1.03125 4.671875 2.75l-1.328125 1.40625q-2.3125 -1.859375 -4.453125 -2.890625q-2.90625 2.375 -8.609375 2.96875l-0.296875 -1.78125q4.59375 -0.15625 7.34375 -1.9375q-1.9375 -0.8125 -3.34375 -1.328125q-0.296875 0.4375 -0.671875 0.890625l-1.25 -0.890625q1.03125 -1.421875 2.296875 -3.5l-4.96875 0l0 -1.40625l5.640625 0q0.890625 -1.859375 1.25 -2.96875l1.5625 0.515625zm0.671875 7.5q1.484375 -1.78125 1.921875 -3.640625l-4.296875 0q-0.453125 0.890625 -1.40625 2.3125q1.546875 0.4375 3.78125 1.328125zm6.75 -6.3125l-1.484375 0l0 -2.296875l-12.46875 0l0 2.296875l-1.484375 0l0 -3.703125l6.90625 0l0 -2.15625l1.40625 0q0.59375 0.078125 0.078125 0.453125l0 1.703125l7.046875 0l0 3.703125zm10.984375 -3.78125q-2.15625 3.046875 -4.234375 4.453125l9.359375 0q-2.453125 -1.328125 -5.125 -4.453125zm-4.890625 4.90625q-1.046875 0.59375 -2.453125 1.328125l-0.75 -1.5625q5.046875 -2.140625 7.421875 -6.75l1.640625 0.21875q0.59375 0.234375 -0.078125 0.375l-0.140625 0.21875q3.328125 4.09375 7.9375 5.5l-0.75 1.625q-0.890625 -0.296875 -2.515625 -1.25l0 1.25l-4.375 0l0 2.53125l4.8125 0l0 1.40625l-4.8125 0l0 2.890625l6.828125 0l0 1.421875l-15.140625 0l0 -1.421875l6.828125 0l0 -2.890625l-4.828125 0l0 -1.40625l4.828125 0l0 -2.53125l-4.453125 0l0 -0.953125zm24.40625 -2.75l2.015625 0l0 -3.859375l1.40625 0q0.59375 0.078125 0.078125 0.4375l0 3.421875l4.0 0l0 1.40625l-4.0 0l0 3.5625l3.78125 0l0 1.40625l-3.78125 0l0 4.390625l4.890625 0l0 1.40625l-11.359375 0l0 -1.40625l4.984375 0l0 -4.390625l-3.640625 0l0 -1.40625l3.640625 0l0 -3.5625l-2.453125 0q-0.515625 1.484375 -1.640625 2.96875l-1.25 -0.96875q1.921875 -2.515625 2.515625 -6.078125l1.40625 0.296875q0.59375 0.21875 0 0.4375l-0.59375 1.9375zm-6.296875 -4.078125l1.40625 0q0.59375 0.0625 0.078125 0.4375l0 16.484375l-1.484375 0l0 -16.921875zm2.8125 3.03125q0.671875 0.890625 1.109375 2.015625l-1.1875 0.8125q-0.515625 -1.265625 -1.03125 -2.078125l1.109375 -0.75zm-3.265625 0.828125q0.515625 0.140625 0 0.4375q-0.140625 2.375 -0.671875 4.453125l-1.40625 -0.4375q0.59375 -1.859375 0.671875 -4.6875l1.40625 0.234375zm17.140625 11.203125q3.265625 -2.296875 4.3125 -5.5625l-4.234375 0l0 -1.421875l7.5 0l0 -1.625l-5.34375 0l0 -1.40625l5.34375 0l0 -1.34375l-6.53125 0l0 -1.40625l3.9375 0q-0.375 -0.59375 -1.421875 -1.34375l1.265625 -0.734375q1.34375 0.96875 2.078125 2.078125l2.96875 0l1.34375 -2.375l1.40625 0.515625q0.4375 0.21875 -0.15625 0.375l-1.03125 1.484375l4.15625 0l0 1.40625l-6.53125 0l0 1.34375l5.421875 0l0 1.40625l-5.421875 0l0 1.625l7.5625 0l0 1.421875l-10.609375 0q-0.21875 0.890625 -0.515625 1.40625l8.984375 0l0 1.40625l-4.15625 0l0 2.671875l6.0 0l0 1.421875l-13.0625 0l0 -1.421875l5.578125 0l0 -2.671875l-3.9375 0q-1.34375 2.296875 -3.71875 4.09375l-1.1875 -1.34375z" fill-rule="nonzero"/></g></svg>