<svg version="1.1" viewBox="0.0 0.0 766.0971128608924 387.8057742782152" fill="none" stroke="none" stroke-linecap="square" stroke-miterlimit="10" xmlns:xlink="http://www.w3.org/1999/xlink" xmlns="http://www.w3.org/2000/svg"><clipPath id="p.0"><path d="m0 0l766.0971 0l0 387.8058l-766.0971 0l0 -387.8058z" clip-rule="nonzero"/></clipPath><g clip-path="url(#p.0)"><path fill="#000000" fill-opacity="0.0" d="m0 0l766.0971 0l0 387.8058l-766.0971 0z" fill-rule="evenodd"/><path fill="#cfe2f3" d="m147.48853 141.80588l0 0c0 -8.425049 6.8298492 -15.254898 15.254898 -15.254898l256.38782 0c4.045868 0 7.925995 1.6072083 10.786865 4.4680634c2.8608398 2.8608398 4.468048 6.740982 4.468048 10.786835l0 61.01776c0 8.425049 -6.8298645 15.254898 -15.254913 15.254898l-256.38782 0c-8.425049 0 -15.254898 -6.8298492 -15.254898 -15.254898z" fill-rule="evenodd"/><path stroke="#000000" stroke-width="1.0" stroke-linejoin="round" stroke-linecap="butt" d="m147.48853 141.80588l0 0c0 -8.425049 6.8298492 -15.254898 15.254898 -15.254898l256.38782 0c4.045868 0 7.925995 1.6072083 10.786865 4.4680634c2.8608398 2.8608398 4.468048 6.740982 4.468048 10.786835l0 61.01776c0 8.425049 -6.8298645 15.254898 -15.254913 15.254898l-256.38782 0c-8.425049 0 -15.254898 -6.8298492 -15.254898 -15.254898z" fill-rule="evenodd"/><path fill="#000000" d="m207.99983 158.80476q-1.125 -2.234375 -4.921875 -4.546875q-1.90625 -1.265625 0.71875 -1.796875q4.25 0.921875 6.09375 2.40625q1.984375 1.578125 1.984375 3.453125q0 2.234375 -1.546875 2.234375q-1.453125 0 -2.328125 -1.75zm3.765625 10.296875q2.515625 1.8125 -0.40625 2.34375l0 12.359375q4.046875 3.734375 10.484375 3.734375l20.109375 0.6875q-0.546875 0.90625 -1.46875 2.75l-17.265625 0q-9.25 0 -13.828125 -5.390625l-3.3125 2.75q0.609375 4.609375 -2.46875 0.84375l-2.09375 -2.5625l6.234375 -3.109375l0 -12.46875l-5.84375 0l0 -2.40625l5.671875 0l1.234375 -1.640625l2.953125 2.109375zm13.171875 -7.0l0 -2.75l-11.515625 0l0 -2.40625l11.515625 0l0 -6.15625l2.703125 0.5q5.59375 0.984375 0.90625 2.546875l0 3.109375l7.28125 0l2.796875 -2.796875l3.75 2.765625q2.0 1.671875 -0.3125 2.4375l-13.515625 0l0 2.75l5.671875 0l1.234375 -1.640625l2.953125 2.109375q2.515625 1.8125 -0.40625 2.34375l0 11.0625q-3.609375 3.328125 -3.609375 -0.125l0 0l-5.84375 0l0 3.265625l7.625 0l2.796875 -2.796875l3.75 2.765625q2.0 1.671875 -0.3125 2.4375l-13.859375 0l0 4.59375q-3.609375 3.328125 -3.609375 -0.125l0 -4.46875l-12.03125 0l0 -2.40625l12.03125 0l0 -3.265625l-5.84375 0l0 1.328125q-3.609375 3.328125 -3.609375 -0.125l0 -16.78125l3.4375 1.828125l6.015625 0zm0 7.734375l-5.84375 0l0 3.609375l5.84375 0l0 -3.609375zm0 -2.40625l0 -2.921875l-5.84375 0l0 2.921875l5.84375 0zm3.609375 2.40625l0 3.609375l5.84375 0l0 -3.609375l-5.84375 0zm0 -5.328125l0 2.921875l5.84375 0l0 -2.921875l-5.84375 0zm52.42189 6.1875l-3.953125 0l0 1.140625q0.46875 2.53125 2.46875 5.1875q3.703125 -3.84375 5.6875 -6.703125l2.453125 2.453125q3.46875 3.109375 -1.65625 2.265625l-5.046875 3.84375q3.734375 4.484375 10.109375 7.34375q-2.875 1.078125 -5.125 2.5q-7.59375 -5.9375 -9.578125 -14.25l0.6875 13.234375q0 2.203125 -1.421875 3.421875q-0.875 0.875 -2.1875 0.875q-1.375 0 -1.375 -1.375q0 -0.359375 -0.53125 -0.546875l-2.28125 -0.515625q-1.984375 -1.0 0.078125 -2.03125l3.59375 0q0.515625 0 0.515625 -0.515625l0 -16.328125l-4.125 0l0 1.5q-3.609375 3.328125 -3.609375 -0.125l0 -18.546875l3.484375 2.5625l2.5 0l1.421875 -6.21875l3.859375 1.28125q4.234375 2.125 -1.25 2.671875l-1.515625 2.265625l6.625 0l1.234375 -1.640625l2.96875 2.125q2.15625 1.796875 -0.421875 2.3125l0 12.625q-3.609375 3.328125 -3.609375 -0.125l0 -0.6875zm-21.796875 17.5625q6.953125 -5.609375 9.265625 -11.375l-6.375 0l0 -2.40625l6.90625 0l1.21875 -1.421875l2.921875 1.875q3.71875 2.625 -1.0 2.328125q-3.5 7.484375 -11.859375 12.828125q-2.9375 0.484375 -1.078125 -1.828125zm1.875 -7.46875q-0.65625 -2.578125 -2.3125 -4.90625q-1.734375 -2.90625 1.453125 -1.3125q4.28125 2.984375 4.28125 6.09375q0 2.0625 -1.890625 2.0625q-1.296875 0 -1.53125 -1.9375zm-8.906265 -17.046875q-0.96875 -2.4375 -3.234375 -4.375q-2.8125 -2.25 0.953125 -1.71875q2.03125 0.734375 3.0 1.390625l4.4687653 -8.9375l3.109375 2.015625q3.03125 3.03125 -1.171875 2.46875l-4.6718903 5.859375q1.6250153 1.328125 1.6250153 3.375q0 1.890625 -1.8906403 1.890625q-1.3125 0 -2.1875 -1.96875zm8.250015 2.515625q5.453125 2.8125 5.453125 5.984375q0 1.890625 -1.71875 1.890625q-1.375 0 -2.015625 -2.15625l-0.265625 -0.515625l-3.21875 0.515625l0 18.265625q-3.6093903 3.328125 -3.6093903 -0.125l0 -17.578125l-3.609375 0.625q0 4.734375 -2.484375 0.09375l-1.9375 -3.359375l7.25 -0.390625l6.8750153 -13.375l3.109375 2.0q3.03125 3.03125 -1.140625 2.46875l-6.203125 8.859375l3.796875 -0.109375q-0.1875 -0.28125 -1.328125 -1.4375q-2.203125 -2.203125 1.046875 -1.65625zm8.890625 -1.578125l0 3.609375l11.6875 0l0 -3.609375l-11.6875 0zm0 -6.1875l0 3.78125l11.6875 0l0 -3.78125l-11.6875 0zm-15.593765 16.359375q4.7343903 1.828125 0.171875 2.46875q-1.46875 6.375 -5.21875 11.734375q-1.875 1.40625 -1.875 -0.984375q2.765625 -5.890625 3.890625 -14.140625l3.03125 0.921875zm48.437515 14.8125q11.125 -3.25 15.78125 -8.203125q-2.328125 -3.421875 -3.765625 -8.53125l-4.8125 0l0 -2.40625l14.640625 0l1.375 -1.578125l3.046875 1.828125q3.953125 1.984375 -1.0625 2.78125q-2.109375 4.734375 -4.828125 7.90625q3.5 3.0625 12.75 6.078125q-3.875 1.28125 -5.28125 2.890625q-6.25 -2.65625 -9.96875 -6.375q-4.828125 4.96875 -17.125 7.609375q-3.234375 0 -0.75 -2.0zm14.5 -16.734375q1.21875 3.78125 3.328125 6.296875q2.1875 -2.859375 3.640625 -6.296875l-6.96875 0zm-3.515625 -20.734375l3.4375 1.828125l5.328125 0l1.234375 -1.640625l2.96875 2.125q2.15625 1.796875 -0.421875 2.3125l0 7.6875q0 0 0 0l2.75 0q1.125 0 1.21875 -0.625l1.0625 -5.5625q1.171875 -1.15625 1.84375 0.1875l0 5.484375q0 0.4375 0.296875 0.578125q2.1875 0.9375 0.171875 2.671875q-0.703125 0.703125 -3.5625 0.703125l-4.640625 0q-2.75 0 -2.75 -2.75l0 -8.765625l-5.328125 0l0 3.265625q0 6.03125 -5.859375 10.0625q-2.421875 0.96875 -1.421875 -1.53125q3.671875 -3.171875 3.671875 -8.1875l0 -7.84375zm-14.4375 25.203125l0 6.703125l5.5 0l0 -6.703125l-5.5 0zm-0.15625 -2.40625l5.484375 0l1.234375 -1.640625l2.96875 2.125q2.15625 1.796875 -0.421875 2.3125l0 9.1875q-3.609375 3.328125 -3.609375 -0.125l0 -0.34375l-5.5 0l0 3.5625q-3.609375 3.328125 -3.609375 -0.125l0 -17.03125l3.453125 2.078125zm-3.796875 -5.5l9.0 0l1.9375 -1.953125l2.96875 2.328125q1.21875 1.625 -0.78125 2.03125l-13.125 0l0 -2.40625zm0 -4.46875l9.0 0l1.9375 -1.953125l2.96875 2.328125q1.21875 1.625 -0.78125 2.03125l-13.125 0l0 -2.40625zm-2.234375 -5.5l13.640625 0l2.09375 -2.09375l2.90625 2.0625q2.0 1.671875 -0.3125 2.4375l-18.328125 0l0 -2.40625zm2.234375 -5.15625l8.484375 0l1.9375 -1.953125l2.96875 2.328125q1.21875 1.625 -0.78125 2.03125l-12.609375 0l0 -2.40625zm55.859375 7.171875l3.421875 1.59375l18.640625 0l2.453125 -2.453125l3.234375 2.421875q2.0 1.671875 -0.3125 2.4375l-23.828125 0l0 8.421875q0 11.28125 -6.625 17.90625q-2.265625 1.359375 -1.75 -1.171875q4.765625 -6.46875 4.765625 -15.015625l0 -14.140625zm0.46875 -8.234375q1.828125 2.9375 -1.5625 2.203125q-1.1875 3.578125 -2.765625 7.171875q4.640625 1.296875 -0.09375 2.6875l0 25.21875q-3.609375 3.328125 -3.609375 -0.125l0 -21.109375q-1.859375 2.796875 -4.1875 5.484375q-2.234375 1.34375 -1.796875 -1.296875q6.71875 -10.15625 9.265625 -22.1875l4.75 1.953125zm16.203125 28.734375l0 8.203125q-3.609375 3.328125 -3.609375 -0.125l0 -8.078125l-4.46875 0l0 8.546875q-3.609375 3.328125 -3.609375 -0.125l0 -24.078125l3.453125 2.078125l13.21875 0l1.234375 -1.640625l2.96875 2.125q2.15625 1.796875 -0.421875 2.3125l0 16.109375q0 2.203125 -1.421875 3.421875q-0.875 0.875 -2.1875 0.875q-1.375 0 -1.375 -1.375q0 -0.359375 -0.53125 -0.546875l-2.28125 -0.515625q-1.984375 -1.0 0.078125 -2.03125l3.59375 0q0.515625 0 0.515625 -0.515625l0 -4.640625l-5.15625 0zm1.71875 -22.515625l0 2.703125q-3.609375 3.328125 -3.609375 -0.125l0 -2.578125l-4.8125 0l0 2.875q-3.609375 3.328125 -3.609375 -0.125l0 -2.75l-6.875 0l0 -2.40625l6.875 0l0 -5.453125l3.859375 0.671875q3.03125 1.890625 -0.25 2.4375l0 2.34375l4.8125 0l0 -5.28125l3.859375 0.671875q3.03125 1.890625 -0.25 2.4375l0 2.171875l2.984375 0l2.453125 -2.453125l3.234375 2.421875q2.0 1.671875 -0.3125 2.4375l-8.359375 0zm-1.71875 16.84375l0 3.265625l5.15625 0l0 -3.265625l-5.15625 0zm0 -5.5l0 3.09375l5.15625 0l0 -3.09375l-5.15625 0zm-3.609375 8.765625l0 -3.265625l-4.46875 0l0 3.265625l4.46875 0zm-4.46875 -5.671875l4.46875 0l0 -3.09375l-4.46875 0l0 3.09375z" fill-rule="nonzero"/><path fill="#000000" fill-opacity="0.0" d="m293.18152 218.77927l0 125.82999l-152.887 0" fill-rule="evenodd"/><path stroke="#000000" stroke-width="1.0" stroke-linejoin="round" stroke-linecap="butt" d="m293.18152 218.77927l0 125.82999l-152.887 0" fill-rule="evenodd"/><path fill="#000000" fill-opacity="0.0" d="m101.624 364.18835l0 15.731903" fill-rule="evenodd"/><path stroke="#000000" stroke-width="2.0" stroke-linejoin="round" stroke-linecap="butt" d="m101.624 364.18835l0 15.731903" fill-rule="evenodd"/><path fill="#cfe2f3" d="m62.953472 321.0168l77.35004 0l0 46.46689l-77.35004 0zm5.808361 5.8083496l0 34.85019l65.73333 0l0 -34.85019z" fill-rule="evenodd"/><path stroke="#000000" stroke-width="1.0" stroke-linejoin="round" stroke-linecap="butt" d="m62.953472 321.0168l77.35004 0l0 46.46689l-77.35004 0zm5.808361 5.8083496l0 34.85019l65.73333 0l0 -34.85019z" fill-rule="evenodd"/><path fill="#000000" fill-opacity="0.0" d="m83.64575 379.92026l35.965485 0" fill-rule="evenodd"/><path stroke="#000000" stroke-width="2.0" stroke-linejoin="round" stroke-linecap="butt" d="m83.64575 379.92026l35.965485 0" fill-rule="evenodd"/><path fill="#000000" fill-opacity="0.0" d="m627.03723 364.18835l0 15.731903" fill-rule="evenodd"/><path stroke="#000000" stroke-width="2.0" stroke-linejoin="round" stroke-linecap="butt" d="m627.03723 364.18835l0 15.731903" fill-rule="evenodd"/><path fill="#ead1dc" d="m588.3667 321.0168l77.3501 0l0 46.46689l-77.3501 0zm5.8084106 5.8083496l0 34.85019l65.73328 0l0 -34.85019z" fill-rule="evenodd"/><path stroke="#000000" stroke-width="1.0" stroke-linejoin="round" stroke-linecap="butt" d="m588.3667 321.0168l77.3501 0l0 46.46689l-77.3501 0zm5.8084106 5.8083496l0 34.85019l65.73328 0l0 -34.85019z" fill-rule="evenodd"/><path fill="#000000" fill-opacity="0.0" d="m609.059 379.92026l35.965454 0" fill-rule="evenodd"/><path stroke="#000000" stroke-width="2.0" stroke-linejoin="round" stroke-linecap="butt" d="m609.059 379.92026l35.965454 0" fill-rule="evenodd"/><path fill="#000000" fill-opacity="0.0" d="m435.27527 171.59258l194.2536 0l0 147.99358" fill-rule="evenodd"/><path stroke="#000000" stroke-width="1.0" stroke-linejoin="round" stroke-linecap="butt" d="m435.27527 171.59258l194.2536 0l0 147.99358" fill-rule="evenodd"/><path fill="#000000" fill-opacity="0.0" d="m148.38947 178.02786l-103.42323 0l0 -144.4196" fill-rule="evenodd"/><path stroke="#000000" stroke-width="1.0" stroke-linejoin="round" stroke-linecap="butt" d="m148.38947 178.02786l-103.42323 0l0 -144.4196" fill-rule="evenodd"/><path fill="#000000" fill-opacity="0.0" d="m277.89227 127.26775l0 -73.64046l140.70538 0" fill-rule="evenodd"/><path stroke="#38761d" stroke-width="1.0" stroke-linejoin="round" stroke-linecap="butt" stroke-dasharray="8.0,3.0" d="m277.89227 127.26776l0 -73.640465l134.70541 0" fill-rule="evenodd"/><path fill="#38761d" stroke="#38761d" stroke-width="1.0" stroke-linecap="butt" d="m412.5977 55.27903l4.538086 -1.6517334l-4.538086 -1.6517334z" fill-rule="evenodd"/><path fill="#000000" fill-opacity="0.0" d="m407.14178 17.87664l372.28345 0l0 118.015755l-372.28345 0z" fill-rule="evenodd"/><path fill="#000000" d="m433.71262 36.747265q1.140625 0 2.234375 0.59375q1.109375 0.59375 1.71875 1.703125q0.625 1.109375 0.625 2.296875q0 1.90625 -1.34375 3.25q-1.34375 1.34375 -3.234375 1.34375q-1.90625 0 -3.25 -1.34375q-1.34375 -1.34375 -1.34375 -3.25q0 -1.203125 0.609375 -2.296875q0.609375 -1.109375 1.71875 -1.703125q1.109375 -0.59375 2.265625 -0.59375z" fill-rule="nonzero"/><path fill="#000000" d="m465.8449 47.35664l0 -15.265625l2.03125 0l0 6.265625l7.921875 0l0 -6.265625l2.03125 0l0 15.265625l-2.03125 0l0 -7.203125l-7.921875 0l0 7.203125l-2.03125 0zm22.355621 0l0 -1.625q-1.296875 1.875 -3.515625 1.875q-0.96875 0 -1.828125 -0.375q-0.84375 -0.375 -1.265625 -0.9375q-0.40625 -0.578125 -0.5625 -1.390625q-0.125 -0.5625 -0.125 -1.75l0 -6.859375l1.875 0l0 6.140625q0 1.46875 0.125 1.96875q0.171875 0.75 0.734375 1.171875q0.578125 0.421875 1.421875 0.421875q0.84375 0 1.578125 -0.4375q0.75 -0.4375 1.046875 -1.171875q0.3125 -0.75 0.3125 -2.171875l0 -5.921875l1.875 0l0 11.0625l-1.671875 0zm6.3460693 0l-1.75 0l0 -15.265625l1.875 0l0 5.4375q1.1875 -1.484375 3.03125 -1.484375q1.03125 0 1.9375 0.421875q0.90625 0.40625 1.5 1.15625q0.59375 0.734375 0.921875 1.796875q0.328125 1.046875 0.328125 2.234375q0 2.84375 -1.40625 4.40625q-1.40625 1.546875 -3.375 1.546875q-1.953125 0 -3.0625 -1.640625l0 1.390625zm-0.03125 -5.609375q0 1.984375 0.546875 2.875q0.890625 1.4375 2.390625 1.4375q1.234375 0 2.125 -1.0625q0.90625 -1.0625 0.90625 -3.1875q0 -2.15625 -0.859375 -3.1875q-0.859375 -1.03125 -2.078125 -1.03125q-1.234375 0 -2.140625 1.0625q-0.890625 1.0625 -0.890625 3.09375zm13.736694 10.09375q-1.546875 -1.953125 -2.625 -4.578125q-1.0625 -2.625 -1.0625 -5.4375q0 -2.484375 0.796875 -4.75q0.9375 -2.625 2.890625 -5.25l1.34375 0q-1.25 2.171875 -1.65625 3.09375q-0.640625 1.4375 -1.0 3.0q-0.453125 1.953125 -0.453125 3.921875q0 5.0 3.109375 10.0l-1.34375 0z" fill-rule="nonzero"/><path fill="#000000" d="m517.4326 31.20039q-0.25 0.734375 -0.90625 1.390625l4.015625 0q0.578125 -1.3125 0.828125 -2.140625l1.640625 0.328125q0.328125 0.328125 -0.25 0.421875l-0.65625 1.390625l6.5625 0l0 1.3125l-6.8125 0l0 1.0625l5.5 0l0 1.3125l-5.5 0l0 1.0625l5.5 0l0 1.3125l-5.5 0l0 1.234375l7.390625 0l0 1.3125l-7.390625 0l0 1.234375l8.046875 0l0 1.5625l-6.40625 0q2.625 1.875 6.734375 2.78125l-0.578125 1.640625q-4.59375 -1.140625 -7.796875 -4.09375l0 4.84375l-1.640625 0l0 -4.765625q-2.546875 2.625 -8.125 4.265625l-0.5625305 -1.5625q4.1719055 -1.0625 7.0469055 -3.109375l-6.5625 0l0 -1.5625l8.203125 0l0 -1.234375l-2.875 0l-2.859375 0l0 -5.828125q-0.75 0.828125 -1.8125 1.640625l-0.9062805 -1.140625q3.1250305 -2.546875 4.3594055 -5.578125l1.546875 0.484375q0.328125 0.328125 -0.234375 0.421875zm-1.5625 7.453125l0 1.234375l4.34375 0l0 -1.234375l-4.34375 0zm0 -2.375l0 1.0625l4.34375 0l0 -1.0625l-4.34375 0zm0 -2.375l0 1.0625l4.34375 0l0 -1.0625l-4.34375 0zm30.109375 -1.484375l3.9375 0l0 7.21875l-3.609375 0l0 0.984375q0 0.578125 0.890625 2.0625l2.546875 -2.546875l1.15625 1.3125q0.078125 0.40625 -0.421875 0.25l-2.53125 1.96875q1.3125 1.71875 3.515625 3.109375l-0.890625 1.640625q-2.546875 -1.640625 -4.265625 -4.671875l0 4.109375q0 1.21875 -0.984375 1.21875l-1.5625 0l-0.328125 -1.3125l1.140625 0q0.328125 0 0.328125 -0.328125l0 -7.796875l-1.796875 0l-1.71875 0l0 -7.21875l3.109375 0l0.5 -2.203125l1.71875 0.328125q0.65625 0.234375 -0.078125 0.484375l-0.65625 1.390625zm-1.640625 9.28125l-0.171875 0.40625q-0.078125 4.59375 -3.609375 6.5625l-1.0625 -1.234375q2.953125 -1.796875 3.109375 -4.75l-2.125 0l0 -1.3125l2.375 0l0.25 -0.25l1.234375 0.578125zm-6.890625 -10.015625q-1.734375 2.796875 -2.296875 3.609375l1.0625 0.90625l2.21875 -3.453125l1.3125 0.90625q0.328125 0.328125 -0.25 0.40625q-2.21875 3.28125 -3.609375 4.921875l2.703125 -0.234375l-0.578125 -1.15625l1.234375 -0.65625q1.234375 1.5625 1.8125 3.359375l-1.484375 0.65625l-0.40625 -0.890625l-1.71875 0.234375l0 9.03125l-1.640625 0l0 -8.859375l-2.71875 0.15625q-0.40625 0.5 -0.484375 -0.328125l-0.171875 -1.21875l1.640625 0l1.15625 -1.5625l-2.546875 -2.046875l0.828125 -1.234375l0.40625 0.25q1.640625 -2.546875 2.296875 -3.9375l1.46875 0.734375q0.328125 0.328125 -0.234375 0.40625zm-4.59375 15.265625q0.65625 -3.125 0.65625 -4.921875l1.46875 0.15625q0.65625 0.171875 0.078125 0.40625q0 2.71875 -0.65625 5.171875l-1.546875 -0.8125zm9.921875 -11.578125l5.734375 0l0 -1.640625l-5.734375 0l0 1.640625zm5.734375 2.953125l0 -1.640625l-5.734375 0l0 1.640625l5.734375 0zm-9.015625 3.609375q0.578125 1.234375 0.8125 3.453125l-1.546875 0.328125q-0.09375 -1.390625 -0.65625 -3.453125l1.390625 -0.328125zm23.953125 -5.984375q0.65625 0.171875 0 0.5q-0.171875 0.734375 -0.40625 1.390625l8.6875 0l0 1.5625l-6.234375 0q2.875 1.96875 7.0625 2.703125l-0.421875 1.71875q-1.640625 -0.328125 -2.296875 -0.65625l0 5.578125l-1.640625 0l0 -0.890625l-2.859375 0l0 1.140625l-1.640625 0l0 -6.5625l4.265625 0q-2.390625 -0.984375 -4.359375 -3.03125l-1.3125 0q-1.3125 1.875 -3.515625 3.03125l3.28125 0l0 6.40625l-1.640625 0l0 -0.984375l-2.796875 0l0 1.21875l-1.640625 0l0 -5.40625q-0.734375 0.40625 -2.21875 0.734375l-0.5625 -1.71875q4.421875 -0.65625 7.21875 -3.28125l-6.40625 0l0 -1.5625l7.390625 0q0.484375 -0.90625 0.65625 -1.96875l1.390625 0.078125zm-1.640625 0.40625l-1.640625 0l0 -0.40625l-3.203125 0l0 0.734375l-1.640625 0l0 -5.734375l6.484375 0l0 5.40625zm2.046875 -5.40625l6.5625 0l0 5.40625l-1.640625 0l0 -0.40625l-3.28125 0l0 0.734375l-1.640625 0l0 -5.734375zm4.34375 15.578125l0 -2.78125l-2.859375 0l0 2.78125l2.859375 0zm-8.03125 -11.890625l0 -2.375l-3.203125 0l0 2.375l3.203125 0zm8.609375 -2.375l-3.28125 0l0 2.375l3.28125 0l0 -2.375zm-8.359375 14.265625l0 -2.78125l-2.796875 0l0 2.78125l2.796875 0z" fill-rule="nonzero"/><path fill="#000000" d="m576.01074 51.841015l-1.34375 0q3.109375 -5.0 3.109375 -10.0q0 -1.96875 -0.453125 -3.890625q-0.34375 -1.5625 -0.984375 -3.0q-0.40625 -0.9375 -1.671875 -3.125l1.34375 0q1.953125 2.625 2.890625 5.25q0.796875 2.265625 0.796875 4.75q0 2.8125 -1.078125 5.4375q-1.078125 2.625 -2.609375 4.578125zm11.059326 -9.0625l0 -1.890625l5.765625 0l0 1.890625l-5.765625 0z" fill-rule="nonzero"/><path fill="#000000" d="m595.46936 47.35664q4.34375 -0.984375 7.140625 -3.6875l-4.1875 0l-0.15625 0.5625l-1.640625 -0.328125q0.65625 -2.296875 0.5625 -4.5l6.328125 0l0 -1.484375l-6.734375 0l0 -1.3125l13.953125 0l0 4.109375l-5.578125 0l0 1.640625l7.296875 0l-0.578125 3.84375q-0.25 1.734375 -1.71875 1.734375l-2.046875 0l-0.171875 -1.5625l1.640625 0q0.578125 0 0.65625 -0.578125l0.328125 -2.125l-5.40625 0l0 5.578125l-1.640625 0l0 -4.4375q-2.875 3.125 -7.3125 4.1875l-0.734375 -1.640625zm7.625 -12.140625q1.734375 -2.046875 2.390625 -4.921875l1.640625 0.484375q0.328125 0.328125 -0.25 0.421875l-0.328125 1.0625l6.390625 0l0 1.5625l-3.6875 0l0.90625 1.546875l-1.890625 0.5l-0.734375 -2.046875l-1.5625 0q-0.578125 1.21875 -1.5625 2.296875l-1.3125 -0.90625zm-4.5 -2.953125l5.0 0l0 1.5625l-2.546875 0l0.828125 1.640625l-1.734375 0.40625l-0.65625 -2.046875l-1.640625 0q-0.984375 1.640625 -2.125 2.625l-1.15625 -1.234375q2.0625 -1.890625 3.125 -4.84375l1.5625 0.578125q0.328125 0.328125 -0.25 0.40625l-0.40625 0.90625zm6.5625 7.140625l3.9375 0l0 -1.484375l-3.9375 0l0 1.484375zm-6.328125 1.3125q-0.078125 0.8125 -0.15625 1.640625l4.84375 0l0 -1.640625l-4.6875 0zm34.625 -2.390625l0 1.8125l-17.3125 0l0 -1.8125l17.3125 0zm11.640625 -3.4375l0.984375 1.71875l3.28125 0l0.65625 -1.796875l-10.0 0l0 7.453125q0 3.78125 -1.890625 6.90625l-1.390625 -1.234375q1.640625 -2.546875 1.640625 -6.15625l0 -10.90625l15.578125 0l0 3.9375l-3.359375 0l1.0625 0.484375q0.328125 0.328125 -0.234375 0.40625l-0.5 0.90625l3.453125 0l0 5.328125l-13.125 0l0 -5.328125l3.109375 0l-0.734375 -0.984375l1.46875 -0.734375zm7.640625 6.0625l0 -1.21875l-4.109375 0l0 1.21875l4.109375 0zm-9.84375 0l4.09375 0l0 -1.21875l-4.09375 0l0 1.21875zm1.640625 8.296875l-1.640625 0l0 -6.328125l10.078125 0l0 6.078125l-1.640625 0l0 -0.734375l-6.796875 0l0 0.984375zm6.796875 -1.96875l0 -1.234375l-6.796875 0l0 1.234375l6.796875 0zm-11.3125 -13.78125l12.296875 0l0 -1.3125l-12.296875 0l0 1.3125zm2.875 5.25l4.09375 0l0 -1.15625l-4.09375 0l0 1.15625zm5.734375 0l4.109375 0l0 -1.15625l-4.109375 0l0 1.15625zm-4.09375 6.3125l6.796875 0l0 -1.15625l-6.796875 0l0 1.15625z" fill-rule="nonzero"/><path fill="#000000" d="m661.485 51.841015q-1.546875 -1.953125 -2.625 -4.578125q-1.0625 -2.625 -1.0625 -5.4375q0 -2.484375 0.796875 -4.75q0.9375 -2.625 2.890625 -5.25l1.34375 0q-1.25 2.171875 -1.65625 3.09375q-0.640625 1.4375 -1.0 3.0q-0.453125 1.953125 -0.453125 3.921875q0 5.0 3.109375 10.0l-1.34375 0zm3.680542 -4.484375l0 -15.265625l2.015625 0l0 13.46875l7.515625 0l0 1.796875l-9.53125 0zm18.25232 0l-1.875 0l0 -11.9375q-0.6875 0.640625 -1.78125 1.28125q-1.09375 0.640625 -1.96875 0.96875l0 -1.8125q1.5625 -0.734375 2.734375 -1.78125q1.1875 -1.0625 1.671875 -2.046875l1.21875 0l0 15.328125zm6.5491943 4.484375l-1.34375 0q3.109375 -5.0 3.109375 -10.0q0 -1.96875 -0.453125 -3.890625q-0.34375 -1.5625 -0.984375 -3.0q-0.40625 -0.9375 -1.671875 -3.125l1.34375 0q1.953125 2.625 2.890625 5.25q0.796875 2.265625 0.796875 4.75q0 2.8125 -1.078125 5.4375q-1.078125 2.625 -2.609375 4.578125zm11.840576 -0.25l0 -19.5l4.125 0l0 1.546875l-2.25 0l0 16.40625l2.25 0l0 1.546875l-4.125 0z" fill-rule="nonzero"/><path fill="#000000" d="m721.78015 40.622265l0 -0.5625l-4.09375 0l0 2.625l8.453125 0l0 1.546875l-8.453125 0l0 4.9375l-1.640625 0l0 -4.9375l-8.53125 0l0 -1.546875l8.53125 0l0 -2.625l-4.1875 0l0 0.890625l-1.640625 0l0 -9.921875l13.203125 0l0 9.59375l-1.640625 0zm0 -5.90625l0 -2.125l-9.921875 0l0 2.125l9.921875 0zm0 3.78125l0 -2.21875l-9.921875 0l0 2.21875l9.921875 0zm6.890625 9.109375q1.890625 -1.5625 3.28125 -3.859375l1.40625 0.90625q0.5625 0.40625 -0.25 0.484375q-1.3125 2.140625 -3.03125 3.859375l-1.40625 -1.390625zm15.921875 -5.25l-2.875 0q-0.15625 4.34375 -4.09375 6.96875l-1.15625 -1.390625q3.609375 -2.21875 3.609375 -5.90625l0 -10.671875l6.15625 0l0 16.40625q0 1.3125 -1.3125 1.3125l-1.71875 0l-0.171875 -1.796875l1.234375 0q0.328125 0 0.328125 -0.328125l0 -4.59375zm-7.796875 4.75q-0.984375 -1.140625 -2.296875 -2.21875l1.234375 -1.140625q1.46875 1.0625 2.375 2.046875l-1.3125 1.3125zm7.796875 -9.4375l-2.875 0l0 3.125l2.875 0l0 -3.125zm0 -4.75l-2.875 0l0 3.203125l2.875 0l0 -3.203125zm-8.859375 7.375l-3.28125 0l0 1.734375l3.28125 0l0 -1.734375zm0 -2.859375l-3.28125 0l0 1.546875l3.28125 0l0 -1.546875zm0 -2.796875l-3.28125 0l0 1.484375l3.28125 0l0 -1.484375zm3.4375 -1.3125l0 1.3125l-2.046875 0l0 7.390625l2.296875 0l0 1.3125l-10.984375 0l0 -1.3125l2.625 0l0 -7.390625l-2.140625 0l0 -1.3125l2.140625 0l0 -2.78125l1.3125 0q0.8125 0.078125 0.078125 0.484375l0 2.296875l3.28125 0l0 -2.78125l1.3125 0q0.8125 0.078125 0.078125 0.484375l0 2.296875l2.046875 0z" fill-rule="nonzero"/><path fill="#000000" d="m752.827 51.591015l-4.140625 0l0 -1.546875l2.265625 0l0 -16.40625l-2.265625 0l0 -1.546875l4.140625 0l0 19.5z" fill-rule="nonzero"/><path fill="#000000" d="m433.71262 62.747265q1.140625 0 2.234375 0.59375q1.109375 0.59375 1.71875 1.7031288q0.625 1.109375 0.625 2.296875q0 1.90625 -1.34375 3.25q-1.34375 1.34375 -3.234375 1.34375q-1.90625 0 -3.25 -1.34375q-1.34375 -1.34375 -1.34375 -3.25q0 -1.203125 0.609375 -2.296875q0.609375 -1.1093788 1.71875 -1.7031288q1.109375 -0.59375 2.265625 -0.59375z" fill-rule="nonzero"/><path fill="#000000" d="m465.0949 68.45039l1.90625 -0.171875q0.140625 1.15625 0.625 1.890625q0.5 0.734375 1.546875 1.1875q1.046875 0.453125 2.34375 0.453125q1.15625 0 2.03125 -0.34375q0.890625 -0.34375 1.3125 -0.9375q0.4375 -0.609375 0.4375 -1.3125q0 -0.71875 -0.421875 -1.25q-0.40625 -0.546875 -1.359375 -0.90625q-0.609375 -0.25 -2.71875 -0.75q-2.109375 -0.5 -2.953125 -0.953125q-1.09375 -0.578125 -1.625 -1.4218788q-0.53125 -0.84375 -0.53125 -1.890625q0 -1.15625 0.65625 -2.15625q0.65625 -1.015625 1.90625 -1.53125q1.265625 -0.53125 2.8125 -0.53125q1.6875 0 2.984375 0.546875q1.296875 0.546875 1.984375 1.609375q0.703125 1.0625 0.765625 2.40625l-1.9375 0.15625q-0.15625 -1.453125 -1.0625 -2.1875q-0.890625 -0.75 -2.65625 -0.75q-1.828125 0 -2.671875 0.671875q-0.84375 0.671875 -0.84375 1.625q0 0.8125 0.59375 1.34375q0.59375 0.53125 3.046875 1.0937538q2.46875 0.5625 3.390625 0.96875q1.328125 0.625 1.953125 1.5625q0.640625 0.9375 0.640625 2.171875q0 1.21875 -0.703125 2.296875q-0.6875 1.078125 -2.0 1.6875q-1.296875 0.59375 -2.9375 0.59375q-2.078125 0 -3.484375 -0.609375q-1.390625 -0.609375 -2.1875 -1.8125q-0.796875 -1.21875 -0.84375 -2.75zm16.725677 4.90625l-3.390625 -11.062504l1.9375 0l1.765625 6.390629l0.65625 2.375q0.03125 -0.1875 0.5625 -2.28125l1.765625 -6.484379l1.921875 0l1.65625 6.421879l0.546875 2.109375l0.640625 -2.140625l1.890625 -6.390629l1.828125 0l-3.453125 11.062504l-1.953125 0l-1.75 -6.625l-0.4375 -1.890625l-2.234375 8.515625l-1.953125 0zm13.371246 -13.109379l0 -2.15625l1.875 0l0 2.15625l-1.875 0zm0 13.109379l0 -11.062504l1.875 0l0 11.062504l-1.875 0zm8.816559 -1.671875l0.265625 1.65625q-0.78125 0.15625 -1.40625 0.15625q-1.03125 0 -1.59375 -0.3125q-0.5625 -0.328125 -0.796875 -0.84375q-0.21875 -0.53125 -0.21875 -2.21875l0 -6.375004l-1.375 0l0 -1.453125l1.375 0l0 -2.734375l1.859375 -1.125l0 3.859375l1.890625 0l0 1.453125l-1.890625 0l0 6.468754q0 0.8125 0.09375 1.046875q0.109375 0.21875 0.328125 0.359375q0.234375 0.125 0.640625 0.125q0.3125 0 0.828125 -0.0625zm9.050629 -2.375l1.84375 0.234375q-0.296875 1.90625 -1.546875 2.984375q-1.25 1.078125 -3.0624695 1.078125q-2.265625 0 -3.65625 -1.484375q-1.375 -1.484375 -1.375 -4.25q0 -1.796875 0.59375 -3.140625q0.59375 -1.3437538 1.8125 -2.0156288q1.21875 -0.671875 2.640625 -0.671875q1.7968445 0 2.9374695 0.921875q1.15625 0.90625 1.484375 2.5781288l-1.828125 0.28125q-0.265625 -1.109375 -0.9218445 -1.671875q-0.65625 -0.5625038 -1.59375 -0.5625038q-1.421875 0 -2.3125 1.0156288q-0.875 1.015625 -0.875 3.203125q0 2.234375 0.84375 3.25q0.859375 1.0 2.234375 1.0q1.109375 0 1.8437195 -0.671875q0.734375 -0.671875 0.9375 -2.078125zm3.4453125 4.046875l0 -15.265629l1.875 0l0 5.46875q1.3125 -1.515625 3.3125 -1.515625q1.234375 0 2.140625 0.484375q0.90625 0.484375 1.296875 1.34375q0.390625 0.8437538 0.390625 2.4687538l0 7.015625l-1.875 0l0 -7.015625q0 -1.40625 -0.609375 -2.046875q-0.609375 -0.6406288 -1.734375 -0.6406288q-0.828125 0 -1.5625 0.4375038q-0.734375 0.4375 -1.046875 1.171875q-0.3125 0.734375 -0.3125 2.046875l0 6.046875l-1.875 0z" fill-rule="nonzero"/><path fill="#000000" d="m451.8387 88.74726q1.15625 0 2.25 0.59375q1.109375 0.59375 1.71875 1.703125q0.625 1.109375 0.625 2.296875q0 1.90625 -1.34375 3.25q-1.34375 1.34375 -3.234375 1.34375q-1.90625 0 -3.25 -1.34375q-1.34375 -1.34375 -1.34375 -3.25q0 -1.203125 0.609375 -2.296875q0.609375 -1.109375 1.71875 -1.703125q1.109375 -0.59375 2.25 -0.59375zm0.015625 0.796875q-0.96875 0 -1.875 0.5q-0.90625 0.484375 -1.421875 1.40625q-0.515625 0.90625 -0.515625 1.890625q0 1.5625 1.109375 2.6875q1.125 1.109375 2.703125 1.109375q1.5625 0 2.671875 -1.109375q1.109375 -1.125 1.109375 -2.6875q0 -0.984375 -0.515625 -1.890625q-0.5 -0.921875 -1.40625 -1.40625q-0.90625 -0.5 -1.859375 -0.5z" fill-rule="nonzero"/><path fill="#000000" d="m483.846 99.356636l0 -15.265625l2.015625 0l0 13.46875l7.515625 0l0 1.796875l-9.53125 0zm21.03357 -1.796875l0 1.796875l-10.09375 0q-0.015625 -0.671875 0.21875 -1.296875q0.390625 -1.03125 1.234375 -2.03125q0.859375 -1.0 2.453125 -2.3125q2.5 -2.046875 3.375 -3.234375q0.875 -1.203125 0.875 -2.25q0 -1.125 -0.796875 -1.890625q-0.796875 -0.765625 -2.078125 -0.765625q-1.359375 0 -2.171875 0.8125q-0.8125 0.8125 -0.828125 2.25l-1.921875 -0.1875q0.203125 -2.15625 1.484375 -3.28125q1.296875 -1.140625 3.46875 -1.140625q2.203125 0 3.484375 1.21875q1.28125 1.21875 1.28125 3.015625q0 0.921875 -0.375 1.8125q-0.375 0.875 -1.25 1.859375q-0.859375 0.96875 -2.890625 2.6875q-1.6875 1.40625 -2.171875 1.921875q-0.46875 0.5 -0.78125 1.015625l7.484375 0zm8.5061035 6.03125l0 -19.5l4.125 0l0 1.546875l-2.25 0l0 16.40625l2.25 0l0 1.546875l-4.125 0z" fill-rule="nonzero"/><path fill="#000000" d="m518.8426 96.40351q1.890625 -0.328125 3.125 -0.578125l0 -4.421875l-2.546875 0l0 -1.5625l2.546875 0l0 -4.34375l-2.953125 0l0 -1.5625l7.296875 0l0 1.5625l-2.703125 0l0 4.34375l2.296875 0l0 1.5625l-2.296875 0l0 4.09375l2.625 -0.734375l0.40625 1.390625q-3.53125 1.15625 -6.734375 1.96875q-0.234375 0.578125 -0.484375 0.25l-0.578125 -1.96875zm16.078125 -9.921875l0 -1.96875l-6.234375 0l0 1.96875l6.234375 0zm0 3.28125l0 -1.96875l-6.234375 0l0 1.96875l6.234375 0zm0 3.28125l0 -1.96875l-6.234375 0l0 1.96875l6.234375 0zm-2.375 1.3125l-1.5625 0l0 0.8125q0 5.015625 -7.703125 5.90625l-0.578125 -1.796875q6.640625 -0.578125 6.640625 -4.1875l0 -0.734375l-1.140625 0l-1.15625 0l0 -11.15625l9.515625 0l0 11.15625l-2.375 0l0 4.34375q0 0.65625 0.578125 0.65625l0.5625 0q0.5 0 0.65625 -0.5q0.171875 -0.484375 0.328125 -1.96875l1.734375 0.5q-0.171875 1.140625 -0.328125 1.796875q-0.421875 1.734375 -1.640625 1.734375l-2.140625 0q-1.390625 0 -1.390625 -1.390625l0 -5.171875zm7.46875 -4.59375q6.0625 -2.46875 8.609375 -7.21875l1.71875 0.40625q0.578125 0.078125 -0.078125 0.484375l-0.171875 0.328125q4.109375 3.9375 8.453125 5.171875l-0.65625 2.140625q-5.578125 -2.21875 -8.6875 -6.15625q-2.21875 2.875 -4.1875 4.1875l8.6875 0l0 1.796875l-9.265625 0l0 -1.3125q-2.046875 1.390625 -3.609375 1.96875l-0.8125 -1.796875zm14.109375 2.53125l1.46875 0.984375q0.328125 0.328125 -0.25 0.421875q-1.71875 5.0 -3.109375 7.546875l-1.96875 -0.828125q1.71875 -3.03125 2.78125 -5.90625l-10.5 0l0 -1.796875l11.328125 0l0.25 -0.421875zm19.59375 -3.28125q0.828125 -1.21875 1.40625 -2.625l1.71875 0.65625q0.328125 0.328125 -0.25 0.421875q-0.484375 1.0625 -1.3125 2.203125l-1.5625 -0.65625zm0.828125 8.375l-8.375 0l0 1.5625l8.375 0l0 -1.5625zm0 -1.5625l0 -1.5625l-8.375 0l0 1.5625l8.375 0zm1.640625 -3.109375l0 8.28125l-1.640625 0l0 -0.484375l-8.375 0l0 0.8125l-1.640625 0l0 -8.609375l11.65625 0zm-10.75 -6.234375q0.828125 0.890625 1.390625 2.125l-1.640625 0.828125q-0.65625 -1.3125 -1.3125 -2.140625l1.5625 -0.8125zm7.546875 3.609375l6.8125 0l0 1.546875l-18.78125 0l0 -1.546875l6.890625 0l0 -3.9375l-5.671875 0l0 -1.5625l4.4375 0l-1.0625 -1.484375l1.875 -0.5625l1.3125 2.046875l2.953125 0l1.3125 -2.296875l1.8125 0.578125q0.328125 0.328125 -0.25 0.40625l-0.90625 1.3125l4.84375 0l0 1.5625l-5.578125 0l0 3.9375zm-1.640625 0l0 -3.9375l-1.796875 0l0 3.9375l1.796875 0zm28.140625 7.046875q0 1.234375 -0.984375 1.234375l-1.15625 0l-0.234375 -1.3125l0.734375 0q0.25 0 0.25 -0.25l0 -1.640625l-1.8125 0l0 3.125l-1.390625 0l0 -3.125l-1.390625 0l0 3.125l-1.40625 0l0 -3.125l-1.390625 0l0 3.359375l-1.390625 0l0 -5.8125q-0.40625 2.703125 -1.890625 4.5l-1.0625 -1.3125q1.640625 -2.125 1.640625 -4.921875l0 -5.484375l10.984375 0l0 4.265625l-9.59375 0l0 0.984375l10.09375 0l0 6.390625zm-14.1875 1.640625q-1.234375 1.484375 -2.46875 2.0625l-1.0625 -1.8125q1.796875 -0.734375 2.625 -1.5625l0 -5.25l-2.46875 0l0 -1.796875l4.109375 0l0 7.125q1.390625 1.734375 4.1875 1.734375l10.828125 0l-0.328125 1.5625l-10.671875 0q-2.625 0 -4.75 -2.0625zm0 -11.8125q-1.234375 -1.71875 -2.296875 -2.453125l1.3125 -1.3125q1.546875 0.984375 2.375 2.375l-1.390625 1.390625zm5.40625 6.890625l1.390625 0l0 -1.796875l-1.390625 0l0 1.796875zm2.796875 0l1.390625 0l0 -1.796875l-1.390625 0l0 1.796875zm2.78125 0l1.8125 0l0 -1.796875l-1.8125 0l0 1.796875zm-6.890625 -5.40625l8.203125 0l0 -1.640625l-8.203125 0l0 1.640625zm-2.296875 -4.109375l0 -1.5625l13.046875 0l0 1.5625l-13.046875 0z" fill-rule="nonzero"/><path fill="#000000" d="m606.4051 103.59101l-4.140625 0l0 -1.546875l2.265625 0l0 -16.40625l-2.265625 0l0 -1.546875l4.140625 0l0 19.5z" fill-rule="nonzero"/><path fill="#000000" d="m451.8387 114.74726q1.15625 0 2.25 0.59375q1.109375 0.59375 1.71875 1.703125q0.625 1.109375 0.625 2.296875q0 1.90625 -1.34375 3.25q-1.34375 1.34375 -3.234375 1.34375q-1.90625 0 -3.25 -1.34375q-1.34375 -1.34375 -1.34375 -3.25q0 -1.203125 0.609375 -2.296875q0.609375 -1.109375 1.71875 -1.703125q1.109375 -0.59375 2.25 -0.59375zm0.015625 0.796875q-0.96875 0 -1.875 0.5q-0.90625 0.484375 -1.421875 1.40625q-0.515625 0.90625 -0.515625 1.890625q0 1.5625 1.109375 2.6875q1.125 1.109375 2.703125 1.109375q1.5625 0 2.671875 -1.109375q1.109375 -1.125 1.109375 -2.6875q0 -0.984375 -0.515625 -1.890625q-0.5 -0.921875 -1.40625 -1.40625q-0.90625 -0.5 -1.859375 -0.5z" fill-rule="nonzero"/><path fill="#000000" d="m483.846 125.356636l0 -15.265625l2.015625 0l0 13.46875l7.515625 0l0 1.796875l-9.53125 0zm11.189819 -4.03125l1.875 -0.25q0.328125 1.59375 1.09375 2.296875q0.78125 0.703125 1.90625 0.703125q1.3125 0 2.21875 -0.90625q0.921875 -0.921875 0.921875 -2.28125q0 -1.296875 -0.84375 -2.125q-0.84375 -0.84375 -2.140625 -0.84375q-0.53125 0 -1.328125 0.203125l0.203125 -1.640625q0.1875 0.015625 0.3125 0.015625q1.1875 0 2.140625 -0.625q0.96875 -0.625 0.96875 -1.921875q0 -1.03125 -0.703125 -1.703125q-0.6875 -0.671875 -1.796875 -0.671875q-1.09375 0 -1.828125 0.6875q-0.71875 0.6875 -0.9375 2.0625l-1.875 -0.34375q0.34375 -1.875 1.5625 -2.90625q1.21875 -1.046875 3.03125 -1.046875q1.25 0 2.296875 0.546875q1.0625 0.53125 1.609375 1.453125q0.5625 0.921875 0.5625 1.96875q0 0.984375 -0.53125 1.796875q-0.53125 0.8125 -1.5625 1.296875q1.34375 0.3125 2.09375 1.296875q0.75 0.984375 0.75 2.453125q0 2.0 -1.453125 3.390625q-1.453125 1.390625 -3.6875 1.390625q-2.015625 0 -3.34375 -1.1875q-1.328125 -1.203125 -1.515625 -3.109375z" fill-rule="nonzero"/><defs><radialGradient id="p.1" gradientUnits="userSpaceOnUse" gradientTransform="matrix(7.197810133540891 0.0 0.0 7.197810133540891 0.0 0.0)" spreadMethod="pad" cx="6.8087756007032825" cy="2.3346476698324956" fx="6.8087756007032825" fy="2.3346476698324956" r="7.197810173034668"><stop offset="0.0" stop-color="#dddddd"/><stop offset="1.0" stop-color="#919191"/></radialGradient></defs><path fill="url(#p.1)" d="m4.0E-4 8.402776l89.614174 0l0 25.204727l-89.614174 0z" fill-rule="evenodd"/><defs><radialGradient id="p.2" gradientUnits="userSpaceOnUse" gradientTransform="matrix(7.197810133540891 0.0 0.0 7.197810133540891 0.0 0.0)" spreadMethod="pad" cx="6.8087756007032825" cy="2.3346476698324956" fx="6.8087756007032825" fy="2.3346476698324956" r="7.197810173034668"><stop offset="0.0" stop-color="#dddddd"/><stop offset="1.0" stop-color="#919191"/></radialGradient></defs><path fill="url(#p.2)" d="m89.61457 8.402776l8.401581 -8.401575l0 25.204723l-8.401581 8.401577z" fill-rule="evenodd"/><defs><radialGradient id="p.3" gradientUnits="userSpaceOnUse" gradientTransform="matrix(7.197810133540891 0.0 0.0 7.197810133540891 0.0 0.0)" spreadMethod="pad" cx="6.8087756007032825" cy="2.3346476698324956" fx="6.8087756007032825" fy="2.3346476698324956" r="7.197810173034668"><stop offset="0.0" stop-color="#dddddd"/><stop offset="1.0" stop-color="#919191"/></radialGradient></defs><path fill="url(#p.3)" d="m4.0E-4 8.402776l8.401575 -8.401575l89.614174 0l-8.401581 8.401575z" fill-rule="evenodd"/><path fill="#000000" fill-opacity="0.0" d="m4.0E-4 8.402776l8.401575 -8.401575l89.614174 0l0 25.204723l-8.401581 8.401577l-89.614174 0zm0 0l89.614174 0l8.401581 -8.401575m-8.401581 8.401575l0 25.204727" fill-rule="evenodd"/><path fill="#000000" fill-opacity="0.2" d="m89.61457 8.402776l8.401581 -8.401575l0 25.204723l-8.401581 8.401577z" fill-rule="evenodd"/><path fill="#ffffff" fill-opacity="0.2" d="m4.0E-4 8.402776l8.401575 -8.401575l89.614174 0l-8.401581 8.401575z" fill-rule="evenodd"/><path stroke="#000000" stroke-width="1.0" stroke-linejoin="round" stroke-linecap="butt" d="m4.0E-4 8.402776l8.401575 -8.401575l89.614174 0l0 25.204723l-8.401581 8.401577l-89.614174 0zm0 0l89.614174 0l8.401581 -8.401575m-8.401581 8.401575l0 25.204727" fill-rule="evenodd"/><defs><linearGradient id="p.4" gradientUnits="userSpaceOnUse" gradientTransform="matrix(3.0170176542099343 0.0 0.0 3.0170176542099343 0.0 0.0)" spreadMethod="pad" x1="1.1622609085157272" y1="5.021373659197108" x2="1.1622499703511404" y2="8.038391313387216"><stop offset="0.0" stop-color="#696969"/><stop offset="1.0" stop-color="#1d1d1d"/></linearGradient></defs><path fill="url(#p.4)" d="m3.5065618 15.149607l9.102362 0l0 9.102362l-9.102362 0z" fill-rule="evenodd"/><path stroke="#000000" stroke-width="1.0" stroke-linejoin="round" stroke-linecap="butt" d="m3.5065618 15.149607l9.102362 0l0 9.102362l-9.102362 0z" fill-rule="evenodd"/><defs><linearGradient id="p.5" gradientUnits="userSpaceOnUse" gradientTransform="matrix(3.0170174418185747 0.0 0.0 3.0170174418185747 0.0 0.0)" spreadMethod="pad" x1="4.17926781255667" y1="5.0213744374738365" x2="4.1792567681955335" y2="8.038391879272197"><stop offset="0.0" stop-color="#696969"/><stop offset="1.0" stop-color="#1d1d1d"/></linearGradient></defs><path fill="url(#p.5)" d="m12.608924 15.149607l9.102363 0l0 9.102362l-9.102363 0z" fill-rule="evenodd"/><path stroke="#000000" stroke-width="1.0" stroke-linejoin="round" stroke-linecap="butt" d="m12.608924 15.149607l9.102363 0l0 9.102362l-9.102363 0z" fill-rule="evenodd"/><defs><linearGradient id="p.6" gradientUnits="userSpaceOnUse" gradientTransform="matrix(3.0170176542101275 0.0 0.0 3.0170176542101275 0.0 0.0)" spreadMethod="pad" x1="7.1962741281747595" y1="5.021373659196787" x2="7.196263083814401" y2="8.0383913133867"><stop offset="0.0" stop-color="#696969"/><stop offset="1.0" stop-color="#1d1d1d"/></linearGradient></defs><path fill="url(#p.6)" d="m21.711287 15.149607l9.102362 0l0 9.102362l-9.102362 0z" fill-rule="evenodd"/><path stroke="#000000" stroke-width="1.0" stroke-linejoin="round" stroke-linecap="butt" d="m21.711287 15.149607l9.102362 0l0 9.102362l-9.102362 0z" fill-rule="evenodd"/><defs><linearGradient id="p.7" gradientUnits="userSpaceOnUse" gradientTransform="matrix(3.0170176542101275 0.0 0.0 3.0170176542101275 0.0 0.0)" spreadMethod="pad" x1="11.72047910926432" y1="5.021373659196787" x2="11.72046806490396" y2="8.0383913133867"><stop offset="0.0" stop-color="#696969"/><stop offset="1.0" stop-color="#1d1d1d"/></linearGradient></defs><path fill="url(#p.7)" d="m35.360893 15.149607l9.10236 0l0 9.102362l-9.10236 0z" fill-rule="evenodd"/><path stroke="#000000" stroke-width="1.0" stroke-linejoin="round" stroke-linecap="butt" d="m35.360893 15.149607l9.10236 0l0 9.102362l-9.10236 0z" fill-rule="evenodd"/><defs><linearGradient id="p.8" gradientUnits="userSpaceOnUse" gradientTransform="matrix(3.0170174418170794 0.0 0.0 3.0170174418170794 0.0 0.0)" spreadMethod="pad" x1="14.737486756588542" y1="5.021374437476324" x2="14.737476561793645" y2="8.03839187927618"><stop offset="0.0" stop-color="#696969"/><stop offset="1.0" stop-color="#1d1d1d"/></linearGradient></defs><path fill="url(#p.8)" d="m44.463253 15.149607l9.102364 0l0 9.102362l-9.102364 0z" fill-rule="evenodd"/><path stroke="#000000" stroke-width="1.0" stroke-linejoin="round" stroke-linecap="butt" d="m44.463253 15.149607l9.102364 0l0 9.102362l-9.102364 0z" fill-rule="evenodd"/><defs><linearGradient id="p.9" gradientUnits="userSpaceOnUse" gradientTransform="matrix(3.0170176542086327 0.0 0.0 3.0170176542086327 0.0 0.0)" spreadMethod="pad" x1="17.754492328932223" y1="5.021373659199275" x2="17.754482134138048" y2="8.038391313390683"><stop offset="0.0" stop-color="#696969"/><stop offset="1.0" stop-color="#1d1d1d"/></linearGradient></defs><path fill="url(#p.9)" d="m53.565617 15.149607l9.102364 0l0 9.102362l-9.102364 0z" fill-rule="evenodd"/><path stroke="#000000" stroke-width="1.0" stroke-linejoin="round" stroke-linecap="butt" d="m53.565617 15.149607l9.102364 0l0 9.102362l-9.102364 0z" fill-rule="evenodd"/><defs><linearGradient id="p.10" gradientUnits="userSpaceOnUse" gradientTransform="matrix(3.0170176542086327 0.0 0.0 3.0170176542086327 0.0 0.0)" spreadMethod="pad" x1="20.771498938763273" y1="5.021373659199275" x2="20.771488743969094" y2="8.038391313390683"><stop offset="0.0" stop-color="#696969"/><stop offset="1.0" stop-color="#1d1d1d"/></linearGradient></defs><path fill="url(#p.10)" d="m62.66798 15.149607l9.10236 0l0 9.102362l-9.10236 0z" fill-rule="evenodd"/><path stroke="#000000" stroke-width="1.0" stroke-linejoin="round" stroke-linecap="butt" d="m62.66798 15.149607l9.10236 0l0 9.102362l-9.10236 0z" fill-rule="evenodd"/></g></svg>