<svg version="1.1" viewBox="0.0 0.0 800.0 600.0" fill="none" stroke="none" stroke-linecap="square" stroke-miterlimit="10" xmlns:xlink="http://www.w3.org/1999/xlink" xmlns="http://www.w3.org/2000/svg"><clipPath id="p.0"><path d="m0 0l800.0 0l0 600.0l-800.0 0l0 -600.0z" clip-rule="nonzero"/></clipPath><g clip-path="url(#p.0)"><path fill="#000000" fill-opacity="0.0" d="m0 0l800.0 0l0 600.0l-800.0 0z" fill-rule="evenodd"/><path fill="#cfe2f3" d="m507.03018 343.82153l66.04727 0l0 41.88974l-66.04727 0z" fill-rule="evenodd"/><path stroke="#000000" stroke-width="1.0" stroke-linejoin="round" stroke-linecap="butt" d="m507.03018 343.82153l66.04727 0l0 41.88974l-66.04727 0z" fill-rule="evenodd"/><path fill="#ffffff" d="m510.9042 348.0105l58.299225 0l0 33.51181l-58.299225 0z" fill-rule="evenodd"/><path stroke="#000000" stroke-width="1.0" stroke-linejoin="round" stroke-linecap="butt" d="m510.9042 348.0105l58.299225 0l0 33.51181l-58.299225 0z" fill-rule="evenodd"/><path fill="#000000" fill-opacity="0.0" d="m540.05383 385.71127l0 8.913391" fill-rule="evenodd"/><path stroke="#000000" stroke-width="1.0" stroke-linejoin="round" stroke-linecap="butt" d="m540.05383 385.71127l0 8.913391" fill-rule="evenodd"/><path fill="#000000" fill-opacity="0.0" d="m528.93567 394.62466l22.236267 0" fill-rule="evenodd"/><path stroke="#000000" stroke-width="1.0" stroke-linejoin="round" stroke-linecap="butt" d="m528.93567 394.62466l22.236267 0" fill-rule="evenodd"/><path fill="#fff2cc" d="m428.0761 343.82153l66.04724 0l0 41.88974l-66.04724 0z" fill-rule="evenodd"/><path stroke="#000000" stroke-width="1.0" stroke-linejoin="round" stroke-linecap="butt" d="m428.0761 343.82153l66.04724 0l0 41.88974l-66.04724 0z" fill-rule="evenodd"/><path fill="#ffffff" d="m431.95013 348.0105l58.299194 0l0 33.51181l-58.299194 0z" fill-rule="evenodd"/><path stroke="#000000" stroke-width="1.0" stroke-linejoin="round" stroke-linecap="butt" d="m431.95013 348.0105l58.299194 0l0 33.51181l-58.299194 0z" fill-rule="evenodd"/><path fill="#000000" fill-opacity="0.0" d="m461.09973 385.71127l0 8.913391" fill-rule="evenodd"/><path stroke="#000000" stroke-width="1.0" stroke-linejoin="round" stroke-linecap="butt" d="m461.09973 385.71127l0 8.913391" fill-rule="evenodd"/><path fill="#000000" fill-opacity="0.0" d="m449.98163 394.62466l22.236206 0" fill-rule="evenodd"/><path stroke="#000000" stroke-width="1.0" stroke-linejoin="round" stroke-linecap="butt" d="m449.98163 394.62466l22.236206 0" fill-rule="evenodd"/><path fill="#d9ead3" d="m585.9869 343.82153l66.04724 0l0 41.88974l-66.04724 0z" fill-rule="evenodd"/><path stroke="#000000" stroke-width="1.0" stroke-linejoin="round" stroke-linecap="butt" d="m585.9869 343.82153l66.04724 0l0 41.88974l-66.04724 0z" fill-rule="evenodd"/><path fill="#ffffff" d="m589.8609 348.0105l58.299194 0l0 33.51181l-58.299194 0z" fill-rule="evenodd"/><path stroke="#000000" stroke-width="1.0" stroke-linejoin="round" stroke-linecap="butt" d="m589.8609 348.0105l58.299194 0l0 33.51181l-58.299194 0z" fill-rule="evenodd"/><path fill="#000000" fill-opacity="0.0" d="m619.0105 385.71127l0 8.913391" fill-rule="evenodd"/><path stroke="#000000" stroke-width="1.0" stroke-linejoin="round" stroke-linecap="butt" d="m619.0105 385.71127l0 8.913391" fill-rule="evenodd"/><path fill="#000000" fill-opacity="0.0" d="m607.8924 394.62466l22.236206 0" fill-rule="evenodd"/><path stroke="#000000" stroke-width="1.0" stroke-linejoin="round" stroke-linecap="butt" d="m607.8924 394.62466l22.236206 0" fill-rule="evenodd"/><defs><radialGradient id="p.1" gradientUnits="userSpaceOnUse" gradientTransform="matrix(7.981988289711193 0.0 0.0 7.981988289711193 0.0 0.0)" spreadMethod="pad" cx="22.379041704327136" cy="46.257096111127595" fx="22.379041704327136" fy="46.257096111127595" r="7.981988430023193"><stop offset="0.0" stop-color="#8c8c8c"/><stop offset="1.0" stop-color="#404040"/></radialGradient></defs><path fill="url(#p.1)" d="m148.20123 328.4611l45.64203 0l0 96.739044l-45.64203 0z" fill-rule="evenodd"/><defs><radialGradient id="p.2" gradientUnits="userSpaceOnUse" gradientTransform="matrix(7.981988289711193 0.0 0.0 7.981988289711193 0.0 0.0)" spreadMethod="pad" cx="22.379041704327136" cy="46.257096111127595" fx="22.379041704327136" fy="46.257096111127595" r="7.981988430023193"><stop offset="0.0" stop-color="#8c8c8c"/><stop offset="1.0" stop-color="#404040"/></radialGradient></defs><path fill="url(#p.2)" d="m193.84326 328.4611l15.2140045 -15.21402l0 96.739044l-15.2140045 15.21402z" fill-rule="evenodd"/><defs><radialGradient id="p.3" gradientUnits="userSpaceOnUse" gradientTransform="matrix(7.981988289711193 0.0 0.0 7.981988289711193 0.0 0.0)" spreadMethod="pad" cx="22.379041704327136" cy="46.257096111127595" fx="22.379041704327136" fy="46.257096111127595" r="7.981988430023193"><stop offset="0.0" stop-color="#8c8c8c"/><stop offset="1.0" stop-color="#404040"/></radialGradient></defs><path fill="url(#p.3)" d="m148.20123 328.4611l15.2140045 -15.21402l45.64203 0l-15.2140045 15.21402z" fill-rule="evenodd"/><path fill="#000000" fill-opacity="0.0" d="m148.20123 328.4611l15.2140045 -15.21402l45.64203 0l0 96.739044l-15.2140045 15.21402l-45.64203 0zm0 0l45.64203 0l15.2140045 -15.21402m-15.2140045 15.21402l0 96.739044" fill-rule="evenodd"/><path fill="#000000" fill-opacity="0.2" d="m193.84326 328.4611l15.2140045 -15.21402l0 96.739044l-15.2140045 15.21402z" fill-rule="evenodd"/><path fill="#ffffff" fill-opacity="0.2" d="m148.20123 328.4611l15.2140045 -15.21402l45.64203 0l-15.2140045 15.21402z" fill-rule="evenodd"/><path stroke="#000000" stroke-width="1.0" stroke-linejoin="round" stroke-linecap="butt" d="m148.20123 328.4611l15.2140045 -15.21402l45.64203 0l0 96.739044l-15.2140045 15.21402l-45.64203 0zm0 0l45.64203 0l15.2140045 -15.21402m-15.2140045 15.21402l0 96.739044" fill-rule="evenodd"/><path fill="#000000" fill-opacity="0.0" d="m147.96544 402.61288l45.582092 0" fill-rule="evenodd"/><path stroke="#000000" stroke-width="1.0" stroke-linejoin="round" stroke-linecap="butt" d="m147.96544 402.61288l45.582092 0" fill-rule="evenodd"/><path fill="#000000" fill-opacity="0.0" d="m171.02225 328.4611l0 73.80414" fill-rule="evenodd"/><path stroke="#000000" stroke-width="1.0" stroke-linejoin="round" stroke-linecap="butt" d="m171.02225 328.4611l0 73.80414" fill-rule="evenodd"/><path fill="#000000" fill-opacity="0.0" d="m159.62073 413.02133l22.80304 0" fill-rule="evenodd"/><path stroke="#000000" stroke-width="1.0" stroke-linejoin="round" stroke-linecap="butt" d="m159.62073 413.02133l22.80304 0" fill-rule="evenodd"/><defs><radialGradient id="p.4" gradientUnits="userSpaceOnUse" gradientTransform="matrix(2.5282454635689073 0.0 0.0 2.5282454635689073 0.0 0.0)" spreadMethod="pad" cx="67.53952103329385" cy="137.59076992625728" fx="67.53952103329385" fy="137.59076992625728" r="2.528245449066162"><stop offset="0.0" stop-color="#ffffff"/><stop offset="1.0" stop-color="#b3b3b3"/></radialGradient></defs><path fill="url(#p.4)" d="m166.23665 347.86325l0 0c0 -2.4962463 2.0236053 -4.519867 4.5198364 -4.519867l0 0c1.1987457 0 2.3483734 0.4761963 3.1960144 1.3238525c0.847641 0.84762573 1.3238373 1.9972534 1.3238373 3.1960144l0 0c0 2.4962158 -2.0236053 4.5198364 -4.5198517 4.5198364l0 0c-2.496231 0 -4.5198364 -2.0236206 -4.5198364 -4.5198364z" fill-rule="evenodd"/><path stroke="#000000" stroke-width="1.0" stroke-linejoin="round" stroke-linecap="butt" d="m166.23665 347.86325l0 0c0 -2.4962463 2.0236053 -4.519867 4.5198364 -4.519867l0 0c1.1987457 0 2.3483734 0.4761963 3.1960144 1.3238525c0.847641 0.84762573 1.3238373 1.9972534 1.3238373 3.1960144l0 0c0 2.4962158 -2.0236053 4.5198364 -4.5198517 4.5198364l0 0c-2.496231 0 -4.5198364 -2.0236206 -4.5198364 -4.5198364z" fill-rule="evenodd"/><defs><radialGradient id="p.5" gradientUnits="userSpaceOnUse" gradientTransform="matrix(7.197810133540891 0.0 0.0 7.197810133540891 0.0 0.0)" spreadMethod="pad" cx="35.41856353644112" cy="28.59354560867131" fx="35.41856353644112" fy="28.59354560867131" r="7.197810173034668"><stop offset="0.0" stop-color="#dddddd"/><stop offset="1.0" stop-color="#919191"/></radialGradient></defs><path fill="url(#p.5)" d="m205.92822 197.40933l89.61417 0l0 25.204727l-89.61417 0z" fill-rule="evenodd"/><defs><radialGradient id="p.6" gradientUnits="userSpaceOnUse" gradientTransform="matrix(7.197810133540891 0.0 0.0 7.197810133540891 0.0 0.0)" spreadMethod="pad" cx="35.41856353644112" cy="28.59354560867131" fx="35.41856353644112" fy="28.59354560867131" r="7.197810173034668"><stop offset="0.0" stop-color="#dddddd"/><stop offset="1.0" stop-color="#919191"/></radialGradient></defs><path fill="url(#p.6)" d="m295.5424 197.40933l8.401581 -8.401566l0 25.204727l-8.401581 8.401566z" fill-rule="evenodd"/><defs><radialGradient id="p.7" gradientUnits="userSpaceOnUse" gradientTransform="matrix(7.197810133540891 0.0 0.0 7.197810133540891 0.0 0.0)" spreadMethod="pad" cx="35.41856353644112" cy="28.59354560867131" fx="35.41856353644112" fy="28.59354560867131" r="7.197810173034668"><stop offset="0.0" stop-color="#dddddd"/><stop offset="1.0" stop-color="#919191"/></radialGradient></defs><path fill="url(#p.7)" d="m205.92822 197.40933l8.401581 -8.401566l89.61417 0l-8.401581 8.401566z" fill-rule="evenodd"/><path fill="#000000" fill-opacity="0.0" d="m205.92822 197.40933l8.401581 -8.401566l89.61417 0l0 25.204727l-8.401581 8.401566l-89.61417 0zm0 0l89.61417 0l8.401581 -8.401566m-8.401581 8.401566l0 25.204727" fill-rule="evenodd"/><path fill="#000000" fill-opacity="0.2" d="m295.5424 197.40933l8.401581 -8.401566l0 25.204727l-8.401581 8.401566z" fill-rule="evenodd"/><path fill="#ffffff" fill-opacity="0.2" d="m205.92822 197.40933l8.401581 -8.401566l89.61417 0l-8.401581 8.401566z" fill-rule="evenodd"/><path stroke="#000000" stroke-width="1.0" stroke-linejoin="round" stroke-linecap="butt" d="m205.92822 197.40933l8.401581 -8.401566l89.61417 0l0 25.204727l-8.401581 8.401566l-89.61417 0zm0 0l89.61417 0l8.401581 -8.401566m-8.401581 8.401566l0 25.204727" fill-rule="evenodd"/><defs><linearGradient id="p.8" gradientUnits="userSpaceOnUse" gradientTransform="matrix(3.017018928564334 0.0 0.0 3.017018928564334 0.0 0.0)" spreadMethod="pad" x1="69.41765635582549" y1="67.66816244857065" x2="69.41764276277232" y2="70.68518137710437"><stop offset="0.0" stop-color="#696969"/><stop offset="1.0" stop-color="#1d1d1d"/></linearGradient></defs><path fill="url(#p.8)" d="m209.43439 204.15617l9.102356 0l0 9.102356l-9.102356 0z" fill-rule="evenodd"/><path stroke="#000000" stroke-width="1.0" stroke-linejoin="round" stroke-linecap="butt" d="m209.43439 204.15617l9.102356 0l0 9.102356l-9.102356 0z" fill-rule="evenodd"/><defs><linearGradient id="p.9" gradientUnits="userSpaceOnUse" gradientTransform="matrix(3.0170155302991297 0.0 0.0 3.0170155302991297 0.0 0.0)" spreadMethod="pad" x1="72.43474327928196" y1="67.66824546425578" x2="72.43472968621349" y2="70.68526099452427"><stop offset="0.0" stop-color="#696969"/><stop offset="1.0" stop-color="#1d1d1d"/></linearGradient></defs><path fill="url(#p.9)" d="m218.53674 204.15617l9.102371 0l0 9.102356l-9.102371 0z" fill-rule="evenodd"/><path stroke="#000000" stroke-width="1.0" stroke-linejoin="round" stroke-linecap="butt" d="m218.53674 204.15617l9.102371 0l0 9.102356l-9.102371 0z" fill-rule="evenodd"/><defs><linearGradient id="p.10" gradientUnits="userSpaceOnUse" gradientTransform="matrix(3.017018928564334 0.0 0.0 3.017018928564334 0.0 0.0)" spreadMethod="pad" x1="75.45166702678658" y1="67.66816244857065" x2="75.45165343373343" y2="70.68518137710437"><stop offset="0.0" stop-color="#696969"/><stop offset="1.0" stop-color="#1d1d1d"/></linearGradient></defs><path fill="url(#p.10)" d="m227.63911 204.15617l9.102356 0l0 9.102356l-9.102356 0z" fill-rule="evenodd"/><path stroke="#000000" stroke-width="1.0" stroke-linejoin="round" stroke-linecap="butt" d="m227.63911 204.15617l9.102356 0l0 9.102356l-9.102356 0z" fill-rule="evenodd"/><defs><linearGradient id="p.11" gradientUnits="userSpaceOnUse" gradientTransform="matrix(3.0170155302991297 0.0 0.0 3.0170155302991297 0.0 0.0)" spreadMethod="pad" x1="79.97596017904422" y1="67.66824546425578" x2="79.97594658597575" y2="70.68526099452427"><stop offset="0.0" stop-color="#696969"/><stop offset="1.0" stop-color="#1d1d1d"/></linearGradient></defs><path fill="url(#p.11)" d="m241.28871 204.15617l9.102371 0l0 9.102356l-9.102371 0z" fill-rule="evenodd"/><path stroke="#000000" stroke-width="1.0" stroke-linejoin="round" stroke-linecap="butt" d="m241.28871 204.15617l9.102371 0l0 9.102356l-9.102371 0z" fill-rule="evenodd"/><defs><linearGradient id="p.12" gradientUnits="userSpaceOnUse" gradientTransform="matrix(3.017018928564334 0.0 0.0 3.017018928564334 0.0 0.0)" spreadMethod="pad" x1="82.99287543238438" y1="67.66816244857065" x2="82.99286183933123" y2="70.68518137710437"><stop offset="0.0" stop-color="#696969"/><stop offset="1.0" stop-color="#1d1d1d"/></linearGradient></defs><path fill="url(#p.12)" d="m250.39108 204.15617l9.102356 0l0 9.102356l-9.102356 0z" fill-rule="evenodd"/><path stroke="#000000" stroke-width="1.0" stroke-linejoin="round" stroke-linecap="butt" d="m250.39108 204.15617l9.102356 0l0 9.102356l-9.102356 0z" fill-rule="evenodd"/><defs><linearGradient id="p.13" gradientUnits="userSpaceOnUse" gradientTransform="matrix(3.0170155302991297 0.0 0.0 3.0170155302991297 0.0 0.0)" spreadMethod="pad" x1="86.00997764651277" y1="67.66824546425578" x2="86.00996405344429" y2="70.68526099452427"><stop offset="0.0" stop-color="#696969"/><stop offset="1.0" stop-color="#1d1d1d"/></linearGradient></defs><path fill="url(#p.13)" d="m259.49344 204.15617l9.102356 0l0 9.102356l-9.102356 0z" fill-rule="evenodd"/><path stroke="#000000" stroke-width="1.0" stroke-linejoin="round" stroke-linecap="butt" d="m259.49344 204.15617l9.102356 0l0 9.102356l-9.102356 0z" fill-rule="evenodd"/><defs><linearGradient id="p.14" gradientUnits="userSpaceOnUse" gradientTransform="matrix(3.017018928564334 0.0 0.0 3.017018928564334 0.0 0.0)" spreadMethod="pad" x1="89.02688610334549" y1="67.66816244857065" x2="89.02687251029232" y2="70.68518137710437"><stop offset="0.0" stop-color="#696969"/><stop offset="1.0" stop-color="#1d1d1d"/></linearGradient></defs><path fill="url(#p.14)" d="m268.5958 204.15617l9.102356 0l0 9.102356l-9.102356 0z" fill-rule="evenodd"/><path stroke="#000000" stroke-width="1.0" stroke-linejoin="round" stroke-linecap="butt" d="m268.5958 204.15617l9.102356 0l0 9.102356l-9.102356 0z" fill-rule="evenodd"/><defs><radialGradient id="p.15" gradientUnits="userSpaceOnUse" gradientTransform="matrix(7.197810133540891 0.0 0.0 7.197810133540891 0.0 0.0)" spreadMethod="pad" cx="55.480257272193406" cy="15.256155733290733" fx="55.480257272193406" fy="15.256155733290733" r="7.197810173034668"><stop offset="0.0" stop-color="#dddddd"/><stop offset="1.0" stop-color="#919191"/></radialGradient></defs><path fill="url(#p.15)" d="m350.3285 101.40934l89.61417 0l0 25.20472l-89.61417 0z" fill-rule="evenodd"/><defs><radialGradient id="p.16" gradientUnits="userSpaceOnUse" gradientTransform="matrix(7.197810133540891 0.0 0.0 7.197810133540891 0.0 0.0)" spreadMethod="pad" cx="55.480257272193406" cy="15.256155733290733" fx="55.480257272193406" fy="15.256155733290733" r="7.197810173034668"><stop offset="0.0" stop-color="#dddddd"/><stop offset="1.0" stop-color="#919191"/></radialGradient></defs><path fill="url(#p.16)" d="m439.94266 101.40934l8.401581 -8.401581l0 25.204727l-8.401581 8.401573z" fill-rule="evenodd"/><defs><radialGradient id="p.17" gradientUnits="userSpaceOnUse" gradientTransform="matrix(7.197810133540891 0.0 0.0 7.197810133540891 0.0 0.0)" spreadMethod="pad" cx="55.480257272193406" cy="15.256155733290733" fx="55.480257272193406" fy="15.256155733290733" r="7.197810173034668"><stop offset="0.0" stop-color="#dddddd"/><stop offset="1.0" stop-color="#919191"/></radialGradient></defs><path fill="url(#p.17)" d="m350.3285 101.40934l8.401581 -8.401581l89.61417 0l-8.401581 8.401581z" fill-rule="evenodd"/><path fill="#000000" fill-opacity="0.0" d="m350.3285 101.40934l8.401581 -8.401581l89.61417 0l0 25.204727l-8.401581 8.401573l-89.61417 0zm0 0l89.61417 0l8.401581 -8.401581m-8.401581 8.401581l0 25.20472" fill-rule="evenodd"/><path fill="#000000" fill-opacity="0.2" d="m439.94266 101.40934l8.401581 -8.401581l0 25.204727l-8.401581 8.401573z" fill-rule="evenodd"/><path fill="#ffffff" fill-opacity="0.2" d="m350.3285 101.40934l8.401581 -8.401581l89.61417 0l-8.401581 8.401581z" fill-rule="evenodd"/><path stroke="#000000" stroke-width="1.0" stroke-linejoin="round" stroke-linecap="butt" d="m350.3285 101.40934l8.401581 -8.401581l89.61417 0l0 25.204727l-8.401581 8.401573l-89.61417 0zm0 0l89.61417 0l8.401581 -8.401581m-8.401581 8.401581l0 25.20472" fill-rule="evenodd"/><defs><linearGradient id="p.18" gradientUnits="userSpaceOnUse" gradientTransform="matrix(3.0170172294169 0.0 0.0 3.0170172294169 0.0 0.0)" spreadMethod="pad" x1="117.27962380170999" y1="35.84869723864056" x2="117.27962380170999" y2="38.86571446805746"><stop offset="0.0" stop-color="#696969"/><stop offset="1.0" stop-color="#1d1d1d"/></linearGradient></defs><path fill="url(#p.18)" d="m353.83466 108.156166l9.102356 0l0 9.102364l-9.102356 0z" fill-rule="evenodd"/><path stroke="#000000" stroke-width="1.0" stroke-linejoin="round" stroke-linecap="butt" d="m353.83466 108.156166l9.102356 0l0 9.102364l-9.102356 0z" fill-rule="evenodd"/><defs><linearGradient id="p.19" gradientUnits="userSpaceOnUse" gradientTransform="matrix(3.0170172294169 0.0 0.0 3.0170172294169 0.0 0.0)" spreadMethod="pad" x1="120.29663083633126" y1="35.84869723864056" x2="120.29663083633126" y2="38.86571446805746"><stop offset="0.0" stop-color="#696969"/><stop offset="1.0" stop-color="#1d1d1d"/></linearGradient></defs><path fill="url(#p.19)" d="m362.937 108.156166l9.102356 0l0 9.102364l-9.102356 0z" fill-rule="evenodd"/><path stroke="#000000" stroke-width="1.0" stroke-linejoin="round" stroke-linecap="butt" d="m362.937 108.156166l9.102356 0l0 9.102364l-9.102356 0z" fill-rule="evenodd"/><defs><linearGradient id="p.20" gradientUnits="userSpaceOnUse" gradientTransform="matrix(3.0170189285490236 0.0 0.0 3.0170189285490236 0.0 0.0)" spreadMethod="pad" x1="123.31356842287538" y1="35.848673651019986" x2="123.31356842287538" y2="38.865692579569014"><stop offset="0.0" stop-color="#696969"/><stop offset="1.0" stop-color="#1d1d1d"/></linearGradient></defs><path fill="url(#p.20)" d="m372.03937 108.156166l9.102356 0l0 9.102364l-9.102356 0z" fill-rule="evenodd"/><path stroke="#000000" stroke-width="1.0" stroke-linejoin="round" stroke-linecap="butt" d="m372.03937 108.156166l9.102356 0l0 9.102364l-9.102356 0z" fill-rule="evenodd"/><defs><linearGradient id="p.21" gradientUnits="userSpaceOnUse" gradientTransform="matrix(3.0170172294169 0.0 0.0 3.0170172294169 0.0 0.0)" spreadMethod="pad" x1="127.83784348904598" y1="35.84869723864056" x2="127.83784348904598" y2="38.86571446805746"><stop offset="0.0" stop-color="#696969"/><stop offset="1.0" stop-color="#1d1d1d"/></linearGradient></defs><path fill="url(#p.21)" d="m385.68896 108.156166l9.102386 0l0 9.102364l-9.102386 0z" fill-rule="evenodd"/><path stroke="#000000" stroke-width="1.0" stroke-linejoin="round" stroke-linecap="butt" d="m385.68896 108.156166l9.102386 0l0 9.102364l-9.102386 0z" fill-rule="evenodd"/><defs><linearGradient id="p.22" gradientUnits="userSpaceOnUse" gradientTransform="matrix(3.0170189285490236 0.0 0.0 3.0170189285490236 0.0 0.0)" spreadMethod="pad" x1="130.85477682851143" y1="35.848673651019986" x2="130.85477682851143" y2="38.865692579569014"><stop offset="0.0" stop-color="#696969"/><stop offset="1.0" stop-color="#1d1d1d"/></linearGradient></defs><path fill="url(#p.22)" d="m394.79135 108.156166l9.102356 0l0 9.102364l-9.102356 0z" fill-rule="evenodd"/><path stroke="#000000" stroke-width="1.0" stroke-linejoin="round" stroke-linecap="butt" d="m394.79135 108.156166l9.102356 0l0 9.102364l-9.102356 0z" fill-rule="evenodd"/><defs><linearGradient id="p.23" gradientUnits="userSpaceOnUse" gradientTransform="matrix(3.0170172294169 0.0 0.0 3.0170172294169 0.0 0.0)" spreadMethod="pad" x1="133.87185755828855" y1="35.84869723864056" x2="133.87185755828855" y2="38.86571446805746"><stop offset="0.0" stop-color="#696969"/><stop offset="1.0" stop-color="#1d1d1d"/></linearGradient></defs><path fill="url(#p.23)" d="m403.8937 108.156166l9.102356 0l0 9.102364l-9.102356 0z" fill-rule="evenodd"/><path stroke="#000000" stroke-width="1.0" stroke-linejoin="round" stroke-linecap="butt" d="m403.8937 108.156166l9.102356 0l0 9.102364l-9.102356 0z" fill-rule="evenodd"/><defs><linearGradient id="p.24" gradientUnits="userSpaceOnUse" gradientTransform="matrix(3.0170172294169 0.0 0.0 3.0170172294169 0.0 0.0)" spreadMethod="pad" x1="136.88886459290984" y1="35.84869723864056" x2="136.88886459290984" y2="38.86571446805746"><stop offset="0.0" stop-color="#696969"/><stop offset="1.0" stop-color="#1d1d1d"/></linearGradient></defs><path fill="url(#p.24)" d="m412.99606 108.156166l9.102356 0l0 9.102364l-9.102356 0z" fill-rule="evenodd"/><path stroke="#000000" stroke-width="1.0" stroke-linejoin="round" stroke-linecap="butt" d="m412.99606 108.156166l9.102356 0l0 9.102364l-9.102356 0z" fill-rule="evenodd"/><defs><linearGradient id="p.25" gradientUnits="userSpaceOnUse" gradientTransform="matrix(3.0170172294169 0.0 0.0 3.0170172294169 0.0 0.0)" spreadMethod="pad" x1="141.41350518894944" y1="35.84869723864056" x2="141.41350518894944" y2="38.86571446805746"><stop offset="0.0" stop-color="#ffffff"/><stop offset="1.0" stop-color="#b3b3b3"/></linearGradient></defs><path fill="url(#p.25)" d="m426.64697 108.156166l9.102356 0l0 9.102364l-9.102356 0z" fill-rule="evenodd"/><path stroke="#000000" stroke-width="1.0" stroke-linejoin="round" stroke-linecap="butt" d="m426.64697 108.156166l9.102356 0l0 9.102364l-9.102356 0z" fill-rule="evenodd"/><defs><linearGradient id="p.26" gradientUnits="userSpaceOnUse" gradientTransform="matrix(2.3876364687330747 0.0 0.0 2.3876364687330747 0.0 0.0)" spreadMethod="pad" x1="179.40283577094542" y1="46.01074590455567" x2="179.40283577094542" y2="48.39838237328874"><stop offset="0.0" stop-color="#8c8c8c"/><stop offset="1.0" stop-color="#404040"/></linearGradient></defs><path fill="url(#p.26)" d="m428.3488 109.85696l5.700775 0l0 5.700783l-5.700775 0z" fill-rule="evenodd"/><path stroke="#000000" stroke-width="1.0" stroke-linejoin="round" stroke-linecap="butt" d="m428.3488 109.85696l5.700775 0l0 5.700783l-5.700775 0z" fill-rule="evenodd"/><defs><radialGradient id="p.27" gradientUnits="userSpaceOnUse" gradientTransform="matrix(7.197810133540891 0.0 0.0 7.197810133540891 0.0 0.0)" spreadMethod="pad" cx="75.5419510079457" cy="28.59354560867131" fx="75.5419510079457" fy="28.59354560867131" r="7.197810173034668"><stop offset="0.0" stop-color="#dddddd"/><stop offset="1.0" stop-color="#919191"/></radialGradient></defs><path fill="url(#p.27)" d="m494.72876 197.40933l89.614136 0l0 25.204727l-89.614136 0z" fill-rule="evenodd"/><defs><radialGradient id="p.28" gradientUnits="userSpaceOnUse" gradientTransform="matrix(7.197810133540891 0.0 0.0 7.197810133540891 0.0 0.0)" spreadMethod="pad" cx="75.5419510079457" cy="28.59354560867131" fx="75.5419510079457" fy="28.59354560867131" r="7.197810173034668"><stop offset="0.0" stop-color="#dddddd"/><stop offset="1.0" stop-color="#919191"/></radialGradient></defs><path fill="url(#p.28)" d="m584.3429 197.40933l8.401611 -8.401566l0 25.204727l-8.401611 8.401566z" fill-rule="evenodd"/><defs><radialGradient id="p.29" gradientUnits="userSpaceOnUse" gradientTransform="matrix(7.197810133540891 0.0 0.0 7.197810133540891 0.0 0.0)" spreadMethod="pad" cx="75.5419510079457" cy="28.59354560867131" fx="75.5419510079457" fy="28.59354560867131" r="7.197810173034668"><stop offset="0.0" stop-color="#dddddd"/><stop offset="1.0" stop-color="#919191"/></radialGradient></defs><path fill="url(#p.29)" d="m494.72876 197.40933l8.40155 -8.401566l89.6142 0l-8.401611 8.401566z" fill-rule="evenodd"/><path fill="#000000" fill-opacity="0.0" d="m494.72876 197.40933l8.40155 -8.401566l89.6142 0l0 25.204727l-8.401611 8.401566l-89.614136 0zm0 0l89.614136 0l8.401611 -8.401566m-8.401611 8.401566l0 25.204727" fill-rule="evenodd"/><path fill="#000000" fill-opacity="0.2" d="m584.3429 197.40933l8.401611 -8.401566l0 25.204727l-8.401611 8.401566z" fill-rule="evenodd"/><path fill="#ffffff" fill-opacity="0.2" d="m494.72876 197.40933l8.40155 -8.401566l89.6142 0l-8.401611 8.401566z" fill-rule="evenodd"/><path stroke="#000000" stroke-width="1.0" stroke-linejoin="round" stroke-linecap="butt" d="m494.72876 197.40933l8.40155 -8.401566l89.6142 0l0 25.204727l-8.401611 8.401566l-89.614136 0zm0 0l89.614136 0l8.401611 -8.401566m-8.401611 8.401566l0 25.204727" fill-rule="evenodd"/><defs><linearGradient id="p.30" gradientUnits="userSpaceOnUse" gradientTransform="matrix(3.017018928564334 0.0 0.0 3.017018928564334 0.0 0.0)" spreadMethod="pad" x1="165.1414591467515" y1="67.66816244857065" x2="165.14144555369833" y2="70.68518137710437"><stop offset="0.0" stop-color="#696969"/><stop offset="1.0" stop-color="#1d1d1d"/></linearGradient></defs><path fill="url(#p.30)" d="m498.2349 204.15617l9.102386 0l0 9.102356l-9.102386 0z" fill-rule="evenodd"/><path stroke="#000000" stroke-width="1.0" stroke-linejoin="round" stroke-linecap="butt" d="m498.2349 204.15617l9.102386 0l0 9.102356l-9.102386 0z" fill-rule="evenodd"/><defs><linearGradient id="p.31" gradientUnits="userSpaceOnUse" gradientTransform="matrix(3.0170155302991297 0.0 0.0 3.0170155302991297 0.0 0.0)" spreadMethod="pad" x1="168.15865389029207" y1="67.66824546425578" x2="168.1586402972236" y2="70.68526099452427"><stop offset="0.0" stop-color="#696969"/><stop offset="1.0" stop-color="#1d1d1d"/></linearGradient></defs><path fill="url(#p.31)" d="m507.33728 204.15617l9.102356 0l0 9.102356l-9.102356 0z" fill-rule="evenodd"/><path stroke="#000000" stroke-width="1.0" stroke-linejoin="round" stroke-linecap="butt" d="m507.33728 204.15617l9.102356 0l0 9.102356l-9.102356 0z" fill-rule="evenodd"/><defs><linearGradient id="p.32" gradientUnits="userSpaceOnUse" gradientTransform="matrix(3.017018928564334 0.0 0.0 3.017018928564334 0.0 0.0)" spreadMethod="pad" x1="171.1754698177126" y1="67.66816244857065" x2="171.17545622465943" y2="70.68518137710437"><stop offset="0.0" stop-color="#696969"/><stop offset="1.0" stop-color="#1d1d1d"/></linearGradient></defs><path fill="url(#p.32)" d="m516.43964 204.15617l9.102356 0l0 9.102356l-9.102356 0z" fill-rule="evenodd"/><path stroke="#000000" stroke-width="1.0" stroke-linejoin="round" stroke-linecap="butt" d="m516.43964 204.15617l9.102356 0l0 9.102356l-9.102356 0z" fill-rule="evenodd"/><defs><linearGradient id="p.33" gradientUnits="userSpaceOnUse" gradientTransform="matrix(3.0170155302991297 0.0 0.0 3.0170155302991297 0.0 0.0)" spreadMethod="pad" x1="175.69987079005435" y1="67.66824546425578" x2="175.69985719698587" y2="70.68526099452427"><stop offset="0.0" stop-color="#696969"/><stop offset="1.0" stop-color="#1d1d1d"/></linearGradient></defs><path fill="url(#p.33)" d="m530.08923 204.15617l9.102356 0l0 9.102356l-9.102356 0z" fill-rule="evenodd"/><path stroke="#000000" stroke-width="1.0" stroke-linejoin="round" stroke-linecap="butt" d="m530.08923 204.15617l9.102356 0l0 9.102356l-9.102356 0z" fill-rule="evenodd"/><defs><linearGradient id="p.34" gradientUnits="userSpaceOnUse" gradientTransform="matrix(3.017018928564334 0.0 0.0 3.017018928564334 0.0 0.0)" spreadMethod="pad" x1="178.7166782233104" y1="67.66816244857065" x2="178.71666463025724" y2="70.68518137710437"><stop offset="0.0" stop-color="#696969"/><stop offset="1.0" stop-color="#1d1d1d"/></linearGradient></defs><path fill="url(#p.34)" d="m539.1916 204.15617l9.102356 0l0 9.102356l-9.102356 0z" fill-rule="evenodd"/><path stroke="#000000" stroke-width="1.0" stroke-linejoin="round" stroke-linecap="butt" d="m539.1916 204.15617l9.102356 0l0 9.102356l-9.102356 0z" fill-rule="evenodd"/><defs><linearGradient id="p.35" gradientUnits="userSpaceOnUse" gradientTransform="matrix(3.0170155302991297 0.0 0.0 3.0170155302991297 0.0 0.0)" spreadMethod="pad" x1="181.7338882575229" y1="67.66824546425578" x2="181.73387466445442" y2="70.68526099452427"><stop offset="0.0" stop-color="#696969"/><stop offset="1.0" stop-color="#1d1d1d"/></linearGradient></defs><path fill="url(#p.35)" d="m548.29395 204.15617l9.102356 0l0 9.102356l-9.102356 0z" fill-rule="evenodd"/><path stroke="#000000" stroke-width="1.0" stroke-linejoin="round" stroke-linecap="butt" d="m548.29395 204.15617l9.102356 0l0 9.102356l-9.102356 0z" fill-rule="evenodd"/><defs><linearGradient id="p.36" gradientUnits="userSpaceOnUse" gradientTransform="matrix(3.017018928564334 0.0 0.0 3.017018928564334 0.0 0.0)" spreadMethod="pad" x1="184.7506888942715" y1="67.66816244857065" x2="184.75067530121834" y2="70.68518137710437"><stop offset="0.0" stop-color="#696969"/><stop offset="1.0" stop-color="#1d1d1d"/></linearGradient></defs><path fill="url(#p.36)" d="m557.3963 204.15617l9.102356 0l0 9.102356l-9.102356 0z" fill-rule="evenodd"/><path stroke="#000000" stroke-width="1.0" stroke-linejoin="round" stroke-linecap="butt" d="m557.3963 204.15617l9.102356 0l0 9.102356l-9.102356 0z" fill-rule="evenodd"/><path fill="#000000" fill-opacity="0.0" d="m395.13556 126.61406l0 31.196854l-136.0 0l0 31.196854" fill-rule="evenodd"/><path stroke="#ff0000" stroke-width="1.0" stroke-linejoin="round" stroke-linecap="butt" d="m395.13556 126.61406l0 31.196854l-136.0 0l0 31.196854" fill-rule="evenodd"/><path fill="#000000" fill-opacity="0.0" d="m395.13556 126.61406l0 31.196854l152.78741 0l0 31.196854" fill-rule="evenodd"/><path stroke="#ff0000" stroke-width="1.0" stroke-linejoin="round" stroke-linecap="butt" d="m395.13556 126.61406l0 31.196854l152.78741 0l0 31.196854" fill-rule="evenodd"/><path fill="#000000" fill-opacity="0.0" d="m250.7353 222.61406l0 45.316483l-64.50394 0l0 45.329193" fill-rule="evenodd"/><path stroke="#ff0000" stroke-width="1.0" stroke-linejoin="round" stroke-linecap="butt" d="m250.7353 222.61406l0 45.316483l-64.50394 0l0 45.329193" fill-rule="evenodd"/><path fill="#000000" fill-opacity="0.0" d="m250.7353 222.61406l0 45.07997l78.14174 0l0 80.30585" fill-rule="evenodd"/><path stroke="#ff0000" stroke-width="1.0" stroke-linejoin="round" stroke-linecap="butt" d="m250.7353 222.61406l0 45.07997l78.14174 0l0 80.30585" fill-rule="evenodd"/><path fill="#e6b8af" d="m295.8609 343.82285l66.04724 0l0 41.88974l-66.04724 0z" fill-rule="evenodd"/><path stroke="#000000" stroke-width="1.0" stroke-linejoin="round" stroke-linecap="butt" d="m295.8609 343.82285l66.04724 0l0 41.88974l-66.04724 0z" fill-rule="evenodd"/><path fill="#ffffff" d="m299.7349 348.0118l58.299225 0l0 33.51181l-58.299225 0z" fill-rule="evenodd"/><path stroke="#000000" stroke-width="1.0" stroke-linejoin="round" stroke-linecap="butt" d="m299.7349 348.0118l58.299225 0l0 33.51181l-58.299225 0z" fill-rule="evenodd"/><path fill="#000000" fill-opacity="0.0" d="m328.88452 385.7126l0 8.913391" fill-rule="evenodd"/><path stroke="#000000" stroke-width="1.0" stroke-linejoin="round" stroke-linecap="butt" d="m328.88452 385.7126l0 8.913391" fill-rule="evenodd"/><path fill="#000000" fill-opacity="0.0" d="m317.76642 394.62598l22.236206 0" fill-rule="evenodd"/><path stroke="#000000" stroke-width="1.0" stroke-linejoin="round" stroke-linecap="butt" d="m317.76642 394.62598l22.236206 0" fill-rule="evenodd"/><path fill="#000000" fill-opacity="0.0" d="m539.5358 222.61406l0 60.603287l-78.4252 0l0 60.593567" fill-rule="evenodd"/><path stroke="#ff0000" stroke-width="1.0" stroke-linejoin="round" stroke-linecap="butt" d="m539.5358 222.61406l0 60.603287l-78.4252 0l0 60.593567" fill-rule="evenodd"/><path fill="#000000" fill-opacity="0.0" d="m539.5358 222.61406l0 60.603287l79.4646 0l0 60.593567" fill-rule="evenodd"/><path stroke="#ff0000" stroke-width="1.0" stroke-linejoin="round" stroke-linecap="butt" d="m539.5358 222.61406l0 60.603287l79.4646 0l0 60.593567" fill-rule="evenodd"/><path fill="#000000" fill-opacity="0.0" d="m539.5358 222.61406l0.5039673 121.19685" fill-rule="evenodd"/><path stroke="#ff0000" stroke-width="1.0" stroke-linejoin="round" stroke-linecap="butt" d="m539.5358 222.61406l0.5039673 121.19685" fill-rule="evenodd"/><path fill="#000000" fill-opacity="0.0" d="m186.23097 464.9777l460.7874 0l0 42.015747l-460.7874 0z" fill-rule="evenodd"/><path fill="#000000" d="m369.56616 491.89767l6.46875 -12.921875l6.46875 12.921875l-12.9375 0z" fill-rule="nonzero"/><path fill="#000000" d="m398.7613 488.77267q0.453125 0.828125 0.59375 1.78125l-1.40625 0.375q-0.15625 -0.96875 -0.59375 -1.703125l1.40625 -0.453125zm-1.625 4.171875q-0.078125 0.515625 -0.375 0.21875l-0.375 -1.640625q1.859375 -0.140625 3.71875 -0.515625q0.4375 -1.265625 0.65625 -2.53125l1.1875 0.296875q0.59375 0.296875 0 0.375q-0.21875 0.8125 -0.59375 1.640625q0.96875 -0.15625 1.859375 -0.296875l0.21875 1.1875q-3.484375 0.8125 -6.296875 1.265625zm-2.015625 -8.984375q1.046875 0.515625 1.78125 1.328125l-0.515625 1.703125q-0.671875 -0.953125 -1.265625 -1.25l0 8.015625l-1.25 0l0 -7.796875q-0.828125 1.78125 -1.9375 3.1875l-0.8125 -1.5625q2.078125 -2.4375 2.59375 -5.859375l-2.0 0l0 -1.1875l2.15625 0l0 -3.703125l1.1875 0q0.59375 0.0625 0.0625 0.4375l0 3.265625l1.484375 0l0 1.1875l-1.484375 0l0 2.234375zm7.71875 -3.796875l-2.296875 0l0 1.71875l1.859375 0l0 1.1875l-5.046875 0l0 -1.1875l1.921875 0l0 -1.71875l-2.296875 0l0 -1.1875l2.296875 0l0 -2.078125l1.1875 0q0.59375 0.078125 0.078125 0.453125l0 1.625l2.296875 0l0 1.1875zm-5.484375 3.9375l5.1875 0l0 4.015625l-5.1875 0l0 -4.015625zm3.9375 1.1875l-2.671875 0l0 1.640625l2.671875 0l0 -1.640625zm2.375 3.484375q-0.234375 -2.4375 -0.828125 -4.15625l1.1875 -0.4375q0.671875 1.703125 0.890625 4.296875l-1.25 0.296875zm3.109375 -11.71875q0.59375 0.078125 0.078125 0.4375l0 3.421875l1.5625 0l0 1.40625l-1.5625 0l0 10.03125q0 1.25 -1.265625 1.25l-1.265625 0l-0.21875 -1.40625l1.046875 0q0.21875 0 0.21875 -0.21875l0 -9.65625l-2.234375 0l0 -1.40625l2.234375 0l0 -3.859375l1.40625 0zm9.28125 -0.15625q0.59375 0.078125 0.078125 0.453125l0 15.953125l-1.484375 0l0 -6.53125l-1.1875 0l0 2.234375q0 2.96875 -2.078125 4.375l-0.890625 -1.328125q1.484375 -1.046875 1.484375 -3.34375l0 -1.9375l-1.1875 0l0 -1.40625l3.859375 0l0 -2.234375l-1.859375 0l0 0.53125l-1.484375 0l0 -5.71875l1.484375 0l0 3.78125l1.859375 0l0 -4.828125l1.40625 0zm10.53125 16.265625q-4.15625 -2.609375 -5.265625 -7.359375q-0.375 5.125 -4.234375 7.5l-0.8125 -1.5625q3.859375 -2.21875 3.859375 -8.609375l-3.484375 0l0 -1.40625l3.5625 0l0 -5.046875l1.40625 0q0.59375 0.078125 0.078125 0.453125l0 4.59375l5.265625 0l0 1.40625l-4.890625 0q0.734375 5.578125 5.34375 8.171875l-0.828125 1.859375zm-2.8125 -15.515625q1.484375 0.8125 2.078125 2.0l-1.1875 1.1875q-0.75 -1.1875 -2.0 -2.078125l1.109375 -1.109375zm5.5625 13.4375q0.59375 -1.71875 0.890625 -4.09375l1.34375 0.296875q0.21875 0.234375 -0.15625 0.453125q-0.296875 2.296875 -0.8125 3.9375l-1.265625 -0.59375zm2.890625 -6.609375l2.3125 -0.15625l-0.59375 -1.25l1.109375 -0.53125q0.734375 1.1875 1.328125 2.828125l0 -8.171875l9.4375 0l0 15.0q0 1.109375 -0.96875 1.109375l-1.40625 0l-0.296875 -1.1875l1.1875 0q0.21875 0 0.21875 -0.21875l0 -5.5l-4.078125 0l0 2.078125q0 0.453125 0.4375 0.453125l2.59375 0l0 1.1875l-2.96875 0q-1.328125 0 -1.328125 -1.34375l0 -2.375l-1.5625 0l0 7.140625l-1.265625 0l0 -7.796875l-1.109375 0.515625l-0.296875 -0.75l-1.40625 0.15625l0 7.796875l-1.265625 0l0 -7.65625l-2.375 0.234375q-0.21875 0.65625 -0.375 0.21875l-0.21875 -1.703125l1.265625 0l1.265625 -1.71875q-1.265625 -1.40625 -2.453125 -2.4375l0.890625 -0.96875l0.671875 0.671875l1.78125 -3.5l1.25 0.75q0.375 0.296875 -0.296875 0.375l-1.84375 3.265625l0.734375 0.734375l1.859375 -2.96875l1.1875 0.8125q0.375 0.296875 -0.296875 0.375l-3.125 4.53125zm9.28125 -2.15625l1.046875 -3.265625l1.40625 0.375q0.515625 0.140625 -0.21875 0.375l-1.125 2.515625l1.9375 0l0 -3.9375l-6.90625 0l0 3.9375l3.859375 0zm-6.234375 4.53125q0.671875 1.5625 0.890625 3.5625l-1.265625 0.515625q-0.21875 -2.078125 -0.734375 -3.703125l1.109375 -0.375zm4.453125 -7.71875q0.671875 0.8125 1.265625 2.296875l-1.1875 0.515625q-0.515625 -1.484375 -1.1875 -2.375l1.109375 -0.4375zm-2.078125 6.078125l2.828125 0l0 -1.703125l-2.828125 0l0 1.703125zm6.90625 0l0 -1.703125l-2.828125 0l0 1.703125l2.828125 0zm17.953125 6.015625l0 -3.34375l-3.703125 0l0 3.34375l3.703125 0zm1.484375 2.015625l-1.484375 0l0 -0.828125l-3.703125 0l0 1.046875l-1.484375 0l0 -6.765625l6.671875 0l0 6.546875zm-5.265625 -13.8125q0.375 1.03125 1.859375 2.671875q1.328125 -1.78125 1.703125 -2.671875l-3.5625 0zm1.859375 4.75q-2.59375 2.375 -4.828125 3.1875l-0.671875 -1.484375q2.078125 -0.671875 4.53125 -2.8125q-0.59375 -0.59375 -1.5625 -2.15625q-0.734375 1.703125 -1.484375 2.453125l-1.109375 -1.125q1.78125 -2.375 2.75 -5.9375l1.5625 0.453125q0.296875 0.296875 -0.234375 0.375l-0.359375 0.890625l3.78125 0l0.21875 -0.375l1.1875 0.96875q0.296875 0.21875 -0.296875 0.4375q-1.03125 2.375 -2.453125 4.015625q2.53125 1.921875 4.3125 2.515625l-0.59375 1.640625q-1.78125 -0.59375 -4.75 -3.046875zm-5.421875 -6.6875l0 5.5l-1.859375 0l0 2.75l1.71875 0l0 1.40625l-1.71875 0l0 3.40625l2.609375 -0.8125l0.296875 1.34375l-6.828125 1.921875q-0.078125 0.59375 -0.375 0.296875l-0.59375 -1.625l0.890625 -0.15625l0 -6.90625l1.40625 0q0.59375 0.078125 0.078125 0.453125l0 6.078125l1.03125 -0.21875l0 -7.9375l-1.328125 0l-1.265625 0l0 -5.5l5.9375 0zm-1.484375 4.3125l0 -3.125l-2.96875 0l0 3.125l2.96875 0z" fill-rule="nonzero"/></g></svg>