<svg version="1.1" viewBox="0.0 0.0 503.90288713910763 339.51181102362204" fill="none" stroke="none" stroke-linecap="square" stroke-miterlimit="10" xmlns:xlink="http://www.w3.org/1999/xlink" xmlns="http://www.w3.org/2000/svg"><clipPath id="p.0"><path d="m0 0l503.9029 0l0 339.5118l-503.9029 0l0 -339.5118z" clip-rule="nonzero"/></clipPath><g clip-path="url(#p.0)"><path fill="#000000" fill-opacity="0.0" d="m0 0l503.9029 0l0 339.5118l-503.9029 0z" fill-rule="evenodd"/><path fill="#cfe2f3" d="m359.0643 250.81364l66.04724 0l0 41.889755l-66.04724 0z" fill-rule="evenodd"/><path stroke="#000000" stroke-width="1.0" stroke-linejoin="round" stroke-linecap="butt" d="m359.0643 250.81364l66.04724 0l0 41.889755l-66.04724 0z" fill-rule="evenodd"/><path fill="#ffffff" d="m362.93832 255.00262l58.299194 0l0 33.51181l-58.299194 0z" fill-rule="evenodd"/><path stroke="#000000" stroke-width="1.0" stroke-linejoin="round" stroke-linecap="butt" d="m362.93832 255.00262l58.299194 0l0 33.51181l-58.299194 0z" fill-rule="evenodd"/><path fill="#000000" fill-opacity="0.0" d="m392.08792 292.7034l0 8.913391" fill-rule="evenodd"/><path stroke="#000000" stroke-width="1.0" stroke-linejoin="round" stroke-linecap="butt" d="m392.08792 292.7034l0 8.913391" fill-rule="evenodd"/><path fill="#000000" fill-opacity="0.0" d="m380.96982 301.6168l22.236206 0" fill-rule="evenodd"/><path stroke="#000000" stroke-width="1.0" stroke-linejoin="round" stroke-linecap="butt" d="m380.96982 301.6168l22.236206 0" fill-rule="evenodd"/><path fill="#fff2cc" d="m280.11023 250.81364l66.04724 0l0 41.889755l-66.04724 0z" fill-rule="evenodd"/><path stroke="#000000" stroke-width="1.0" stroke-linejoin="round" stroke-linecap="butt" d="m280.11023 250.81364l66.04724 0l0 41.889755l-66.04724 0z" fill-rule="evenodd"/><path fill="#ffffff" d="m283.98425 255.00262l58.299225 0l0 33.51181l-58.299225 0z" fill-rule="evenodd"/><path stroke="#000000" stroke-width="1.0" stroke-linejoin="round" stroke-linecap="butt" d="m283.98425 255.00262l58.299225 0l0 33.51181l-58.299225 0z" fill-rule="evenodd"/><path fill="#000000" fill-opacity="0.0" d="m313.13385 292.7034l0 8.913391" fill-rule="evenodd"/><path stroke="#000000" stroke-width="1.0" stroke-linejoin="round" stroke-linecap="butt" d="m313.13385 292.7034l0 8.913391" fill-rule="evenodd"/><path fill="#000000" fill-opacity="0.0" d="m302.01575 301.6168l22.236237 0" fill-rule="evenodd"/><path stroke="#000000" stroke-width="1.0" stroke-linejoin="round" stroke-linecap="butt" d="m302.01575 301.6168l22.236237 0" fill-rule="evenodd"/><path fill="#d9ead3" d="m438.021 250.81364l66.04724 0l0 41.889755l-66.04724 0z" fill-rule="evenodd"/><path stroke="#000000" stroke-width="1.0" stroke-linejoin="round" stroke-linecap="butt" d="m438.021 250.81364l66.04724 0l0 41.889755l-66.04724 0z" fill-rule="evenodd"/><path fill="#ffffff" d="m441.89502 255.00262l58.299194 0l0 33.51181l-58.299194 0z" fill-rule="evenodd"/><path stroke="#000000" stroke-width="1.0" stroke-linejoin="round" stroke-linecap="butt" d="m441.89502 255.00262l58.299194 0l0 33.51181l-58.299194 0z" fill-rule="evenodd"/><path fill="#000000" fill-opacity="0.0" d="m471.04462 292.7034l0 8.913391" fill-rule="evenodd"/><path stroke="#000000" stroke-width="1.0" stroke-linejoin="round" stroke-linecap="butt" d="m471.04462 292.7034l0 8.913391" fill-rule="evenodd"/><path fill="#000000" fill-opacity="0.0" d="m459.9265 301.6168l22.236206 0" fill-rule="evenodd"/><path stroke="#000000" stroke-width="1.0" stroke-linejoin="round" stroke-linecap="butt" d="m459.9265 301.6168l22.236206 0" fill-rule="evenodd"/><defs><radialGradient id="p.1" gradientUnits="userSpaceOnUse" gradientTransform="matrix(7.981988289711193 0.0 0.0 7.981988289711193 0.0 0.0)" spreadMethod="pad" cx="3.841570350752196" cy="34.604877310501756" fx="3.841570350752196" fy="34.604877310501756" r="7.981988430023193"><stop offset="0.0" stop-color="#8c8c8c"/><stop offset="1.0" stop-color="#404040"/></radialGradient></defs><path fill="url(#p.1)" d="m0.23534751 235.4532l45.642033 0l0 96.73906l-45.642033 0z" fill-rule="evenodd"/><defs><radialGradient id="p.2" gradientUnits="userSpaceOnUse" gradientTransform="matrix(7.981988289711193 0.0 0.0 7.981988289711193 0.0 0.0)" spreadMethod="pad" cx="3.841570350752196" cy="34.604877310501756" fx="3.841570350752196" fy="34.604877310501756" r="7.981988430023193"><stop offset="0.0" stop-color="#8c8c8c"/><stop offset="1.0" stop-color="#404040"/></radialGradient></defs><path fill="url(#p.2)" d="m45.87738 235.4532l15.214012 -15.2140045l0 96.739044l-15.214012 15.21402z" fill-rule="evenodd"/><defs><radialGradient id="p.3" gradientUnits="userSpaceOnUse" gradientTransform="matrix(7.981988289711193 0.0 0.0 7.981988289711193 0.0 0.0)" spreadMethod="pad" cx="3.841570350752196" cy="34.604877310501756" fx="3.841570350752196" fy="34.604877310501756" r="7.981988430023193"><stop offset="0.0" stop-color="#8c8c8c"/><stop offset="1.0" stop-color="#404040"/></radialGradient></defs><path fill="url(#p.3)" d="m0.23534751 235.4532l15.214011 -15.2140045l45.642033 0l-15.214012 15.2140045z" fill-rule="evenodd"/><path fill="#000000" fill-opacity="0.0" d="m0.23534751 235.4532l15.214011 -15.2140045l45.642033 0l0 96.739044l-15.214012 15.21402l-45.642033 0zm0 0l45.642033 0l15.214012 -15.2140045m-15.214012 15.2140045l0 96.73906" fill-rule="evenodd"/><path fill="#000000" fill-opacity="0.2" d="m45.87738 235.4532l15.214012 -15.2140045l0 96.739044l-15.214012 15.21402z" fill-rule="evenodd"/><path fill="#ffffff" fill-opacity="0.2" d="m0.23534751 235.4532l15.214011 -15.2140045l45.642033 0l-15.214012 15.2140045z" fill-rule="evenodd"/><path stroke="#000000" stroke-width="1.0" stroke-linejoin="round" stroke-linecap="butt" d="m0.23534751 235.4532l15.214011 -15.2140045l45.642033 0l0 96.739044l-15.214012 15.21402l-45.642033 0zm0 0l45.642033 0l15.214012 -15.2140045m-15.214012 15.2140045l0 96.73906" fill-rule="evenodd"/><path fill="#000000" fill-opacity="0.0" d="m-4.3569555E-4 309.605l45.58209 0" fill-rule="evenodd"/><path stroke="#000000" stroke-width="1.0" stroke-linejoin="round" stroke-linecap="butt" d="m-4.3569555E-4 309.605l45.58209 0" fill-rule="evenodd"/><path fill="#000000" fill-opacity="0.0" d="m23.056364 235.4532l0 73.80415" fill-rule="evenodd"/><path stroke="#000000" stroke-width="1.0" stroke-linejoin="round" stroke-linecap="butt" d="m23.056364 235.4532l0 73.80415" fill-rule="evenodd"/><path fill="#000000" fill-opacity="0.0" d="m11.654847 320.01346l22.803036 0" fill-rule="evenodd"/><path stroke="#000000" stroke-width="1.0" stroke-linejoin="round" stroke-linecap="butt" d="m11.654847 320.01346l22.803036 0" fill-rule="evenodd"/><defs><radialGradient id="p.4" gradientUnits="userSpaceOnUse" gradientTransform="matrix(2.5282454635689073 0.0 0.0 2.5282454635689073 0.0 0.0)" spreadMethod="pad" cx="9.014397030412765" cy="100.80325251311145" fx="9.014397030412765" fy="100.80325251311145" r="2.528245449066162"><stop offset="0.0" stop-color="#ffffff"/><stop offset="1.0" stop-color="#b3b3b3"/></radialGradient></defs><path fill="url(#p.4)" d="m18.270763 254.85536l0 0c0 -2.496231 2.0236034 -4.5198364 4.519844 -4.5198364l0 0c1.1987381 0 2.3483772 0.4761963 3.1960125 1.323822c0.84763527 0.847641 1.3238335 1.9972839 1.3238335 3.1960144l0 0c0 2.496231 -2.0236034 4.5198517 -4.519846 4.5198517l0 0c-2.4962406 0 -4.519844 -2.0236206 -4.519844 -4.5198517z" fill-rule="evenodd"/><path stroke="#000000" stroke-width="1.0" stroke-linejoin="round" stroke-linecap="butt" d="m18.270763 254.85536l0 0c0 -2.496231 2.0236034 -4.5198364 4.519844 -4.5198364l0 0c1.1987381 0 2.3483772 0.4761963 3.1960125 1.323822c0.84763527 0.847641 1.3238335 1.9972839 1.3238335 3.1960144l0 0c0 2.496231 -2.0236034 4.5198517 -4.519846 4.5198517l0 0c-2.4962406 0 -4.519844 -2.0236206 -4.519844 -4.5198517z" fill-rule="evenodd"/><defs><radialGradient id="p.5" gradientUnits="userSpaceOnUse" gradientTransform="matrix(7.197810133540891 0.0 0.0 7.197810133540891 0.0 0.0)" spreadMethod="pad" cx="14.861494577982564" cy="15.671855220876413" fx="14.861494577982564" fy="15.671855220876413" r="7.197810173034668"><stop offset="0.0" stop-color="#dddddd"/><stop offset="1.0" stop-color="#919191"/></radialGradient></defs><path fill="url(#p.5)" d="m57.96234 104.40147l89.61418 0l0 25.20472l-89.61418 0z" fill-rule="evenodd"/><defs><radialGradient id="p.6" gradientUnits="userSpaceOnUse" gradientTransform="matrix(7.197810133540891 0.0 0.0 7.197810133540891 0.0 0.0)" spreadMethod="pad" cx="14.861494577982564" cy="15.671855220876413" fx="14.861494577982564" fy="15.671855220876413" r="7.197810173034668"><stop offset="0.0" stop-color="#dddddd"/><stop offset="1.0" stop-color="#919191"/></radialGradient></defs><path fill="url(#p.6)" d="m147.57652 104.40147l8.401566 -8.401581l0 25.204727l-8.401566 8.401573z" fill-rule="evenodd"/><defs><radialGradient id="p.7" gradientUnits="userSpaceOnUse" gradientTransform="matrix(7.197810133540891 0.0 0.0 7.197810133540891 0.0 0.0)" spreadMethod="pad" cx="14.861494577982564" cy="15.671855220876413" fx="14.861494577982564" fy="15.671855220876413" r="7.197810173034668"><stop offset="0.0" stop-color="#dddddd"/><stop offset="1.0" stop-color="#919191"/></radialGradient></defs><path fill="url(#p.7)" d="m57.96234 104.40147l8.401573 -8.401581l89.614174 0l-8.401566 8.401581z" fill-rule="evenodd"/><path fill="#000000" fill-opacity="0.0" d="m57.96234 104.40147l8.401573 -8.401581l89.614174 0l0 25.204727l-8.401566 8.401573l-89.61418 0zm0 0l89.61418 0l8.401566 -8.401581m-8.401566 8.401581l0 25.20472" fill-rule="evenodd"/><path fill="#000000" fill-opacity="0.2" d="m147.57652 104.40147l8.401566 -8.401581l0 25.204727l-8.401566 8.401573z" fill-rule="evenodd"/><path fill="#ffffff" fill-opacity="0.2" d="m57.96234 104.40147l8.401573 -8.401581l89.614174 0l-8.401566 8.401581z" fill-rule="evenodd"/><path stroke="#000000" stroke-width="1.0" stroke-linejoin="round" stroke-linecap="butt" d="m57.96234 104.40147l8.401573 -8.401581l89.614174 0l0 25.204727l-8.401566 8.401573l-89.61418 0zm0 0l89.61418 0l8.401566 -8.401581m-8.401566 8.401581l0 25.20472" fill-rule="evenodd"/><defs><linearGradient id="p.8" gradientUnits="userSpaceOnUse" gradientTransform="matrix(3.017017229428622 0.0 0.0 3.017017229428622 0.0 0.0)" spreadMethod="pad" x1="20.373932020484048" y1="36.84044695576048" x2="20.373920126555834" y2="39.857464185165654"><stop offset="0.0" stop-color="#696969"/><stop offset="1.0" stop-color="#1d1d1d"/></linearGradient></defs><path fill="url(#p.8)" d="m61.468502 111.14829l9.102367 0l0 9.102364l-9.102367 0z" fill-rule="evenodd"/><path stroke="#000000" stroke-width="1.0" stroke-linejoin="round" stroke-linecap="butt" d="m61.468502 111.14829l9.102367 0l0 9.102364l-9.102367 0z" fill-rule="evenodd"/><defs><linearGradient id="p.9" gradientUnits="userSpaceOnUse" gradientTransform="matrix(3.017017229428622 0.0 0.0 3.017017229428622 0.0 0.0)" spreadMethod="pad" x1="23.390939055093614" y1="36.84044695576048" x2="23.390927161165397" y2="39.857464185165654"><stop offset="0.0" stop-color="#696969"/><stop offset="1.0" stop-color="#1d1d1d"/></linearGradient></defs><path fill="url(#p.9)" d="m70.57087 111.14829l9.102356 0l0 9.102364l-9.102356 0z" fill-rule="evenodd"/><path stroke="#000000" stroke-width="1.0" stroke-linejoin="round" stroke-linecap="butt" d="m70.57087 111.14829l9.102356 0l0 9.102364l-9.102356 0z" fill-rule="evenodd"/><defs><linearGradient id="p.10" gradientUnits="userSpaceOnUse" gradientTransform="matrix(3.017017229428622 0.0 0.0 3.017017229428622 0.0 0.0)" spreadMethod="pad" x1="26.407946089703177" y1="36.84044695576048" x2="26.407934195774963" y2="39.857464185165654"><stop offset="0.0" stop-color="#696969"/><stop offset="1.0" stop-color="#1d1d1d"/></linearGradient></defs><path fill="url(#p.10)" d="m79.673225 111.14829l9.102364 0l0 9.102364l-9.102364 0z" fill-rule="evenodd"/><path stroke="#000000" stroke-width="1.0" stroke-linejoin="round" stroke-linecap="butt" d="m79.673225 111.14829l9.102364 0l0 9.102364l-9.102364 0z" fill-rule="evenodd"/><defs><linearGradient id="p.11" gradientUnits="userSpaceOnUse" gradientTransform="matrix(3.017017229425512 0.0 0.0 3.017017229425512 0.0 0.0)" spreadMethod="pad" x1="30.93215170781091" y1="36.84044695579845" x2="30.932141513015296" y2="39.85746418520674"><stop offset="0.0" stop-color="#696969"/><stop offset="1.0" stop-color="#1d1d1d"/></linearGradient></defs><path fill="url(#p.11)" d="m93.32284 111.14829l9.102356 0l0 9.102364l-9.102356 0z" fill-rule="evenodd"/><path stroke="#000000" stroke-width="1.0" stroke-linejoin="round" stroke-linecap="butt" d="m93.32284 111.14829l9.102356 0l0 9.102364l-9.102356 0z" fill-rule="evenodd"/><defs><linearGradient id="p.12" gradientUnits="userSpaceOnUse" gradientTransform="matrix(3.017017229425512 0.0 0.0 3.017017229425512 0.0 0.0)" spreadMethod="pad" x1="33.949158742423585" y1="36.84044695579845" x2="33.94914854762797" y2="39.85746418520674"><stop offset="0.0" stop-color="#696969"/><stop offset="1.0" stop-color="#1d1d1d"/></linearGradient></defs><path fill="url(#p.12)" d="m102.42519 111.14829l9.102364 0l0 9.102364l-9.102364 0z" fill-rule="evenodd"/><path stroke="#000000" stroke-width="1.0" stroke-linejoin="round" stroke-linecap="butt" d="m102.42519 111.14829l9.102364 0l0 9.102364l-9.102364 0z" fill-rule="evenodd"/><defs><linearGradient id="p.13" gradientUnits="userSpaceOnUse" gradientTransform="matrix(3.0170189285576354 0.0 0.0 3.0170189285576354 0.0 0.0)" spreadMethod="pad" x1="36.9661449583403" y1="36.84042280964184" x2="36.96613476355043" y2="39.857441738182246"><stop offset="0.0" stop-color="#696969"/><stop offset="1.0" stop-color="#1d1d1d"/></linearGradient></defs><path fill="url(#p.13)" d="m111.52756 111.14829l9.102364 0l0 9.102364l-9.102364 0z" fill-rule="evenodd"/><path stroke="#000000" stroke-width="1.0" stroke-linejoin="round" stroke-linecap="butt" d="m111.52756 111.14829l9.102364 0l0 9.102364l-9.102364 0z" fill-rule="evenodd"/><defs><linearGradient id="p.14" gradientUnits="userSpaceOnUse" gradientTransform="matrix(3.017017229425512 0.0 0.0 3.017017229425512 0.0 0.0)" spreadMethod="pad" x1="39.983172811648934" y1="36.84044695579845" x2="39.98316261685332" y2="39.85746418520674"><stop offset="0.0" stop-color="#696969"/><stop offset="1.0" stop-color="#1d1d1d"/></linearGradient></defs><path fill="url(#p.14)" d="m120.62992 111.14829l9.102364 0l0 9.102364l-9.102364 0z" fill-rule="evenodd"/><path stroke="#000000" stroke-width="1.0" stroke-linejoin="round" stroke-linecap="butt" d="m120.62992 111.14829l9.102364 0l0 9.102364l-9.102364 0z" fill-rule="evenodd"/><defs><radialGradient id="p.15" gradientUnits="userSpaceOnUse" gradientTransform="matrix(7.197810133540891 0.0 0.0 7.197810133540891 0.0 0.0)" spreadMethod="pad" cx="34.92318831373484" cy="2.334465345495838" fx="34.92318831373484" fy="2.334465345495838" r="7.197810173034668"><stop offset="0.0" stop-color="#dddddd"/><stop offset="1.0" stop-color="#919191"/></radialGradient></defs><path fill="url(#p.15)" d="m202.36261 8.4014635l89.61417 0l0 25.204727l-89.61417 0z" fill-rule="evenodd"/><defs><radialGradient id="p.16" gradientUnits="userSpaceOnUse" gradientTransform="matrix(7.197810133540891 0.0 0.0 7.197810133540891 0.0 0.0)" spreadMethod="pad" cx="34.92318831373484" cy="2.334465345495838" fx="34.92318831373484" fy="2.334465345495838" r="7.197810173034668"><stop offset="0.0" stop-color="#dddddd"/><stop offset="1.0" stop-color="#919191"/></radialGradient></defs><path fill="url(#p.16)" d="m291.97678 8.4014635l8.401581 -8.401575l0 25.204723l-8.401581 8.401577z" fill-rule="evenodd"/><defs><radialGradient id="p.17" gradientUnits="userSpaceOnUse" gradientTransform="matrix(7.197810133540891 0.0 0.0 7.197810133540891 0.0 0.0)" spreadMethod="pad" cx="34.92318831373484" cy="2.334465345495838" fx="34.92318831373484" fy="2.334465345495838" r="7.197810173034668"><stop offset="0.0" stop-color="#dddddd"/><stop offset="1.0" stop-color="#919191"/></radialGradient></defs><path fill="url(#p.17)" d="m202.36261 8.4014635l8.401566 -8.401575l89.61418 0l-8.401581 8.401575z" fill-rule="evenodd"/><path fill="#000000" fill-opacity="0.0" d="m202.36261 8.4014635l8.401566 -8.401575l89.61418 0l0 25.204723l-8.401581 8.401577l-89.61417 0zm0 0l89.61417 0l8.401581 -8.401575m-8.401581 8.401575l0 25.204727" fill-rule="evenodd"/><path fill="#000000" fill-opacity="0.2" d="m291.97678 8.4014635l8.401581 -8.401575l0 25.204723l-8.401581 8.401577z" fill-rule="evenodd"/><path fill="#ffffff" fill-opacity="0.2" d="m202.36261 8.4014635l8.401566 -8.401575l89.61418 0l-8.401581 8.401575z" fill-rule="evenodd"/><path stroke="#000000" stroke-width="1.0" stroke-linejoin="round" stroke-linecap="butt" d="m202.36261 8.4014635l8.401566 -8.401575l89.61418 0l0 25.204723l-8.401581 8.401577l-89.61417 0zm0 0l89.61417 0l8.401581 -8.401575m-8.401581 8.401575l0 25.204727" fill-rule="evenodd"/><defs><linearGradient id="p.18" gradientUnits="userSpaceOnUse" gradientTransform="matrix(3.0170174418122953 0.0 0.0 3.0170174418122953 0.0 0.0)" spreadMethod="pad" x1="68.23585556752234" y1="5.0209394595687415" x2="68.2358487709924" y2="8.037956901373382"><stop offset="0.0" stop-color="#696969"/><stop offset="1.0" stop-color="#1d1d1d"/></linearGradient></defs><path fill="url(#p.18)" d="m205.86876 15.1482935l9.102371 0l0 9.102363l-9.102371 0z" fill-rule="evenodd"/><path stroke="#000000" stroke-width="1.0" stroke-linejoin="round" stroke-linecap="butt" d="m205.86876 15.1482935l9.102371 0l0 9.102363l-9.102371 0z" fill-rule="evenodd"/><defs><linearGradient id="p.19" gradientUnits="userSpaceOnUse" gradientTransform="matrix(3.0170176542038476 0.0 0.0 3.0170176542038476 0.0 0.0)" spreadMethod="pad" x1="71.25285737370072" y1="5.020938681322314" x2="71.25285057717126" y2="8.037956335518507"><stop offset="0.0" stop-color="#696969"/><stop offset="1.0" stop-color="#1d1d1d"/></linearGradient></defs><path fill="url(#p.19)" d="m214.97113 15.1482935l9.102356 0l0 9.102363l-9.102356 0z" fill-rule="evenodd"/><path stroke="#000000" stroke-width="1.0" stroke-linejoin="round" stroke-linecap="butt" d="m214.97113 15.1482935l9.102356 0l0 9.102363l-9.102356 0z" fill-rule="evenodd"/><defs><linearGradient id="p.20" gradientUnits="userSpaceOnUse" gradientTransform="matrix(3.0170176542038476 0.0 0.0 3.0170176542038476 0.0 0.0)" spreadMethod="pad" x1="74.26986398353655" y1="5.020938681322314" x2="74.26985718700709" y2="8.037956335518507"><stop offset="0.0" stop-color="#696969"/><stop offset="1.0" stop-color="#1d1d1d"/></linearGradient></defs><path fill="url(#p.20)" d="m224.07349 15.1482935l9.102371 0l0 9.102363l-9.102371 0z" fill-rule="evenodd"/><path stroke="#000000" stroke-width="1.0" stroke-linejoin="round" stroke-linecap="butt" d="m224.07349 15.1482935l9.102371 0l0 9.102363l-9.102371 0z" fill-rule="evenodd"/><defs><linearGradient id="p.21" gradientUnits="userSpaceOnUse" gradientTransform="matrix(3.0170176542038476 0.0 0.0 3.0170176542038476 0.0 0.0)" spreadMethod="pad" x1="78.79406896463553" y1="5.020938681322314" x2="78.79406216810607" y2="8.037956335518507"><stop offset="0.0" stop-color="#696969"/><stop offset="1.0" stop-color="#1d1d1d"/></linearGradient></defs><path fill="url(#p.21)" d="m237.7231 15.1482935l9.102356 0l0 9.102363l-9.102356 0z" fill-rule="evenodd"/><path stroke="#000000" stroke-width="1.0" stroke-linejoin="round" stroke-linecap="butt" d="m237.7231 15.1482935l9.102356 0l0 9.102363l-9.102356 0z" fill-rule="evenodd"/><defs><linearGradient id="p.22" gradientUnits="userSpaceOnUse" gradientTransform="matrix(3.0170176542038476 0.0 0.0 3.0170176542038476 0.0 0.0)" spreadMethod="pad" x1="81.81107557447136" y1="5.020938681322314" x2="81.81106877794191" y2="8.037956335518507"><stop offset="0.0" stop-color="#696969"/><stop offset="1.0" stop-color="#1d1d1d"/></linearGradient></defs><path fill="url(#p.22)" d="m246.82545 15.1482935l9.102371 0l0 9.102363l-9.102371 0z" fill-rule="evenodd"/><path stroke="#000000" stroke-width="1.0" stroke-linejoin="round" stroke-linecap="butt" d="m246.82545 15.1482935l9.102371 0l0 9.102363l-9.102371 0z" fill-rule="evenodd"/><defs><linearGradient id="p.23" gradientUnits="userSpaceOnUse" gradientTransform="matrix(3.0170176542038476 0.0 0.0 3.0170176542038476 0.0 0.0)" spreadMethod="pad" x1="84.82808218430719" y1="5.020938681322314" x2="84.82807538777774" y2="8.037956335518507"><stop offset="0.0" stop-color="#696969"/><stop offset="1.0" stop-color="#1d1d1d"/></linearGradient></defs><path fill="url(#p.23)" d="m255.92783 15.1482935l9.102356 0l0 9.102363l-9.102356 0z" fill-rule="evenodd"/><path stroke="#000000" stroke-width="1.0" stroke-linejoin="round" stroke-linecap="butt" d="m255.92783 15.1482935l9.102356 0l0 9.102363l-9.102356 0z" fill-rule="evenodd"/><defs><linearGradient id="p.24" gradientUnits="userSpaceOnUse" gradientTransform="matrix(3.0170174418122953 0.0 0.0 3.0170174418122953 0.0 0.0)" spreadMethod="pad" x1="87.84509497824874" y1="5.0209394595687415" x2="87.84508818171881" y2="8.037956901373382"><stop offset="0.0" stop-color="#696969"/><stop offset="1.0" stop-color="#1d1d1d"/></linearGradient></defs><path fill="url(#p.24)" d="m265.03018 15.1482935l9.102356 0l0 9.102363l-9.102356 0z" fill-rule="evenodd"/><path stroke="#000000" stroke-width="1.0" stroke-linejoin="round" stroke-linecap="butt" d="m265.03018 15.1482935l9.102356 0l0 9.102363l-9.102356 0z" fill-rule="evenodd"/><defs><linearGradient id="p.25" gradientUnits="userSpaceOnUse" gradientTransform="matrix(3.0170176542038476 0.0 0.0 3.0170176542038476 0.0 0.0)" spreadMethod="pad" x1="92.36972875312692" y1="5.020938681322314" x2="92.36972195659747" y2="8.037956335518507"><stop offset="0.0" stop-color="#ffffff"/><stop offset="1.0" stop-color="#b3b3b3"/></linearGradient></defs><path fill="url(#p.25)" d="m278.6811 15.1482935l9.102386 0l0 9.102363l-9.102386 0z" fill-rule="evenodd"/><path stroke="#000000" stroke-width="1.0" stroke-linejoin="round" stroke-linecap="butt" d="m278.6811 15.1482935l9.102386 0l0 9.102363l-9.102386 0z" fill-rule="evenodd"/><defs><linearGradient id="p.26" gradientUnits="userSpaceOnUse" gradientTransform="matrix(2.3876364687407974 0.0 0.0 2.3876364687407974 0.0 0.0)" spreadMethod="pad" x1="117.43114925232608" y1="7.056794901640108" x2="117.43114066423085" y2="9.44443137036546"><stop offset="0.0" stop-color="#8c8c8c"/><stop offset="1.0" stop-color="#404040"/></linearGradient></defs><path fill="url(#p.26)" d="m280.3829 16.849081l5.700775 0l0 5.7007885l-5.700775 0z" fill-rule="evenodd"/><path stroke="#000000" stroke-width="1.0" stroke-linejoin="round" stroke-linecap="butt" d="m280.3829 16.849081l5.700775 0l0 5.7007885l-5.700775 0z" fill-rule="evenodd"/><defs><radialGradient id="p.27" gradientUnits="userSpaceOnUse" gradientTransform="matrix(7.197810133540891 0.0 0.0 7.197810133540891 0.0 0.0)" spreadMethod="pad" cx="54.98488204948714" cy="15.671855220876413" fx="54.98488204948714" fy="15.671855220876413" r="7.197810173034668"><stop offset="0.0" stop-color="#dddddd"/><stop offset="1.0" stop-color="#919191"/></radialGradient></defs><path fill="url(#p.27)" d="m346.76288 104.40147l89.61417 0l0 25.20472l-89.61417 0z" fill-rule="evenodd"/><defs><radialGradient id="p.28" gradientUnits="userSpaceOnUse" gradientTransform="matrix(7.197810133540891 0.0 0.0 7.197810133540891 0.0 0.0)" spreadMethod="pad" cx="54.98488204948714" cy="15.671855220876413" fx="54.98488204948714" fy="15.671855220876413" r="7.197810173034668"><stop offset="0.0" stop-color="#dddddd"/><stop offset="1.0" stop-color="#919191"/></radialGradient></defs><path fill="url(#p.28)" d="m436.37704 104.40147l8.401581 -8.401581l0 25.204727l-8.401581 8.401573z" fill-rule="evenodd"/><defs><radialGradient id="p.29" gradientUnits="userSpaceOnUse" gradientTransform="matrix(7.197810133540891 0.0 0.0 7.197810133540891 0.0 0.0)" spreadMethod="pad" cx="54.98488204948714" cy="15.671855220876413" fx="54.98488204948714" fy="15.671855220876413" r="7.197810173034668"><stop offset="0.0" stop-color="#dddddd"/><stop offset="1.0" stop-color="#919191"/></radialGradient></defs><path fill="url(#p.29)" d="m346.76288 104.40147l8.40155 -8.401581l89.6142 0l-8.401581 8.401581z" fill-rule="evenodd"/><path fill="#000000" fill-opacity="0.0" d="m346.76288 104.40147l8.40155 -8.401581l89.6142 0l0 25.204727l-8.401581 8.401573l-89.61417 0zm0 0l89.61417 0l8.401581 -8.401581m-8.401581 8.401581l0 25.20472" fill-rule="evenodd"/><path fill="#000000" fill-opacity="0.2" d="m436.37704 104.40147l8.401581 -8.401581l0 25.204727l-8.401581 8.401573z" fill-rule="evenodd"/><path fill="#ffffff" fill-opacity="0.2" d="m346.76288 104.40147l8.40155 -8.401581l89.6142 0l-8.401581 8.401581z" fill-rule="evenodd"/><path stroke="#000000" stroke-width="1.0" stroke-linejoin="round" stroke-linecap="butt" d="m346.76288 104.40147l8.40155 -8.401581l89.6142 0l0 25.204727l-8.401581 8.401573l-89.61417 0zm0 0l89.61417 0l8.401581 -8.401581m-8.401581 8.401581l0 25.20472" fill-rule="evenodd"/><defs><linearGradient id="p.30" gradientUnits="userSpaceOnUse" gradientTransform="matrix(3.0170172294322106 0.0 0.0 3.0170172294322106 0.0 0.0)" spreadMethod="pad" x1="116.09778872138233" y1="36.84044695571666" x2="116.09777512832152" y2="39.857464185118246"><stop offset="0.0" stop-color="#696969"/><stop offset="1.0" stop-color="#1d1d1d"/></linearGradient></defs><path fill="url(#p.30)" d="m350.26904 111.14829l9.102356 0l0 9.102364l-9.102356 0z" fill-rule="evenodd"/><path stroke="#000000" stroke-width="1.0" stroke-linejoin="round" stroke-linecap="butt" d="m350.26904 111.14829l9.102356 0l0 9.102364l-9.102356 0z" fill-rule="evenodd"/><defs><linearGradient id="p.31" gradientUnits="userSpaceOnUse" gradientTransform="matrix(3.0170172294322106 0.0 0.0 3.0170172294322106 0.0 0.0)" spreadMethod="pad" x1="119.11479575598831" y1="36.84044695571666" x2="119.1147821629275" y2="39.857464185118246"><stop offset="0.0" stop-color="#696969"/><stop offset="1.0" stop-color="#1d1d1d"/></linearGradient></defs><path fill="url(#p.31)" d="m359.3714 111.14829l9.102356 0l0 9.102364l-9.102356 0z" fill-rule="evenodd"/><path stroke="#000000" stroke-width="1.0" stroke-linejoin="round" stroke-linecap="butt" d="m359.3714 111.14829l9.102356 0l0 9.102364l-9.102356 0z" fill-rule="evenodd"/><defs><linearGradient id="p.32" gradientUnits="userSpaceOnUse" gradientTransform="matrix(3.0170172294322106 0.0 0.0 3.0170172294322106 0.0 0.0)" spreadMethod="pad" x1="122.13180279059429" y1="36.84044695571666" x2="122.13178919753346" y2="39.857464185118246"><stop offset="0.0" stop-color="#696969"/><stop offset="1.0" stop-color="#1d1d1d"/></linearGradient></defs><path fill="url(#p.32)" d="m368.47375 111.14829l9.102356 0l0 9.102364l-9.102356 0z" fill-rule="evenodd"/><path stroke="#000000" stroke-width="1.0" stroke-linejoin="round" stroke-linecap="butt" d="m368.47375 111.14829l9.102356 0l0 9.102364l-9.102356 0z" fill-rule="evenodd"/><defs><linearGradient id="p.33" gradientUnits="userSpaceOnUse" gradientTransform="matrix(3.0170172294322106 0.0 0.0 3.0170172294322106 0.0 0.0)" spreadMethod="pad" x1="126.65600840866475" y1="36.84044695571666" x2="126.65599481560393" y2="39.857464185118246"><stop offset="0.0" stop-color="#696969"/><stop offset="1.0" stop-color="#1d1d1d"/></linearGradient></defs><path fill="url(#p.33)" d="m382.12335 111.14829l9.102356 0l0 9.102364l-9.102356 0z" fill-rule="evenodd"/><path stroke="#000000" stroke-width="1.0" stroke-linejoin="round" stroke-linecap="butt" d="m382.12335 111.14829l9.102356 0l0 9.102364l-9.102356 0z" fill-rule="evenodd"/><defs><linearGradient id="p.34" gradientUnits="userSpaceOnUse" gradientTransform="matrix(3.0170172294322106 0.0 0.0 3.0170172294322106 0.0 0.0)" spreadMethod="pad" x1="129.6730154432707" y1="36.84044695571666" x2="129.6730018502099" y2="39.857464185118246"><stop offset="0.0" stop-color="#696969"/><stop offset="1.0" stop-color="#1d1d1d"/></linearGradient></defs><path fill="url(#p.34)" d="m391.2257 111.14829l9.102386 0l0 9.102364l-9.102386 0z" fill-rule="evenodd"/><path stroke="#000000" stroke-width="1.0" stroke-linejoin="round" stroke-linecap="butt" d="m391.2257 111.14829l9.102386 0l0 9.102364l-9.102386 0z" fill-rule="evenodd"/><defs><linearGradient id="p.35" gradientUnits="userSpaceOnUse" gradientTransform="matrix(3.017018928564334 0.0 0.0 3.017018928564334 0.0 0.0)" spreadMethod="pad" x1="132.68994774918426" y1="36.840422809560046" x2="132.68993415613107" y2="39.85744173809376"><stop offset="0.0" stop-color="#696969"/><stop offset="1.0" stop-color="#1d1d1d"/></linearGradient></defs><path fill="url(#p.35)" d="m400.3281 111.14829l9.102356 0l0 9.102364l-9.102356 0z" fill-rule="evenodd"/><path stroke="#000000" stroke-width="1.0" stroke-linejoin="round" stroke-linecap="butt" d="m400.3281 111.14829l9.102356 0l0 9.102364l-9.102356 0z" fill-rule="evenodd"/><defs><linearGradient id="p.36" gradientUnits="userSpaceOnUse" gradientTransform="matrix(3.0170172294322106 0.0 0.0 3.0170172294322106 0.0 0.0)" spreadMethod="pad" x1="135.70702951248268" y1="36.84044695571666" x2="135.70701591942185" y2="39.857464185118246"><stop offset="0.0" stop-color="#696969"/><stop offset="1.0" stop-color="#1d1d1d"/></linearGradient></defs><path fill="url(#p.36)" d="m409.43045 111.14829l9.102356 0l0 9.102364l-9.102356 0z" fill-rule="evenodd"/><path stroke="#000000" stroke-width="1.0" stroke-linejoin="round" stroke-linecap="butt" d="m409.43045 111.14829l9.102356 0l0 9.102364l-9.102356 0z" fill-rule="evenodd"/><path fill="#000000" fill-opacity="0.0" d="m247.1697 33.60619l0 31.19685l-136.0 0l0 31.196846" fill-rule="evenodd"/><path stroke="#ff0000" stroke-width="1.0" stroke-linejoin="round" stroke-linecap="butt" d="m247.1697 33.60619l0 31.19685l-136.0 0l0 31.196846" fill-rule="evenodd"/><path fill="#000000" fill-opacity="0.0" d="m247.1697 33.60619l0 31.19685l152.7874 0l0 31.196846" fill-rule="evenodd"/><path stroke="#ff0000" stroke-width="1.0" stroke-linejoin="round" stroke-linecap="butt" d="m247.1697 33.60619l0 31.19685l152.7874 0l0 31.196846" fill-rule="evenodd"/><path fill="#000000" fill-opacity="0.0" d="m102.76943 129.60619l0 45.316498l-64.50394 0l0 45.329178" fill-rule="evenodd"/><path stroke="#ff0000" stroke-width="1.0" stroke-linejoin="round" stroke-linecap="butt" d="m102.76943 129.60619l0 45.316498l-64.50394 0l0 45.329178" fill-rule="evenodd"/><path fill="#000000" fill-opacity="0.0" d="m102.76943 129.60619l0 62.69919l78.14173 0l0 62.686646" fill-rule="evenodd"/><path stroke="#ff0000" stroke-width="1.0" stroke-linejoin="round" stroke-linecap="butt" d="m102.76943 129.60619l0 62.69919l78.14173 0l0 62.686646" fill-rule="evenodd"/><path fill="#e6b8af" d="m147.89502 250.81496l66.04724 0l0 41.889755l-66.04724 0z" fill-rule="evenodd"/><path stroke="#000000" stroke-width="1.0" stroke-linejoin="round" stroke-linecap="butt" d="m147.89502 250.81496l66.04724 0l0 41.889755l-66.04724 0z" fill-rule="evenodd"/><path fill="#ffffff" d="m151.76903 255.00394l58.29921 0l0 33.51181l-58.29921 0z" fill-rule="evenodd"/><path stroke="#000000" stroke-width="1.0" stroke-linejoin="round" stroke-linecap="butt" d="m151.76903 255.00394l58.29921 0l0 33.51181l-58.29921 0z" fill-rule="evenodd"/><path fill="#000000" fill-opacity="0.0" d="m180.91864 292.7047l0 8.913391" fill-rule="evenodd"/><path stroke="#000000" stroke-width="1.0" stroke-linejoin="round" stroke-linecap="butt" d="m180.91864 292.7047l0 8.913391" fill-rule="evenodd"/><path fill="#000000" fill-opacity="0.0" d="m169.80052 301.6181l22.236221 0" fill-rule="evenodd"/><path stroke="#000000" stroke-width="1.0" stroke-linejoin="round" stroke-linecap="butt" d="m169.80052 301.6181l22.236221 0" fill-rule="evenodd"/><path fill="#000000" fill-opacity="0.0" d="m391.56995 129.60619l0 60.60327l-78.4252 0l0 60.593582" fill-rule="evenodd"/><path stroke="#ff0000" stroke-width="1.0" stroke-linejoin="round" stroke-linecap="butt" d="m391.56995 129.60619l0 60.60327l-78.4252 0l0 60.593582" fill-rule="evenodd"/><path fill="#000000" fill-opacity="0.0" d="m391.56995 129.60619l0 60.60327l79.46457 0l0 60.593582" fill-rule="evenodd"/><path stroke="#ff0000" stroke-width="1.0" stroke-linejoin="round" stroke-linecap="butt" d="m391.56995 129.60619l0 60.60327l79.46457 0l0 60.593582" fill-rule="evenodd"/><path fill="#000000" fill-opacity="0.0" d="m391.56995 129.60619l0.50393677 121.19685" fill-rule="evenodd"/><path stroke="#ff0000" stroke-width="1.0" stroke-linejoin="round" stroke-linecap="butt" d="m391.56995 129.60619l0.50393677 121.19685" fill-rule="evenodd"/></g></svg>