<svg version="1.1" viewBox="0.0 0.0 800.0 600.0" fill="none" stroke="none" stroke-linecap="square" stroke-miterlimit="10" xmlns:xlink="http://www.w3.org/1999/xlink" xmlns="http://www.w3.org/2000/svg"><clipPath id="p.0"><path d="m0 0l800.0 0l0 600.0l-800.0 0l0 -600.0z" clip-rule="nonzero"/></clipPath><g clip-path="url(#p.0)"><path fill="#000000" fill-opacity="0.0" d="m0 0l800.0 0l0 600.0l-800.0 0z" fill-rule="evenodd"/><path fill="#000000" fill-opacity="0.0" d="m156.48819 300.0l0 0c0 -77.39815 109.02396 -140.14174 243.51181 -140.14174l0 0c134.48785 0 243.51184 62.74359 243.51184 140.14174l0 0c0 77.39813 -109.02399 140.14172 -243.51184 140.14172l0 0c-134.48785 0 -243.51181 -62.74359 -243.51181 -140.14172z" fill-rule="evenodd"/><path stroke="#ff0000" stroke-width="3.0" stroke-linejoin="round" stroke-linecap="butt" d="m156.48819 300.0l0 0c0 -77.39815 109.02396 -140.14174 243.51181 -140.14174l0 0c134.48785 0 243.51184 62.74359 243.51184 140.14174l0 0c0 77.39813 -109.02399 140.14172 -243.51184 140.14172l0 0c-134.48785 0 -243.51181 -62.74359 -243.51181 -140.14172z" fill-rule="evenodd"/><path fill="#cfe2f3" d="m469.21652 406.38715l66.04727 0l0 41.88977l-66.04727 0z" fill-rule="evenodd"/><path stroke="#000000" stroke-width="1.0" stroke-linejoin="round" stroke-linecap="butt" d="m469.21652 406.38715l66.04727 0l0 41.88977l-66.04727 0z" fill-rule="evenodd"/><path fill="#ffffff" d="m473.09055 410.5761l58.299225 0l0 33.51181l-58.299225 0z" fill-rule="evenodd"/><path stroke="#000000" stroke-width="1.0" stroke-linejoin="round" stroke-linecap="butt" d="m473.09055 410.5761l58.299225 0l0 33.51181l-58.299225 0z" fill-rule="evenodd"/><path fill="#000000" fill-opacity="0.0" d="m502.24014 448.27692l0 8.913361" fill-rule="evenodd"/><path stroke="#000000" stroke-width="1.0" stroke-linejoin="round" stroke-linecap="butt" d="m502.24014 448.27692l0 8.913361" fill-rule="evenodd"/><path fill="#000000" fill-opacity="0.0" d="m491.12204 457.19028l22.236237 0" fill-rule="evenodd"/><path stroke="#000000" stroke-width="1.0" stroke-linejoin="round" stroke-linecap="butt" d="m491.12204 457.19028l22.236237 0" fill-rule="evenodd"/><path fill="#ead1dc" d="m255.58661 406.38715l66.04724 0l0 41.88977l-66.04724 0z" fill-rule="evenodd"/><path stroke="#000000" stroke-width="1.0" stroke-linejoin="round" stroke-linecap="butt" d="m255.58661 406.38715l66.04724 0l0 41.88977l-66.04724 0z" fill-rule="evenodd"/><path fill="#ffffff" d="m259.46063 410.5761l58.299225 0l0 33.51181l-58.299225 0z" fill-rule="evenodd"/><path stroke="#000000" stroke-width="1.0" stroke-linejoin="round" stroke-linecap="butt" d="m259.46063 410.5761l58.299225 0l0 33.51181l-58.299225 0z" fill-rule="evenodd"/><path fill="#000000" fill-opacity="0.0" d="m288.61023 448.27692l0 8.913361" fill-rule="evenodd"/><path stroke="#000000" stroke-width="1.0" stroke-linejoin="round" stroke-linecap="butt" d="m288.61023 448.27692l0 8.913361" fill-rule="evenodd"/><path fill="#000000" fill-opacity="0.0" d="m277.49213 457.19028l22.236206 0" fill-rule="evenodd"/><path stroke="#000000" stroke-width="1.0" stroke-linejoin="round" stroke-linecap="butt" d="m277.49213 457.19028l22.236206 0" fill-rule="evenodd"/><path fill="#fff2cc" d="m122.99475 274.5971l66.04724 0l0 41.88977l-66.04724 0z" fill-rule="evenodd"/><path stroke="#000000" stroke-width="1.0" stroke-linejoin="round" stroke-linecap="butt" d="m122.99475 274.5971l66.04724 0l0 41.88977l-66.04724 0z" fill-rule="evenodd"/><path fill="#ffffff" d="m126.86877 278.7861l58.299217 0l0 33.51181l-58.299217 0z" fill-rule="evenodd"/><path stroke="#000000" stroke-width="1.0" stroke-linejoin="round" stroke-linecap="butt" d="m126.86877 278.7861l58.299217 0l0 33.51181l-58.299217 0z" fill-rule="evenodd"/><path fill="#000000" fill-opacity="0.0" d="m156.01837 316.48688l0 8.913391" fill-rule="evenodd"/><path stroke="#000000" stroke-width="1.0" stroke-linejoin="round" stroke-linecap="butt" d="m156.01837 316.48688l0 8.913391" fill-rule="evenodd"/><path fill="#000000" fill-opacity="0.0" d="m144.90027 325.40027l22.236221 0" fill-rule="evenodd"/><path stroke="#000000" stroke-width="1.0" stroke-linejoin="round" stroke-linecap="butt" d="m144.90027 325.40027l22.236221 0" fill-rule="evenodd"/><path fill="#e6b8af" d="m255.58661 152.93176l66.04724 0l0 41.889755l-66.04724 0z" fill-rule="evenodd"/><path stroke="#000000" stroke-width="1.0" stroke-linejoin="round" stroke-linecap="butt" d="m255.58661 152.93176l66.04724 0l0 41.889755l-66.04724 0z" fill-rule="evenodd"/><path fill="#ffffff" d="m259.46063 157.12073l58.299225 0l0 33.511826l-58.299225 0z" fill-rule="evenodd"/><path stroke="#000000" stroke-width="1.0" stroke-linejoin="round" stroke-linecap="butt" d="m259.46063 157.12073l58.299225 0l0 33.511826l-58.299225 0z" fill-rule="evenodd"/><path fill="#000000" fill-opacity="0.0" d="m288.61023 194.82152l0 8.913391" fill-rule="evenodd"/><path stroke="#000000" stroke-width="1.0" stroke-linejoin="round" stroke-linecap="butt" d="m288.61023 194.82152l0 8.913391" fill-rule="evenodd"/><path fill="#000000" fill-opacity="0.0" d="m277.49213 203.73491l22.236206 0" fill-rule="evenodd"/><path stroke="#000000" stroke-width="1.0" stroke-linejoin="round" stroke-linecap="butt" d="m277.49213 203.73491l22.236206 0" fill-rule="evenodd"/><path fill="#cccccc" d="m611.0906 274.59842l66.04724 0l0 41.88977l-66.04724 0z" fill-rule="evenodd"/><path stroke="#000000" stroke-width="1.0" stroke-linejoin="round" stroke-linecap="butt" d="m611.0906 274.59842l66.04724 0l0 41.88977l-66.04724 0z" fill-rule="evenodd"/><path fill="#ffffff" d="m614.96454 278.7874l58.299255 0l0 33.51181l-58.299255 0z" fill-rule="evenodd"/><path stroke="#000000" stroke-width="1.0" stroke-linejoin="round" stroke-linecap="butt" d="m614.96454 278.7874l58.299255 0l0 33.51181l-58.299255 0z" fill-rule="evenodd"/><path fill="#000000" fill-opacity="0.0" d="m644.1142 316.4882l0 8.913391" fill-rule="evenodd"/><path stroke="#000000" stroke-width="1.0" stroke-linejoin="round" stroke-linecap="butt" d="m644.1142 316.4882l0 8.913391" fill-rule="evenodd"/><path fill="#000000" fill-opacity="0.0" d="m632.99603 325.40158l22.236267 0" fill-rule="evenodd"/><path stroke="#000000" stroke-width="1.0" stroke-linejoin="round" stroke-linecap="butt" d="m632.99603 325.40158l22.236267 0" fill-rule="evenodd"/><path fill="#d9ead3" d="m469.21783 152.93045l66.04724 0l0 41.889755l-66.04724 0z" fill-rule="evenodd"/><path stroke="#000000" stroke-width="1.0" stroke-linejoin="round" stroke-linecap="butt" d="m469.21783 152.93045l66.04724 0l0 41.889755l-66.04724 0z" fill-rule="evenodd"/><path fill="#ffffff" d="m473.09186 157.11942l58.299194 0l0 33.511826l-58.299194 0z" fill-rule="evenodd"/><path stroke="#000000" stroke-width="1.0" stroke-linejoin="round" stroke-linecap="butt" d="m473.09186 157.11942l58.299194 0l0 33.511826l-58.299194 0z" fill-rule="evenodd"/><path fill="#000000" fill-opacity="0.0" d="m502.24146 194.8202l0 8.913391" fill-rule="evenodd"/><path stroke="#000000" stroke-width="1.0" stroke-linejoin="round" stroke-linecap="butt" d="m502.24146 194.8202l0 8.913391" fill-rule="evenodd"/><path fill="#000000" fill-opacity="0.0" d="m491.12335 203.7336l22.236206 0" fill-rule="evenodd"/><path stroke="#000000" stroke-width="1.0" stroke-linejoin="round" stroke-linecap="butt" d="m491.12335 203.7336l22.236206 0" fill-rule="evenodd"/><path fill="#000000" fill-opacity="0.0" d="m153.92126 487.2467l492.15747 0l0 42.015747l-492.15747 0z" fill-rule="evenodd"/><path fill="#000000" d="m352.9415 514.1667l6.46875 -12.9218445l6.46875 12.9218445l-12.9375 0z" fill-rule="nonzero"/><path fill="#000000" d="m386.51163 515.94794l-1.484375 0l0 -3.78125q-1.78125 2.0 -4.515625 2.8125l-0.59375 -1.484375q3.5625 -0.96875 4.96875 -3.1093445l-2.828125 0l0 -3.859375l8.015625 0l0 3.625l1.1875 1.046875q0.078125 0.375 -0.359375 0.21875q-1.265625 0.7499695 -2.3125 1.1093445q1.34375 0.890625 3.265625 1.34375l-0.515625 1.5625q-3.109375 -1.046875 -4.828125 -3.125l0 3.640625zm1.1875 -4.1562195q0.59375 -0.296875 2.015625 -1.40625l-3.34375 0q0.59375 0.8125 1.328125 1.40625zm-7.265625 -7.34375l11.203125 0l0 1.1875l-11.203125 0l0 -1.1875zm-0.15625 2.8125l-1.78125 0l0 4.15625l2.078125 -0.734375l0.296875 1.3280945l-5.1875 2.15625q-0.078125 0.375 -0.375 0.15625l-0.59375 -1.71875l2.296875 -0.6718445l0 -4.671875l-1.78125 0l0 -1.40625l1.78125 0l0 -4.15625l-2.078125 0l0 -1.40625l5.578125 0l0 1.40625l-2.015625 0l0 4.15625l1.78125 0l0 1.40625zm8.546875 0.453125l-5.5 0l0 1.484375l5.5 0l0 -1.484375zm2.0 -4.15625l-9.5 0l0 -4.3125l9.5 0l0 4.3125zm-1.265625 -3.125l-1.484375 0l0 1.9375l1.484375 0l0 -1.9375zm-2.75 0l-1.484375 0l0 1.9375l1.484375 0l0 -1.9375zm-2.734375 0l-1.484375 0l0 1.9375l1.484375 0l0 -1.9375zm12.234375 6.609375l-2.140625 0l0 -1.40625l2.140625 0l0 -4.09375l-1.484375 0l0 -1.40625l7.875 0l0 1.40625l-1.40625 0l0 4.09375l2.140625 0l0 1.40625l-2.140625 0l0 8.3905945l-1.484375 0l0 -8.3905945l-2.015625 0l0 1.265625q0 4.7499695 -1.921875 7.1249695l-1.40625 -1.109375q1.84375 -1.859375 1.84375 -6.0155945l0 -1.265625zm3.5 -5.5l-2.015625 0l0 4.09375l2.015625 0l0 -4.09375zm3.265625 2.53125q3.625 -1.9375 4.8125 -4.15625l1.484375 1.109375q0.234375 0.15625 -0.359375 0.296875q-1.265625 2.15625 -4.984375 4.234375l-0.953125 -1.484375zm-0.078125 4.59375q4.234375 -1.84375 5.484375 -4.453125l1.484375 1.1875q0.234375 0.15625 -0.359375 0.296875q-2.078125 2.90625 -5.578125 4.609375l-1.03125 -1.640625zm7.859375 0.75q0.375 0.140625 -0.359375 0.375q-2.453125 3.6249695 -7.0625 5.4218445l-0.890625 -1.640625q4.75 -1.7812195 6.828125 -5.3437195l1.484375 1.1875zm1.859375 3.9374695q0.59375 -1.7187195 0.890625 -4.0937195l1.34375 0.296875q0.21875 0.234375 -0.15625 0.453125q-0.296875 2.2968445 -0.8125 3.9374695l-1.265625 -0.59375zm2.890625 -6.6093445l2.3125 -0.15625l-0.59375 -1.25l1.109375 -0.53125q0.734375 1.1875 1.328125 2.828125l0 -8.171875l9.4375 0l0 14.9999695q0 1.109375 -0.96875 1.109375l-1.40625 0l-0.296875 -1.1875l1.1875 0q0.21875 0 0.21875 -0.21875l0 -5.4999695l-4.078125 0l0 2.078125q0 0.453125 0.4375 0.453125l2.59375 0l0 1.1874695l-2.96875 0q-1.328125 0 -1.328125 -1.3437195l0 -2.375l-1.5625 0l0 7.1405945l-1.265625 0l0 -7.7968445l-1.109375 0.515625l-0.296875 -0.75l-1.40625 0.15625l0 7.7968445l-1.265625 0l0 -7.6562195l-2.375 0.234375q-0.21875 0.65625 -0.375 0.21875l-0.21875 -1.703125l1.265625 0l1.265625 -1.71875q-1.265625 -1.40625 -2.453125 -2.4375l0.890625 -0.96875l0.671875 0.671875l1.78125 -3.5l1.25 0.75q0.375 0.296875 -0.296875 0.375l-1.84375 3.265625l0.734375 0.734375l1.859375 -2.96875l1.1875 0.8125q0.375 0.296875 -0.296875 0.375l-3.125 4.53125zm9.28125 -2.15625l1.046875 -3.265625l1.40625 0.375q0.515625 0.140625 -0.21875 0.375l-1.125 2.515625l1.9375 0l0 -3.9375l-6.90625 0l0 3.9375l3.859375 0zm-6.234375 4.53125q0.671875 1.5625 0.890625 3.5624695l-1.265625 0.515625q-0.21875 -2.0780945 -0.734375 -3.7030945l1.109375 -0.375zm4.453125 -7.71875q0.671875 0.8125 1.265625 2.296875l-1.1875 0.515625q-0.515625 -1.484375 -1.1875 -2.375l1.109375 -0.4375zm-2.078125 6.078125l2.828125 0l0 -1.703125l-2.828125 0l0 1.703125zm6.90625 0l0 -1.703125l-2.828125 0l0 1.703125l2.828125 0zm17.953125 6.0155945l0 -3.3437195l-3.703125 0l0 3.3437195l3.703125 0zm1.484375 2.015625l-1.484375 0l0 -0.828125l-3.703125 0l0 1.046875l-1.484375 0l0 -6.7655945l6.671875 0l0 6.5468445zm-5.265625 -13.8124695q0.375 1.03125 1.859375 2.671875q1.328125 -1.78125 1.703125 -2.671875l-3.5625 0zm1.859375 4.75q-2.59375 2.375 -4.828125 3.1875l-0.671875 -1.484375q2.078125 -0.671875 4.53125 -2.8125q-0.59375 -0.59375 -1.5625 -2.15625q-0.734375 1.703125 -1.484375 2.453125l-1.109375 -1.125q1.78125 -2.375 2.75 -5.9375l1.5625 0.453125q0.296875 0.296875 -0.234375 0.375l-0.359375 0.890625l3.78125 0l0.21875 -0.375l1.1875 0.96875q0.296875 0.21875 -0.296875 0.4375q-1.03125 2.375 -2.453125 4.015625q2.53125 1.921875 4.3125 2.515625l-0.59375 1.640625q-1.78125 -0.59375 -4.75 -3.046875zm-5.421875 -6.6875l0 5.5l-1.859375 0l0 2.75l1.71875 0l0 1.40625l-1.71875 0l0 3.4062195l2.609375 -0.8125l0.296875 1.34375l-6.828125 1.921875q-0.078125 0.59375 -0.375 0.296875l-0.59375 -1.625l0.890625 -0.15625l0 -6.9062195l1.40625 0q0.59375 0.078125 0.078125 0.453125l0 6.0780945l1.03125 -0.21875l0 -7.9374695l-1.328125 0l-1.265625 0l0 -5.5l5.9375 0zm-1.484375 4.3125l0 -3.125l-2.96875 0l0 3.125l2.96875 0z" fill-rule="nonzero"/></g></svg>