<svg version="1.1" viewBox="0.0 0.0 556.0971128608924 309.0236220472441" fill="none" stroke="none" stroke-linecap="square" stroke-miterlimit="10" xmlns:xlink="http://www.w3.org/1999/xlink" xmlns="http://www.w3.org/2000/svg"><clipPath id="p.0"><path d="m0 0l556.0971 0l0 309.02362l-556.0971 0l0 -309.02362z" clip-rule="nonzero"/></clipPath><g clip-path="url(#p.0)"><path fill="#000000" fill-opacity="0.0" d="m0 0l556.0971 0l0 309.02362l-556.0971 0z" fill-rule="evenodd"/><path fill="#000000" fill-opacity="0.0" d="m33.49344 147.06824l0 0c0 -77.39814 109.02396 -140.14172 243.51181 -140.14172l0 0c134.48785 0 243.51184 62.743587 243.51184 140.14172l0 0c0 77.39815 -109.02399 140.14172 -243.51184 140.14172l0 0c-134.48785 0 -243.51181 -62.743576 -243.51181 -140.14172z" fill-rule="evenodd"/><path stroke="#ff0000" stroke-width="3.0" stroke-linejoin="round" stroke-linecap="butt" d="m33.49344 147.06824l0 0c0 -77.39814 109.02396 -140.14172 243.51181 -140.14172l0 0c134.48785 0 243.51184 62.743587 243.51184 140.14172l0 0c0 77.39815 -109.02399 140.14172 -243.51184 140.14172l0 0c-134.48785 0 -243.51181 -62.743576 -243.51181 -140.14172z" fill-rule="evenodd"/><path fill="#cfe2f3" d="m346.22177 253.45538l66.04727 0l0 41.88977l-66.04727 0z" fill-rule="evenodd"/><path stroke="#000000" stroke-width="1.0" stroke-linejoin="round" stroke-linecap="butt" d="m346.22177 253.45538l66.04727 0l0 41.88977l-66.04727 0z" fill-rule="evenodd"/><path fill="#ffffff" d="m350.0958 257.64435l58.299225 0l0 33.51181l-58.299225 0z" fill-rule="evenodd"/><path stroke="#000000" stroke-width="1.0" stroke-linejoin="round" stroke-linecap="butt" d="m350.0958 257.64435l58.299225 0l0 33.51181l-58.299225 0z" fill-rule="evenodd"/><path fill="#000000" fill-opacity="0.0" d="m379.2454 295.34515l0 8.913391" fill-rule="evenodd"/><path stroke="#000000" stroke-width="1.0" stroke-linejoin="round" stroke-linecap="butt" d="m379.2454 295.34515l0 8.913391" fill-rule="evenodd"/><path fill="#000000" fill-opacity="0.0" d="m368.1273 304.25854l22.236237 0" fill-rule="evenodd"/><path stroke="#000000" stroke-width="1.0" stroke-linejoin="round" stroke-linecap="butt" d="m368.1273 304.25854l22.236237 0" fill-rule="evenodd"/><path fill="#ead1dc" d="m132.59186 253.45538l66.04726 0l0 41.88977l-66.04726 0z" fill-rule="evenodd"/><path stroke="#000000" stroke-width="1.0" stroke-linejoin="round" stroke-linecap="butt" d="m132.59186 253.45538l66.04726 0l0 41.88977l-66.04726 0z" fill-rule="evenodd"/><path fill="#ffffff" d="m136.46588 257.64435l58.29921 0l0 33.51181l-58.29921 0z" fill-rule="evenodd"/><path stroke="#000000" stroke-width="1.0" stroke-linejoin="round" stroke-linecap="butt" d="m136.46588 257.64435l58.29921 0l0 33.51181l-58.29921 0z" fill-rule="evenodd"/><path fill="#000000" fill-opacity="0.0" d="m165.61548 295.34515l0 8.913391" fill-rule="evenodd"/><path stroke="#000000" stroke-width="1.0" stroke-linejoin="round" stroke-linecap="butt" d="m165.61548 295.34515l0 8.913391" fill-rule="evenodd"/><path fill="#000000" fill-opacity="0.0" d="m154.49738 304.25854l22.236221 0" fill-rule="evenodd"/><path stroke="#000000" stroke-width="1.0" stroke-linejoin="round" stroke-linecap="butt" d="m154.49738 304.25854l22.236221 0" fill-rule="evenodd"/><path fill="#fff2cc" d="m0 121.66535l66.04724 0l0 41.889763l-66.04724 0z" fill-rule="evenodd"/><path stroke="#000000" stroke-width="1.0" stroke-linejoin="round" stroke-linecap="butt" d="m0 121.66535l66.04724 0l0 41.889763l-66.04724 0z" fill-rule="evenodd"/><path fill="#ffffff" d="m3.8740158 125.85433l58.299213 0l0 33.511803l-58.299213 0z" fill-rule="evenodd"/><path stroke="#000000" stroke-width="1.0" stroke-linejoin="round" stroke-linecap="butt" d="m3.8740158 125.85433l58.299213 0l0 33.511803l-58.299213 0z" fill-rule="evenodd"/><path fill="#000000" fill-opacity="0.0" d="m33.02362 163.55511l0 8.913391" fill-rule="evenodd"/><path stroke="#000000" stroke-width="1.0" stroke-linejoin="round" stroke-linecap="butt" d="m33.02362 163.55511l0 8.913391" fill-rule="evenodd"/><path fill="#000000" fill-opacity="0.0" d="m21.905512 172.4685l22.23622 0" fill-rule="evenodd"/><path stroke="#000000" stroke-width="1.0" stroke-linejoin="round" stroke-linecap="butt" d="m21.905512 172.4685l22.23622 0" fill-rule="evenodd"/><path fill="#e6b8af" d="m132.59186 0l66.04726 0l0 41.889763l-66.04726 0z" fill-rule="evenodd"/><path stroke="#000000" stroke-width="1.0" stroke-linejoin="round" stroke-linecap="butt" d="m132.59186 0l66.04726 0l0 41.889763l-66.04726 0z" fill-rule="evenodd"/><path fill="#ffffff" d="m136.46588 4.1889763l58.29921 0l0 33.51181l-58.29921 0z" fill-rule="evenodd"/><path stroke="#000000" stroke-width="1.0" stroke-linejoin="round" stroke-linecap="butt" d="m136.46588 4.1889763l58.29921 0l0 33.51181l-58.29921 0z" fill-rule="evenodd"/><path fill="#000000" fill-opacity="0.0" d="m165.61548 41.889763l0 8.913387" fill-rule="evenodd"/><path stroke="#000000" stroke-width="1.0" stroke-linejoin="round" stroke-linecap="butt" d="m165.61548 41.889763l0 8.913387" fill-rule="evenodd"/><path fill="#000000" fill-opacity="0.0" d="m154.49738 50.80315l22.236221 0" fill-rule="evenodd"/><path stroke="#000000" stroke-width="1.0" stroke-linejoin="round" stroke-linecap="butt" d="m154.49738 50.80315l22.236221 0" fill-rule="evenodd"/><path fill="#cccccc" d="m488.0958 121.666664l66.04727 0l0 41.889763l-66.04727 0z" fill-rule="evenodd"/><path stroke="#000000" stroke-width="1.0" stroke-linejoin="round" stroke-linecap="butt" d="m488.0958 121.666664l66.04727 0l0 41.889763l-66.04727 0z" fill-rule="evenodd"/><path fill="#ffffff" d="m491.96982 125.855644l58.299225 0l0 33.511803l-58.299225 0z" fill-rule="evenodd"/><path stroke="#000000" stroke-width="1.0" stroke-linejoin="round" stroke-linecap="butt" d="m491.96982 125.855644l58.299225 0l0 33.511803l-58.299225 0z" fill-rule="evenodd"/><path fill="#000000" fill-opacity="0.0" d="m521.11945 163.55643l0 8.913391" fill-rule="evenodd"/><path stroke="#000000" stroke-width="1.0" stroke-linejoin="round" stroke-linecap="butt" d="m521.11945 163.55643l0 8.913391" fill-rule="evenodd"/><path fill="#000000" fill-opacity="0.0" d="m510.0013 172.46982l22.236237 0" fill-rule="evenodd"/><path stroke="#000000" stroke-width="1.0" stroke-linejoin="round" stroke-linecap="butt" d="m510.0013 172.46982l22.236237 0" fill-rule="evenodd"/><path fill="#d9ead3" d="m346.22308 -0.001312336l66.04727 0l0 41.889763l-66.04727 0z" fill-rule="evenodd"/><path stroke="#000000" stroke-width="1.0" stroke-linejoin="round" stroke-linecap="butt" d="m346.22308 -0.001312336l66.04727 0l0 41.889763l-66.04727 0z" fill-rule="evenodd"/><path fill="#ffffff" d="m350.0971 4.187664l58.299225 0l0 33.51181l-58.299225 0z" fill-rule="evenodd"/><path stroke="#000000" stroke-width="1.0" stroke-linejoin="round" stroke-linecap="butt" d="m350.0971 4.187664l58.299225 0l0 33.51181l-58.299225 0z" fill-rule="evenodd"/><path fill="#000000" fill-opacity="0.0" d="m379.2467 41.88845l0 8.913387" fill-rule="evenodd"/><path stroke="#000000" stroke-width="1.0" stroke-linejoin="round" stroke-linecap="butt" d="m379.2467 41.88845l0 8.913387" fill-rule="evenodd"/><path fill="#000000" fill-opacity="0.0" d="m368.1286 50.801838l22.236237 0" fill-rule="evenodd"/><path stroke="#000000" stroke-width="1.0" stroke-linejoin="round" stroke-linecap="butt" d="m368.1286 50.801838l22.236237 0" fill-rule="evenodd"/></g></svg>