<svg version="1.1" viewBox="0.0 0.0 414.87926509186354 312.68241469816275" fill="none" stroke="none" stroke-linecap="square" stroke-miterlimit="10" xmlns:xlink="http://www.w3.org/1999/xlink" xmlns="http://www.w3.org/2000/svg"><clipPath id="p.0"><path d="m0 0l414.87927 0l0 312.6824l-414.87927 0l0 -312.6824z" clip-rule="nonzero"/></clipPath><g clip-path="url(#p.0)"><path fill="#000000" fill-opacity="0.0" d="m0 0l414.87927 0l0 312.6824l-414.87927 0z" fill-rule="evenodd"/><path fill="#cfe2f3" d="m342.14304 127.426506l66.04724 0l0 41.889763l-66.04724 0z" fill-rule="evenodd"/><path stroke="#000000" stroke-width="1.0" stroke-linejoin="round" stroke-linecap="butt" d="m342.14304 127.426506l66.04724 0l0 41.889763l-66.04724 0z" fill-rule="evenodd"/><path fill="#ffffff" d="m346.01706 131.61548l58.299225 0l0 33.511826l-58.299225 0z" fill-rule="evenodd"/><path stroke="#000000" stroke-width="1.0" stroke-linejoin="round" stroke-linecap="butt" d="m346.01706 131.61548l58.299225 0l0 33.511826l-58.299225 0z" fill-rule="evenodd"/><path fill="#000000" fill-opacity="0.0" d="m375.16666 169.31627l0 8.913391" fill-rule="evenodd"/><path stroke="#000000" stroke-width="1.0" stroke-linejoin="round" stroke-linecap="butt" d="m375.16666 169.31627l0 8.913391" fill-rule="evenodd"/><path fill="#000000" fill-opacity="0.0" d="m364.04855 178.22966l22.236237 0" fill-rule="evenodd"/><path stroke="#000000" stroke-width="1.0" stroke-linejoin="round" stroke-linecap="butt" d="m364.04855 178.22966l22.236237 0" fill-rule="evenodd"/><path fill="#ead1dc" d="m-0.001312336 127.426506l66.04724 0l0 41.889763l-66.04724 0z" fill-rule="evenodd"/><path stroke="#000000" stroke-width="1.0" stroke-linejoin="round" stroke-linecap="butt" d="m-0.001312336 127.426506l66.04724 0l0 41.889763l-66.04724 0z" fill-rule="evenodd"/><path fill="#ffffff" d="m3.8727033 131.61548l58.299213 0l0 33.511826l-58.299213 0z" fill-rule="evenodd"/><path stroke="#000000" stroke-width="1.0" stroke-linejoin="round" stroke-linecap="butt" d="m3.8727033 131.61548l58.299213 0l0 33.511826l-58.299213 0z" fill-rule="evenodd"/><path fill="#000000" fill-opacity="0.0" d="m33.02231 169.31627l0 8.913391" fill-rule="evenodd"/><path stroke="#000000" stroke-width="1.0" stroke-linejoin="round" stroke-linecap="butt" d="m33.02231 169.31627l0 8.913391" fill-rule="evenodd"/><path fill="#000000" fill-opacity="0.0" d="m21.9042 178.22966l22.23622 0" fill-rule="evenodd"/><path stroke="#000000" stroke-width="1.0" stroke-linejoin="round" stroke-linecap="butt" d="m21.9042 178.22966l22.23622 0" fill-rule="evenodd"/><path fill="#fff2cc" d="m306.48557 -0.001312336l66.04724 0l0 41.889763l-66.04724 0z" fill-rule="evenodd"/><path stroke="#000000" stroke-width="1.0" stroke-linejoin="round" stroke-linecap="butt" d="m306.48557 -0.001312336l66.04724 0l0 41.889763l-66.04724 0z" fill-rule="evenodd"/><path fill="#ffffff" d="m310.3596 4.187664l58.299194 0l0 33.51181l-58.299194 0z" fill-rule="evenodd"/><path stroke="#000000" stroke-width="1.0" stroke-linejoin="round" stroke-linecap="butt" d="m310.3596 4.187664l58.299194 0l0 33.51181l-58.299194 0z" fill-rule="evenodd"/><path fill="#000000" fill-opacity="0.0" d="m339.5092 41.88845l0 8.913387" fill-rule="evenodd"/><path stroke="#000000" stroke-width="1.0" stroke-linejoin="round" stroke-linecap="butt" d="m339.5092 41.88845l0 8.913387" fill-rule="evenodd"/><path fill="#000000" fill-opacity="0.0" d="m328.39108 50.801838l22.236206 0" fill-rule="evenodd"/><path stroke="#000000" stroke-width="1.0" stroke-linejoin="round" stroke-linecap="butt" d="m328.39108 50.801838l22.236206 0" fill-rule="evenodd"/><path fill="#000000" fill-opacity="0.0" d="m66.04593 148.37138l276.09448 0" fill-rule="evenodd"/><path stroke="#ff0000" stroke-width="1.0" stroke-linejoin="round" stroke-linecap="butt" d="m66.04593 148.37138l276.09448 0" fill-rule="evenodd"/><path fill="#e6b8af" d="m35.657482 0l66.04724 0l0 41.889763l-66.04724 0z" fill-rule="evenodd"/><path stroke="#000000" stroke-width="1.0" stroke-linejoin="round" stroke-linecap="butt" d="m35.657482 0l66.04724 0l0 41.889763l-66.04724 0z" fill-rule="evenodd"/><path fill="#ffffff" d="m39.531498 4.1889763l58.299213 0l0 33.51181l-58.299213 0z" fill-rule="evenodd"/><path stroke="#000000" stroke-width="1.0" stroke-linejoin="round" stroke-linecap="butt" d="m39.531498 4.1889763l58.299213 0l0 33.51181l-58.299213 0z" fill-rule="evenodd"/><path fill="#000000" fill-opacity="0.0" d="m68.6811 41.889763l0 8.913387" fill-rule="evenodd"/><path stroke="#000000" stroke-width="1.0" stroke-linejoin="round" stroke-linecap="butt" d="m68.6811 41.889763l0 8.913387" fill-rule="evenodd"/><path fill="#000000" fill-opacity="0.0" d="m57.562992 50.80315l22.236217 0" fill-rule="evenodd"/><path stroke="#000000" stroke-width="1.0" stroke-linejoin="round" stroke-linecap="butt" d="m57.562992 50.80315l22.236217 0" fill-rule="evenodd"/><path fill="#cccccc" d="m306.48425 254.85301l66.04724 0l0 41.889755l-66.04724 0z" fill-rule="evenodd"/><path stroke="#000000" stroke-width="1.0" stroke-linejoin="round" stroke-linecap="butt" d="m306.48425 254.85301l66.04724 0l0 41.889755l-66.04724 0z" fill-rule="evenodd"/><path fill="#ffffff" d="m310.35828 259.042l58.299194 0l0 33.51181l-58.299194 0z" fill-rule="evenodd"/><path stroke="#000000" stroke-width="1.0" stroke-linejoin="round" stroke-linecap="butt" d="m310.35828 259.042l58.299194 0l0 33.51181l-58.299194 0z" fill-rule="evenodd"/><path fill="#000000" fill-opacity="0.0" d="m339.50787 296.74277l0 8.913391" fill-rule="evenodd"/><path stroke="#000000" stroke-width="1.0" stroke-linejoin="round" stroke-linecap="butt" d="m339.50787 296.74277l0 8.913391" fill-rule="evenodd"/><path fill="#000000" fill-opacity="0.0" d="m328.38977 305.65616l22.236206 0" fill-rule="evenodd"/><path stroke="#000000" stroke-width="1.0" stroke-linejoin="round" stroke-linecap="butt" d="m328.38977 305.65616l22.236206 0" fill-rule="evenodd"/><path fill="#000000" fill-opacity="0.0" d="m101.70473 20.944881l204.7874 254.86615" fill-rule="evenodd"/><path stroke="#ff0000" stroke-width="1.0" stroke-linejoin="round" stroke-linecap="butt" d="m101.70473 20.944881l204.7874 254.86615" fill-rule="evenodd"/><path fill="#d9ead3" d="m35.658794 254.8517l66.04724 0l0 41.889755l-66.04724 0z" fill-rule="evenodd"/><path stroke="#000000" stroke-width="1.0" stroke-linejoin="round" stroke-linecap="butt" d="m35.658794 254.8517l66.04724 0l0 41.889755l-66.04724 0z" fill-rule="evenodd"/><path fill="#ffffff" d="m39.53281 259.04068l58.299213 0l0 33.51181l-58.299213 0z" fill-rule="evenodd"/><path stroke="#000000" stroke-width="1.0" stroke-linejoin="round" stroke-linecap="butt" d="m39.53281 259.04068l58.299213 0l0 33.51181l-58.299213 0z" fill-rule="evenodd"/><path fill="#000000" fill-opacity="0.0" d="m68.68241 296.74146l0 8.913391" fill-rule="evenodd"/><path stroke="#000000" stroke-width="1.0" stroke-linejoin="round" stroke-linecap="butt" d="m68.68241 296.74146l0 8.913391" fill-rule="evenodd"/><path fill="#000000" fill-opacity="0.0" d="m57.564304 305.65485l22.236217 0" fill-rule="evenodd"/><path stroke="#000000" stroke-width="1.0" stroke-linejoin="round" stroke-linecap="butt" d="m57.564304 305.65485l22.236217 0" fill-rule="evenodd"/><path fill="#000000" fill-opacity="0.0" d="m306.4882 20.937008l-204.7874 254.86615" fill-rule="evenodd"/><path stroke="#ff0000" stroke-width="1.0" stroke-linejoin="round" stroke-linecap="butt" d="m306.4882 20.937008l-204.7874 254.86615" fill-rule="evenodd"/><defs><radialGradient id="p.1" gradientUnits="userSpaceOnUse" gradientTransform="matrix(9.148147751510388 0.0 0.0 9.148147751510388 0.0 0.0)" spreadMethod="pad" cx="22.326852318087973" cy="16.705904642201357" fx="22.326852318087973" fy="16.705904642201357" r="9.148147583007812"><stop offset="0.0" stop-color="#8c8c8c"/><stop offset="1.0" stop-color="#404040"/></radialGradient></defs><path fill="url(#p.1)" d="m164.28084 99.284775l59.95276 0l0 127.07086l-59.95276 0z" fill-rule="evenodd"/><defs><radialGradient id="p.2" gradientUnits="userSpaceOnUse" gradientTransform="matrix(9.148147751510388 0.0 0.0 9.148147751510388 0.0 0.0)" spreadMethod="pad" cx="22.326852318087973" cy="16.705904642201357" fx="22.326852318087973" fy="16.705904642201357" r="9.148147583007812"><stop offset="0.0" stop-color="#8c8c8c"/><stop offset="1.0" stop-color="#404040"/></radialGradient></defs><path fill="url(#p.2)" d="m224.2336 99.284775l19.984253 -19.984253l0 127.07086l-19.984253 19.984253z" fill-rule="evenodd"/><defs><radialGradient id="p.3" gradientUnits="userSpaceOnUse" gradientTransform="matrix(9.148147751510388 0.0 0.0 9.148147751510388 0.0 0.0)" spreadMethod="pad" cx="22.326852318087973" cy="16.705904642201357" fx="22.326852318087973" fy="16.705904642201357" r="9.148147583007812"><stop offset="0.0" stop-color="#8c8c8c"/><stop offset="1.0" stop-color="#404040"/></radialGradient></defs><path fill="url(#p.3)" d="m164.28084 99.284775l19.984253 -19.984253l59.95276 0l-19.984253 19.984253z" fill-rule="evenodd"/><path fill="#000000" fill-opacity="0.0" d="m164.28084 99.284775l19.984253 -19.984253l59.95276 0l0 127.07086l-19.984253 19.984253l-59.95276 0zm0 0l59.95276 0l19.984253 -19.984253m-19.984253 19.984253l0 127.07086" fill-rule="evenodd"/><path fill="#000000" fill-opacity="0.2" d="m224.2336 99.284775l19.984253 -19.984253l0 127.07086l-19.984253 19.984253z" fill-rule="evenodd"/><path fill="#ffffff" fill-opacity="0.2" d="m164.28084 99.284775l19.984253 -19.984253l59.95276 0l-19.984253 19.984253z" fill-rule="evenodd"/><path stroke="#000000" stroke-width="1.0" stroke-linejoin="round" stroke-linecap="butt" d="m164.28084 99.284775l19.984253 -19.984253l59.95276 0l0 127.07086l-19.984253 19.984253l-59.95276 0zm0 0l59.95276 0l19.984253 -19.984253m-19.984253 19.984253l0 127.07086" fill-rule="evenodd"/><path fill="#000000" fill-opacity="0.0" d="m163.97113 196.68636l59.87401 0" fill-rule="evenodd"/><path stroke="#000000" stroke-width="1.0" stroke-linejoin="round" stroke-linecap="butt" d="m163.97113 196.68636l59.87401 0" fill-rule="evenodd"/><path fill="#000000" fill-opacity="0.0" d="m194.25722 99.284775l0 96.944885" fill-rule="evenodd"/><path stroke="#000000" stroke-width="1.0" stroke-linejoin="round" stroke-linecap="butt" d="m194.25722 99.284775l0 96.944885" fill-rule="evenodd"/><path fill="#000000" fill-opacity="0.0" d="m179.28084 210.35826l29.952759 0" fill-rule="evenodd"/><path stroke="#000000" stroke-width="1.0" stroke-linejoin="round" stroke-linecap="butt" d="m179.28084 210.35826l29.952759 0" fill-rule="evenodd"/><defs><radialGradient id="p.4" gradientUnits="userSpaceOnUse" gradientTransform="matrix(2.8976192471594997 0.0 0.0 2.8976192471594997 0.0 0.0)" spreadMethod="pad" cx="66.9198124194631" cy="43.05960533968012" fx="66.9198124194631" fy="43.05960533968012" r="2.8976192474365234"><stop offset="0.0" stop-color="#ffffff"/><stop offset="1.0" stop-color="#b3b3b3"/></radialGradient></defs><path fill="url(#p.4)" d="m187.97113 124.77034l0 0c0 -3.2789154 2.658081 -5.937004 5.9370117 -5.937004l0 0c1.574585 0 3.0846863 0.62550354 4.1980896 1.7389069c1.1134033 1.1134033 1.7389069 2.6235046 1.7389069 4.198097l0 0c0 3.2789154 -2.658081 5.9370117 -5.9369965 5.9370117l0 0c-3.2789307 0 -5.9370117 -2.6580963 -5.9370117 -5.9370117z" fill-rule="evenodd"/><path stroke="#000000" stroke-width="1.0" stroke-linejoin="round" stroke-linecap="butt" d="m187.97113 124.77034l0 0c0 -3.2789154 2.658081 -5.937004 5.9370117 -5.937004l0 0c1.574585 0 3.0846863 0.62550354 4.1980896 1.7389069c1.1134033 1.1134033 1.7389069 2.6235046 1.7389069 4.198097l0 0c0 3.2789154 -2.658081 5.9370117 -5.9369965 5.9370117l0 0c-3.2789307 0 -5.9370117 -2.6580963 -5.9370117 -5.9370117z" fill-rule="evenodd"/></g></svg>