<svg version="1.1" viewBox="0.0 0.0 800.0 600.0" fill="none" stroke="none" stroke-linecap="square" stroke-miterlimit="10" xmlns:xlink="http://www.w3.org/1999/xlink" xmlns="http://www.w3.org/2000/svg"><clipPath id="p.0"><path d="m0 0l800.0 0l0 600.0l-800.0 0l0 -600.0z" clip-rule="nonzero"/></clipPath><g clip-path="url(#p.0)"><path fill="#000000" fill-opacity="0.0" d="m0 0l800.0 0l0 600.0l-800.0 0z" fill-rule="evenodd"/><path fill="#cfe2f3" d="m538.0486 231.58661l66.04724 0l0 41.88977l-66.04724 0z" fill-rule="evenodd"/><path stroke="#000000" stroke-width="1.0" stroke-linejoin="round" stroke-linecap="butt" d="m538.0486 231.58661l66.04724 0l0 41.88977l-66.04724 0z" fill-rule="evenodd"/><path fill="#ffffff" d="m541.92255 235.77559l58.299255 0l0 33.511826l-58.299255 0z" fill-rule="evenodd"/><path stroke="#000000" stroke-width="1.0" stroke-linejoin="round" stroke-linecap="butt" d="m541.92255 235.77559l58.299255 0l0 33.511826l-58.299255 0z" fill-rule="evenodd"/><path fill="#000000" fill-opacity="0.0" d="m571.0722 273.47638l0 8.913391" fill-rule="evenodd"/><path stroke="#000000" stroke-width="1.0" stroke-linejoin="round" stroke-linecap="butt" d="m571.0722 273.47638l0 8.913391" fill-rule="evenodd"/><path fill="#000000" fill-opacity="0.0" d="m559.95404 282.38977l22.236267 0" fill-rule="evenodd"/><path stroke="#000000" stroke-width="1.0" stroke-linejoin="round" stroke-linecap="butt" d="m559.95404 282.38977l22.236267 0" fill-rule="evenodd"/><path fill="#ead1dc" d="m195.9042 231.58661l66.04724 0l0 41.88977l-66.04724 0z" fill-rule="evenodd"/><path stroke="#000000" stroke-width="1.0" stroke-linejoin="round" stroke-linecap="butt" d="m195.9042 231.58661l66.04724 0l0 41.88977l-66.04724 0z" fill-rule="evenodd"/><path fill="#ffffff" d="m199.77821 235.77559l58.29921 0l0 33.511826l-58.29921 0z" fill-rule="evenodd"/><path stroke="#000000" stroke-width="1.0" stroke-linejoin="round" stroke-linecap="butt" d="m199.77821 235.77559l58.29921 0l0 33.511826l-58.29921 0z" fill-rule="evenodd"/><path fill="#000000" fill-opacity="0.0" d="m228.92783 273.47638l0 8.913391" fill-rule="evenodd"/><path stroke="#000000" stroke-width="1.0" stroke-linejoin="round" stroke-linecap="butt" d="m228.92783 273.47638l0 8.913391" fill-rule="evenodd"/><path fill="#000000" fill-opacity="0.0" d="m217.80971 282.38977l22.236221 0" fill-rule="evenodd"/><path stroke="#000000" stroke-width="1.0" stroke-linejoin="round" stroke-linecap="butt" d="m217.80971 282.38977l22.236221 0" fill-rule="evenodd"/><path fill="#fff2cc" d="m502.39108 104.15879l66.04721 0l0 41.889763l-66.04721 0z" fill-rule="evenodd"/><path stroke="#000000" stroke-width="1.0" stroke-linejoin="round" stroke-linecap="butt" d="m502.39108 104.15879l66.04721 0l0 41.889763l-66.04721 0z" fill-rule="evenodd"/><path fill="#ffffff" d="m506.2651 108.34777l58.299225 0l0 33.511803l-58.299225 0z" fill-rule="evenodd"/><path stroke="#000000" stroke-width="1.0" stroke-linejoin="round" stroke-linecap="butt" d="m506.2651 108.34777l58.299225 0l0 33.511803l-58.299225 0z" fill-rule="evenodd"/><path fill="#000000" fill-opacity="0.0" d="m535.4147 146.04855l0 8.913391" fill-rule="evenodd"/><path stroke="#000000" stroke-width="1.0" stroke-linejoin="round" stroke-linecap="butt" d="m535.4147 146.04855l0 8.913391" fill-rule="evenodd"/><path fill="#000000" fill-opacity="0.0" d="m524.2966 154.96194l22.236267 0" fill-rule="evenodd"/><path stroke="#000000" stroke-width="1.0" stroke-linejoin="round" stroke-linecap="butt" d="m524.2966 154.96194l22.236267 0" fill-rule="evenodd"/><path fill="#000000" fill-opacity="0.0" d="m261.95145 252.5315l276.0945 0" fill-rule="evenodd"/><path stroke="#ff0000" stroke-width="1.0" stroke-linejoin="round" stroke-linecap="butt" d="m261.95145 252.5315l276.0945 0" fill-rule="evenodd"/><path fill="#e6b8af" d="m231.56299 104.1601l66.04724 0l0 41.889763l-66.04724 0z" fill-rule="evenodd"/><path stroke="#000000" stroke-width="1.0" stroke-linejoin="round" stroke-linecap="butt" d="m231.56299 104.1601l66.04724 0l0 41.889763l-66.04724 0z" fill-rule="evenodd"/><path fill="#ffffff" d="m235.43701 108.34908l58.299194 0l0 33.511803l-58.299194 0z" fill-rule="evenodd"/><path stroke="#000000" stroke-width="1.0" stroke-linejoin="round" stroke-linecap="butt" d="m235.43701 108.34908l58.299194 0l0 33.511803l-58.299194 0z" fill-rule="evenodd"/><path fill="#000000" fill-opacity="0.0" d="m264.5866 146.04987l0 8.913391" fill-rule="evenodd"/><path stroke="#000000" stroke-width="1.0" stroke-linejoin="round" stroke-linecap="butt" d="m264.5866 146.04987l0 8.913391" fill-rule="evenodd"/><path fill="#000000" fill-opacity="0.0" d="m253.4685 154.96326l22.236206 0" fill-rule="evenodd"/><path stroke="#000000" stroke-width="1.0" stroke-linejoin="round" stroke-linecap="butt" d="m253.4685 154.96326l22.236206 0" fill-rule="evenodd"/><path fill="#cccccc" d="m502.38977 359.01312l66.04724 0l0 41.88977l-66.04724 0z" fill-rule="evenodd"/><path stroke="#000000" stroke-width="1.0" stroke-linejoin="round" stroke-linecap="butt" d="m502.38977 359.01312l66.04724 0l0 41.88977l-66.04724 0z" fill-rule="evenodd"/><path fill="#ffffff" d="m506.2638 363.2021l58.299194 0l0 33.51181l-58.299194 0z" fill-rule="evenodd"/><path stroke="#000000" stroke-width="1.0" stroke-linejoin="round" stroke-linecap="butt" d="m506.2638 363.2021l58.299194 0l0 33.51181l-58.299194 0z" fill-rule="evenodd"/><path fill="#000000" fill-opacity="0.0" d="m535.4134 400.9029l0 8.913391" fill-rule="evenodd"/><path stroke="#000000" stroke-width="1.0" stroke-linejoin="round" stroke-linecap="butt" d="m535.4134 400.9029l0 8.913391" fill-rule="evenodd"/><path fill="#000000" fill-opacity="0.0" d="m524.2953 409.81628l22.236206 0" fill-rule="evenodd"/><path stroke="#000000" stroke-width="1.0" stroke-linejoin="round" stroke-linecap="butt" d="m524.2953 409.81628l22.236206 0" fill-rule="evenodd"/><path fill="#000000" fill-opacity="0.0" d="m297.61023 125.10499l204.78741 254.86615" fill-rule="evenodd"/><path stroke="#ff0000" stroke-width="1.0" stroke-linejoin="round" stroke-linecap="butt" d="m297.61023 125.10499l204.78741 254.86615" fill-rule="evenodd"/><path fill="#d9ead3" d="m231.5643 359.0118l66.04724 0l0 41.88977l-66.04724 0z" fill-rule="evenodd"/><path stroke="#000000" stroke-width="1.0" stroke-linejoin="round" stroke-linecap="butt" d="m231.5643 359.0118l66.04724 0l0 41.88977l-66.04724 0z" fill-rule="evenodd"/><path fill="#ffffff" d="m235.43832 363.20078l58.299194 0l0 33.51181l-58.299194 0z" fill-rule="evenodd"/><path stroke="#000000" stroke-width="1.0" stroke-linejoin="round" stroke-linecap="butt" d="m235.43832 363.20078l58.299194 0l0 33.51181l-58.299194 0z" fill-rule="evenodd"/><path fill="#000000" fill-opacity="0.0" d="m264.58792 400.90158l0 8.913391" fill-rule="evenodd"/><path stroke="#000000" stroke-width="1.0" stroke-linejoin="round" stroke-linecap="butt" d="m264.58792 400.90158l0 8.913391" fill-rule="evenodd"/><path fill="#000000" fill-opacity="0.0" d="m253.46982 409.81497l22.236206 0" fill-rule="evenodd"/><path stroke="#000000" stroke-width="1.0" stroke-linejoin="round" stroke-linecap="butt" d="m253.46982 409.81497l22.236206 0" fill-rule="evenodd"/><path fill="#000000" fill-opacity="0.0" d="m502.3937 125.097115l-204.78741 254.86615" fill-rule="evenodd"/><path stroke="#ff0000" stroke-width="1.0" stroke-linejoin="round" stroke-linecap="butt" d="m502.3937 125.097115l-204.78741 254.86615" fill-rule="evenodd"/><defs><radialGradient id="p.1" gradientUnits="userSpaceOnUse" gradientTransform="matrix(9.148147751510388 0.0 0.0 9.148147751510388 0.0 0.0)" spreadMethod="pad" cx="43.7416257927161" cy="28.09182754333503" fx="43.7416257927161" fy="28.09182754333503" r="9.148147583007812"><stop offset="0.0" stop-color="#8c8c8c"/><stop offset="1.0" stop-color="#404040"/></radialGradient></defs><path fill="url(#p.1)" d="m360.18634 203.44489l59.95276 0l0 127.07086l-59.95276 0z" fill-rule="evenodd"/><defs><radialGradient id="p.2" gradientUnits="userSpaceOnUse" gradientTransform="matrix(9.148147751510388 0.0 0.0 9.148147751510388 0.0 0.0)" spreadMethod="pad" cx="43.7416257927161" cy="28.09182754333503" fx="43.7416257927161" fy="28.09182754333503" r="9.148147583007812"><stop offset="0.0" stop-color="#8c8c8c"/><stop offset="1.0" stop-color="#404040"/></radialGradient></defs><path fill="url(#p.2)" d="m420.1391 203.44489l19.984253 -19.984253l0 127.07086l-19.984253 19.984253z" fill-rule="evenodd"/><defs><radialGradient id="p.3" gradientUnits="userSpaceOnUse" gradientTransform="matrix(9.148147751510388 0.0 0.0 9.148147751510388 0.0 0.0)" spreadMethod="pad" cx="43.7416257927161" cy="28.09182754333503" fx="43.7416257927161" fy="28.09182754333503" r="9.148147583007812"><stop offset="0.0" stop-color="#8c8c8c"/><stop offset="1.0" stop-color="#404040"/></radialGradient></defs><path fill="url(#p.3)" d="m360.18634 203.44489l19.984253 -19.984253l59.95276 0l-19.984253 19.984253z" fill-rule="evenodd"/><path fill="#000000" fill-opacity="0.0" d="m360.18634 203.44489l19.984253 -19.984253l59.95276 0l0 127.07086l-19.984253 19.984253l-59.95276 0zm0 0l59.95276 0l19.984253 -19.984253m-19.984253 19.984253l0 127.07086" fill-rule="evenodd"/><path fill="#000000" fill-opacity="0.2" d="m420.1391 203.44489l19.984253 -19.984253l0 127.07086l-19.984253 19.984253z" fill-rule="evenodd"/><path fill="#ffffff" fill-opacity="0.2" d="m360.18634 203.44489l19.984253 -19.984253l59.95276 0l-19.984253 19.984253z" fill-rule="evenodd"/><path stroke="#000000" stroke-width="1.0" stroke-linejoin="round" stroke-linecap="butt" d="m360.18634 203.44489l19.984253 -19.984253l59.95276 0l0 127.07086l-19.984253 19.984253l-59.95276 0zm0 0l59.95276 0l19.984253 -19.984253m-19.984253 19.984253l0 127.07086" fill-rule="evenodd"/><path fill="#000000" fill-opacity="0.0" d="m359.87665 300.84647l59.874023 0" fill-rule="evenodd"/><path stroke="#000000" stroke-width="1.0" stroke-linejoin="round" stroke-linecap="butt" d="m359.87665 300.84647l59.874023 0" fill-rule="evenodd"/><path fill="#000000" fill-opacity="0.0" d="m390.16272 203.44489l0 96.944885" fill-rule="evenodd"/><path stroke="#000000" stroke-width="1.0" stroke-linejoin="round" stroke-linecap="butt" d="m390.16272 203.44489l0 96.944885" fill-rule="evenodd"/><path fill="#000000" fill-opacity="0.0" d="m375.18634 314.51837l29.952759 0" fill-rule="evenodd"/><path stroke="#000000" stroke-width="1.0" stroke-linejoin="round" stroke-linecap="butt" d="m375.18634 314.51837l29.952759 0" fill-rule="evenodd"/><defs><radialGradient id="p.4" gradientUnits="userSpaceOnUse" gradientTransform="matrix(2.8976192471594997 0.0 0.0 2.8976192471594997 0.0 0.0)" spreadMethod="pad" cx="134.52894084552094" cy="79.0063934102603" fx="134.52894084552094" fy="79.0063934102603" r="2.8976192474365234"><stop offset="0.0" stop-color="#ffffff"/><stop offset="1.0" stop-color="#b3b3b3"/></radialGradient></defs><path fill="url(#p.4)" d="m383.87665 228.93045l0 0c0 -3.2789307 2.658081 -5.9370117 5.9370117 -5.9370117l0 0c1.574585 0 3.0846863 0.62550354 4.1980896 1.7389069c1.1134033 1.1134033 1.7389221 2.6235046 1.7389221 4.198105l0 0c0 3.2789154 -2.6581116 5.9369965 -5.9370117 5.9369965l0 0c-3.2789307 0 -5.9370117 -2.658081 -5.9370117 -5.9369965z" fill-rule="evenodd"/><path stroke="#000000" stroke-width="1.0" stroke-linejoin="round" stroke-linecap="butt" d="m383.87665 228.93045l0 0c0 -3.2789307 2.658081 -5.9370117 5.9370117 -5.9370117l0 0c1.574585 0 3.0846863 0.62550354 4.1980896 1.7389069c1.1134033 1.1134033 1.7389221 2.6235046 1.7389221 4.198105l0 0c0 3.2789154 -2.6581116 5.9369965 -5.9370117 5.9369965l0 0c-3.2789307 0 -5.9370117 -2.658081 -5.9370117 -5.9369965z" fill-rule="evenodd"/><path fill="#000000" fill-opacity="0.0" d="m220.96457 453.82547l358.07877 0l0 42.015747l-358.07877 0z" fill-rule="evenodd"/><path fill="#000000" d="m343.44543 480.74545l6.46875 -12.921875l6.46875 12.921875l-12.9375 0z" fill-rule="nonzero"/><path fill="#000000" d="m370.7187 466.12045q-0.234375 0.671875 -0.828125 1.265625l3.640625 0q0.515625 -1.1875 0.75 -1.9375l1.484375 0.296875q0.296875 0.296875 -0.234375 0.375l-0.59375 1.265625l5.9375 0l0 1.1875l-6.15625 0l0 0.96875l4.96875 0l0 1.1875l-4.96875 0l0 0.953125l4.96875 0l0 1.1875l-4.96875 0l0 1.125l6.6875 0l0 1.1875l-6.6875 0l0 1.109375l7.28125 0l0 1.40625l-5.796875 0q2.375 1.703125 6.09375 2.53125l-0.53125 1.484375q-4.15625 -1.046875 -7.046875 -3.71875l0 4.390625l-1.484375 0l0 -4.3125q-2.296875 2.375 -7.34375 3.859375l-0.515625 -1.40625q3.78125 -0.96875 6.375 -2.828125l-5.9375 0l0 -1.40625l7.421875 0l0 -1.109375l-2.59375 0l-2.59375 0l0 -5.28125q-0.671875 0.75 -1.640625 1.484375l-0.8125 -1.03125q2.8125 -2.296875 3.9375 -5.046875l1.40625 0.4375q0.296875 0.296875 -0.21875 0.375zm-1.421875 6.75l0 1.125l3.9375 0l0 -1.125l-3.9375 0zm0 -2.140625l0 0.953125l3.9375 0l0 -0.953125l-3.9375 0zm0 -2.15625l0 0.96875l3.9375 0l0 -0.96875l-3.9375 0zm22.71875 6.75l0 -4.828125l-4.828125 0l0 4.828125l4.828125 0zm0 -9.640625l1.40625 0q0.59375 0.0625 0.078125 0.4375l0 2.96875l6.453125 0l0 8.171875l-1.484375 0l0 -0.53125l-4.96875 0l0 5.578125l-1.484375 0l0 -5.578125l-4.828125 0l0 0.96875l-1.484375 0l0 -8.609375l6.3125 0l0 -3.40625zm6.453125 9.640625l0 -4.828125l-4.96875 0l0 4.828125l4.96875 0zm17.671875 2.671875q0.953125 1.78125 1.703125 1.78125q0.296875 0 0.375 -0.4375l0.140625 -1.265625l1.640625 0.734375l-0.296875 1.78125q-0.234375 1.265625 -1.34375 1.265625q-2.21875 0 -3.78125 -3.046875q-1.484375 -2.890625 -1.5625 -8.15625l-9.125 0l0 -1.640625l9.046875 0l0 -3.40625l1.640625 0q0.734375 0.140625 0.078125 0.59375l0 2.8125l5.1875 0l0 1.640625l-5.1875 0q0.296875 5.1875 1.484375 7.34375zm-2.90625 1.34375q-4.15625 0.890625 -8.375 1.625q-0.15625 0.671875 -0.53125 0.15625l-0.359375 -1.859375q1.84375 -0.15625 3.625 -0.453125l0 -4.21875l-2.96875 0l0 -1.421875l7.359375 0l0 1.421875l-2.90625 0l0 4.0q1.71875 -0.21875 3.9375 -0.671875l0.21875 1.421875zm3.421875 -13.359375q1.03125 0.515625 2.0 1.40625l-1.328125 1.109375q-0.75 -0.734375 -1.9375 -1.40625l1.265625 -1.109375zm11.578125 5.859375q0.671875 0 0.734375 -0.671875l0.15625 -2.453125l-1.859375 0q-0.078125 3.203125 -3.9375 5.125l-0.59375 -1.484375q2.90625 -1.109375 3.046875 -3.640625l-2.453125 0l0 -1.40625l2.53125 0l0 -1.859375l1.40625 0q0.59375 0.078125 0.078125 0.453125l0 1.40625l3.265625 0l-0.296875 4.234375q-0.15625 1.703125 -1.5625 1.703125l-1.265625 0l-0.21875 -1.40625l0.96875 0zm8.3125 1.265625l0 -0.375l-3.421875 0l0 0.515625l-1.484375 0l0 -6.671875l6.390625 0l0 6.53125l-1.484375 0zm-3.421875 -1.78125l3.421875 0l0 -3.34375l-3.421875 0l0 3.34375zm-1.78125 2.375q0.59375 0.0625 0.078125 0.4375l0 0.8125l6.828125 0l0 1.421875l-6.53125 0q1.9375 2.0 7.125 3.328125l-0.515625 1.71875q-4.234375 -1.265625 -6.90625 -3.71875l0 4.6875l-1.484375 0l0 -4.53125q-2.0 2.375 -6.609375 3.703125l-0.515625 -1.703125q4.609375 -1.046875 6.75 -3.484375l-6.453125 0l0 -1.421875l6.828125 0l0 -1.25l1.40625 0zm9.65625 2.734375q2.078125 -3.03125 2.75 -6.078125l-2.234375 0l0 -1.40625l2.296875 0l0 -3.5625l1.421875 0q0.59375 0.0625 0.0625 0.4375l0 3.125l2.078125 0l0 1.40625l-2.078125 0l0 2.375q1.34375 0.8125 2.453125 1.78125l-0.8125 1.484375q-1.046875 -1.046875 -1.640625 -1.5625l0 8.171875l-1.484375 0l0 -8.3125q-0.4375 1.546875 -1.78125 3.40625l-1.03125 -1.265625zm8.75 6.09375l-1.25 0l0 -3.265625l-1.5625 0l0 -1.1875l1.5625 0l0 -4.453125l3.484375 0l0 -0.890625l-5.125 0l0 -1.1875l3.1875 0l0 -1.109375l-1.921875 0l0 -1.1875l1.921875 0l0 -0.96875l-2.671875 0l0 -1.1875l2.671875 0l0 -1.78125l1.1875 0q0.59375 0.078125 0.078125 0.4375l0 1.34375l2.453125 0l0 -1.78125l1.1875 0q0.59375 0.078125 0.078125 0.4375l0 1.34375l2.8125 0l0 1.1875l-2.8125 0l0 0.96875l2.0 0l0 1.1875l-2.0 0l0 1.109375l3.265625 0l0 1.1875l-5.046875 0l0 0.890625l3.5625 0l0 4.453125l1.546875 0l0 1.1875l-1.546875 0l0 2.078125q0 0.96875 -0.890625 0.96875l-1.421875 0l-0.140625 -1.40625l0.96875 0q0.21875 0 0.21875 -0.3125l0 -1.328125l-5.796875 0l0 3.265625zm1.5625 -13.28125l2.453125 0l0 -0.96875l-2.453125 0l0 0.96875zm0 2.296875l2.453125 0l0 -1.109375l-2.453125 0l0 1.109375zm1.9375 4.296875l2.296875 0l0 -1.03125l-2.296875 0l0 1.03125zm-3.5 0l2.234375 0l0 -1.03125l-2.234375 0l0 1.03125zm0 2.234375l2.234375 0l0 -1.046875l-2.234375 0l0 1.046875zm3.5 0l2.296875 0l0 -1.046875l-2.296875 0l0 1.046875z" fill-rule="nonzero"/></g></svg>