<svg version="1.1" viewBox="0.0 0.0 497.28608923884514 320.28608923884514" fill="none" stroke="none" stroke-linecap="square" stroke-miterlimit="10" xmlns:xlink="http://www.w3.org/1999/xlink" xmlns="http://www.w3.org/2000/svg"><clipPath id="p.0"><path d="m0 0l497.2861 0l0 320.2861l-497.2861 0l0 -320.2861z" clip-rule="nonzero"/></clipPath><g clip-path="url(#p.0)"><path fill="#000000" fill-opacity="0.0" d="m0 0l497.2861 0l0 320.2861l-497.2861 0z" fill-rule="evenodd"/><path fill="#000000" fill-opacity="0.0" d="m-1.4761008 2.927639l477.48035 0l0 314.43082l-477.48035 0z" fill-rule="evenodd"/><path fill="#d9ead3" d="m-1.1378152 34.877346l432.47244 0l0 69.35434l-432.47244 0z" fill-rule="evenodd"/><path stroke="#000000" stroke-width="1.0" stroke-linejoin="round" stroke-linecap="butt" d="m-1.1378152 34.877346l432.47244 0l0 69.35434l-432.47244 0z" fill-rule="evenodd"/><path fill="#000000" fill-opacity="0.0" d="m431.32913 67.18249l67.433044 0l0 37.039368l-67.433044 0z" fill-rule="evenodd"/><path fill="#93c47d" d="m446.07703 97.94248l0 -16.21875l2.140625 0l0 6.65625l8.4375 0l0 -6.65625l2.140625 0l0 16.21875l-2.140625 0l0 -7.640625l-8.4375 0l0 7.640625l-2.140625 0zm23.736603 0l0 -1.71875q-1.359375 1.984375 -3.71875 1.984375q-1.046875 0 -1.953125 -0.390625q-0.890625 -0.40625 -1.328125 -1.0q-0.4375 -0.609375 -0.609375 -1.484375q-0.125 -0.59375 -0.125 -1.859375l0 -7.28125l1.984375 0l0 6.515625q0 1.5625 0.125 2.109375q0.1875 0.78125 0.796875 1.234375q0.609375 0.4375 1.5 0.4375q0.90625 0 1.6875 -0.453125q0.78125 -0.46875 1.109375 -1.25q0.328125 -0.796875 0.328125 -2.296875l0 -6.296875l1.984375 0l0 11.75l-1.78125 0zm6.740967 0l-1.84375 0l0 -16.21875l1.984375 0l0 5.78125q1.265625 -1.578125 3.21875 -1.578125q1.09375 0 2.0625 0.4375q0.96875 0.4375 1.59375 1.234375q0.625 0.78125 0.96875 1.90625q0.359375 1.109375 0.359375 2.390625q0 3.015625 -1.5 4.671875q-1.484375 1.640625 -3.578125 1.640625q-2.078125 0 -3.265625 -1.734375l0 1.46875zm-0.015625 -5.96875q0 2.125 0.578125 3.0625q0.9375 1.53125 2.53125 1.53125q1.3125 0 2.265625 -1.125q0.953125 -1.140625 0.953125 -3.390625q0 -2.296875 -0.921875 -3.390625q-0.90625 -1.09375 -2.203125 -1.09375q-1.3125 0 -2.265625 1.140625q-0.9375 1.125 -0.9375 3.265625z" fill-rule="nonzero"/><path fill="#fce5cd" d="m77.571144 47.254898l44.661415 0l0 44.598427l-44.661415 0z" fill-rule="evenodd"/><path stroke="#000000" stroke-width="1.0" stroke-linejoin="round" stroke-linecap="butt" stroke-dasharray="4.0,3.0" d="m77.571144 47.254898l44.661415 0l0 44.598427l-44.661415 0z" fill-rule="evenodd"/><path fill="#f4cccc" d="m154.36197 47.254898l44.661407 0l0 44.598427l-44.661407 0z" fill-rule="evenodd"/><path stroke="#000000" stroke-width="1.0" stroke-linejoin="round" stroke-linecap="butt" stroke-dasharray="4.0,3.0" d="m154.36197 47.254898l44.661407 0l0 44.598427l-44.661407 0z" fill-rule="evenodd"/><path fill="#c9daf8" d="m231.15279 47.254898l44.661423 0l0 44.598427l-44.661423 0z" fill-rule="evenodd"/><path stroke="#000000" stroke-width="1.0" stroke-linejoin="round" stroke-linecap="butt" stroke-dasharray="4.0,3.0" d="m231.15279 47.254898l44.661423 0l0 44.598427l-44.661423 0z" fill-rule="evenodd"/><path fill="#ead1dc" d="m307.9436 47.254898l44.661438 0l0 44.598427l-44.661438 0z" fill-rule="evenodd"/><path stroke="#000000" stroke-width="1.0" stroke-linejoin="round" stroke-linecap="butt" stroke-dasharray="4.0,3.0" d="m307.9436 47.254898l44.661438 0l0 44.598427l-44.661438 0z" fill-rule="evenodd"/><path fill="#fce5cd" d="m77.57206 272.43195l44.661415 0l0 44.59842l-44.661415 0z" fill-rule="evenodd"/><path stroke="#000000" stroke-width="1.0" stroke-linejoin="round" stroke-linecap="butt" d="m77.57206 272.43195l44.661415 0l0 44.59842l-44.661415 0z" fill-rule="evenodd"/><path fill="#000000" d="m93.649734 301.65115l5.125 -13.359375l1.90625 0l5.46875 13.359375l-2.015625 0l-1.546875 -4.046875l-5.59375 0l-1.46875 4.046875l-1.875 0zm3.859375 -5.484375l4.53125 0l-1.40625 -3.703125q-0.625 -1.6875 -0.9375 -2.765625q-0.265625 1.28125 -0.71875 2.546875l-1.46875 3.921875z" fill-rule="nonzero"/><path fill="#000000" fill-opacity="0.0" d="m99.908615 91.84378l0 180.59842" fill-rule="evenodd"/><path stroke="#c9daf8" stroke-width="3.0" stroke-linejoin="round" stroke-linecap="butt" stroke-dasharray="12.0,9.0" d="m99.908615 91.84378l0 180.59842" fill-rule="evenodd"/><path fill="#000000" fill-opacity="0.0" d="m99.910385 91.84378l0 180.59842" fill-rule="evenodd"/><path stroke="#4a86e8" stroke-width="8.0" stroke-linejoin="round" stroke-linecap="butt" stroke-dasharray="32.0,24.0" d="m99.910385 91.84378l0 180.59842" fill-rule="evenodd"/><path fill="#f4cccc" d="m154.36288 272.43195l44.661423 0l0 44.59842l-44.661423 0z" fill-rule="evenodd"/><path stroke="#000000" stroke-width="1.0" stroke-linejoin="round" stroke-linecap="butt" d="m154.36288 272.43195l44.661423 0l0 44.59842l-44.661423 0z" fill-rule="evenodd"/><path fill="#000000" d="m171.83118 301.65115l0 -13.359375l5.015625 0q1.53125 0 2.453125 0.40625q0.921875 0.40625 1.4375 1.25q0.53125 0.84375 0.53125 1.765625q0 0.859375 -0.46875 1.625q-0.453125 0.75 -1.390625 1.203125q1.203125 0.359375 1.859375 1.21875q0.65625 0.859375 0.65625 2.015625q0 0.9375 -0.40625 1.75q-0.390625 0.796875 -0.984375 1.234375q-0.578125 0.4375 -1.453125 0.671875q-0.875 0.21875 -2.15625 0.21875l-5.09375 0zm1.78125 -7.75l2.875 0q1.1875 0 1.6875 -0.140625q0.671875 -0.203125 1.015625 -0.671875q0.34375 -0.46875 0.34375 -1.171875q0 -0.65625 -0.328125 -1.15625q-0.3125 -0.515625 -0.90625 -0.703125q-0.59375 -0.1875 -2.03125 -0.1875l-2.65625 0l0 4.03125zm0 6.171875l3.3125 0q0.859375 0 1.203125 -0.0625q0.609375 -0.109375 1.015625 -0.359375q0.421875 -0.265625 0.6875 -0.75q0.265625 -0.484375 0.265625 -1.125q0 -0.75 -0.390625 -1.296875q-0.375 -0.546875 -1.0625 -0.765625q-0.671875 -0.234375 -1.953125 -0.234375l-3.078125 0l0 4.59375z" fill-rule="nonzero"/><path fill="#c9daf8" d="m231.1537 272.43195l44.661423 0l0 44.59842l-44.661423 0z" fill-rule="evenodd"/><path stroke="#000000" stroke-width="1.0" stroke-linejoin="round" stroke-linecap="butt" d="m231.1537 272.43195l44.661423 0l0 44.59842l-44.661423 0z" fill-rule="evenodd"/><path fill="#000000" d="m257.7167 296.96365l1.765625 0.453125q-0.5625 2.171875 -2.0 3.328125q-1.4375 1.140625 -3.5312653 1.140625q-2.15625 0 -3.515625 -0.875q-1.34375 -0.890625 -2.0625 -2.546875q-0.703125 -1.671875 -0.703125 -3.59375q0 -2.078125 0.796875 -3.625q0.796875 -1.5625 2.265625 -2.359375q1.484375 -0.8125 3.25 -0.8125q2.0 0 3.3593903 1.015625q1.375 1.015625 1.90625 2.875l-1.734375 0.40625q-0.46875 -1.453125 -1.359375 -2.109375q-0.87501526 -0.671875 -2.2031403 -0.671875q-1.546875 0 -2.578125 0.734375q-1.03125 0.734375 -1.453125 1.984375q-0.421875 1.234375 -0.421875 2.5625q0 1.703125 0.5 2.96875q0.5 1.265625 1.546875 1.90625q1.046875 0.625 2.265625 0.625q1.484375 0 2.5156403 -0.859375q1.03125 -0.859375 1.390625 -2.546875z" fill-rule="nonzero"/><path fill="#ead1dc" d="m307.94452 272.43195l44.661438 0l0 44.59842l-44.661438 0z" fill-rule="evenodd"/><path stroke="#000000" stroke-width="1.0" stroke-linejoin="round" stroke-linecap="butt" d="m307.94452 272.43195l44.661438 0l0 44.59842l-44.661438 0z" fill-rule="evenodd"/><path fill="#000000" d="m324.97626 301.65115l0 -13.359375l4.609375 0q1.546875 0 2.375 0.203125q1.140625 0.25 1.953125 0.953125q1.0625 0.890625 1.578125 2.28125q0.53125 1.390625 0.53125 3.171875q0 1.515625 -0.359375 2.703125q-0.359375 1.171875 -0.921875 1.9375q-0.546875 0.765625 -1.203125 1.21875q-0.65625 0.4375 -1.59375 0.671875q-0.9375 0.21875 -2.140625 0.21875l-4.828125 0zm1.765625 -1.578125l2.859375 0q1.3125 0 2.0625 -0.234375q0.75 -0.25 1.203125 -0.703125q0.625 -0.625 0.96875 -1.6875q0.359375 -1.0625 0.359375 -2.578125q0 -2.09375 -0.6875 -3.21875q-0.6875 -1.125 -1.671875 -1.5q-0.703125 -0.28125 -2.28125 -0.28125l-2.8125 0l0 10.203125z" fill-rule="nonzero"/><path fill="#000000" fill-opacity="0.0" d="m176.69943 91.84378l0 180.59842" fill-rule="evenodd"/><path stroke="#4a86e8" stroke-width="8.0" stroke-linejoin="round" stroke-linecap="butt" stroke-dasharray="32.0,24.0" d="m176.69943 91.84378l0 180.59842" fill-rule="evenodd"/><path fill="#000000" fill-opacity="0.0" d="m253.4885 91.84378l0 180.59842" fill-rule="evenodd"/><path stroke="#4a86e8" stroke-width="8.0" stroke-linejoin="round" stroke-linecap="butt" stroke-dasharray="32.0,24.0" d="m253.4885 91.84378l0 180.59842" fill-rule="evenodd"/><path fill="#000000" fill-opacity="0.0" d="m99.90954 272.43195l0 -199.70529l230.36218 0l0 199.73679" fill-rule="evenodd"/><path stroke="#980000" stroke-width="1.0" stroke-linejoin="round" stroke-linecap="butt" d="m99.90953 272.43195l0 -199.70529l230.3622 0l0 196.3097" fill-rule="evenodd"/><path fill="#980000" stroke="#980000" stroke-width="1.0" stroke-linecap="butt" d="m330.27173 269.03635l-1.1245728 -1.1245728l1.1245728 3.0897522l1.1246033 -3.0897522z" fill-rule="evenodd"/><path fill="#000000" fill-opacity="0.0" d="m99.90954 272.43195l0 -198.92593l76.78739 0l0 198.95743" fill-rule="evenodd"/><path stroke="#980000" stroke-width="1.0" stroke-linejoin="round" stroke-linecap="butt" d="m99.90953 272.43195l0 -198.92593l76.7874 0l0 195.53033" fill-rule="evenodd"/><path fill="#980000" stroke="#980000" stroke-width="1.0" stroke-linecap="butt" d="m176.69693 269.03635l-1.124588 -1.1245728l1.124588 3.0897522l1.124588 -3.0897522z" fill-rule="evenodd"/><path fill="#000000" fill-opacity="0.0" d="m99.90954 272.43195l0 -199.70529l153.5748 0l0 199.73679" fill-rule="evenodd"/><path stroke="#980000" stroke-width="1.0" stroke-linejoin="round" stroke-linecap="butt" d="m99.90953 272.43195l0 -199.70529l153.5748 0l0 196.3097" fill-rule="evenodd"/><path fill="#980000" stroke="#980000" stroke-width="1.0" stroke-linecap="butt" d="m253.48433 269.03635l-1.1245728 -1.1245728l1.1245728 3.0897522l1.124588 -3.0897522z" fill-rule="evenodd"/><path fill="#000000" fill-opacity="0.0" d="m330.28287 91.84378l0 180.59842" fill-rule="evenodd"/><path stroke="#4a86e8" stroke-width="8.0" stroke-linejoin="round" stroke-linecap="butt" stroke-dasharray="32.0,24.0" d="m330.28287 91.84378l0 180.59842" fill-rule="evenodd"/></g></svg>