<svg version="1.1" viewBox="0.0 0.0 491.3910761154856 316.96325459317586" fill="none" stroke="none" stroke-linecap="square" stroke-miterlimit="10" xmlns:xlink="http://www.w3.org/1999/xlink" xmlns="http://www.w3.org/2000/svg"><clipPath id="p.0"><path d="m0 0l491.39108 0l0 316.96326l-491.39108 0l0 -316.96326z" clip-rule="nonzero"/></clipPath><g clip-path="url(#p.0)"><path fill="#000000" fill-opacity="0.0" d="m0 0l491.39108 0l0 316.96326l-491.39108 0z" fill-rule="evenodd"/><path fill="#000000" fill-opacity="0.0" d="m-6.417323E-4 -6.0E-4l476.6107 0l0 299.00076l-476.6107 0z" fill-rule="evenodd"/><path fill="#d9ead3" d="m0.3200979 31.240786l410.04724 0l0 65.732285l-410.04724 0z" fill-rule="evenodd"/><path stroke="#000000" stroke-width="1.0" stroke-linejoin="round" stroke-linecap="butt" d="m0.3200979 31.240786l410.04724 0l0 65.732285l-410.04724 0z" fill-rule="evenodd"/><path fill="#fce5cd" d="m74.94664 42.97327l42.362206 0l0 42.26772l-42.362206 0z" fill-rule="evenodd"/><path stroke="#000000" stroke-width="1.0" stroke-linejoin="round" stroke-linecap="butt" stroke-dasharray="4.0,3.0" d="m74.94664 42.97327l42.362206 0l0 42.26772l-42.362206 0z" fill-rule="evenodd"/><path fill="#f4cccc" d="m147.75453 42.97327l42.362213 0l0 42.26772l-42.362213 0z" fill-rule="evenodd"/><path stroke="#000000" stroke-width="1.0" stroke-linejoin="round" stroke-linecap="butt" stroke-dasharray="4.0,3.0" d="m147.75453 42.97327l42.362213 0l0 42.26772l-42.362213 0z" fill-rule="evenodd"/><path fill="#c9daf8" d="m220.56244 42.97327l42.362183 0l0 42.26772l-42.362183 0z" fill-rule="evenodd"/><path stroke="#000000" stroke-width="1.0" stroke-linejoin="round" stroke-linecap="butt" stroke-dasharray="4.0,3.0" d="m220.56244 42.97327l42.362183 0l0 42.26772l-42.362183 0z" fill-rule="evenodd"/><path fill="#ead1dc" d="m293.37033 42.97327l42.362213 0l0 42.26772l-42.362213 0z" fill-rule="evenodd"/><path stroke="#000000" stroke-width="1.0" stroke-linejoin="round" stroke-linecap="butt" stroke-dasharray="4.0,3.0" d="m293.37033 42.97327l42.362213 0l0 42.26772l-42.362213 0z" fill-rule="evenodd"/><path fill="#000000" fill-opacity="0.0" d="m168.9343 256.415l0 -122.73813l72.81891 0l0 122.76965" fill-rule="evenodd"/><path stroke="#ff00ff" stroke-width="4.0" stroke-linejoin="round" stroke-linecap="butt" d="m168.9343 256.41504l0 -122.73816l72.81891 0l0 109.061295" fill-rule="evenodd"/><path fill="#ff00ff" stroke="#ff00ff" stroke-width="4.0" stroke-linecap="butt" d="m241.7532 242.73817l-4.498337 -4.498337l4.498337 12.35907l4.4983215 -12.35907z" fill-rule="evenodd"/><path fill="#000000" fill-opacity="0.0" d="m96.1264 256.415l0 -199.26038l218.4252 0l0 199.2919" fill-rule="evenodd"/><path stroke="#980000" stroke-width="4.0" stroke-linejoin="round" stroke-linecap="butt" d="m96.1264 256.41504l0 -199.2604l218.4252 0l0 185.58356" fill-rule="evenodd"/><path fill="#980000" stroke="#980000" stroke-width="4.0" stroke-linecap="butt" d="m314.5516 242.73817l-4.498352 -4.498337l4.498352 12.35907l4.4983215 -12.35907z" fill-rule="evenodd"/><path fill="#000000" fill-opacity="0.0" d="m168.93343 85.238365l0 171.18109" fill-rule="evenodd"/><path stroke="#4a86e8" stroke-width="4.0" stroke-linejoin="round" stroke-linecap="butt" stroke-dasharray="16.0,12.0" d="m168.93343 85.238365l0 171.18109" fill-rule="evenodd"/><path fill="#000000" fill-opacity="0.0" d="m241.74132 85.238365l0 171.18109" fill-rule="evenodd"/><path stroke="#4a86e8" stroke-width="4.0" stroke-linejoin="round" stroke-linecap="butt" stroke-dasharray="16.0,12.0" d="m241.74132 85.238365l0 171.18109" fill-rule="evenodd"/><path fill="#000000" fill-opacity="0.0" d="m314.54587 81.36775l0 171.1811" fill-rule="evenodd"/><path stroke="#4a86e8" stroke-width="4.0" stroke-linejoin="round" stroke-linecap="butt" stroke-dasharray="16.0,12.0" d="m314.54587 81.36775l0 171.1811" fill-rule="evenodd"/><path fill="#000000" fill-opacity="0.0" d="m400.25723 53.346516l106.11023 0l0 42.26772l-106.11023 0z" fill-rule="evenodd"/><path fill="#93c47d" d="m420.9631 78.90339l2.03125 -0.1875q0.140625 1.21875 0.65625 2.0q0.53125 0.78125 1.640625 1.265625q1.109375 0.484375 2.484375 0.484375q1.234375 0 2.171875 -0.359375q0.9375 -0.375 1.390625 -1.015625q0.46875 -0.640625 0.46875 -1.390625q0 -0.765625 -0.453125 -1.328125q-0.4375 -0.578125 -1.453125 -0.953125q-0.65625 -0.265625 -2.890625 -0.796875q-2.234375 -0.53125 -3.125 -1.015625q-1.15625 -0.609375 -1.734375 -1.5q-0.5625 -0.90625 -0.5625 -2.03125q0 -1.21875 0.6875 -2.28125q0.703125 -1.078125 2.03125 -1.625q1.34375 -0.5625 2.984375 -0.5625q1.8125 0 3.1875 0.59375q1.375 0.578125 2.109375 1.703125q0.75 1.125 0.796875 2.546875l-2.046875 0.15625q-0.171875 -1.53125 -1.140625 -2.3125q-0.953125 -0.796875 -2.8125 -0.796875q-1.953125 0 -2.84375 0.71875q-0.890625 0.71875 -0.890625 1.71875q0 0.875 0.640625 1.4375q0.609375 0.5625 3.21875 1.15625q2.625 0.59375 3.59375 1.03125q1.421875 0.65625 2.09375 1.65625q0.671875 1.0 0.671875 2.3125q0 1.296875 -0.734375 2.4375q-0.734375 1.140625 -2.125 1.78125q-1.390625 0.640625 -3.125 0.640625q-2.203125 0 -3.703125 -0.640625q-1.484375 -0.640625 -2.328125 -1.921875q-0.84375 -1.296875 -0.890625 -2.921875zm17.752167 5.203125l-3.59375 -11.75l2.0625 0l1.875 6.78125l0.6875 2.53125q0.046875 -0.203125 0.609375 -2.4375l1.875 -6.875l2.046875 0l1.75 6.8125l0.59375 2.25l0.671875 -2.265625l2.015625 -6.796875l1.9375 0l-3.671875 11.75l-2.078125 0l-1.859375 -7.03125l-0.453125 -2.0l-2.390625 9.03125l-2.078125 0zm14.205353 -13.921875l0 -2.296875l2.0 0l0 2.296875l-2.0 0zm0 13.921875l0 -11.75l2.0 0l0 11.75l-2.0 0zm9.377258 -1.78125l0.28125 1.765625q-0.84375 0.171875 -1.5 0.171875q-1.078125 0 -1.6875 -0.34375q-0.59375 -0.34375 -0.84375 -0.890625q-0.234375 -0.5625 -0.234375 -2.359375l0 -6.765625l-1.46875 0l0 -1.546875l1.46875 0l0 -2.90625l1.984375 -1.203125l0 4.109375l2.0 0l0 1.546875l-2.0 0l0 6.875q0 0.84375 0.09375 1.09375q0.109375 0.25 0.34375 0.390625q0.25 0.140625 0.6875 0.140625q0.328125 0 0.875 -0.078125zm9.607117 -2.515625l1.96875 0.25q-0.328125 2.015625 -1.65625 3.171875q-1.3125 1.140625 -3.234375 1.140625q-2.421875 0 -3.890625 -1.578125q-1.453125 -1.578125 -1.453125 -4.515625q0 -1.90625 0.625 -3.328125q0.625 -1.4375 1.90625 -2.140625q1.296875 -0.71875 2.8125 -0.71875q1.921875 0 3.140625 0.96875q1.21875 0.96875 1.5625 2.75l-1.9375 0.296875q-0.28125 -1.1875 -0.984375 -1.78125q-0.703125 -0.59375 -1.703125 -0.59375q-1.5 0 -2.4375 1.078125q-0.9375 1.078125 -0.9375 3.40625q0 2.375 0.90625 3.453125q0.90625 1.0625 2.359375 1.0625q1.171875 0 1.953125 -0.71875q0.796875 -0.71875 1.0 -2.203125zm3.671875 4.296875l0 -16.21875l1.984375 0l0 5.8125q1.390625 -1.609375 3.515625 -1.609375q1.3125 0 2.265625 0.515625q0.96875 0.515625 1.375 1.421875q0.421875 0.90625 0.421875 2.640625l0 7.4375l-1.984375 0l0 -7.4375q0 -1.5 -0.65625 -2.171875q-0.640625 -0.6875 -1.828125 -0.6875q-0.890625 0 -1.671875 0.46875q-0.765625 0.453125 -1.109375 1.234375q-0.328125 0.78125 -0.328125 2.171875l0 6.421875l-1.984375 0z" fill-rule="nonzero"/><path fill="#fce5cd" d="m74.94751 256.415l42.362206 0l0 42.26773l-42.362206 0z" fill-rule="evenodd"/><path stroke="#000000" stroke-width="1.0" stroke-linejoin="round" stroke-linecap="butt" d="m74.94751 256.415l42.362206 0l0 42.26773l-42.362206 0z" fill-rule="evenodd"/><path fill="#000000" d="m89.87558 284.46887l5.125 -13.359375l1.90625 0l5.46875 13.359375l-2.015625 0l-1.546875 -4.046875l-5.59375 0l-1.46875 4.046875l-1.875 0zm3.859375 -5.484375l4.53125 0l-1.40625 -3.703125q-0.625 -1.6875 -0.9375 -2.765625q-0.265625 1.28125 -0.71875 2.546875l-1.46875 3.921875z" fill-rule="nonzero"/><path fill="#f4cccc" d="m147.7554 256.415l42.362213 0l0 42.26773l-42.362213 0z" fill-rule="evenodd"/><path stroke="#000000" stroke-width="1.0" stroke-linejoin="round" stroke-linecap="butt" d="m147.7554 256.415l42.362213 0l0 42.26773l-42.362213 0z" fill-rule="evenodd"/><path fill="#000000" d="m164.0741 284.46887l0 -13.359375l5.015625 0q1.53125 0 2.453125 0.40625q0.921875 0.40625 1.4375 1.25q0.53125 0.84375 0.53125 1.765625q0 0.859375 -0.46875 1.625q-0.453125 0.75 -1.390625 1.203125q1.203125 0.359375 1.859375 1.21875q0.65625 0.859375 0.65625 2.015625q0 0.9375 -0.40625 1.75q-0.390625 0.796875 -0.984375 1.234375q-0.578125 0.4375 -1.453125 0.671875q-0.875 0.21875 -2.15625 0.21875l-5.09375 0zm1.78125 -7.75l2.875 0q1.1875 0 1.6875 -0.140625q0.671875 -0.203125 1.015625 -0.671875q0.34375 -0.46875 0.34375 -1.171875q0 -0.65625 -0.328125 -1.15625q-0.3125 -0.515625 -0.90625 -0.703125q-0.59375 -0.1875 -2.03125 -0.1875l-2.65625 0l0 4.03125zm0 6.171875l3.3125 0q0.859375 0 1.203125 -0.0625q0.609375 -0.109375 1.015625 -0.359375q0.421875 -0.265625 0.6875 -0.75q0.265625 -0.484375 0.265625 -1.125q0 -0.75 -0.390625 -1.296875q-0.375 -0.546875 -1.0625 -0.765625q-0.671875 -0.234375 -1.953125 -0.234375l-3.078125 0l0 4.59375z" fill-rule="nonzero"/><path fill="#c9daf8" d="m220.56331 256.415l42.362198 0l0 42.26773l-42.362198 0z" fill-rule="evenodd"/><path stroke="#000000" stroke-width="1.0" stroke-linejoin="round" stroke-linecap="butt" d="m220.56331 256.415l42.362198 0l0 42.26773l-42.362198 0z" fill-rule="evenodd"/><path fill="#000000" d="m245.97668 279.78137l1.765625 0.453125q-0.5625 2.171875 -2.0 3.328125q-1.4375 1.140625 -3.53125 1.140625q-2.15625 0 -3.515625 -0.875q-1.34375 -0.890625 -2.0625 -2.546875q-0.703125 -1.671875 -0.703125 -3.59375q0 -2.078125 0.796875 -3.625q0.796875 -1.5625 2.265625 -2.359375q1.484375 -0.8125 3.25 -0.8125q2.0 0 3.359375 1.015625q1.375 1.015625 1.90625 2.875l-1.734375 0.40625q-0.46875 -1.453125 -1.359375 -2.109375q-0.875 -0.671875 -2.203125 -0.671875q-1.546875 0 -2.578125 0.734375q-1.03125 0.734375 -1.453125 1.984375q-0.421875 1.234375 -0.421875 2.5625q0 1.703125 0.5 2.96875q0.5 1.265625 1.546875 1.90625q1.046875 0.625 2.265625 0.625q1.484375 0 2.515625 -0.859375q1.03125 -0.859375 1.390625 -2.546875z" fill-rule="nonzero"/><path fill="#ead1dc" d="m293.37122 256.415l42.362183 0l0 42.26773l-42.362183 0z" fill-rule="evenodd"/><path stroke="#000000" stroke-width="1.0" stroke-linejoin="round" stroke-linecap="butt" d="m293.37122 256.415l42.362183 0l0 42.26773l-42.362183 0z" fill-rule="evenodd"/><path fill="#000000" d="m309.25333 284.46887l0 -13.359375l4.609375 0q1.546875 0 2.375 0.203125q1.140625 0.25 1.953125 0.953125q1.0625 0.890625 1.578125 2.28125q0.53125 1.390625 0.53125 3.171875q0 1.515625 -0.359375 2.703125q-0.359375 1.171875 -0.921875 1.9375q-0.546875 0.765625 -1.203125 1.21875q-0.65625 0.4375 -1.59375 0.671875q-0.9375 0.21875 -2.140625 0.21875l-4.828125 0zm1.765625 -1.578125l2.859375 0q1.3125 0 2.0625 -0.234375q0.75 -0.25 1.203125 -0.703125q0.625 -0.625 0.96875 -1.6875q0.359375 -1.0625 0.359375 -2.578125q0 -2.09375 -0.6875 -3.21875q-0.6875 -1.125 -1.671875 -1.5q-0.703125 -0.28125 -2.28125 -0.28125l-2.8125 0l0 10.203125z" fill-rule="nonzero"/><path fill="#000000" fill-opacity="0.0" d="m96.12553 85.238365l0 171.18109" fill-rule="evenodd"/><path stroke="#4a86e8" stroke-width="4.0" stroke-linejoin="round" stroke-linecap="butt" stroke-dasharray="16.0,12.0" d="m96.12553 85.238365l0 171.18109" fill-rule="evenodd"/></g></svg>